<svg width="80" height="80" viewBox="0 0 80 80" fill="none" xmlns="http://www.w3.org/2000/svg">
<g id="icon/responsive">
<path id="Vector" d="M58.2144 45C67.3271 45 74.7144 37.6127 74.7144 28.5C74.7144 19.3873 67.3271 12 58.2144 12C49.1017 12 41.7144 19.3873 41.7144 28.5C41.7144 37.6127 49.1017 45 58.2144 45Z" fill="#ADE3F6"></path>
<g id="Group">
<path id="Vector_2" d="M41.4954 34.2843V48.1888H34.8256C33.469 48.1888 32.3384 49.3194 32.3384 50.563V55.3105H6V34.2843C6 33.1537 6.90471 32.25 8.03432 32.25H39.46C40.5907 32.25 41.4954 33.1547 41.4954 34.2843Z" fill="url(#paint0_linear_3659_4747)"></path>
<path id="Vector_3" d="M57.9998 40.2762V65.372C57.9998 66.3897 57.2081 67.2934 56.0785 67.2934H41.3833C42.7399 67.2934 43.8705 66.1627 43.8705 64.8062V50.5629C43.8705 49.2063 42.7399 48.1886 41.3833 48.1886V38.4668H56.0785C57.2091 38.4668 57.9998 39.2596 57.9998 40.2762Z" fill="url(#paint1_linear_3659_4747)"></path>
<path id="Vector_4" d="M41.7214 38.4668H55.5129C56.8695 38.4668 57.8872 39.5974 57.8872 40.841V64.8062C57.8872 66.1627 56.7565 67.1804 55.5129 67.1804H41.9474" stroke="#08526D" stroke-width="2" stroke-linecap="round" stroke-linejoin="round" class="id_anim_stroke-property3" data-duration="2.7777777777777777" data-offset="0" style="stroke-dashoffset: 0px; stroke-dasharray: 0px, 58.7729px; animation: 2.77778s linear 0s 1 normal forwards running id_anim_stroke-property3;"></path>
<path id="Vector_5" d="M31.8865 61.4155H8.37423C7.01767 61.4155 6 60.2848 6 59.0412V34.6242C6 33.3806 7.13064 32.25 8.37423 32.25H39.0092C40.0269 32.25 41.0435 32.9278 41.2705 33.9454C41.3835 34.1714 41.3835 34.3973 41.3835 34.7372V47.9629" stroke="#08526D" stroke-width="2" stroke-linecap="round" stroke-linejoin="round" class="id_anim_stroke-property4" data-duration="2.7777777777777777" data-offset="0" style="stroke-dashoffset: 0px; stroke-dasharray: 0px, 103.069px; animation: 2.77778s linear 0s 1 normal forwards running id_anim_stroke-property4;"></path>
<path id="Vector_6" d="M29.5136 67.2935H17.0786" stroke="#08526D" stroke-width="2" stroke-linecap="round" stroke-linejoin="round" class="id_anim_stroke-property5" data-duration="2.7777777777777777" data-offset="0" style="stroke-dashoffset: 0px; stroke-dasharray: 0px, 12.435px; animation: 2.77778s linear 0s 1 normal forwards running id_anim_stroke-property5;"></path>
<path id="Vector_7" d="M25.7825 61.4155H20.5822L19.3396 67.2936H26.9131L25.7825 61.4155Z" stroke="#08526D" stroke-width="2" stroke-linecap="round" stroke-linejoin="round" class="id_anim_stroke-property6" data-duration="2.7777777777777777" data-offset="0" style="stroke-dashoffset: 0px; stroke-dasharray: 0px, 24.7676px; animation: 2.77778s linear 0s 1 normal forwards running id_anim_stroke-property6;"></path>
<path id="Vector_8" d="M31.8867 55.3105H7.46973" stroke="#08526D" stroke-width="2" stroke-linecap="round" stroke-linejoin="round" class="id_anim_stroke-property7" data-duration="2.7777777777777777" data-offset="0" style="stroke-dashoffset: 0px; stroke-dasharray: 0px, 24.417px; animation: 2.77778s linear 0s 1 normal forwards running id_anim_stroke-property7;"></path>
<path id="Vector_9" d="M23.1823 59.7201C23.8691 59.7201 24.4259 59.1633 24.4259 58.4765C24.4259 57.7897 23.8691 57.2329 23.1823 57.2329C22.4955 57.2329 21.9387 57.7897 21.9387 58.4765C21.9387 59.1633 22.4955 59.7201 23.1823 59.7201Z" fill="#08526D"></path>
<path id="Vector_10" d="M47.8261 65.598C48.5129 65.598 49.0697 65.0413 49.0697 64.3544C49.0697 63.6676 48.5129 63.1108 47.8261 63.1108C47.1393 63.1108 46.5825 63.6676 46.5825 64.3544C46.5825 65.0413 47.1393 65.598 47.8261 65.598Z" fill="#08526D"></path>
<g id="Group_2">
<path id="Vector_11" d="M43.8695 50.5632V64.8065C43.8695 66.1631 42.7388 67.1808 41.4952 67.1808H34.8254C33.4688 67.1808 32.4512 66.0501 32.4512 64.8065V50.5632C32.4512 49.2066 33.5818 48.189 34.8254 48.189H41.4952C42.7388 48.189 43.8695 49.2066 43.8695 50.5632Z" fill="url(#paint2_linear_3659_4747)"></path>
<path id="Vector_12" d="M43.8696 50.5632V64.8065C43.8696 66.1631 42.7389 67.2937 41.3824 67.2937H34.7125C33.356 67.2937 32.2253 66.1631 32.2253 64.8065V50.5632C32.2253 49.2066 33.356 48.189 34.7125 48.189H41.3824C42.7389 48.189 43.8696 49.2066 43.8696 50.5632Z" stroke="#08526D" stroke-width="2" stroke-linecap="round" stroke-linejoin="round" class="id_anim_stroke-property11" data-duration="2.7777777777777777" data-offset="0" style="stroke-dashoffset: 0px; stroke-dasharray: 0px, 57.278px; animation: 2.77778s linear 0s 1 normal forwards running id_anim_stroke-property11;"></path>
<path id="Vector_13" d="M38.1044 65.598C38.7913 65.598 39.348 65.0413 39.348 64.3544C39.348 63.6676 38.7913 63.1108 38.1044 63.1108C37.4176 63.1108 36.8608 63.6676 36.8608 64.3544C36.8608 65.0413 37.4176 65.598 38.1044 65.598Z" fill="#08526D"></path>
</g>
</g>
<g id="Group_3">
<path id="Vector_14" d="M61.5106 33.2148V22.189M61.5106 22.189L59.2778 24.049M61.5106 22.189L63.7433 24.049" stroke="#08526D" stroke-width="2" stroke-linecap="round" stroke-linejoin="round" class="id_anim_stroke-property13" data-duration="2.7777777777777777" data-offset="0" style="stroke-dashoffset: 0px; stroke-dasharray: 0px, 16.8378px; animation: 2.77778s linear 0s 1 normal forwards running id_anim_stroke-property13;"></path>
<path id="Vector_15" d="M54.8951 22.189V33.2148M54.8951 33.2148L57.1278 31.3547M54.8951 33.2148L52.6624 31.3547" stroke="#08526D" stroke-width="2" stroke-linecap="round" stroke-linejoin="round" class="id_anim_stroke-property14" data-duration="2.7777777777777777" data-offset="0" style="stroke-dashoffset: 0px; stroke-dasharray: 0px, 16.8378px; animation: 2.77778s linear 0s 1 normal forwards running id_anim_stroke-property14;"></path>
</g>
</g>
<defs>
<linearGradient id="paint0_linear_3659_4747" x1="23.7482" y1="55.3669" x2="23.7482" y2="32.25" gradientUnits="userSpaceOnUse">
<stop stop-color="#ADE3F6"></stop>
<stop offset="0.4" stop-color="#ADE3F6" stop-opacity="0"></stop>
</linearGradient>
<linearGradient id="paint1_linear_3659_4747" x1="49.6911" y1="67.2934" x2="49.6911" y2="38.4329" gradientUnits="userSpaceOnUse">
<stop stop-color="#ADE3F6"></stop>
<stop offset="0.4" stop-color="#ADE3F6" stop-opacity="0"></stop>
</linearGradient>
<linearGradient id="paint2_linear_3659_4747" x1="38.1608" y1="67.2937" x2="38.1608" y2="48.1571" gradientUnits="userSpaceOnUse">
<stop stop-color="#ADE3F6"></stop>
<stop offset="0.4" stop-color="#ADE3F6" stop-opacity="0"></stop>
</linearGradient>
</defs>
<style>
        @keyframes id_anim_stroke-property3{
        
            0%{
                stroke-dashoffset: 0px; 
        stroke-dasharray: 0px, 58.772926330566406px;
            }
        
            50%{
                stroke-dashoffset: -29.386463165283203px; 
        stroke-dasharray: 29.386463165283203px, 29.386463165283203px;
            }
        
            100%{
                stroke-dashoffset: -58.772926330566406px; 
        stroke-dasharray: 58.772926330566406px, 0px;
            }
        
        }
         
        @keyframes id_anim_stroke-property4{
        
            0%{
                stroke-dashoffset: 0px; 
        stroke-dasharray: 0px, 103.06875610351562px;
            }
        
            50%{
                stroke-dashoffset: -51.53437805175781px; 
        stroke-dasharray: 51.53437805175781px, 51.53437805175781px;
            }
        
            100%{
                stroke-dashoffset: -103.06875610351562px; 
        stroke-dasharray: 103.06875610351562px, 0px;
            }
        
        }
         
        @keyframes id_anim_stroke-property5{
        
            0%{
                stroke-dashoffset: 0px; 
        stroke-dasharray: 0px, 12.434999465942383px;
            }
        
            50%{
                stroke-dashoffset: -6.217499732971191px; 
        stroke-dasharray: 6.217499732971191px, 6.217499732971191px;
            }
        
            100%{
                stroke-dashoffset: -12.434999465942383px; 
        stroke-dasharray: 12.434999465942383px, 0px;
            }
        
        }
         
        @keyframes id_anim_stroke-property6{
        
            0%{
                stroke-dashoffset: 0px; 
        stroke-dasharray: 0px, 24.767648696899414px;
            }
        
            50%{
                stroke-dashoffset: -12.383824348449707px; 
        stroke-dasharray: 12.383824348449707px, 12.383824348449707px;
            }
        
            100%{
                stroke-dashoffset: -24.767648696899414px; 
        stroke-dasharray: 24.767648696899414px, 0px;
            }
        
        }
         
        @keyframes id_anim_stroke-property7{
        
            0%{
                stroke-dashoffset: 0px; 
        stroke-dasharray: 0px, 24.416969299316406px;
            }
        
            50%{
                stroke-dashoffset: -12.208484649658203px; 
        stroke-dasharray: 12.208484649658203px, 12.208484649658203px;
            }
        
            100%{
                stroke-dashoffset: -24.416969299316406px; 
        stroke-dasharray: 24.416969299316406px, 0px;
            }
        
        }
         
        @keyframes id_anim_stroke-property11{
        
            0%{
                stroke-dashoffset: 0px; 
        stroke-dasharray: 0px, 57.27801513671875px;
            }
        
            50%{
                stroke-dashoffset: -28.639007568359375px; 
        stroke-dasharray: 28.639007568359375px, 28.639007568359375px;
            }
        
            100%{
                stroke-dashoffset: -57.27801513671875px; 
        stroke-dasharray: 57.27801513671875px, 0px;
            }
        
        }
         
        @keyframes id_anim_stroke-property13{
        
            0%{
                stroke-dashoffset: 0px; 
        stroke-dasharray: 0px, 16.83778190612793px;
            }
        
            50%{
                stroke-dashoffset: -8.418890953063965px; 
        stroke-dasharray: 8.418890953063965px, 8.418890953063965px;
            }
        
            100%{
                stroke-dashoffset: -16.83778190612793px; 
        stroke-dasharray: 16.83778190612793px, 0px;
            }
        
        }
         
        @keyframes id_anim_stroke-property14{
        
            0%{
                stroke-dashoffset: 0px; 
        stroke-dasharray: 0px, 16.83783531188965px;
            }
        
            50%{
                stroke-dashoffset: -8.418917655944824px; 
        stroke-dasharray: 8.418917655944824px, 8.418917655944824px;
            }
        
            100%{
                stroke-dashoffset: -16.83783531188965px; 
        stroke-dasharray: 16.83783531188965px, 0px;
            }
        
        }
        </style></svg>
