<svg width="80" height="80" viewBox="0 0 80 80" fill="none" xmlns="http://www.w3.org/2000/svg">
<g id="icon/native">
<g id="Group">
<path id="Vector" d="M40.4635 32.5941C46.1504 32.5941 50.7606 27.9839 50.7606 22.297C50.7606 16.6101 46.1504 12 40.4635 12C34.7766 12 30.1665 16.6101 30.1665 22.297C30.1665 27.9839 34.7766 32.5941 40.4635 32.5941Z" fill="#ADE3F6"></path>
<path id="Vector_2" d="M46.8475 57.9247H25.0178C23.7822 57.9247 22.8555 56.998 22.8555 55.7623V44.0237C22.8555 42.7881 23.7822 41.8613 25.0178 41.8613H46.7446C47.9802 41.8613 48.907 42.7881 48.907 44.0237V55.7623C49.0099 56.998 48.0832 57.9247 46.8475 57.9247Z" fill="#ADE3F6"></path>
<g id="Group_2">
<path id="Vector_3" d="M14 35.4775C14 28.6815 19.5604 23.1211 26.3564 23.1211C33.1525 23.1211 38.7129 28.6815 38.7129 35.4775H14Z" fill="url(#paint0_linear_3659_4744)"></path>
<path id="Vector_4" d="M14 35.4775C14 28.6815 19.5604 23.1211 26.3564 23.1211C33.1525 23.1211 38.7129 28.6815 38.7129 35.4775H14Z" stroke="#08526D" stroke-width="2" stroke-miterlimit="10" stroke-linecap="round" stroke-linejoin="round" class="id_anim_stroke-property3" data-duration="2.7777777777777777" data-offset="0" style="stroke-dashoffset: 0px; stroke-dasharray: 0px, 63.5127px; animation: 2.77778s linear 0s 1 normal forwards running id_anim_stroke-property3;"></path>
<path id="Vector_5" d="M21.3109 31.8733C22.1639 31.8733 22.8555 31.1818 22.8555 30.3287C22.8555 29.4757 22.1639 28.7842 21.3109 28.7842C20.4579 28.7842 19.7664 29.4757 19.7664 30.3287C19.7664 31.1818 20.4579 31.8733 21.3109 31.8733Z" fill="#08526D"></path>
<path id="Vector_6" d="M31.402 31.8733C32.255 31.8733 32.9465 31.1818 32.9465 30.3287C32.9465 29.4757 32.255 28.7842 31.402 28.7842C30.5489 28.7842 29.8574 29.4757 29.8574 30.3287C29.8574 31.1818 30.5489 31.8733 31.402 31.8733Z" fill="#08526D"></path>
<path id="Vector_7" d="M30.99 23.8414L33.9761 18.7959" stroke="#08526D" stroke-width="2" stroke-miterlimit="10" stroke-linecap="round" stroke-linejoin="round" class="id_anim_stroke-property6" data-duration="2.7777777777777777" data-offset="0" style="stroke-dashoffset: 0px; stroke-dasharray: 0px, 5.86292px; animation: 2.77778s linear 0s 1 normal forwards running id_anim_stroke-property6;"></path>
<path id="Vector_8" d="M18.8396 18.7959L21.8257 23.8414" stroke="#08526D" stroke-width="2" stroke-miterlimit="10" stroke-linecap="round" stroke-linejoin="round" class="id_anim_stroke-property7" data-duration="2.7777777777777777" data-offset="0" style="stroke-dashoffset: 0px; stroke-dasharray: 0px, 5.86292px; animation: 2.77778s linear 0s 1 normal forwards running id_anim_stroke-property7;"></path>
</g>
<g id="Group_3">
<path id="Vector_9" d="M54.2614 42.6851L53.2317 42.7881L53.1287 41.7584C52.9227 38.6692 55.2911 35.992 58.3802 35.7861L59.4099 35.6831L59.5128 36.7128C59.7188 39.8019 57.3505 42.4791 54.2614 42.6851Z" stroke="#08526D" stroke-width="2" stroke-miterlimit="10" stroke-linecap="round" stroke-linejoin="round" class="id_anim_stroke-property8" data-duration="2.7777777777777777" data-offset="0" style="stroke-dashoffset: 0px; stroke-dasharray: 0px, 21.8px; animation: 2.77778s linear 0s 1 normal forwards running id_anim_stroke-property8;"></path>
<path id="Vector_10" d="M61.2631 52.7762C61.2631 50.7168 62.2928 48.8633 63.9403 47.7306C63.2195 46.8039 62.3957 45.9801 61.469 45.2593C60.4393 44.5385 59.1007 44.2296 57.968 44.6415C56.7324 45.0534 55.1878 45.2593 53.6433 45.2593C52.2017 45.2593 50.8631 45.0534 49.7304 44.7445C48.4948 44.4356 47.1561 44.6415 46.1264 45.4653C43.4492 47.5247 41.5957 50.7168 41.2868 54.2178C40.772 59.7781 43.9641 64.6178 48.5977 66.7801C49.4215 67.192 50.4512 67.089 51.275 66.6772C52.0987 66.2653 52.9225 66.0593 53.8492 66.0593C54.7759 66.0593 55.7027 66.2653 56.4235 66.6772C57.2472 67.089 58.174 67.192 59.1007 66.7801C62.3957 65.2356 64.97 62.2494 65.9997 58.6455C63.3225 58.0276 61.2631 55.6593 61.2631 52.7762Z" fill="url(#paint1_linear_3659_4744)"></path>
<path id="Vector_11" d="M61.2631 52.7762C61.2631 50.7168 62.2928 48.8633 63.9403 47.7306C63.2195 46.8039 62.3957 45.9801 61.469 45.2593C60.4393 44.5385 59.1007 44.2296 57.968 44.6415C56.7324 45.0534 55.1878 45.2593 53.6433 45.2593C52.2017 45.2593 50.8631 45.0534 49.7304 44.7445C48.4948 44.4356 47.1561 44.6415 46.1264 45.4653C43.4492 47.5247 41.5957 50.7168 41.2868 54.2178C40.772 59.7781 43.9641 64.6178 48.5977 66.7801C49.4215 67.192 50.4512 67.089 51.275 66.6772C52.0987 66.2653 52.9225 66.0593 53.8492 66.0593C54.7759 66.0593 55.7027 66.2653 56.4235 66.6772C57.2472 67.089 58.174 67.192 59.1007 66.7801C62.3957 65.2356 64.97 62.2494 65.9997 58.6455C63.3225 58.0277 61.2631 55.6593 61.2631 52.7762Z" stroke="#08526D" stroke-width="2" stroke-miterlimit="10" stroke-linecap="round" stroke-linejoin="round" class="id_anim_stroke-property10" data-duration="2.7777777777777777" data-offset="0" style="stroke-dashoffset: 0px; stroke-dasharray: 0px, 81.1041px; animation: 2.77778s linear 0s 1 normal forwards running id_anim_stroke-property10;"></path>
</g>
<path id="Vector_12" d="M46.6414 35.0654L32.2256 49.4813" stroke="#08526D" stroke-width="2" stroke-miterlimit="10" stroke-linecap="round" stroke-linejoin="round" class="id_anim_stroke-property11" data-duration="2.7777777777777777" data-offset="0" style="stroke-dashoffset: 0px; stroke-dasharray: 0px, 20.3871px; animation: 2.77778s linear 0s 1 normal forwards running id_anim_stroke-property11;"></path>
</g>
</g>
<defs>
<linearGradient id="paint0_linear_3659_4744" x1="26.3932" y1="35.5223" x2="26.3932" y2="23.1659" gradientUnits="userSpaceOnUse">
<stop stop-color="#ADE3F6"></stop>
<stop offset="0.4" stop-color="#ADE3F6" stop-opacity="0"></stop>
</linearGradient>
<linearGradient id="paint1_linear_3659_4744" x1="53.7095" y1="67.0044" x2="53.7095" y2="44.4712" gradientUnits="userSpaceOnUse">
<stop stop-color="#ADE3F6"></stop>
<stop offset="0.4" stop-color="#ADE3F6" stop-opacity="0"></stop>
</linearGradient>
</defs>
<style>
        @keyframes id_anim_stroke-property3{
        
            0%{
                stroke-dashoffset: 0px; 
        stroke-dasharray: 0px, 63.512718200683594px;
            }
        
            50%{
                stroke-dashoffset: -31.756359100341797px; 
        stroke-dasharray: 31.756359100341797px, 31.756359100341797px;
            }
        
            100%{
                stroke-dashoffset: -63.512718200683594px; 
        stroke-dasharray: 63.512718200683594px, 0px;
            }
        
        }
         
        @keyframes id_anim_stroke-property6{
        
            0%{
                stroke-dashoffset: 0px; 
        stroke-dasharray: 0px, 5.8629231452941895px;
            }
        
            50%{
                stroke-dashoffset: -2.9314615726470947px; 
        stroke-dasharray: 2.9314615726470947px, 2.9314615726470947px;
            }
        
            100%{
                stroke-dashoffset: -5.8629231452941895px; 
        stroke-dasharray: 5.8629231452941895px, 0px;
            }
        
        }
         
        @keyframes id_anim_stroke-property7{
        
            0%{
                stroke-dashoffset: 0px; 
        stroke-dasharray: 0px, 5.8629231452941895px;
            }
        
            50%{
                stroke-dashoffset: -2.9314615726470947px; 
        stroke-dasharray: 2.9314615726470947px, 2.9314615726470947px;
            }
        
            100%{
                stroke-dashoffset: -5.8629231452941895px; 
        stroke-dasharray: 5.8629231452941895px, 0px;
            }
        
        }
         
        @keyframes id_anim_stroke-property8{
        
            0%{
                stroke-dashoffset: 0px; 
        stroke-dasharray: 0px, 21.799968719482422px;
            }
        
            50%{
                stroke-dashoffset: -10.899984359741211px; 
        stroke-dasharray: 10.899984359741211px, 10.899984359741211px;
            }
        
            100%{
                stroke-dashoffset: -21.799968719482422px; 
        stroke-dasharray: 21.799968719482422px, 0px;
            }
        
        }
         
        @keyframes id_anim_stroke-property10{
        
            0%{
                stroke-dashoffset: 0px; 
        stroke-dasharray: 0px, 81.10411071777344px;
            }
        
            50%{
                stroke-dashoffset: -40.55205535888672px; 
        stroke-dasharray: 40.55205535888672px, 40.55205535888672px;
            }
        
            100%{
                stroke-dashoffset: -81.10411071777344px; 
        stroke-dasharray: 81.10411071777344px, 0px;
            }
        
        }
         
        @keyframes id_anim_stroke-property11{
        
            0%{
                stroke-dashoffset: 0px; 
        stroke-dasharray: 0px, 20.3870906829834px;
            }
        
            50%{
                stroke-dashoffset: -10.1935453414917px; 
        stroke-dasharray: 10.1935453414917px, 10.1935453414917px;
            }
        
            100%{
                stroke-dashoffset: -20.3870906829834px; 
        stroke-dasharray: 20.3870906829834px, 0px;
            }
        
        }
        </style></svg>
