<svg width="80" height="80" viewBox="0 0 80 80" fill="none" xmlns="http://www.w3.org/2000/svg">
<g id="icon/progressive">
<path id="Vector" d="M52.9282 42C62.0409 42 69.4282 34.6127 69.4282 25.5C69.4282 16.3873 62.0409 9 52.9282 9C43.8155 9 36.4282 16.3873 36.4282 25.5C36.4282 34.6127 43.8155 42 52.9282 42Z" fill="#ADE3F6"></path>
<g id="Group">
<path id="Vector_2" d="M46.4957 37.1778V51.0822H39.8261C38.4696 51.0822 37.3391 52.2126 37.3391 53.4561V58.2039H11V37.1778C11 36.0474 11.9043 35.1431 13.0348 35.1431H44.4609C45.5913 35.1431 46.4957 36.0474 46.4957 37.1778Z" fill="url(#paint0_linear_3659_4748)"></path>
<path id="Vector_3" d="M63 43.169V68.2647C63 69.2821 62.2087 70.1864 61.0782 70.1864H46.3826C47.7391 70.1864 48.8695 69.056 48.8695 67.6995V53.456C48.8695 52.0995 47.7391 51.0821 46.3826 51.0821V41.3604H61.0782C62.2087 41.3604 63 42.1517 63 43.169Z" fill="url(#paint1_linear_3659_4748)"></path>
<path id="Vector_4" d="M46.7219 41.3604H60.5132C61.8698 41.3604 62.8871 42.4908 62.8871 43.7343V67.6995C62.8871 69.056 61.7567 70.0734 60.5132 70.0734H46.948" stroke="#08526D" stroke-width="2" stroke-miterlimit="10" stroke-linecap="round" stroke-linejoin="round" class="id_anim_stroke-property3" data-duration="2.7777777777777777" data-offset="0" style="stroke-dashoffset: 0px; stroke-dasharray: 0px, 58.7715px; animation: 2.77778s linear 0s 1 normal forwards running id_anim_stroke-property3;"></path>
<path id="Vector_5" d="M36.887 64.3083H13.3739C12.0174 64.3083 11 63.1778 11 61.9344V37.517C11 36.2735 12.1304 35.1431 13.3739 35.1431H44.0087C45.0261 35.1431 46.0435 35.8213 46.2696 36.8387C46.3826 37.0648 46.3826 37.2909 46.3826 37.63V50.8561" stroke="#08526D" stroke-width="2" stroke-miterlimit="10" stroke-linecap="round" stroke-linejoin="round" class="id_anim_stroke-property4" data-duration="2.7777777777777777" data-offset="0" style="stroke-dashoffset: 0px; stroke-dasharray: 0px, 103.069px; animation: 2.77778s linear 0s 1 normal forwards running id_anim_stroke-property4;"></path>
<path id="Vector_6" d="M34.5132 70.1865H22.0784" stroke="#08526D" stroke-width="2" stroke-miterlimit="10" stroke-linecap="round" stroke-linejoin="round" class="id_anim_stroke-property5" data-duration="2.7777777777777777" data-offset="0" style="stroke-dashoffset: 0px; stroke-dasharray: 0px, 12.4348px; animation: 2.77778s linear 0s 1 normal forwards running id_anim_stroke-property5;"></path>
<path id="Vector_7" d="M30.7823 64.3081H25.5823L24.3389 70.1864H31.9128L30.7823 64.3081Z" stroke="#08526D" stroke-width="2" stroke-miterlimit="10" stroke-linecap="round" stroke-linejoin="round" class="id_anim_stroke-property6" data-duration="2.7777777777777777" data-offset="0" style="stroke-dashoffset: 0px; stroke-dasharray: 0px, 24.7683px; animation: 2.77778s linear 0s 1 normal forwards running id_anim_stroke-property6;"></path>
<path id="Vector_8" d="M36.8869 58.2041H12.4695" stroke="#08526D" stroke-width="2" stroke-miterlimit="10" stroke-linecap="round" stroke-linejoin="round" class="id_anim_stroke-property7" data-duration="2.7777777777777777" data-offset="0" style="stroke-dashoffset: 0px; stroke-dasharray: 0px, 24.4174px; animation: 2.77778s linear 0s 1 normal forwards running id_anim_stroke-property7;"></path>
<path id="Vector_9" d="M28.1827 62.6124C28.8694 62.6124 29.4262 62.0557 29.4262 61.369C29.4262 60.6822 28.8694 60.1255 28.1827 60.1255C27.4959 60.1255 26.9392 60.6822 26.9392 61.369C26.9392 62.0557 27.4959 62.6124 28.1827 62.6124Z" fill="#08526D"></path>
<path id="Vector_10" d="M52.826 68.4909C53.5128 68.4909 54.0695 67.9341 54.0695 67.2474C54.0695 66.5606 53.5128 66.0039 52.826 66.0039C52.1392 66.0039 51.5825 66.5606 51.5825 67.2474C51.5825 67.9341 52.1392 68.4909 52.826 68.4909Z" fill="#08526D"></path>
<g id="Group_2">
<path id="Vector_11" d="M48.87 53.4564V67.6999C48.87 69.0564 47.7396 70.0738 46.4961 70.0738H39.8266C38.47 70.0738 37.4526 68.9434 37.4526 67.6999V53.4564C37.4526 52.0999 38.5831 51.0825 39.8266 51.0825H46.4961C47.7396 51.0825 48.87 52.0999 48.87 53.4564Z" fill="url(#paint2_linear_3659_4748)"></path>
<path id="Vector_12" d="M48.8698 53.4564V67.6999C48.8698 69.0564 47.7394 70.1869 46.3828 70.1869H39.7133C38.3568 70.1869 37.2263 69.0564 37.2263 67.6999V53.4564C37.2263 52.0999 38.3568 51.0825 39.7133 51.0825H46.3828C47.7394 51.0825 48.8698 52.0999 48.8698 53.4564Z" stroke="#08526D" stroke-width="2" stroke-miterlimit="10" stroke-linecap="round" stroke-linejoin="round" class="id_anim_stroke-property11" data-duration="2.7777777777777777" data-offset="0" style="stroke-dashoffset: 0px; stroke-dasharray: 0px, 57.2764px; animation: 2.77778s linear 0s 1 normal forwards running id_anim_stroke-property11;"></path>
<path id="Vector_13" d="M43.1046 68.4909C43.7913 68.4909 44.348 67.9341 44.348 67.2474C44.348 66.5606 43.7913 66.0039 43.1046 66.0039C42.4178 66.0039 41.8611 66.5606 41.8611 67.2474C41.8611 67.9341 42.4178 68.4909 43.1046 68.4909Z" fill="#08526D"></path>
</g>
</g>
<g id="Group_3">
<path id="Vector_14" d="M52.4999 32.3555C52.1495 32.0051 51.5654 31.7715 50.9814 31.7715C50.3974 31.7715 49.9301 32.0051 49.4629 32.3555" stroke="#08526D" stroke-width="2" stroke-linecap="round" stroke-linejoin="round" class="id_anim_stroke-property13" data-duration="2.7777777777777777" data-offset="0" style="stroke-dashoffset: 0px; stroke-dasharray: 0px, 3.32431px; animation: 2.77778s linear 0s 1 normal forwards running id_anim_stroke-property13;"></path>
<path id="Vector_15" d="M56.1209 28.618C54.836 27.45 53.0839 26.6323 51.0982 26.6323C49.1124 26.6323 47.3603 27.3332 46.0754 28.618" stroke="#08526D" stroke-width="2" stroke-linecap="round" stroke-linejoin="round" class="id_anim_stroke-property14" data-duration="2.7777777777777777" data-offset="0" style="stroke-dashoffset: 0px; stroke-dasharray: 0px, 11.0715px; animation: 2.77778s linear 0s 1 normal forwards running id_anim_stroke-property14;"></path>
<path id="Vector_16" d="M59.6252 24.8801C57.4058 22.7776 54.3688 21.4927 51.0982 21.4927C47.8276 21.4927 44.7906 22.7776 42.5713 24.8801" stroke="#08526D" stroke-width="2" stroke-linecap="round" stroke-linejoin="round" class="id_anim_stroke-property15" data-duration="2.7777777777777777" data-offset="0" style="stroke-dashoffset: 0px; stroke-dasharray: 0px, 18.7961px; animation: 2.77778s linear 0s 1 normal forwards running id_anim_stroke-property15;"></path>
<path id="Vector_17" d="M59.6251 31.0709C58.8074 31.0709 58.1066 30.8373 57.5225 30.3701C56.9385 30.8373 56.1208 31.0709 55.42 31.0709C54.4855 31.0709 53.5511 30.7205 52.967 30.0197C52.383 29.3188 51.9158 28.5012 51.9158 27.5667C51.9158 26.7491 52.1494 26.0482 52.6166 25.4642C52.1494 24.8801 51.9158 24.1793 51.9158 23.3616C51.9158 22.4272 52.2662 21.4927 52.967 20.9087C53.6679 20.3247 54.4855 19.8574 55.42 19.8574C56.2376 19.8574 56.9385 20.091 57.5225 20.5583C58.1066 20.091 58.8074 19.8574 59.6251 19.8574C60.5595 19.8574 61.494 20.2078 62.078 20.9087C62.6621 21.6095 63.1293 22.4272 63.1293 23.3616C63.1293 24.1793 62.8957 24.8801 62.4284 25.4642C62.8957 26.0482 63.1293 26.7491 63.1293 27.5667C63.1293 28.5012 62.7789 29.4356 62.078 30.0197C61.3772 30.6037 60.5595 31.0709 59.6251 31.0709Z" fill="#ADE3F6"></path>
<path id="Vector_18" d="M59.1581 25.464L60.443 24.1791C60.9102 23.7119 60.9102 23.011 60.443 22.5438C59.9758 22.0766 59.2749 22.0766 58.8077 22.5438L57.5228 23.8287L56.2379 22.5438C55.7707 22.0766 55.0698 22.0766 54.6026 22.5438C54.1354 23.011 54.1354 23.7119 54.6026 24.1791L55.8875 25.464L54.6026 26.7488C54.1354 27.2161 54.1354 27.9169 54.6026 28.3842C54.8362 28.6178 55.1867 28.7346 55.4203 28.7346C55.6539 28.7346 56.0043 28.6178 56.2379 28.3842L57.5228 27.0993L58.8077 28.3842C59.0413 28.6178 59.3917 28.7346 59.6253 28.7346C59.859 28.7346 60.2094 28.6178 60.443 28.3842C60.9102 27.9169 60.9102 27.2161 60.443 26.7488L59.1581 25.464Z" fill="#08526D"></path>
</g>
</g>
<defs>
<linearGradient id="paint0_linear_3659_4748" x1="28.7478" y1="58.2605" x2="28.7478" y2="35.1431" gradientUnits="userSpaceOnUse">
<stop stop-color="#ADE3F6"></stop>
<stop offset="0.4313" stop-color="#ADE3F6" stop-opacity="0.964706"></stop>
</linearGradient>
<linearGradient id="paint1_linear_3659_4748" x1="54.6913" y1="70.1864" x2="54.6913" y2="41.3264" gradientUnits="userSpaceOnUse">
<stop stop-color="#ADE3F6"></stop>
<stop offset="0.4313" stop-color="#ADE3F6" stop-opacity="0"></stop>
</linearGradient>
<linearGradient id="paint2_linear_3659_4748" x1="43.1613" y1="70.1869" x2="43.1613" y2="51.0501" gradientUnits="userSpaceOnUse">
<stop stop-color="#ADE3F6"></stop>
<stop offset="0.4313" stop-color="#ADE3F6" stop-opacity="0"></stop>
</linearGradient>
</defs>
<style>
        @keyframes id_anim_stroke-property3{
        
            0%{
                stroke-dashoffset: 0px; 
        stroke-dasharray: 0px, 58.77145767211914px;
            }
        
            50%{
                stroke-dashoffset: -29.38572883605957px; 
        stroke-dasharray: 29.38572883605957px, 29.38572883605957px;
            }
        
            100%{
                stroke-dashoffset: -58.77145767211914px; 
        stroke-dasharray: 58.77145767211914px, 0px;
            }
        
        }
         
        @keyframes id_anim_stroke-property4{
        
            0%{
                stroke-dashoffset: 0px; 
        stroke-dasharray: 0px, 103.0686264038086px;
            }
        
            50%{
                stroke-dashoffset: -51.5343132019043px; 
        stroke-dasharray: 51.5343132019043px, 51.5343132019043px;
            }
        
            100%{
                stroke-dashoffset: -103.0686264038086px; 
        stroke-dasharray: 103.0686264038086px, 0px;
            }
        
        }
         
        @keyframes id_anim_stroke-property5{
        
            0%{
                stroke-dashoffset: 0px; 
        stroke-dasharray: 0px, 12.434799194335938px;
            }
        
            50%{
                stroke-dashoffset: -6.217399597167969px; 
        stroke-dasharray: 6.217399597167969px, 6.217399597167969px;
            }
        
            100%{
                stroke-dashoffset: -12.434799194335938px; 
        stroke-dasharray: 12.434799194335938px, 0px;
            }
        
        }
         
        @keyframes id_anim_stroke-property6{
        
            0%{
                stroke-dashoffset: 0px; 
        stroke-dasharray: 0px, 24.768291473388672px;
            }
        
            50%{
                stroke-dashoffset: -12.384145736694336px; 
        stroke-dasharray: 12.384145736694336px, 12.384145736694336px;
            }
        
            100%{
                stroke-dashoffset: -24.768291473388672px; 
        stroke-dasharray: 24.768291473388672px, 0px;
            }
        
        }
         
        @keyframes id_anim_stroke-property7{
        
            0%{
                stroke-dashoffset: 0px; 
        stroke-dasharray: 0px, 24.417402267456055px;
            }
        
            50%{
                stroke-dashoffset: -12.208701133728027px; 
        stroke-dasharray: 12.208701133728027px, 12.208701133728027px;
            }
        
            100%{
                stroke-dashoffset: -24.417402267456055px; 
        stroke-dasharray: 24.417402267456055px, 0px;
            }
        
        }
         
        @keyframes id_anim_stroke-property11{
        
            0%{
                stroke-dashoffset: 0px; 
        stroke-dasharray: 0px, 57.2763786315918px;
            }
        
            50%{
                stroke-dashoffset: -28.6381893157959px; 
        stroke-dasharray: 28.6381893157959px, 28.6381893157959px;
            }
        
            100%{
                stroke-dashoffset: -57.2763786315918px; 
        stroke-dasharray: 57.2763786315918px, 0px;
            }
        
        }
         
        @keyframes id_anim_stroke-property13{
        
            0%{
                stroke-dashoffset: 0px; 
        stroke-dasharray: 0px, 3.324313163757324px;
            }
        
            50%{
                stroke-dashoffset: -1.662156581878662px; 
        stroke-dasharray: 1.662156581878662px, 1.662156581878662px;
            }
        
            100%{
                stroke-dashoffset: -3.324313163757324px; 
        stroke-dasharray: 3.324313163757324px, 0px;
            }
        
        }
         
        @keyframes id_anim_stroke-property14{
        
            0%{
                stroke-dashoffset: 0px; 
        stroke-dasharray: 0px, 11.071520805358887px;
            }
        
            50%{
                stroke-dashoffset: -5.535760402679443px; 
        stroke-dasharray: 5.535760402679443px, 5.535760402679443px;
            }
        
            100%{
                stroke-dashoffset: -11.071520805358887px; 
        stroke-dasharray: 11.071520805358887px, 0px;
            }
        
        }
         
        @keyframes id_anim_stroke-property15{
        
            0%{
                stroke-dashoffset: 0px; 
        stroke-dasharray: 0px, 18.79608917236328px;
            }
        
            50%{
                stroke-dashoffset: -9.39804458618164px; 
        stroke-dasharray: 9.39804458618164px, 9.39804458618164px;
            }
        
            100%{
                stroke-dashoffset: -18.79608917236328px; 
        stroke-dasharray: 18.79608917236328px, 0px;
            }
        
        }
        </style></svg>
