<svg width="64" height="64" viewBox="0 0 64 64" fill="none" xmlns="http://www.w3.org/2000/svg">
<g clip-path="url(#clip0_3765_7733)">
<mask id="mask0_3765_7733" style="mask-type:luminance" maskUnits="userSpaceOnUse" x="0" y="0" width="64" height="64">
<path d="M64 0H0V64H64V0Z" fill="white"/>
</mask>
<g mask="url(#mask0_3765_7733)">
<path d="M64.3113 23.899V8.21387C64.3113 5.72859 62.2966 3.71387 59.8113 3.71387H39.7119C37.2266 3.71387 35.2119 5.72859 35.2119 8.21387V23.899C35.2119 26.3843 37.2266 28.399 39.7119 28.399H59.8113C62.2966 28.399 64.3113 26.3843 64.3113 23.899Z" fill="#FDE0B4"/>
<path d="M52.9834 21.6843C51.916 22.347 50.6647 22.6512 49.4122 22.5525C48.1597 22.4538 46.9715 21.9574 46.0211 21.1357C45.0706 20.3139 44.4077 19.21 44.1291 17.9849C43.8504 16.7598 43.9706 15.4777 44.4721 14.3257M45.8188 15.745L44.5224 14.0263L42.8037 15.3227M46.7669 10.4929C47.8343 9.83016 49.0856 9.52596 50.3381 9.62466C51.5906 9.72336 52.7788 10.2198 53.7292 11.0415C54.6796 11.8632 55.3426 12.9672 55.6212 14.1923C55.8999 15.4174 55.7797 16.6995 55.2782 17.8515M53.9315 16.4367L55.2279 18.1554L56.9466 16.859" stroke="#333333" stroke-width="2" stroke-linecap="round" stroke-linejoin="round"/>
<path d="M12.2783 22.2871H50.3913C50.9436 22.2871 51.3913 22.7349 51.3913 23.2871V58.7936C51.3913 59.3459 50.9436 59.7936 50.3913 59.7936H12.2783C11.726 59.7936 11.2783 59.3459 11.2783 58.7936V23.2871C11.2783 22.7349 11.726 22.2871 12.2783 22.2871Z" fill="url(#paint0_linear_3765_7733)"/>
<path d="M51.391 36.3519C53.9441 36.3915 55.1357 33.2056 53.1833 31.5601L31.9904 13.6982C31.6131 13.3802 31.0601 13.385 30.6883 13.7096L23.5425 19.948C22.8957 20.5127 21.8849 20.0533 21.8849 19.1947V16.5025C21.8849 15.9502 21.4372 15.5025 20.8849 15.5025H15.8136C15.2613 15.5025 14.8136 15.9502 14.8136 16.5025V25.705C14.8136 25.9644 14.7128 26.2136 14.5325 26.4001L9.30166 31.8101C7.61471 33.5549 8.85109 36.4701 11.278 36.4701M51.391 36.3519L11.278 36.4701M51.391 36.3519V57.287C51.391 58.9438 50.0479 60.287 48.391 60.287H30.1347M11.278 36.4701V57.287C11.278 58.9438 12.6211 60.287 14.278 60.287H21.8849M30.1347 60.287V47.1446C30.1347 46.5923 29.6869 46.1446 29.1347 46.1446H22.8849C22.3326 46.1446 21.8849 46.5923 21.8849 47.1446V60.287M30.1347 60.287H21.8849" stroke="#333333" stroke-width="2" stroke-linecap="round" stroke-linejoin="round"/>
</g>
</g>
<defs>
<linearGradient id="paint0_linear_3765_7733" x1="29.9516" y1="65.8757" x2="29.9516" y2="50.6704" gradientUnits="userSpaceOnUse">
<stop stop-color="#F6DCCE"/>
<stop offset="1" stop-color="#F6DCCE" stop-opacity="0"/>
</linearGradient>
<clipPath id="clip0_3765_7733">
<rect width="64" height="64" fill="white"/>
</clipPath>
</defs>
</svg>
