<svg width="64" height="64" viewBox="0 0 64 64" fill="none" xmlns="http://www.w3.org/2000/svg">
<g clip-path="url(#clip0_3765_7743)">
<path d="M63.5 17.5V4.5C63.5 2.01472 61.4853 0 59 0H38C35.5147 0 33.5 2.01472 33.5 4.5V17.5C33.5 19.9853 35.5147 22 38 22H59C61.4853 22 63.5 19.9853 63.5 17.5Z" fill="#BDF4D0"/>
<path d="M39.5684 8.42383H56.8966" stroke="#333333" stroke-width="2" stroke-miterlimit="10" stroke-linejoin="round"/>
<path d="M39.5684 14.4678H53.0001" stroke="#333333" stroke-width="2" stroke-miterlimit="10" stroke-linejoin="round"/>
<path d="M4.71387 18.1426H24.9996C26.6564 18.1426 27.9996 19.4857 27.9996 21.1426V51.714C27.9996 53.3709 26.6564 54.714 24.9996 54.714H4.71387C3.05701 54.714 1.71387 53.3709 1.71387 51.714V21.1426C1.71387 19.4857 3.05701 18.1426 4.71387 18.1426Z" fill="url(#paint0_linear_3765_7743)"/>
<path fill-rule="evenodd" clip-rule="evenodd" d="M18.5 14.5C17.3954 14.5 16.5 15.3954 16.5 16.5V18.5C16.5 19.0523 16.0523 19.5 15.5 19.5C14.9477 19.5 14.5 19.0523 14.5 18.5V16.5C14.5 14.2909 16.2909 12.5 18.5 12.5H28.5C30.7091 12.5 32.5 14.2909 32.5 16.5V18.5C32.5 19.0523 32.0523 19.5 31.5 19.5C30.9477 19.5 30.5 19.0523 30.5 18.5V16.5C30.5 15.3954 29.6046 14.5 28.5 14.5H18.5ZM8.58086 32.1061C8.79841 31.5985 9.38629 31.3633 9.89392 31.5809L20.3486 36.0615C22.361 36.9239 24.639 36.9239 26.6514 36.0615L32.8101 33.422L33.6486 35.2386L27.4392 37.8997C24.9237 38.9778 22.0763 38.9778 19.5608 37.8997L9.10608 33.4191C8.59845 33.2016 8.3633 32.6137 8.58086 32.1061ZM27.5 54H7C4.23858 54 2 51.7614 2 49V28C2 25.2386 4.23858 23 7 23H34V21H7C3.13401 21 0 24.134 0 28V49C0 52.866 3.13401 56 7 56H27.5V54Z" fill="#333333"/>
<path d="M41.826 34.805C38.1782 34.805 35.2217 31.8496 35.2217 28.2018C35.2217 24.5557 38.1782 21.5986 41.826 21.5986C45.4726 21.5986 48.4292 24.5563 48.4292 28.2018C48.4292 31.8496 45.4726 34.805 41.826 34.805Z" stroke="#333333" stroke-width="2" stroke-linecap="round" stroke-linejoin="round"/>
<path d="M58.1002 59.6806L59.1583 55.9546L60.1199 52.5713L62.384 44.6006H42.9914L40.6825 52.7277L39.6398 56.3985L38.707 59.6806" stroke="#333333" stroke-width="2" stroke-linecap="round" stroke-linejoin="round"/>
<path d="M41.595 49.3973H36.5377C36.1247 49.3973 35.79 49.0626 35.79 48.6497V45.9082" stroke="#333333" stroke-width="2" stroke-linecap="round" stroke-linejoin="round"/>
<path d="M51.4272 40.4485C50.1735 39.2753 48.4891 38.5576 46.6367 38.5576H37.0138C33.14 38.5576 30 41.6976 30 45.5714V51.1325C30 53.3529 31.8 55.1535 34.0204 55.1535H39.9939" stroke="#333333" stroke-width="2" stroke-linecap="round" stroke-linejoin="round"/>
<path d="M38.7075 59.6787H32.335" stroke="#333333" stroke-width="2" stroke-linecap="round" stroke-linejoin="round"/>
</g>
<defs>
<linearGradient id="paint0_linear_3765_7743" x1="13.9503" y1="55.5848" x2="13.9503" y2="46.0065" gradientUnits="userSpaceOnUse">
<stop stop-color="#BDF4D0"/>
<stop offset="1" stop-color="#BDF4D0" stop-opacity="0"/>
</linearGradient>
<clipPath id="clip0_3765_7743">
<rect width="64" height="64" fill="white"/>
</clipPath>
</defs>
</svg>
