<svg width="48" height="48" viewBox="0 0 48 48" fill="none" xmlns="http://www.w3.org/2000/svg">
<path d="M36.75 0H11.25C5.0368 0 0 5.0368 0 11.25V36.75C0 42.9632 5.0368 48 11.25 48H36.75C42.9632 48 48 42.9632 48 36.75V11.25C48 5.0368 42.9632 0 36.75 0Z" fill="#F4F2ED"/>
<path d="M6.42188 11.4609L23.8734 5.25L41.7844 11.3647L38.8897 34.4437L23.8734 42.75L9.10087 34.5516L6.42188 11.4609Z" fill="#E23237"/>
<path d="M41.784 11.3649L23.873 5.25V42.75L38.8894 34.4437L41.784 11.3649Z" fill="#B52E31"/>
<path d="M23.9004 9.63281L13.0254 33.8203L17.0836 33.7382L19.275 28.2727H29.0015L31.3828 33.7806L35.2522 33.8625L23.9004 9.63281ZM23.9272 17.3976L27.6069 25.0817H20.7187L23.9379 17.3976H23.9272Z" fill="white"/>
</svg>
