<svg width="70" height="70" viewBox="0 0 70 70" fill="none" xmlns="http://www.w3.org/2000/svg">
<path d="M35.4304 69.85C54.3627 69.85 69.7104 54.5023 69.7104 35.57C69.7104 16.6377 54.3627 1.28998 35.4304 1.28998C16.4981 1.28998 1.15039 16.6377 1.15039 35.57C1.15039 54.5023 16.4981 69.85 35.4304 69.85Z" fill="#EAF8FD"/>
<path d="M19 33.56C19.1352 33.0726 19.2255 32.5738 19.27 32.07C19.8898 28.8689 21.4775 25.9352 23.8186 23.6657C26.1597 21.3961 29.1412 19.9002 32.36 19.38C35.4722 18.8877 38.6605 19.3402 41.5128 20.679C44.3651 22.0178 46.7502 24.1814 48.36 26.89C48.9368 27.8334 49.4032 28.84 49.75 29.89H48.11C45.84 24.5 41.8 21.38 36 20.81C34.188 20.6301 32.3584 20.8124 30.6176 21.3463C28.8767 21.8803 27.2595 22.7551 25.86 23.92C23.3987 25.9078 21.6717 28.6606 20.953 31.7416C20.2344 34.8226 20.5652 38.0554 21.893 40.927C23.2209 43.7986 25.4696 46.1445 28.2825 47.5926C31.0954 49.0406 34.3113 49.5078 37.42 48.92C39.8311 48.5103 42.0905 47.469 43.9683 45.9021C45.8461 44.3352 47.2752 42.2987 48.11 40H49.75C47.75 45.46 43.94 49 38.25 50.29C35.5613 50.9459 32.7448 50.8578 30.1024 50.0352C27.4599 49.2125 25.0912 47.6862 23.25 45.62C20.9595 43.2407 19.5183 40.172 19.15 36.89C19.15 36.71 19.15 36.5 19.02 36.34V36C19.14 35.93 19.1 35.86 19.02 35.79V34.12C19.1 34.05 19.13 33.98 19.02 33.91L19 33.56Z" fill="#32B9E9"/>
<path d="M19 33.91C19.11 33.98 19.08 34.05 19 34.12V33.91Z" fill="#32B9E9"/>
<path d="M19 35.81C19.08 35.88 19.12 35.95 19 36.02V35.81Z" fill="#32B9E9"/>
<path d="M49.7505 40H48.1105C47.8159 40.0525 47.5124 39.9921 47.2604 39.8309C47.0083 39.6697 46.8263 39.4194 46.7505 39.13C46.5487 38.62 46.2975 38.131 46.0005 37.67C45.7305 37.12 45.4605 36.56 45.2005 36C45.1005 35.79 44.9805 35.69 44.7505 35.75H35.9205C35.6205 35.75 35.3205 35.75 35.0105 35.75C34.9085 35.7513 34.8073 35.7324 34.7127 35.6943C34.6182 35.6562 34.5321 35.5997 34.4595 35.528C34.387 35.4564 34.3293 35.3711 34.29 35.277C34.2507 35.1829 34.2305 35.0819 34.2305 34.98C34.2331 34.7749 34.3164 34.579 34.4624 34.4349C34.6084 34.2908 34.8053 34.21 35.0105 34.21H44.7305C44.8705 34.21 45.0205 34.28 45.1105 34.08L46.0005 32.26C46.3061 31.7902 46.5641 31.2911 46.7705 30.77C46.8442 30.4793 47.0258 30.2276 47.2784 30.066C47.531 29.9044 47.8357 29.845 48.1305 29.9H54.0005C54.8305 29.9 55.1605 30.45 54.7905 31.18L53.4105 33.83C53.3352 33.9314 53.2933 34.0537 53.2905 34.18H54.1205C54.2296 34.1676 54.3402 34.1783 54.4449 34.2116C54.5496 34.2449 54.6461 34.2999 54.7281 34.3731C54.81 34.4463 54.8756 34.5359 54.9205 34.6362C54.9654 34.7365 54.9886 34.8451 54.9886 34.955C54.9886 35.0649 54.9654 35.1735 54.9205 35.2738C54.8756 35.374 54.81 35.4637 54.7281 35.5369C54.6461 35.61 54.5496 35.6651 54.4449 35.6983C54.3402 35.7316 54.2296 35.7424 54.1205 35.73H53.2305L53.7405 36.73L54.8005 38.79C54.8849 38.9191 54.9296 39.0701 54.9292 39.2243C54.9288 39.3786 54.8833 39.5293 54.7982 39.658C54.7132 39.7866 54.5923 39.8876 54.4505 39.9483C54.3088 40.0091 54.1523 40.0271 54.0005 40H49.7505ZM46.7505 34.16H51.2905C51.4605 34.16 51.5005 34.05 51.5605 33.94C51.9405 33.2 52.3205 32.46 52.7105 31.73C52.8505 31.46 52.8105 31.4 52.5105 31.41C51.3305 31.41 50.1405 31.46 48.9705 31.41C48.7021 31.3576 48.4238 31.409 48.1918 31.5537C47.9598 31.6985 47.7914 31.9259 47.7205 32.19C47.5005 32.88 47.1305 33.51 46.7905 34.19L46.7505 34.16ZM46.7505 35.71C47.2005 36.61 47.6405 37.48 48.0605 38.34C48.1305 38.47 48.2305 38.45 48.3305 38.45H52.5805C52.8005 38.45 52.8505 38.39 52.7405 38.19C52.4805 37.72 52.2405 37.24 52.0005 36.76C51.7605 36.28 51.7105 35.97 51.4305 35.76C51.1505 35.55 50.6605 35.7 50.2705 35.7C49.1605 35.73 48.0005 35.74 46.7905 35.74L46.7505 35.71Z" fill="#32B9E9"/>
<path d="M44.7305 34.18C44.6185 32.5734 44.1094 31.0197 43.2489 29.6584C42.3885 28.297 41.2036 27.1705 39.8005 26.38C37.9643 25.3169 35.8358 24.87 33.727 25.1047C31.6183 25.3394 29.6402 26.2433 28.0826 27.6841C26.525 29.1248 25.4698 31.0266 25.0717 33.1107C24.6737 35.1948 24.9536 37.3516 25.8705 39.265C26.7874 41.1784 28.2931 42.7478 30.1669 43.7432C32.0407 44.7386 34.1841 45.1076 36.2828 44.7962C38.3816 44.4848 40.3255 43.5093 41.8295 42.0127C43.3336 40.5161 44.3187 38.5772 44.6405 36.48L44.7305 35.75C44.9605 35.69 45.0805 35.75 45.1805 36C45.4405 36.56 45.7105 37.12 45.9805 37.67C45.3187 40.3997 43.6791 42.792 41.372 44.3942C39.065 45.9964 36.2506 46.6971 33.4616 46.3639C30.6727 46.0306 28.1027 44.6864 26.2381 42.5858C24.3735 40.4851 23.3438 37.7738 23.3438 34.965C23.3438 32.1561 24.3735 29.4448 26.2381 27.3442C28.1027 25.2435 30.6727 23.8993 33.4616 23.566C36.2506 23.2328 39.065 23.9335 41.372 25.5357C43.6791 27.1379 45.3187 29.5302 45.9805 32.26L45.1105 34.05C45.0005 34.25 44.8705 34.18 44.7305 34.18Z" fill="#32B9E9"/>
<path d="M40.4103 34.18C40.2116 32.7608 39.4819 31.4699 38.3686 30.5676C37.2552 29.6654 35.8411 29.219 34.4116 29.3187C32.982 29.4183 31.6435 30.0564 30.666 31.1044C29.6886 32.1523 29.145 33.532 29.145 34.965C29.145 36.398 29.6886 37.7777 30.666 38.8256C31.6435 39.8735 32.982 40.5117 34.4116 40.6113C35.8411 40.7109 37.2552 40.2646 38.3686 39.3623C39.4819 38.4601 40.2116 37.1691 40.4103 35.75H42.0003C41.7569 37.5439 40.8411 39.1784 39.4383 40.3227C38.0355 41.467 36.2503 42.0357 34.4441 41.9137C32.6378 41.7918 30.9453 40.9882 29.7091 39.6657C28.4729 38.3431 27.7852 36.6003 27.7852 34.79C27.7852 32.9796 28.4729 31.2368 29.7091 29.9143C30.9453 28.5917 32.6378 27.7882 34.4441 27.6662C36.2503 27.5442 38.0355 28.1129 39.4383 29.2572C40.8411 30.4016 41.7569 32.036 42.0003 33.83C42.0003 33.95 42.0003 34.07 42.0003 34.18H40.4103Z" fill="#32B9E9"/>
<path d="M37.6203 35.75C37.4306 36.4271 37.0022 37.0126 36.4143 37.3982C35.8263 37.7839 35.1186 37.9436 34.422 37.8479C33.7254 37.7522 33.087 37.4075 32.6249 36.8775C32.1628 36.3475 31.9082 35.6681 31.9082 34.965C31.9082 34.2619 32.1628 33.5825 32.6249 33.0525C33.087 32.5225 33.7254 32.1778 34.422 32.0821C35.1186 31.9864 35.8263 32.1461 36.4143 32.5318C37.0022 32.9174 37.4306 33.5029 37.6203 34.18H35.9203C35.7589 33.9415 35.5244 33.7619 35.2521 33.6681C34.9798 33.5744 34.6844 33.5715 34.4103 33.66C34.1336 33.7484 33.8922 33.9225 33.7209 34.157C33.5496 34.3916 33.4573 34.6745 33.4573 34.965C33.4573 35.2555 33.5496 35.5384 33.7209 35.773C33.8922 36.0075 34.1336 36.1816 34.4103 36.27C34.6844 36.3585 34.9798 36.3556 35.2521 36.2619C35.5244 36.1681 35.7589 35.9885 35.9203 35.75H37.6203Z" fill="#32B9E9"/>
</svg>
