<svg width="64" height="64" viewBox="0 0 64 64" fill="none" xmlns="http://www.w3.org/2000/svg">
<g opacity="0.9">
<g opacity="0.9">
<path d="M14.8918 30.8555C13.9558 30.8555 13.1758 31.6355 13.1758 32.5715C13.1758 33.5075 13.9558 34.2875 14.8918 34.2875C15.8278 34.2875 16.6078 33.5075 16.6078 32.5715C16.6078 31.6355 15.8278 30.8555 14.8918 30.8555Z" fill="url(#paint0_linear_4045_5709)"/>
<path d="M33.4209 12.25C35.3143 12.25 36.75 13.5109 36.75 15C36.75 16.4891 35.3143 17.75 33.4209 17.75H23.5791C21.6857 17.75 20.25 16.4891 20.25 15C20.25 13.5109 21.6857 12.25 23.5791 12.25H33.4209ZM23.5791 14.208C23.1362 14.208 22.6826 14.5308 22.6826 15C22.6826 15.4692 23.1362 15.792 23.5791 15.792H33.4209C33.8638 15.792 34.3174 15.4692 34.3174 15C34.3174 14.5308 33.8638 14.208 33.4209 14.208H23.5791Z" fill="url(#paint1_linear_4045_5709)"/>
<path d="M14.8918 39.9033C13.9558 39.9033 13.1758 40.6833 13.1758 41.6193C13.1758 42.5553 13.9558 43.3353 14.8918 43.3353C15.8278 43.3353 16.6078 42.5553 16.6078 41.6193C16.6078 40.6833 15.8278 39.9033 14.8918 39.9033Z" fill="url(#paint2_linear_4045_5709)"/>
<path d="M32.9885 34.2357C33.9245 34.2357 34.7045 33.4557 34.7045 32.5197C34.7045 31.5837 33.9245 30.8037 32.9885 30.8037C32.0525 30.8037 31.2725 31.5837 31.2725 32.5197C31.2725 33.5077 32.0525 34.2357 32.9885 34.2357Z" fill="url(#paint3_linear_4045_5709)"/>
<path d="M32.9885 39.9033C32.0525 39.9033 31.2725 40.6833 31.2725 41.6193C31.2725 42.5553 32.0525 43.3353 32.9885 43.3353C33.9245 43.3353 34.7045 42.5553 34.7045 41.6193C34.7045 40.6833 33.9245 39.9033 32.9885 39.9033Z" fill="url(#paint4_linear_4045_5709)"/>
<path d="M23.9396 30.8555C23.0036 30.8555 22.2236 31.6355 22.2236 32.5715C22.2236 33.5075 23.0036 34.2875 23.9396 34.2875C24.8756 34.2875 25.6556 33.5075 25.6556 32.5715C25.6556 31.6355 24.8756 30.8555 23.9396 30.8555Z" fill="url(#paint5_linear_4045_5709)"/>
<path d="M23.9396 39.9033C23.0036 39.9033 22.2236 40.6833 22.2236 41.6193C22.2236 42.5553 23.0036 43.3353 23.9396 43.3353C24.8756 43.3353 25.6556 42.5553 25.6556 41.6193C25.6556 40.6833 24.8756 39.9033 23.9396 39.9033Z" fill="url(#paint6_linear_4045_5709)"/>
<path d="M39.2275 6.97754C40.5455 6.97754 41.6299 8.06195 41.6299 9.37988V32.7031C41.6299 33.9457 42.6373 34.9531 43.8799 34.9531H56.4404C57.1396 34.9534 57.75 35.5233 57.75 36.2637V55.6592C57.75 56.3996 57.1396 56.9695 56.4404 56.9697H8.65234C7.33441 56.9697 6.25 55.8853 6.25 54.5674V9.37988C6.25 8.06511 7.331 6.97754 8.7041 6.97754H39.2275ZM11.1201 22.7539C9.87748 22.7539 8.87012 23.7613 8.87012 25.0039V52.2031C8.87012 53.4458 9.87748 54.4531 11.1201 54.4531H34.5244C35.7669 54.4529 36.7744 53.4456 36.7744 52.2031V36.2637C36.7744 35.5231 37.3846 34.9531 38.084 34.9531C38.6241 34.9531 39.0615 34.5157 39.0615 33.9756V25.0039C39.0615 23.7613 38.0542 22.7539 36.8115 22.7539H11.1201ZM41.3076 50.5215C40.2221 50.5217 39.3419 51.4017 39.3418 52.4873C39.3418 53.573 40.222 54.4529 41.3076 54.4531H53.1641C54.2498 54.4531 55.1299 53.5731 55.1299 52.4873C55.1298 51.4016 54.2497 50.5215 53.1641 50.5215H41.3076ZM41.3076 44.0215C40.2221 44.0217 39.3419 44.9017 39.3418 45.9873C39.3418 47.073 40.222 47.9529 41.3076 47.9531H53.1641C54.2498 47.9531 55.1299 47.0731 55.1299 45.9873C55.1298 44.9016 54.2497 44.0215 53.1641 44.0215H41.3076ZM41.3076 37.5215C40.2221 37.5217 39.3419 38.4017 39.3418 39.4873C39.3418 40.573 40.222 41.4529 41.3076 41.4531H53.1641C54.2498 41.4531 55.1299 40.5731 55.1299 39.4873C55.1298 38.4016 54.2497 37.5215 53.1641 37.5215H41.3076ZM11.1201 9.5459C9.87748 9.5459 8.87012 10.5533 8.87012 11.7959V17.9355C8.87012 19.1782 9.87748 20.1855 11.1201 20.1855H36.8115C38.0542 20.1855 39.0615 19.1782 39.0615 17.9355V11.7959C39.0615 10.5533 38.0542 9.5459 36.8115 9.5459H11.1201Z" fill="url(#paint7_linear_4045_5709)"/>
</g>
</g>
<defs>
<linearGradient id="paint0_linear_4045_5709" x1="14.8893" y1="31.1851" x2="15.3325" y2="33.903" gradientUnits="userSpaceOnUse">
<stop stop-color="#00A5E3"/>
<stop offset="0.5" stop-color="#373188"/>
<stop offset="1" stop-color="#FD0026"/>
</linearGradient>
<linearGradient id="paint1_linear_4045_5709" x1="24.7796" y1="13.1252" x2="27.7191" y2="18.991" gradientUnits="userSpaceOnUse">
<stop offset="0.176848" stop-color="#00A5E3"/>
<stop offset="0.5" stop-color="#373188"/>
<stop offset="1" stop-color="#FD0026"/>
</linearGradient>
<linearGradient id="paint2_linear_4045_5709" x1="14.8893" y1="40.233" x2="15.3325" y2="42.9509" gradientUnits="userSpaceOnUse">
<stop stop-color="#00A5E3"/>
<stop offset="0.5" stop-color="#373188"/>
<stop offset="1" stop-color="#FD0026"/>
</linearGradient>
<linearGradient id="paint3_linear_4045_5709" x1="32.9859" y1="31.1334" x2="33.4292" y2="33.8513" gradientUnits="userSpaceOnUse">
<stop stop-color="#00A5E3"/>
<stop offset="0.5" stop-color="#373188"/>
<stop offset="1" stop-color="#FD0026"/>
</linearGradient>
<linearGradient id="paint4_linear_4045_5709" x1="32.9859" y1="40.233" x2="33.4292" y2="42.9509" gradientUnits="userSpaceOnUse">
<stop stop-color="#00A5E3"/>
<stop offset="0.5" stop-color="#373188"/>
<stop offset="1" stop-color="#FD0026"/>
</linearGradient>
<linearGradient id="paint5_linear_4045_5709" x1="23.9371" y1="31.1851" x2="24.3804" y2="33.903" gradientUnits="userSpaceOnUse">
<stop stop-color="#00A5E3"/>
<stop offset="0.5" stop-color="#373188"/>
<stop offset="1" stop-color="#FD0026"/>
</linearGradient>
<linearGradient id="paint6_linear_4045_5709" x1="23.9371" y1="40.233" x2="24.3804" y2="42.9509" gradientUnits="userSpaceOnUse">
<stop stop-color="#00A5E3"/>
<stop offset="0.5" stop-color="#373188"/>
<stop offset="1" stop-color="#FD0026"/>
</linearGradient>
<linearGradient id="paint7_linear_4045_5709" x1="31.9618" y1="11.5773" x2="38.3037" y2="51.623" gradientUnits="userSpaceOnUse">
<stop stop-color="#00A5E3"/>
<stop offset="0.5" stop-color="#373188"/>
<stop offset="1" stop-color="#FD0026"/>
</linearGradient>
</defs>
</svg>
