<svg width="70" height="70" viewBox="0 0 70 70" fill="none" xmlns="http://www.w3.org/2000/svg">
<path d="M35.4304 69.85C54.3627 69.85 69.7104 54.5023 69.7104 35.57C69.7104 16.6377 54.3627 1.28998 35.4304 1.28998C16.4981 1.28998 1.15039 16.6377 1.15039 35.57C1.15039 54.5023 16.4981 69.85 35.4304 69.85Z" fill="#EAF8FD"/>
<path d="M17.9204 36.33H18.0004C18.9009 36.0277 19.7659 35.6287 20.5804 35.14C20.7064 35.0174 20.7885 34.8568 20.814 34.6829C20.8396 34.5091 20.8072 34.3316 20.7219 34.178C20.6365 34.0244 20.503 33.9032 20.3419 33.833C20.1807 33.7629 20.001 33.7477 19.8304 33.79C19.0404 34.13 18.2504 34.49 17.4704 34.87C17.3265 34.9638 17.2167 35.1015 17.1571 35.2626C17.0976 35.4237 17.0915 35.5997 17.1397 35.7646C17.1879 35.9295 17.2879 36.0744 17.4249 36.178C17.5619 36.2817 17.7286 36.3384 17.9004 36.34L17.9204 36.33ZM20.0004 25.87C20.1864 25.8914 20.3742 25.8485 20.5324 25.7485C20.6907 25.6484 20.81 25.4972 20.8704 25.32C20.9362 25.1441 20.9337 24.95 20.8633 24.776C20.7929 24.602 20.6599 24.4607 20.4904 24.38C19.7604 24.02 19.0204 23.68 18.2704 23.38C18.1785 23.3403 18.0797 23.3193 17.9796 23.3179C17.8796 23.3166 17.7802 23.3351 17.6873 23.3722C17.5944 23.4094 17.5097 23.4646 17.4382 23.5345C17.3667 23.6045 17.3096 23.6879 17.2704 23.78C17.1881 23.9574 17.1764 24.1595 17.2377 24.3452C17.299 24.5309 17.4287 24.6863 17.6004 24.78C18.3304 25.14 19.0804 25.47 19.8204 25.78C19.874 25.8214 19.9351 25.852 20.0004 25.87ZM52.8904 24.09C52.8924 23.9546 52.8596 23.821 52.7952 23.702C52.7307 23.583 52.6368 23.4825 52.5223 23.4102C52.4079 23.3379 52.2768 23.2963 52.1416 23.2892C52.0065 23.2822 51.8717 23.31 51.7504 23.37C51.0404 23.67 50.3504 24 49.6604 24.37C49.5606 24.4103 49.4699 24.4703 49.3938 24.5465C49.3177 24.6227 49.2578 24.7135 49.2177 24.8134C49.1775 24.9133 49.158 25.0203 49.1601 25.128C49.1623 25.2356 49.1862 25.3418 49.2304 25.44C49.2724 25.5394 49.3342 25.6291 49.4122 25.7037C49.4902 25.7783 49.5827 25.8361 49.6839 25.8736C49.7851 25.9111 49.8929 25.9274 50.0006 25.9217C50.1084 25.9159 50.2138 25.8881 50.3104 25.84C51.0304 25.52 51.7504 25.19 52.4604 24.84C52.5979 24.7727 52.7112 24.6645 52.7846 24.5301C52.8581 24.3958 52.888 24.242 52.8704 24.09H52.8904ZM52.0004 36.33C52.1903 36.3477 52.3804 36.297 52.5363 36.187C52.6921 36.077 52.8035 35.9149 52.8504 35.73C52.8997 35.5493 52.8824 35.357 52.8016 35.1881C52.7208 35.0192 52.582 34.885 52.4104 34.81C51.7004 34.47 50.9804 34.13 50.2604 33.81C50.0704 33.7352 49.8591 33.7359 49.6696 33.8119C49.4801 33.8879 49.3269 34.0335 49.2413 34.2188C49.1556 34.4042 49.1441 34.6152 49.209 34.8088C49.2739 35.0023 49.4104 35.1637 49.5904 35.26C50.2904 35.61 51.0104 35.93 51.7204 36.26C51.8103 36.2954 51.9044 36.3189 52.0004 36.33ZM18.1804 29H17.0004C16.8047 29.0012 16.6162 29.0741 16.4706 29.2049C16.325 29.3358 16.2324 29.5155 16.2104 29.71C16.1964 29.8112 16.2027 29.9142 16.2289 30.013C16.2551 30.1118 16.3007 30.2044 16.3631 30.2854C16.4254 30.3664 16.5033 30.4341 16.5921 30.4847C16.6809 30.5353 16.7789 30.5676 16.8804 30.58C17.7421 30.6549 18.6087 30.6549 19.4704 30.58C19.6747 30.5572 19.8622 30.4557 19.9929 30.297C20.1236 30.1383 20.1873 29.9349 20.1704 29.73C20.1503 29.5275 20.0549 29.3401 19.9029 29.2048C19.751 29.0696 19.5538 28.9964 19.3504 29H18.1804Z" fill="#32B9E9"/>
<path d="M35.8108 18.22C36.2276 18.3247 36.6524 18.3949 37.0808 18.43C39.4642 18.8309 41.6728 19.9369 43.4214 21.6053C45.17 23.2737 46.3785 25.428 46.8908 27.79C47.8908 32.79 46.2808 36.89 42.2008 39.98C42.0687 40.0509 41.962 40.1613 41.8957 40.2957C41.8294 40.4302 41.8067 40.582 41.8308 40.73C41.8507 40.886 41.8507 41.0439 41.8308 41.2C41.7994 41.4782 41.8268 41.76 41.9112 42.027C41.9956 42.294 42.1351 42.5403 42.3208 42.75C42.7419 43.2762 42.9629 43.9346 42.9446 44.6083C42.9263 45.282 42.6699 45.9274 42.2208 46.43C42.0808 46.59 42.0708 46.67 42.2208 46.84C42.6021 47.262 42.848 47.7889 42.9264 48.3523C43.0049 48.9158 42.9123 49.4898 42.6608 50C42.4382 50.5161 42.0655 50.9533 41.5911 51.2547C41.1167 51.5561 40.5625 51.7078 40.0008 51.69C39.7608 51.69 39.6708 51.74 39.6208 52C39.4193 53.078 38.8471 54.0517 38.0034 54.7523C37.1597 55.453 36.0975 55.8365 35.0008 55.8365C33.904 55.8365 32.8419 55.453 31.9981 54.7523C31.1544 54.0517 30.5822 53.078 30.3808 52C30.3308 51.75 30.2408 51.71 30.0008 51.7C29.4392 51.6994 28.8896 51.5374 28.4175 51.2333C27.9454 50.9292 27.5706 50.4959 27.3378 49.9849C27.1049 49.4739 27.0238 48.9067 27.1041 48.3509C27.1844 47.7952 27.4228 47.2742 27.7908 46.85C27.9308 46.67 27.9208 46.6 27.7908 46.44C27.301 45.8585 27.0503 45.1128 27.0893 44.3536C27.1283 43.5943 27.454 42.8782 28.0008 42.35C28.0552 42.3034 28.0979 42.2449 28.1257 42.1789C28.1535 42.1129 28.1655 42.0414 28.1608 41.97C28.1608 41.5 28.1608 41.02 28.1608 40.54C28.1715 40.4455 28.1533 40.3501 28.1087 40.2662C28.0641 40.1823 27.9951 40.1138 27.9108 40.07C25.5035 38.4364 23.7893 35.9665 23.1008 33.14C22.5106 30.5215 22.7991 27.7816 23.9215 25.3434C25.0439 22.9052 26.9378 20.9044 29.3108 19.65C30.7693 18.8922 32.3631 18.43 34.0008 18.29C34.0608 18.29 34.1308 18.29 34.1508 18.22H34.6608C34.7752 18.2788 34.9021 18.3094 35.0308 18.3094C35.1594 18.3094 35.2863 18.2788 35.4008 18.22H35.8108ZM32.1408 41.57C32.9508 41.57 33.7608 41.57 34.5708 41.57H36.2508C36.7867 41.61 37.3248 41.61 37.8608 41.57C38.5708 41.57 39.2808 41.57 39.9908 41.57C40.2008 41.57 40.2208 41.48 40.2208 41.31C40.2208 40.94 40.2208 40.57 40.2208 40.2C40.1845 39.9344 40.2326 39.6641 40.3582 39.4272C40.4838 39.1904 40.6805 38.999 40.9208 38.88C42.5973 37.8475 43.9259 36.3362 44.7352 34.5413C45.5444 32.7463 45.7972 30.75 45.4608 28.81C45.1086 26.5036 44.0018 24.3791 42.3136 22.7687C40.6255 21.1584 38.4511 20.153 36.1308 19.91C34.1428 19.6502 32.1225 19.9868 30.3261 20.8769C28.5297 21.7671 27.0382 23.1708 26.0408 24.91C24.9441 26.5345 24.3581 28.4499 24.3581 30.41C24.3581 32.3701 24.9441 34.2854 26.0408 35.91C26.801 37.124 27.8267 38.1497 29.0408 38.91C29.2934 39.0325 29.5004 39.2323 29.6316 39.4805C29.7629 39.7287 29.8117 40.0122 29.7708 40.29C29.7708 40.65 29.7708 41.02 29.7708 41.39C29.7708 41.57 29.7708 41.62 30.0008 41.62L32.1408 41.57ZM35.0008 50.07H40.0008C40.2849 50.0809 40.5645 49.9962 40.7947 49.8294C41.025 49.6626 41.1926 49.4234 41.2708 49.15C41.3377 48.9442 41.3525 48.725 41.314 48.512C41.2756 48.2991 41.1849 48.0989 41.0502 47.9296C40.9155 47.7602 40.7409 47.6268 40.5421 47.5414C40.3433 47.456 40.1263 47.4211 39.9108 47.44H30.1008C29.8048 47.4095 29.5075 47.4839 29.2608 47.6502C29.014 47.8165 28.8335 48.0642 28.7508 48.35C28.6809 48.5473 28.6601 48.7586 28.6902 48.9657C28.7203 49.1728 28.8003 49.3695 28.9233 49.5388C29.0463 49.7081 29.2087 49.8449 29.3964 49.9375C29.5841 50.03 29.7915 50.0755 30.0008 50.07H35.0008ZM35.0008 45.82H39.9208C40.2112 45.8476 40.5022 45.7727 40.7433 45.6084C40.9844 45.444 41.1604 45.2005 41.2408 44.92C41.3128 44.7235 41.3355 44.5124 41.307 44.3051C41.2785 44.0978 41.1996 43.9006 41.0773 43.7309C40.9549 43.5611 40.7928 43.424 40.6051 43.3314C40.4174 43.2389 40.2099 43.1937 40.0008 43.2C36.6708 43.2 33.3308 43.2 30.0008 43.2H29.8208C29.5999 43.2165 29.3883 43.2958 29.2111 43.4288C29.0339 43.5617 28.8984 43.7425 28.8208 43.95C28.7236 44.149 28.679 44.3696 28.691 44.5908C28.7031 44.812 28.7715 45.0264 28.8897 45.2138C29.0079 45.4011 29.172 45.5551 29.3665 45.6612C29.5609 45.7673 29.7793 45.822 30.0008 45.82H35.0008ZM35.0008 51.69H32.2308C32.0208 51.69 31.9508 51.69 32.0008 51.96C32.1805 52.6178 32.5716 53.1983 33.1136 53.6122C33.6557 54.026 34.3188 54.2502 35.0008 54.2502C35.6827 54.2502 36.3458 54.026 36.8879 53.6122C37.43 53.1983 37.821 52.6178 38.0008 51.96C38.0608 51.75 38.0008 51.69 37.7908 51.69H35.0008Z" fill="#32B9E9"/>
<path d="M53.8208 30.06C53.7173 30.2608 53.5539 30.4245 53.3532 30.5284C53.1526 30.6323 52.9246 30.6713 52.7008 30.64C52.0408 30.64 51.3808 30.64 50.7008 30.64C50.5221 30.6463 50.3463 30.594 50.2 30.4911C50.0538 30.3882 49.9452 30.2403 49.8908 30.07C49.8401 29.9239 49.8339 29.7661 49.8731 29.6165C49.9123 29.467 49.995 29.3324 50.1108 29.23C50.2545 29.0966 50.4448 29.0248 50.6408 29.03C51.4308 29.03 52.2108 29.03 52.9908 29.03C53.3908 29.03 53.5908 29.3 53.8008 29.57L53.8208 30.06Z" fill="#32B9E9"/>
<path d="M35.3709 18.22C35.2564 18.2788 35.1295 18.3094 35.0009 18.3094C34.8722 18.3094 34.7453 18.2788 34.6309 18.22H35.3709Z" fill="#32B9E9"/>
<path d="M17.9208 36.33C17.7491 36.3284 17.5823 36.2717 17.4453 36.168C17.3083 36.0644 17.2083 35.9195 17.1601 35.7546C17.1119 35.5897 17.118 35.4137 17.1776 35.2526C17.2371 35.0915 17.347 34.9538 17.4908 34.86C18.2708 34.48 19.0608 34.12 19.8508 33.78C20.0214 33.7377 20.2012 33.7529 20.3623 33.823C20.5234 33.8932 20.657 34.0144 20.7423 34.168C20.8277 34.3216 20.86 34.4991 20.8345 34.6729C20.8089 34.8468 20.7268 35.0074 20.6008 35.13C19.78 35.62 18.9082 36.019 18.0008 36.32L17.9208 36.33Z" fill="#32B9E9"/>
<path d="M19.9999 25.87C19.934 25.8655 19.8695 25.8486 19.8099 25.82C19.0699 25.48 18.3199 25.15 17.5899 24.82C17.4182 24.7264 17.2886 24.5709 17.2273 24.3852C17.166 24.1995 17.1777 23.9974 17.2599 23.82C17.2992 23.7279 17.3562 23.6445 17.4277 23.5745C17.4993 23.5046 17.5839 23.4494 17.6768 23.4123C17.7698 23.3751 17.8691 23.3567 17.9692 23.358C18.0692 23.3593 18.168 23.3804 18.2599 23.42C19.0099 23.75 19.7499 24.09 20.4799 24.42C20.6494 24.5007 20.7825 24.642 20.8528 24.816C20.9232 24.9901 20.9257 25.1842 20.8599 25.36C20.7929 25.5279 20.6722 25.669 20.5167 25.7612C20.3611 25.8535 20.1794 25.8917 19.9999 25.87Z" fill="#32B9E9"/>
<path d="M52.8701 24.0899C52.8776 24.2377 52.8406 24.3844 52.764 24.5109C52.6873 24.6375 52.5745 24.7382 52.4401 24.7999C51.7301 25.1499 51.0101 25.4799 50.2901 25.7999C50.1935 25.8481 50.088 25.8759 49.9803 25.8816C49.8725 25.8874 49.7647 25.8711 49.6635 25.8336C49.5623 25.7961 49.4699 25.7383 49.3919 25.6637C49.3139 25.5891 49.252 25.4994 49.2101 25.3999C49.1659 25.3017 49.142 25.1956 49.1398 25.088C49.1376 24.9803 49.1572 24.8733 49.1973 24.7734C49.2375 24.6735 49.2974 24.5827 49.3735 24.5065C49.4496 24.4303 49.5402 24.3703 49.6401 24.3299C50.3301 23.9999 51.0201 23.6699 51.7301 23.3299C51.8545 23.2681 51.9931 23.2401 52.1318 23.2489C52.2705 23.2577 52.4044 23.3029 52.52 23.38C52.6357 23.4571 52.7289 23.5633 52.7904 23.688C52.8518 23.8126 52.8793 23.9513 52.8701 24.0899Z" fill="#32B9E9"/>
<path d="M52.0009 36.3299C51.9049 36.3189 51.8108 36.2954 51.7209 36.2599C51.0109 35.9399 50.2909 35.6199 49.5909 35.2599C49.4108 35.1637 49.2744 35.0023 49.2095 34.8087C49.1446 34.6152 49.1561 34.4041 49.2417 34.2188C49.3274 34.0335 49.4806 33.8879 49.6701 33.8119C49.8595 33.7359 50.0709 33.7352 50.2609 33.8099C50.9809 34.1199 51.7009 34.4599 52.4109 34.8099C52.5824 34.885 52.7213 35.0192 52.8021 35.1881C52.8828 35.357 52.9002 35.5493 52.8509 35.7299C52.804 35.9149 52.6926 36.077 52.5367 36.187C52.3809 36.297 52.1908 36.3477 52.0009 36.3299Z" fill="#32B9E9"/>
<path d="M18.1801 29H19.3201C19.5235 28.9965 19.7207 29.0696 19.8727 29.2049C20.0246 29.3401 20.1201 29.5276 20.1401 29.73C20.157 29.9349 20.0933 30.1383 19.9626 30.297C19.8319 30.4557 19.6445 30.5572 19.4401 30.58C18.5784 30.6549 17.7118 30.6549 16.8501 30.58C16.7487 30.5677 16.6507 30.5353 16.5618 30.4847C16.473 30.4341 16.3952 30.3664 16.3328 30.2854C16.2704 30.2044 16.2248 30.1118 16.1986 30.013C16.1724 29.9142 16.1661 29.8112 16.1801 29.71C16.2026 29.5103 16.2995 29.3263 16.4514 29.1948C16.6034 29.0632 16.7993 28.9937 17.0001 29H18.1801Z" fill="#32B9E9"/>
<path d="M36.2501 41.57C36.2501 39.66 36.2501 37.75 36.2501 35.84C36.2484 35.7243 36.2706 35.6095 36.3154 35.5029C36.3601 35.3962 36.4264 35.2999 36.5101 35.22C37.3901 34.35 38.2701 33.47 39.1601 32.62C39.2299 32.5253 39.3197 32.4471 39.4232 32.3911C39.5266 32.3351 39.6412 32.3026 39.7586 32.2959C39.8761 32.2892 39.9936 32.3085 40.1027 32.3524C40.2119 32.3964 40.31 32.4638 40.3901 32.55C40.4691 32.6368 40.5291 32.7391 40.5662 32.8505C40.6032 32.9619 40.6166 33.0798 40.6052 33.1966C40.5939 33.3135 40.5583 33.4266 40.5005 33.5288C40.4428 33.631 40.3643 33.72 40.2701 33.79C39.5501 34.5 38.8301 35.22 38.0901 35.92C38.0154 35.99 37.9571 36.0756 37.919 36.1706C37.881 36.2656 37.8643 36.3678 37.8701 36.47V41.57C37.3308 41.6105 36.7893 41.6105 36.2501 41.57Z" fill="#32B9E9"/>
<path d="M33.7503 41.53H32.1403C32.1403 39.84 32.1403 38.15 32.1403 36.46C32.1462 36.3568 32.1286 36.2537 32.0888 36.1584C32.0489 36.0631 31.9879 35.9781 31.9103 35.91C31.2003 35.22 30.5103 34.52 29.8003 33.81C29.3503 33.35 29.3003 32.9 29.6803 32.53C30.0603 32.16 30.5003 32.23 30.9403 32.66C31.7603 33.48 32.5803 34.31 33.4103 35.13C33.5195 35.2259 33.6065 35.3445 33.6653 35.4774C33.724 35.6104 33.753 35.7546 33.7503 35.9V41.53Z" fill="#32B9E9"/>
</svg>
