<svg width="70" height="70" viewBox="0 0 70 70" fill="none" xmlns="http://www.w3.org/2000/svg">
<path d="M34.7497 69.85C53.682 69.85 69.0297 54.5023 69.0297 35.57C69.0297 16.6377 53.682 1.28998 34.7497 1.28998C15.8174 1.28998 0.469727 16.6377 0.469727 35.57C0.469727 54.5023 15.8174 69.85 34.7497 69.85Z" fill="#EAF8FD"/>
<path d="M30.81 36H29.81V22.61C29.7776 22.3246 29.8103 22.0356 29.9057 21.7647C30.0011 21.4938 30.1567 21.2481 30.3607 21.0459C30.5648 20.8438 30.812 20.6906 31.0838 20.5978C31.3556 20.5049 31.6449 20.4749 31.93 20.51H50.44C50.7243 20.4766 51.0124 20.5078 51.283 20.6014C51.5535 20.6949 51.7994 20.8484 52.0023 21.0503C52.2051 21.2522 52.3598 21.4974 52.4546 21.7675C52.5495 22.0376 52.5821 22.3256 52.55 22.61V47.44C52.578 47.7214 52.5432 48.0055 52.4481 48.2719C52.353 48.5382 52.1999 48.78 52 48.98C51.8 49.18 51.5581 49.333 51.2918 49.4282C51.0255 49.5233 50.7414 49.5581 50.46 49.53H36H35.62V48.53H50.38C51.25 48.53 51.51 48.26 51.51 47.38V22.7C51.51 21.8 51.26 21.56 50.35 21.56H32C31 21.56 30.78 21.79 30.78 22.76V36H30.81Z" fill="#32B9E9"/>
<path d="M28.1602 32.2234C27.9118 32.2619 27.6399 32.3063 27.4023 32.3641C26.1933 32.658 25.0833 33.2671 24.1855 34.1287C23.288 34.9902 22.6343 36.0736 22.291 37.2693C21.9478 38.4652 21.9274 39.7309 22.2314 40.9373C22.535 42.1415 23.1511 43.2441 24.0176 44.1336V44.1346C24.1553 44.2792 24.3131 44.3918 24.4346 44.4774C24.5414 44.5525 24.6217 44.6098 24.6914 44.6668C24.5108 45.2653 24.408 45.8841 24.3887 46.5076C24.2998 46.4964 24.2089 46.4949 24.1172 46.5027C23.7782 46.5317 23.476 46.6888 23.2373 46.8289C22.8209 47.0733 22.3336 47.3269 21.8779 47.5643C21.4643 47.1743 21.0588 46.769 20.6689 46.3553C20.9141 45.8327 21.1853 45.3072 21.46 44.7957C21.5654 44.6039 21.6211 44.3887 21.6211 44.1697C21.6211 43.9613 21.5704 43.7567 21.4746 43.5721C21.1586 42.8809 20.8638 42.1816 20.5986 41.4744H20.5967C20.5306 41.2596 20.4152 41.0634 20.2559 40.9041C20.0868 40.735 19.877 40.613 19.6465 40.5496H19.6475C19.3778 40.4726 19.1083 40.3849 18.8311 40.2938C18.5772 40.2103 18.3147 40.1234 18.0498 40.0418V38.2938C18.6074 38.1191 19.089 37.945 19.6348 37.7918L19.6338 37.7908C19.8705 37.7271 20.0864 37.6029 20.2598 37.4295C20.4243 37.2649 20.5421 37.0613 20.6084 36.8387L20.6104 36.8397C20.8633 36.1391 21.1663 35.4437 21.4844 34.7479L21.4834 34.7469C21.574 34.5679 21.623 34.3707 21.623 34.1697C21.623 34.0109 21.5933 33.8541 21.5361 33.7068L21.4707 33.5633C21.2109 33.0705 20.9344 32.5066 20.6533 31.9852C21.0722 31.5827 21.4823 31.1716 21.8848 30.7527C22.1346 30.8854 22.3847 31.0128 22.6299 31.1365C22.9033 31.2745 23.1702 31.4091 23.4336 31.5506V31.5496C23.6295 31.6598 23.8503 31.7186 24.0752 31.7186C24.2879 31.7185 24.4958 31.664 24.6836 31.5652L24.6846 31.5662C25.3897 31.2499 26.1021 30.9533 26.8203 30.6766L26.8193 30.6746C27.0129 30.6135 27.1908 30.5105 27.3359 30.368C27.4921 30.2146 27.6068 30.0241 27.6689 29.8143C27.7449 29.5627 27.831 29.331 27.9238 29.0643C28.0076 28.8235 28.0915 28.5648 28.1602 28.2801V32.2234Z" stroke="#32B9E9"/>
<path d="M30.1768 42.7296C31.153 42.7176 32.1 43.0648 32.8369 43.7052C33.5703 44.3426 34.044 45.2266 34.1709 46.1896H34.1719C34.265 47.1211 34.2239 48.0285 34.2295 49.0197L30.2773 49.0402H26.2793C26.276 49.0402 26.2727 49.0392 26.2695 49.0392V46.2765C26.3748 45.3147 26.8272 44.4235 27.542 43.7706C28.2629 43.1123 29.2006 42.7417 30.1768 42.7296Z" stroke="#32B9E9"/>
<path d="M46.1399 28.05C45.8999 27.73 45.6999 27.45 45.4899 27.18C45.4519 27.105 45.3983 27.039 45.3328 26.9864C45.2672 26.9338 45.1912 26.8958 45.1097 26.875C45.0283 26.8542 44.9434 26.851 44.8606 26.8656C44.7779 26.8803 44.6992 26.9125 44.6299 26.96C44.3399 27.17 44.3199 27.49 44.5699 27.85C44.8199 28.21 45.2399 28.78 45.5699 29.24C45.619 29.3297 45.6913 29.4045 45.7793 29.4567C45.8672 29.5088 45.9676 29.5363 46.0699 29.5363C46.1721 29.5363 46.2725 29.5088 46.3605 29.4567C46.4484 29.4045 46.5208 29.3297 46.5699 29.24C47.2299 28.46 47.8699 27.67 48.5699 26.88L48.8399 26.57C49.0422 26.9789 49.0986 27.4446 48.9999 27.89C48.9319 28.4595 48.6932 28.9951 48.315 29.4263C47.9369 29.8575 47.437 30.1641 46.8813 30.3057C46.3255 30.4474 45.7399 30.4174 45.2014 30.2199C44.663 30.0223 44.197 29.6663 43.8648 29.1988C43.5326 28.7313 43.3497 28.1741 43.3402 27.6007C43.3307 27.0272 43.4951 26.4643 43.8117 25.9861C44.1283 25.5079 44.5822 25.1367 45.1138 24.9214C45.6454 24.7061 46.2297 24.6568 46.7899 24.78C46.942 24.8405 47.1112 24.8423 47.2646 24.785C47.418 24.7277 47.5446 24.6154 47.6199 24.47C47.7613 24.2503 47.9292 24.0488 48.1199 23.87C48.2139 23.7659 48.3447 23.7024 48.4847 23.6931C48.6247 23.6838 48.7628 23.7293 48.8699 23.82C48.9309 23.8595 48.9828 23.9117 49.022 23.9729C49.0613 24.0341 49.087 24.1031 49.0974 24.175C49.1078 24.247 49.1027 24.3204 49.0824 24.3902C49.0622 24.4601 49.0272 24.5248 48.9799 24.58C48.0499 25.73 47.1099 26.87 46.1399 28.05Z" fill="#32B9E9"/>
<path d="M48.84 35C49.0693 35.5493 49.0976 36.1619 48.92 36.73C48.6947 37.4262 48.2093 38.0086 47.5651 38.3557C46.9209 38.7028 46.1676 38.7879 45.4622 38.5932C44.7568 38.3985 44.1538 37.939 43.7789 37.3105C43.4041 36.6821 43.2862 35.9332 43.45 35.22C43.5439 34.8604 43.7083 34.523 43.9336 34.2273C44.1589 33.9317 44.4406 33.6837 44.7624 33.4976C45.0842 33.3116 45.4397 33.1913 45.8084 33.1436C46.177 33.096 46.5514 33.1219 46.91 33.22C47.0158 33.2681 47.1357 33.2753 47.2465 33.2403C47.3573 33.2052 47.4512 33.1303 47.51 33.03C47.687 32.7746 47.8843 32.5338 48.1 32.31C48.1964 32.2009 48.331 32.1329 48.476 32.1198C48.6211 32.1068 48.7656 32.1498 48.88 32.24C48.9954 32.3258 49.0726 32.4535 49.095 32.5955C49.1174 32.7376 49.0833 32.8828 49 33C48.07 34.15 47.13 35.27 46.16 36.46L45.48 35.54C45.4391 35.4699 45.3835 35.4095 45.3169 35.363C45.2504 35.3165 45.1745 35.2851 45.0946 35.2708C45.0147 35.2565 44.9327 35.2598 44.8542 35.2804C44.7757 35.301 44.7026 35.3384 44.64 35.39C44.5811 35.4273 44.5306 35.4762 44.4914 35.5338C44.4522 35.5913 44.4252 35.6563 44.4121 35.7247C44.399 35.7931 44.4 35.8635 44.4151 35.9315C44.4302 35.9994 44.4591 36.0636 44.5 36.12C44.88 36.68 45.27 37.22 45.68 37.75C45.94 38.09 46.33 38.04 46.68 37.67L48.53 35.42L48.84 35Z" fill="#32B9E9"/>
<path d="M46.1396 44.86L45.5096 44C45.2396 43.63 44.9196 43.54 44.6296 43.76C44.3396 43.98 44.3196 44.29 44.6296 44.68C44.9396 45.07 45.2696 45.57 45.6296 46.01C45.6797 46.1088 45.7563 46.1918 45.8507 46.2497C45.9451 46.3077 46.0538 46.3384 46.1646 46.3384C46.2754 46.3384 46.384 46.3077 46.4784 46.2497C46.5729 46.1918 46.6494 46.1088 46.6996 46.01L48.5996 43.7C48.6896 43.6 48.7796 43.5 48.8996 43.34C49.1391 43.8939 49.1676 44.5165 48.9796 45.09C48.8784 45.4478 48.7078 45.7823 48.4775 46.0742C48.2471 46.3661 47.9615 46.6098 47.637 46.7913C47.3124 46.9729 46.9553 47.0887 46.586 47.1322C46.2167 47.1757 45.8424 47.1461 45.4846 47.045C45.1267 46.9439 44.7923 46.7732 44.5004 46.5429C44.2084 46.3125 43.9648 46.0269 43.7832 45.7024C43.4166 45.0469 43.3253 44.2727 43.5296 43.55C43.6222 43.1885 43.7862 42.8493 44.0119 42.5521C44.2375 42.255 44.5203 42.0059 44.8436 41.8196C45.1669 41.6333 45.5241 41.5134 45.8944 41.4671C46.2646 41.4208 46.6404 41.449 46.9996 41.55C47.1051 41.593 47.2228 41.5954 47.33 41.5566C47.4371 41.5178 47.5261 41.4406 47.5796 41.34C47.7703 41.0775 47.9809 40.8301 48.2096 40.6C48.2572 40.5497 48.3146 40.5098 48.3782 40.4824C48.4418 40.4551 48.5103 40.441 48.5796 40.441C48.6488 40.441 48.7173 40.4551 48.7809 40.4824C48.8445 40.5098 48.9019 40.5497 48.9496 40.6C49.0085 40.6376 49.0587 40.6874 49.0968 40.7461C49.1349 40.8047 49.16 40.8708 49.1704 40.94C49.1808 41.0091 49.1763 41.0797 49.1572 41.147C49.1381 41.2143 49.1048 41.2767 49.0596 41.33C48.0596 42.53 47.1096 43.67 46.1396 44.86Z" fill="#32B9E9"/>
<path d="M30.2705 37.4998H30.2773C30.4888 37.4967 30.699 37.5359 30.8955 37.614C31.0919 37.6921 31.2713 37.8076 31.4229 37.9548C31.5745 38.1022 31.6956 38.2783 31.7793 38.4724C31.8629 38.6665 31.9071 38.8754 31.9102 39.0867V39.1003L31.9111 39.114C31.9264 39.3369 31.896 39.5607 31.8213 39.7712C31.7465 39.9818 31.6291 40.1753 31.4766 40.3386C31.3241 40.5018 31.1394 40.6315 30.9346 40.7205C30.7296 40.8095 30.5086 40.8562 30.2852 40.8562C30.0617 40.8562 29.8407 40.8095 29.6357 40.7205C29.4309 40.6314 29.2462 40.5018 29.0938 40.3386C28.9412 40.1753 28.8238 39.9818 28.749 39.7712C28.6743 39.5607 28.6439 39.3369 28.6592 39.114L28.6602 39.1003V39.0867C28.6663 38.6639 28.8386 38.2605 29.1396 37.9636C29.4409 37.6666 29.8474 37.4997 30.2705 37.4998Z" stroke="#32B9E9"/>
<path d="M37.3704 26.43H33.8204C33.3704 26.43 33.1504 26.26 33.1504 25.92C33.1504 25.58 33.3804 25.4 33.8204 25.4H40.9204C41.4404 25.4 41.7304 25.75 41.5404 26.14C41.4877 26.2466 41.4013 26.3327 41.2946 26.3852C41.1879 26.4376 41.0669 26.4534 40.9504 26.43H37.3704Z" fill="#32B9E9"/>
<path d="M37.3603 28.36C38.5803 28.36 39.8003 28.36 41.0203 28.36C41.1189 28.3723 41.2139 28.4043 41.2998 28.4541C41.3857 28.504 41.4607 28.5706 41.5203 28.65C41.5615 28.7269 41.583 28.8128 41.583 28.9C41.583 28.9872 41.5615 29.0731 41.5203 29.15C41.4595 29.2182 41.3858 29.2736 41.3034 29.3131C41.221 29.3526 41.1316 29.3753 41.0403 29.38H33.7203C33.645 29.3892 33.5685 29.3815 33.4966 29.3574C33.4246 29.3333 33.3589 29.2934 33.3043 29.2407C33.2497 29.1881 33.2075 29.1238 33.1809 29.0528C33.1542 28.9817 33.1438 28.9056 33.1503 28.83C33.1503 28.52 33.3603 28.35 33.7403 28.35L37.3603 28.36Z" fill="#32B9E9"/>
<path d="M37.3303 35.12C36.1403 35.12 34.9403 35.12 33.7403 35.12C33.2903 35.12 33.0303 34.79 33.1803 34.42C33.2329 34.3066 33.3206 34.2132 33.4306 34.1538C33.5405 34.0943 33.6667 34.0719 33.7903 34.09H40.7903C40.9134 34.0799 41.0372 34.0799 41.1603 34.09C41.2758 34.1132 41.3797 34.1757 41.4544 34.2668C41.529 34.358 41.5698 34.4722 41.5698 34.59C41.5698 34.7078 41.529 34.822 41.4544 34.9131C41.3797 35.0043 41.2758 35.0668 41.1603 35.09C40.9603 35.09 40.7603 35.09 40.5603 35.09C39.4503 35.13 38.3903 35.12 37.3303 35.12Z" fill="#32B9E9"/>
<path d="M38.1802 37H40.9102C41.3502 37 41.6002 37.19 41.6002 37.51C41.6002 37.83 41.3502 38.03 40.9202 38.04H35.4202C34.9902 38.04 34.7402 37.84 34.7402 37.52C34.7402 37.2 34.9802 37 35.4202 37H38.1802Z" fill="#32B9E9"/>
<path d="M38.8099 42.8H40.9999C41.3699 42.8 41.6099 42.99 41.6199 43.29C41.6202 43.3653 41.6048 43.4399 41.5746 43.5089C41.5443 43.5779 41.5 43.6398 41.4445 43.6907C41.3889 43.7415 41.3233 43.7802 41.2519 43.8042C41.1805 43.8282 41.1049 43.837 41.0299 43.83C39.5499 43.83 38.0699 43.83 36.5899 43.83C36.5141 43.839 36.4373 43.8311 36.3649 43.8071C36.2926 43.7831 36.2263 43.7434 36.171 43.6909C36.1156 43.6384 36.0725 43.5744 36.0447 43.5034C36.0168 43.4324 36.0049 43.3561 36.0099 43.28C36.0099 42.96 36.2299 42.8 36.6299 42.8H38.8099Z" fill="#32B9E9"/>
<path d="M39.1498 46.77H37.3198C36.9398 46.77 36.6998 46.58 36.6898 46.28C36.6798 45.98 36.9198 45.74 37.3098 45.73H40.9998C41.3898 45.73 41.6398 45.96 41.6298 46.27C41.6198 46.58 41.3798 46.77 40.9698 46.77H39.1498Z" fill="#32B9E9"/>
</svg>
