<svg width="52" height="52" viewBox="0 0 52 52" fill="none" xmlns="http://www.w3.org/2000/svg">
<path d="M14.1643 25.3286C20.8824 25.3286 26.3286 19.8824 26.3286 13.1643C26.3286 6.44614 20.8824 1 14.1643 1C7.44614 1 2 6.44614 2 13.1643C2 19.8824 7.44614 25.3286 14.1643 25.3286Z" fill="#ADE3F6"/>
<path d="M50.3786 11.6787V48.6359C50.3786 49.193 49.9143 49.7502 49.2643 49.7502H9.61429C9.05714 49.7502 8.5 49.2859 8.5 48.6359V11.6787C8.5 11.1216 8.96429 10.5645 9.61429 10.5645H49.2643C49.9143 10.6573 50.3786 11.1216 50.3786 11.6787Z" fill="url(#paint0_linear_3582_3191)"/>
<path d="M28.4639 13.2002C29.0233 13.2002 29.5427 13.7189 29.543 14.2783C29.543 14.9117 29.0429 15.3574 28.4639 15.3574C27.8307 15.3572 27.3857 14.8572 27.3857 14.2783C27.386 13.6453 27.8852 13.2004 28.4639 13.2002Z" fill="#08526D" stroke="#08526D"/>
<path d="M15.5566 13.2002C16.1161 13.2002 16.6355 13.7189 16.6357 14.2783C16.6357 14.9117 16.1356 15.3574 15.5566 15.3574C14.9235 15.3572 14.4785 14.8572 14.4785 14.2783C14.4788 13.6453 14.978 13.2004 15.5566 13.2002Z" fill="#08526D" stroke="#08526D"/>
<path d="M21.9639 13.2002C22.5971 13.2002 23.0427 13.6995 23.043 14.2783C23.043 14.9117 22.5429 15.3574 21.9639 15.3574C21.3307 15.3572 20.8857 14.8572 20.8857 14.2783C20.886 13.6453 21.3852 13.2004 21.9639 13.2002Z" fill="#08526D" stroke="#08526D"/>
<path d="M50.3786 18.1787V13.8145C50.3786 12.0502 48.9857 10.5645 47.1286 10.5645H11.75C9.98571 10.5645 8.5 11.9573 8.5 13.8145V18.0859V46.9645C8.5 48.8216 9.98571 50.2145 11.75 50.2145H47.1286C48.9857 50.2145 50.3786 48.7287 50.3786 46.9645V18.1787ZM50.3786 18.1787L8.59286 18.0859" stroke="#08526D" stroke-width="2" stroke-linecap="round" stroke-linejoin="round"/>
<path d="M44.5285 23.6572V29.0429H32.3643V23.6572" stroke="#08526D" stroke-width="2" stroke-linecap="round" stroke-linejoin="round"/>
<path d="M44.5285 33.4072H32.3643V44.6429H44.5285V33.4072Z" stroke="#08526D" stroke-width="2" stroke-linecap="round" stroke-linejoin="round"/>
<path d="M14.4429 44.5498V39.1641H26.5143V44.5498" stroke="#08526D" stroke-width="2" stroke-linecap="round" stroke-linejoin="round"/>
<path d="M14.3489 34.9219H26.5132V23.6862H14.3489L14.3489 34.9219Z" stroke="#08526D" stroke-width="2" stroke-linecap="round" stroke-linejoin="round"/>
<defs>
<linearGradient id="paint0_linear_3582_3191" x1="29.4707" y1="48.486" x2="29.4707" y2="35.218" gradientUnits="userSpaceOnUse">
<stop stop-color="#ADE3F6"/>
<stop offset="0.5959" stop-color="#ADE3F6" stop-opacity="0"/>
</linearGradient>
</defs>
</svg>
