<svg width="52" height="52" viewBox="0 0 52 52" fill="none" xmlns="http://www.w3.org/2000/svg">
<g clip-path="url(#clip0_3582_2116)">
<path d="M37.9573 27.3286C44.6754 27.3286 50.1215 21.8824 50.1215 15.1643C50.1215 8.44614 44.6754 3 37.9573 3C31.2391 3 25.793 8.44614 25.793 15.1643C25.793 21.8824 31.2391 27.3286 37.9573 27.3286Z" fill="#ADE3F6"/>
<path d="M42.7857 10.8926V47.8497C42.7857 48.4069 42.3214 48.964 41.6714 48.964H2.11429C1.55714 48.964 1 48.4997 1 47.8497V10.8926C1 10.3355 1.46429 9.77832 2.11429 9.77832H41.7643C42.3214 9.87118 42.7857 10.3355 42.7857 10.8926Z" fill="url(#paint0_linear_3582_2116)"/>
<path d="M20.8711 12.4141C21.4305 12.4141 21.9499 12.9328 21.9502 13.4922C21.9502 14.1256 21.4501 14.5713 20.8711 14.5713C20.2379 14.5711 19.793 14.0711 19.793 13.4922C19.7932 12.8592 20.2924 12.4143 20.8711 12.4141Z" fill="#08526D" stroke="#08526D"/>
<path d="M7.96387 12.4141C8.59709 12.4141 9.04274 12.9134 9.04297 13.4922C9.04297 14.1256 8.54287 14.5713 7.96387 14.5713C7.33072 14.5711 6.88574 14.0711 6.88574 13.4922C6.88598 12.8592 7.38519 12.4143 7.96387 12.4141Z" fill="#08526D" stroke="#08526D"/>
<path d="M14.4639 12.4141C15.0233 12.4141 15.5427 12.9328 15.543 13.4922C15.543 14.1256 15.0429 14.5713 14.4639 14.5713C13.8307 14.5711 13.3857 14.0711 13.3857 13.4922C13.386 12.8592 13.8852 12.4143 14.4639 12.4141Z" fill="#08526D" stroke="#08526D"/>
<path d="M42.7857 17.3926V13.0283C42.7857 11.264 41.3929 9.77832 39.5357 9.77832H4.25C2.48571 9.77832 1 11.1712 1 13.0283V17.2997M42.7857 17.3926L1 17.2997M42.7857 17.3926V46.1783C42.7857 47.9426 41.3929 49.4283 39.5357 49.4283H4.25C2.48571 49.4283 1 48.0355 1 46.1783V17.2997" stroke="#08526D" stroke-width="2" stroke-linecap="round" stroke-linejoin="round"/>
<mask id="mask0_3582_2116" style="mask-type:luminance" maskUnits="userSpaceOnUse" x="3" y="26" width="26" height="22">
<path d="M27.9854 27.457V46.793H3.63574V27.457H27.9854Z" fill="white" stroke="white"/>
</mask>
<g mask="url(#mask0_3582_2116)">
<mask id="path-8-inside-1_3582_2116" fill="white">
<path d="M-0.114277 41.1637C-0.392849 41.9994 -1.22856 42.5566 -2.15714 42.5566L-4.10713 42.4637C-4.66428 42.4637 -5.12856 42.8351 -5.22142 43.3923L-5.31428 44.6923C-5.31428 45.2494 -4.94285 45.7137 -4.38571 45.8066L-2.43571 45.8994C-1.50713 45.9923 -0.764277 46.5494 -0.578563 47.478C-0.299992 48.2209 -0.0214205 49.0566 0.350008 49.7994C0.721437 50.6351 0.535723 51.5637 -0.114277 52.2137L-1.50713 53.5137C-1.97142 53.8851 -1.97142 54.5351 -1.59999 54.9066L-0.764277 55.928C-0.392849 56.3923 0.257151 56.3923 0.62858 56.0209L2.02144 54.7209C2.67144 54.1637 3.69287 54.0709 4.43572 54.5351C5.17858 54.9994 5.92144 55.3709 6.66429 55.6494C7.50001 55.928 8.05715 56.7637 8.05715 57.6923L7.96429 59.6423C7.96429 60.1994 8.33572 60.6637 8.89287 60.7566L10.1929 60.8494C10.75 60.8494 11.2143 60.478 11.3072 59.9209L11.4 57.9709C11.4929 57.0423 12.05 56.2994 12.9786 56.1137C13.8143 55.928 14.5571 55.6494 15.3 55.278C16.1357 54.9066 17.0643 55.0923 17.7143 55.7423L19.0143 57.1351C19.3857 57.5994 20.0357 57.5994 20.4072 57.228L21.4286 56.3923C21.8929 56.0209 21.8929 55.3709 21.5214 54.9994L20.2214 53.6066C19.9429 53.328 19.7572 52.9566 19.7572 52.5851H21.3357V48.4994C21.7072 47.8494 22.45 47.478 23.1929 47.5709L25.1429 47.6637C25.7 47.6637 26.1643 47.2923 26.2571 46.7351L26.35 45.4351C26.35 44.878 25.9786 44.4137 25.4214 44.3209L23.4714 44.228C22.5429 44.1351 21.8 43.578 21.6143 42.6494C21.4286 41.8137 21.15 41.0709 20.7786 40.328C20.4072 39.4923 20.5929 38.5637 21.2429 37.9137L22.6357 36.6137C23.1 36.2423 23.1 35.5923 22.7286 35.2209L21.8929 34.1994C21.5214 33.7351 20.8714 33.7352 20.5 34.1066L19.1072 35.4066C18.4572 35.9637 17.4357 36.0566 16.6929 35.5923C15.95 35.128 15.2072 34.7566 14.4643 34.478C13.6286 34.1994 13.0714 33.3637 13.0714 32.4351L13.1643 30.4851C13.1643 29.928 12.7929 29.4637 12.2357 29.3709L10.9357 29.278C10.3786 29.278 9.91429 29.6494 9.82144 30.2066L9.72858 32.1566C9.63572 33.0851 9.07858 33.828 8.15001 34.0137C7.31429 34.1994 6.57144 34.478 5.82858 34.8494C4.99287 35.2209 4.06429 35.0352 3.41429 34.3852L3.32144 34.1994V31.228C3.41429 31.3209 3.60001 31.4137 3.69287 31.5994L4.99287 32.9923C5.92144 32.528 6.85001 32.2494 7.77858 32.0637L7.87144 30.1137C7.96429 28.4423 9.45001 27.1423 11.1214 27.2352L12.4214 27.328C14.0929 27.4209 15.3929 28.9066 15.3 30.578L15.0214 32.3423C15.95 32.7137 16.8786 33.0852 17.7143 33.6423L19.1072 32.3423C20.4072 31.228 22.2643 31.3209 23.3786 32.6209L24.2143 33.6423C25.3286 34.9423 25.2357 36.7994 23.9357 37.9137L22.5429 39.2137C23.0072 40.1423 23.2857 41.0709 23.4714 41.9994L25.4214 42.0923C27.0929 42.1851 28.3929 43.6709 28.3 45.3423L28.2072 46.6423C28.1143 48.3137 26.6286 49.6137 24.9572 49.5209L23.0072 49.428C22.6357 50.3566 22.2643 51.2851 21.7072 52.1209L23.0072 53.5137C24.1214 54.8137 24.0286 56.6709 22.7286 57.7852L21.7072 58.6209C20.4072 59.7351 18.55 59.6423 17.4357 58.3423L16.1357 56.9494C15.2072 57.4137 14.2786 57.6923 13.35 57.878L13.2572 59.828C13.1643 61.4994 11.6786 62.7994 10.0072 62.7066L8.70715 62.6137C7.03572 62.5209 5.73572 61.0351 5.82858 59.3637L5.92144 57.4137C4.99287 57.0423 4.06429 56.6709 3.22858 56.1137L1.83572 57.4137C0.535723 58.528 -1.32142 58.4352 -2.43571 57.1351L-3.27142 56.1137C-4.38571 54.8137 -4.29285 52.9566 -2.99285 51.8423L-1.59999 50.5423C-2.06428 49.6137 -2.34285 48.6851 -2.52856 47.7566L-4.47856 47.6637C-6.14999 47.5709 -7.44999 46.0851 -7.35714 44.4137L-7.26428 43.1137C-7.17142 41.4423 -5.68571 40.1423 -4.01428 40.2351L-2.06428 40.328C-1.69285 39.3994 -1.32142 38.4709 -0.764277 37.6351L-2.06428 36.2423C-3.08571 35.128 -2.99285 33.2709 -1.78571 32.1566L-0.764277 31.3209C-0.207135 30.8566 0.442865 30.578 1.09286 30.578V32.6209C0.907151 32.6209 0.721437 32.7137 0.535722 32.8994L-0.485706 33.7351C-0.949992 34.1066 -0.949992 34.7566 -0.578563 35.128L0.721437 36.5209C0.907151 36.6137 1.00001 36.7994 1.09286 36.9851V38.6566C1.09286 38.7494 1.00001 38.8423 1.00001 38.9351C0.535722 39.678 0.164294 40.4209 -0.114277 41.1637ZM7.50001 48.3137C7.40715 48.2209 7.31429 48.128 7.12858 47.9423C5.45715 46.0851 5.64287 43.2066 7.50001 41.5351C9.35715 39.8637 12.2357 40.0494 13.9072 41.9066C15.5786 43.7637 15.3929 46.5494 13.5357 48.2209H16.1357C17.5286 45.8066 17.3429 42.7423 15.3929 40.5137C12.9786 37.8209 8.89287 37.5423 6.20001 39.9566C3.78572 42.0923 3.32144 45.528 4.90001 48.2209H7.50001V48.3137Z"/>
</mask>
<path d="M-0.114277 41.1637C-0.392849 41.9994 -1.22856 42.5566 -2.15714 42.5566L-4.10713 42.4637C-4.66428 42.4637 -5.12856 42.8351 -5.22142 43.3923L-5.31428 44.6923C-5.31428 45.2494 -4.94285 45.7137 -4.38571 45.8066L-2.43571 45.8994C-1.50713 45.9923 -0.764277 46.5494 -0.578563 47.478C-0.299992 48.2209 -0.0214205 49.0566 0.350008 49.7994C0.721437 50.6351 0.535723 51.5637 -0.114277 52.2137L-1.50713 53.5137C-1.97142 53.8851 -1.97142 54.5351 -1.59999 54.9066L-0.764277 55.928C-0.392849 56.3923 0.257151 56.3923 0.62858 56.0209L2.02144 54.7209C2.67144 54.1637 3.69287 54.0709 4.43572 54.5351C5.17858 54.9994 5.92144 55.3709 6.66429 55.6494C7.50001 55.928 8.05715 56.7637 8.05715 57.6923L7.96429 59.6423C7.96429 60.1994 8.33572 60.6637 8.89287 60.7566L10.1929 60.8494C10.75 60.8494 11.2143 60.478 11.3072 59.9209L11.4 57.9709C11.4929 57.0423 12.05 56.2994 12.9786 56.1137C13.8143 55.928 14.5571 55.6494 15.3 55.278C16.1357 54.9066 17.0643 55.0923 17.7143 55.7423L19.0143 57.1351C19.3857 57.5994 20.0357 57.5994 20.4072 57.228L21.4286 56.3923C21.8929 56.0209 21.8929 55.3709 21.5214 54.9994L20.2214 53.6066C19.9429 53.328 19.7572 52.9566 19.7572 52.5851H21.3357V48.4994C21.7072 47.8494 22.45 47.478 23.1929 47.5709L25.1429 47.6637C25.7 47.6637 26.1643 47.2923 26.2571 46.7351L26.35 45.4351C26.35 44.878 25.9786 44.4137 25.4214 44.3209L23.4714 44.228C22.5429 44.1351 21.8 43.578 21.6143 42.6494C21.4286 41.8137 21.15 41.0709 20.7786 40.328C20.4072 39.4923 20.5929 38.5637 21.2429 37.9137L22.6357 36.6137C23.1 36.2423 23.1 35.5923 22.7286 35.2209L21.8929 34.1994C21.5214 33.7351 20.8714 33.7352 20.5 34.1066L19.1072 35.4066C18.4572 35.9637 17.4357 36.0566 16.6929 35.5923C15.95 35.128 15.2072 34.7566 14.4643 34.478C13.6286 34.1994 13.0714 33.3637 13.0714 32.4351L13.1643 30.4851C13.1643 29.928 12.7929 29.4637 12.2357 29.3709L10.9357 29.278C10.3786 29.278 9.91429 29.6494 9.82144 30.2066L9.72858 32.1566C9.63572 33.0851 9.07858 33.828 8.15001 34.0137C7.31429 34.1994 6.57144 34.478 5.82858 34.8494C4.99287 35.2209 4.06429 35.0352 3.41429 34.3852L3.32144 34.1994V31.228C3.41429 31.3209 3.60001 31.4137 3.69287 31.5994L4.99287 32.9923C5.92144 32.528 6.85001 32.2494 7.77858 32.0637L7.87144 30.1137C7.96429 28.4423 9.45001 27.1423 11.1214 27.2352L12.4214 27.328C14.0929 27.4209 15.3929 28.9066 15.3 30.578L15.0214 32.3423C15.95 32.7137 16.8786 33.0852 17.7143 33.6423L19.1072 32.3423C20.4072 31.228 22.2643 31.3209 23.3786 32.6209L24.2143 33.6423C25.3286 34.9423 25.2357 36.7994 23.9357 37.9137L22.5429 39.2137C23.0072 40.1423 23.2857 41.0709 23.4714 41.9994L25.4214 42.0923C27.0929 42.1851 28.3929 43.6709 28.3 45.3423L28.2072 46.6423C28.1143 48.3137 26.6286 49.6137 24.9572 49.5209L23.0072 49.428C22.6357 50.3566 22.2643 51.2851 21.7072 52.1209L23.0072 53.5137C24.1214 54.8137 24.0286 56.6709 22.7286 57.7852L21.7072 58.6209C20.4072 59.7351 18.55 59.6423 17.4357 58.3423L16.1357 56.9494C15.2072 57.4137 14.2786 57.6923 13.35 57.878L13.2572 59.828C13.1643 61.4994 11.6786 62.7994 10.0072 62.7066L8.70715 62.6137C7.03572 62.5209 5.73572 61.0351 5.82858 59.3637L5.92144 57.4137C4.99287 57.0423 4.06429 56.6709 3.22858 56.1137L1.83572 57.4137C0.535723 58.528 -1.32142 58.4352 -2.43571 57.1351L-3.27142 56.1137C-4.38571 54.8137 -4.29285 52.9566 -2.99285 51.8423L-1.59999 50.5423C-2.06428 49.6137 -2.34285 48.6851 -2.52856 47.7566L-4.47856 47.6637C-6.14999 47.5709 -7.44999 46.0851 -7.35714 44.4137L-7.26428 43.1137C-7.17142 41.4423 -5.68571 40.1423 -4.01428 40.2351L-2.06428 40.328C-1.69285 39.3994 -1.32142 38.4709 -0.764277 37.6351L-2.06428 36.2423C-3.08571 35.128 -2.99285 33.2709 -1.78571 32.1566L-0.764277 31.3209C-0.207135 30.8566 0.442865 30.578 1.09286 30.578V32.6209C0.907151 32.6209 0.721437 32.7137 0.535722 32.8994L-0.485706 33.7351C-0.949992 34.1066 -0.949992 34.7566 -0.578563 35.128L0.721437 36.5209C0.907151 36.6137 1.00001 36.7994 1.09286 36.9851V38.6566C1.09286 38.7494 1.00001 38.8423 1.00001 38.9351C0.535722 39.678 0.164294 40.4209 -0.114277 41.1637ZM7.50001 48.3137C7.40715 48.2209 7.31429 48.128 7.12858 47.9423C5.45715 46.0851 5.64287 43.2066 7.50001 41.5351C9.35715 39.8637 12.2357 40.0494 13.9072 41.9066C15.5786 43.7637 15.3929 46.5494 13.5357 48.2209H16.1357C17.5286 45.8066 17.3429 42.7423 15.3929 40.5137C12.9786 37.8209 8.89287 37.5423 6.20001 39.9566C3.78572 42.0923 3.32144 45.528 4.90001 48.2209H7.50001V48.3137Z" fill="#08526D" stroke="#08526D" stroke-width="2" mask="url(#path-8-inside-1_3582_2116)"/>
</g>
</g>
<defs>
<linearGradient id="paint0_linear_3582_2116" x1="21.9065" y1="47.6999" x2="21.9065" y2="30.5072" gradientUnits="userSpaceOnUse">
<stop stop-color="#ADE3F6"/>
<stop offset="0.01" stop-color="#ADE3F6" stop-opacity="0.98"/>
<stop offset="0.635" stop-color="#ADE3F6" stop-opacity="0.28"/>
<stop offset="0.9925" stop-color="#ADE3F6" stop-opacity="0"/>
</linearGradient>
<clipPath id="clip0_3582_2116">
<rect width="52" height="52" fill="white"/>
</clipPath>
</defs>
</svg>
