<svg width="52" height="52" viewBox="0 0 52 52" fill="none" xmlns="http://www.w3.org/2000/svg">
<g clip-path="url(#clip0_3582_3209)">
<path d="M21.4286 7.87143V1H2.67143C1.74286 1 1 1.74286 1 2.67143V21.4286H7.87143C7.87143 19.5714 9.35714 18.0857 11.2143 18.0857C13.0714 18.0857 14.5571 19.5714 14.5571 21.4286H21.4286V14.5571C23.2857 14.5571 24.7714 13.0714 24.7714 11.2143C24.7714 9.35714 23.2857 7.87143 21.4286 7.87143Z" fill="url(#paint0_linear_3582_3209)"/>
<path d="M15.2073 49.0073C21.9254 49.0073 27.3715 43.5611 27.3715 36.843C27.3715 30.1248 21.9254 24.6787 15.2073 24.6787C8.4891 24.6787 3.04297 30.1248 3.04297 36.843C3.04297 43.5611 8.4891 49.0073 15.2073 49.0073Z" fill="#ADE3F6"/>
<path d="M30.7142 37.5854V30.7139H23.8428C23.8428 28.8568 22.3571 27.3711 20.4999 27.3711C18.6428 27.3711 17.1571 28.8568 17.1571 30.7139H10.2856V49.4711C10.2856 50.3997 11.0285 51.1425 11.9571 51.1425H30.7142V44.2711C28.8571 44.2711 27.3714 42.7854 27.3714 40.9282C27.3714 39.0711 28.8571 37.5854 30.7142 37.5854Z" stroke="#08526D" stroke-width="2" stroke-linecap="round" stroke-linejoin="round"/>
<path d="M43.8999 30.7139C43.8999 32.571 42.4142 34.0567 40.5571 34.0567C38.6999 34.0567 37.2142 32.571 37.2142 30.7139H30.7142V37.5853C28.8571 37.5853 27.3713 39.071 27.3713 40.9282C27.3713 42.7853 28.8571 44.271 30.7142 44.271V51.1424H49.4713C50.3999 51.1424 51.1428 50.3996 51.1428 49.471V30.7139H43.8999Z" stroke="#08526D" stroke-width="2" stroke-linecap="round" stroke-linejoin="round"/>
<path d="M49.4715 10.1924H30.7144V17.0638C32.5715 17.0638 34.0572 18.5495 34.0572 20.4067C34.0572 22.2638 32.5715 23.7495 30.7144 23.7495V30.621H37.2144C37.2144 32.4781 38.7001 33.9638 40.5572 33.9638C42.4144 33.9638 43.9001 32.4781 43.9001 30.621H51.1429V11.8638C51.1429 10.9352 50.4001 10.1924 49.4715 10.1924Z" stroke="#08526D" stroke-width="2" stroke-linecap="round" stroke-linejoin="round"/>
<path d="M21.4286 7.87143V1H2.67143C1.74286 1 1 1.74286 1 2.67143V21.4286H7.87143C7.87143 19.5714 9.35714 18.0857 11.2143 18.0857C13.0714 18.0857 14.5571 19.5714 14.5571 21.4286H21.4286V14.5571C23.2857 14.5571 24.7714 13.0714 24.7714 11.2143C24.7714 9.35714 23.2857 7.87143 21.4286 7.87143Z" stroke="#08526D" stroke-width="2" stroke-linecap="round" stroke-linejoin="round"/>
</g>
<defs>
<linearGradient id="paint0_linear_3582_3209" x1="12.9084" y1="20.4536" x2="12.9084" y2="7.91786" gradientUnits="userSpaceOnUse">
<stop stop-color="#ADE3F6"/>
<stop offset="1" stop-color="#ADE3F6" stop-opacity="0"/>
</linearGradient>
<clipPath id="clip0_3582_3209">
<rect width="52" height="52" fill="white"/>
</clipPath>
</defs>
</svg>
