<svg width="52" height="52" viewBox="0 0 52 52" fill="none" xmlns="http://www.w3.org/2000/svg">
<g clip-path="url(#clip0_3582_3224)">
<path d="M39.8357 28.4135C46.5538 28.4135 52 22.9674 52 16.2492C52 9.5311 46.5538 4.08496 39.8357 4.08496C33.1175 4.08496 27.6714 9.5311 27.6714 16.2492C27.6714 22.9674 33.1175 28.4135 39.8357 28.4135Z" fill="#ADE3F6"/>
<path d="M38.6285 24.5133C38.6285 17.5491 32.9642 11.8848 25.9999 11.8848C19.0356 11.8848 13.3713 17.5491 13.3713 24.5133C13.3713 30.2705 17.2713 35.1919 22.5642 36.6776L26.0928 40.4848L29.6213 36.6776C34.8213 35.0991 38.6285 30.2705 38.6285 24.5133Z" fill="#ADE3F6"/>
<path d="M3.71418 31.0141H7.42847V18.6641H3.71418C2.13561 18.6641 0.928467 19.9641 0.928467 21.4498V28.1355C0.928467 29.7141 2.22847 31.0141 3.71418 31.0141Z" stroke="#08526D" stroke-width="2" stroke-linecap="round" stroke-linejoin="round"/>
<path d="M48.2856 18.6641H44.5713V31.0141H48.2856C49.8641 31.0141 51.0713 29.7141 51.0713 28.2283V21.5426C51.0713 19.9641 49.7713 18.6641 48.2856 18.6641Z" stroke="#08526D" stroke-width="2" stroke-linecap="round" stroke-linejoin="round"/>
<path d="M46.8 30.9209C44.2929 38.9066 37.4214 44.8495 28.9714 46.0566" stroke="#08526D" stroke-width="2" stroke-linecap="round" stroke-linejoin="round"/>
<path d="M4.92139 18.6638C7.52139 9.47096 15.9714 2.69238 26 2.69238C36.0285 2.69238 44.4785 9.47096 47.0785 18.7567" stroke="#08526D" stroke-width="2" stroke-linecap="round" stroke-linejoin="round"/>
<path d="M25.9998 49.3991C27.6922 49.3991 29.0641 48.0272 29.0641 46.3348C29.0641 44.6424 27.6922 43.2705 25.9998 43.2705C24.3075 43.2705 22.9355 44.6424 22.9355 46.3348C22.9355 48.0272 24.3075 49.3991 25.9998 49.3991Z" stroke="#08526D" stroke-width="2" stroke-linecap="round" stroke-linejoin="round"/>
<path d="M38.6285 24.5133C38.6285 17.5491 32.9642 11.8848 25.9999 11.8848C19.0356 11.8848 13.3713 17.5491 13.3713 24.5133C13.3713 30.2705 17.2713 35.1919 22.5642 36.6776L26.0928 40.4848L29.6213 36.6776C34.8213 35.0991 38.6285 30.2705 38.6285 24.5133Z" stroke="#08526D" stroke-width="2" stroke-linecap="round" stroke-linejoin="round"/>
<path d="M19.8713 24.5137H32.1285" stroke="#08526D" stroke-width="2" stroke-linecap="round" stroke-linejoin="round"/>
<path d="M22.3784 19.0352H29.6213" stroke="#08526D" stroke-width="2" stroke-linecap="round" stroke-linejoin="round"/>
<path d="M22.3784 29.8994H29.6213" stroke="#08526D" stroke-width="2" stroke-linecap="round" stroke-linejoin="round"/>
</g>
<defs>
<clipPath id="clip0_3582_3224">
<rect width="52" height="52" fill="white"/>
</clipPath>
</defs>
</svg>
