<svg width="52" height="52" viewBox="0 0 52 52" fill="none" xmlns="http://www.w3.org/2000/svg">
<path d="M17.3642 24.5141C24.0824 24.5141 29.5285 19.068 29.5285 12.3498C29.5285 5.63168 24.0824 0.185547 17.3642 0.185547C10.6461 0.185547 5.19995 5.63168 5.19995 12.3498C5.19995 19.068 10.6461 24.5141 17.3642 24.5141Z" fill="#ADE3F6"/>
<path d="M18.5715 39.4642L39.4644 18.5713C42.1572 19.2213 45.1286 18.4785 47.2644 16.4356C49.5858 14.1142 50.2358 10.6785 49.2144 7.79992L43.9215 12.9999L40.8572 11.1428L39.0001 8.17135L44.2929 2.78563C41.4144 1.67135 37.9786 2.32135 35.6572 4.73563C33.5215 6.87135 32.7786 9.84278 33.5215 12.5356L12.5358 33.4285C9.84292 32.7785 6.8715 33.5213 4.73578 35.5642C2.41435 37.8856 1.76435 41.3213 2.78578 44.1999L8.07864 38.9999L11.0501 40.8571L12.9072 43.8285L7.70721 49.2142C10.5858 50.3285 14.0215 49.6785 16.3429 47.2642C18.4786 45.1285 19.2215 42.1571 18.5715 39.4642Z" stroke="#08526D" stroke-width="2"/>
<path d="M47.6409 43.0557C48.4008 43.896 48.3767 45.1663 47.6536 45.8896L45.9006 47.6416C45.113 48.3532 43.9487 48.3773 43.2102 47.7822L43.0676 47.6543L27.0764 31.5732L31.5725 27.0771L47.6409 43.0557Z" fill="url(#paint0_linear_3582_154)" stroke="#08526D"/>
<path d="M48.0071 42.7149L31.5713 26.3721L26.3713 31.5721L42.7142 48.0078C43.6428 48.9364 45.2213 48.9364 46.2428 48.0078L48.0071 46.2435C48.9356 45.3149 48.9356 43.7364 48.0071 42.7149Z" stroke="#08526D" stroke-width="2"/>
<path d="M17.9214 14.2074L13.9286 10.2145L12.5357 6.68597L6.68572 2.97168L4.82858 4.82882L2.97144 6.68597L6.68572 12.536L10.2143 13.9288L14.2071 17.9217L21.1714 24.886L24.8857 21.1717L17.9214 14.2074Z" stroke="#08526D" stroke-width="2"/>
<defs>
<linearGradient id="paint0_linear_3582_154" x1="46.932" y1="46.9328" x2="28.3752" y2="28.3759" gradientUnits="userSpaceOnUse">
<stop stop-color="#ADE3F6"/>
<stop offset="0.01" stop-color="#ADE3F6" stop-opacity="0.98"/>
<stop offset="0.644" stop-color="#ADE3F6" stop-opacity="0.28"/>
<stop offset="0.79" stop-color="#FFEADE" stop-opacity="0.247059"/>
</linearGradient>
</defs>
</svg>
