<svg width="70" height="70" viewBox="0 0 70 70" fill="none" xmlns="http://www.w3.org/2000/svg">
<rect width="70" height="70" rx="35" fill="white"/>
<mask id="mask0_4218_1423" style="mask-type:alpha" maskUnits="userSpaceOnUse" x="5" y="5" width="60" height="60">
<rect x="5" y="5" width="60" height="60" fill="#D9D9D9"/>
</mask>
<g mask="url(#mask0_4218_1423)">
<path d="M32.4395 59.875C29.2728 59.5417 26.3249 58.6562 23.5957 57.2188C20.8665 55.7813 18.502 53.9479 16.502 51.7188C14.502 49.4896 12.929 46.9375 11.7832 44.0625C10.6374 41.1875 10.0645 38.1458 10.0645 34.9375C10.0645 28.4792 12.1999 22.8854 16.4707 18.1562C20.7415 13.4271 26.0853 10.7083 32.502 10V15C27.4603 15.7083 23.2936 17.9479 20.002 21.7188C16.7103 25.4896 15.0645 29.8958 15.0645 34.9375C15.0645 39.9792 16.7103 44.3854 20.002 48.1562C23.2936 51.9271 27.4395 54.1667 32.4395 54.875V59.875ZM34.9395 47.5L22.377 34.875L25.9395 31.3125L32.4395 37.8125V22.5H37.4395V37.8125L43.877 31.375L47.4395 35L34.9395 47.5ZM37.4395 59.875V54.875C39.2311 54.625 40.9499 54.1458 42.5957 53.4375C44.2415 52.7292 45.7728 51.8333 47.1895 50.75L50.8145 54.375C48.8561 55.9167 46.752 57.1563 44.502 58.0938C42.252 59.0313 39.8978 59.625 37.4395 59.875ZM47.3145 19.125C45.8561 18.0417 44.304 17.1458 42.6582 16.4375C41.0124 15.7292 39.2936 15.25 37.502 15V10C39.9603 10.25 42.3145 10.8438 44.5645 11.7813C46.8145 12.7188 48.8978 13.9583 50.8145 15.5L47.3145 19.125ZM54.3145 50.75L50.8145 47.1875C51.8978 45.7708 52.7728 44.2396 53.4395 42.5938C54.1061 40.9479 54.5645 39.2292 54.8145 37.4375H59.9395C59.6061 39.8958 58.9811 42.2604 58.0645 44.5312C57.1478 46.8021 55.8978 48.875 54.3145 50.75ZM54.8145 32.4375C54.5645 30.6458 54.1061 28.9271 53.4395 27.2812C52.7728 25.6354 51.8978 24.1042 50.8145 22.6875L54.3145 19.125C55.8978 21 57.1686 23.0729 58.127 25.3438C59.0853 27.6146 59.6895 29.9792 59.9395 32.4375H54.8145Z" fill="url(#paint0_linear_4218_1423)"/>
</g>
<defs>
<linearGradient id="paint0_linear_4218_1423" x1="34.9653" y1="14.7905" x2="41.4073" y2="54.2883" gradientUnits="userSpaceOnUse">
<stop stop-color="#00A5E3"/>
<stop offset="0.5" stop-color="#373188"/>
<stop offset="1" stop-color="#FD0026"/>
</linearGradient>
</defs>
</svg>
