<svg width="40" height="40" viewBox="0 0 40 40" fill="none" xmlns="http://www.w3.org/2000/svg">
<path d="M37.1429 27.9996H35.4286V6.85672C35.4286 6.22644 34.916 5.71387 34.2857 5.71387H5.71429C5.08401 5.71387 4.57144 6.22644 4.57144 6.85672V27.9996H2.85715C2.22687 27.9996 1.71429 28.5122 1.71429 29.1424C1.71429 31.9779 4.02115 34.2853 6.85715 34.2853H33.1429C35.9789 34.2853 38.2857 31.9779 38.2857 29.1424C38.2857 28.5122 37.7732 27.9996 37.1429 27.9996ZM5.71429 6.85672L34.2857 6.85615V27.9996H5.71429V6.85672ZM37.1429 29.1424C37.1429 31.3482 35.3486 33.1424 33.1429 33.1424H6.85715C4.65144 33.1424 2.85715 31.3482 2.85715 29.1424H34.8572L34.8612 29.1419L37.1429 29.1424Z" fill="#32B9E9"/>
<path d="M25.5414 25.0713C25.4315 25.1591 25.2941 25.2138 25.143 25.2139H14.8569C14.706 25.2138 14.5692 25.1588 14.4594 25.0713H25.5414ZM20.0004 9.64258C21.9298 9.64281 23.5004 11.2131 23.5004 13.1426V14.7852H25.7143C25.7332 14.7852 25.7517 14.7932 25.7651 14.8066C25.7782 14.8199 25.7855 14.8378 25.7856 14.8564V24.5713C25.7856 24.7224 25.7308 24.8598 25.643 24.9697V14.9287H23.5004V17.1426C23.5004 17.1615 23.4923 17.18 23.4789 17.1934C23.4656 17.2066 23.447 17.2139 23.4282 17.2139C23.4095 17.2138 23.3916 17.2065 23.3784 17.1934C23.365 17.18 23.3569 17.1615 23.3569 17.1426V14.9287H16.643V17.1426C16.643 17.1615 16.6349 17.18 16.6215 17.1934C16.6082 17.2065 16.5904 17.2138 16.5717 17.2139C16.5528 17.2139 16.5343 17.2067 16.5209 17.1934C16.5075 17.18 16.5004 17.1615 16.5004 17.1426V14.9287H14.3569V24.9697C14.2691 24.8598 14.2143 24.7224 14.2143 24.5713V14.8564C14.2144 14.8378 14.2217 14.8199 14.2348 14.8066C14.2482 14.7933 14.2667 14.7852 14.2856 14.7852H16.5004V13.1426C16.5004 11.213 18.0709 9.64258 20.0004 9.64258ZM20.0004 9.78516C18.1489 9.78516 16.643 11.291 16.643 13.1426V14.7852H23.3569V13.1426C23.3569 11.2911 21.8518 9.78538 20.0004 9.78516Z" fill="#EAF8FD" stroke="#32B9E9"/>
</svg>
