<svg width="60" height="60" viewBox="0 0 60 60" fill="none" xmlns="http://www.w3.org/2000/svg">
<path d="M57.96 6.72H17.28L16.56 1.8C16.44 0.72 15.48 0 14.52 0H2.16C0.959999 0 0 0.959999 0 2.16C0 3.36 0.959999 4.32 2.16 4.32H12.72L17.16 33.6L15.72 36.6C14.28 39.36 15.48 42.72 18.24 44.16C19.08 44.52 19.92 44.76 20.76 44.76H53.88C55.08 44.76 56.04 43.8 56.04 42.6C56.04 41.4 55.08 40.44 53.88 40.44H20.76C19.92 40.44 19.32 39.84 19.32 39C19.32 38.76 19.32 38.52 19.44 38.4L21.12 34.8C21.24 34.56 21.36 34.2 21.36 33.84H52.32C54.12 33.84 55.68 32.52 56.04 30.6L59.52 8.4C59.64 7.56 59.04 6.72 58.2 6.6C58.08 6.72 58.08 6.72 57.96 6.72Z" fill="#FDB4B4"/>
<path d="M23.2799 60.0002C25.9971 60.0002 28.1999 57.7974 28.1999 55.0802C28.1999 52.3629 25.9971 50.1602 23.2799 50.1602C20.5626 50.1602 18.3599 52.3629 18.3599 55.0802C18.3599 57.7974 20.5626 60.0002 23.2799 60.0002Z" fill="#FE7471"/>
<path d="M48.6002 60.0002C51.3174 60.0002 53.5202 57.7974 53.5202 55.0802C53.5202 52.3629 51.3174 50.1602 48.6002 50.1602C45.8829 50.1602 43.6802 52.3629 43.6802 55.0802C43.6802 57.7974 45.8829 60.0002 48.6002 60.0002Z" fill="#FE7471"/>
</svg>
