<svg width="56" height="60" viewBox="0 0 56 60" fill="none" xmlns="http://www.w3.org/2000/svg">
<path d="M53.04 52.3501H2.4C1.08 52.3501 0 53.4301 0 54.7501V57.3901C0 58.7101 1.08 59.7901 2.4 59.7901H53.16C54.48 59.7901 55.56 58.7101 55.56 57.3901V54.7501C55.44 53.4301 54.36 52.3501 53.04 52.3501Z" fill="#93C9F8"/>
<path d="M54.12 12.15L28.8 0.27C28.2 -0.09 27.36 -0.09 26.76 0.27L1.44 12.15C0.599996 12.51 0 13.35 0 14.31V17.79C0 19.11 1.08 20.19 2.4 20.19H53.16C54.48 20.19 55.56 19.11 55.56 17.79V14.31C55.44 13.47 54.96 12.63 54.12 12.15Z" fill="#93C9F8"/>
<path d="M30.4801 48.75H24.9601C23.6401 48.75 22.5601 47.67 22.5601 46.35V26.19C22.5601 24.87 23.6401 23.79 24.9601 23.79H30.4801C31.8001 23.79 32.8801 24.87 32.8801 26.19V46.35C32.8801 47.67 31.8001 48.75 30.4801 48.75Z" fill="#56A3F3"/>
<path d="M13.0799 48.75H7.55991C6.23991 48.75 5.15991 47.67 5.15991 46.35V26.19C5.15991 24.87 6.23991 23.79 7.55991 23.79H13.0799C14.3999 23.79 15.4799 24.87 15.4799 26.19V46.35C15.4799 47.67 14.3999 48.75 13.0799 48.75Z" fill="#56A3F3"/>
<path d="M47.88 48.75H42.36C41.04 48.75 39.96 47.67 39.96 46.35V26.19C39.96 24.87 41.04 23.79 42.36 23.79H47.88C49.2 23.79 50.28 24.87 50.28 26.19V46.35C50.28 47.67 49.2 48.75 47.88 48.75Z" fill="#56A3F3"/>
</svg>
