<svg width="60" height="55" viewBox="0 0 60 55" fill="none" xmlns="http://www.w3.org/2000/svg">
<path d="M15.9524 27.8571L22.0238 13.5714C22.381 12.8571 23.0952 12.381 23.8095 12.5C24.6429 12.5 25.2381 13.0952 25.4762 13.8095L31.1905 33.6905L35.3571 24.5238C35.5952 23.9286 36.1905 23.4524 36.9048 23.4524C37.619 23.3333 38.2143 23.6905 38.5714 24.1667L41.1905 27.7381H56.4286C58.5714 24.6429 59.5238 21.7857 59.5238 17.9762C59.5238 9.04762 52.381 0 42.8571 0C33.3333 0 29.7619 5.11905 29.7619 5.11905C29.7619 5.11905 26.1905 0 16.6667 0C7.14286 0 0 8.92857 0 17.9762C0 21.7857 0.952379 24.6429 3.09524 27.7381H15.9524V27.8571Z" fill="#17C963"/>
<path d="M40.2381 31.5475C39.6428 31.5475 39.0476 31.3094 38.6904 30.8332L37.3809 29.0475L32.5 39.8809C32.1428 40.5951 31.5476 40.9523 30.8333 40.9523H30.7142C30 40.9523 29.2857 40.357 29.0476 39.6428L23.3333 19.8809L18.8095 30.4761C18.5714 31.1904 17.8571 31.5475 17.1428 31.5475H6.19043C10.9523 36.7856 18.5714 43.2142 29.8809 54.9999C41.0714 43.2142 48.8095 36.7856 53.5714 31.5475H40.2381Z" fill="#7EED9B"/>
</svg>
