<svg width="40" height="40" viewBox="0 0 40 40" fill="none" xmlns="http://www.w3.org/2000/svg">
<path d="M37.2431 11.6751C35.7228 11.6751 34.4862 12.9274 34.4862 14.467V22.0492C34.002 21.7218 33.4311 21.5518 32.8356 21.5629C32.0446 21.5777 31.3123 21.9091 30.7739 22.4964L22.9584 31.0198C22.1173 31.9371 21.6541 33.1315 21.6541 34.3832V39.2386C21.6541 39.6589 21.991 40 22.406 40H32.0301C32.4451 40 32.782 39.6589 32.782 39.2386V37.0558L38.9373 28.7442C39.6226 27.8188 40 26.6726 40 25.5162V14.467C40 12.9274 38.7634 11.6751 37.2431 11.6751ZM38.4962 25.5162C38.4962 26.3452 38.2256 27.1675 37.7343 27.8305L31.4286 36.3452C31.3308 36.4772 31.2782 36.6371 31.2782 36.802V38.4772H23.1579V34.3832C23.1579 33.5173 23.4787 32.6904 24.0607 32.0558L31.8762 23.5325C32.1343 23.2513 32.4847 23.0924 32.8637 23.0853C33.2426 23.0797 33.599 23.2239 33.8672 23.4949L34.0857 23.7162C34.3293 23.9629 34.4637 24.2812 34.4867 24.6066V24.6193H34.4877C34.5098 24.9797 34.3955 25.3477 34.1419 25.6365L29.0622 31.4228L30.186 32.4345L35.2647 26.6482C35.7825 26.0584 36.0226 25.3107 35.9895 24.5746V14.467C35.9895 13.767 36.5514 13.198 37.2426 13.198C37.9338 13.198 38.4957 13.767 38.4957 14.467V25.5162H38.4962ZM9.22606 22.4964C8.68772 21.9091 7.95539 21.5777 7.16441 21.5629C6.56892 21.5528 5.99799 21.7218 5.51378 22.0492V14.467C5.51378 12.9274 4.27719 11.6751 2.75689 11.6751C1.23659 11.6751 0 12.9274 0 14.467V25.5162C0 26.6726 0.377443 27.8193 1.06266 28.7442L7.21804 37.0558V39.2386C7.21804 39.6589 7.55489 40 7.96992 40H17.594C18.009 40 18.3459 39.6589 18.3459 39.2386V34.3832C18.3459 33.1315 17.8827 31.9371 17.0416 31.0193L9.22606 22.4964ZM16.8421 38.4772H8.7218V36.802C8.7218 36.6371 8.66917 36.4772 8.57143 36.3452L2.26566 27.8305C1.77444 27.1675 1.50376 26.3452 1.50376 25.5162V14.467C1.50376 13.767 2.06566 13.198 2.75689 13.198C3.44812 13.198 4.01003 13.767 4.01003 14.467V24.5751C3.97744 25.3112 4.21754 26.0589 4.73484 26.6487L9.81353 32.435L10.9373 31.4233L5.85915 25.6371C5.60551 25.3482 5.49073 24.9797 5.51328 24.6193L5.51429 24.6066C5.53734 24.2812 5.67118 23.9629 5.91529 23.7162L6.13383 23.4949C6.402 23.2233 6.7584 23.0777 7.13734 23.0853C7.51629 23.0924 7.86717 23.2513 8.12481 23.5325L15.9393 32.0558C16.5213 32.6904 16.8421 33.5173 16.8421 34.3832V38.4772ZM31.1729 2.12183C29.8812 0.7533 28.1629 0 26.3343 0C24.5058 0 22.7875 0.753807 21.4957 2.12183L20 3.70609L18.5043 2.12183C17.2125 0.7533 15.4942 0 13.6657 0C11.8371 0 10.1188 0.753807 8.82707 2.12183C6.16742 4.93909 6.16742 9.52234 8.82707 12.3396L19.819 23.9827C19.8662 24.033 19.9318 24.0609 20 24.0609C20.0682 24.0609 20.1338 24.0325 20.181 23.9827L31.1729 12.3396C33.8326 9.52234 33.8326 4.93909 31.1729 2.12183ZM24.7003 12.7401H21.1013V16.3848H18.8977V12.7401H15.2987V10.5086H18.8977V6.86396H21.1013V10.5086H24.7003V12.7401Z" fill="#32B9E9"/>
</svg>
