<svg width="62" height="62" viewBox="0 0 62 62" fill="none" xmlns="http://www.w3.org/2000/svg">
<path d="M0 20C0 10.5719 0 5.85786 2.92893 2.92893C5.85786 0 10.5719 0 20 0H41.0178C50.4459 0 55.1599 0 58.0888 2.92893C61.0178 5.85786 61.0178 10.5719 61.0178 20V41.0178C61.0178 50.4459 61.0178 55.1599 58.0888 58.0888C55.1599 61.0178 50.4459 61.0178 41.0178 61.0178H20C10.5719 61.0178 5.85786 61.0178 2.92893 58.0888C0 55.1599 0 50.4459 0 41.0178V20Z" fill="#EAF8FD"/>
<g clip-path="url(#clip0_4683_7714)">
<path d="M35.9828 25.3525H25.1338C22.9247 25.3525 21.1338 27.1434 21.1338 29.3525V36.6215C21.1338 37.7865 22.0782 38.7309 23.2432 38.7309H28.8682H30.8952C31.5879 38.7309 32.1494 39.2925 32.1494 39.9851V40.6534C32.1494 40.977 31.8871 41.2394 31.5635 41.2394C31.2399 41.2394 30.9775 41.5017 30.9775 41.8253V42.8834C30.9775 43.8083 31.7402 44.5512 32.6648 44.5269L38.8737 44.3635C39.4358 44.3487 39.8838 43.8888 39.8838 43.3265C39.8838 43.2195 39.8672 43.1132 39.8347 43.0112L39.399 41.6451C39.2546 41.1924 39.192 40.7176 39.2142 40.243L39.415 35.9438L39.9673 29.7052C40.1743 27.366 38.3312 25.3525 35.9828 25.3525Z" fill="url(#paint0_linear_4683_7714)"/>
<mask id="path-3-inside-1_4683_7714" fill="white">
<path d="M32.9687 15.9375C33.8623 15.9375 34.6106 16.6629 34.6107 17.579V27.0378L34.629 27.058L34.6414 27.0717L34.6423 27.0726L34.6551 27.0863L34.6565 27.0882L39.0963 31.7084C39.73 32.3929 40.0743 33.2866 40.0279 34.2082L40.0123 34.4L40.0118 34.4055L39.3769 40.8801L39.3696 40.9575H39.8361L39.8864 40.9593C40.0909 40.9803 40.2695 41.137 40.3245 41.3516L40.3341 41.3988L40.3405 41.4519V44.6091C40.3405 44.869 40.1285 45.081 39.8686 45.081H31.0488C30.7889 45.081 30.5769 44.869 30.5769 44.6091V41.4294C30.5769 41.1695 30.7889 40.9575 31.0488 40.9575H31.6572V39.321H22.3486C21.5362 39.3209 20.8443 38.7212 20.7253 37.9239L20.7157 37.8465L20.7098 37.7664L20.707 37.6758V17.579C20.7071 16.6816 21.4364 15.9375 22.3188 15.9375H32.9687ZM31.4906 41.9009V44.1376H39.3669V41.9009H31.4906ZM34.6107 34.3195L34.6089 34.3538C34.596 34.5053 34.5003 34.6489 34.3672 34.7241L34.3022 34.7534C34.2326 34.7765 34.2004 34.7855 34.1804 34.7887L34.1648 34.79C34.0519 34.7892 33.9398 34.7566 33.854 34.6957L33.8188 34.6678L33.778 34.6262L30.3338 30.7031C30.186 30.5176 29.9846 30.4454 29.844 30.4216L29.8412 30.4211L29.7886 30.4143L29.784 30.4134H29.7776L29.7346 30.4115L29.7286 30.4111C29.6018 30.4111 29.3263 30.4601 29.134 30.6912C28.9226 30.9131 28.8508 31.2467 28.9893 31.5427L29.02 31.6017L32.5132 38.112C32.5564 38.2226 32.5704 38.2885 32.5704 38.3693V40.9877H38.4596L38.466 40.9241L38.4742 40.8398L39.1256 34.2984C39.1926 33.6272 38.9767 32.9538 38.5323 32.455L38.5296 32.4518L38.5269 32.449L38.4435 32.3611L38.4431 32.3602L34.732 28.5068L34.6107 28.3813V34.3195ZM22.3486 16.881C22.0068 16.8811 21.6506 17.1521 21.6505 17.579V37.6794C21.6505 37.8627 21.7138 38.0372 21.84 38.1725C21.963 38.3042 22.1237 38.3756 22.2831 38.4023L22.3051 38.4059L22.3087 38.4064L22.3129 38.4068L22.3165 38.4073H31.5931L31.5368 38.3034L31.4997 38.2347L28.2263 32.0732L28.2231 32.0663L28.2226 32.0654L28.1594 31.9368C27.8939 31.3303 28.0046 30.613 28.4382 30.1099L28.4387 30.1103C28.7863 29.7135 29.2486 29.4979 29.757 29.4974L29.8582 29.4997C30.3388 29.5231 30.7605 29.7178 31.0786 30.081L33.4915 32.8336L33.5734 32.9274L33.697 33.0684V17.579C33.6968 17.2373 33.4259 16.881 32.9989 16.881H31.3706V18.029C31.3706 18.7947 30.743 19.4009 29.9987 19.4009H25.3488C24.5831 19.4009 23.9768 18.7733 23.9768 18.029V16.881H22.3486ZM24.8905 16.881V18.029C24.8905 18.1057 24.9107 18.1905 24.9619 18.2675C25.0111 18.3411 25.0738 18.3864 25.1254 18.4122C25.1753 18.4371 25.2207 18.4469 25.2485 18.4515C25.2622 18.4538 25.2764 18.4557 25.2892 18.4566C25.2937 18.4569 25.2982 18.457 25.3011 18.457C25.3027 18.4571 25.3043 18.4575 25.3053 18.4575H29.969C30.0457 18.4574 30.1303 18.4371 30.207 18.3861C30.2805 18.337 30.3259 18.2742 30.3517 18.2227C30.3766 18.1727 30.3864 18.1273 30.391 18.0995C30.3933 18.0858 30.3951 18.0716 30.3961 18.0588C30.3964 18.0544 30.3964 18.0499 30.3965 18.0469C30.3966 18.0453 30.397 18.0437 30.397 18.0428V16.881H24.8905Z"/>
</mask>
<path d="M32.9687 15.9375C33.8623 15.9375 34.6106 16.6629 34.6107 17.579V27.0378L34.629 27.058L34.6414 27.0717L34.6423 27.0726L34.6551 27.0863L34.6565 27.0882L39.0963 31.7084C39.73 32.3929 40.0743 33.2866 40.0279 34.2082L40.0123 34.4L40.0118 34.4055L39.3769 40.8801L39.3696 40.9575H39.8361L39.8864 40.9593C40.0909 40.9803 40.2695 41.137 40.3245 41.3516L40.3341 41.3988L40.3405 41.4519V44.6091C40.3405 44.869 40.1285 45.081 39.8686 45.081H31.0488C30.7889 45.081 30.5769 44.869 30.5769 44.6091V41.4294C30.5769 41.1695 30.7889 40.9575 31.0488 40.9575H31.6572V39.321H22.3486C21.5362 39.3209 20.8443 38.7212 20.7253 37.9239L20.7157 37.8465L20.7098 37.7664L20.707 37.6758V17.579C20.7071 16.6816 21.4364 15.9375 22.3188 15.9375H32.9687ZM31.4906 41.9009V44.1376H39.3669V41.9009H31.4906ZM34.6107 34.3195L34.6089 34.3538C34.596 34.5053 34.5003 34.6489 34.3672 34.7241L34.3022 34.7534C34.2326 34.7765 34.2004 34.7855 34.1804 34.7887L34.1648 34.79C34.0519 34.7892 33.9398 34.7566 33.854 34.6957L33.8188 34.6678L33.778 34.6262L30.3338 30.7031C30.186 30.5176 29.9846 30.4454 29.844 30.4216L29.8412 30.4211L29.7886 30.4143L29.784 30.4134H29.7776L29.7346 30.4115L29.7286 30.4111C29.6018 30.4111 29.3263 30.4601 29.134 30.6912C28.9226 30.9131 28.8508 31.2467 28.9893 31.5427L29.02 31.6017L32.5132 38.112C32.5564 38.2226 32.5704 38.2885 32.5704 38.3693V40.9877H38.4596L38.466 40.9241L38.4742 40.8398L39.1256 34.2984C39.1926 33.6272 38.9767 32.9538 38.5323 32.455L38.5296 32.4518L38.5269 32.449L38.4435 32.3611L38.4431 32.3602L34.732 28.5068L34.6107 28.3813V34.3195ZM22.3486 16.881C22.0068 16.8811 21.6506 17.1521 21.6505 17.579V37.6794C21.6505 37.8627 21.7138 38.0372 21.84 38.1725C21.963 38.3042 22.1237 38.3756 22.2831 38.4023L22.3051 38.4059L22.3087 38.4064L22.3129 38.4068L22.3165 38.4073H31.5931L31.5368 38.3034L31.4997 38.2347L28.2263 32.0732L28.2231 32.0663L28.2226 32.0654L28.1594 31.9368C27.8939 31.3303 28.0046 30.613 28.4382 30.1099L28.4387 30.1103C28.7863 29.7135 29.2486 29.4979 29.757 29.4974L29.8582 29.4997C30.3388 29.5231 30.7605 29.7178 31.0786 30.081L33.4915 32.8336L33.5734 32.9274L33.697 33.0684V17.579C33.6968 17.2373 33.4259 16.881 32.9989 16.881H31.3706V18.029C31.3706 18.7947 30.743 19.4009 29.9987 19.4009H25.3488C24.5831 19.4009 23.9768 18.7733 23.9768 18.029V16.881H22.3486ZM24.8905 16.881V18.029C24.8905 18.1057 24.9107 18.1905 24.9619 18.2675C25.0111 18.3411 25.0738 18.3864 25.1254 18.4122C25.1753 18.4371 25.2207 18.4469 25.2485 18.4515C25.2622 18.4538 25.2764 18.4557 25.2892 18.4566C25.2937 18.4569 25.2982 18.457 25.3011 18.457C25.3027 18.4571 25.3043 18.4575 25.3053 18.4575H29.969C30.0457 18.4574 30.1303 18.4371 30.207 18.3861C30.2805 18.337 30.3259 18.2742 30.3517 18.2227C30.3766 18.1727 30.3864 18.1273 30.391 18.0995C30.3933 18.0858 30.3951 18.0716 30.3961 18.0588C30.3964 18.0544 30.3964 18.0499 30.3965 18.0469C30.3966 18.0453 30.397 18.0437 30.397 18.0428V16.881H24.8905Z" stroke="#08526D" stroke-width="3" mask="url(#path-3-inside-1_4683_7714)"/>
<path d="M27.6588 36.6594C28.1558 36.6594 28.5588 36.2564 28.5588 35.7594C28.5588 35.2623 28.1558 34.8594 27.6588 34.8594C27.1617 34.8594 26.7588 35.2623 26.7588 35.7594C26.7588 36.2564 27.1617 36.6594 27.6588 36.6594Z" fill="#08526D"/>
</g>
<defs>
<linearGradient id="paint0_linear_4683_7714" x1="32.84" y1="58.6581" x2="30.3323" y2="31.8635" gradientUnits="userSpaceOnUse">
<stop stop-color="#32B9E9"/>
<stop offset="0.961538" stop-color="#32B9E9" stop-opacity="0"/>
</linearGradient>
<clipPath id="clip0_4683_7714">
<rect width="30" height="30" fill="white" transform="translate(15.5088 15.5088)"/>
</clipPath>
</defs>
<style>
  path[stroke] {
    stroke-dasharray: 500;
    stroke-dashoffset: 500;
    animation: drawStroke 2s cubic-bezier(0.4, 0, 0.2, 1) forwards;
  }
  @keyframes drawStroke {
    to { stroke-dashoffset: 0; }
  }
</style>
</svg>
