<svg width="62" height="62" viewBox="0 0 62 62" fill="none" xmlns="http://www.w3.org/2000/svg">
<rect width="61.0178" height="61.0178" rx="7.75444" fill="#EAF8FD"/>
<g clip-path="url(#clip0_4683_7721)">
<path d="M25.8213 44.4082C26.0088 42.2051 26.4775 39.3926 26.7588 38.6426C26.8994 38.1738 27.2744 37.752 27.7432 37.5645L32.8994 35.502L34.5869 38.127C34.7275 38.3613 34.9619 38.4551 35.1963 38.4551C35.4307 38.4551 35.7119 38.3145 35.8057 38.127L37.4932 35.502L42.6494 37.5645C43.1182 37.752 43.4932 38.1738 43.6338 38.6426C43.8682 39.4395 44.3369 42.252 44.5244 44.4082H25.8213Z" fill="url(#paint0_linear_4683_7721)"/>
<path d="M26.9932 23.2676V18.1582C26.9932 16.8457 25.9619 15.8145 24.6494 15.8145H17.8525C16.54 15.8145 15.5088 16.8457 15.5088 18.1582V23.2676C15.5088 24.5801 16.54 25.6113 17.8525 25.6113H24.6494C25.915 25.6113 26.9932 24.5801 26.9932 23.2676Z" fill="#ADE3F6"/>
<mask id="path-4-inside-1_4683_7721" fill="white">
<path d="M21.6963 18.627C21.6963 18.3457 21.5088 18.1582 21.2275 18.1582C20.9463 18.1582 20.7588 18.3457 20.7588 18.627V20.2676H19.1182C18.8369 20.2676 18.6494 20.4551 18.6494 20.7363C18.6494 21.0176 18.8369 21.2051 19.1182 21.2051H20.7588V22.8457C20.7588 23.127 20.9463 23.3145 21.2275 23.3145C21.5088 23.3145 21.6963 23.127 21.6963 22.8457V21.2051H23.3369C23.6182 21.2051 23.8057 21.0176 23.8057 20.7363C23.8057 20.4551 23.6182 20.2676 23.3369 20.2676H21.6963V18.627Z"/>
</mask>
<path d="M20.7588 20.2676V21.2676H21.7588V20.2676H20.7588ZM20.7588 21.2051H21.7588V20.2051H20.7588V21.2051ZM21.6963 21.2051V20.2051H20.6963V21.2051H21.6963ZM21.6963 20.2676H20.6963V21.2676H21.6963V20.2676ZM21.6963 18.627H22.6963C22.6963 18.2591 22.5693 17.8748 22.2745 17.58C21.9797 17.2852 21.5954 17.1582 21.2275 17.1582V18.1582V19.1582C21.1409 19.1582 20.991 19.125 20.8603 18.9942C20.7295 18.8635 20.6963 18.7136 20.6963 18.627H21.6963ZM21.2275 18.1582V17.1582C20.8597 17.1582 20.4754 17.2852 20.1806 17.58C19.8858 17.8748 19.7588 18.2591 19.7588 18.627H20.7588H21.7588C21.7588 18.7136 21.7256 18.8635 21.5948 18.9942C21.4641 19.125 21.3142 19.1582 21.2275 19.1582V18.1582ZM20.7588 18.627H19.7588V20.2676H20.7588H21.7588V18.627H20.7588ZM20.7588 20.2676V19.2676H19.1182V20.2676V21.2676H20.7588V20.2676ZM19.1182 20.2676V19.2676C18.7503 19.2676 18.366 19.3946 18.0712 19.6894C17.7764 19.9842 17.6494 20.3685 17.6494 20.7363H18.6494H19.6494C19.6494 20.823 19.6162 20.9728 19.4854 21.1036C19.3547 21.2343 19.2048 21.2676 19.1182 21.2676V20.2676ZM18.6494 20.7363H17.6494C17.6494 21.1042 17.7764 21.4885 18.0712 21.7833C18.366 22.0781 18.7503 22.2051 19.1182 22.2051V21.2051V20.2051C19.2048 20.2051 19.3547 20.2383 19.4854 20.3691C19.6162 20.4998 19.6494 20.6497 19.6494 20.7363H18.6494ZM19.1182 21.2051V22.2051H20.7588V21.2051V20.2051H19.1182V21.2051ZM20.7588 21.2051H19.7588V22.8457H20.7588H21.7588V21.2051H20.7588ZM20.7588 22.8457H19.7588C19.7588 23.2136 19.8858 23.5978 20.1806 23.8927C20.4754 24.1875 20.8597 24.3145 21.2275 24.3145V23.3145V22.3145C21.3142 22.3145 21.4641 22.3477 21.5948 22.4784C21.7256 22.6092 21.7588 22.7591 21.7588 22.8457H20.7588ZM21.2275 23.3145V24.3145C21.5954 24.3145 21.9797 24.1875 22.2745 23.8927C22.5693 23.5978 22.6963 23.2136 22.6963 22.8457H21.6963H20.6963C20.6963 22.7591 20.7295 22.6092 20.8603 22.4784C20.991 22.3477 21.1409 22.3145 21.2275 22.3145V23.3145ZM21.6963 22.8457H22.6963V21.2051H21.6963H20.6963V22.8457H21.6963ZM21.6963 21.2051V22.2051H23.3369V21.2051V20.2051H21.6963V21.2051ZM23.3369 21.2051V22.2051C23.7048 22.2051 24.0891 22.0781 24.3839 21.7833C24.6787 21.4885 24.8057 21.1042 24.8057 20.7363H23.8057H22.8057C22.8057 20.6497 22.8389 20.4998 22.9697 20.3691C23.1004 20.2383 23.2503 20.2051 23.3369 20.2051V21.2051ZM23.8057 20.7363H24.8057C24.8057 20.3685 24.6787 19.9842 24.3839 19.6894C24.0891 19.3946 23.7048 19.2676 23.3369 19.2676V20.2676V21.2676C23.2503 21.2676 23.1004 21.2343 22.9697 21.1036C22.8389 20.9728 22.8057 20.823 22.8057 20.7363H23.8057ZM23.3369 20.2676V19.2676H21.6963V20.2676V21.2676H23.3369V20.2676ZM21.6963 20.2676H22.6963V18.627H21.6963H20.6963V20.2676H21.6963Z" fill="#08526D" mask="url(#path-4-inside-1_4683_7721)"/>
<mask id="path-6-inside-2_4683_7721" fill="white">
<path d="M21.1338 29.6895C21.1338 29.3613 21.0869 28.6113 21.0869 28.3301C21.0869 26.3145 21.9775 25.0957 23.4307 25.0957C23.5244 25.0957 23.5244 25.0957 23.6182 25.0488C23.8525 24.9082 24.1338 24.7676 24.8369 24.7676C26.3369 24.7676 27.415 25.2363 28.0713 26.127C28.4932 26.6895 28.6807 27.4395 28.6807 28.3301V28.377C28.6807 28.5176 28.6338 29.0332 28.6338 29.6895H27.6963C27.6963 29.2207 27.6963 28.5645 27.7432 28.2832C27.7432 27.627 27.6025 27.0645 27.3213 26.6426C26.8525 25.9863 26.0557 25.6582 24.8369 25.6582C24.3682 25.6582 24.2744 25.752 24.1338 25.7988C23.9932 25.8926 23.8057 25.9863 23.4307 25.9863C22.2119 25.9863 22.0244 27.3926 22.0244 28.2832C22.0244 28.5176 22.0713 29.3145 22.0713 29.6426L21.1338 29.6895Z"/>
</mask>
<path d="M21.1338 29.6895H20.1338V30.7407L21.1837 30.6882L21.1338 29.6895ZM23.6182 25.0488L24.0654 25.9433L24.0997 25.9261L24.1327 25.9063L23.6182 25.0488ZM28.0713 26.127L27.2662 26.7202L27.2713 26.727L28.0713 26.127ZM28.6338 29.6895V30.6895H29.6338V29.6895H28.6338ZM27.6963 29.6895H26.6963V30.6895H27.6963V29.6895ZM27.7432 28.2832L28.7296 28.4476L28.7432 28.366V28.2832H27.7432ZM27.3213 26.6426L28.1533 26.0879L28.1444 26.0745L28.135 26.0613L27.3213 26.6426ZM24.1338 25.7988L23.8176 24.8501L23.6905 24.8925L23.5791 24.9668L24.1338 25.7988ZM22.0713 29.6426L22.1212 30.6413L23.0713 30.5938V29.6426H22.0713ZM21.1338 29.6895H22.1338C22.1338 29.4977 22.1206 29.2014 22.1094 28.9478C22.097 28.6699 22.0869 28.4422 22.0869 28.3301H21.0869H20.0869C20.0869 28.4992 20.1002 28.7871 20.1113 29.0366C20.1235 29.3103 20.1338 29.5531 20.1338 29.6895H21.1338ZM21.0869 28.3301H22.0869C22.0869 27.4528 22.2829 26.8752 22.523 26.5447C22.7369 26.2502 23.0204 26.0957 23.4307 26.0957V25.0957V24.0957C22.3878 24.0957 21.4995 24.5506 20.9048 25.3694C20.3362 26.1521 20.0869 27.1917 20.0869 28.3301H21.0869ZM23.4307 25.0957V26.0957C23.4448 26.0957 23.491 26.096 23.5363 26.0937C23.5929 26.0909 23.6731 26.0834 23.7669 26.06C23.8576 26.0373 23.9289 26.0076 23.9729 25.9879C24.0104 25.971 24.049 25.9514 24.0654 25.9433L23.6182 25.0488L23.171 24.1544C23.1405 24.1696 23.1439 24.1677 23.1521 24.164C23.1668 24.1574 23.2146 24.1365 23.2819 24.1197C23.3522 24.1021 23.409 24.0976 23.4364 24.0962C23.4523 24.0954 23.4634 24.0957 23.4307 24.0957V25.0957ZM23.6182 25.0488L24.1327 25.9063C24.2136 25.8578 24.2561 25.8368 24.3225 25.8181C24.3997 25.7964 24.5506 25.7676 24.8369 25.7676V24.7676V23.7676C24.4201 23.7676 24.0788 23.8091 23.781 23.8928C23.4724 23.9796 23.2571 24.0993 23.1037 24.1913L23.6182 25.0488ZM24.8369 24.7676V25.7676C26.1257 25.7676 26.8538 26.1604 27.2662 26.7202L28.0713 26.127L28.8763 25.5338C27.9763 24.3122 26.5481 23.7676 24.8369 23.7676V24.7676ZM28.0713 26.127L27.2713 26.727C27.5186 27.0567 27.6807 27.567 27.6807 28.3301H28.6807H29.6807C29.6807 27.312 29.4677 26.3222 28.8713 25.527L28.0713 26.127ZM28.6807 28.3301H27.6807V28.377H28.6807H29.6807V28.3301H28.6807ZM28.6807 28.377H27.6807C27.6807 28.3717 27.6808 28.3772 27.6796 28.4024C27.6786 28.4251 27.6771 28.4545 27.6749 28.4931C27.6708 28.5671 27.6646 28.6712 27.6585 28.7886C27.6463 29.0267 27.6338 29.3381 27.6338 29.6895H28.6338H29.6338C29.6338 29.3846 29.6447 29.1101 29.6559 28.8911C29.6652 28.71 29.6807 28.4808 29.6807 28.377H28.6807ZM28.6338 29.6895V28.6895H27.6963V29.6895V30.6895H28.6338V29.6895ZM27.6963 29.6895H28.6963C28.6963 29.4529 28.6963 29.1832 28.7019 28.9387C28.7079 28.6737 28.7195 28.5078 28.7296 28.4476L27.7432 28.2832L26.7568 28.1188C26.7199 28.3399 26.7081 28.6427 26.7024 28.8933C26.6962 29.1644 26.6963 29.4572 26.6963 29.6895H27.6963ZM27.7432 28.2832H28.7432C28.7432 27.4953 28.5756 26.7213 28.1533 26.0879L27.3213 26.6426L26.4892 27.1973C26.6294 27.4076 26.7432 27.7586 26.7432 28.2832H27.7432ZM27.3213 26.6426L28.135 26.0613C27.4037 25.0375 26.2236 24.6582 24.8369 24.6582V25.6582V26.6582C25.8877 26.6582 26.3014 26.9352 26.5076 27.2238L27.3213 26.6426ZM24.8369 25.6582V24.6582C24.5356 24.6582 24.2953 24.6883 24.0801 24.7516C23.9748 24.7825 23.8936 24.8163 23.8431 24.8379C23.7804 24.8648 23.8018 24.8554 23.8176 24.8501L24.1338 25.7988L24.45 26.7475C24.5361 26.7188 24.622 26.6801 24.631 26.6762C24.6523 26.6671 24.6502 26.6686 24.6445 26.6703C24.6286 26.675 24.6695 26.6582 24.8369 26.6582V25.6582ZM24.1338 25.7988L23.5791 24.9668C23.5656 24.9757 23.5623 24.9772 23.5641 24.9763C23.5666 24.975 23.569 24.9741 23.569 24.9742C23.5685 24.9743 23.5596 24.9771 23.5389 24.9801C23.5177 24.9831 23.4828 24.9863 23.4307 24.9863V25.9863V26.9863C24.0193 26.9863 24.3976 26.8248 24.6885 26.6309L24.1338 25.7988ZM23.4307 25.9863V24.9863C22.9188 24.9863 22.4606 25.1392 22.086 25.4281C21.7252 25.7065 21.4974 26.0676 21.352 26.4055C21.0708 27.0588 21.0244 27.7985 21.0244 28.2832H22.0244H23.0244C23.0244 27.8773 23.0718 27.4686 23.1891 27.1961C23.2429 27.071 23.2905 27.025 23.3075 27.0118C23.3109 27.0092 23.3331 26.9863 23.4307 26.9863V25.9863ZM22.0244 28.2832H21.0244C21.0244 28.4287 21.0378 28.7192 21.0488 28.9712C21.0609 29.2499 21.0713 29.5054 21.0713 29.6426H22.0713H23.0713C23.0713 29.4516 23.0582 29.1446 23.0469 28.8843C23.0344 28.5972 23.0244 28.372 23.0244 28.2832H22.0244ZM22.0713 29.6426L22.0214 28.6438L21.0839 28.6907L21.1338 29.6895L21.1837 30.6882L22.1212 30.6413L22.0713 29.6426Z" fill="#08526D" mask="url(#path-6-inside-2_4683_7721)"/>
<mask id="path-8-inside-3_4683_7721" fill="white">
<path d="M24.8838 33.4395C24.4619 33.4395 24.1338 33.3926 23.8994 33.2051C23.8056 33.1113 23.665 33.0176 23.5244 32.877C23.1963 32.5488 22.915 32.1738 22.7275 31.8926L22.54 31.2832C22.4931 31.1426 22.3994 31.002 22.3056 30.9082C22.165 30.7676 21.9775 30.4863 21.9306 30.252C21.8838 30.1113 21.9306 30.0645 21.9306 30.0176C22.0713 29.9238 22.2119 29.7832 22.2119 29.5957C22.2119 29.2207 22.3056 28.9395 22.3994 28.7051C22.54 28.4707 22.7275 28.3301 23.0088 28.1895C23.6181 27.9082 24.6025 27.8145 26.1025 27.9551C26.1963 27.9551 26.29 27.9551 26.3838 27.9082C26.7119 27.7207 26.8994 27.7207 26.9931 27.7676C27.0869 27.8145 27.2275 27.9082 27.3213 28.1426C27.5556 28.6113 27.6025 29.3145 27.6025 29.6426C27.6025 29.8301 27.6963 29.9707 27.8838 30.0645C27.8838 30.1113 27.8838 30.2051 27.8838 30.2988C27.8369 30.5332 27.6963 30.8145 27.5088 30.9551C27.415 31.0488 27.3213 31.1895 27.2744 31.3301L27.04 31.9863C26.8994 32.2676 26.5713 32.6426 26.2431 32.9707C26.1494 33.0645 26.0088 33.2051 25.8681 33.2988C25.6338 33.3926 25.3056 33.4395 24.8838 33.4395ZM23.3369 34.002C23.8056 34.377 24.4619 34.4238 24.8838 34.4238C25.3056 34.4238 25.9619 34.377 26.4306 34.002C26.5713 33.9082 26.7119 33.7676 26.8525 33.627C27.2275 33.252 27.6025 32.7832 27.8369 32.3613C27.8369 32.3613 27.8369 32.3145 27.8838 32.3145L28.1181 31.6113C28.4463 31.3301 28.6806 30.8613 28.7744 30.4395C28.8213 30.1113 28.8681 29.6426 28.54 29.3145C28.54 28.8926 28.4463 28.2363 28.165 27.6738C28.0244 27.3457 27.7431 26.9707 27.3213 26.8301C26.9463 26.6895 26.4775 26.7363 26.0556 26.9707C24.5556 26.8301 23.3838 26.9238 22.5869 27.2988C22.165 27.4863 21.79 27.8145 21.6025 28.1895C21.415 28.5176 21.3213 28.8926 21.2744 29.3145C20.9463 29.6426 20.9463 30.1113 21.04 30.4395C21.1338 30.8613 21.3681 31.2832 21.6963 31.6113L21.9306 32.3145C21.9306 32.3145 21.9306 32.3613 21.9775 32.3613C22.2119 32.7832 22.5869 33.252 22.9619 33.627M23.3369 34.002C23.1963 33.9082 23.0556 33.7676 22.915 33.627L23.3369 34.002Z"/>
</mask>
<path d="M23.8994 33.2051L23.1923 33.9122L23.2315 33.9513L23.2747 33.9859L23.8994 33.2051ZM22.7275 31.8926L21.7717 32.1867L21.8146 32.326L21.8955 32.4473L22.7275 31.8926ZM22.54 31.2832L23.4958 30.9891L23.4924 30.978L23.4887 30.967L22.54 31.2832ZM21.9306 30.252L22.9112 30.0558L22.899 29.9948L22.8793 29.9357L21.9306 30.252ZM21.9306 30.0176L21.3759 29.1855L20.9306 29.4824V30.0176H21.9306ZM22.3994 28.7051L21.5419 28.1906L21.5007 28.2593L21.4709 28.3337L22.3994 28.7051ZM23.0088 28.1895L22.5897 27.2815L22.5755 27.288L22.5616 27.295L23.0088 28.1895ZM26.1025 27.9551L26.0092 28.9507L26.0557 28.9551H26.1025V27.9551ZM26.3838 27.9082L26.831 28.8026L26.8558 28.7902L26.8799 28.7764L26.3838 27.9082ZM27.3213 28.1426L26.3928 28.514L26.4082 28.5526L26.4268 28.5898L27.3213 28.1426ZM27.8838 30.0645H28.8838V29.4464L28.331 29.17L27.8838 30.0645ZM27.8838 30.2988L28.8644 30.4949L28.8838 30.3978V30.2988H27.8838ZM27.5088 30.9551L26.9088 30.1551L26.8519 30.1977L26.8017 30.248L27.5088 30.9551ZM27.2744 31.3301L28.2161 31.6664L28.2197 31.6564L28.2231 31.6463L27.2744 31.3301ZM27.04 31.9863L27.9344 32.4335L27.9615 32.3795L27.9818 32.3227L27.04 31.9863ZM25.8681 33.2988L26.2395 34.2273L26.3362 34.1886L26.4228 34.1309L25.8681 33.2988ZM26.4306 34.002L25.8759 33.1699L25.8398 33.194L25.806 33.2211L26.4306 34.002ZM27.8369 32.3613L28.7111 32.847L28.8369 32.6205L28.8369 32.3613L27.8369 32.3613ZM27.8838 32.3145V33.3145H28.6045L28.8325 32.6307L27.8838 32.3145ZM28.1181 31.6113L27.4674 30.8521L27.2571 31.0323L27.1695 31.2951L28.1181 31.6113ZM28.7744 30.4395L29.7506 30.6564L29.7589 30.6189L29.7643 30.5809L28.7744 30.4395ZM28.54 29.3145H27.54V29.7287L27.8329 30.0216L28.54 29.3145ZM28.165 27.6738L27.2459 28.0677L27.2575 28.0948L27.2706 28.121L28.165 27.6738ZM27.3213 26.8301L26.9701 27.7664L26.9875 27.7729L27.005 27.7788L27.3213 26.8301ZM26.0556 26.9707L25.9623 27.9663L26.2706 27.9952L26.5413 27.8449L26.0556 26.9707ZM22.5869 27.2988L22.993 28.2126L23.0029 28.2082L23.0127 28.2036L22.5869 27.2988ZM21.6025 28.1895L22.4708 28.6856L22.4845 28.6615L22.4969 28.6367L21.6025 28.1895ZM21.2744 29.3145L21.9815 30.0216L22.2295 29.7735L22.2683 29.4249L21.2744 29.3145ZM21.04 30.4395L22.0162 30.2225L22.0097 30.1934L22.0015 30.1647L21.04 30.4395ZM21.6963 31.6113L22.645 31.2951L22.5703 31.0711L22.4034 30.9042L21.6963 31.6113ZM21.9306 32.3145L22.9306 32.3144L22.9306 32.1522L22.8793 31.9982L21.9306 32.3145ZM21.9775 32.3613L22.8517 31.8757L22.5659 31.3613H21.9775V32.3613ZM22.2548 34.3341C22.6453 34.7246 23.2785 34.7246 23.669 34.3341C24.0595 33.9435 24.0595 33.3104 23.669 32.9198L22.9619 33.627L22.2548 34.3341ZM22.915 33.627L23.5794 32.8795L22.2079 34.3341L22.915 33.627ZM24.8838 33.4395V32.4395C24.7015 32.4395 24.5945 32.4284 24.5308 32.4148C24.475 32.4028 24.4895 32.3966 24.5241 32.4242L23.8994 33.2051L23.2747 33.9859C23.8003 34.4064 24.4449 34.4395 24.8838 34.4395V33.4395ZM23.8994 33.2051L24.6065 32.498C24.5553 32.4467 24.5055 32.4032 24.467 32.3706C24.4301 32.3394 24.389 32.3061 24.3627 32.2846C24.3017 32.2347 24.2642 32.2026 24.2315 32.1698L23.5244 32.877L22.8173 33.5841C22.9252 33.6919 23.0284 33.777 23.0962 33.8326C23.1344 33.8638 23.1548 33.8803 23.1751 33.8974C23.1937 33.9132 23.1966 33.9165 23.1923 33.9122L23.8994 33.2051ZM23.5244 32.877L24.2315 32.1698C23.964 31.9024 23.7235 31.5838 23.5596 31.3379L22.7275 31.8926L21.8955 32.4473C22.1065 32.7638 22.4285 33.1953 22.8173 33.5841L23.5244 32.877ZM22.7275 31.8926L23.6833 31.5985L23.4958 30.9891L22.54 31.2832L21.5842 31.5773L21.7717 32.1867L22.7275 31.8926ZM22.54 31.2832L23.4887 30.967C23.3872 30.6625 23.2032 30.3915 23.0128 30.2011L22.3056 30.9082L21.5985 31.6153C21.593 31.6098 21.5914 31.6075 21.5924 31.6088C21.5933 31.61 21.595 31.6122 21.5968 31.615C21.5985 31.6178 21.5991 31.6191 21.5986 31.618C21.5982 31.6171 21.5952 31.6111 21.5913 31.5994L22.54 31.2832ZM22.3056 30.9082L23.0128 30.2011C23.0145 30.2029 23.0053 30.1936 22.9887 30.1718C22.9729 30.1512 22.956 30.1266 22.9405 30.1007C22.9248 30.0745 22.9142 30.0534 22.9084 30.0397C22.9018 30.0243 22.9061 30.0301 22.9112 30.0558L21.9306 30.252L20.9501 30.4481C21.0045 30.7204 21.1239 30.9603 21.2255 31.1297C21.3306 31.305 21.4612 31.478 21.5985 31.6153L22.3056 30.9082ZM21.9306 30.252L22.8793 29.9357C22.8888 29.9642 22.9014 30.0117 22.907 30.0747C22.9098 30.106 22.9106 30.1387 22.9091 30.1722C22.9076 30.2057 22.904 30.2366 22.8995 30.264C22.895 30.291 22.89 30.3119 22.887 30.3233C22.8856 30.3287 22.8846 30.3323 22.8847 30.332C22.8848 30.3318 22.8849 30.3314 22.8854 30.3295C22.8858 30.3281 22.8867 30.3251 22.8876 30.3218C22.8893 30.3155 22.8927 30.3034 22.8964 30.2888C22.9001 30.2739 22.905 30.2532 22.9099 30.2286C22.9195 30.1797 22.9306 30.1065 22.9306 30.0176H21.9306H20.9306C20.9306 29.9404 20.9403 29.8789 20.9476 29.8421C20.9512 29.8235 20.9547 29.809 20.9569 29.8004C20.958 29.7959 20.959 29.7924 20.9595 29.7902C20.9601 29.788 20.9605 29.7866 20.9605 29.7866C20.9627 29.7788 20.9404 29.8531 20.9267 29.9352C20.911 30.029 20.9045 30.1345 20.9147 30.2505C20.9247 30.3633 20.949 30.4694 20.982 30.5682L21.9306 30.252ZM21.9306 30.0176L22.4853 30.8496C22.6864 30.7156 23.2119 30.3141 23.2119 29.5957H22.2119H21.2119C21.2119 29.424 21.2799 29.3007 21.324 29.2418C21.3622 29.1909 21.39 29.1762 21.3759 29.1855L21.9306 30.0176ZM22.2119 29.5957H23.2119C23.2119 29.4022 23.2559 29.2565 23.3279 29.0765L22.3994 28.7051L21.4709 28.3337C21.3554 28.6224 21.2119 29.0392 21.2119 29.5957H22.2119ZM22.3994 28.7051L23.2569 29.2196C23.2677 29.2016 23.2742 29.1946 23.2871 29.184C23.307 29.1676 23.3518 29.136 23.456 29.0839L23.0088 28.1895L22.5616 27.295C22.1895 27.4811 21.8177 27.7309 21.5419 28.1906L22.3994 28.7051ZM23.0088 28.1895L23.4278 29.0974C23.784 28.933 24.542 28.8132 26.0092 28.9507L26.1025 27.9551L26.1959 26.9594C24.6631 26.8157 23.4523 26.8834 22.5897 27.2815L23.0088 28.1895ZM26.1025 27.9551V28.9551C26.1711 28.9551 26.4969 28.9697 26.831 28.8026L26.3838 27.9082L25.9366 27.0138C26.0137 26.9752 26.0817 26.9616 26.1191 26.9569C26.1357 26.9549 26.145 26.9547 26.1416 26.9548C26.1364 26.955 26.1286 26.9551 26.1025 26.9551V27.9551ZM26.3838 27.9082L26.8799 28.7764C26.9793 28.7197 26.9979 28.7263 26.9501 28.7348C26.9014 28.7434 26.7413 28.7597 26.5459 28.662L26.9931 27.7676L27.4404 26.8732C26.8768 26.5914 26.2874 26.8115 25.8876 27.04L26.3838 27.9082ZM26.9931 27.7676L26.5459 28.662C26.5285 28.6533 26.4891 28.6309 26.4501 28.5919C26.4101 28.5519 26.3947 28.5188 26.3928 28.514L27.3213 28.1426L28.2497 27.7712C28.0442 27.2574 27.6972 27.0016 27.4404 26.8732L26.9931 27.7676ZM27.3213 28.1426L26.4268 28.5898C26.476 28.688 26.5264 28.8623 26.5607 29.0926C26.5932 29.311 26.6025 29.5187 26.6025 29.6426H27.6025H28.6025C28.6025 29.4383 28.5884 29.1304 28.5389 28.798C28.4911 28.4775 28.4009 28.0659 28.2157 27.6954L27.3213 28.1426ZM27.6025 29.6426H26.6025C26.6025 29.9113 26.6726 30.1911 26.8408 30.4434C27.0048 30.6894 27.2242 30.8527 27.4366 30.9589L27.8838 30.0645L28.331 29.17C28.3559 29.1825 28.4346 29.2285 28.5049 29.334C28.5793 29.4457 28.6025 29.5613 28.6025 29.6426H27.6025ZM27.8838 30.0645H26.8838C26.8838 30.0645 26.8838 30.0646 26.8838 30.0647C26.8838 30.0648 26.8838 30.0649 26.8838 30.065C26.8838 30.0651 26.8838 30.0652 26.8838 30.0653C26.8838 30.0654 26.8838 30.0655 26.8838 30.0656C26.8838 30.0657 26.8838 30.0657 26.8838 30.0658C26.8838 30.0659 26.8838 30.066 26.8838 30.0661C26.8838 30.0662 26.8838 30.0663 26.8838 30.0664C26.8838 30.0665 26.8838 30.0666 26.8838 30.0667C26.8838 30.0668 26.8838 30.0669 26.8838 30.067C26.8838 30.0671 26.8838 30.0672 26.8838 30.0673C26.8838 30.0673 26.8838 30.0674 26.8838 30.0675C26.8838 30.0676 26.8838 30.0677 26.8838 30.0678C26.8838 30.0679 26.8838 30.068 26.8838 30.0681C26.8838 30.0682 26.8838 30.0683 26.8838 30.0684C26.8838 30.0685 26.8838 30.0686 26.8838 30.0687C26.8838 30.0688 26.8838 30.0689 26.8838 30.069C26.8838 30.0691 26.8838 30.0692 26.8838 30.0693C26.8838 30.0694 26.8838 30.0695 26.8838 30.0696C26.8838 30.0697 26.8838 30.0698 26.8838 30.0699C26.8838 30.07 26.8838 30.0701 26.8838 30.0702C26.8838 30.0703 26.8838 30.0704 26.8838 30.0705C26.8838 30.0706 26.8838 30.0707 26.8838 30.0708C26.8838 30.0709 26.8838 30.071 26.8838 30.071C26.8838 30.0711 26.8838 30.0712 26.8838 30.0713C26.8838 30.0714 26.8838 30.0715 26.8838 30.0716C26.8838 30.0717 26.8838 30.0719 26.8838 30.072C26.8838 30.0721 26.8838 30.0722 26.8838 30.0723C26.8838 30.0724 26.8838 30.0725 26.8838 30.0726C26.8838 30.0727 26.8838 30.0728 26.8838 30.0729C26.8838 30.073 26.8838 30.0731 26.8838 30.0732C26.8838 30.0733 26.8838 30.0734 26.8838 30.0735C26.8838 30.0736 26.8838 30.0737 26.8838 30.0738C26.8838 30.0739 26.8838 30.074 26.8838 30.0741C26.8838 30.0742 26.8838 30.0743 26.8838 30.0744C26.8838 30.0745 26.8838 30.0746 26.8838 30.0747C26.8838 30.0748 26.8838 30.0749 26.8838 30.075C26.8838 30.0751 26.8838 30.0752 26.8838 30.0753C26.8838 30.0754 26.8838 30.0755 26.8838 30.0756C26.8838 30.0758 26.8838 30.0759 26.8838 30.076C26.8838 30.0761 26.8838 30.0762 26.8838 30.0763C26.8838 30.0764 26.8838 30.0765 26.8838 30.0766C26.8838 30.0767 26.8838 30.0768 26.8838 30.0769C26.8838 30.077 26.8838 30.0771 26.8838 30.0772C26.8838 30.0773 26.8838 30.0774 26.8838 30.0775C26.8838 30.0777 26.8838 30.0778 26.8838 30.0779C26.8838 30.078 26.8838 30.0781 26.8838 30.0782C26.8838 30.0783 26.8838 30.0784 26.8838 30.0785C26.8838 30.0786 26.8838 30.0787 26.8838 30.0788C26.8838 30.0789 26.8838 30.0791 26.8838 30.0792C26.8838 30.0793 26.8838 30.0794 26.8838 30.0795C26.8838 30.0796 26.8838 30.0797 26.8838 30.0798C26.8838 30.0799 26.8838 30.08 26.8838 30.0801C26.8838 30.0802 26.8838 30.0804 26.8838 30.0805C26.8838 30.0806 26.8838 30.0807 26.8838 30.0808C26.8838 30.0809 26.8838 30.081 26.8838 30.0811C26.8838 30.0812 26.8838 30.0813 26.8838 30.0815C26.8838 30.0816 26.8838 30.0817 26.8838 30.0818C26.8838 30.0819 26.8838 30.082 26.8838 30.0821C26.8838 30.0822 26.8838 30.0823 26.8838 30.0825C26.8838 30.0826 26.8838 30.0827 26.8838 30.0828C26.8838 30.0829 26.8838 30.083 26.8838 30.0831C26.8838 30.0832 26.8838 30.0833 26.8838 30.0835C26.8838 30.0836 26.8838 30.0837 26.8838 30.0838C26.8838 30.0839 26.8838 30.084 26.8838 30.0841C26.8838 30.0842 26.8838 30.0844 26.8838 30.0845C26.8838 30.0846 26.8838 30.0847 26.8838 30.0848C26.8838 30.0849 26.8838 30.085 26.8838 30.0852C26.8838 30.0853 26.8838 30.0854 26.8838 30.0855C26.8838 30.0856 26.8838 30.0857 26.8838 30.0858C26.8838 30.086 26.8838 30.0861 26.8838 30.0862C26.8838 30.0863 26.8838 30.0864 26.8838 30.0865C26.8838 30.0866 26.8838 30.0868 26.8838 30.0869C26.8838 30.087 26.8838 30.0871 26.8838 30.0872C26.8838 30.0873 26.8838 30.0875 26.8838 30.0876C26.8838 30.0877 26.8838 30.0878 26.8838 30.0879C26.8838 30.088 26.8838 30.0882 26.8838 30.0883C26.8838 30.0884 26.8838 30.0885 26.8838 30.0886C26.8838 30.0887 26.8838 30.0889 26.8838 30.089C26.8838 30.0891 26.8838 30.0892 26.8838 30.0893C26.8838 30.0894 26.8838 30.0896 26.8838 30.0897C26.8838 30.0898 26.8838 30.0899 26.8838 30.09C26.8838 30.0902 26.8838 30.0903 26.8838 30.0904C26.8838 30.0905 26.8838 30.0906 26.8838 30.0907C26.8838 30.0909 26.8838 30.091 26.8838 30.0911C26.8838 30.0912 26.8838 30.0913 26.8838 30.0915C26.8838 30.0916 26.8838 30.0917 26.8838 30.0918C26.8838 30.0919 26.8838 30.0921 26.8838 30.0922C26.8838 30.0923 26.8838 30.0924 26.8838 30.0925C26.8838 30.0927 26.8838 30.0928 26.8838 30.0929C26.8838 30.093 26.8838 30.0931 26.8838 30.0933C26.8838 30.0934 26.8838 30.0935 26.8838 30.0936C26.8838 30.0937 26.8838 30.0939 26.8838 30.094C26.8838 30.0941 26.8838 30.0942 26.8838 30.0944C26.8838 30.0945 26.8838 30.0946 26.8838 30.0947C26.8838 30.0948 26.8838 30.095 26.8838 30.0951C26.8838 30.0952 26.8838 30.0953 26.8838 30.0955C26.8838 30.0956 26.8838 30.0957 26.8838 30.0958C26.8838 30.0959 26.8838 30.0961 26.8838 30.0962C26.8838 30.0963 26.8838 30.0964 26.8838 30.0966C26.8838 30.0967 26.8838 30.0968 26.8838 30.0969C26.8838 30.0971 26.8838 30.0972 26.8838 30.0973C26.8838 30.0974 26.8838 30.0976 26.8838 30.0977C26.8838 30.0978 26.8838 30.0979 26.8838 30.0981C26.8838 30.0982 26.8838 30.0983 26.8838 30.0984C26.8838 30.0986 26.8838 30.0987 26.8838 30.0988C26.8838 30.0989 26.8838 30.0991 26.8838 30.0992C26.8838 30.0993 26.8838 30.0994 26.8838 30.0996C26.8838 30.0997 26.8838 30.0998 26.8838 30.0999C26.8838 30.1001 26.8838 30.1002 26.8838 30.1003C26.8838 30.1004 26.8838 30.1006 26.8838 30.1007C26.8838 30.1008 26.8838 30.1009 26.8838 30.1011C26.8838 30.1012 26.8838 30.1013 26.8838 30.1015C26.8838 30.1016 26.8838 30.1017 26.8838 30.1018C26.8838 30.102 26.8838 30.1021 26.8838 30.1022C26.8838 30.1023 26.8838 30.1025 26.8838 30.1026C26.8838 30.1027 26.8838 30.1029 26.8838 30.103C26.8838 30.1031 26.8838 30.1032 26.8838 30.1034C26.8838 30.1035 26.8838 30.1036 26.8838 30.1038C26.8838 30.1039 26.8838 30.104 26.8838 30.1041C26.8838 30.1043 26.8838 30.1044 26.8838 30.1045C26.8838 30.1047 26.8838 30.1048 26.8838 30.1049C26.8838 30.1051 26.8838 30.1052 26.8838 30.1053C26.8838 30.1054 26.8838 30.1056 26.8838 30.1057C26.8838 30.1058 26.8838 30.106 26.8838 30.1061C26.8838 30.1062 26.8838 30.1064 26.8838 30.1065C26.8838 30.1066 26.8838 30.1067 26.8838 30.1069C26.8838 30.107 26.8838 30.1071 26.8838 30.1073C26.8838 30.1074 26.8838 30.1075 26.8838 30.1077C26.8838 30.1078 26.8838 30.1079 26.8838 30.1081C26.8838 30.1082 26.8838 30.1083 26.8838 30.1085C26.8838 30.1086 26.8838 30.1087 26.8838 30.1089C26.8838 30.109 26.8838 30.1091 26.8838 30.1093C26.8838 30.1094 26.8838 30.1095 26.8838 30.1097C26.8838 30.1098 26.8838 30.1099 26.8838 30.11C26.8838 30.1102 26.8838 30.1103 26.8838 30.1104C26.8838 30.1106 26.8838 30.1107 26.8838 30.1109C26.8838 30.111 26.8838 30.1111 26.8838 30.1113C26.8838 30.1114 26.8838 30.1115 26.8838 30.1117C26.8838 30.1118 26.8838 30.1119 26.8838 30.1121C26.8838 30.1122 26.8838 30.1123 26.8838 30.1125C26.8838 30.1126 26.8838 30.1127 26.8838 30.1129C26.8838 30.113 26.8838 30.1131 26.8838 30.1133C26.8838 30.1134 26.8838 30.1135 26.8838 30.1137C26.8838 30.1138 26.8838 30.1139 26.8838 30.1141C26.8838 30.1142 26.8838 30.1144 26.8838 30.1145C26.8838 30.1146 26.8838 30.1148 26.8838 30.1149C26.8838 30.115 26.8838 30.1152 26.8838 30.1153C26.8838 30.1154 26.8838 30.1156 26.8838 30.1157C26.8838 30.1159 26.8838 30.116 26.8838 30.1161C26.8838 30.1163 26.8838 30.1164 26.8838 30.1165C26.8838 30.1167 26.8838 30.1168 26.8838 30.117C26.8838 30.1171 26.8838 30.1172 26.8838 30.1174C26.8838 30.1175 26.8838 30.1176 26.8838 30.1178C26.8838 30.1179 26.8838 30.1181 26.8838 30.1182C26.8838 30.1183 26.8838 30.1185 26.8838 30.1186C26.8838 30.1188 26.8838 30.1189 26.8838 30.119C26.8838 30.1192 26.8838 30.1193 26.8838 30.1194C26.8838 30.1196 26.8838 30.1197 26.8838 30.1199C26.8838 30.12 26.8838 30.1201 26.8838 30.1203C26.8838 30.1204 26.8838 30.1206 26.8838 30.1207C26.8838 30.1208 26.8838 30.121 26.8838 30.1211C26.8838 30.1213 26.8838 30.1214 26.8838 30.1215C26.8838 30.1217 26.8838 30.1218 26.8838 30.122C26.8838 30.1221 26.8838 30.1222 26.8838 30.1224C26.8838 30.1225 26.8838 30.1227 26.8838 30.1228C26.8838 30.1229 26.8838 30.1231 26.8838 30.1232C26.8838 30.1234 26.8838 30.1235 26.8838 30.1237C26.8838 30.1238 26.8838 30.1239 26.8838 30.1241C26.8838 30.1242 26.8838 30.1244 26.8838 30.1245C26.8838 30.1246 26.8838 30.1248 26.8838 30.1249C26.8838 30.1251 26.8838 30.1252 26.8838 30.1254C26.8838 30.1255 26.8838 30.1256 26.8838 30.1258C26.8838 30.1259 26.8838 30.1261 26.8838 30.1262C26.8838 30.1264 26.8838 30.1265 26.8838 30.1266C26.8838 30.1268 26.8838 30.1269 26.8838 30.1271C26.8838 30.1272 26.8838 30.1274 26.8838 30.1275C26.8838 30.1276 26.8838 30.1278 26.8838 30.1279C26.8838 30.1281 26.8838 30.1282 26.8838 30.1284C26.8838 30.1285 26.8838 30.1287 26.8838 30.1288C26.8838 30.1289 26.8838 30.1291 26.8838 30.1292C26.8838 30.1294 26.8838 30.1295 26.8838 30.1297C26.8838 30.1298 26.8838 30.13 26.8838 30.1301C26.8838 30.1302 26.8838 30.1304 26.8838 30.1305C26.8838 30.1307 26.8838 30.1308 26.8838 30.131C26.8838 30.1311 26.8838 30.1313 26.8838 30.1314C26.8838 30.1316 26.8838 30.1317 26.8838 30.1319C26.8838 30.132 26.8838 30.1321 26.8838 30.1323C26.8838 30.1324 26.8838 30.1326 26.8838 30.1327C26.8838 30.1329 26.8838 30.133 26.8838 30.1332C26.8838 30.1333 26.8838 30.1335 26.8838 30.1336C26.8838 30.1338 26.8838 30.1339 26.8838 30.134C26.8838 30.1342 26.8838 30.1343 26.8838 30.1345C26.8838 30.1346 26.8838 30.1348 26.8838 30.1349C26.8838 30.1351 26.8838 30.1352 26.8838 30.1354C26.8838 30.1355 26.8838 30.1357 26.8838 30.1358C26.8838 30.136 26.8838 30.1361 26.8838 30.1363C26.8838 30.1364 26.8838 30.1366 26.8838 30.1367C26.8838 30.1369 26.8838 30.137 26.8838 30.1372C26.8838 30.1373 26.8838 30.1375 26.8838 30.1376C26.8838 30.1378 26.8838 30.1379 26.8838 30.138C26.8838 30.1382 26.8838 30.1383 26.8838 30.1385C26.8838 30.1386 26.8838 30.1388 26.8838 30.1389C26.8838 30.1391 26.8838 30.1392 26.8838 30.1394C26.8838 30.1395 26.8838 30.1397 26.8838 30.1398C26.8838 30.14 26.8838 30.1401 26.8838 30.1403C26.8838 30.1404 26.8838 30.1406 26.8838 30.1407C26.8838 30.1409 26.8838 30.141 26.8838 30.1412C26.8838 30.1413 26.8838 30.1415 26.8838 30.1416C26.8838 30.1418 26.8838 30.1419 26.8838 30.1421C26.8838 30.1423 26.8838 30.1424 26.8838 30.1426C26.8838 30.1427 26.8838 30.1429 26.8838 30.143C26.8838 30.1432 26.8838 30.1433 26.8838 30.1435C26.8838 30.1436 26.8838 30.1438 26.8838 30.1439C26.8838 30.1441 26.8838 30.1442 26.8838 30.1444C26.8838 30.1445 26.8838 30.1447 26.8838 30.1448C26.8838 30.145 26.8838 30.1451 26.8838 30.1453C26.8838 30.1454 26.8838 30.1456 26.8838 30.1457C26.8838 30.1459 26.8838 30.1461 26.8838 30.1462C26.8838 30.1464 26.8838 30.1465 26.8838 30.1467C26.8838 30.1468 26.8838 30.147 26.8838 30.1471C26.8838 30.1473 26.8838 30.1474 26.8838 30.1476C26.8838 30.1477 26.8838 30.1479 26.8838 30.148C26.8838 30.1482 26.8838 30.1484 26.8838 30.1485C26.8838 30.1487 26.8838 30.1488 26.8838 30.149C26.8838 30.1491 26.8838 30.1493 26.8838 30.1494C26.8838 30.1496 26.8838 30.1497 26.8838 30.1499C26.8838 30.15 26.8838 30.1502 26.8838 30.1504C26.8838 30.1505 26.8838 30.1507 26.8838 30.1508C26.8838 30.151 26.8838 30.1511 26.8838 30.1513C26.8838 30.1514 26.8838 30.1516 26.8838 30.1518C26.8838 30.1519 26.8838 30.1521 26.8838 30.1522C26.8838 30.1524 26.8838 30.1525 26.8838 30.1527C26.8838 30.1528 26.8838 30.153 26.8838 30.1532C26.8838 30.1533 26.8838 30.1535 26.8838 30.1536C26.8838 30.1538 26.8838 30.1539 26.8838 30.1541C26.8838 30.1542 26.8838 30.1544 26.8838 30.1546C26.8838 30.1547 26.8838 30.1549 26.8838 30.155C26.8838 30.1552 26.8838 30.1553 26.8838 30.1555C26.8838 30.1557 26.8838 30.1558 26.8838 30.156C26.8838 30.1561 26.8838 30.1563 26.8838 30.1564C26.8838 30.1566 26.8838 30.1568 26.8838 30.1569C26.8838 30.1571 26.8838 30.1572 26.8838 30.1574C26.8838 30.1575 26.8838 30.1577 26.8838 30.1579C26.8838 30.158 26.8838 30.1582 26.8838 30.1583C26.8838 30.1585 26.8838 30.1586 26.8838 30.1588C26.8838 30.159 26.8838 30.1591 26.8838 30.1593C26.8838 30.1594 26.8838 30.1596 26.8838 30.1598C26.8838 30.1599 26.8838 30.1601 26.8838 30.1602C26.8838 30.1604 26.8838 30.1606 26.8838 30.1607C26.8838 30.1609 26.8838 30.161 26.8838 30.1612C26.8838 30.1613 26.8838 30.1615 26.8838 30.1617C26.8838 30.1618 26.8838 30.162 26.8838 30.1621C26.8838 30.1623 26.8838 30.1625 26.8838 30.1626C26.8838 30.1628 26.8838 30.1629 26.8838 30.1631C26.8838 30.1633 26.8838 30.1634 26.8838 30.1636C26.8838 30.1637 26.8838 30.1639 26.8838 30.1641C26.8838 30.1642 26.8838 30.1644 26.8838 30.1645C26.8838 30.1647 26.8838 30.1649 26.8838 30.165C26.8838 30.1652 26.8838 30.1653 26.8838 30.1655C26.8838 30.1657 26.8838 30.1658 26.8838 30.166C26.8838 30.1662 26.8838 30.1663 26.8838 30.1665C26.8838 30.1666 26.8838 30.1668 26.8838 30.167C26.8838 30.1671 26.8838 30.1673 26.8838 30.1674C26.8838 30.1676 26.8838 30.1678 26.8838 30.1679C26.8838 30.1681 26.8838 30.1682 26.8838 30.1684C26.8838 30.1686 26.8838 30.1687 26.8838 30.1689C26.8838 30.1691 26.8838 30.1692 26.8838 30.1694C26.8838 30.1695 26.8838 30.1697 26.8838 30.1699C26.8838 30.17 26.8838 30.1702 26.8838 30.1704C26.8838 30.1705 26.8838 30.1707 26.8838 30.1708C26.8838 30.171 26.8838 30.1712 26.8838 30.1713C26.8838 30.1715 26.8838 30.1717 26.8838 30.1718C26.8838 30.172 26.8838 30.1721 26.8838 30.1723C26.8838 30.1725 26.8838 30.1726 26.8838 30.1728C26.8838 30.173 26.8838 30.1731 26.8838 30.1733C26.8838 30.1735 26.8838 30.1736 26.8838 30.1738C26.8838 30.1739 26.8838 30.1741 26.8838 30.1743C26.8838 30.1744 26.8838 30.1746 26.8838 30.1748C26.8838 30.1749 26.8838 30.1751 26.8838 30.1753C26.8838 30.1754 26.8838 30.1756 26.8838 30.1757C26.8838 30.1759 26.8838 30.1761 26.8838 30.1762C26.8838 30.1764 26.8838 30.1766 26.8838 30.1767C26.8838 30.1769 26.8838 30.1771 26.8838 30.1772C26.8838 30.1774 26.8838 30.1776 26.8838 30.1777C26.8838 30.1779 26.8838 30.1781 26.8838 30.1782C26.8838 30.1784 26.8838 30.1785 26.8838 30.1787C26.8838 30.1789 26.8838 30.179 26.8838 30.1792C26.8838 30.1794 26.8838 30.1795 26.8838 30.1797C26.8838 30.1799 26.8838 30.18 26.8838 30.1802C26.8838 30.1804 26.8838 30.1805 26.8838 30.1807C26.8838 30.1809 26.8838 30.181 26.8838 30.1812C26.8838 30.1814 26.8838 30.1815 26.8838 30.1817C26.8838 30.1819 26.8838 30.182 26.8838 30.1822C26.8838 30.1824 26.8838 30.1825 26.8838 30.1827C26.8838 30.1829 26.8838 30.183 26.8838 30.1832C26.8838 30.1834 26.8838 30.1835 26.8838 30.1837C26.8838 30.1839 26.8838 30.184 26.8838 30.1842C26.8838 30.1844 26.8838 30.1845 26.8838 30.1847C26.8838 30.1849 26.8838 30.185 26.8838 30.1852C26.8838 30.1854 26.8838 30.1855 26.8838 30.1857C26.8838 30.1859 26.8838 30.186 26.8838 30.1862C26.8838 30.1864 26.8838 30.1865 26.8838 30.1867C26.8838 30.1869 26.8838 30.187 26.8838 30.1872C26.8838 30.1874 26.8838 30.1875 26.8838 30.1877C26.8838 30.1879 26.8838 30.188 26.8838 30.1882C26.8838 30.1884 26.8838 30.1886 26.8838 30.1887C26.8838 30.1889 26.8838 30.1891 26.8838 30.1892C26.8838 30.1894 26.8838 30.1896 26.8838 30.1897C26.8838 30.1899 26.8838 30.1901 26.8838 30.1902C26.8838 30.1904 26.8838 30.1906 26.8838 30.1907C26.8838 30.1909 26.8838 30.1911 26.8838 30.1913C26.8838 30.1914 26.8838 30.1916 26.8838 30.1918C26.8838 30.1919 26.8838 30.1921 26.8838 30.1923C26.8838 30.1924 26.8838 30.1926 26.8838 30.1928C26.8838 30.1929 26.8838 30.1931 26.8838 30.1933C26.8838 30.1935 26.8838 30.1936 26.8838 30.1938C26.8838 30.194 26.8838 30.1941 26.8838 30.1943C26.8838 30.1945 26.8838 30.1946 26.8838 30.1948C26.8838 30.195 26.8838 30.1952 26.8838 30.1953C26.8838 30.1955 26.8838 30.1957 26.8838 30.1958C26.8838 30.196 26.8838 30.1962 26.8838 30.1963C26.8838 30.1965 26.8838 30.1967 26.8838 30.1969C26.8838 30.197 26.8838 30.1972 26.8838 30.1974C26.8838 30.1975 26.8838 30.1977 26.8838 30.1979C26.8838 30.198 26.8838 30.1982 26.8838 30.1984C26.8838 30.1986 26.8838 30.1987 26.8838 30.1989C26.8838 30.1991 26.8838 30.1992 26.8838 30.1994C26.8838 30.1996 26.8838 30.1998 26.8838 30.1999C26.8838 30.2001 26.8838 30.2003 26.8838 30.2004C26.8838 30.2006 26.8838 30.2008 26.8838 30.201C26.8838 30.2011 26.8838 30.2013 26.8838 30.2015C26.8838 30.2016 26.8838 30.2018 26.8838 30.202C26.8838 30.2022 26.8838 30.2023 26.8838 30.2025C26.8838 30.2027 26.8838 30.2028 26.8838 30.203C26.8838 30.2032 26.8838 30.2034 26.8838 30.2035C26.8838 30.2037 26.8838 30.2039 26.8838 30.2041C26.8838 30.2042 26.8838 30.2044 26.8838 30.2046C26.8838 30.2047 26.8838 30.2049 26.8838 30.2051C26.8838 30.2053 26.8838 30.2054 26.8838 30.2056C26.8838 30.2058 26.8838 30.206 26.8838 30.2061C26.8838 30.2063 26.8838 30.2065 26.8838 30.2066C26.8838 30.2068 26.8838 30.207 26.8838 30.2072C26.8838 30.2073 26.8838 30.2075 26.8838 30.2077C26.8838 30.2079 26.8838 30.208 26.8838 30.2082C26.8838 30.2084 26.8838 30.2085 26.8838 30.2087C26.8838 30.2089 26.8838 30.2091 26.8838 30.2092C26.8838 30.2094 26.8838 30.2096 26.8838 30.2098C26.8838 30.2099 26.8838 30.2101 26.8838 30.2103C26.8838 30.2105 26.8838 30.2106 26.8838 30.2108C26.8838 30.211 26.8838 30.2111 26.8838 30.2113C26.8838 30.2115 26.8838 30.2117 26.8838 30.2118C26.8838 30.212 26.8838 30.2122 26.8838 30.2124C26.8838 30.2125 26.8838 30.2127 26.8838 30.2129C26.8838 30.2131 26.8838 30.2132 26.8838 30.2134C26.8838 30.2136 26.8838 30.2138 26.8838 30.2139C26.8838 30.2141 26.8838 30.2143 26.8838 30.2145C26.8838 30.2146 26.8838 30.2148 26.8838 30.215C26.8838 30.2152 26.8838 30.2153 26.8838 30.2155C26.8838 30.2157 26.8838 30.2159 26.8838 30.216C26.8838 30.2162 26.8838 30.2164 26.8838 30.2166C26.8838 30.2167 26.8838 30.2169 26.8838 30.2171C26.8838 30.2173 26.8838 30.2174 26.8838 30.2176C26.8838 30.2178 26.8838 30.218 26.8838 30.2181C26.8838 30.2183 26.8838 30.2185 26.8838 30.2187C26.8838 30.2188 26.8838 30.219 26.8838 30.2192C26.8838 30.2194 26.8838 30.2195 26.8838 30.2197C26.8838 30.2199 26.8838 30.2201 26.8838 30.2202C26.8838 30.2204 26.8838 30.2206 26.8838 30.2208C26.8838 30.2209 26.8838 30.2211 26.8838 30.2213C26.8838 30.2215 26.8838 30.2216 26.8838 30.2218C26.8838 30.222 26.8838 30.2222 26.8838 30.2224C26.8838 30.2225 26.8838 30.2227 26.8838 30.2229C26.8838 30.2231 26.8838 30.2232 26.8838 30.2234C26.8838 30.2236 26.8838 30.2238 26.8838 30.2239C26.8838 30.2241 26.8838 30.2243 26.8838 30.2245C26.8838 30.2246 26.8838 30.2248 26.8838 30.225C26.8838 30.2252 26.8838 30.2254 26.8838 30.2255C26.8838 30.2257 26.8838 30.2259 26.8838 30.2261C26.8838 30.2262 26.8838 30.2264 26.8838 30.2266C26.8838 30.2268 26.8838 30.2269 26.8838 30.2271C26.8838 30.2273 26.8838 30.2275 26.8838 30.2277C26.8838 30.2278 26.8838 30.228 26.8838 30.2282C26.8838 30.2284 26.8838 30.2285 26.8838 30.2287C26.8838 30.2289 26.8838 30.2291 26.8838 30.2292C26.8838 30.2294 26.8838 30.2296 26.8838 30.2298C26.8838 30.23 26.8838 30.2301 26.8838 30.2303C26.8838 30.2305 26.8838 30.2307 26.8838 30.2308C26.8838 30.231 26.8838 30.2312 26.8838 30.2314C26.8838 30.2316 26.8838 30.2317 26.8838 30.2319C26.8838 30.2321 26.8838 30.2323 26.8838 30.2324C26.8838 30.2326 26.8838 30.2328 26.8838 30.233C26.8838 30.2332 26.8838 30.2333 26.8838 30.2335C26.8838 30.2337 26.8838 30.2339 26.8838 30.234C26.8838 30.2342 26.8838 30.2344 26.8838 30.2346C26.8838 30.2348 26.8838 30.2349 26.8838 30.2351C26.8838 30.2353 26.8838 30.2355 26.8838 30.2357C26.8838 30.2358 26.8838 30.236 26.8838 30.2362C26.8838 30.2364 26.8838 30.2365 26.8838 30.2367C26.8838 30.2369 26.8838 30.2371 26.8838 30.2373C26.8838 30.2374 26.8838 30.2376 26.8838 30.2378C26.8838 30.238 26.8838 30.2382 26.8838 30.2383C26.8838 30.2385 26.8838 30.2387 26.8838 30.2389C26.8838 30.239 26.8838 30.2392 26.8838 30.2394C26.8838 30.2396 26.8838 30.2398 26.8838 30.2399C26.8838 30.2401 26.8838 30.2403 26.8838 30.2405C26.8838 30.2407 26.8838 30.2408 26.8838 30.241C26.8838 30.2412 26.8838 30.2414 26.8838 30.2416C26.8838 30.2417 26.8838 30.2419 26.8838 30.2421C26.8838 30.2423 26.8838 30.2425 26.8838 30.2426C26.8838 30.2428 26.8838 30.243 26.8838 30.2432C26.8838 30.2433 26.8838 30.2435 26.8838 30.2437C26.8838 30.2439 26.8838 30.2441 26.8838 30.2442C26.8838 30.2444 26.8838 30.2446 26.8838 30.2448C26.8838 30.245 26.8838 30.2451 26.8838 30.2453C26.8838 30.2455 26.8838 30.2457 26.8838 30.2459C26.8838 30.246 26.8838 30.2462 26.8838 30.2464C26.8838 30.2466 26.8838 30.2468 26.8838 30.2469C26.8838 30.2471 26.8838 30.2473 26.8838 30.2475C26.8838 30.2477 26.8838 30.2478 26.8838 30.248C26.8838 30.2482 26.8838 30.2484 26.8838 30.2486C26.8838 30.2487 26.8838 30.2489 26.8838 30.2491C26.8838 30.2493 26.8838 30.2495 26.8838 30.2496C26.8838 30.2498 26.8838 30.25 26.8838 30.2502C26.8838 30.2504 26.8838 30.2505 26.8838 30.2507C26.8838 30.2509 26.8838 30.2511 26.8838 30.2513C26.8838 30.2514 26.8838 30.2516 26.8838 30.2518C26.8838 30.252 26.8838 30.2522 26.8838 30.2524C26.8838 30.2525 26.8838 30.2527 26.8838 30.2529C26.8838 30.2531 26.8838 30.2533 26.8838 30.2534C26.8838 30.2536 26.8838 30.2538 26.8838 30.254C26.8838 30.2542 26.8838 30.2543 26.8838 30.2545C26.8838 30.2547 26.8838 30.2549 26.8838 30.2551C26.8838 30.2552 26.8838 30.2554 26.8838 30.2556C26.8838 30.2558 26.8838 30.256 26.8838 30.2561C26.8838 30.2563 26.8838 30.2565 26.8838 30.2567C26.8838 30.2569 26.8838 30.2571 26.8838 30.2572C26.8838 30.2574 26.8838 30.2576 26.8838 30.2578C26.8838 30.258 26.8838 30.2581 26.8838 30.2583C26.8838 30.2585 26.8838 30.2587 26.8838 30.2589C26.8838 30.259 26.8838 30.2592 26.8838 30.2594C26.8838 30.2596 26.8838 30.2598 26.8838 30.26C26.8838 30.2601 26.8838 30.2603 26.8838 30.2605C26.8838 30.2607 26.8838 30.2609 26.8838 30.261C26.8838 30.2612 26.8838 30.2614 26.8838 30.2616C26.8838 30.2618 26.8838 30.2619 26.8838 30.2621C26.8838 30.2623 26.8838 30.2625 26.8838 30.2627C26.8838 30.2629 26.8838 30.263 26.8838 30.2632C26.8838 30.2634 26.8838 30.2636 26.8838 30.2638C26.8838 30.2639 26.8838 30.2641 26.8838 30.2643C26.8838 30.2645 26.8838 30.2647 26.8838 30.2649C26.8838 30.265 26.8838 30.2652 26.8838 30.2654C26.8838 30.2656 26.8838 30.2658 26.8838 30.2659C26.8838 30.2661 26.8838 30.2663 26.8838 30.2665C26.8838 30.2667 26.8838 30.2669 26.8838 30.267C26.8838 30.2672 26.8838 30.2674 26.8838 30.2676C26.8838 30.2678 26.8838 30.2679 26.8838 30.2681C26.8838 30.2683 26.8838 30.2685 26.8838 30.2687C26.8838 30.2689 26.8838 30.269 26.8838 30.2692C26.8838 30.2694 26.8838 30.2696 26.8838 30.2698C26.8838 30.2699 26.8838 30.2701 26.8838 30.2703C26.8838 30.2705 26.8838 30.2707 26.8838 30.2709C26.8838 30.271 26.8838 30.2712 26.8838 30.2714C26.8838 30.2716 26.8838 30.2718 26.8838 30.272C26.8838 30.2721 26.8838 30.2723 26.8838 30.2725C26.8838 30.2727 26.8838 30.2729 26.8838 30.273C26.8838 30.2732 26.8838 30.2734 26.8838 30.2736C26.8838 30.2738 26.8838 30.274 26.8838 30.2741C26.8838 30.2743 26.8838 30.2745 26.8838 30.2747C26.8838 30.2749 26.8838 30.2751 26.8838 30.2752C26.8838 30.2754 26.8838 30.2756 26.8838 30.2758C26.8838 30.276 26.8838 30.2761 26.8838 30.2763C26.8838 30.2765 26.8838 30.2767 26.8838 30.2769C26.8838 30.2771 26.8838 30.2772 26.8838 30.2774C26.8838 30.2776 26.8838 30.2778 26.8838 30.278C26.8838 30.2782 26.8838 30.2783 26.8838 30.2785C26.8838 30.2787 26.8838 30.2789 26.8838 30.2791C26.8838 30.2793 26.8838 30.2794 26.8838 30.2796C26.8838 30.2798 26.8838 30.28 26.8838 30.2802C26.8838 30.2803 26.8838 30.2805 26.8838 30.2807C26.8838 30.2809 26.8838 30.2811 26.8838 30.2813C26.8838 30.2814 26.8838 30.2816 26.8838 30.2818C26.8838 30.282 26.8838 30.2822 26.8838 30.2824C26.8838 30.2825 26.8838 30.2827 26.8838 30.2829C26.8838 30.2831 26.8838 30.2833 26.8838 30.2835C26.8838 30.2836 26.8838 30.2838 26.8838 30.284C26.8838 30.2842 26.8838 30.2844 26.8838 30.2846C26.8838 30.2847 26.8838 30.2849 26.8838 30.2851C26.8838 30.2853 26.8838 30.2855 26.8838 30.2856C26.8838 30.2858 26.8838 30.286 26.8838 30.2862C26.8838 30.2864 26.8838 30.2866 26.8838 30.2867C26.8838 30.2869 26.8838 30.2871 26.8838 30.2873C26.8838 30.2875 26.8838 30.2877 26.8838 30.2878C26.8838 30.288 26.8838 30.2882 26.8838 30.2884C26.8838 30.2886 26.8838 30.2888 26.8838 30.2889C26.8838 30.2891 26.8838 30.2893 26.8838 30.2895C26.8838 30.2897 26.8838 30.2899 26.8838 30.29C26.8838 30.2902 26.8838 30.2904 26.8838 30.2906C26.8838 30.2908 26.8838 30.291 26.8838 30.2911C26.8838 30.2913 26.8838 30.2915 26.8838 30.2917C26.8838 30.2919 26.8838 30.2921 26.8838 30.2922C26.8838 30.2924 26.8838 30.2926 26.8838 30.2928C26.8838 30.293 26.8838 30.2932 26.8838 30.2933C26.8838 30.2935 26.8838 30.2937 26.8838 30.2939C26.8838 30.2941 26.8838 30.2943 26.8838 30.2944C26.8838 30.2946 26.8838 30.2948 26.8838 30.295C26.8838 30.2952 26.8838 30.2953 26.8838 30.2955C26.8838 30.2957 26.8838 30.2959 26.8838 30.2961C26.8838 30.2963 26.8838 30.2964 26.8838 30.2966C26.8838 30.2968 26.8838 30.297 26.8838 30.2972C26.8838 30.2974 26.8838 30.2975 26.8838 30.2977C26.8838 30.2979 26.8838 30.2981 26.8838 30.2983C26.8838 30.2985 26.8838 30.2986 26.8838 30.2988H27.8838H28.8838C28.8838 30.2986 28.8838 30.2985 28.8838 30.2983C28.8838 30.2981 28.8838 30.2979 28.8838 30.2977C28.8838 30.2975 28.8838 30.2974 28.8838 30.2972C28.8838 30.297 28.8838 30.2968 28.8838 30.2966C28.8838 30.2964 28.8838 30.2963 28.8838 30.2961C28.8838 30.2959 28.8838 30.2957 28.8838 30.2955C28.8838 30.2953 28.8838 30.2952 28.8838 30.295C28.8838 30.2948 28.8838 30.2946 28.8838 30.2944C28.8838 30.2943 28.8838 30.2941 28.8838 30.2939C28.8838 30.2937 28.8838 30.2935 28.8838 30.2933C28.8838 30.2932 28.8838 30.293 28.8838 30.2928C28.8838 30.2926 28.8838 30.2924 28.8838 30.2922C28.8838 30.2921 28.8838 30.2919 28.8838 30.2917C28.8838 30.2915 28.8838 30.2913 28.8838 30.2911C28.8838 30.291 28.8838 30.2908 28.8838 30.2906C28.8838 30.2904 28.8838 30.2902 28.8838 30.29C28.8838 30.2899 28.8838 30.2897 28.8838 30.2895C28.8838 30.2893 28.8838 30.2891 28.8838 30.2889C28.8838 30.2888 28.8838 30.2886 28.8838 30.2884C28.8838 30.2882 28.8838 30.288 28.8838 30.2878C28.8838 30.2877 28.8838 30.2875 28.8838 30.2873C28.8838 30.2871 28.8838 30.2869 28.8838 30.2867C28.8838 30.2866 28.8838 30.2864 28.8838 30.2862C28.8838 30.286 28.8838 30.2858 28.8838 30.2856C28.8838 30.2855 28.8838 30.2853 28.8838 30.2851C28.8838 30.2849 28.8838 30.2847 28.8838 30.2846C28.8838 30.2844 28.8838 30.2842 28.8838 30.284C28.8838 30.2838 28.8838 30.2836 28.8838 30.2835C28.8838 30.2833 28.8838 30.2831 28.8838 30.2829C28.8838 30.2827 28.8838 30.2825 28.8838 30.2824C28.8838 30.2822 28.8838 30.282 28.8838 30.2818C28.8838 30.2816 28.8838 30.2814 28.8838 30.2813C28.8838 30.2811 28.8838 30.2809 28.8838 30.2807C28.8838 30.2805 28.8838 30.2803 28.8838 30.2802C28.8838 30.28 28.8838 30.2798 28.8838 30.2796C28.8838 30.2794 28.8838 30.2793 28.8838 30.2791C28.8838 30.2789 28.8838 30.2787 28.8838 30.2785C28.8838 30.2783 28.8838 30.2782 28.8838 30.278C28.8838 30.2778 28.8838 30.2776 28.8838 30.2774C28.8838 30.2772 28.8838 30.2771 28.8838 30.2769C28.8838 30.2767 28.8838 30.2765 28.8838 30.2763C28.8838 30.2761 28.8838 30.276 28.8838 30.2758C28.8838 30.2756 28.8838 30.2754 28.8838 30.2752C28.8838 30.2751 28.8838 30.2749 28.8838 30.2747C28.8838 30.2745 28.8838 30.2743 28.8838 30.2741C28.8838 30.274 28.8838 30.2738 28.8838 30.2736C28.8838 30.2734 28.8838 30.2732 28.8838 30.273C28.8838 30.2729 28.8838 30.2727 28.8838 30.2725C28.8838 30.2723 28.8838 30.2721 28.8838 30.272C28.8838 30.2718 28.8838 30.2716 28.8838 30.2714C28.8838 30.2712 28.8838 30.271 28.8838 30.2709C28.8838 30.2707 28.8838 30.2705 28.8838 30.2703C28.8838 30.2701 28.8838 30.2699 28.8838 30.2698C28.8838 30.2696 28.8838 30.2694 28.8838 30.2692C28.8838 30.269 28.8838 30.2689 28.8838 30.2687C28.8838 30.2685 28.8838 30.2683 28.8838 30.2681C28.8838 30.2679 28.8838 30.2678 28.8838 30.2676C28.8838 30.2674 28.8838 30.2672 28.8838 30.267C28.8838 30.2669 28.8838 30.2667 28.8838 30.2665C28.8838 30.2663 28.8838 30.2661 28.8838 30.2659C28.8838 30.2658 28.8838 30.2656 28.8838 30.2654C28.8838 30.2652 28.8838 30.265 28.8838 30.2649C28.8838 30.2647 28.8838 30.2645 28.8838 30.2643C28.8838 30.2641 28.8838 30.2639 28.8838 30.2638C28.8838 30.2636 28.8838 30.2634 28.8838 30.2632C28.8838 30.263 28.8838 30.2629 28.8838 30.2627C28.8838 30.2625 28.8838 30.2623 28.8838 30.2621C28.8838 30.2619 28.8838 30.2618 28.8838 30.2616C28.8838 30.2614 28.8838 30.2612 28.8838 30.261C28.8838 30.2609 28.8838 30.2607 28.8838 30.2605C28.8838 30.2603 28.8838 30.2601 28.8838 30.26C28.8838 30.2598 28.8838 30.2596 28.8838 30.2594C28.8838 30.2592 28.8838 30.259 28.8838 30.2589C28.8838 30.2587 28.8838 30.2585 28.8838 30.2583C28.8838 30.2581 28.8838 30.258 28.8838 30.2578C28.8838 30.2576 28.8838 30.2574 28.8838 30.2572C28.8838 30.2571 28.8838 30.2569 28.8838 30.2567C28.8838 30.2565 28.8838 30.2563 28.8838 30.2561C28.8838 30.256 28.8838 30.2558 28.8838 30.2556C28.8838 30.2554 28.8838 30.2552 28.8838 30.2551C28.8838 30.2549 28.8838 30.2547 28.8838 30.2545C28.8838 30.2543 28.8838 30.2542 28.8838 30.254C28.8838 30.2538 28.8838 30.2536 28.8838 30.2534C28.8838 30.2533 28.8838 30.2531 28.8838 30.2529C28.8838 30.2527 28.8838 30.2525 28.8838 30.2524C28.8838 30.2522 28.8838 30.252 28.8838 30.2518C28.8838 30.2516 28.8838 30.2514 28.8838 30.2513C28.8838 30.2511 28.8838 30.2509 28.8838 30.2507C28.8838 30.2505 28.8838 30.2504 28.8838 30.2502C28.8838 30.25 28.8838 30.2498 28.8838 30.2496C28.8838 30.2495 28.8838 30.2493 28.8838 30.2491C28.8838 30.2489 28.8838 30.2487 28.8838 30.2486C28.8838 30.2484 28.8838 30.2482 28.8838 30.248C28.8838 30.2478 28.8838 30.2477 28.8838 30.2475C28.8838 30.2473 28.8838 30.2471 28.8838 30.2469C28.8838 30.2468 28.8838 30.2466 28.8838 30.2464C28.8838 30.2462 28.8838 30.246 28.8838 30.2459C28.8838 30.2457 28.8838 30.2455 28.8838 30.2453C28.8838 30.2451 28.8838 30.245 28.8838 30.2448C28.8838 30.2446 28.8838 30.2444 28.8838 30.2442C28.8838 30.2441 28.8838 30.2439 28.8838 30.2437C28.8838 30.2435 28.8838 30.2433 28.8838 30.2432C28.8838 30.243 28.8838 30.2428 28.8838 30.2426C28.8838 30.2425 28.8838 30.2423 28.8838 30.2421C28.8838 30.2419 28.8838 30.2417 28.8838 30.2416C28.8838 30.2414 28.8838 30.2412 28.8838 30.241C28.8838 30.2408 28.8838 30.2407 28.8838 30.2405C28.8838 30.2403 28.8838 30.2401 28.8838 30.2399C28.8838 30.2398 28.8838 30.2396 28.8838 30.2394C28.8838 30.2392 28.8838 30.239 28.8838 30.2389C28.8838 30.2387 28.8838 30.2385 28.8838 30.2383C28.8838 30.2382 28.8838 30.238 28.8838 30.2378C28.8838 30.2376 28.8838 30.2374 28.8838 30.2373C28.8838 30.2371 28.8838 30.2369 28.8838 30.2367C28.8838 30.2365 28.8838 30.2364 28.8838 30.2362C28.8838 30.236 28.8838 30.2358 28.8838 30.2357C28.8838 30.2355 28.8838 30.2353 28.8838 30.2351C28.8838 30.2349 28.8838 30.2348 28.8838 30.2346C28.8838 30.2344 28.8838 30.2342 28.8838 30.234C28.8838 30.2339 28.8838 30.2337 28.8838 30.2335C28.8838 30.2333 28.8838 30.2332 28.8838 30.233C28.8838 30.2328 28.8838 30.2326 28.8838 30.2324C28.8838 30.2323 28.8838 30.2321 28.8838 30.2319C28.8838 30.2317 28.8838 30.2316 28.8838 30.2314C28.8838 30.2312 28.8838 30.231 28.8838 30.2308C28.8838 30.2307 28.8838 30.2305 28.8838 30.2303C28.8838 30.2301 28.8838 30.23 28.8838 30.2298C28.8838 30.2296 28.8838 30.2294 28.8838 30.2292C28.8838 30.2291 28.8838 30.2289 28.8838 30.2287C28.8838 30.2285 28.8838 30.2284 28.8838 30.2282C28.8838 30.228 28.8838 30.2278 28.8838 30.2277C28.8838 30.2275 28.8838 30.2273 28.8838 30.2271C28.8838 30.2269 28.8838 30.2268 28.8838 30.2266C28.8838 30.2264 28.8838 30.2262 28.8838 30.2261C28.8838 30.2259 28.8838 30.2257 28.8838 30.2255C28.8838 30.2254 28.8838 30.2252 28.8838 30.225C28.8838 30.2248 28.8838 30.2246 28.8838 30.2245C28.8838 30.2243 28.8838 30.2241 28.8838 30.2239C28.8838 30.2238 28.8838 30.2236 28.8838 30.2234C28.8838 30.2232 28.8838 30.2231 28.8838 30.2229C28.8838 30.2227 28.8838 30.2225 28.8838 30.2224C28.8838 30.2222 28.8838 30.222 28.8838 30.2218C28.8838 30.2216 28.8838 30.2215 28.8838 30.2213C28.8838 30.2211 28.8838 30.2209 28.8838 30.2208C28.8838 30.2206 28.8838 30.2204 28.8838 30.2202C28.8838 30.2201 28.8838 30.2199 28.8838 30.2197C28.8838 30.2195 28.8838 30.2194 28.8838 30.2192C28.8838 30.219 28.8838 30.2188 28.8838 30.2187C28.8838 30.2185 28.8838 30.2183 28.8838 30.2181C28.8838 30.218 28.8838 30.2178 28.8838 30.2176C28.8838 30.2174 28.8838 30.2173 28.8838 30.2171C28.8838 30.2169 28.8838 30.2167 28.8838 30.2166C28.8838 30.2164 28.8838 30.2162 28.8838 30.216C28.8838 30.2159 28.8838 30.2157 28.8838 30.2155C28.8838 30.2153 28.8838 30.2152 28.8838 30.215C28.8838 30.2148 28.8838 30.2146 28.8838 30.2145C28.8838 30.2143 28.8838 30.2141 28.8838 30.2139C28.8838 30.2138 28.8838 30.2136 28.8838 30.2134C28.8838 30.2132 28.8838 30.2131 28.8838 30.2129C28.8838 30.2127 28.8838 30.2125 28.8838 30.2124C28.8838 30.2122 28.8838 30.212 28.8838 30.2118C28.8838 30.2117 28.8838 30.2115 28.8838 30.2113C28.8838 30.2111 28.8838 30.211 28.8838 30.2108C28.8838 30.2106 28.8838 30.2105 28.8838 30.2103C28.8838 30.2101 28.8838 30.2099 28.8838 30.2098C28.8838 30.2096 28.8838 30.2094 28.8838 30.2092C28.8838 30.2091 28.8838 30.2089 28.8838 30.2087C28.8838 30.2085 28.8838 30.2084 28.8838 30.2082C28.8838 30.208 28.8838 30.2079 28.8838 30.2077C28.8838 30.2075 28.8838 30.2073 28.8838 30.2072C28.8838 30.207 28.8838 30.2068 28.8838 30.2066C28.8838 30.2065 28.8838 30.2063 28.8838 30.2061C28.8838 30.206 28.8838 30.2058 28.8838 30.2056C28.8838 30.2054 28.8838 30.2053 28.8838 30.2051C28.8838 30.2049 28.8838 30.2047 28.8838 30.2046C28.8838 30.2044 28.8838 30.2042 28.8838 30.2041C28.8838 30.2039 28.8838 30.2037 28.8838 30.2035C28.8838 30.2034 28.8838 30.2032 28.8838 30.203C28.8838 30.2028 28.8838 30.2027 28.8838 30.2025C28.8838 30.2023 28.8838 30.2022 28.8838 30.202C28.8838 30.2018 28.8838 30.2016 28.8838 30.2015C28.8838 30.2013 28.8838 30.2011 28.8838 30.201C28.8838 30.2008 28.8838 30.2006 28.8838 30.2004C28.8838 30.2003 28.8838 30.2001 28.8838 30.1999C28.8838 30.1998 28.8838 30.1996 28.8838 30.1994C28.8838 30.1992 28.8838 30.1991 28.8838 30.1989C28.8838 30.1987 28.8838 30.1986 28.8838 30.1984C28.8838 30.1982 28.8838 30.198 28.8838 30.1979C28.8838 30.1977 28.8838 30.1975 28.8838 30.1974C28.8838 30.1972 28.8838 30.197 28.8838 30.1969C28.8838 30.1967 28.8838 30.1965 28.8838 30.1963C28.8838 30.1962 28.8838 30.196 28.8838 30.1958C28.8838 30.1957 28.8838 30.1955 28.8838 30.1953C28.8838 30.1952 28.8838 30.195 28.8838 30.1948C28.8838 30.1946 28.8838 30.1945 28.8838 30.1943C28.8838 30.1941 28.8838 30.194 28.8838 30.1938C28.8838 30.1936 28.8838 30.1935 28.8838 30.1933C28.8838 30.1931 28.8838 30.1929 28.8838 30.1928C28.8838 30.1926 28.8838 30.1924 28.8838 30.1923C28.8838 30.1921 28.8838 30.1919 28.8838 30.1918C28.8838 30.1916 28.8838 30.1914 28.8838 30.1913C28.8838 30.1911 28.8838 30.1909 28.8838 30.1907C28.8838 30.1906 28.8838 30.1904 28.8838 30.1902C28.8838 30.1901 28.8838 30.1899 28.8838 30.1897C28.8838 30.1896 28.8838 30.1894 28.8838 30.1892C28.8838 30.1891 28.8838 30.1889 28.8838 30.1887C28.8838 30.1886 28.8838 30.1884 28.8838 30.1882C28.8838 30.188 28.8838 30.1879 28.8838 30.1877C28.8838 30.1875 28.8838 30.1874 28.8838 30.1872C28.8838 30.187 28.8838 30.1869 28.8838 30.1867C28.8838 30.1865 28.8838 30.1864 28.8838 30.1862C28.8838 30.186 28.8838 30.1859 28.8838 30.1857C28.8838 30.1855 28.8838 30.1854 28.8838 30.1852C28.8838 30.185 28.8838 30.1849 28.8838 30.1847C28.8838 30.1845 28.8838 30.1844 28.8838 30.1842C28.8838 30.184 28.8838 30.1839 28.8838 30.1837C28.8838 30.1835 28.8838 30.1834 28.8838 30.1832C28.8838 30.183 28.8838 30.1829 28.8838 30.1827C28.8838 30.1825 28.8838 30.1824 28.8838 30.1822C28.8838 30.182 28.8838 30.1819 28.8838 30.1817C28.8838 30.1815 28.8838 30.1814 28.8838 30.1812C28.8838 30.181 28.8838 30.1809 28.8838 30.1807C28.8838 30.1805 28.8838 30.1804 28.8838 30.1802C28.8838 30.18 28.8838 30.1799 28.8838 30.1797C28.8838 30.1795 28.8838 30.1794 28.8838 30.1792C28.8838 30.179 28.8838 30.1789 28.8838 30.1787C28.8838 30.1785 28.8838 30.1784 28.8838 30.1782C28.8838 30.1781 28.8838 30.1779 28.8838 30.1777C28.8838 30.1776 28.8838 30.1774 28.8838 30.1772C28.8838 30.1771 28.8838 30.1769 28.8838 30.1767C28.8838 30.1766 28.8838 30.1764 28.8838 30.1762C28.8838 30.1761 28.8838 30.1759 28.8838 30.1757C28.8838 30.1756 28.8838 30.1754 28.8838 30.1753C28.8838 30.1751 28.8838 30.1749 28.8838 30.1748C28.8838 30.1746 28.8838 30.1744 28.8838 30.1743C28.8838 30.1741 28.8838 30.1739 28.8838 30.1738C28.8838 30.1736 28.8838 30.1735 28.8838 30.1733C28.8838 30.1731 28.8838 30.173 28.8838 30.1728C28.8838 30.1726 28.8838 30.1725 28.8838 30.1723C28.8838 30.1721 28.8838 30.172 28.8838 30.1718C28.8838 30.1717 28.8838 30.1715 28.8838 30.1713C28.8838 30.1712 28.8838 30.171 28.8838 30.1708C28.8838 30.1707 28.8838 30.1705 28.8838 30.1704C28.8838 30.1702 28.8838 30.17 28.8838 30.1699C28.8838 30.1697 28.8838 30.1695 28.8838 30.1694C28.8838 30.1692 28.8838 30.1691 28.8838 30.1689C28.8838 30.1687 28.8838 30.1686 28.8838 30.1684C28.8838 30.1682 28.8838 30.1681 28.8838 30.1679C28.8838 30.1678 28.8838 30.1676 28.8838 30.1674C28.8838 30.1673 28.8838 30.1671 28.8838 30.167C28.8838 30.1668 28.8838 30.1666 28.8838 30.1665C28.8838 30.1663 28.8838 30.1662 28.8838 30.166C28.8838 30.1658 28.8838 30.1657 28.8838 30.1655C28.8838 30.1653 28.8838 30.1652 28.8838 30.165C28.8838 30.1649 28.8838 30.1647 28.8838 30.1645C28.8838 30.1644 28.8838 30.1642 28.8838 30.1641C28.8838 30.1639 28.8838 30.1637 28.8838 30.1636C28.8838 30.1634 28.8838 30.1633 28.8838 30.1631C28.8838 30.1629 28.8838 30.1628 28.8838 30.1626C28.8838 30.1625 28.8838 30.1623 28.8838 30.1621C28.8838 30.162 28.8838 30.1618 28.8838 30.1617C28.8838 30.1615 28.8838 30.1613 28.8838 30.1612C28.8838 30.161 28.8838 30.1609 28.8838 30.1607C28.8838 30.1606 28.8838 30.1604 28.8838 30.1602C28.8838 30.1601 28.8838 30.1599 28.8838 30.1598C28.8838 30.1596 28.8838 30.1594 28.8838 30.1593C28.8838 30.1591 28.8838 30.159 28.8838 30.1588C28.8838 30.1586 28.8838 30.1585 28.8838 30.1583C28.8838 30.1582 28.8838 30.158 28.8838 30.1579C28.8838 30.1577 28.8838 30.1575 28.8838 30.1574C28.8838 30.1572 28.8838 30.1571 28.8838 30.1569C28.8838 30.1568 28.8838 30.1566 28.8838 30.1564C28.8838 30.1563 28.8838 30.1561 28.8838 30.156C28.8838 30.1558 28.8838 30.1557 28.8838 30.1555C28.8838 30.1553 28.8838 30.1552 28.8838 30.155C28.8838 30.1549 28.8838 30.1547 28.8838 30.1546C28.8838 30.1544 28.8838 30.1542 28.8838 30.1541C28.8838 30.1539 28.8838 30.1538 28.8838 30.1536C28.8838 30.1535 28.8838 30.1533 28.8838 30.1532C28.8838 30.153 28.8838 30.1528 28.8838 30.1527C28.8838 30.1525 28.8838 30.1524 28.8838 30.1522C28.8838 30.1521 28.8838 30.1519 28.8838 30.1518C28.8838 30.1516 28.8838 30.1514 28.8838 30.1513C28.8838 30.1511 28.8838 30.151 28.8838 30.1508C28.8838 30.1507 28.8838 30.1505 28.8838 30.1504C28.8838 30.1502 28.8838 30.15 28.8838 30.1499C28.8838 30.1497 28.8838 30.1496 28.8838 30.1494C28.8838 30.1493 28.8838 30.1491 28.8838 30.149C28.8838 30.1488 28.8838 30.1487 28.8838 30.1485C28.8838 30.1484 28.8838 30.1482 28.8838 30.148C28.8838 30.1479 28.8838 30.1477 28.8838 30.1476C28.8838 30.1474 28.8838 30.1473 28.8838 30.1471C28.8838 30.147 28.8838 30.1468 28.8838 30.1467C28.8838 30.1465 28.8838 30.1464 28.8838 30.1462C28.8838 30.1461 28.8838 30.1459 28.8838 30.1457C28.8838 30.1456 28.8838 30.1454 28.8838 30.1453C28.8838 30.1451 28.8838 30.145 28.8838 30.1448C28.8838 30.1447 28.8838 30.1445 28.8838 30.1444C28.8838 30.1442 28.8838 30.1441 28.8838 30.1439C28.8838 30.1438 28.8838 30.1436 28.8838 30.1435C28.8838 30.1433 28.8838 30.1432 28.8838 30.143C28.8838 30.1429 28.8838 30.1427 28.8838 30.1426C28.8838 30.1424 28.8838 30.1423 28.8838 30.1421C28.8838 30.1419 28.8838 30.1418 28.8838 30.1416C28.8838 30.1415 28.8838 30.1413 28.8838 30.1412C28.8838 30.141 28.8838 30.1409 28.8838 30.1407C28.8838 30.1406 28.8838 30.1404 28.8838 30.1403C28.8838 30.1401 28.8838 30.14 28.8838 30.1398C28.8838 30.1397 28.8838 30.1395 28.8838 30.1394C28.8838 30.1392 28.8838 30.1391 28.8838 30.1389C28.8838 30.1388 28.8838 30.1386 28.8838 30.1385C28.8838 30.1383 28.8838 30.1382 28.8838 30.138C28.8838 30.1379 28.8838 30.1378 28.8838 30.1376C28.8838 30.1375 28.8838 30.1373 28.8838 30.1372C28.8838 30.137 28.8838 30.1369 28.8838 30.1367C28.8838 30.1366 28.8838 30.1364 28.8838 30.1363C28.8838 30.1361 28.8838 30.136 28.8838 30.1358C28.8838 30.1357 28.8838 30.1355 28.8838 30.1354C28.8838 30.1352 28.8838 30.1351 28.8838 30.1349C28.8838 30.1348 28.8838 30.1346 28.8838 30.1345C28.8838 30.1343 28.8838 30.1342 28.8838 30.134C28.8838 30.1339 28.8838 30.1338 28.8838 30.1336C28.8838 30.1335 28.8838 30.1333 28.8838 30.1332C28.8838 30.133 28.8838 30.1329 28.8838 30.1327C28.8838 30.1326 28.8838 30.1324 28.8838 30.1323C28.8838 30.1321 28.8838 30.132 28.8838 30.1319C28.8838 30.1317 28.8838 30.1316 28.8838 30.1314C28.8838 30.1313 28.8838 30.1311 28.8838 30.131C28.8838 30.1308 28.8838 30.1307 28.8838 30.1305C28.8838 30.1304 28.8838 30.1302 28.8838 30.1301C28.8838 30.13 28.8838 30.1298 28.8838 30.1297C28.8838 30.1295 28.8838 30.1294 28.8838 30.1292C28.8838 30.1291 28.8838 30.1289 28.8838 30.1288C28.8838 30.1287 28.8838 30.1285 28.8838 30.1284C28.8838 30.1282 28.8838 30.1281 28.8838 30.1279C28.8838 30.1278 28.8838 30.1276 28.8838 30.1275C28.8838 30.1274 28.8838 30.1272 28.8838 30.1271C28.8838 30.1269 28.8838 30.1268 28.8838 30.1266C28.8838 30.1265 28.8838 30.1264 28.8838 30.1262C28.8838 30.1261 28.8838 30.1259 28.8838 30.1258C28.8838 30.1256 28.8838 30.1255 28.8838 30.1254C28.8838 30.1252 28.8838 30.1251 28.8838 30.1249C28.8838 30.1248 28.8838 30.1246 28.8838 30.1245C28.8838 30.1244 28.8838 30.1242 28.8838 30.1241C28.8838 30.1239 28.8838 30.1238 28.8838 30.1237C28.8838 30.1235 28.8838 30.1234 28.8838 30.1232C28.8838 30.1231 28.8838 30.1229 28.8838 30.1228C28.8838 30.1227 28.8838 30.1225 28.8838 30.1224C28.8838 30.1222 28.8838 30.1221 28.8838 30.122C28.8838 30.1218 28.8838 30.1217 28.8838 30.1215C28.8838 30.1214 28.8838 30.1213 28.8838 30.1211C28.8838 30.121 28.8838 30.1208 28.8838 30.1207C28.8838 30.1206 28.8838 30.1204 28.8838 30.1203C28.8838 30.1201 28.8838 30.12 28.8838 30.1199C28.8838 30.1197 28.8838 30.1196 28.8838 30.1194C28.8838 30.1193 28.8838 30.1192 28.8838 30.119C28.8838 30.1189 28.8838 30.1188 28.8838 30.1186C28.8838 30.1185 28.8838 30.1183 28.8838 30.1182C28.8838 30.1181 28.8838 30.1179 28.8838 30.1178C28.8838 30.1176 28.8838 30.1175 28.8838 30.1174C28.8838 30.1172 28.8838 30.1171 28.8838 30.117C28.8838 30.1168 28.8838 30.1167 28.8838 30.1165C28.8838 30.1164 28.8838 30.1163 28.8838 30.1161C28.8838 30.116 28.8838 30.1159 28.8838 30.1157C28.8838 30.1156 28.8838 30.1154 28.8838 30.1153C28.8838 30.1152 28.8838 30.115 28.8838 30.1149C28.8838 30.1148 28.8838 30.1146 28.8838 30.1145C28.8838 30.1144 28.8838 30.1142 28.8838 30.1141C28.8838 30.1139 28.8838 30.1138 28.8838 30.1137C28.8838 30.1135 28.8838 30.1134 28.8838 30.1133C28.8838 30.1131 28.8838 30.113 28.8838 30.1129C28.8838 30.1127 28.8838 30.1126 28.8838 30.1125C28.8838 30.1123 28.8838 30.1122 28.8838 30.1121C28.8838 30.1119 28.8838 30.1118 28.8838 30.1117C28.8838 30.1115 28.8838 30.1114 28.8838 30.1113C28.8838 30.1111 28.8838 30.111 28.8838 30.1109C28.8838 30.1107 28.8838 30.1106 28.8838 30.1104C28.8838 30.1103 28.8838 30.1102 28.8838 30.11C28.8838 30.1099 28.8838 30.1098 28.8838 30.1097C28.8838 30.1095 28.8838 30.1094 28.8838 30.1093C28.8838 30.1091 28.8838 30.109 28.8838 30.1089C28.8838 30.1087 28.8838 30.1086 28.8838 30.1085C28.8838 30.1083 28.8838 30.1082 28.8838 30.1081C28.8838 30.1079 28.8838 30.1078 28.8838 30.1077C28.8838 30.1075 28.8838 30.1074 28.8838 30.1073C28.8838 30.1071 28.8838 30.107 28.8838 30.1069C28.8838 30.1067 28.8838 30.1066 28.8838 30.1065C28.8838 30.1064 28.8838 30.1062 28.8838 30.1061C28.8838 30.106 28.8838 30.1058 28.8838 30.1057C28.8838 30.1056 28.8838 30.1054 28.8838 30.1053C28.8838 30.1052 28.8838 30.1051 28.8838 30.1049C28.8838 30.1048 28.8838 30.1047 28.8838 30.1045C28.8838 30.1044 28.8838 30.1043 28.8838 30.1041C28.8838 30.104 28.8838 30.1039 28.8838 30.1038C28.8838 30.1036 28.8838 30.1035 28.8838 30.1034C28.8838 30.1032 28.8838 30.1031 28.8838 30.103C28.8838 30.1029 28.8838 30.1027 28.8838 30.1026C28.8838 30.1025 28.8838 30.1023 28.8838 30.1022C28.8838 30.1021 28.8838 30.102 28.8838 30.1018C28.8838 30.1017 28.8838 30.1016 28.8838 30.1015C28.8838 30.1013 28.8838 30.1012 28.8838 30.1011C28.8838 30.1009 28.8838 30.1008 28.8838 30.1007C28.8838 30.1006 28.8838 30.1004 28.8838 30.1003C28.8838 30.1002 28.8838 30.1001 28.8838 30.0999C28.8838 30.0998 28.8838 30.0997 28.8838 30.0996C28.8838 30.0994 28.8838 30.0993 28.8838 30.0992C28.8838 30.0991 28.8838 30.0989 28.8838 30.0988C28.8838 30.0987 28.8838 30.0986 28.8838 30.0984C28.8838 30.0983 28.8838 30.0982 28.8838 30.0981C28.8838 30.0979 28.8838 30.0978 28.8838 30.0977C28.8838 30.0976 28.8838 30.0974 28.8838 30.0973C28.8838 30.0972 28.8838 30.0971 28.8838 30.0969C28.8838 30.0968 28.8838 30.0967 28.8838 30.0966C28.8838 30.0964 28.8838 30.0963 28.8838 30.0962C28.8838 30.0961 28.8838 30.0959 28.8838 30.0958C28.8838 30.0957 28.8838 30.0956 28.8838 30.0955C28.8838 30.0953 28.8838 30.0952 28.8838 30.0951C28.8838 30.095 28.8838 30.0948 28.8838 30.0947C28.8838 30.0946 28.8838 30.0945 28.8838 30.0944C28.8838 30.0942 28.8838 30.0941 28.8838 30.094C28.8838 30.0939 28.8838 30.0937 28.8838 30.0936C28.8838 30.0935 28.8838 30.0934 28.8838 30.0933C28.8838 30.0931 28.8838 30.093 28.8838 30.0929C28.8838 30.0928 28.8838 30.0927 28.8838 30.0925C28.8838 30.0924 28.8838 30.0923 28.8838 30.0922C28.8838 30.0921 28.8838 30.0919 28.8838 30.0918C28.8838 30.0917 28.8838 30.0916 28.8838 30.0915C28.8838 30.0913 28.8838 30.0912 28.8838 30.0911C28.8838 30.091 28.8838 30.0909 28.8838 30.0907C28.8838 30.0906 28.8838 30.0905 28.8838 30.0904C28.8838 30.0903 28.8838 30.0902 28.8838 30.09C28.8838 30.0899 28.8838 30.0898 28.8838 30.0897C28.8838 30.0896 28.8838 30.0894 28.8838 30.0893C28.8838 30.0892 28.8838 30.0891 28.8838 30.089C28.8838 30.0889 28.8838 30.0887 28.8838 30.0886C28.8838 30.0885 28.8838 30.0884 28.8838 30.0883C28.8838 30.0882 28.8838 30.088 28.8838 30.0879C28.8838 30.0878 28.8838 30.0877 28.8838 30.0876C28.8838 30.0875 28.8838 30.0873 28.8838 30.0872C28.8838 30.0871 28.8838 30.087 28.8838 30.0869C28.8838 30.0868 28.8838 30.0866 28.8838 30.0865C28.8838 30.0864 28.8838 30.0863 28.8838 30.0862C28.8838 30.0861 28.8838 30.086 28.8838 30.0858C28.8838 30.0857 28.8838 30.0856 28.8838 30.0855C28.8838 30.0854 28.8838 30.0853 28.8838 30.0852C28.8838 30.085 28.8838 30.0849 28.8838 30.0848C28.8838 30.0847 28.8838 30.0846 28.8838 30.0845C28.8838 30.0844 28.8838 30.0842 28.8838 30.0841C28.8838 30.084 28.8838 30.0839 28.8838 30.0838C28.8838 30.0837 28.8838 30.0836 28.8838 30.0835C28.8838 30.0833 28.8838 30.0832 28.8838 30.0831C28.8838 30.083 28.8838 30.0829 28.8838 30.0828C28.8838 30.0827 28.8838 30.0826 28.8838 30.0825C28.8838 30.0823 28.8838 30.0822 28.8838 30.0821C28.8838 30.082 28.8838 30.0819 28.8838 30.0818C28.8838 30.0817 28.8838 30.0816 28.8838 30.0815C28.8838 30.0813 28.8838 30.0812 28.8838 30.0811C28.8838 30.081 28.8838 30.0809 28.8838 30.0808C28.8838 30.0807 28.8838 30.0806 28.8838 30.0805C28.8838 30.0804 28.8838 30.0802 28.8838 30.0801C28.8838 30.08 28.8838 30.0799 28.8838 30.0798C28.8838 30.0797 28.8838 30.0796 28.8838 30.0795C28.8838 30.0794 28.8838 30.0793 28.8838 30.0792C28.8838 30.0791 28.8838 30.0789 28.8838 30.0788C28.8838 30.0787 28.8838 30.0786 28.8838 30.0785C28.8838 30.0784 28.8838 30.0783 28.8838 30.0782C28.8838 30.0781 28.8838 30.078 28.8838 30.0779C28.8838 30.0778 28.8838 30.0777 28.8838 30.0775C28.8838 30.0774 28.8838 30.0773 28.8838 30.0772C28.8838 30.0771 28.8838 30.077 28.8838 30.0769C28.8838 30.0768 28.8838 30.0767 28.8838 30.0766C28.8838 30.0765 28.8838 30.0764 28.8838 30.0763C28.8838 30.0762 28.8838 30.0761 28.8838 30.076C28.8838 30.0759 28.8838 30.0758 28.8838 30.0756C28.8838 30.0755 28.8838 30.0754 28.8838 30.0753C28.8838 30.0752 28.8838 30.0751 28.8838 30.075C28.8838 30.0749 28.8838 30.0748 28.8838 30.0747C28.8838 30.0746 28.8838 30.0745 28.8838 30.0744C28.8838 30.0743 28.8838 30.0742 28.8838 30.0741C28.8838 30.074 28.8838 30.0739 28.8838 30.0738C28.8838 30.0737 28.8838 30.0736 28.8838 30.0735C28.8838 30.0734 28.8838 30.0733 28.8838 30.0732C28.8838 30.0731 28.8838 30.073 28.8838 30.0729C28.8838 30.0728 28.8838 30.0727 28.8838 30.0726C28.8838 30.0725 28.8838 30.0724 28.8838 30.0723C28.8838 30.0722 28.8838 30.0721 28.8838 30.072C28.8838 30.0719 28.8838 30.0717 28.8838 30.0716C28.8838 30.0715 28.8838 30.0714 28.8838 30.0713C28.8838 30.0712 28.8838 30.0711 28.8838 30.071C28.8838 30.071 28.8838 30.0709 28.8838 30.0708C28.8838 30.0707 28.8838 30.0706 28.8838 30.0705C28.8838 30.0704 28.8838 30.0703 28.8838 30.0702C28.8838 30.0701 28.8838 30.07 28.8838 30.0699C28.8838 30.0698 28.8838 30.0697 28.8838 30.0696C28.8838 30.0695 28.8838 30.0694 28.8838 30.0693C28.8838 30.0692 28.8838 30.0691 28.8838 30.069C28.8838 30.0689 28.8838 30.0688 28.8838 30.0687C28.8838 30.0686 28.8838 30.0685 28.8838 30.0684C28.8838 30.0683 28.8838 30.0682 28.8838 30.0681C28.8838 30.068 28.8838 30.0679 28.8838 30.0678C28.8838 30.0677 28.8838 30.0676 28.8838 30.0675C28.8838 30.0674 28.8838 30.0673 28.8838 30.0673C28.8838 30.0672 28.8838 30.0671 28.8838 30.067C28.8838 30.0669 28.8838 30.0668 28.8838 30.0667C28.8838 30.0666 28.8838 30.0665 28.8838 30.0664C28.8838 30.0663 28.8838 30.0662 28.8838 30.0661C28.8838 30.066 28.8838 30.0659 28.8838 30.0658C28.8838 30.0657 28.8838 30.0657 28.8838 30.0656C28.8838 30.0655 28.8838 30.0654 28.8838 30.0653C28.8838 30.0652 28.8838 30.0651 28.8838 30.065C28.8838 30.0649 28.8838 30.0648 28.8838 30.0647C28.8838 30.0646 28.8838 30.0645 28.8838 30.0645H27.8838ZM27.8838 30.2988L26.9032 30.1027C26.9025 30.1061 26.8998 30.1174 26.8936 30.1342C26.8875 30.1508 26.8802 30.1668 26.8728 30.1802C26.8652 30.194 26.8608 30.1993 26.8624 30.1973C26.8634 30.196 26.8672 30.1914 26.8742 30.1846C26.8811 30.1777 26.8924 30.1673 26.9088 30.1551L27.5088 30.9551L28.1088 31.7551C28.5557 31.4199 28.7872 30.8809 28.8644 30.4949L27.8838 30.2988ZM27.5088 30.9551L26.8017 30.248C26.6112 30.4384 26.4272 30.7093 26.3257 31.0138L27.2744 31.3301L28.2231 31.6463C28.2192 31.658 28.2163 31.664 28.2158 31.6649C28.2153 31.6659 28.2159 31.6647 28.2177 31.6619C28.2194 31.6591 28.2211 31.6568 28.222 31.6557C28.2231 31.6544 28.2214 31.6567 28.2159 31.6622L27.5088 30.9551ZM27.2744 31.3301L26.3327 30.9937L26.0983 31.65L27.04 31.9863L27.9818 32.3227L28.2161 31.6664L27.2744 31.3301ZM27.04 31.9863L26.1456 31.5391C26.0851 31.6602 25.8651 31.9346 25.536 32.2636L26.2431 32.9707L26.9503 33.6778C27.2775 33.3506 27.7137 32.875 27.9344 32.4335L27.04 31.9863ZM26.2431 32.9707L25.536 32.2636C25.4879 32.3118 25.445 32.3544 25.4006 32.3948C25.3543 32.4368 25.3254 32.4588 25.3134 32.4668L25.8681 33.2988L26.4228 34.1309C26.6605 33.9724 26.8708 33.7572 26.9503 33.6778L26.2431 32.9707ZM25.8681 33.2988L25.4968 32.3704C25.4338 32.3955 25.2523 32.4395 24.8838 32.4395V33.4395V34.4395C25.359 34.4395 25.8338 34.3896 26.2395 34.2273L25.8681 33.2988ZM23.3369 34.002L22.7122 34.7828C23.4732 35.3916 24.4476 35.4238 24.8838 35.4238V34.4238V33.4238C24.7053 33.4238 24.5141 33.4133 24.336 33.3754C24.156 33.3371 24.0358 33.2805 23.9616 33.2211L23.3369 34.002ZM24.8838 34.4238V35.4238C25.3199 35.4238 26.2944 35.3916 27.0553 34.7828L26.4306 34.002L25.806 33.2211C25.7317 33.2805 25.6116 33.3371 25.4315 33.3754C25.2534 33.4133 25.0622 33.4238 24.8838 33.4238V34.4238ZM26.4306 34.002L26.9853 34.834C27.2251 34.6741 27.4393 34.4543 27.5596 34.3341L26.8525 33.627L26.1454 32.9198C25.9844 33.0808 25.9174 33.1423 25.8759 33.1699L26.4306 34.002ZM26.8525 33.627L27.5596 34.3341C27.9815 33.9122 28.4202 33.3704 28.7111 32.847L27.8369 32.3613L26.9627 31.8757C26.7848 32.196 26.4735 32.5917 26.1454 32.9198L26.8525 33.627ZM27.8369 32.3613C28.8369 32.3613 28.8369 32.3618 28.8369 32.3623C28.8369 32.3625 28.8369 32.363 28.8369 32.3633C28.8369 32.3639 28.8369 32.3646 28.8369 32.3653C28.8369 32.3666 28.8369 32.3679 28.8369 32.3692C28.8368 32.3719 28.8368 32.3746 28.8368 32.3773C28.8367 32.3828 28.8365 32.3884 28.8364 32.3941C28.836 32.4056 28.8354 32.4177 28.8344 32.4306C28.8326 32.4559 28.8295 32.4855 28.824 32.5184C28.8138 32.5795 28.7916 32.6763 28.7372 32.7851C28.6808 32.8979 28.5805 33.0411 28.4114 33.1538C28.236 33.2708 28.047 33.3145 27.8838 33.3145V32.3145V31.3145C27.6971 31.3145 27.4906 31.364 27.302 31.4897C27.1197 31.6113 27.0106 31.7662 26.9483 31.8907C26.888 32.0112 26.8629 32.1197 26.8512 32.1896C26.845 32.2269 26.8415 32.2602 26.8395 32.2881C26.8385 32.3022 26.8379 32.3153 26.8375 32.3275C26.8373 32.3336 26.8371 32.3394 26.837 32.3451C26.837 32.3479 26.8369 32.3506 26.8369 32.3534C26.8369 32.3547 26.8369 32.3561 26.8369 32.3574C26.8369 32.358 26.8369 32.3587 26.8369 32.3594C26.8369 32.3597 26.8369 32.3602 26.8369 32.3603C26.8369 32.3608 26.8369 32.3613 27.8369 32.3613ZM27.8838 32.3145L28.8325 32.6307L29.0668 31.9276L28.1181 31.6113L27.1695 31.2951L26.9351 31.9982L27.8838 32.3145ZM28.1181 31.6113L28.7689 32.3706C29.3043 31.9117 29.6239 31.2266 29.7506 30.6564L28.7744 30.4395L27.7982 30.2225C27.7374 30.4961 27.5882 30.7485 27.4674 30.8521L28.1181 31.6113ZM28.7744 30.4395L29.7643 30.5809C29.8041 30.3026 29.968 29.3283 29.2471 28.6073L28.54 29.3145L27.8329 30.0216C27.8196 30.0082 27.8089 29.9914 27.8032 29.9781C27.7987 29.9677 27.8019 29.9701 27.8047 29.9938C27.8076 30.0183 27.8089 30.0556 27.8056 30.11C27.8022 30.1647 27.795 30.2241 27.7844 30.298L28.7744 30.4395ZM28.54 29.3145H29.54C29.54 28.7818 29.4276 27.9629 29.0594 27.2266L28.165 27.6738L27.2706 28.121C27.4649 28.5097 27.54 29.0033 27.54 29.3145H28.54ZM28.165 27.6738L29.0842 27.2799C28.8822 26.8086 28.433 26.1466 27.6375 25.8814L27.3213 26.8301L27.005 27.7788C27.0238 27.785 27.0623 27.8041 27.1138 27.8599C27.1668 27.9173 27.2139 27.993 27.2459 28.0677L28.165 27.6738ZM27.3213 26.8301L27.6724 25.8937C26.9784 25.6335 26.2036 25.7445 25.57 26.0965L26.0556 26.9707L26.5413 27.8449C26.7514 27.7281 26.9141 27.7454 26.9701 27.7664L27.3213 26.8301ZM26.0556 26.9707L26.149 25.9751C24.6015 25.83 23.2073 25.9017 22.1611 26.394L22.5869 27.2988L23.0127 28.2036C23.5602 27.946 24.5098 27.8302 25.9623 27.9663L26.0556 26.9707ZM22.5869 27.2988L22.1808 26.385C21.5899 26.6476 21.0186 27.1213 20.7081 27.7422L21.6025 28.1895L22.4969 28.6367C22.5615 28.5076 22.7402 28.325 22.993 28.2126L22.5869 27.2988ZM21.6025 28.1895L20.7343 27.6933C20.4542 28.1835 20.3358 28.7069 20.2805 29.204L21.2744 29.3145L22.2683 29.4249C22.3068 29.0783 22.3759 28.8517 22.4708 28.6856L21.6025 28.1895ZM21.2744 29.3145L20.5673 28.6073C19.8757 29.2989 19.9348 30.2111 20.0785 30.7142L21.04 30.4395L22.0015 30.1647C21.995 30.1419 21.9897 30.1149 21.9874 30.0871C21.985 30.0593 21.9862 30.0374 21.9884 30.0224C21.9905 30.008 21.993 30.004 21.9915 30.0073C21.9893 30.0119 21.9852 30.0178 21.9815 30.0216L21.2744 29.3145ZM21.04 30.4395L20.0638 30.6564C20.2011 31.274 20.5341 31.8633 20.9892 32.3184L21.6963 31.6113L22.4034 30.9042C22.2022 30.7031 22.0665 30.4486 22.0162 30.2225L21.04 30.4395ZM21.6963 31.6113L20.7476 31.9276L20.982 32.6307L21.9306 32.3145L22.8793 31.9982L22.645 31.2951L21.6963 31.6113ZM21.9306 32.3145C20.9306 32.3145 20.9306 32.3149 20.9306 32.3154C20.9306 32.3156 20.9306 32.3161 20.9306 32.3164C20.9306 32.3171 20.9307 32.3177 20.9307 32.3184C20.9307 32.3197 20.9307 32.3211 20.9307 32.3224C20.9307 32.3251 20.9307 32.3279 20.9308 32.3307C20.9309 32.3364 20.931 32.3422 20.9312 32.3483C20.9316 32.3604 20.9323 32.3736 20.9333 32.3877C20.9353 32.4156 20.9388 32.4489 20.945 32.4862C20.9566 32.5561 20.9818 32.6645 21.0421 32.7851C21.1043 32.9096 21.2134 33.0645 21.3957 33.1861C21.5843 33.3118 21.7908 33.3613 21.9775 33.3613V32.3613V31.3613C22.1408 31.3613 22.3297 31.405 22.5051 31.5219C22.6743 31.6347 22.7745 31.7779 22.8309 31.8907C22.8854 31.9995 22.9076 32.0963 22.9178 32.1574C22.9233 32.1903 22.9264 32.2199 22.9282 32.2452C22.9291 32.258 22.9297 32.2702 22.9301 32.2817C22.9303 32.2874 22.9304 32.293 22.9305 32.2985C22.9306 32.3012 22.9306 32.3039 22.9306 32.3065C22.9306 32.3079 22.9306 32.3092 22.9306 32.3105C22.9306 32.3112 22.9306 32.3118 22.9306 32.3125C22.9306 32.3128 22.9306 32.3133 22.9306 32.3135C22.9306 32.314 22.9306 32.3144 21.9306 32.3145ZM21.9775 32.3613L21.1034 32.847C21.3942 33.3704 21.8329 33.9122 22.2548 34.3341L22.9619 33.627L23.669 32.9198C23.3409 32.5917 23.0296 32.196 22.8517 31.8757L21.9775 32.3613ZM23.3369 34.002L23.8916 33.1699C23.8501 33.1423 23.7831 33.0808 23.6221 32.9198L22.915 33.627L22.2079 34.3341C22.3282 34.4543 22.5424 34.6741 22.7822 34.834L23.3369 34.002ZM22.915 33.627L22.2507 34.3744L22.6725 34.7494L23.3369 34.002L24.0013 33.2545L23.5794 32.8795L22.915 33.627Z" fill="#08526D" mask="url(#path-8-inside-3_4683_7721)"/>
<path d="M25.8213 44.4082C26.0088 42.2051 26.4775 39.3926 26.7588 38.6426C26.8994 38.1738 27.2744 37.752 27.7432 37.5645L32.8994 35.502L34.5869 38.127C34.7275 38.3613 34.9619 38.4551 35.1963 38.4551C35.4307 38.4551 35.7119 38.3145 35.8057 38.127L37.4932 35.502L42.6494 37.5645C43.1182 37.752 43.4932 38.1738 43.6338 38.6426C43.8682 39.4395 44.3369 42.252 44.5244 44.4082H25.8213Z" stroke="#08526D" stroke-miterlimit="10" stroke-linejoin="round"/>
<path d="M31.5557 30.0176C31.5557 29.6426 31.5088 28.752 31.5088 28.4238C31.5088 27.3926 31.79 25.2363 33.7119 25.2363C34.3213 25.2363 34.1807 24.8145 35.3525 24.8145C39.0088 24.8145 39.29 27.252 39.29 28.4238C39.2432 28.7051 39.2432 29.5957 39.2432 30.0176" stroke="#08526D" stroke-miterlimit="10" stroke-linejoin="round"/>
<path d="M35.1962 34.8926C35.3837 34.8926 35.5243 34.8926 35.665 34.8457C35.7118 34.8457 35.7587 34.8457 35.7587 34.8457C36.0868 34.7988 36.415 34.752 36.6962 34.5176C36.8368 34.377 37.0243 34.2832 37.165 34.1426C37.5868 33.7207 38.0087 33.252 38.1962 32.8301L38.4775 32.0332C38.5243 31.9395 38.5712 31.8926 38.6181 31.8457C39.1806 31.3301 39.5556 30.1582 38.8993 29.877C38.8993 29.877 38.665 30.0176 38.4306 29.7363C38.3368 29.5957 38.1962 29.3613 38.1493 29.0332C38.1493 28.9863 38.0556 28.9395 38.0087 28.9395C35.665 29.3145 33.8368 28.0957 33.2743 27.627C33.2275 27.5332 33.1806 27.5332 33.0868 27.5332C33.04 27.5332 32.9462 27.5801 32.9462 27.627C32.8993 27.9082 32.8056 28.1895 32.7587 28.4238C32.5712 29.0332 32.29 29.4551 31.915 29.8301C31.7275 30.0645 31.4462 29.8301 31.4462 29.8301C30.8368 30.1113 31.2118 31.2832 31.7275 31.7988C31.7743 31.8457 31.8212 31.9395 31.8681 31.9863L32.1493 32.7832C32.3837 33.2051 32.7587 33.6738 33.1806 34.0957C33.3212 34.2363 33.5087 34.377 33.6493 34.4707C33.9306 34.7051 34.2118 34.752 34.5868 34.7988C34.5868 34.7988 34.6337 34.7988 34.6806 34.7988C34.8681 34.8926 35.0087 34.8926 35.1962 34.8926Z" stroke="#08526D" stroke-miterlimit="10" stroke-linejoin="round"/>
<mask id="path-13-inside-4_4683_7721" fill="white">
<path d="M28.0713 34.4238C27.8838 34.33 27.6963 34.3769 27.5557 34.5175C27.04 34.9863 25.5869 35.6894 24.8369 35.6894C24.0869 35.6894 22.6807 35.0331 22.0713 34.5175C21.9775 34.3769 21.79 34.3769 21.6025 34.4238L18.3213 35.7363C17.8057 35.9706 17.4307 36.4394 17.2432 36.955C17.0088 37.6581 16.6338 39.9081 16.4932 41.6425V42.1581C16.4932 42.3925 16.6807 42.58 16.915 42.58H23.8994L24.04 41.6425H17.4775C17.665 39.8613 17.9932 37.8456 18.1807 37.2831C18.2744 37.0019 18.4619 36.7206 18.7432 36.6269L21.7432 35.4081C22.4932 35.9706 23.8994 36.6269 24.8838 36.6269C25.8213 36.6269 27.2275 36.0175 28.0244 35.4081L28.7275 35.7363L29.1025 34.8925L28.0713 34.4238Z"/>
</mask>
<path d="M28.0713 34.4238L27.6241 35.3182L27.6406 35.3265L27.6575 35.3341L28.0713 34.4238ZM27.5557 34.5175L28.2283 35.2575L28.2459 35.2415L28.2628 35.2246L27.5557 34.5175ZM22.0713 34.5175L21.2392 35.0722L21.3176 35.1897L21.4253 35.2809L22.0713 34.5175ZM21.6025 34.4238L21.36 33.4536L21.2942 33.4701L21.2311 33.4953L21.6025 34.4238ZM18.3213 35.7363L17.9499 34.8078L17.9285 34.8164L17.9075 34.8259L18.3213 35.7363ZM17.2432 36.955L16.3034 36.6133L16.2988 36.626L16.2945 36.6388L17.2432 36.955ZM16.4932 41.6425L15.4964 41.5617L15.4932 41.602V41.6425H16.4932ZM23.8994 42.58V43.58H24.7606L24.8883 42.7284L23.8994 42.58ZM24.04 41.6425L25.029 41.7909L25.2012 40.6425H24.04V41.6425ZM17.4775 41.6425L16.483 41.5378L16.3668 42.6425H17.4775V41.6425ZM18.7432 36.6269L19.0594 37.5756L19.0898 37.5654L19.1195 37.5534L18.7432 36.6269ZM21.7432 35.4081L22.3432 34.6081L21.8907 34.2688L21.3668 34.4817L21.7432 35.4081ZM28.0244 35.4081L28.4473 34.502L27.8983 34.2457L27.417 34.6138L28.0244 35.4081ZM28.7275 35.7363L28.3047 36.6425L29.2277 37.0732L29.6413 36.1424L28.7275 35.7363ZM29.1025 34.8925L30.0163 35.2987L30.4191 34.3925L29.5163 33.9822L29.1025 34.8925ZM28.0713 34.4238L28.5185 33.5293C27.8937 33.2169 27.25 33.4089 26.8486 33.8104L27.5557 34.5175L28.2628 35.2246C28.2158 35.2716 28.1265 35.3364 27.992 35.3633C27.8499 35.3918 27.718 35.3652 27.6241 35.3182L28.0713 34.4238ZM27.5557 34.5175L26.883 33.7776C26.7389 33.9086 26.3568 34.1502 25.8742 34.3671C25.3737 34.5921 24.9871 34.6894 24.8369 34.6894V35.6894V36.6894C25.4367 36.6894 26.1517 36.4352 26.6941 36.1914C27.2545 35.9395 27.8568 35.5952 28.2283 35.2575L27.5557 34.5175ZM24.8369 35.6894V34.6894C24.6779 34.6894 24.2967 34.5973 23.8027 34.3809C23.331 34.1742 22.9217 33.9271 22.7172 33.7541L22.0713 34.5175L21.4253 35.2809C21.8303 35.6235 22.4288 35.9624 23 36.2127C23.549 36.4533 24.246 36.6894 24.8369 36.6894V35.6894ZM22.0713 34.5175L22.9033 33.9628C22.6619 33.6007 22.3042 33.4519 22.0135 33.4104C21.7499 33.3727 21.5133 33.4153 21.36 33.4536L21.6025 34.4238L21.8451 35.3939C21.8793 35.3854 21.8302 35.4045 21.7306 35.3903C21.6739 35.3822 21.5879 35.3613 21.4928 35.3075C21.3932 35.2512 21.3048 35.1706 21.2392 35.0722L22.0713 34.5175ZM21.6025 34.4238L21.2311 33.4953L17.9499 34.8078L18.3213 35.7363L18.6927 36.6648L21.9739 35.3523L21.6025 34.4238ZM18.3213 35.7363L17.9075 34.8259C17.1024 35.1918 16.5644 35.8955 16.3034 36.6133L17.2432 36.955L18.183 37.2968C18.297 36.9833 18.5089 36.7495 18.7351 36.6466L18.3213 35.7363ZM17.2432 36.955L16.2945 36.6388C16.1486 37.0764 15.9858 37.889 15.8459 38.752C15.702 39.6395 15.5693 40.6626 15.4964 41.5617L16.4932 41.6425L17.4899 41.7233C17.5576 40.8881 17.6828 39.919 17.8201 39.0721C17.9614 38.2007 18.1034 37.5367 18.1918 37.2713L17.2432 36.955ZM16.4932 41.6425H15.4932V42.1581H16.4932H17.4932V41.6425H16.4932ZM16.4932 42.1581H15.4932C15.4932 42.9448 16.1284 43.58 16.915 43.58V42.58V41.58C17.2329 41.58 17.4932 41.8402 17.4932 42.1581H16.4932ZM16.915 42.58V43.58H23.8994V42.58V41.58H16.915V42.58ZM23.8994 42.58L24.8883 42.7284L25.029 41.7909L24.04 41.6425L23.0511 41.4942L22.9105 42.4317L23.8994 42.58ZM24.04 41.6425V40.6425H17.4775V41.6425V42.6425H24.04V41.6425ZM17.4775 41.6425L18.472 41.7472C18.5638 40.8757 18.6902 39.9449 18.8163 39.1655C18.9475 38.3543 19.0655 37.7909 19.1293 37.5994L18.1807 37.2831L17.232 36.9669C17.1083 37.3379 16.9685 38.0636 16.8419 38.8461C16.7102 39.6605 16.5788 40.6281 16.483 41.5378L17.4775 41.6425ZM18.1807 37.2831L19.1293 37.5994C19.1372 37.5758 19.1462 37.5548 19.1551 37.5377C19.1641 37.5204 19.1708 37.5115 19.1725 37.5094C19.1776 37.503 19.1446 37.5472 19.0594 37.5756L18.7432 36.6269L18.4269 35.6782C17.7082 35.9178 17.3674 36.5605 17.232 36.9669L18.1807 37.2831ZM18.7432 36.6269L19.1195 37.5534L22.1195 36.3346L21.7432 35.4081L21.3668 34.4817L18.3668 35.7004L18.7432 36.6269ZM21.7432 35.4081L21.1432 36.2081C21.5954 36.5473 22.2103 36.8915 22.8444 37.1529C23.4648 37.4088 24.2027 37.6269 24.8838 37.6269V36.6269V35.6269C24.5805 35.6269 24.1231 35.5169 23.6068 35.304C23.1041 35.0967 22.641 34.8315 22.3432 34.6081L21.7432 35.4081ZM24.8838 36.6269V37.6269C25.5351 37.6269 26.2573 37.4242 26.8799 37.1739C27.5152 36.9184 28.1486 36.5721 28.6319 36.2025L28.0244 35.4081L27.417 34.6138C27.1034 34.8536 26.6352 35.1166 26.1338 35.3182C25.6197 35.5249 25.17 35.6269 24.8838 35.6269V36.6269ZM28.0244 35.4081L27.6015 36.3143L28.3047 36.6425L28.7275 35.7363L29.1504 34.8301L28.4473 34.502L28.0244 35.4081ZM28.7275 35.7363L29.6413 36.1424L30.0163 35.2987L29.1025 34.8925L28.1887 34.4864L27.8137 35.3301L28.7275 35.7363ZM29.1025 34.8925L29.5163 33.9822L28.4851 33.5134L28.0713 34.4238L27.6575 35.3341L28.6887 35.8029L29.1025 34.8925Z" fill="#08526D" mask="url(#path-13-inside-4_4683_7721)"/>
</g>
<defs>
<linearGradient id="paint0_linear_4683_7721" x1="35.1963" y1="44.4082" x2="35.1963" y2="38.4305" gradientUnits="userSpaceOnUse">
<stop stop-color="#ADE3F6"/>
<stop offset="0.01" stop-color="#ADE3F6" stop-opacity="0.98"/>
<stop offset="0.56" stop-color="#ADE3F6" stop-opacity="0.28"/>
<stop offset="0.79" stop-color="#ADE3F6" stop-opacity="0"/>
</linearGradient>
<clipPath id="clip0_4683_7721">
<rect width="30" height="30" fill="white" transform="translate(15.5088 15.8145)"/>
</clipPath>
</defs>
<style>
  path[stroke] {
    stroke-dasharray: 500;
    stroke-dashoffset: 500;
    animation: drawStroke 2s cubic-bezier(0.4, 0, 0.2, 1) forwards;
  }
  @keyframes drawStroke {
    to { stroke-dashoffset: 0; }
  }
</style>
</svg>
