<svg width="62" height="62" viewBox="0 0 62 62" fill="none" xmlns="http://www.w3.org/2000/svg">
<rect width="61.0178" height="61.0178" rx="6.20355" fill="#EAF8FD"/>
<g clip-path="url(#clip0_4683_7740)">
<path d="M37.8479 39.5632C37.7408 39.5096 37.5801 39.4561 37.4729 39.4025H37.4194C37.3122 39.3489 37.1515 39.2953 37.0444 39.2953C37.0444 39.2953 36.9908 39.2953 36.9372 39.2953C36.6158 39.1882 36.2944 39.1346 35.9194 39.0811H35.8658C35.7586 39.0811 35.7051 39.1346 35.6515 39.1882C35.3301 39.5096 34.9015 39.7239 34.3658 39.7239C33.8301 39.7239 33.4015 39.5096 33.0801 39.1882C33.0265 39.1346 32.9194 39.0811 32.8658 39.0811H32.8122C32.4372 39.1346 32.1158 39.2418 31.7944 39.3489C31.6872 39.4025 31.3658 39.5096 30.9908 39.6703C30.7229 39.8311 30.5086 40.0453 30.3479 40.2596C30.2944 40.2596 30.1872 40.2061 30.1336 40.2061C30.1336 40.2061 30.0801 40.2061 30.0265 40.1525C29.7051 40.0453 29.3836 39.9918 29.0086 39.8846H28.9551C28.8479 39.8846 28.7944 39.9382 28.7408 39.9918C28.4194 40.3132 27.9908 40.5275 27.4551 40.5275C26.9194 40.5275 26.4908 40.3132 26.1694 39.9918C26.1158 39.9382 26.0086 39.8846 25.9551 39.8846H25.9015C25.5265 39.9382 25.2051 40.0453 24.8836 40.1525C24.8301 40.1525 24.7229 40.2061 24.6158 40.2596C24.4551 40.0453 24.2944 39.8311 24.0265 39.6703C23.9194 39.6168 23.7586 39.5632 23.6515 39.5096H23.5979C23.4908 39.4561 23.3301 39.4025 23.2229 39.4025C23.2229 39.4025 23.1694 39.4025 23.1158 39.4025C22.7944 39.2953 22.4729 39.2418 22.0979 39.1882H22.0444C21.9372 39.1882 21.8836 39.2418 21.8301 39.2953C21.5086 39.6168 21.0801 39.8311 20.5444 39.8311C20.0086 39.8311 19.5801 39.6168 19.2586 39.2953C19.2051 39.2418 19.0979 39.1882 19.0444 39.1882H18.9908C18.6158 39.2418 18.2944 39.3489 17.9729 39.4561C17.8658 39.5096 17.5444 39.6168 17.1694 39.7775C16.6336 40.0453 16.2586 40.5811 16.2051 41.1703C16.2051 41.3311 16.2051 41.4382 16.2051 41.5989V42.3489C16.2051 42.8311 16.4729 43.3132 16.9015 43.5275C18.9372 44.5453 21.2408 44.7061 23.3836 43.9025C23.4908 44.1168 23.6515 44.2775 23.8658 44.3846C26.1694 45.5632 28.8479 45.5632 31.1515 44.3846C31.3658 44.2775 31.5265 44.1168 31.6336 43.9025C33.7229 44.7061 36.0801 44.5453 38.1158 43.5275C38.5444 43.3132 38.8122 42.8311 38.8122 42.3489V41.2239C38.7051 40.3668 38.3836 39.8846 37.8479 39.5632Z" fill="url(#paint0_linear_4683_7740)"/>
<path d="M27.3481 38.7059C28.5266 38.7059 29.4374 37.7952 29.4374 36.6166C29.4374 35.4381 28.5266 34.5273 27.3481 34.5273C26.1695 34.5273 25.2588 35.4381 25.2588 36.6166C25.2588 37.7952 26.2231 38.7059 27.3481 38.7059Z" stroke="#08526D" stroke-miterlimit="10" stroke-linecap="round" stroke-linejoin="round"/>
<path d="M31.7408 41.7592V42.8842C31.7408 43.1521 31.6873 43.4199 31.5265 43.5806C31.4194 43.7949 31.2587 43.9556 31.0444 44.0628C28.7408 45.2414 26.0087 45.2414 23.7587 44.0628C23.5444 43.9556 23.3837 43.7949 23.2765 43.5806C23.1694 43.3664 23.0623 43.0985 23.0623 42.8842V42.1342C23.0623 42.0271 23.0623 41.8664 23.0623 41.7056C23.0623 41.1164 23.4373 40.5806 24.0265 40.3128C24.2408 40.2056 24.4551 40.0985 24.5623 40.0449C24.6694 39.9914 24.7765 39.9914 24.8301 39.9378C25.1515 39.8306 25.473 39.7771 25.848 39.6699H25.9015C26.0087 39.6699 26.0623 39.6699 26.1158 39.7771C26.4373 40.0985 26.8658 40.3128 27.4015 40.3128C27.9373 40.3128 28.3658 40.0985 28.6873 39.7771C28.7408 39.7235 28.848 39.6699 28.9015 39.6699H28.9551C29.3301 39.7235 29.6515 39.8306 29.973 39.9378C29.973 39.9378 30.0265 39.9378 30.0801 39.9914C30.1337 39.9914 30.1873 40.0449 30.2944 40.0449C30.348 40.0449 30.4015 40.0985 30.5087 40.0985H30.5623C30.723 40.1521 30.8301 40.2056 30.9373 40.2592C31.4194 40.6878 31.7408 41.1699 31.7408 41.7592Z" stroke="#08526D" stroke-miterlimit="10" stroke-linecap="round" stroke-linejoin="round"/>
<path d="M20.3837 37.9022C21.5623 37.9022 22.473 36.9915 22.473 35.8129C22.473 34.6343 21.5623 33.7236 20.3837 33.7236C19.2051 33.7236 18.2944 34.6343 18.2944 35.8129C18.2944 36.9915 19.2587 37.9022 20.3837 37.9022Z" stroke="#08526D" stroke-miterlimit="10" stroke-linecap="round" stroke-linejoin="round"/>
<path d="M24.5087 40.0985C24.348 40.1521 24.1873 40.2056 23.973 40.3664C23.4373 40.6342 23.0623 41.1699 23.0087 41.7592C23.0087 41.9199 23.0087 42.0271 23.0087 42.1878V42.9378C23.0087 43.2056 23.0623 43.4735 23.223 43.6342C21.1337 44.4378 18.7766 44.2771 16.7409 43.2592C16.3123 43.0449 16.0444 42.5628 16.0444 42.0806V41.3306C16.0444 41.1699 16.0444 41.0628 16.0444 40.9021C16.0444 40.3128 16.4194 39.7771 17.0087 39.5092C17.3837 39.2949 17.7051 39.1878 17.8123 39.1878C18.1337 39.0806 18.4551 39.0271 18.8301 38.9199H18.8837C18.9909 38.9199 19.0444 38.9735 19.098 39.0271C19.4194 39.3485 19.848 39.5628 20.3837 39.5628C20.9194 39.5628 21.348 39.3485 21.6694 39.0271C21.723 38.9735 21.8301 38.9199 21.8837 38.9199H21.9373C22.3123 38.9735 22.6337 39.0806 22.9551 39.1342C22.9551 39.1342 23.0087 39.1342 23.0623 39.1342C23.1694 39.1878 23.3301 39.2413 23.4373 39.2413H23.4909C23.6516 39.2949 23.7587 39.3485 23.8659 39.4021C24.1873 39.6699 24.348 39.8842 24.5087 40.0985Z" stroke="#08526D" stroke-miterlimit="10" stroke-linecap="round" stroke-linejoin="round"/>
<path d="M34.3122 37.9022C35.4908 37.9022 36.4015 36.9915 36.4015 35.8129C36.4015 34.6343 35.4908 33.7236 34.3122 33.7236C33.1336 33.7236 32.2229 34.6343 32.2229 35.8129C32.2229 36.9915 33.1872 37.9022 34.3122 37.9022Z" stroke="#08526D" stroke-miterlimit="10" stroke-linecap="round" stroke-linejoin="round"/>
<path d="M38.7051 40.9558V42.0808C38.7051 42.5629 38.4373 43.0451 38.0087 43.2593C35.973 44.2772 33.6159 44.4379 31.5266 43.6343C31.6337 43.4201 31.7409 43.1522 31.7409 42.9379V41.7593C31.7409 41.1701 31.4194 40.6879 30.9373 40.3665C30.8301 40.3129 30.6694 40.2058 30.5623 40.2058H30.5087C30.4551 40.2058 30.4016 40.1522 30.2944 40.1522C30.4551 39.9379 30.6694 39.7236 30.9373 39.5629C31.3123 39.3486 31.6337 39.2415 31.7409 39.2415C32.0623 39.1343 32.3837 39.0808 32.7587 38.9736H32.8123C32.9194 38.9736 32.973 39.0272 33.0266 39.0808C33.348 39.4022 33.7766 39.6165 34.3123 39.6165C34.848 39.6165 35.2766 39.4022 35.598 39.0808C35.6516 39.0272 35.7587 38.9736 35.8123 38.9736H35.8659C36.2409 39.0272 36.5623 39.1343 36.8837 39.1879C36.8837 39.1879 36.9373 39.1879 36.9909 39.1879C37.098 39.2415 37.2587 39.2951 37.3659 39.2951H37.4194C37.5801 39.3486 37.6873 39.4022 37.7944 39.4558C38.3837 39.8843 38.7051 40.3665 38.7051 40.9558Z" stroke="#08526D" stroke-miterlimit="10" stroke-linecap="round" stroke-linejoin="round"/>
<path d="M29.4551 16.3145H43.8125C44.3398 16.3145 44.7587 16.7334 44.7588 17.2607V24.9756C44.7586 25.5028 44.3397 25.9218 43.8125 25.9219H29.4551C28.9279 25.9218 28.509 25.5028 28.5088 24.9756V17.2607C28.5089 16.7664 28.877 16.3674 29.3574 16.3193L29.4551 16.3145Z" fill="#ADE3F6" stroke="#08526D"/>
<path d="M35.0622 32.6525H35.0086C34.7943 32.5989 34.6336 32.3846 34.6872 32.1703C34.7408 31.7418 34.7943 31.3132 34.7943 30.8311C34.7943 28.9561 34.0979 27.1882 32.8122 25.7953C31.4193 24.2953 29.4372 23.3846 27.3479 23.3846C25.2586 23.3846 23.3836 24.1882 21.9372 25.7418C20.6515 27.1346 19.9015 28.9561 19.9015 30.8311C19.9015 31.2596 19.955 31.7418 20.0086 32.1703C20.0622 32.3846 19.9015 32.5989 19.6872 32.6525C19.4729 32.7061 19.2586 32.5453 19.205 32.3311C19.0979 31.8489 19.0979 31.3668 19.0979 30.8311C19.0979 28.6882 19.9015 26.7061 21.3479 25.1525C22.9015 23.4918 25.0443 22.5811 27.3479 22.5811C29.6515 22.5811 31.8479 23.5453 33.455 25.2596C34.8479 26.8132 35.6515 28.7953 35.6515 30.8311C35.6515 31.3132 35.5979 31.8489 35.5443 32.3311C35.4372 32.5453 35.2765 32.6525 35.0622 32.6525Z" fill="#08526D"/>
<path d="M27.455 27.6701C27.4014 27.6701 27.4014 27.6701 27.3478 27.6701C26.2228 27.6701 25.0978 27.5094 24.08 27.1344C23.1157 26.813 22.205 26.3844 21.4014 25.7951C21.1871 25.6344 21.1871 25.4201 21.2943 25.2058C21.455 24.9916 21.6693 24.9916 21.8835 25.0987C22.6335 25.6344 23.4371 26.0094 24.3478 26.3308C25.3121 26.6523 26.33 26.813 27.4014 26.813C27.455 26.813 27.455 26.813 27.5085 26.813C28.5264 26.813 29.5443 26.6523 30.455 26.3844C31.3657 26.1166 32.1693 25.688 32.9193 25.2058C33.1335 25.0987 33.4014 25.0987 33.5085 25.313C33.6157 25.5273 33.6157 25.7951 33.4014 25.9023C32.5978 26.4916 31.6871 26.9201 30.6693 27.2416C29.6514 27.5094 28.5264 27.6701 27.455 27.6701Z" fill="#08526D"/>
<path d="M30.7765 34.2596C30.7229 34.2596 30.7229 34.2596 30.6693 34.2596C30.455 34.2061 30.2943 33.9918 30.3479 33.7775C30.5086 32.8668 30.6158 31.8489 30.6158 30.8846C30.6158 29.4918 30.455 28.1525 30.08 26.9739C29.4908 24.8311 28.4193 23.4918 27.2943 23.4918C26.2229 23.4918 25.1515 24.8311 24.5622 26.9203L24.5086 27.0275C24.1872 28.2061 24.0265 29.5453 24.0265 30.8846C24.0265 31.9025 24.1336 32.8668 24.2943 33.7775C24.3479 33.9918 24.1872 34.2061 23.9729 34.2596C23.7586 34.3132 23.5443 34.1525 23.4908 33.9382C23.2765 32.9739 23.2229 31.9025 23.2229 30.8846C23.2229 29.3846 23.4372 27.9382 23.7586 26.6525L23.8658 26.3311C24.6158 23.9739 25.9015 22.5811 27.3479 22.5811C28.8479 22.5811 30.1872 24.1346 30.9372 26.7061C31.3122 27.9382 31.4729 29.3846 31.4729 30.8846C31.4729 31.9561 31.3658 32.9739 31.205 33.9382C31.1515 34.0989 30.9908 34.2596 30.7765 34.2596Z" fill="#08526D"/>
<path d="M35.2229 31.2595H19.5265C19.3122 31.2595 19.0979 31.0452 19.0979 30.8309C19.0979 30.6166 19.3122 30.4023 19.5265 30.4023H35.2229C35.4372 30.4023 35.6515 30.6166 35.6515 30.8309C35.6515 31.0988 35.4372 31.2595 35.2229 31.2595Z" fill="#08526D"/>
<path d="M27.348 33.0275C27.1337 33.0275 26.9194 32.8132 26.9194 32.5989V23.0096C26.9194 22.7953 27.1337 22.5811 27.348 22.5811C27.5623 22.5811 27.7766 22.7953 27.7766 23.0096V32.6525C27.7766 32.8668 27.6159 33.0275 27.348 33.0275Z" fill="#08526D"/>
</g>
<defs>
<linearGradient id="paint0_linear_4683_7740" x1="27.3641" y1="44.9739" x2="27.3641" y2="38.9378" gradientUnits="userSpaceOnUse">
<stop stop-color="#ADE3F6"/>
<stop offset="0.5947" stop-color="#ADE3F6" stop-opacity="0"/>
</linearGradient>
<clipPath id="clip0_4683_7740">
<rect width="30" height="30" fill="white" transform="translate(15.5088 15.5088)"/>
</clipPath>
</defs>
<style>
  path[stroke] {
    stroke-dasharray: 500;
    stroke-dashoffset: 500;
    animation: drawStroke 2s cubic-bezier(0.4, 0, 0.2, 1) forwards;
  }
  @keyframes drawStroke {
    to { stroke-dashoffset: 0; }
  }
</style>
</svg>
