<svg width="62" height="62" viewBox="0 0 62 62" fill="none" xmlns="http://www.w3.org/2000/svg">
<rect width="61.0178" height="61.0178" rx="6.20355" fill="#EAF8FD"/>
<g clip-path="url(#clip0_4683_7746)">
<path d="M44.3367 26.2324L17.3759 23.7119C17.3759 23.7119 16.3923 27.5973 16.4462 30.1278C16.5046 32.8649 16.5793 34.563 17.8408 37.0019C19.0667 39.3721 20.2379 40.5758 22.4892 42.0429C25.1726 43.7917 27.1751 44.3814 30.3915 44.3343C33.1217 44.2943 34.6967 43.7193 37.1316 42.5012C39.4956 41.3186 40.9588 40.519 42.4773 38.3767C44.0065 36.2195 44.5691 31.9609 44.5691 31.9609L44.3367 26.2324Z" fill="url(#paint0_linear_4683_7746)"/>
<mask id="path-3-inside-1_4683_7746" fill="white">
<path d="M30.5088 15.9775C38.5293 15.9775 45.04 22.5171 45.04 30.5088C45.04 37.2612 40.355 42.976 34.1009 44.5617C34.0775 44.5634 34.0579 44.566 34.0436 44.5685C34.0212 44.5726 34.0019 44.5776 33.9883 44.5814C33.9765 44.5846 33.9651 44.5883 33.9553 44.5914L33.9049 44.6042C33.6497 44.668 33.479 44.7163 33.2787 44.742C33.2495 44.7442 33.2242 44.7474 33.2059 44.7503C33.177 44.7548 33.1485 44.7607 33.1318 44.764C33.1157 44.7672 33.1066 44.7688 33.1002 44.77H33.0855L33.0526 44.7745C32.9476 44.7895 32.8426 44.8049 32.7376 44.8199C32.639 44.834 32.5401 44.8479 32.4415 44.862C32.3663 44.8661 32.3061 44.8781 32.2767 44.8839C32.2373 44.8918 32.2417 44.8899 32.2487 44.8899H32.2153L32.1824 44.8949C32.0965 44.9072 32.008 44.9133 31.9004 44.921C31.7981 44.9283 31.6766 44.9372 31.5525 44.9549L31.5108 44.9608L31.4706 44.9741C31.4631 44.9766 31.4592 44.9775 31.4577 44.9778C31.4565 44.9781 31.455 44.9784 31.4522 44.9787C31.4488 44.979 31.4423 44.9793 31.4303 44.9796C31.4173 44.9799 31.4025 44.9801 31.379 44.9801H31.3552L31.3323 44.9824C31.059 45.0097 30.8114 45.0098 30.5088 45.0098C30.2179 45.0098 29.9574 45.0084 29.7269 44.9856C29.6019 44.9518 29.5021 44.9499 29.423 44.9499C29.3136 44.9359 29.2079 44.9275 29.1172 44.921C29.0096 44.9133 28.9211 44.9072 28.8352 44.8949L28.8022 44.8899H28.7688C28.7759 44.8899 28.7803 44.8918 28.7409 44.8839C28.7114 44.878 28.6511 44.8661 28.5757 44.862C28.4771 44.8479 28.3785 44.8339 28.2799 44.8199C28.175 44.8049 28.07 44.7895 27.965 44.7745L27.932 44.77H27.9174C27.911 44.7688 27.9019 44.7672 27.8858 44.764C27.869 44.7607 27.8406 44.7548 27.8116 44.7503C27.7933 44.7474 27.7679 44.7442 27.7384 44.742C27.5384 44.7163 27.3676 44.668 27.1126 44.6042L27.0618 44.5914C27.0521 44.5884 27.0409 44.5845 27.0293 44.5814C27.0157 44.5776 26.9964 44.5726 26.9739 44.5685C26.9595 44.566 26.9396 44.5634 26.9158 44.5617C20.6335 42.976 15.9775 37.2621 15.9775 30.5088C15.9775 22.5177 22.5177 15.9775 30.5088 15.9775ZM33.85 28.1389C33.85 28.2577 33.8083 28.3617 33.7136 28.4429L30.7519 30.9858C30.5945 31.1145 30.3626 31.1145 30.2053 30.9858L27.244 28.4434L27.2417 28.4411L27.239 28.4388L27.2124 28.4141C27.1526 28.3513 27.1076 28.2543 27.1076 28.1389V23.5398L26.3477 24.1413C24.7956 25.3701 23.8602 27.2757 23.8602 29.309C23.8603 31.7299 25.183 33.9566 27.2816 35.1189L27.299 35.1281C27.4126 35.1849 27.4604 35.28 27.4377 35.405L27.4299 35.4467V43.9377H27.8986C27.8906 43.9377 27.8875 43.9357 27.9133 43.9414C27.9219 43.9433 27.9524 43.9502 27.9796 43.9551C27.9962 43.9582 28.017 43.961 28.041 43.9634C28.1223 43.9802 28.2015 43.9889 28.252 43.9945C28.327 44.0028 28.3616 44.0078 28.3852 44.0137L28.4411 44.0275H28.4987C28.4907 44.0275 28.4874 44.0258 28.5134 44.0316C28.5222 44.0335 28.5522 44.0404 28.5793 44.0453C28.5976 44.0486 28.6212 44.0516 28.6484 44.054C28.7868 44.0817 28.9692 44.1176 29.1588 44.1176H29.2916C30.0536 44.1775 30.8441 44.1775 31.606 44.1176H31.785L31.8308 44.1085C31.8796 44.0987 31.9318 44.093 32.0103 44.0851C32.0708 44.0791 32.1502 44.0704 32.2346 44.0558C32.3111 44.0518 32.3719 44.0393 32.4067 44.0316C32.418 44.0291 32.421 44.0278 32.4268 44.0266C32.608 44.0232 32.7645 43.9881 32.8818 43.9638C32.9082 43.9613 32.9313 43.9582 32.95 43.9547C32.981 43.9489 33.0097 43.9418 33.0224 43.9387C33.0236 43.9383 33.0249 43.938 33.026 43.9377H33.4673V35.4888C33.4673 35.3266 33.5571 35.1846 33.6756 35.1185L33.6761 35.1189C35.7746 33.9566 37.0973 31.7299 37.0974 29.309C37.0974 27.3034 36.1605 25.4011 34.6145 24.145L33.85 23.5238V28.1389ZM30.5088 16.84C22.9599 16.84 16.84 22.9599 16.84 30.5088C16.84 36.5045 20.6924 41.5977 26.0346 43.4612L26.6576 43.6786V35.7451L26.4452 35.6064C24.3265 34.2222 23.0276 31.8491 23.0276 29.309C23.0276 26.4322 24.7204 23.7512 27.3392 22.5373C27.4493 22.4884 27.5873 22.4884 27.743 22.5693C27.8828 22.6681 27.9398 22.7924 27.9398 22.9186V27.9645L28.1037 28.1046L30.2039 29.9045L30.5088 30.1664L30.8137 29.9045L32.9139 28.1046L33.0778 27.9645V22.9186C33.0778 22.7632 33.1564 22.634 33.2563 22.5785L33.2842 22.5629L33.3098 22.5437C33.3714 22.4975 33.4868 22.4737 33.6202 22.5153L33.6783 22.5373C36.2981 23.7516 37.99 26.4032 37.99 29.309C37.99 31.8491 36.6911 34.2222 34.5724 35.6064L34.36 35.7451V43.6452L34.9807 43.4324C40.3253 41.599 44.1776 36.5041 44.1776 30.5088C44.1776 22.9906 38.0584 16.84 30.5088 16.84Z"/>
</mask>
<path d="M30.5088 15.9775C38.5293 15.9775 45.04 22.5171 45.04 30.5088C45.04 37.2612 40.355 42.976 34.1009 44.5617C34.0775 44.5634 34.0579 44.566 34.0436 44.5685C34.0212 44.5726 34.0019 44.5776 33.9883 44.5814C33.9765 44.5846 33.9651 44.5883 33.9553 44.5914L33.9049 44.6042C33.6497 44.668 33.479 44.7163 33.2787 44.742C33.2495 44.7442 33.2242 44.7474 33.2059 44.7503C33.177 44.7548 33.1485 44.7607 33.1318 44.764C33.1157 44.7672 33.1066 44.7688 33.1002 44.77H33.0855L33.0526 44.7745C32.9476 44.7895 32.8426 44.8049 32.7376 44.8199C32.639 44.834 32.5401 44.8479 32.4415 44.862C32.3663 44.8661 32.3061 44.8781 32.2767 44.8839C32.2373 44.8918 32.2417 44.8899 32.2487 44.8899H32.2153L32.1824 44.8949C32.0965 44.9072 32.008 44.9133 31.9004 44.921C31.7981 44.9283 31.6766 44.9372 31.5525 44.9549L31.5108 44.9608L31.4706 44.9741C31.4631 44.9766 31.4592 44.9775 31.4577 44.9778C31.4565 44.9781 31.455 44.9784 31.4522 44.9787C31.4488 44.979 31.4423 44.9793 31.4303 44.9796C31.4173 44.9799 31.4025 44.9801 31.379 44.9801H31.3552L31.3323 44.9824C31.059 45.0097 30.8114 45.0098 30.5088 45.0098C30.2179 45.0098 29.9574 45.0084 29.7269 44.9856C29.6019 44.9518 29.5021 44.9499 29.423 44.9499C29.3136 44.9359 29.2079 44.9275 29.1172 44.921C29.0096 44.9133 28.9211 44.9072 28.8352 44.8949L28.8022 44.8899H28.7688C28.7759 44.8899 28.7803 44.8918 28.7409 44.8839C28.7114 44.878 28.6511 44.8661 28.5757 44.862C28.4771 44.8479 28.3785 44.8339 28.2799 44.8199C28.175 44.8049 28.07 44.7895 27.965 44.7745L27.932 44.77H27.9174C27.911 44.7688 27.9019 44.7672 27.8858 44.764C27.869 44.7607 27.8406 44.7548 27.8116 44.7503C27.7933 44.7474 27.7679 44.7442 27.7384 44.742C27.5384 44.7163 27.3676 44.668 27.1126 44.6042L27.0618 44.5914C27.0521 44.5884 27.0409 44.5845 27.0293 44.5814C27.0157 44.5776 26.9964 44.5726 26.9739 44.5685C26.9595 44.566 26.9396 44.5634 26.9158 44.5617C20.6335 42.976 15.9775 37.2621 15.9775 30.5088C15.9775 22.5177 22.5177 15.9775 30.5088 15.9775ZM33.85 28.1389C33.85 28.2577 33.8083 28.3617 33.7136 28.4429L30.7519 30.9858C30.5945 31.1145 30.3626 31.1145 30.2053 30.9858L27.244 28.4434L27.2417 28.4411L27.239 28.4388L27.2124 28.4141C27.1526 28.3513 27.1076 28.2543 27.1076 28.1389V23.5398L26.3477 24.1413C24.7956 25.3701 23.8602 27.2757 23.8602 29.309C23.8603 31.7299 25.183 33.9566 27.2816 35.1189L27.299 35.1281C27.4126 35.1849 27.4604 35.28 27.4377 35.405L27.4299 35.4467V43.9377H27.8986C27.8906 43.9377 27.8875 43.9357 27.9133 43.9414C27.9219 43.9433 27.9524 43.9502 27.9796 43.9551C27.9962 43.9582 28.017 43.961 28.041 43.9634C28.1223 43.9802 28.2015 43.9889 28.252 43.9945C28.327 44.0028 28.3616 44.0078 28.3852 44.0137L28.4411 44.0275H28.4987C28.4907 44.0275 28.4874 44.0258 28.5134 44.0316C28.5222 44.0335 28.5522 44.0404 28.5793 44.0453C28.5976 44.0486 28.6212 44.0516 28.6484 44.054C28.7868 44.0817 28.9692 44.1176 29.1588 44.1176H29.2916C30.0536 44.1775 30.8441 44.1775 31.606 44.1176H31.785L31.8308 44.1085C31.8796 44.0987 31.9318 44.093 32.0103 44.0851C32.0708 44.0791 32.1502 44.0704 32.2346 44.0558C32.3111 44.0518 32.3719 44.0393 32.4067 44.0316C32.418 44.0291 32.421 44.0278 32.4268 44.0266C32.608 44.0232 32.7645 43.9881 32.8818 43.9638C32.9082 43.9613 32.9313 43.9582 32.95 43.9547C32.981 43.9489 33.0097 43.9418 33.0224 43.9387C33.0236 43.9383 33.0249 43.938 33.026 43.9377H33.4673V35.4888C33.4673 35.3266 33.5571 35.1846 33.6756 35.1185L33.6761 35.1189C35.7746 33.9566 37.0973 31.7299 37.0974 29.309C37.0974 27.3034 36.1605 25.4011 34.6145 24.145L33.85 23.5238V28.1389ZM30.5088 16.84C22.9599 16.84 16.84 22.9599 16.84 30.5088C16.84 36.5045 20.6924 41.5977 26.0346 43.4612L26.6576 43.6786V35.7451L26.4452 35.6064C24.3265 34.2222 23.0276 31.8491 23.0276 29.309C23.0276 26.4322 24.7204 23.7512 27.3392 22.5373C27.4493 22.4884 27.5873 22.4884 27.743 22.5693C27.8828 22.6681 27.9398 22.7924 27.9398 22.9186V27.9645L28.1037 28.1046L30.2039 29.9045L30.5088 30.1664L30.8137 29.9045L32.9139 28.1046L33.0778 27.9645V22.9186C33.0778 22.7632 33.1564 22.634 33.2563 22.5785L33.2842 22.5629L33.3098 22.5437C33.3714 22.4975 33.4868 22.4737 33.6202 22.5153L33.6783 22.5373C36.2981 23.7516 37.99 26.4032 37.99 29.309C37.99 31.8491 36.6911 34.2222 34.5724 35.6064L34.36 35.7451V43.6452L34.9807 43.4324C40.3253 41.599 44.1776 36.5041 44.1776 30.5088C44.1776 22.9906 38.0584 16.84 30.5088 16.84Z" stroke="#08526D" stroke-width="17.4" mask="url(#path-3-inside-1_4683_7746)"/>
</g>
<defs>
<linearGradient id="paint0_linear_4683_7746" x1="32.2508" y1="53.9581" x2="32.8099" y2="27.6488" gradientUnits="userSpaceOnUse">
<stop stop-color="#32B9E9"/>
<stop offset="0.961538" stop-color="#32B9E9" stop-opacity="0"/>
</linearGradient>
<clipPath id="clip0_4683_7746">
<rect width="30" height="30" fill="white" transform="translate(15.5088 15.5088)"/>
</clipPath>
</defs>
<style>
  path[stroke] {
    stroke-dasharray: 500;
    stroke-dashoffset: 500;
    animation: drawStroke 2s cubic-bezier(0.4, 0, 0.2, 1) forwards;
  }
  @keyframes drawStroke {
    to { stroke-dashoffset: 0; }
  }
</style>
</svg>
