<svg width="62" height="62" viewBox="0 0 62 62" fill="none" xmlns="http://www.w3.org/2000/svg">
<rect width="61.0178" height="61.0178" rx="7.75444" fill="#EAF8FD"/>
<g clip-path="url(#clip0_4683_7753)">
<path d="M21.79 35.7588L27.8838 41.8994L29.7588 40.0244L36.4619 39.9775L38.9932 37.8682L44.7119 32.1025L45.04 30.2744L43.8213 29.4307L42.6025 29.7119L40.4932 31.6338L36.6025 35.0088L37.2588 33.5088L36.7432 31.8682L35.0088 31.0244L27.2744 31.2588L25.54 32.0088L23.8525 33.6963L21.79 35.7588Z" fill="url(#paint0_linear_4683_7753)"/>
<path d="M28.2011 26.0429V18.8208C28.2011 16.9808 27.0514 15.5088 25.6258 15.5088H18.084C16.6585 15.5088 15.5088 17.0268 15.5088 18.8208V26.0429C15.5088 27.8829 16.6585 29.3549 18.084 29.3549H25.6258C27.0514 29.3549 28.2011 27.8829 28.2011 26.0429Z" fill="#B3DEFF"/>
<path d="M27.7545 41.7611C28.1383 42.1499 28.139 42.7747 27.7561 43.1644L26.5329 44.4094C26.1417 44.8077 25.5001 44.8084 25.1079 44.4111L19.3412 38.569C18.9574 38.1802 18.9567 37.5554 19.3396 37.1657L20.5628 35.9207C20.954 35.5224 21.5956 35.5217 21.9878 35.919L27.7545 41.7611Z" stroke="#08526D" stroke-width="1.5" stroke-miterlimit="10" stroke-linecap="round" stroke-linejoin="round"/>
<path d="M21.79 35.7588L25.2119 32.29C25.915 31.5869 26.8525 31.2119 27.8369 31.2119H35.2432C36.3682 31.2119 37.2588 32.1025 37.2588 33.2275C37.2588 34.3525 36.3682 35.2432 35.2432 35.2432H30.7432" stroke="#08526D" stroke-width="1.5" stroke-miterlimit="10" stroke-linecap="round" stroke-linejoin="round"/>
<path d="M35.2432 35.29C36.2744 35.29 37.2588 34.8682 37.9619 34.165L42.1807 29.8994C42.8369 29.2432 43.8682 29.2432 44.5244 29.8994C45.1807 30.5557 45.1807 31.5869 44.5244 32.2432L37.3057 39.5088C36.9775 39.8369 36.6025 39.9775 36.1338 39.9775H29.7588L27.8838 41.8525" stroke="#08526D" stroke-width="1.5" stroke-miterlimit="10" stroke-linecap="round" stroke-linejoin="round"/>
<path d="M39.3681 28.7275L38.0556 27.79C38.1024 27.5088 38.1024 27.2275 38.1024 26.9463C38.1024 26.665 38.0556 26.3838 38.0556 26.1025L39.3681 25.165C39.6493 24.9775 39.7431 24.5557 39.5556 24.2275L38.4774 22.3057C38.2899 21.9775 37.9149 21.8369 37.5868 21.9775L36.0868 22.5869C35.5712 22.165 35.0087 21.8369 34.3993 21.6025L34.2587 20.0088C34.2118 19.6338 33.9306 19.3994 33.5556 19.3994H31.3524C30.9774 19.3994 30.6962 19.6807 30.6493 20.0088L30.4618 21.6025C29.8524 21.8369 29.2899 22.165 28.7743 22.5869L27.2743 21.9775C26.9462 21.8369 26.5712 21.9775 26.3837 22.3057L25.3524 24.2275C25.1649 24.5557 25.2587 24.9307 25.5399 25.165L26.8524 26.1025C26.8056 26.3838 26.8056 26.665 26.8056 26.9463C26.8056 27.2275 26.8524 27.5088 26.8524 27.79L25.5399 28.7275M30.4618 28.6338C30.0868 28.165 29.8524 27.6025 29.8524 26.9463C29.8524 25.4932 31.0243 24.3213 32.4306 24.3213C33.8368 24.3213 35.0087 25.4932 35.0087 26.9463C35.0087 27.6025 34.7743 28.165 34.3993 28.6338" stroke="#08526D" stroke-width="1.5" stroke-miterlimit="10" stroke-linecap="round" stroke-linejoin="round"/>
<path d="M19.5474 22.4971L21.1411 24.0908L23.9536 21.2783" stroke="#08526D" stroke-width="1.5" stroke-miterlimit="10" stroke-linecap="round" stroke-linejoin="round"/>
</g>
<defs>
<linearGradient id="paint0_linear_4683_7753" x1="33.4222" y1="41.7588" x2="33.4222" y2="32.4228" gradientUnits="userSpaceOnUse">
<stop stop-color="#ADE3F6"/>
<stop offset="0.59" stop-color="#ADE3F6" stop-opacity="0"/>
</linearGradient>
<clipPath id="clip0_4683_7753">
<rect width="30" height="30" fill="white" transform="translate(15.5088 15.5088)"/>
</clipPath>
</defs>
<style>
  path[stroke] {
    stroke-dasharray: 500;
    stroke-dashoffset: 500;
    animation: drawStroke 2s cubic-bezier(0.4, 0, 0.2, 1) forwards;
  }
  @keyframes drawStroke {
    to { stroke-dashoffset: 0; }
  }
</style>
</svg>
