<svg width="40" height="40" viewBox="0 0 40 40" fill="none" xmlns="http://www.w3.org/2000/svg">
<path d="M36.6666 19.9997C36.6666 10.7947 29.205 3.33301 20 3.33301C10.795 3.33301 3.33331 10.7947 3.33331 19.9997C3.33331 29.2047 10.795 36.6663 20 36.6663" stroke="#32B9E9" stroke-width="1.5" stroke-linecap="round" stroke-linejoin="round"/>
<path d="M21.6666 3.41602C21.6666 3.41602 26.6666 9.99935 26.6666 19.9993M18.3333 36.5827C18.3333 36.5827 13.3333 29.9993 13.3333 19.9993C13.3333 9.99935 18.3333 3.41602 18.3333 3.41602M4.3833 25.8327H20M4.3833 14.166H35.6166" stroke="#32B9E9" stroke-width="1.5" stroke-linecap="round" stroke-linejoin="round"/>
<path d="M36.465 29.8611C37.2883 30.3678 37.2366 31.5994 36.39 31.6961L32.1116 32.1811L30.1933 36.0344C29.8133 36.7994 28.6383 36.4244 28.4433 35.4778L26.3516 25.2844C26.1866 24.4844 26.9066 23.9811 27.6016 24.4094L36.465 29.8611Z" stroke="#32B9E9" stroke-width="1.5"/>
</svg>
