<svg width="48" height="48" viewBox="0 0 48 48" fill="none" xmlns="http://www.w3.org/2000/svg">
<path d="M31.276 9.13227L31.388 9.19627C29.872 9.99627 25.54 12.5763 25.54 15.8603C25.54 16.9683 26.174 18.0363 26.768 19.0403C27.292 19.9243 27.786 20.7563 27.786 21.5163C27.786 23.4303 25.92 24.9163 24.866 25.6003L24.666 25.4843C25.064 24.9983 25.554 24.1843 25.554 23.3163C25.554 22.1203 24.94 21.1643 24.318 20.1943C23.674 19.1923 23.022 18.1743 23.022 16.8543C23.022 12.2703 29.252 9.81027 31.276 9.13227ZM23.086 11.5563C25.592 9.31627 28.33 6.86827 28.33 3.18627C28.33 1.52027 27.648 0.456273 27.31 0.0302734L27.2 0.0922734C27.28 0.424273 27.4 1.03627 27.4 1.83627C27.4 5.18827 24.556 7.53627 21.804 9.81227C19.222 11.9483 16.72 14.0163 16.72 16.7843C16.72 20.7543 20.636 23.1963 22.29 24.2283L22.416 24.3083L22.516 24.2483C22.4267 24.1496 22.332 24.0483 22.232 23.9443C20.96 22.5903 19.028 20.5363 19.028 17.3943C19.028 15.1883 20.974 13.4463 23.086 11.5563ZM22.184 31.3723C25.712 31.3723 28.18 30.8663 29.276 30.5563L30.94 31.5163C29.354 32.3223 25.838 32.9363 22.176 32.9363C17.87 32.9363 13.162 32.0123 13.148 30.7803C13.138 30.1003 14.678 29.6483 16.338 29.3563L16.438 29.4143C16.438 29.4143 15.876 29.6163 15.882 30.0803C15.89 30.7803 18.722 31.3723 22.182 31.3723M15.124 35.7143C15.124 34.9003 16.802 34.5143 17.57 34.3603L17.67 34.4203C17.538 34.5183 17.466 34.6523 17.466 34.7663C17.466 35.3003 19.326 35.7883 22.178 35.7883C24.734 35.7883 26.154 35.4743 26.998 35.2723L28.978 36.4183C28.888 36.4823 26.938 37.7083 22.174 37.7083C18.712 37.7083 15.124 36.8443 15.124 35.7143ZM32.182 32.2583C34.542 30.9123 36.904 29.3203 37.038 26.7643C37.126 25.0863 35.584 23.8563 33.898 24.1843L33.988 23.9603V23.9563C34.412 23.8283 34.936 23.7243 35.522 23.7243C37.408 23.7243 38.854 24.8543 39.038 26.4363C39.41 29.6083 34.914 31.6723 32.396 32.3823L32.182 32.2583ZM36.132 38.2343C36.152 40.4143 28.736 41.7103 22.108 41.7683C16.386 41.8183 7.16004 40.7383 7.14004 38.5583C7.12804 37.0523 11.14 36.0103 13.32 35.7103L13.55 35.8403C13.55 35.8403 10.3 36.5943 10.31 37.9643C10.322 39.3303 17.16 40.5123 22.098 40.4703C29.748 40.4023 34.926 39.1563 35.538 37.4663L35.646 37.4043C35.87 37.5683 36.126 37.8383 36.132 38.2343ZM12.86 42.6743C15.6899 43.1264 18.5523 43.3438 21.418 43.3243C33.834 43.2163 37.338 40.1643 37.878 39.5003L37.972 39.5563C37.844 41.9723 31.278 43.9803 23.18 44.0503C19.058 44.0863 15.306 43.6103 12.61 42.8203L12.86 42.6743ZM18.064 24.1083C15.906 24.2743 11.272 24.9603 11.272 26.1803C11.272 27.1043 15.52 28.4063 22.176 28.4063C28.164 28.4063 31.944 27.2763 32.826 26.8463L31.54 26.0963C30.62 26.3463 27.202 27.1083 22.176 27.1083C19.216 27.1083 14.116 26.5623 14.116 25.7283C14.116 24.9803 17.298 24.4043 18.212 24.2383L18.27 24.2283L18.064 24.1083Z" fill="#010F14"/>
</svg>
