<svg width="48" height="48" viewBox="0 0 48 48" fill="none" xmlns="http://www.w3.org/2000/svg">
<path d="M31.2767 9.13227L31.3887 9.19627C29.8727 9.99627 25.5407 12.5763 25.5407 15.8603C25.5407 16.9683 26.1747 18.0363 26.7687 19.0403C27.2927 19.9243 27.7867 20.7563 27.7867 21.5163C27.7867 23.4303 25.9207 24.9163 24.8667 25.6003L24.6667 25.4843C25.0647 24.9983 25.5547 24.1843 25.5547 23.3163C25.5547 22.1203 24.9407 21.1643 24.3187 20.1943C23.6747 19.1923 23.0227 18.1743 23.0227 16.8543C23.0227 12.2703 29.2527 9.81027 31.2767 9.13227ZM23.0867 11.5563C25.5927 9.31627 28.3307 6.86827 28.3307 3.18627C28.3307 1.52027 27.6487 0.456273 27.3107 0.0302734L27.2007 0.0922734C27.2807 0.424273 27.4007 1.03627 27.4007 1.83627C27.4007 5.18827 24.5567 7.53627 21.8047 9.81227C19.2227 11.9483 16.7207 14.0163 16.7207 16.7843C16.7207 20.7543 20.6367 23.1963 22.2907 24.2283L22.4167 24.3083L22.5167 24.2483C22.4273 24.1496 22.3327 24.0483 22.2327 23.9443C20.9607 22.5903 19.0287 20.5363 19.0287 17.3943C19.0287 15.1883 20.9747 13.4463 23.0867 11.5563ZM22.1847 31.3723C25.7127 31.3723 28.1807 30.8663 29.2767 30.5563L30.9407 31.5163C29.3547 32.3223 25.8387 32.9363 22.1767 32.9363C17.8707 32.9363 13.1627 32.0123 13.1487 30.7803C13.1387 30.1003 14.6787 29.6483 16.3387 29.3563L16.4387 29.4143C16.4387 29.4143 15.8767 29.6163 15.8827 30.0803C15.8907 30.7803 18.7227 31.3723 22.1827 31.3723M15.1247 35.7143C15.1247 34.9003 16.8027 34.5143 17.5707 34.3603L17.6707 34.4203C17.5387 34.5183 17.4667 34.6523 17.4667 34.7663C17.4667 35.3003 19.3267 35.7883 22.1787 35.7883C24.7347 35.7883 26.1547 35.4743 26.9987 35.2723L28.9787 36.4183C28.8887 36.4823 26.9387 37.7083 22.1747 37.7083C18.7127 37.7083 15.1247 36.8443 15.1247 35.7143ZM32.1827 32.2583C34.5427 30.9123 36.9047 29.3203 37.0387 26.7643C37.1267 25.0863 35.5847 23.8563 33.8987 24.1843L33.9887 23.9603V23.9563C34.4127 23.8283 34.9367 23.7243 35.5227 23.7243C37.4087 23.7243 38.8547 24.8543 39.0387 26.4363C39.4107 29.6083 34.9147 31.6723 32.3967 32.3823L32.1827 32.2583ZM36.1327 38.2343C36.1527 40.4143 28.7367 41.7103 22.1087 41.7683C16.3867 41.8183 7.16065 40.7383 7.14065 38.5583C7.12865 37.0523 11.1407 36.0103 13.3207 35.7103L13.5507 35.8403C13.5507 35.8403 10.3007 36.5943 10.3107 37.9643C10.3227 39.3303 17.1607 40.5123 22.0987 40.4703C29.7487 40.4023 34.9267 39.1563 35.5387 37.4663L35.6467 37.4043C35.8707 37.5683 36.1267 37.8383 36.1327 38.2343ZM12.8607 42.6743C15.6905 43.1264 18.5529 43.3438 21.4187 43.3243C33.8347 43.2163 37.3387 40.1643 37.8787 39.5003L37.9727 39.5563C37.8447 41.9723 31.2787 43.9803 23.1807 44.0503C19.0587 44.0863 15.3067 43.6103 12.6107 42.8203L12.8607 42.6743ZM18.0647 24.1083C15.9067 24.2743 11.2727 24.9603 11.2727 26.1803C11.2727 27.1043 15.5207 28.4063 22.1767 28.4063C28.1647 28.4063 31.9447 27.2763 32.8267 26.8463L31.5407 26.0963C30.6207 26.3463 27.2027 27.1083 22.1767 27.1083C19.2167 27.1083 14.1167 26.5623 14.1167 25.7283C14.1167 24.9803 17.2987 24.4043 18.2127 24.2383L18.2707 24.2283L18.0647 24.1083Z" fill="white"/>
</svg>
