<svg width="40" height="40" viewBox="0 0 40 40" fill="none" xmlns="http://www.w3.org/2000/svg">
<path d="M25.7012 4.19629C27.0254 3.76613 28.4666 3.87964 29.7071 4.51172C30.9474 5.14375 31.8861 6.24251 32.3165 7.56641V7.56738L32.8965 9.34961C32.9169 9.41256 32.911 9.48109 32.8809 9.54004C32.8509 9.59883 32.7991 9.64353 32.7364 9.66406L17.4083 14.6445L17.2842 14.6846L17.1749 14.7549C17.1389 14.7781 17.0975 14.7922 17.0547 14.7949L16.9698 14.7998L16.8868 14.8193L10.8057 16.2627L12.6339 15.6689L16.5342 14.4014L16.8985 14.2832L17.0909 13.9502L20.3633 8.28809L21.668 6.03125L19.1885 6.83691L15.2881 8.10449L14.9239 8.22266L14.7315 8.55469L11.459 14.2178L10.1924 16.4082L9.53131 16.5645L9.64166 16.375L12.9083 10.71L14.21 8.45312L11.7335 9.25977L9.21295 10.0791C8.01512 10.4685 7.0211 11.3182 6.44928 12.4404C5.87776 13.5622 5.77465 14.865 6.16315 16.0625V16.0635L6.35651 16.6582L6.66412 17.6094L7.6153 17.3018L8.56744 16.9922L8.78619 18.7725L33.751 18.5C33.8169 18.5003 33.8802 18.5267 33.9268 18.5732C33.9736 18.6201 34 18.6838 34.0001 18.75V31.25C34.0001 32.6424 33.4465 33.9783 32.462 34.9629C31.4775 35.9472 30.1423 36.5 28.7501 36.5H11.2501C9.85786 36.5 8.52267 35.9472 7.53815 34.9629C6.55358 33.9783 6.00006 32.6424 6.00006 31.25V18.75C6.00011 18.6958 6.01618 18.6464 6.04596 18.6035L6.32916 18.1963L6.17584 17.7246L5.68854 16.2197V16.2188C5.25839 14.8946 5.37189 13.4534 6.00397 12.2129C6.63603 10.9726 7.7348 10.0338 9.05865 9.60352L25.7012 4.19629ZM6.50006 31.25C6.50006 32.5098 7.00086 33.7186 7.89166 34.6094C8.78242 35.4999 9.99047 36 11.2501 36H28.7501C30.0097 36 31.2177 35.5 32.1085 34.6094C32.9993 33.7186 33.5001 32.5098 33.5001 31.25V19H6.50006V31.25ZM26.7833 4.46973C26.468 4.50612 26.1563 4.57349 25.8546 4.67188L22.7442 5.68164L22.379 5.7998L22.1866 6.13281L18.9161 11.7949L17.6133 14.0508L20.0919 13.2461L23.9942 11.9785L24.3594 11.8604L24.5508 11.5273L27.7637 5.96289L28.7569 4.24121L26.7833 4.46973ZM28.543 5.60449L28.5059 5.67285L26.3712 9.37305L25.0694 11.6289L27.5469 10.8242L31.3917 9.57422L32.3428 9.26465L32.0333 8.31348L31.8409 7.72168C31.514 6.71423 30.86 5.84498 29.9825 5.25195L29.0674 4.63379L28.543 5.60449Z" stroke="#32B9E9" stroke-width="2"/>
</svg>
