<svg width="48" height="48" viewBox="0 0 48 48" fill="none" xmlns="http://www.w3.org/2000/svg">
<path d="M25.1084 0.308998C24.7639 0.111643 24.3738 0.0078125 23.9768 0.0078125C23.5798 0.0078125 23.1897 0.111643 22.8452 0.308998L4.16273 11.1596C3.45211 11.5616 3.05273 12.3202 3.05273 13.1246V34.8701C3.05273 35.6737 3.49636 36.4327 4.16198 36.8351L22.8445 47.6854C23.189 47.8828 23.5792 47.9867 23.9762 47.9867C24.3733 47.9867 24.7635 47.8828 25.108 47.6854L43.7905 36.8347C44.5007 36.4327 44.8997 35.6737 44.8997 34.8697V13.1246C44.8997 12.3206 44.4561 11.562 43.7905 11.1596L25.1084 0.308998Z" fill="url(#paint0_linear_4284_4593)"/>
<path d="M43.8358 11.1597L25.0648 0.309062C24.8806 0.214994 24.6872 0.140222 24.4876 0.0859375L3.45312 36.2989C3.62738 36.5126 3.83767 36.6941 4.0745 36.8352L22.8459 47.6854C23.3784 47.9978 23.9994 48.0874 24.5765 47.9086L44.324 11.5617C44.1944 11.3919 44.0273 11.2543 43.8358 11.1597Z" fill="url(#paint1_linear_4284_4593)"/>
<path d="M43.8368 36.8345C44.3693 36.5221 44.7687 35.9862 44.9461 35.4057L24.3998 0.040597C23.8673 -0.048653 23.2902 -0.00402796 22.8023 0.308722L4.16406 11.1147L24.2663 47.9978C24.5326 47.9528 24.8438 47.8636 25.1101 47.7297L43.8368 36.8345Z" fill="url(#paint2_linear_4284_4593)"/>
<defs>
<linearGradient id="paint0_linear_4284_4593" x1="31.5849" y1="8.38933" x2="14.523" y2="42.9795" gradientUnits="userSpaceOnUse">
<stop stop-color="#3F873F"/>
<stop offset="0.33" stop-color="#3F8B3D"/>
<stop offset="0.637" stop-color="#3E9638"/>
<stop offset="0.934" stop-color="#3DA92E"/>
<stop offset="1" stop-color="#3DAE2B"/>
</linearGradient>
<linearGradient id="paint1_linear_4284_4593" x1="21.1383" y1="26.5369" x2="68.743" y2="-8.41975" gradientUnits="userSpaceOnUse">
<stop offset="0.138" stop-color="#3F873F"/>
<stop offset="0.402" stop-color="#52A044"/>
<stop offset="0.713" stop-color="#64B749"/>
<stop offset="0.908" stop-color="#6ABF4B"/>
</linearGradient>
<linearGradient id="paint2_linear_4284_4593" x1="2.36994" y1="23.9905" x2="45.6001" y2="23.9905" gradientUnits="userSpaceOnUse">
<stop offset="0.092" stop-color="#6ABF4B"/>
<stop offset="0.287" stop-color="#64B749"/>
<stop offset="0.598" stop-color="#52A044"/>
<stop offset="0.862" stop-color="#3F873F"/>
</linearGradient>
</defs>
</svg>
