<svg width="613" height="456" viewBox="0 0 613 456" fill="none" xmlns="http://www.w3.org/2000/svg">
<g clip-path="url(#clip0_4037_6165)">
<path d="M25.4977 322.549C117.905 471.142 272.754 391.295 372.536 380.883C446.541 373.158 578.754 396.596 596.97 280.284C621.887 121.161 398.593 102.691 280.85 59.8793C58.5102 -20.9898 -54.0906 194.59 25.4977 322.549Z" fill="#D8D5EF"/>
<path d="M238.346 227.822C291.157 171.342 323.332 92.2556 454.01 78.6823C584.687 65.109 685.144 339.213 545.719 339.213C503.307 339.213 324.286 339.308 252.538 339.213C236.625 339.213 221.34 331.725 212.174 318.413C200.285 301.179 196.819 272.179 238.323 227.798L238.346 227.822Z" fill="#C4C3FC"/>
<path d="M186.932 360.179C107.25 360.179 97.3397 323.358 96.5254 301.845C95.4087 271.87 101.109 232.957 126.444 202.862C170.833 150.115 236.416 145.432 273.244 188.98C310.048 232.529 375.655 295.974 431.513 293.406C448.706 292.622 464.851 298.636 478.973 307.36C503.075 322.241 492.559 360.203 464.386 360.203H186.932V360.179Z" fill="#A4A4F7" fill-opacity="0.5"/>
<path d="M393.778 3.08984H112.159V164.828H393.778V3.08984Z" fill="white"/>
<path d="M142.403 61.4473V146.215" stroke="#7762EF" stroke-width="0.22" stroke-miterlimit="10"/>
<path d="M173.602 92.5879V146.215" stroke="#7762EF" stroke-width="0.22" stroke-miterlimit="10"/>
<path d="M207.567 55.1963V146.216" stroke="#7762EF" stroke-width="0.22" stroke-miterlimit="10"/>
<path d="M249.165 103.76V146.215" stroke="#7762EF" stroke-width="0.22" stroke-miterlimit="10"/>
<path d="M273.081 72.4541V146.216" stroke="#7762EF" stroke-width="0.22" stroke-miterlimit="10"/>
<path d="M287.668 100.266V146.215" stroke="#7762EF" stroke-width="0.22" stroke-miterlimit="10"/>
<path d="M305.604 44.7129V146.215" stroke="#7762EF" stroke-width="0.22" stroke-miterlimit="10"/>
<path d="M332.615 134.116V146.216" stroke="#7762EF" stroke-width="0.22" stroke-miterlimit="10"/>
<path d="M368.652 104.331V146.216" stroke="#7762EF" stroke-width="0.22" stroke-miterlimit="10"/>
<path d="M193.609 14.0723H130.748V20.6568H193.609V14.0723Z" fill="#A4A4F7"/>
<path d="M175.23 24.959H130.748V31.5436H175.23V24.959Z" fill="#A4A4F7"/>
<path d="M377.4 146.215H130.748" stroke="#133B4F" stroke-width="0.6" stroke-linecap="round" stroke-linejoin="round"/>
<path d="M142.403 58.6186L173.601 89.7824L207.568 52.3668L249.165 100.931L273.081 69.6246L287.668 97.4367L305.605 41.8838L332.615 131.287L368.652 101.525" stroke="#FC6142" stroke-width="3" stroke-linecap="round" stroke-linejoin="round"/>
<path d="M393.778 3.08984H112.159V164.828H393.778V3.08984Z" stroke="#133B4F" stroke-width="0.6" stroke-linecap="round" stroke-linejoin="round"/>
<path d="M160.409 49.9429C161.642 48.9207 163.364 50.2995 164.225 51.4405C165.062 52.5815 168.04 52.9143 168.319 50.2995C168.599 47.6846 167.412 46.1395 165.202 46.4485C163.853 46.6387 162.55 47.1141 161.736 47.4707C161.224 47.7084 160.619 47.6133 160.177 47.233C159.595 46.71 159.479 45.8543 159.898 45.2125C160.596 44.119 162.34 42.5976 164.295 41.9796C164.295 41.9796 164.946 39.1984 168.18 39.9353C168.18 39.9353 169.32 38.6992 171.507 39.3648C173.694 40.0304 175.578 42.4788 176.253 45.1174C176.927 47.756 176.811 54.4118 177.393 57.9062C177.974 61.4005 179.905 64.6572 179.905 64.6572L171.716 68.5556C171.716 68.5556 170.553 65.7744 169.576 63.8965C168.599 62.0423 166.551 63.0883 164.946 60.6399C163.341 58.1914 163.248 56.6463 161.782 55.125C160.316 53.6036 158.734 51.3216 160.409 49.9429Z" fill="#F1BF98"/>
<path d="M161.759 55.125C160.293 53.6036 158.711 51.3216 160.386 49.9429C161.619 48.9207 163.341 50.2995 164.201 51.4405C165.039 52.5815 168.017 52.9143 168.296 50.2995C168.575 47.6846 167.389 46.1395 165.179 46.4485C163.829 46.6387 162.526 47.1141 161.712 47.4707C161.2 47.7084 160.595 47.6133 160.153 47.233C159.572 46.71 159.455 45.8543 159.874 45.2125C160.572 44.119 162.317 42.5976 164.271 41.9796C164.271 41.9796 164.923 39.1984 168.156 39.9353C168.156 39.9353 169.296 38.6992 171.483 39.3648C173.67 40.0304 175.555 42.4788 176.229 45.1174C176.904 47.756 176.788 54.4118 177.369 57.9062C177.741 60.0931 178.625 62.185 179.23 63.4448" stroke="#133B4F" stroke-width="0.6" stroke-linecap="round" stroke-linejoin="round"/>
<path d="M164.295 42.0034C165.784 41.5042 168.413 41.837 169.623 43.3821" stroke="#133B4F" stroke-width="0.6" stroke-linecap="round" stroke-linejoin="round"/>
<path d="M168.157 39.959C170.088 40.3393 171.554 42.0746 171.554 42.0746" stroke="#133B4F" stroke-width="0.6" stroke-linecap="round" stroke-linejoin="round"/>
<path d="M148.452 52.5819C147.963 52.5819 147.544 52.2491 147.428 51.7499C147.288 51.1794 147.661 50.6089 148.219 50.4663L181.208 42.6932C181.766 42.5505 182.325 42.9309 182.464 43.5014C182.604 44.0719 182.232 44.6424 181.673 44.785L148.684 52.5582C148.684 52.5582 148.521 52.5819 148.452 52.5819Z" fill="#133B4F"/>
<path d="M192.794 134.544C192.794 134.544 177.602 98.1979 167.715 68.5792L179.254 63.4922C179.254 63.4922 199.704 107.992 219.479 125.63L192.794 134.568V134.544Z" fill="#FCA70C"/>
<path d="M179.254 63.4688C179.254 63.4688 199.704 107.968 219.478 125.606L192.794 134.544" stroke="#133B4F" stroke-width="0.6" stroke-linecap="round" stroke-linejoin="round"/>
<path d="M225.015 125.368V113.72C225.015 113.72 206.496 108.918 214.546 84.8143C222.596 60.7105 246.535 84.1012 246.535 96.6761C246.535 109.251 234.693 117.832 234.693 117.832V127.483L225.038 125.368H225.015Z" fill="#F1BF98"/>
<path d="M225.015 113.72C225.015 113.72 206.496 108.918 214.546 84.8146C215.221 82.7703 216.035 81.0587 216.919 79.6562" stroke="#133B4F" stroke-width="0.6" stroke-linecap="round" stroke-linejoin="round"/>
<path d="M227.621 95.7257C229.994 96.8191 231.529 91.4706 236.508 90.8526C241.487 90.2345 240.858 104.854 233.879 101.597C233.879 101.597 232.134 113.364 234.647 117.857C234.647 117.857 242.487 118.237 248.07 111.319C255.003 102.691 252.351 92.16 245.581 81.1778C244.278 79.0622 240.858 66.725 226.597 66.1307C212.034 65.5364 210.684 81.2253 214.523 84.8147C218.362 88.4279 223.014 84.7197 224.387 89.8304C225.318 93.2772 226.132 95.0363 227.598 95.7019L227.621 95.7257Z" fill="#133B4F"/>
<path d="M135.354 124.536C135.354 124.536 135.819 116.977 137.75 109.917C139.89 101.977 143.612 103.38 143.612 103.38C143.612 103.38 144.962 101.645 147.963 102.168C147.963 102.168 148.94 100.741 150.289 99.4577C150.801 98.9585 151.546 98.8634 152.151 99.22C152.849 99.6241 153.151 100.504 152.825 101.264C152.197 102.762 151.15 105.282 150.266 107.326C148.917 110.487 151.336 110.511 152.616 109.275C153.895 108.015 156.222 107.445 156.827 108.681C157.432 109.917 155.245 112.199 153.174 113.792C151.08 115.408 148.358 118.356 147.032 124.821L135.377 124.536H135.354Z" fill="#F1BF98"/>
<path d="M137.727 109.917C139.867 101.977 143.589 103.38 143.589 103.38C143.589 103.38 144.939 101.645 147.94 102.168C147.94 102.168 148.917 100.741 150.266 99.4577C150.778 98.9585 151.522 98.8634 152.127 99.22C152.825 99.6241 153.128 100.504 152.802 101.264C152.174 102.762 151.127 105.282 150.243 107.326C148.894 110.487 151.313 110.511 152.593 109.275C153.872 108.015 156.199 107.445 156.804 108.681C157.408 109.917 155.222 112.199 153.151 113.792C151.057 115.408 148.335 118.356 147.009 124.821" stroke="#133B4F" stroke-width="0.6" stroke-linecap="round" stroke-linejoin="round"/>
<path d="M143.612 103.356C142.403 104.854 141.519 107.088 141.519 107.088" stroke="#133B4F" stroke-width="0.6" stroke-linecap="round" stroke-linejoin="round"/>
<path d="M147.939 102.168C145.985 104.854 145.171 107.612 145.171 107.612" stroke="#133B4F" stroke-width="0.6" stroke-linecap="round" stroke-linejoin="round"/>
<path d="M252.892 237.189C252.841 238.128 252.768 239.511 252.677 241.291C252.494 244.851 252.239 250 251.946 256.354C251.362 269.061 250.63 286.59 250.043 305.871C248.875 344.199 248.276 389.487 250.534 417.607L234.005 419.09C233.977 418.893 233.942 418.635 233.897 418.318C233.784 417.504 233.617 416.304 233.404 414.76C232.979 411.672 232.373 407.21 231.645 401.714C230.188 390.721 228.245 375.59 226.303 359.039C222.431 326.043 218.564 287.437 218.537 264.714L252.907 236.882C252.902 236.978 252.897 237.081 252.892 237.189Z" fill="#423DA3" stroke="#08526D"/>
<path d="M233.577 419.63C233.577 419.63 218.036 309.927 218.036 264.477" stroke="#08526D" stroke-width="0.6" stroke-linecap="round" stroke-linejoin="round"/>
<path d="M251.747 428.059L242.582 428.704L240.605 419.507L250.632 418.603L251.747 428.059Z" fill="#F1BF98" stroke="#08526D"/>
<path d="M251.946 429.497C252.029 430.079 252.143 430.925 252.266 431.979C252.499 433.974 252.764 436.713 252.92 439.812H223.992C223.483 439.812 223.257 439.673 223.159 439.562C223.062 439.453 223.005 439.271 223.047 438.993C223.136 438.409 223.629 437.698 224.229 437.377C224.935 436.999 229.442 435.081 233.82 433.239C235.999 432.323 238.133 431.431 239.722 430.769C240.516 430.437 241.174 430.163 241.634 429.972C241.863 429.876 242.043 429.801 242.166 429.75C242.211 429.731 242.247 429.715 242.276 429.703L251.876 429.026C251.895 429.156 251.92 429.313 251.946 429.497Z" fill="#5045AF" stroke="#08526D"/>
<path d="M193.609 223.638C193.609 223.638 168.646 294.261 170.483 344.727C172.321 395.193 179.068 421.532 179.068 421.532L195.028 419.654C195.028 419.654 189.816 351.55 196.261 322.597C202.705 293.643 218.339 280.165 226.947 272.321C235.555 264.476 256.493 250.142 256.586 230.912L193.609 223.661V223.638Z" fill="#5146AF"/>
<path d="M196.237 322.573C202.682 293.62 218.315 280.141 226.923 272.297C235.531 264.453 256.469 250.119 256.562 230.888L193.585 223.638C193.585 223.638 168.622 294.261 170.46 344.727C172.298 395.193 179.045 421.532 179.045 421.532" stroke="#08526D" stroke-width="0.6" stroke-linecap="round" stroke-linejoin="round"/>
<path d="M184.512 420.866L185.442 429.233L195.562 428.52L195.027 419.63L184.512 420.866Z" fill="#F1BF98"/>
<path d="M195.562 428.52C195.562 428.52 196.4 433.654 196.702 440.31H167.249C164.876 440.31 165.783 437.719 167.249 436.935C168.715 436.15 185.419 429.209 185.419 429.209L195.539 428.496L195.562 428.52Z" fill="#5045AF"/>
<path d="M135.191 123.562H149.312C149.312 123.562 146.707 148.949 158.362 152.705C170.018 156.461 176.625 131.691 199.773 123.562C222.945 115.408 241.882 119.568 250.769 130.075C266.868 149.115 258.819 230.46 258.819 230.46C258.819 230.46 217.64 239.398 192.096 222.711L195.539 157.126C195.539 157.126 173.903 185.818 150.452 178.283C126.978 170.771 135.191 123.585 135.191 123.585V123.562Z" fill="#70CEF0"/>
<path d="M139.797 123.562H149.312C149.312 123.562 146.706 148.949 158.362 152.705C170.018 156.461 176.625 131.691 199.773 123.562C222.945 115.408 241.882 119.568 250.769 130.075C266.868 149.115 258.819 230.46 258.819 230.46C258.819 230.46 217.64 239.398 192.096 222.711L195.539 157.126" stroke="#133B4F" stroke-width="0.6" stroke-linecap="round" stroke-linejoin="round"/>
<path d="M598.902 0.712891H434.281V304.673H598.902V0.712891Z" fill="white"/>
<path d="M526.418 106.579C549.216 101.034 563.299 77.654 557.872 54.3588C552.444 31.0636 529.563 16.6745 506.764 22.2199C483.965 27.7653 469.882 51.1453 475.309 74.4405C480.737 97.7357 503.619 112.125 526.418 106.579Z" fill="white"/>
<path d="M559.026 64.4202C559.026 54.7216 555.862 45.8075 550.604 38.5811L516.591 64.4202L486.58 95.0848C494.257 102.929 504.866 107.779 516.591 107.779C540.019 107.779 559.026 88.3814 559.026 64.4202Z" fill="#FC6142"/>
<path d="M516.591 21.085C493.163 21.085 474.156 40.4821 474.156 64.4434H559.002C559.002 40.5059 540.018 21.085 516.568 21.085H516.591Z" fill="#70CEF0"/>
<path d="M516.592 107.778C540.019 107.778 559.026 88.3811 559.026 64.4199H516.592V107.778Z" fill="#5146AF"/>
<path d="M526.418 106.579C549.216 101.034 563.299 77.654 557.872 54.3588C552.444 31.0636 529.563 16.6745 506.764 22.2199C483.965 27.7653 469.882 51.1453 475.309 74.4405C480.737 97.7357 503.619 112.125 526.418 106.579Z" stroke="#133B4F" stroke-width="0.6" stroke-linecap="round" stroke-linejoin="round"/>
<path d="M482.533 226.895H474.157V235.452H482.533V226.895Z" fill="#A4A4F7"/>
<path d="M561.307 226.895H493.351V235.452H561.307V226.895Z" fill="#A4A4F7"/>
<path d="M546.59 193.112C563.162 176.18 563.162 148.727 546.59 131.794C530.018 114.862 503.15 114.862 486.578 131.794C470.006 148.727 470.006 176.18 486.578 193.112C503.15 210.045 530.018 210.045 546.59 193.112Z" fill="white"/>
<path d="M516.591 119.117C504.866 119.117 494.257 123.966 486.58 131.811L516.591 162.476H559.026C559.026 138.538 540.042 119.117 516.591 119.117Z" fill="#70CEF0"/>
<path d="M553.42 183.941C556.956 177.594 559.026 170.296 559.026 162.476H516.592L553.42 183.941Z" fill="#5146AF"/>
<path d="M553.42 183.941L516.592 162.476V205.834C532.365 205.834 546.115 197.015 553.42 183.965V183.941Z" fill="#FC6142"/>
<path d="M546.59 193.112C563.162 176.18 563.162 148.727 546.59 131.794C530.018 114.862 503.15 114.862 486.578 131.794C470.006 148.727 470.006 176.18 486.578 193.112C503.15 210.045 530.018 210.045 546.59 193.112Z" stroke="#133B4F" stroke-width="0.6" stroke-linecap="round" stroke-linejoin="round"/>
<path d="M482.533 248.93H474.157V257.487H482.533V248.93Z" fill="#A4A4F7"/>
<path d="M561.307 248.93H493.351V257.487H561.307V248.93Z" fill="#A4A4F7"/>
<path d="M482.533 270.942H474.157V279.5H482.533V270.942Z" fill="#A4A4F7"/>
<path d="M561.307 270.942H493.351V279.5H561.307V270.942Z" fill="#A4A4F7"/>
<path d="M598.902 0.712891H434.281V304.673H598.902V0.712891Z" stroke="#133B4F" stroke-width="0.6" stroke-linecap="round" stroke-linejoin="round"/>
<path d="M374.188 323.096C346.55 314.633 306.976 324.665 301.905 375.82C296.833 426.999 371.955 459.922 461.872 454.74C551.79 449.558 569.262 374.227 555.001 348.174C540.74 322.145 510.309 315.56 483.881 323.072C457.452 330.584 374.188 323.072 374.188 323.072V323.096Z" fill="#70CEF0"/>
<path d="M558.793 360.036C558.072 355.472 556.792 351.454 555.001 348.198C540.74 322.168 510.31 315.584 483.881 323.095C457.452 330.607 374.188 323.095 374.188 323.095C346.55 314.633 306.977 324.664 301.905 375.82C299.695 398.164 312.769 417.015 335.662 430.755" stroke="#133B4F" stroke-width="0.6" stroke-linecap="round" stroke-linejoin="round"/>
<path d="M396.94 451.578C416.901 454.906 438.91 456.071 461.872 454.74C527.409 450.96 554.465 409.931 558.793 377.864" stroke="#133B4F" stroke-width="0.6" stroke-linecap="round" stroke-linejoin="round"/>
<path d="M350.69 359.775C350.69 359.775 361.974 343.563 388.426 341.661" stroke="#133B4F" stroke-width="0.6" stroke-linecap="round" stroke-linejoin="round"/>
<path d="M406.502 352.952C406.502 352.952 397.662 362.128 397.639 369.877" stroke="#133B4F" stroke-width="0.6" stroke-linecap="round" stroke-linejoin="round"/>
<path d="M489.441 341.661C489.441 341.661 511.752 341.423 527.409 350.717" stroke="#133B4F" stroke-width="0.6" stroke-linecap="round" stroke-linejoin="round"/>
<path d="M495.536 338.737C495.536 338.737 509.518 336.621 518.335 337.667" stroke="#133B4F" stroke-width="0.6" stroke-linecap="round" stroke-linejoin="round"/>
<path d="M382.912 301.464L380.213 311.566L397.638 335.314L446.68 354.117L497.49 322.62L483.88 299.11L382.912 301.464Z" fill="#4E4BAF"/>
<path d="M397.639 390.748C397.639 390.748 392.986 392.888 387.402 396.311C387.402 396.311 402.036 418.751 403.734 421.342C405.06 423.362 406.642 421.152 406.479 419.464C406.316 417.8 402.687 399.734 402.687 399.734L397.639 390.725V390.748Z" fill="#133B4F"/>
<path d="M496.771 315.432C501.123 314.833 504.454 315.761 506.346 318.788L506.524 319.088C507.8 321.33 507.567 324.302 506.108 327.796C504.655 331.277 502.025 335.171 498.697 339.159C492.044 347.131 482.678 355.383 474.627 361.321H474.626C466.581 367.264 452.527 376.37 440.472 383.999C434.446 387.812 428.925 391.253 424.909 393.74C422.901 394.984 421.271 395.99 420.142 396.685C419.577 397.032 419.138 397.301 418.84 397.483C418.839 397.484 418.837 397.485 418.836 397.485L410.046 381.18C410.06 381.165 410.076 381.149 410.092 381.133C410.287 380.929 410.576 380.629 410.948 380.243C411.693 379.471 412.772 378.355 414.112 376.98C416.793 374.231 420.517 370.445 424.689 366.301C433.039 358.007 443.166 348.296 450.319 342.574C457.494 336.836 469.701 327.507 481.102 321.37C486.808 318.299 492.268 316.051 496.771 315.432Z" fill="#423DA3" stroke="#08526D"/>
<path d="M397.639 390.748L409.434 381.121L414.436 390.439L402.687 399.758L397.639 390.748Z" fill="#F1BF98"/>
<path d="M481.46 375.82C481.46 375.82 486.299 377.436 492.209 380.265C492.209 380.265 479.925 404.131 478.506 406.888C477.389 409.028 475.598 407.007 475.598 405.32C475.598 403.632 477.366 385.281 477.366 385.281L481.46 375.796V375.82Z" fill="#133B4F"/>
<path d="M375.714 310.604C380.297 310.654 385.913 312.365 391.829 314.935C403.651 320.07 416.455 328.536 424.192 333.501C431.879 338.429 442.94 347.012 452.093 354.376C456.666 358.055 460.758 361.426 463.706 363.877C465.18 365.102 466.369 366.098 467.188 366.787C467.598 367.131 467.916 367.399 468.131 367.581C468.148 367.595 468.164 367.609 468.18 367.622L461.099 384.77C461.097 384.769 461.096 384.768 461.095 384.768C460.78 384.618 460.316 384.396 459.719 384.11C458.525 383.54 456.8 382.712 454.677 381.688C450.43 379.641 444.587 376.804 438.206 373.651C425.438 367.342 410.53 359.772 401.917 354.708C393.309 349.647 383.125 342.42 375.682 335.193C371.958 331.578 368.943 327.985 367.148 324.682C365.348 321.367 364.829 318.448 365.896 316.1L365.895 316.099C366.808 314.096 368.133 312.722 369.775 311.848C371.426 310.969 373.428 310.58 375.714 310.604Z" fill="#4A41A3" stroke="#08526D"/>
<path d="M481.46 375.82L468.758 367.477L464.71 377.294L477.343 385.305L481.46 375.82Z" fill="#F1BF98"/>
<path d="M415.389 238.281C409.224 224.47 401.57 217.576 403.943 192.926C403.943 192.926 399.337 171.674 419.344 165.589C438.468 159.765 455.521 178.758 456.103 195.707C456.568 208.852 452.124 223.709 470.666 236.902C480.903 244.2 494.955 256.085 496.583 275.15C499.654 310.877 468.759 317.129 451.799 313.944C382.703 300.917 415.389 238.281 415.389 238.281Z" fill="#133B4F"/>
<path d="M434.443 311.567H385.517C376.932 311.567 369.86 306.171 367.72 290.173C365.579 274.175 378.468 228.891 412.504 222.307C446.563 215.722 473.248 224.113 483.229 245.983C493.209 267.852 493.651 311.567 493.651 311.567H434.443Z" fill="#7A74D1"/>
<path d="M434.187 297.233C442.887 298.256 451.472 304.911 451.775 311.591H434.442L434.187 297.233Z" fill="#F1BF98"/>
<path d="M434.442 311.567L434.14 295.022C418.041 292.36 394.102 291.576 394.102 291.576V252.853" stroke="#133B4F" stroke-width="0.6" stroke-linecap="round" stroke-linejoin="round"/>
<path d="M463.756 252.876V276.861" stroke="#133B4F" stroke-width="0.6" stroke-linecap="round" stroke-linejoin="round"/>
<path d="M445.959 316.273H422.951C421.671 316.273 420.647 315.227 420.647 313.92C420.647 312.612 421.671 311.566 422.951 311.566H445.959V316.273Z" fill="#9292EA"/>
<path d="M445.959 316.273H422.951C421.671 316.273 420.647 315.227 420.647 313.92C420.647 312.612 421.671 311.566 422.951 311.566H445.959V316.273Z" stroke="#133B4F" stroke-width="0.6" stroke-linecap="round" stroke-linejoin="round"/>
<path d="M450.147 267.852H514.008C516.335 267.852 518.196 269.777 518.196 272.131V311.971C518.196 314.348 516.311 316.25 514.008 316.25H445.959V272.107C445.959 269.73 447.843 267.828 450.147 267.828V267.852Z" fill="#A4A4F7"/>
<path d="M450.147 267.852H514.008C516.335 267.852 518.196 269.777 518.196 272.131V311.971C518.196 314.348 516.311 316.25 514.008 316.25H445.959V272.107C445.959 269.73 447.843 267.828 450.147 267.828V267.852Z" stroke="#133B4F" stroke-width="0.6" stroke-linecap="round" stroke-linejoin="round"/>
<path d="M439.212 222.687L438.909 202.458C444.377 201.341 448.564 195.16 445.796 191.333C443.027 187.506 439.654 188.623 438.304 190.454C436.955 192.284 437.839 195.042 436.606 195.16C435.35 195.255 434.466 192.474 433.303 188.98C432.116 185.486 427.789 186.365 422.275 185.486C416.761 184.606 412.225 180.042 412.225 180.042C410.247 184.868 408.223 185.937 408.223 185.937C408.223 185.937 408.107 188.195 408.619 192.26C408.898 194.566 409.387 197.442 410.201 200.818C412.434 210.136 425.416 212.394 425.416 212.394L426.23 222.806L431.511 224.042L439.212 222.64V222.687Z" fill="#F1BF98"/>
<path d="M411.759 194.234C412.235 194.234 412.62 193.84 412.62 193.354C412.62 192.868 412.235 192.475 411.759 192.475C411.284 192.475 410.898 192.868 410.898 193.354C410.898 193.84 411.284 194.234 411.759 194.234Z" fill="#133B4F"/>
<path d="M424.322 194.234C424.797 194.234 425.182 193.84 425.182 193.354C425.182 192.868 424.797 192.475 424.322 192.475C423.846 192.475 423.461 192.868 423.461 193.354C423.461 193.84 423.846 194.234 424.322 194.234Z" fill="#133B4F"/>
<path d="M444.26 220.762C436.955 219.859 428.928 219.954 420.344 221.071C422.158 224.114 426.206 229.058 433.419 229.058C439.328 229.058 442.562 224.637 444.26 220.762Z" fill="#F1BF98"/>
<path d="M418.297 193.734C418.297 193.734 415.878 196.563 418.297 198.061" stroke="#133B4F" stroke-width="0.6" stroke-linecap="round" stroke-linejoin="round"/>
<path d="M420.345 203.932C420.345 203.932 425.067 204.978 427.464 201.579" stroke="#133B4F" stroke-width="0.6" stroke-linecap="round" stroke-linejoin="round"/>
<path d="M318.47 188.694H370.722V228.582C370.722 236.593 364.347 243.106 356.507 243.106H318.47C310.629 243.106 304.255 236.593 304.255 228.582V203.218C304.255 195.208 310.629 188.694 318.47 188.694Z" fill="white"/>
<path d="M386.192 188.694H366.883L370.721 200.913L386.192 188.694Z" fill="white"/>
<path d="M370.722 188.694H318.47C310.629 188.694 304.255 195.184 304.255 203.218V228.582C304.255 236.593 310.606 243.106 318.47 243.106H356.507C364.347 243.106 370.722 236.617 370.722 228.582V200.913L386.193 188.694H370.722Z" stroke="#133B4F" stroke-width="0.6" stroke-linecap="round" stroke-linejoin="round"/>
<path d="M337.5 232.552C346.507 232.552 353.808 225.091 353.808 215.888C353.808 206.685 346.507 199.225 337.5 199.225C328.493 199.225 321.191 206.685 321.191 215.888C321.191 225.091 328.493 232.552 337.5 232.552Z" fill="#5146AF"/>
<path d="M337.5 199.225C328.497 199.225 321.191 206.689 321.191 215.888H353.808C353.808 206.689 346.503 199.225 337.5 199.225Z" fill="#FCA70C"/>
<path d="M337.5 232.551C346.503 232.551 353.809 225.087 353.809 215.888H337.5V232.551Z" fill="#FC6142"/>
<path d="M75.5633 31.5439H113.601C121.441 31.5439 127.816 38.0572 127.816 46.0681V85.9559H75.5633C67.7231 85.9559 61.3486 79.4426 61.3486 71.4318V46.0681C61.3486 38.0572 67.7231 31.5439 75.5633 31.5439Z" fill="white"/>
<path d="M143.286 85.9322H123.977L127.815 73.7139L143.286 85.9322Z" fill="white"/>
<path d="M127.816 85.9324H75.5633C67.7231 85.9324 61.3486 79.4429 61.3486 71.4083V46.0446C61.3486 38.0338 67.6999 31.5205 75.5633 31.5205H113.601C121.441 31.5205 127.816 38.01 127.816 46.0446V73.7141L143.287 85.9324H127.816Z" stroke="#133B4F" stroke-width="0.6" stroke-linecap="round" stroke-linejoin="round"/>
<path d="M75.0977 56.7414L86.1484 69.9105L104.644 47.6133L114.485 58.7619" stroke="#FC6142" stroke-width="3" stroke-linecap="round" stroke-linejoin="round"/>
<path d="M216.704 33.312C214.832 33.312 213.288 32.936 212.072 32.184C210.872 31.432 210.032 30.448 209.552 29.232L212.576 27.672C212.912 28.488 213.416 29.12 214.088 29.568C214.776 30.016 215.672 30.24 216.776 30.24C217.288 30.24 217.736 30.176 218.12 30.048C218.52 29.92 218.856 29.76 219.128 29.568C219.4 29.376 219.608 29.16 219.752 28.92C219.896 28.664 219.968 28.416 219.968 28.176C219.968 27.856 219.88 27.592 219.704 27.384C219.544 27.16 219.296 26.96 218.96 26.784C218.624 26.608 218.2 26.448 217.688 26.304C217.176 26.144 216.576 25.968 215.888 25.776C215.168 25.584 214.472 25.36 213.8 25.104C213.144 24.848 212.552 24.528 212.024 24.144C211.512 23.76 211.096 23.296 210.776 22.752C210.472 22.208 210.32 21.552 210.32 20.784C210.32 20.016 210.48 19.328 210.8 18.72C211.136 18.112 211.576 17.6 212.12 17.184C212.664 16.768 213.296 16.448 214.016 16.224C214.752 16 215.512 15.888 216.296 15.888C217.8 15.888 219.096 16.216 220.184 16.872C221.288 17.528 222.136 18.432 222.728 19.584L219.656 21.12C218.984 19.696 217.864 18.984 216.296 18.984C215.464 18.984 214.8 19.176 214.304 19.56C213.824 19.928 213.584 20.352 213.584 20.832C213.584 21.152 213.656 21.416 213.8 21.624C213.944 21.816 214.16 21.992 214.448 22.152C214.752 22.312 215.136 22.464 215.6 22.608C216.08 22.736 216.64 22.896 217.28 23.088C218.016 23.296 218.736 23.528 219.44 23.784C220.16 24.04 220.8 24.368 221.36 24.768C221.936 25.152 222.392 25.624 222.728 26.184C223.08 26.744 223.256 27.44 223.256 28.272C223.256 29.04 223.088 29.736 222.752 30.36C222.416 30.984 221.952 31.512 221.36 31.944C220.784 32.376 220.096 32.712 219.296 32.952C218.496 33.192 217.632 33.312 216.704 33.312ZM225.342 16.2H235.398V19.176H228.462V22.992H234.798V25.944H228.462V30.024H235.518V33H225.342V16.2ZM246.185 33.312C244.985 33.312 243.857 33.088 242.801 32.64C241.761 32.176 240.849 31.552 240.065 30.768C239.281 29.984 238.657 29.072 238.193 28.032C237.745 26.976 237.521 25.848 237.521 24.648C237.521 23.448 237.745 22.328 238.193 21.288C238.657 20.232 239.281 19.312 240.065 18.528C240.849 17.744 241.761 17.128 242.801 16.68C243.857 16.216 244.985 15.984 246.185 15.984C247.385 15.984 248.505 16.216 249.545 16.68C250.601 17.128 251.521 17.744 252.305 18.528C253.089 19.312 253.705 20.232 254.153 21.288C254.617 22.328 254.849 23.448 254.849 24.648C254.849 25.848 254.617 26.976 254.153 28.032C253.705 29.072 253.089 29.984 252.305 30.768C251.521 31.552 250.601 32.176 249.545 32.64C248.505 33.088 247.385 33.312 246.185 33.312ZM246.185 30.168C246.953 30.168 247.665 30.024 248.321 29.736C248.993 29.448 249.577 29.056 250.073 28.56C250.585 28.048 250.985 27.464 251.273 26.808C251.561 26.136 251.705 25.416 251.705 24.648C251.705 23.88 251.561 23.168 251.273 22.512C250.985 21.84 250.585 21.256 250.073 20.76C249.577 20.248 248.993 19.848 248.321 19.56C247.665 19.272 246.953 19.128 246.185 19.128C245.417 19.128 244.697 19.272 244.025 19.56C243.353 19.848 242.761 20.248 242.249 20.76C241.753 21.256 241.361 21.84 241.073 22.512C240.785 23.168 240.641 23.88 240.641 24.648C240.641 25.416 240.785 26.136 241.073 26.808C241.361 27.464 241.753 28.048 242.249 28.56C242.761 29.056 243.353 29.448 244.025 29.736C244.697 30.024 245.417 30.168 246.185 30.168Z" fill="#32B9E9"/>
</g>
<defs>
<clipPath id="clip0_4037_6165">
<rect width="613" height="456" fill="white"/>
</clipPath>
</defs>
</svg>
