<svg width="52" height="52" viewBox="0 0 52 52" fill="none" xmlns="http://www.w3.org/2000/svg">
<g clip-path="url(#clip0_3582_2979)">
<mask id="mask0_3582_2979" style="mask-type:luminance" maskUnits="userSpaceOnUse" x="0" y="0" width="52" height="52">
<path d="M51.6026 0.530273H0.66333V51.4689H51.6026V0.530273Z" fill="white"/>
</mask>
<g mask="url(#mask0_3582_2979)">
<path d="M21.8878 18.0405V5.30578C21.8878 2.66834 19.7498 0.530273 17.1123 0.530273H5.43884C2.8014 0.530273 0.66333 2.66834 0.66333 5.30578V18.0405C0.66333 20.6779 2.8014 22.816 5.43884 22.816H17.1123C19.7498 22.816 21.8878 20.6779 21.8878 18.0405Z" fill="#F9B2BD"/>
<path d="M11.5273 5.63477C11.8079 5.63477 12.0356 5.86232 12.0356 6.14304V6.98688C12.0356 7.2676 11.8079 7.49516 11.5273 7.49516C11.2466 7.49516 11.019 7.2676 11.019 6.98688V6.14304C11.019 5.86232 11.2466 5.63477 11.5273 5.63477ZM11.3986 16.0034C11.6793 16.0034 11.9069 16.231 11.9069 16.5117V17.2032C11.9069 17.4839 11.6793 17.7114 11.3986 17.7114C11.1179 17.7114 10.8903 17.4839 10.8903 17.2032V16.5117C10.8903 16.231 11.1179 16.0034 11.3986 16.0034ZM12.473 13.9017C12.473 13.6647 12.4323 13.4658 12.3508 13.3049C12.2736 13.144 12.1449 13.0023 11.9648 12.8795C11.7846 12.7568 11.5466 12.6361 11.2506 12.5176C10.6844 12.2975 10.1869 12.0689 9.75798 11.8318C9.32906 11.5905 8.9945 11.29 8.7543 10.9302C8.51411 10.5704 8.39401 10.109 8.39401 9.54604C8.39401 9.02114 8.52269 8.5661 8.78004 8.1809C9.03739 7.79146 9.3934 7.49092 9.84805 7.27927C10.307 7.06763 10.8367 6.96181 11.4372 6.96181C11.8961 6.96181 12.3144 7.02953 12.6918 7.16499C13.0692 7.30044 13.3931 7.49516 13.6633 7.74914C13.9378 8.00311 14.148 8.31635 14.2939 8.68885C14.328 8.77529 14.3583 8.86463 14.3845 8.9569C14.5364 9.49184 14.0618 9.9524 13.5057 9.9524H13.1531C12.7917 9.9524 12.5199 9.65246 12.4215 9.30476C12.3701 9.1185 12.2951 8.96612 12.1964 8.84759C12.0978 8.72484 11.9819 8.63383 11.849 8.57457C11.7203 8.5153 11.5745 8.48567 11.4115 8.48567C11.1756 8.48567 10.9825 8.53435 10.8325 8.63171C10.6823 8.72484 10.5729 8.85182 10.5043 9.01267C10.4357 9.17353 10.4014 9.35343 10.4014 9.55238C10.4014 9.75556 10.4378 9.93335 10.5107 10.0857C10.5879 10.2381 10.7166 10.3778 10.8968 10.5048C11.0769 10.6318 11.3235 10.7609 11.6367 10.8921C12.1942 11.1165 12.6875 11.3535 13.1164 11.6032C13.5454 11.8488 13.8799 12.1515 14.1201 12.5112C14.3645 12.8668 14.4868 13.326 14.4868 13.889C14.4868 14.4394 14.3561 14.907 14.0944 15.2923C13.837 15.6775 13.4746 15.9717 13.007 16.1749C12.5438 16.3739 12.0077 16.4733 11.3986 16.4733C10.9911 16.4733 10.5879 16.4225 10.189 16.3209C9.79444 16.2151 9.43414 16.0436 9.10816 15.8066C8.78219 15.5696 8.52269 15.2542 8.32967 14.8606C8.26141 14.7213 8.20522 14.571 8.16111 14.4095C8.01452 13.8731 8.49096 13.4128 9.04704 13.4128H9.29927C9.71606 13.4128 10.0199 13.7644 10.1633 14.1557C10.2405 14.3504 10.3413 14.5071 10.4657 14.6256C10.5944 14.7399 10.738 14.8225 10.8968 14.8732C11.0598 14.924 11.227 14.9494 11.3986 14.9494C11.643 14.9494 11.8447 14.9029 12.0034 14.8097C12.1621 14.7167 12.28 14.5918 12.3572 14.4351C12.4345 14.2742 12.473 14.0965 12.473 13.9017Z" fill="#08526D"/>
<path d="M15.9173 18.04H49.8787C50.4642 18.04 50.9388 18.4879 50.9388 19.0404V48.8764C50.9388 49.4289 50.4642 49.8768 49.8787 49.8768H15.9173C15.3318 49.8768 14.8572 49.4289 14.8572 48.8764V19.0404C14.8572 18.4879 15.3318 18.04 15.9173 18.04Z" fill="url(#paint0_linear_3582_2979)"/>
<path d="M36.5 22.25C36.5 21.5596 35.9404 21 35.25 21C34.5596 21 34 21.5596 34 22.25C34 22.9404 34.5596 23.5 35.25 23.5C35.9404 23.5 36.5 22.9404 36.5 22.25Z" fill="#08526D"/>
<path d="M47.5 22.25C47.5 21.5596 46.9404 21 46.25 21C45.5596 21 45 21.5596 45 22.25C45 22.9404 45.5596 23.5 46.25 23.5C46.9404 23.5 47.5 22.9404 47.5 22.25Z" fill="#08526D"/>
<path d="M42.5 22.25C42.5 21.5596 41.9404 21 41.25 21C40.5596 21 40 21.5596 40 22.25C40 22.9404 40.5596 23.5 41.25 23.5C41.9404 23.5 42.5 22.9404 42.5 22.25Z" fill="#08526D"/>
<path fill-rule="evenodd" clip-rule="evenodd" d="M13.3596 21.4461C13.3596 19.1017 15.2601 17.2012 17.6045 17.2012H47.3571C49.7015 17.2012 51.602 19.1017 51.602 21.4461V47.2242C51.602 49.5686 49.7015 51.4691 47.3571 51.4691H17.6045C15.2601 51.4691 13.3596 49.5686 13.3596 47.2242V21.4461ZM17.6045 19.3236C16.4323 19.3236 15.4821 20.2739 15.4821 21.4461V24.7138L49.4796 24.6136V21.4461C49.4796 20.2739 48.5293 19.3236 47.3571 19.3236H17.6045ZM49.4796 26.7361L15.4821 26.8363V47.2242C15.4821 48.3964 16.4323 49.3466 17.6045 49.3466H47.3571C48.5293 49.3466 49.4796 48.3964 49.4796 47.2242V26.7361Z" fill="#08526D"/>
</g>
</g>
<defs>
<linearGradient id="paint0_linear_3582_2979" x1="33" y1="58" x2="33" y2="30.5" gradientUnits="userSpaceOnUse">
<stop stop-color="#F9B2BD"/>
<stop offset="1" stop-color="#F9B2BD" stop-opacity="0"/>
</linearGradient>
<clipPath id="clip0_3582_2979">
<rect width="52" height="52" fill="white"/>
</clipPath>
</defs>
</svg>
