<svg width="52" height="52" viewBox="0 0 52 52" fill="none" xmlns="http://www.w3.org/2000/svg">
<g clip-path="url(#clip0_3582_758)">
<path d="M31.9747 18.0405V5.3058C31.9747 4.03925 31.4716 2.82458 30.576 1.929C29.6804 1.03342 28.4657 0.530285 27.1992 0.530285H4.91346C4.28594 0.528886 3.66432 0.651453 3.0843 0.89095C2.50428 1.13045 1.97727 1.48215 1.53355 1.92588C1.08982 2.36961 0.738112 2.89661 0.498616 3.47663C0.259119 4.05666 0.136552 4.67827 0.137951 5.3058V18.0405C0.136552 18.668 0.259119 19.2896 0.498616 19.8697C0.738112 20.4497 1.08982 20.9767 1.53355 21.4204C1.97727 21.8641 2.50428 22.2158 3.0843 22.4553C3.66432 22.6948 4.28594 22.8174 4.91346 22.816H27.1992C28.4657 22.816 29.6804 22.3129 30.576 21.4173C31.4716 20.5217 31.9747 19.307 31.9747 18.0405Z" fill="#F9B2BD"/>
<path d="M8.76563 5.60352C8.90073 5.60352 9.03029 5.65718 9.12582 5.75271C9.22135 5.84824 9.27502 5.97781 9.27502 6.1129V6.96188C9.26434 7.08949 9.206 7.2084 9.11161 7.29493C9.01721 7.38146 8.89368 7.42927 8.76563 7.42882C8.63138 7.42611 8.50339 7.37157 8.40844 7.27662C8.31349 7.18168 8.25895 7.05368 8.25624 6.91943V6.07045C8.26922 5.94374 8.32826 5.8262 8.42216 5.74013C8.51605 5.65407 8.63827 5.60545 8.76563 5.60352ZM8.63828 15.9717C8.77338 15.9717 8.90294 16.0253 8.99847 16.1209C9.094 16.2164 9.14767 16.346 9.14767 16.4811V17.1709C9.14912 17.2382 9.13693 17.305 9.11184 17.3675C9.08676 17.43 9.04929 17.4867 9.0017 17.5343C8.9541 17.5819 8.89737 17.6193 8.83491 17.6444C8.77246 17.6695 8.70557 17.6817 8.63828 17.6802C8.50318 17.6802 8.37362 17.6266 8.27809 17.5311C8.18256 17.4355 8.12889 17.306 8.12889 17.1709V16.4811C8.13161 16.3468 8.18614 16.2188 8.28109 16.1239C8.37604 16.0289 8.50403 15.9744 8.63828 15.9717ZM9.69951 13.8492C9.69609 13.6491 9.64516 13.4527 9.55093 13.2762C9.45887 13.1032 9.3236 12.9569 9.15828 12.8517C8.95062 12.7052 8.72617 12.584 8.48971 12.4909C7.97877 12.2964 7.48228 12.0659 7.00399 11.8011C6.60123 11.5845 6.25569 11.2753 5.99583 10.899C5.74466 10.4955 5.61907 10.0264 5.63502 9.55127C5.62179 9.06691 5.75493 8.58981 6.01706 8.18229C6.28054 7.78923 6.6479 7.47697 7.07828 7.28025C7.57914 7.05872 8.12258 6.95003 8.67012 6.96188C9.09572 6.9606 9.51868 7.0287 9.92236 7.16352C10.2847 7.2935 10.6168 7.49568 10.8987 7.7578C11.2623 8.06569 11.5309 8.47051 11.6734 8.92515C11.7024 9.05102 11.7012 9.18199 11.6699 9.30731C11.6385 9.43263 11.5779 9.54873 11.4929 9.64608C11.408 9.74343 11.3012 9.81925 11.1813 9.86734C11.0614 9.91542 10.9318 9.9344 10.8032 9.9227H10.3893C10.2145 9.90932 10.049 9.83862 9.91856 9.72157C9.78807 9.60452 9.69988 9.44766 9.66767 9.27535C9.62495 9.1077 9.54517 8.95176 9.4342 8.81903C9.34445 8.70146 9.22806 8.60689 9.09461 8.54311C8.95075 8.49727 8.79949 8.47926 8.64889 8.49005C8.44765 8.48421 8.24889 8.53574 8.07583 8.63862C7.92441 8.72301 7.80783 8.85838 7.74685 9.02066C7.67323 9.18768 7.63701 9.36878 7.64073 9.55127C7.63989 9.73693 7.67596 9.9209 7.74685 10.0925C7.84562 10.2577 7.9797 10.3991 8.13951 10.5064C8.37353 10.6615 8.62237 10.793 8.88236 10.899C9.39164 11.0977 9.88481 11.3354 10.3575 11.61C10.7774 11.8227 11.1411 12.1319 11.4187 12.5121C11.6761 12.9247 11.8019 13.4059 11.7795 13.8917C11.7975 14.3881 11.6603 14.8778 11.3869 15.2925C11.1289 15.6854 10.7593 15.9921 10.3256 16.1733C9.81492 16.386 9.26572 16.4908 8.71257 16.4811C8.2778 16.4767 7.84571 16.4124 7.42848 16.29C7.04763 16.1837 6.68843 16.0113 6.36726 15.7807C6.03309 15.5397 5.76041 15.2234 5.57134 14.8574C5.50204 14.7103 5.44524 14.5577 5.40155 14.4011C5.37649 14.2739 5.38128 14.1426 5.41554 14.0175C5.44979 13.8925 5.51259 13.7771 5.59898 13.6804C5.68537 13.5837 5.793 13.5084 5.91342 13.4604C6.03384 13.4123 6.16376 13.3929 6.29297 13.4035H6.53706C6.74079 13.4231 6.93358 13.5049 7.08925 13.6378C7.24492 13.7707 7.35594 13.9482 7.40726 14.1464C7.46668 14.324 7.5687 14.4843 7.7044 14.6133C7.82994 14.7278 7.97819 14.8146 8.13951 14.868C8.30072 14.9193 8.46912 14.9444 8.63828 14.9423C8.84871 14.9522 9.05787 14.9045 9.24318 14.8043C9.38064 14.705 9.4873 14.5689 9.55093 14.4117C9.64785 14.2472 9.70254 14.0612 9.71012 13.8705L9.69951 13.8492Z" fill="#08526D"/>
<path d="M16.3004 5.60352C16.4355 5.60352 16.5651 5.65718 16.6606 5.75271C16.7561 5.84824 16.8098 5.97781 16.8098 6.1129V6.96188C16.8098 7.09698 16.7561 7.22655 16.6606 7.32207C16.5651 7.4176 16.4355 7.47127 16.3004 7.47127C16.1662 7.46856 16.0382 7.41402 15.9432 7.31907C15.8483 7.22412 15.7937 7.09613 15.791 6.96188V6.1129C15.7937 5.97866 15.8483 5.85066 15.9432 5.75571C16.0382 5.66077 16.1662 5.60623 16.3004 5.60352ZM16.1731 15.9717C16.3073 15.9744 16.4353 16.0289 16.5303 16.1239C16.6252 16.2188 16.6797 16.3468 16.6825 16.4811V17.1709C16.6825 17.3116 16.6265 17.4466 16.527 17.5461C16.4275 17.6456 16.2926 17.7015 16.1518 17.7015C16.0111 17.7015 15.8761 17.6456 15.7766 17.5461C15.6771 17.4466 15.6212 17.3116 15.6212 17.1709V16.4811C15.6225 16.4109 15.638 16.3417 15.6667 16.2777C15.6955 16.2137 15.7369 16.1562 15.7884 16.1086C15.84 16.061 15.9006 16.0243 15.9667 16.0008C16.0329 15.9773 16.103 15.9674 16.1731 15.9717ZM17.2343 13.8492C17.2388 13.645 17.199 13.4423 17.1176 13.2549C17.0222 13.0843 16.8876 12.9388 16.7249 12.8305C16.5029 12.6826 16.2643 12.5615 16.0139 12.4696C15.5004 12.273 15.0005 12.0426 14.5176 11.7798C14.1177 11.5632 13.7756 11.2539 13.52 10.8778C13.2766 10.4792 13.1549 10.0181 13.1698 9.55127C13.1566 9.06691 13.2897 8.58981 13.5518 8.18229C13.8127 7.78693 14.1808 7.47404 14.6131 7.28025C15.1139 7.05872 15.6574 6.95003 16.2049 6.96188C16.6305 6.9606 17.0535 7.0287 17.4571 7.16352C17.8163 7.29344 18.145 7.49571 18.4229 7.7578C18.7053 8.01499 18.9233 8.33485 19.0596 8.69168C19.0927 8.77851 19.121 8.86707 19.1445 8.95698C19.1735 9.08286 19.1723 9.21383 19.141 9.33915C19.1096 9.46447 19.049 9.58056 18.9641 9.67791C18.8791 9.77526 18.7723 9.85109 18.6524 9.89918C18.5325 9.94726 18.4029 9.96623 18.2743 9.95454H17.9135C17.738 9.93995 17.5718 9.86906 17.4399 9.7524C17.3079 9.63575 17.2172 9.47959 17.1812 9.30719C17.1529 9.13099 17.0839 8.96383 16.9796 8.81903C16.8885 8.69854 16.7679 8.60353 16.6294 8.54311C16.4863 8.49384 16.3343 8.47575 16.1837 8.49005C15.9824 8.48421 15.7837 8.53574 15.6106 8.63862C15.4567 8.71989 15.3392 8.85636 15.2816 9.02066C15.208 9.18768 15.1718 9.36878 15.1755 9.55127C15.1695 9.73738 15.2058 9.92244 15.2816 10.0925C15.3804 10.2577 15.5145 10.3991 15.6743 10.5064C15.9057 10.6596 16.1508 10.7911 16.4065 10.899C16.9191 11.0979 17.4158 11.3356 17.8922 11.61C18.2921 11.8267 18.6342 12.136 18.8898 12.5121C19.1503 12.9238 19.2798 13.4048 19.2612 13.8917C19.2792 14.3881 19.142 14.8778 18.8686 15.2925C18.6106 15.6854 18.241 15.9921 17.8074 16.1733C17.2963 16.3849 16.7473 16.4896 16.1943 16.4811C15.7858 16.4804 15.3792 16.4269 14.9845 16.3219C14.6036 16.2156 14.2444 16.0431 13.9233 15.8125C13.5913 15.5661 13.3253 15.2417 13.1486 14.868C13.0747 14.7229 13.0177 14.5698 12.9788 14.4117C12.954 14.2854 12.9587 14.1551 12.9924 14.031C13.0261 13.9068 13.0879 13.792 13.1731 13.6956C13.2582 13.5991 13.3644 13.5236 13.4835 13.4748C13.6025 13.426 13.7312 13.4052 13.8596 13.4141H14.1143C14.3152 13.4419 14.5039 13.5266 14.6581 13.6582C14.8123 13.7899 14.9256 13.963 14.9845 14.157C15.0439 14.3346 15.1459 14.4949 15.2816 14.6239C15.4072 14.7384 15.5554 14.8252 15.7167 14.8786C15.878 14.9299 16.0464 14.955 16.2155 14.9529C16.4259 14.9629 16.6351 14.9152 16.8204 14.8149C16.9705 14.7274 17.0921 14.5985 17.1706 14.4435C17.2435 14.2619 17.269 14.0647 17.2449 13.8705L17.2343 13.8492Z" fill="#08526D"/>
<path d="M23.8351 5.60352C23.9702 5.60352 24.0997 5.65718 24.1953 5.75271C24.2908 5.84824 24.3445 5.97781 24.3445 6.1129V6.96188C24.3445 7.09698 24.2908 7.22655 24.1953 7.32207C24.0997 7.4176 23.9702 7.47127 23.8351 7.47127C23.7046 7.46329 23.5819 7.40643 23.4914 7.31203C23.4009 7.21763 23.3493 7.09261 23.3469 6.96188V6.1129C23.3493 5.98217 23.4009 5.85716 23.4914 5.76275C23.5819 5.66835 23.7046 5.6115 23.8351 5.60352ZM23.7077 15.9717C23.842 15.9744 23.97 16.0289 24.0649 16.1239C24.1599 16.2188 24.2144 16.3468 24.2171 16.4811V17.1709C24.2171 17.3116 24.1612 17.4466 24.0617 17.5461C23.9622 17.6456 23.8272 17.7015 23.6865 17.7015C23.5458 17.7015 23.4108 17.6456 23.3113 17.5461C23.2118 17.4466 23.1559 17.3116 23.1559 17.1709V16.4811C23.1572 16.4109 23.1727 16.3417 23.2014 16.2777C23.2301 16.2137 23.2715 16.1562 23.3231 16.1086C23.3747 16.061 23.4353 16.0243 23.5014 16.0008C23.5675 15.9773 23.6377 15.9674 23.7077 15.9717ZM24.769 13.8492C24.7735 13.645 24.7337 13.4423 24.6522 13.2549C24.5569 13.0843 24.4223 12.9388 24.2596 12.8305C24.0376 12.6826 23.7989 12.5615 23.5485 12.4696C23.0351 12.273 22.5352 12.0426 22.0522 11.7798C21.6524 11.5632 21.3103 11.2539 21.0547 10.8778C20.8113 10.4792 20.6895 10.0181 20.7045 9.55127C20.6912 9.06691 20.8244 8.58981 21.0865 8.18229C21.3474 7.78693 21.7155 7.47404 22.1477 7.28025C22.6486 7.05872 23.192 6.95003 23.7396 6.96188C24.1652 6.9606 24.5881 7.0287 24.9918 7.16352C25.351 7.29344 25.6797 7.49571 25.9575 7.7578C26.2399 8.01499 26.458 8.33485 26.5943 8.69168C26.6274 8.77851 26.6557 8.86707 26.6792 8.95698C26.7082 9.08286 26.707 9.21383 26.6756 9.33915C26.6443 9.46447 26.5836 9.58056 26.4987 9.67791C26.4138 9.77526 26.307 9.85109 26.1871 9.89918C26.0672 9.94726 25.9376 9.96623 25.809 9.95454H25.4694C25.2938 9.93995 25.1277 9.86906 24.9958 9.7524C24.8638 9.63575 24.7731 9.47959 24.7371 9.30719C24.6934 9.14196 24.6177 8.98691 24.5143 8.85086C24.4231 8.73038 24.3025 8.63536 24.1641 8.57494C24.0233 8.51484 23.8713 8.48588 23.7183 8.49005C23.5171 8.48421 23.3183 8.53574 23.1453 8.63862C22.9913 8.71989 22.8738 8.85636 22.8163 9.02066C22.7427 9.18768 22.7065 9.36878 22.7102 9.55127C22.7042 9.73738 22.7405 9.92244 22.8163 10.0925C22.9151 10.2577 23.0492 10.3991 23.209 10.5064C23.4404 10.6596 23.6855 10.7911 23.9412 10.899C24.4538 11.0979 24.9505 11.3356 25.4269 11.61C25.8268 11.8267 26.1688 12.136 26.4245 12.5121C26.6849 12.9238 26.8144 13.4048 26.7959 13.8917C26.8139 14.3881 26.6767 14.8778 26.4032 15.2925C26.1453 15.6854 25.7757 15.9921 25.342 16.1733C24.831 16.3849 24.282 16.4896 23.729 16.4811C23.3205 16.4804 22.9139 16.4269 22.5192 16.3219C22.1383 16.2156 21.7791 16.0431 21.4579 15.8125C21.126 15.5661 20.8599 15.2417 20.6832 14.868C20.6093 14.7229 20.5524 14.5698 20.5134 14.4117C20.4887 14.2854 20.4934 14.1551 20.5271 14.031C20.5607 13.9068 20.6226 13.792 20.7077 13.6956C20.7929 13.5991 20.8991 13.5236 21.0182 13.4748C21.1372 13.426 21.2659 13.4052 21.3943 13.4141H21.649C21.8498 13.4419 22.0385 13.5266 22.1927 13.6582C22.347 13.7899 22.4602 13.963 22.5192 14.157C22.5786 14.3346 22.6806 14.4949 22.8163 14.6239C22.9418 14.7384 23.0901 14.8252 23.2514 14.8786C23.4126 14.9299 23.581 14.955 23.7502 14.9529C23.9606 14.9629 24.1698 14.9152 24.3551 14.8149C24.5051 14.7274 24.6267 14.5985 24.7053 14.4435C24.7781 14.2619 24.8037 14.0647 24.7796 13.8705L24.769 13.8492Z" fill="#08526D"/>
<path d="M14.9526 16.1943H48.9118C49.1932 16.1943 49.4632 16.3061 49.6622 16.5052C49.8612 16.7042 49.973 16.9741 49.973 17.2556V48.9013C49.973 49.1827 49.8612 49.4527 49.6622 49.6517C49.4632 49.8507 49.1932 49.9625 48.9118 49.9625H14.9526C14.6711 49.9625 14.4012 49.8507 14.2022 49.6517C14.0032 49.4527 13.8914 49.1827 13.8914 48.9013V17.2556C13.8914 16.9741 14.0032 16.7042 14.2022 16.5052C14.4012 16.3061 14.6711 16.1943 14.9526 16.1943Z" fill="url(#paint0_linear_3582_758)"/>
<path d="M32.898 21.0439C33.2667 21.0439 33.6203 21.1904 33.881 21.4511C34.1418 21.7118 34.2882 22.0654 34.2882 22.4341C34.2882 22.8029 34.1418 23.1565 33.881 23.4172C33.6203 23.6779 33.2667 23.8244 32.898 23.8244C32.5293 23.8244 32.1757 23.6779 31.915 23.4172C31.6543 23.1565 31.5078 22.8029 31.5078 22.4341C31.5078 22.2516 31.5438 22.0708 31.6136 21.9021C31.6835 21.7335 31.7859 21.5802 31.915 21.4511C32.0441 21.322 32.1973 21.2196 32.366 21.1498C32.5347 21.0799 32.7155 21.0439 32.898 21.0439Z" fill="#08526D"/>
<path d="M43.9879 21.044C44.1708 21.0426 44.3522 21.0776 44.5215 21.1469C44.6908 21.2163 44.8447 21.3186 44.974 21.448C45.1034 21.5774 45.2058 21.7312 45.2751 21.9005C45.3445 22.0698 45.3795 22.2512 45.3781 22.4342C45.3781 22.6168 45.3421 22.7975 45.2722 22.9662C45.2024 23.1349 45.1 23.2881 44.9709 23.4172C44.8418 23.5463 44.6885 23.6487 44.5199 23.7186C44.3512 23.7884 44.1704 23.8244 43.9879 23.8244C43.8053 23.8244 43.6245 23.7884 43.4559 23.7186C43.2872 23.6487 43.1339 23.5463 43.0048 23.4172C42.8757 23.2881 42.7733 23.1349 42.7035 22.9662C42.6336 22.7975 42.5977 22.6168 42.5977 22.4342C42.5977 22.2516 42.6336 22.0709 42.7035 21.9022C42.7733 21.7335 42.8757 21.5803 43.0048 21.4512C43.1339 21.3221 43.2872 21.2197 43.4559 21.1498C43.6245 21.0799 43.8053 21.044 43.9879 21.044Z" fill="#08526D"/>
<path d="M38.4376 21.044C38.8063 21.044 39.1599 21.1905 39.4206 21.4512C39.6813 21.7119 39.8278 22.0655 39.8278 22.4342C39.8278 22.8029 39.6813 23.1565 39.4206 23.4172C39.1599 23.6779 38.8063 23.8244 38.4376 23.8244C38.0689 23.8244 37.7153 23.6779 37.4546 23.4172C37.1939 23.1565 37.0474 22.8029 37.0474 22.4342C37.046 22.2512 37.081 22.0698 37.1504 21.9005C37.2197 21.7312 37.3221 21.5774 37.4514 21.448C37.5808 21.3186 37.7346 21.2163 37.9039 21.1469C38.0732 21.0776 38.2547 21.0426 38.4376 21.044Z" fill="#08526D"/>
<path fill-rule="evenodd" clip-rule="evenodd" d="M12.8303 21.447C12.8303 20.3212 13.2776 19.2415 14.0736 18.4455C14.8697 17.6494 15.9494 17.2021 17.0752 17.2021H46.7895C47.9153 17.2021 48.995 17.6494 49.7911 18.4455C50.5872 19.2415 51.0344 20.3212 51.0344 21.447V47.2242C51.0344 48.35 50.5872 49.4297 49.7911 50.2258C48.995 51.0219 47.9153 51.4691 46.7895 51.4691H17.0752C15.9494 51.4691 14.8697 51.0219 14.0736 50.2258C13.2776 49.4297 12.8303 48.35 12.8303 47.2242V21.447ZM17.0752 19.3246C16.5123 19.3246 15.9725 19.5482 15.5744 19.9462C15.1764 20.3443 14.9528 20.8841 14.9528 21.447V24.7156L48.912 24.6095V21.4258C48.912 20.8629 48.6883 20.3231 48.2903 19.925C47.8923 19.527 47.3524 19.3034 46.7895 19.3034L17.0752 19.3246ZM48.912 26.7532L14.9528 26.8593V47.2242C14.9528 47.7871 15.1764 48.327 15.5744 48.725C15.9725 49.123 16.5123 49.3466 17.0752 49.3466H46.7895C47.3524 49.3466 47.8923 49.123 48.2903 48.725C48.6883 48.327 48.912 47.7871 48.912 47.2242V26.7532Z" fill="#08526D"/>
<path d="M38.2036 36.6982H44.5718C45.0019 36.6984 45.4141 36.8697 45.7183 37.1738C46.0224 37.478 46.1937 37.8902 46.1938 38.3203V45.749C46.1938 46.1793 46.0225 46.5922 45.7183 46.8965C45.5354 47.0793 45.3132 47.2127 45.0718 47.291V37.8203H37.7036V46.249H44.0718V47.3721H38.2036C37.7735 47.372 37.3613 47.2006 37.0571 46.8965C36.7529 46.5922 36.5815 46.1793 36.5815 45.749V38.3203C36.5816 37.8901 36.753 37.478 37.0571 37.1738C37.3233 36.9076 37.6721 36.743 38.0435 36.7061L38.2036 36.6982Z" fill="#08526D" stroke="#08526D"/>
<path d="M45.6323 29.1533C45.7812 29.1533 45.9245 29.2121 46.0298 29.3174C46.135 29.4226 46.1938 29.566 46.1938 29.7148V31.8369C46.1938 32.2672 46.0225 32.6801 45.7183 32.9844C45.4141 33.2884 45.0018 33.4589 44.5718 33.459H38.2036C37.7736 33.4589 37.3613 33.2884 37.0571 32.9844C36.7529 32.6801 36.5815 32.2672 36.5815 31.8369V29.7148C36.5815 29.566 36.6404 29.4226 36.7456 29.3174C36.8509 29.2121 36.9942 29.1533 37.1431 29.1533C37.2917 29.1534 37.4344 29.2123 37.5396 29.3174C37.6448 29.4226 37.7036 29.566 37.7036 29.7148V32.3369H45.0718V29.7148C45.0718 29.566 45.1306 29.4226 45.2358 29.3174C45.341 29.2123 45.4837 29.1534 45.6323 29.1533Z" fill="#08526D" stroke="#08526D"/>
<path fill-rule="evenodd" clip-rule="evenodd" d="M26.0424 35.6574C26.2264 35.6574 26.4029 35.7297 26.534 35.8588C26.665 35.9878 26.7401 36.1633 26.7428 36.3472V40.2101C26.7401 40.395 26.6654 40.5715 26.5347 40.7023C26.4039 40.8331 26.2273 40.9077 26.0424 40.9105H24.0898C23.9934 41.2152 23.8764 41.513 23.7396 41.8019L25.151 43.277C25.2742 43.4054 25.343 43.5765 25.343 43.7545C25.343 43.9325 25.2742 44.1037 25.151 44.2321L22.5298 46.9701C22.4654 47.0375 22.388 47.0911 22.3022 47.1278C22.2165 47.1645 22.1242 47.1834 22.031 47.1834C21.9378 47.1834 21.8455 47.1645 21.7598 47.1278C21.674 47.0911 21.5966 47.0375 21.5322 46.9701L20.1632 45.5374C19.9013 45.6801 19.628 45.8008 19.3461 45.8982V47.1823C19.3433 47.3662 19.2683 47.5417 19.1372 47.6707C19.0062 47.7998 18.8296 47.8721 18.6457 47.8721H16.4277V46.4925H17.9559V45.3676C17.957 45.2113 18.0112 45.0601 18.1095 44.9386C18.2079 44.8172 18.3445 44.7327 18.4971 44.699C18.9887 44.5845 19.4558 44.3833 19.8767 44.1047H19.9298C20.0648 44.0229 20.2238 43.9898 20.3802 44.0111C20.5367 44.0323 20.6811 44.1066 20.7894 44.2215L22.031 45.5268L23.6971 43.7864L22.4024 42.4492C22.3015 42.3434 22.2369 42.2082 22.2178 42.0633C22.1987 41.9183 22.2262 41.771 22.2963 41.6427C22.5621 41.1487 22.7687 40.6251 22.9118 40.0827C22.9479 39.9331 23.0337 39.8002 23.1551 39.7057C23.2766 39.6113 23.4265 39.5608 23.5804 39.5627H25.3526V37.037H23.5804C23.4265 37.0389 23.2766 36.9884 23.1551 36.894C23.0337 36.7995 22.9479 36.6666 22.9118 36.517C22.7653 35.9741 22.5552 35.4505 22.2857 34.957C22.2165 34.8303 22.1895 34.6848 22.2085 34.5417C22.2276 34.3986 22.2918 34.2652 22.3918 34.1611L23.6865 32.8027L22.0204 31.0623L20.7894 32.3676C20.6811 32.4825 20.5367 32.5568 20.3802 32.578C20.2238 32.5993 20.0648 32.5662 19.9298 32.4843H19.8767C19.4572 32.2056 18.9893 32.0076 18.4971 31.9007C18.3437 31.8649 18.2068 31.7783 18.1085 31.6551C18.0103 31.5318 17.9566 31.3791 17.9559 31.2215V30.0647H16.4277V28.6533H18.6457C18.8296 28.6533 19.0062 28.7256 19.1372 28.8547C19.2683 28.9838 19.3433 29.1592 19.3461 29.3431V30.6272C19.628 30.7246 19.9013 30.8453 20.1632 30.988L21.5322 29.5554C21.5966 29.4879 21.674 29.4343 21.7598 29.3976C21.8455 29.361 21.9378 29.3421 22.031 29.3421C22.1242 29.3421 22.2165 29.361 22.3022 29.3976C22.388 29.4343 22.4654 29.4879 22.5298 29.5554L25.151 32.2933C25.2742 32.4218 25.343 32.5929 25.343 32.7709C25.343 32.9489 25.2742 33.12 25.151 33.2484L23.7396 34.7235C23.8764 35.016 23.9934 35.3174 24.0898 35.6256L26.0424 35.6574Z" fill="#08526D" stroke="#08526D" stroke-width="0.5" stroke-miterlimit="10" stroke-linecap="round"/>
<path fill-rule="evenodd" clip-rule="evenodd" d="M19.8343 38.2785C19.8925 37.3139 19.5671 36.3655 18.929 35.6399C18.2909 34.9144 17.3918 34.4704 16.4277 34.405V33.0254C17.7594 33.0887 19.0118 33.677 19.9108 34.6615C20.8098 35.646 21.2821 36.9465 21.2245 38.2785C21.2602 38.9415 21.1646 39.605 20.9432 40.231C20.7217 40.857 20.3788 41.433 19.934 41.9261C19.4893 42.4191 18.9516 42.8195 18.3517 43.1041C17.7518 43.3887 17.1015 43.552 16.4383 43.5846V42.205C16.9196 42.1714 17.3895 42.043 17.8209 41.8272C18.2524 41.6114 18.637 41.3125 18.9525 40.9476C19.2681 40.5828 19.5085 40.1591 19.6598 39.701C19.8111 39.243 19.8704 38.7595 19.8343 38.2785Z" fill="#08526D" stroke="#08526D" stroke-width="0.5" stroke-miterlimit="10" stroke-linecap="round"/>
</g>
<defs>
<linearGradient id="paint0_linear_3582_758" x1="31.9999" y1="59.5" x2="31.8367" y2="35.0207" gradientUnits="userSpaceOnUse">
<stop stop-color="#F9B2BD"/>
<stop offset="1" stop-color="#F9B2BD" stop-opacity="0"/>
</linearGradient>
<clipPath id="clip0_3582_758">
<rect width="52" height="52" fill="white"/>
</clipPath>
</defs>
</svg>
