<svg width="52" height="52" viewBox="0 0 52 52" fill="none" xmlns="http://www.w3.org/2000/svg">
<g clip-path="url(#clip0_3582_3301)">
<path d="M26.4245 18.0405V5.30578C26.4245 2.65272 24.302 0.530273 21.649 0.530273H5.73059C3.07753 0.530273 0.955078 2.65272 0.955078 5.30578V18.0405C0.955078 20.6935 3.07753 22.816 5.73059 22.816H21.649C24.302 22.816 26.4245 20.6935 26.4245 18.0405Z" fill="#F9B2BD"/>
<path d="M10.1877 5.62402C10.5061 5.62402 10.7183 5.83627 10.7183 6.15464V7.00361C10.7183 7.21586 10.5061 7.4281 10.1877 7.4281C9.86936 7.4281 9.65711 7.21586 9.65711 6.89749V6.04851C9.76324 5.83627 9.97548 5.62402 10.1877 5.62402ZM10.0816 16.024C10.4 16.024 10.6122 16.2363 10.6122 16.5546V17.1914C10.6122 17.5097 10.4 17.722 10.0816 17.722C9.76324 17.722 9.55099 17.5097 9.55099 17.1914V16.5546C9.55099 16.2363 9.76324 15.9179 10.0816 16.024ZM11.1428 13.9016C11.1428 13.6893 11.1428 13.4771 11.0367 13.2648C10.9306 13.0526 10.8245 12.9465 10.6122 12.8404C10.4 12.7342 10.1877 12.522 9.86936 12.522C9.33875 12.3097 8.80813 12.0975 8.38365 11.8852C7.95916 11.673 7.64079 11.3546 7.42854 11.0363C7.2163 10.5057 7.00405 9.97504 7.11018 9.55055C7.11018 9.01994 7.2163 8.59545 7.42854 8.17096C7.64079 7.74647 8.06528 7.4281 8.48977 7.21586C9.02038 7.00362 9.55099 6.89749 10.0816 6.89749C10.5061 6.89749 10.9306 7.00361 11.3551 7.10974C11.6734 7.21586 11.9918 7.4281 12.3102 7.74647C12.6285 7.95872 12.8408 8.27708 12.9469 8.70157C12.9469 8.8077 13.053 8.91382 13.053 9.01994C13.1592 9.44443 12.8408 9.86892 12.4163 9.97504C12.3102 9.97504 12.2041 9.97504 12.2041 9.97504H11.8857C11.5673 9.97504 11.249 9.65668 11.1428 9.33831C11.1428 9.12606 11.0367 9.01994 10.9306 8.91382C10.7183 8.70157 10.6122 8.59545 10.5061 8.48933C10.4 8.48933 10.1877 8.48933 10.0816 8.48933C9.86936 8.48933 9.76324 8.48933 9.55099 8.59545C9.44487 8.70157 9.23262 8.8077 9.23262 9.01994C9.1265 9.12606 9.1265 9.33831 9.1265 9.55055C9.1265 9.7628 9.1265 9.86892 9.23262 10.0812C9.33875 10.1873 9.44487 10.3995 9.55099 10.5057C9.76324 10.6118 10.0816 10.824 10.2938 10.9301C10.8245 11.1424 11.249 11.3546 11.7796 11.673C12.2041 11.8852 12.5224 12.2036 12.8408 12.6281C13.053 13.0526 13.2653 13.4771 13.1592 14.0077C13.1592 14.5383 12.9469 14.9628 12.7347 15.3873C12.5224 15.8118 12.0979 16.1301 11.6734 16.2363C11.1428 16.4485 10.6122 16.5546 10.0816 16.5546C9.65711 16.5546 9.23262 16.4485 8.91426 16.4485C8.48977 16.3424 8.1714 16.1301 7.85303 15.9179C7.42854 15.4934 7.2163 15.175 7.00405 14.8567C6.89793 14.7506 6.89793 14.5383 6.79181 14.4322C6.68569 14.0077 7.00405 13.5832 7.42854 13.4771C7.53467 13.4771 7.53467 13.4771 7.64079 13.4771H7.85303C8.27752 13.4771 8.59589 13.7955 8.70201 14.2199C8.80813 14.4322 8.91426 14.5383 9.02038 14.6444C9.23262 14.7506 9.44487 14.8567 9.55099 14.8567C9.76324 14.8567 9.86936 14.9628 10.0816 14.9628C10.2938 14.9628 10.5061 14.9628 10.7183 14.8567C10.8245 14.7506 11.0367 14.6444 11.0367 14.4322C11.1428 14.2199 11.1428 14.1138 11.1428 13.9016Z" fill="#08526D"/>
<path d="M17.6164 5.62402C17.9347 5.62402 18.147 5.83627 18.147 6.15464V7.00361C18.147 7.32198 17.9347 7.53423 17.6164 7.53423C17.298 7.53423 17.0857 7.32198 17.0857 7.00361V6.15464C17.0857 5.83627 17.298 5.62402 17.6164 5.62402ZM17.5102 16.024C17.8286 16.024 18.0408 16.2363 18.0408 16.5546V17.1914C18.0408 17.5097 17.8286 17.722 17.5102 17.722C17.1919 17.722 16.9796 17.5097 16.9796 17.1914V16.5546C16.9796 16.2363 17.1919 16.024 17.5102 16.024ZM18.5715 13.9016C18.5715 13.6893 18.5715 13.4771 18.4653 13.2648C18.3592 13.0526 18.2531 12.9465 18.0408 12.8404C17.8286 12.7342 17.6163 12.522 17.298 12.522C16.7674 12.3097 16.2368 12.0975 15.8123 11.8852C15.3878 11.673 15.0694 11.3546 14.8572 10.9301C14.6449 10.5057 14.5388 10.0812 14.5388 9.55055C14.5388 9.01994 14.6449 8.59545 14.8572 8.17096C15.0694 7.74647 15.4939 7.4281 15.9184 7.32198C16.449 7.10974 16.9796 7.00361 17.5102 7.00361C17.9347 7.00361 18.3592 7.10974 18.7837 7.21586C19.1021 7.21586 19.4204 7.4281 19.7388 7.74647C20.0572 7.95872 20.2694 8.27708 20.3755 8.70157C20.3755 8.8077 20.4817 8.91382 20.4817 9.01994C20.5878 9.44443 20.2694 9.86892 19.8449 9.97504C19.7388 9.97504 19.6327 9.97504 19.6327 9.97504H19.3143C18.9959 9.97504 18.6776 9.65668 18.5715 9.33831C18.5715 9.12606 18.4653 9.01994 18.3592 8.91382C18.147 8.70157 18.0408 8.59545 17.9347 8.48933C17.8286 8.48933 17.6164 8.38321 17.5102 8.48933C17.298 8.48933 17.0857 8.48933 16.9796 8.59545C16.8735 8.70157 16.6612 8.8077 16.6612 9.01994C16.5551 9.23219 16.5551 9.33831 16.5551 9.55055C16.5551 9.7628 16.5551 9.86892 16.6612 10.0812C16.7674 10.2934 16.8735 10.3995 17.0857 10.5057C17.298 10.6118 17.6163 10.824 17.8286 10.9301C18.3592 11.1424 18.7837 11.3546 19.3143 11.673C19.7388 11.8852 20.0572 12.2036 20.3755 12.6281C20.5878 13.0526 20.8 13.4771 20.6939 14.0077C20.6939 14.5383 20.5878 14.9628 20.2694 15.3873C20.0572 15.8118 19.6327 16.1301 19.2082 16.2363C18.6776 16.4485 18.147 16.5546 17.6164 16.5546C17.1919 16.5546 16.7674 16.4485 16.449 16.4485C16.0245 16.3424 15.7061 16.1301 15.3878 15.9179C15.0694 15.7057 14.751 15.3873 14.6449 14.9628C14.5388 14.8567 14.5388 14.6444 14.4327 14.5383C14.3266 14.1138 14.6449 13.6893 15.0694 13.5832C15.1755 13.5832 15.1755 13.5832 15.2817 13.5832H15.4939C15.9184 13.5832 16.2368 13.9016 16.3429 14.3261C16.449 14.5383 16.5551 14.6444 16.6612 14.7506C16.7674 14.8567 16.8735 14.9628 17.0857 14.9628C17.298 14.9628 17.4041 15.0689 17.6164 15.0689C17.8286 15.0689 18.0408 15.0689 18.2531 14.9628C18.3592 14.8567 18.5715 14.7506 18.5715 14.5383C18.5715 14.2199 18.5715 14.1138 18.5715 13.9016Z" fill="#08526D"/>
<path d="M15.4938 16.2363H49.453C50.0898 16.2363 50.5143 16.6608 50.5143 17.2976V48.922C50.5143 49.5588 50.0898 49.9833 49.453 49.9833H15.4938C14.8571 49.9833 14.4326 49.5588 14.4326 48.922V17.2976C14.4326 16.6608 14.8571 16.2363 15.4938 16.2363Z" fill="url(#paint0_linear_3582_3301)"/>
<path d="M33.4287 21.0117C34.1715 21.0117 34.8083 21.6485 34.8083 22.3913C34.8083 23.1342 34.1715 23.7709 33.4287 23.7709C32.6858 23.7709 32.0491 23.1342 32.0491 22.3913C32.0491 21.6485 32.6858 21.0117 33.4287 21.0117Z" fill="#08526D"/>
<path d="M44.5715 21.0117C45.3143 21.0117 45.9511 21.6485 45.9511 22.3913C45.9511 23.1342 45.3143 23.7709 44.5715 23.7709C43.8286 23.7709 43.1919 23.1342 43.1919 22.3913C43.1919 21.6485 43.8286 21.0117 44.5715 21.0117Z" fill="#08526D"/>
<path d="M38.947 21.0117C39.6898 21.0117 40.3266 21.6485 40.3266 22.3913C40.3266 23.1342 39.6898 23.7709 38.947 23.7709C38.2041 23.7709 37.5674 23.1342 37.5674 22.3913C37.5674 21.6485 38.2041 21.0117 38.947 21.0117Z" fill="#08526D"/>
<path d="M13.3713 21.4363C13.3713 19.1016 15.2815 17.1914 17.6162 17.1914H47.3305C49.6652 17.1914 51.5754 19.1016 51.5754 21.4363V47.2241C51.5754 49.5588 49.6652 51.469 47.3305 51.469H17.6162C15.2815 51.469 13.3713 49.5588 13.3713 47.2241V21.4363ZM17.6162 19.3139C16.4489 19.3139 15.4938 20.269 15.4938 21.4363V24.7261L49.453 24.62V21.4363C49.453 20.269 48.4979 19.3139 47.3305 19.3139H17.6162ZM49.453 26.7424L15.4938 26.8485V47.2241C15.4938 48.3914 16.4489 49.3465 17.6162 49.3465H47.3305C48.4979 49.3465 49.453 48.3914 49.453 47.2241V26.7424Z" fill="#08526D"/>
<path d="M39.4588 43.1048C39.3487 44.12 38.4916 44.8892 37.4705 44.8892H27.4765C26.4554 44.8892 25.5983 44.12 25.4882 43.1048L24.9668 38.2967C24.8385 37.1137 25.7652 36.0811 26.9552 36.0811H37.9918C39.1818 36.0811 40.1085 37.1137 39.9802 38.2967L39.4588 43.1048Z" stroke="#08526D" stroke-width="2" stroke-linecap="round" stroke-linejoin="round"/>
<path d="M41.9184 36.0811H23.0286" stroke="#08526D" stroke-width="2" stroke-linecap="round" stroke-linejoin="round"/>
<path d="M27.1672 36.0812L30.3509 31.3057" stroke="#08526D" stroke-width="2" stroke-linecap="round" stroke-linejoin="round"/>
<path d="M37.7796 36.0812L34.5959 31.3057" stroke="#08526D" stroke-width="2" stroke-linecap="round" stroke-linejoin="round"/>
</g>
<defs>
<linearGradient id="paint0_linear_3582_3301" x1="35.5" y1="56.5" x2="34" y2="33.5" gradientUnits="userSpaceOnUse">
<stop stop-color="#F9B2BD"/>
<stop offset="1" stop-color="#F9B2BD" stop-opacity="0"/>
</linearGradient>
<clipPath id="clip0_3582_3301">
<rect width="52" height="52" fill="white"/>
</clipPath>
</defs>
</svg>
