<svg width="52" height="52" viewBox="0 0 52 52" fill="none" xmlns="http://www.w3.org/2000/svg">
<g clip-path="url(#clip0_3582_2946)">
<path d="M41.3878 32.1547V14.0078H28.9715V27.0609H16.5552V50.9384H28.9715H41.3878H50.9389V32.1547H41.3878Z" fill="url(#paint0_linear_3582_2946)"/>
<path d="M27.4857 16.449V4.77551C27.4857 2.12245 25.3633 0 22.7102 0H4.66939C2.12245 0 0 2.12245 0 4.77551V16.449C0 18.9959 2.12245 21.2245 4.77551 21.2245H22.8163C25.3633 21.2245 27.4857 18.9959 27.4857 16.449Z" fill="#F9B2BD"/>
<path d="M6.89797 4.35059C7.11022 4.35059 7.42859 4.45671 7.42859 4.77508V5.51793C7.42859 5.8363 7.21634 6.04855 6.89797 6.04855C6.57961 6.04855 6.36736 5.8363 6.36736 5.51793V4.77508C6.47348 4.56283 6.68573 4.35059 6.89797 4.35059ZM6.79185 14.1139C7.0041 14.1139 7.21634 14.3261 7.21634 14.5383V15.1751C7.21634 15.4934 7.0041 15.7057 6.68573 15.7057C6.36736 15.7057 6.15512 15.4934 6.15512 15.1751V14.5383C6.26124 14.3261 6.47348 14.1139 6.79185 14.1139ZM7.85308 12.0975C7.85308 11.8853 7.85308 11.673 7.74695 11.5669C7.64083 11.3547 7.53471 11.2485 7.42859 11.1424C7.21634 11.0363 7.0041 10.9302 6.79185 10.8241C6.15512 10.6118 5.73063 10.3996 5.30614 10.1873C4.88165 9.97508 4.56328 9.65671 4.35103 9.33834C4.03267 8.91385 3.92654 8.48936 4.03267 8.06487C4.03267 7.64038 4.13879 7.10977 4.35103 6.7914C4.56328 6.36691 4.98777 6.15467 5.41226 5.94242C5.83675 5.73018 6.36736 5.62406 6.89797 5.62406C7.32246 5.62406 7.74695 5.73018 8.06532 5.8363C8.38369 5.94242 8.70205 6.15467 8.9143 6.36691C9.12654 6.57916 9.33879 6.89752 9.55103 7.21589C9.55103 7.32201 9.55103 7.32201 9.55103 7.42814C9.65716 7.85263 9.33879 8.27712 8.9143 8.38324C8.80818 8.38324 8.80818 8.38324 8.70205 8.38324H8.48981C8.17144 8.38324 7.85308 8.06487 7.85308 7.7465C7.74695 7.64038 7.64083 7.53426 7.53471 7.42814C7.42859 7.32201 7.32246 7.21589 7.21634 7.10977C7.11022 7.10977 6.89797 7.10977 6.79185 7.10977C6.57961 7.10977 6.36736 7.10977 6.26124 7.21589C6.04899 7.32201 5.94287 7.42814 5.94287 7.53426C5.83675 7.7465 5.83675 7.95875 5.83675 8.06487C5.83675 8.27712 5.83675 8.38324 5.94287 8.59548C6.04899 8.70161 6.15512 8.91385 6.26124 9.01997C6.47348 9.1261 6.68573 9.33834 7.0041 9.33834C7.42859 9.55059 7.9592 9.76283 8.38369 9.97508C8.80818 10.1873 9.12655 10.5057 9.33879 10.8241C9.55103 11.2485 9.65716 11.673 9.65716 12.2036C9.65716 13.1587 9.12655 14.0077 8.27757 14.3261C7.74695 14.5383 7.32246 14.6445 6.79185 14.6445C6.36736 14.6445 6.04899 14.6445 5.6245 14.5383C5.20001 14.4322 4.88165 14.3261 4.56328 14.0077C4.24491 13.7955 4.03267 13.4771 3.82042 13.1587C3.7143 13.0526 3.7143 12.8404 3.7143 12.7343C3.60818 12.2036 3.82042 11.7792 4.24491 11.673C4.35103 11.673 4.45716 11.673 4.56328 11.673H4.77552C5.20001 11.673 5.51838 11.9914 5.6245 12.4159C5.73063 12.6281 5.83675 12.7343 5.94287 12.8404C6.04899 12.9465 6.15512 13.0526 6.36736 13.0526C6.47348 13.0526 6.68573 13.1587 6.79185 13.1587C7.0041 13.1587 7.21634 13.1587 7.32246 13.0526C7.42859 12.9465 7.64083 12.7343 7.64083 12.6281C7.74695 12.522 7.74695 12.3098 7.85308 12.0975Z" fill="#08526D"/>
<path d="M14.0081 4.35059C14.2203 4.35059 14.4326 4.56283 14.4326 4.77508V5.51793C14.4326 5.8363 14.2203 6.04855 13.902 6.04855C13.5836 6.04855 13.3713 5.8363 13.3713 5.51793V4.77508C13.4775 4.56283 13.6897 4.35059 14.0081 4.35059ZM13.902 14.1139C14.1142 14.1139 14.3264 14.3261 14.3264 14.5383V15.1751C14.3264 15.4934 14.1142 15.7057 13.7958 15.7057C13.4775 15.7057 13.2652 15.4934 13.2652 15.1751V14.5383C13.3713 14.3261 13.5836 14.1139 13.902 14.1139ZM14.9632 12.0975C14.9632 11.8853 14.9632 11.673 14.8571 11.5669C14.7509 11.3547 14.6448 11.2485 14.5387 11.1424C14.3264 11.0363 14.1142 10.9302 13.902 10.8241C13.3713 10.6118 12.9469 10.3996 12.5224 10.1873C12.0979 9.97508 11.7795 9.65671 11.5673 9.33834C11.355 8.91385 11.2489 8.48936 11.2489 8.06487C11.2489 7.64038 11.355 7.10977 11.5673 6.7914C11.7795 6.36691 12.204 6.15467 12.6285 5.94242C13.053 5.73018 13.5836 5.62406 14.1142 5.62406C14.5387 5.62406 14.9632 5.73018 15.2815 5.8363C15.5999 5.94242 15.9183 6.15467 16.2367 6.36691C16.4489 6.57916 16.6611 6.89752 16.8734 7.21589C16.8734 7.32201 16.8734 7.42814 16.9795 7.42814C17.0856 7.85263 16.7673 8.27712 16.3428 8.38324C16.2367 8.38324 16.2367 8.38324 16.1305 8.38324H15.8122C15.2815 8.48936 14.8571 8.17099 14.8571 7.7465C14.8571 7.64038 14.7509 7.42814 14.6448 7.32201C14.5387 7.21589 14.4326 7.10977 14.3264 7.10977C14.2203 7.00365 14.0081 7.00365 13.902 7.00365C13.6897 7.00365 13.4775 7.00365 13.3713 7.10977C13.2652 7.21589 13.1591 7.32201 13.053 7.42814C12.9469 7.64038 12.9469 7.7465 12.9469 7.95875C12.9469 8.17099 12.9469 8.27712 13.053 8.48936C13.1591 8.59548 13.2652 8.80773 13.3713 8.91385C13.5836 9.01997 13.7958 9.23222 14.1142 9.23222C14.6448 9.44446 15.0693 9.65671 15.4938 9.86895C15.9183 10.0812 16.2367 10.3996 16.4489 10.7179C16.6611 11.1424 16.7673 11.5669 16.7673 11.9914C16.7673 12.9465 16.2367 13.7955 15.3877 14.1139C14.8571 14.3261 14.4326 14.4322 13.902 14.4322C13.4775 14.4322 13.1591 14.4322 12.7346 14.3261C12.3101 14.22 11.9918 14.1139 11.6734 13.7955C11.355 13.5832 11.1428 13.2649 10.9305 12.9465C10.8244 12.8404 10.8244 12.6281 10.8244 12.522C10.7183 12.0975 10.9305 11.673 11.355 11.5669C11.4611 11.5669 11.5673 11.5669 11.6734 11.5669H11.8856C12.3101 11.5669 12.6285 11.8853 12.7346 12.3098C12.8407 12.522 12.9469 12.6281 13.053 12.7343C13.1591 12.8404 13.2652 12.9465 13.4775 12.9465C13.5836 12.9465 13.7958 13.0526 13.902 13.0526C14.1142 13.0526 14.3264 13.0526 14.4326 12.9465C14.5387 12.8404 14.6448 12.7343 14.7509 12.6281C14.8571 12.522 14.8571 12.3098 14.9632 12.0975Z" fill="#08526D"/>
<path d="M21.1183 4.35059C21.3305 4.35059 21.5428 4.56283 21.5428 4.77508V5.51793C21.5428 5.8363 21.3305 6.04855 21.0122 6.04855C20.6938 6.04855 20.4816 5.8363 20.4816 5.51793V4.77508C20.6938 4.56283 20.9061 4.35059 21.1183 4.35059ZM21.0122 14.1139C21.2244 14.1139 21.4367 14.3261 21.4367 14.5383V15.1751C21.4367 15.4934 21.2244 15.7057 20.9061 15.7057C20.5877 15.7057 20.3754 15.4934 20.3754 15.1751V14.5383C20.4816 14.3261 20.6938 14.1139 21.0122 14.1139ZM22.0734 12.0975C22.0734 11.8853 22.0734 11.673 21.9673 11.5669C21.8612 11.3547 21.755 11.2485 21.6489 11.1424C21.4367 11.0363 21.2244 10.9302 21.0122 10.8241C20.4816 10.6118 20.0571 10.3996 19.6326 10.1873C19.2081 9.97508 18.8897 9.65671 18.6775 9.33834C18.4652 8.91385 18.3591 8.48936 18.3591 8.06487C18.3591 7.64038 18.4652 7.10977 18.6775 6.7914C18.8897 6.36691 19.3142 6.15467 19.7387 5.94242C20.1632 5.73018 20.6938 5.62406 21.2244 5.62406C21.6489 5.62406 21.9673 5.62406 22.2857 5.73018C22.604 5.8363 22.9224 6.04855 23.2408 6.26079C23.453 6.47304 23.6652 6.7914 23.8775 7.10977C23.8775 7.21589 23.8775 7.32201 23.9836 7.32201C24.0897 7.7465 23.7714 8.17099 23.3469 8.27712C23.2408 8.27712 23.2408 8.27712 23.1346 8.27712H22.8163C22.4979 8.27712 22.1795 7.95875 22.1795 7.64038C22.1795 7.53426 22.0734 7.32201 21.9673 7.21589C21.8612 7.10977 21.755 7.00365 21.6489 7.00365C21.5428 6.89752 21.3305 6.89752 21.2244 6.89752C21.0122 6.89752 20.7999 6.89752 20.6938 7.00365C20.2693 7.21589 20.1632 7.32201 20.1632 7.53426C20.0571 7.7465 20.0571 7.85263 20.0571 8.06487C20.0571 8.27712 20.0571 8.38324 20.1632 8.59548C20.2693 8.70161 20.3754 8.91385 20.4816 9.01997C20.6938 9.1261 20.9061 9.33834 21.2244 9.33834C21.755 9.55059 22.1795 9.76283 22.604 9.97508C23.0285 10.1873 23.3469 10.5057 23.5591 10.8241C23.7714 11.2485 23.8775 11.673 23.8775 12.0975C23.8775 13.0526 23.3469 13.9016 22.4979 14.22C21.9673 14.4322 21.5428 14.5383 21.0122 14.5383C20.5877 14.5383 20.2693 14.5383 19.8448 14.4322C19.4203 14.3261 19.102 14.22 18.7836 13.9016C18.4652 13.6894 18.253 13.371 18.0408 13.0526C17.9346 12.9465 17.9346 12.7343 17.9346 12.6281C17.8285 12.2036 18.1469 11.7792 18.5714 11.673C18.6775 11.673 18.6775 11.673 18.7836 11.673H19.102C19.5265 11.673 19.8448 11.9914 19.951 12.4159C20.0571 12.6281 20.1632 12.7343 20.2693 12.8404C20.3754 12.9465 20.4816 13.0526 20.6938 13.0526C20.7999 13.0526 21.0122 13.1587 21.1183 13.1587C21.3305 13.1587 21.5428 13.1587 21.6489 13.0526C21.755 12.9465 21.8612 12.8404 21.9673 12.7343C21.9673 12.4159 22.0734 12.3098 22.0734 12.0975Z" fill="#08526D"/>
<path d="M49.9387 32.1553H42.3877C41.8354 32.1553 41.3877 32.603 41.3877 33.1553V49.9389C41.3877 50.4912 41.8354 50.9389 42.3877 50.9389H49.9387C50.491 50.9389 50.9387 50.4912 50.9387 49.9389V33.1553C50.9387 32.603 50.491 32.1553 49.9387 32.1553Z" stroke="#08526D" stroke-width="2" stroke-miterlimit="10"/>
<path d="M40.3878 14.0078H29.9714C29.4192 14.0078 28.9714 14.4555 28.9714 15.0078V50.0445C28.9714 50.5968 29.4192 51.0445 29.9714 51.0445H40.3878C40.94 51.0445 41.3878 50.5968 41.3878 50.0445V15.0078C41.3878 14.4555 40.94 14.0078 40.3878 14.0078Z" stroke="#08526D" stroke-width="2" stroke-miterlimit="10"/>
<path d="M27.9715 27.0615H17.5552C17.0029 27.0615 16.5552 27.5092 16.5552 28.0615V49.9391C16.5552 50.4914 17.0029 50.9391 17.5552 50.9391H27.9715C28.5238 50.9391 28.9715 50.4914 28.9715 49.9391V28.0615C28.9715 27.5092 28.5238 27.0615 27.9715 27.0615Z" stroke="#08526D" stroke-width="2" stroke-miterlimit="10"/>
<path d="M36.9918 10.8242H33.4734C32.9211 10.8242 32.4734 11.2719 32.4734 11.8242V12.9018C32.4734 13.4541 32.9211 13.9018 33.4734 13.9018H36.9918C37.544 13.9018 37.9918 13.4541 37.9918 12.9018V11.8242C37.9918 11.2719 37.544 10.8242 36.9918 10.8242Z" stroke="#08526D" stroke-width="2" stroke-miterlimit="10"/>
<path d="M24.4693 23.9834H20.9509C20.3986 23.9834 19.9509 24.4311 19.9509 24.9834V26.0609C19.9509 26.6132 20.3986 27.0609 20.9509 27.0609H24.4693C25.0216 27.0609 25.4693 26.6132 25.4693 26.0609V24.9834C25.4693 24.4311 25.0216 23.9834 24.4693 23.9834Z" stroke="#08526D" stroke-width="2" stroke-miterlimit="10"/>
<path d="M44.6775 44.3594H47.755" stroke="#08526D" stroke-width="2" stroke-miterlimit="10" stroke-linecap="round"/>
<path d="M44.6775 38.6289H47.755" stroke="#08526D" stroke-width="2" stroke-miterlimit="10" stroke-linecap="round"/>
<path d="M32.4734 44.3594H37.8856" stroke="#08526D" stroke-width="2" stroke-miterlimit="10" stroke-linecap="round"/>
<path d="M32.4734 38.6289H37.8856" stroke="#08526D" stroke-width="2" stroke-miterlimit="10" stroke-linecap="round"/>
<path d="M32.4734 32.8984H37.8856" stroke="#08526D" stroke-width="2" stroke-miterlimit="10" stroke-linecap="round"/>
<path d="M20.0571 44.3594H25.4694" stroke="#08526D" stroke-width="2" stroke-miterlimit="10" stroke-linecap="round"/>
<path d="M20.0571 38.6289H25.4694" stroke="#08526D" stroke-width="2" stroke-miterlimit="10" stroke-linecap="round"/>
<path d="M20.0571 32.8984H25.4694" stroke="#08526D" stroke-width="2" stroke-miterlimit="10" stroke-linecap="round"/>
<path d="M32.4734 27.0615H37.8856" stroke="#08526D" stroke-width="2" stroke-miterlimit="10" stroke-linecap="round"/>
<path d="M32.4734 21.3311H37.8856" stroke="#08526D" stroke-width="2" stroke-miterlimit="10" stroke-linecap="round"/>
</g>
<defs>
<linearGradient id="paint0_linear_3582_2946" x1="34.0001" y1="56.5" x2="34.0001" y2="34" gradientUnits="userSpaceOnUse">
<stop stop-color="#F9B2BD"/>
<stop offset="1" stop-color="#F9B2BD" stop-opacity="0.02"/>
</linearGradient>
<clipPath id="clip0_3582_2946">
<rect width="52" height="52" fill="white"/>
</clipPath>
</defs>
</svg>
