<svg width="48" height="48" viewBox="0 0 48 48" fill="none" xmlns="http://www.w3.org/2000/svg">
<path d="M19.72 4C18.203 4 16.7481 4.60264 15.6753 5.67535C14.6026 6.74806 14 8.20296 14 9.72V13.08H22.58C23.36 13.08 24 14.22 24 15H9.72C8.20296 15 6.74806 15.6026 5.67535 16.6753C4.60264 17.7481 4 19.203 4 20.72V28.282C4 29.799 4.60264 31.2539 5.67535 32.3267C6.74806 33.3994 8.20296 34.002 9.72 34.002H12.08V28.642C12.0774 27.8918 12.2229 27.1484 12.5081 26.4546C12.7934 25.7607 13.2128 25.13 13.7424 24.5986C14.272 24.0671 14.9012 23.6455 15.5941 23.3578C16.2869 23.0701 17.0298 22.922 17.78 22.922H28.28C31.44 22.922 34 20.38 34 17.22V9.72C34 8.20296 33.3974 6.74806 32.3246 5.67535C31.2519 4.60264 29.797 4 28.28 4H19.72ZM18.28 7.22C19.08 7.22 19.72 7.46 19.72 8.64C19.72 9.82 19.08 10.422 18.28 10.422C17.5 10.422 16.86 9.822 16.86 8.642C16.86 7.462 17.5 7.22 18.28 7.22Z" fill="#0288D1"/>
<path d="M35.918 14V19.36C35.9204 20.11 35.7747 20.8532 35.4893 21.5468C35.2039 22.2405 34.7844 22.8709 34.2549 23.4021C33.7254 23.9334 33.0962 24.3548 32.4035 24.6424C31.7107 24.93 30.9681 25.078 30.218 25.078H19.72C18.9698 25.0754 18.2264 25.2209 17.5326 25.5061C16.8387 25.7914 16.208 26.2108 15.6766 26.7404C15.1451 27.27 14.7235 27.8992 14.4358 28.5921C14.1481 29.2849 14 30.0278 14 30.778V38.278C14 39.795 14.6026 41.2499 15.6753 42.3227C16.7481 43.3954 18.203 43.998 19.72 43.998H28.28C29.7967 43.998 31.2513 43.3956 32.3239 42.3234C33.3966 41.2511 33.9995 39.7967 34 38.28V34.92H25.418C24.638 34.92 24 33.78 24 33H38.28C39.797 33 41.2519 32.3974 42.3246 31.3247C43.3974 30.2519 44 28.797 44 27.28V19.72C44 18.203 43.3974 16.7481 42.3246 15.6753C41.2519 14.6026 39.797 14 38.28 14H35.918ZM16.64 23.026L16.632 23.034L16.708 23.026H16.64ZM29.72 37.578C30.5 37.578 31.14 38.178 31.14 39.358C31.14 39.5445 31.1033 39.7291 31.0319 39.9014C30.9605 40.0737 30.856 40.2302 30.7241 40.3621C30.5922 40.494 30.4357 40.5985 30.2634 40.6699C30.0911 40.7413 29.9065 40.778 29.72 40.778C28.92 40.778 28.28 40.538 28.28 39.358C28.28 38.178 28.92 37.578 29.72 37.578Z" fill="#FDD835"/>
</svg>
