<svg width="64" height="64" viewBox="0 0 64 64" fill="none" xmlns="http://www.w3.org/2000/svg">
<g opacity="0.9">
<path d="M34.2532 6.80716C35.4549 6.38918 36.7283 6.00691 37.9886 6.4429L37.9944 6.44485C39.1915 6.82964 39.9442 7.69917 40.6419 8.61477L40.9387 9.00931C41.3442 9.56666 41.7757 10.1096 42.1721 10.3999C42.3839 10.5814 42.6596 10.7243 42.9553 10.8452C43.104 10.9061 43.262 10.9632 43.4251 11.0181L43.9251 11.1783C45.1292 11.5971 46.3996 12.045 47.2288 13.1656C48.0069 14.2357 48.0647 15.6125 48.0647 16.8667C48.0647 17.5181 48.0624 18.2325 48.2278 18.7466C48.2892 18.9921 48.4231 19.2529 48.5833 19.5132C48.7441 19.7746 48.9431 20.0533 49.1497 20.3374C49.8841 21.3865 50.6643 22.5213 50.6643 23.939C50.6643 25.1795 50.0674 26.2029 49.4261 27.1421L49.1497 27.5396L49.1438 27.5484C48.9664 27.8271 48.779 28.1102 48.6223 28.3648C48.5042 28.5568 48.3954 28.746 48.3118 28.9263L48.2366 29.1031L48.2337 29.1118C48.0619 29.6273 48.0647 30.3517 48.0647 31.0113C48.0647 32.2709 48.0577 33.5903 47.2298 34.7105L47.2259 34.7154C46.7687 35.3685 46.1781 35.7845 45.5286 36.0962C44.895 36.4003 44.5403 37.1535 44.8479 37.8306L50.8948 51.1343C51.0697 51.5807 51.0156 52.0445 50.7268 52.3745L50.7265 52.3749C50.7222 52.3792 50.7184 52.384 50.7151 52.3892C50.454 52.7373 49.9658 52.9576 49.5354 52.9146L44.4514 52.4009C44.0011 52.3555 43.5616 52.5575 43.302 52.9282L40.3616 57.1275L40.3548 57.1382C40.1418 57.4789 39.755 57.6968 39.3186 57.6968H39.18C38.7075 57.6518 38.3205 57.3528 38.1468 56.9195L33.6233 45.4771C33.2145 44.4436 31.7601 44.4178 31.3147 45.4361L26.303 56.899C26.0756 57.3538 25.6771 57.6547 25.2044 57.6978C24.7271 57.7412 24.2952 57.5269 24.0325 57.1343L21.3528 53.022C21.0951 52.6267 20.6363 52.4104 20.1673 52.4624L14.6975 53.0699C14.2524 53.1143 13.7783 52.9337 13.5266 52.5562L13.5265 52.556C13.5233 52.5509 13.5198 52.5461 13.5159 52.5415C13.2119 52.1506 13.169 51.6824 13.385 51.2487C13.3857 51.2473 13.3865 51.246 13.3874 51.2448C13.3884 51.2434 13.3893 51.2419 13.39 51.2404L19.7835 37.7749C20.1021 37.1033 19.7606 36.3427 19.1282 36.0318C18.5026 35.7242 17.9218 35.321 17.4719 34.7105C16.6946 33.6405 16.637 32.2651 16.637 31.0113C16.637 30.3517 16.6389 29.6273 16.4671 29.1118C16.4037 28.8719 16.2745 28.6184 16.1184 28.3648C16.0375 28.2333 15.9472 28.0972 15.8509 27.9585L15.5491 27.5357C14.8155 26.4876 14.0364 25.355 14.0364 23.939C14.0364 22.5213 14.8177 21.3875 15.552 20.3384L15.5579 20.3296C15.7353 20.0509 15.9227 19.7678 16.0794 19.5132C16.2369 19.2572 16.3782 19.0066 16.4651 18.7749L16.468 18.7661C16.6398 18.2507 16.637 17.5263 16.637 16.8667C16.637 15.6072 16.6441 14.2876 17.4719 13.1675C18.303 12.0433 19.5773 11.5952 20.7844 11.1753L20.7923 11.1724C21.1226 11.0453 21.4577 10.9243 21.7464 10.8062C22.0292 10.6905 22.2927 10.5665 22.4977 10.4228C22.4981 10.4226 22.4985 10.4226 22.4988 10.4229C22.4991 10.4232 22.4995 10.4232 22.4999 10.423C22.7407 10.2724 22.9552 10.0536 23.1565 9.81204C23.3575 9.57092 23.5583 9.29073 23.763 9.00931C24.5478 7.96284 25.3885 6.88548 26.7063 6.44485C27.9722 6.05623 29.2484 6.44119 30.4573 6.80911C31.1138 7.01113 31.7834 7.23684 32.3509 7.23684C32.9183 7.23683 33.5879 7.0121 34.2444 6.81009L34.2532 6.80716ZM22.8811 38.4644C22.5553 38.5018 22.2562 38.7098 22.095 39.0454L17.6682 48.2622C17.2441 49.1457 17.9555 50.1511 18.93 50.0454L21.4566 49.7721C21.4569 49.772 21.457 49.7717 21.4568 49.7715C21.4566 49.7713 21.4567 49.771 21.457 49.771C21.941 49.7283 22.4201 49.9503 22.678 50.3355L23.6438 51.8111C24.1873 52.6405 25.4338 52.5369 25.8333 51.6294L29.3675 43.5991C29.5846 43.1057 29.4491 42.6005 29.1526 42.2339C28.8584 41.8703 28.3893 41.619 27.8831 41.6138C27.4873 41.6097 27.0923 41.556 26.7063 41.4331C25.3381 40.9933 24.5505 39.9201 23.762 38.8687C23.5412 38.5634 23.2074 38.427 22.8811 38.4644ZM42.6653 39.0279C42.3646 38.3524 41.5219 38.2423 41.0511 38.8072L41.0432 38.8169C40.2578 39.8642 39.4155 40.9414 38.096 41.3814L38.0872 41.3853C37.7065 41.528 37.3218 41.5767 36.927 41.5767C36.4782 41.5767 36.0645 41.7946 35.802 42.1138C35.5376 42.4356 35.4123 42.8817 35.5882 43.3247L38.8665 51.5767C39.2345 52.503 40.486 52.647 41.055 51.8286L42.1243 50.2896L42.1272 50.2857C42.3898 49.892 42.8221 49.6759 43.3001 49.7193L45.471 49.9517C46.4284 50.0538 47.1376 49.0805 46.7464 48.2007L42.6653 39.0279ZM37.3177 8.82962C37.0152 8.72891 36.632 8.76909 36.263 8.84817C35.8837 8.92947 35.4683 9.06424 35.0794 9.19388C34.2387 9.45665 33.3431 9.75345 32.4026 9.75345C31.4604 9.75341 30.563 9.45603 29.721 9.1929C29.3105 9.06462 28.8946 8.93009 28.5237 8.84915C28.1604 8.76988 27.7902 8.72873 27.4876 8.82962C27.1846 8.93064 26.8991 9.19901 26.6448 9.48587C26.3837 9.7804 26.116 10.1431 25.8606 10.4751C25.3329 11.1611 24.836 11.8556 24.0911 12.4019C23.3469 12.9476 22.4972 13.2493 21.6682 13.5083L21.6634 13.5103C21.2787 13.6385 20.863 13.7724 20.5061 13.9273C20.1564 14.079 19.8163 14.2689 19.6184 14.5327C19.4188 14.7989 19.3368 15.1839 19.2971 15.5669C19.2566 15.9592 19.2571 16.4022 19.2571 16.815C19.2571 17.7072 19.2545 18.6512 18.9593 19.4878L18.9553 19.5005C18.7091 20.3376 18.2155 21.0327 17.6917 21.7661C17.4336 22.1275 17.1654 22.5015 16.9632 22.8521C16.7655 23.1948 16.6048 23.5565 16.6048 23.8872C16.6048 24.2408 16.7624 24.6135 16.9632 24.9615C17.1652 25.3116 17.4318 25.6699 17.6897 26.0054C18.1136 26.6638 18.5761 27.2663 18.8499 27.9663L18.9553 28.274C19.2053 29.1763 19.2571 30.1365 19.2571 30.9595C19.2571 31.3977 19.2565 31.841 19.2971 32.2271C19.3368 32.604 19.4195 32.9713 19.6155 33.2359C19.7876 33.4766 20.1174 33.6693 20.468 33.8316C20.8311 33.9996 21.2704 34.1594 21.7112 34.315L21.72 34.3179C22.5489 34.5769 23.3987 34.8787 24.1428 35.4243L24.1458 35.4263C24.6646 35.7969 25.1048 36.2825 25.511 36.8081L25.9075 37.3443C26.1432 37.6845 26.4097 38.045 26.68 38.3423C26.9429 38.6316 27.2396 38.8966 27.5393 38.9966C27.8418 39.0974 28.2249 39.0562 28.594 38.9771C28.9731 38.8959 29.3882 38.7621 29.777 38.6326C29.7773 38.6325 29.7774 38.6321 29.7771 38.6319C29.7769 38.6316 29.777 38.6313 29.7773 38.6312C30.618 38.3684 31.5139 38.0729 32.4544 38.0728H32.8548L33.1516 38.1001C33.837 38.1839 34.4849 38.3961 35.0843 38.5806C35.4947 38.7089 35.9106 38.8444 36.2815 38.9253C36.6448 39.0046 37.015 39.0447 37.3177 38.9439C37.6207 38.8429 37.9061 38.5745 38.1604 38.2876C38.4214 37.9931 38.6893 37.6313 38.9446 37.2993C39.4721 36.6136 39.9696 35.9196 40.714 35.3734C40.7147 35.3729 40.7155 35.3722 40.7161 35.3716C40.7168 35.3709 40.7174 35.3704 40.7181 35.3698C41.088 35.0927 41.5049 34.9011 41.9501 34.7029C41.9737 34.6923 41.9985 34.6847 42.0237 34.6792C42.0357 34.6767 42.0484 34.6733 42.0598 34.6704C42.0619 34.6699 42.0906 34.6635 42.1155 34.6529C42.4658 34.5028 42.8002 34.3617 43.1311 34.2671L43.1419 34.2642C43.5267 34.1359 43.943 34.0022 44.3001 33.8472C44.6498 33.6954 44.9889 33.5046 45.1868 33.2408C45.3864 32.9745 45.4685 32.5897 45.5081 32.2066C45.5486 31.8144 45.5491 31.3721 45.5491 30.9595C45.5491 30.0673 45.5517 29.1233 45.847 28.2866L45.8509 28.274C46.0971 27.4369 46.5907 26.7417 47.1145 26.0083C47.3725 25.6472 47.6399 25.2728 47.8421 24.9224C48.0397 24.5798 48.2004 24.2179 48.2005 23.8872C48.2005 23.5336 48.0428 23.161 47.8421 22.813C47.6395 22.462 47.373 22.1024 47.1145 21.7661C46.6912 21.1088 46.2298 20.5071 45.9563 19.8081L45.8509 19.5005C45.6007 18.5981 45.5491 17.6381 45.5491 16.815C45.5491 16.3767 45.5487 15.9335 45.5081 15.5474C45.4681 15.168 45.3855 14.7977 45.1868 14.5327L45.1819 14.5269L45.177 14.52L45.0979 14.437C44.8995 14.2469 44.6075 14.0867 44.303 13.9488C43.9462 13.7872 43.5333 13.6408 43.1419 13.5103L43.137 13.5083C42.3083 13.2494 41.4591 12.9473 40.7151 12.4019L40.7122 12.3999L40.4593 12.2056C40.0476 11.8665 39.6856 11.4562 39.3469 11.0181L38.9505 10.482C38.7148 10.1417 38.4483 9.78124 38.178 9.48391C37.9149 9.19454 37.6175 8.92957 37.3177 8.82962ZM41.9563 34.6909C41.9499 34.6919 41.9448 34.6917 41.9427 34.6919C41.9402 34.6921 41.9376 34.6928 41.9358 34.6929C41.9347 34.693 41.9306 34.6929 41.9251 34.6929C41.939 34.6929 41.9529 34.6905 41.9641 34.689C41.9608 34.6896 41.9582 34.6907 41.9563 34.6909Z" fill="url(#paint0_linear_4045_5748)"/>
<path d="M36.6384 20.2218C37.1421 19.7141 37.9628 19.7122 38.4685 20.2179C38.9727 20.722 38.9725 21.5397 38.4685 22.044L33.5466 26.9659C32.0822 28.4304 29.7074 28.4304 28.2429 26.9659L26.2879 25.0108C25.7853 24.5083 25.7901 23.6918 26.2986 23.1954C26.7986 22.7073 27.5985 22.7121 28.0925 23.2061L28.8572 23.9718C29.9815 25.0959 31.8056 25.0923 32.9256 23.964L36.6384 20.2218Z" fill="url(#paint1_linear_4045_5748)"/>
</g>
<defs>
<linearGradient id="paint0_linear_4045_5748" x1="32.0943" y1="10.9906" x2="41.0147" y2="51.2523" gradientUnits="userSpaceOnUse">
<stop stop-color="#00A5E3"/>
<stop offset="0.5" stop-color="#373188"/>
<stop offset="1" stop-color="#FD0026"/>
</linearGradient>
<linearGradient id="paint1_linear_4045_5748" x1="32.3661" y1="20.0061" x2="33.445" y2="28.8368" gradientUnits="userSpaceOnUse">
<stop stop-color="#00A5E3"/>
<stop offset="0.5" stop-color="#373188"/>
<stop offset="1" stop-color="#FD0026"/>
</linearGradient>
</defs>
</svg>
