<svg width="48" height="48" viewBox="0 0 48 48" fill="none" xmlns="http://www.w3.org/2000/svg">
<path d="M24 27.7109C26.0711 27.7109 27.75 26.032 27.75 23.9609C27.75 21.8899 26.0711 20.2109 24 20.2109C21.9289 20.2109 20.25 21.8899 20.25 23.9609C20.25 26.032 21.9289 27.7109 24 27.7109Z" fill="#00D8FF"/>
<path d="M24 32.5588C19.4927 32.6674 14.9968 32.0598 10.68 30.7588C8.68593 30.1266 6.8261 29.1309 5.1945 27.8218C4.57168 27.3748 4.05304 26.7982 3.67422 26.1317C3.2954 25.4652 3.06539 24.7246 3 23.9608C3 21.4813 5.724 19.0513 10.287 17.4613C14.7194 16.0535 19.35 15.3708 24 15.4393C28.588 15.3758 33.1567 16.0463 37.533 17.4253C39.4531 18.0382 41.2498 18.9858 42.84 20.2243C43.4513 20.6513 43.9615 21.2072 44.3347 21.8528C44.7079 22.4983 44.935 23.2179 45 23.9608C45 26.5378 41.955 29.1493 37.05 30.7723C32.8169 32.0313 28.4157 32.6338 24 32.5588ZM24 17.2333C19.5513 17.1751 15.1215 17.8242 10.8765 19.1563C6.6765 20.6218 4.794 22.6258 4.794 23.9563C4.794 25.3483 6.8175 27.5368 11.2605 29.0563C15.3901 30.2953 19.6899 30.8719 24 30.7648C28.2246 30.8403 32.4359 30.2687 36.4875 29.0698C41.1 27.5413 43.2 25.3498 43.2 23.9608C43.1241 23.4842 42.9502 23.0285 42.6895 22.6224C42.4288 22.2163 42.0867 21.8686 41.685 21.6013C40.2625 20.5021 38.6575 19.6623 36.9435 19.1203C32.7568 17.8068 28.3874 17.1698 24 17.2333Z" fill="#00D8FF"/>
<path d="M15.4794 42.6643C14.7797 42.6803 14.0882 42.5105 13.4754 42.1723C11.3274 40.9333 10.5834 37.3603 11.4849 32.6128C12.48 28.0698 14.2022 23.7172 16.5849 19.7233C18.8215 15.7173 21.6841 12.0946 25.0644 8.99228C26.5546 7.63494 28.2731 6.55177 30.1404 5.79278C30.8162 5.47709 31.553 5.31348 32.2989 5.31348C33.0448 5.31348 33.7816 5.47709 34.4574 5.79278C36.6909 7.07978 37.4304 11.0218 36.3879 16.0813C35.3634 20.3782 33.6859 24.4925 31.4139 28.2808C29.2562 32.2396 26.4837 35.8308 23.1999 38.9203C21.6561 40.3315 19.8644 41.4447 17.9154 42.2038C17.1353 42.4941 16.3116 42.6498 15.4794 42.6643ZM18.1389 20.6143C15.8663 24.4389 14.2157 28.6002 13.2489 32.9428C12.4194 37.3153 13.2159 39.9448 14.3739 40.6138C15.5739 41.3083 18.4869 40.6498 22.0239 37.5598C25.1591 34.6004 27.8055 31.1627 29.8644 27.3748C32.0408 23.7531 33.65 19.8195 34.6359 15.7108C35.6169 10.9483 34.7694 8.03228 33.5664 7.33928C33.1155 7.16679 32.6337 7.08959 32.1514 7.11257C31.6692 7.13555 31.1969 7.25819 30.7644 7.47278C29.102 8.15896 27.5736 9.13287 26.2494 10.3498C23.0201 13.3216 20.2857 16.7897 18.1494 20.6233L18.1389 20.6143Z" fill="#00D8FF"/>
<path d="M32.5155 42.684C30.483 42.684 27.9015 41.454 25.2135 39.1425C21.7744 36.0116 18.8634 32.3459 16.593 28.287C14.2397 24.3482 12.5311 20.0586 11.532 15.5805C11.0997 13.6101 11.0195 11.5788 11.295 9.58047C11.3598 8.83941 11.5859 8.12149 11.9575 7.47706C12.3291 6.83263 12.8371 6.27728 13.446 5.84997C15.6765 4.55847 19.461 5.88597 23.3235 9.31497C26.5344 12.3482 29.2611 15.856 31.4085 19.716C33.7606 23.5627 35.4871 27.7584 36.5235 32.1465C36.9752 34.189 37.0449 36.2975 36.729 38.3655C36.6542 39.1282 36.4151 39.8656 36.0283 40.5272C35.6414 41.1887 35.116 41.7587 34.488 42.198C33.885 42.5314 33.2044 42.6991 32.5155 42.684ZM18.1455 27.384C20.3237 31.2629 23.1044 34.7711 26.3835 37.7775C29.757 40.68 32.433 41.304 33.5835 40.6275C34.7835 39.93 35.6685 37.083 34.7565 32.4765C33.7576 28.2868 32.1016 24.2817 29.85 20.61C27.8008 16.9157 25.1981 13.5568 22.1325 10.65C18.4965 7.42197 15.5475 6.70047 14.346 7.39647C13.9717 7.70098 13.6646 8.07968 13.4438 8.50874C13.2231 8.93779 13.0936 9.40791 13.0635 9.88947C12.8252 11.6716 12.9029 13.4818 13.293 15.237C14.2543 19.5194 15.8929 23.621 18.147 27.387L18.1455 27.384Z" fill="#00D8FF"/>
</svg>
