<svg width="64" height="64" viewBox="0 0 64 64" fill="none" xmlns="http://www.w3.org/2000/svg">
<g opacity="0.9">
<path d="M45.4678 6.25C48.1845 6.25 50.1055 8.21297 50.1055 10.9922V44.9482C50.1056 46.9816 51.7547 48.6299 53.7881 48.6299C53.9897 48.6299 54.1834 48.7128 54.2871 48.8164C54.301 48.8303 54.3113 48.8409 54.3203 48.8506C54.3445 48.8765 54.3637 48.9176 54.3672 48.9482C54.3688 48.9622 54.3631 48.976 54.3567 48.9885C54.3317 49.0362 54.3184 49.0896 54.3184 49.1445V50.46C54.3184 51.6052 54.3177 52.7385 54.2148 53.9219C54.0714 55.6438 52.5951 57.2084 50.7012 57.583C50.639 57.5953 50.5741 57.6114 50.5098 57.6328L50.458 57.6504C50.4299 57.6598 50.4025 57.6713 50.376 57.6846C50.3581 57.6935 50.3383 57.6982 50.3184 57.6982H20.4561C20.401 57.6982 20.3482 57.6935 20.2988 57.6836C19.3066 57.4838 18.3658 56.9973 17.6611 56.2676L17.5234 56.1182C16.7368 55.1815 16.3401 53.9458 16.3896 52.7061V22.1162C16.3896 19.769 14.4869 17.8662 12.1396 17.8662H10.4199C9.98605 17.8662 9.62998 17.51 9.62988 17.0762V10.998C9.67997 8.99684 10.5728 7.48314 12.2363 6.74902L12.2402 6.74707C12.8929 6.44585 13.5857 6.25 14.3203 6.25H45.4678ZM21.9229 8.55762C21.0105 8.55762 20.2511 9.03316 19.709 9.7041C19.1683 10.3733 18.8292 11.2525 18.751 12.1133L18.75 12.125V52.6963C18.75 52.8653 18.7643 53.0185 18.7773 53.1494L18.8018 53.4756V53.4893C18.8611 54.6158 19.8088 55.494 20.9756 55.4941C22.088 55.4941 23.0305 54.673 23.1484 53.5547L23.1494 53.542C23.2019 52.5981 23.2021 51.6553 23.2021 50.7725V49.5762C23.2021 49.0384 23.6097 48.6301 24.1475 48.6299H43.5479C45.8951 48.6299 47.7979 46.7271 47.7979 44.3799V11.0439C47.7979 10.8447 47.7987 10.5528 47.7383 10.3096C47.5665 9.59391 47.1867 9.14452 46.7139 8.88184C46.2515 8.62498 45.7217 8.55762 45.2598 8.55762H21.9229ZM26.4883 51.042C25.9483 51.042 25.51 51.4796 25.5098 52.0195V52.0322L25.5107 52.0439C25.5893 52.8688 25.9179 53.7096 26.4395 54.3486C26.9623 54.9892 27.6938 55.4422 28.5693 55.4424H49.9922C50.8878 55.4422 51.6609 54.843 51.8975 53.9561C51.9001 53.947 51.902 53.9377 51.9032 53.9283L51.9033 53.9277C52.009 53.1881 52.0615 52.448 52.0615 51.708C52.0615 51.3402 51.7633 51.042 51.3955 51.042H26.4883ZM44.5664 43.2217L44.6797 43.2344C45.241 43.3253 45.6855 43.7826 45.6855 44.376C45.6855 45.0178 45.174 45.5301 44.5322 45.5303H29.6602C29.0182 45.5303 28.5059 45.0179 28.5059 44.376C28.5059 43.7341 29.0182 43.2217 29.6602 43.2217H44.5664ZM24.7197 43.2744C25.3485 43.2744 25.8239 43.7736 25.873 44.3818C25.87 45.0145 25.3659 45.4775 24.7715 45.4775H23.0039C22.3682 45.4775 21.9023 44.9722 21.9023 44.376C21.9024 43.7403 22.4077 43.2744 23.0039 43.2744H24.7197ZM28.9316 38.334C29.5672 38.334 30.0339 38.8395 30.0342 39.4355C30.0342 40.0442 29.5556 40.5898 28.9316 40.5898H23.0039C22.4201 40.5898 21.9023 40.0836 21.9023 39.4355C21.9026 38.8001 22.4078 38.334 23.0039 38.334H28.9316ZM44.5742 38.2822C45.1781 38.3297 45.6853 38.8517 45.6855 39.4355C45.6855 40.0712 45.1802 40.538 44.584 40.5381H33.8887C33.2408 40.4949 32.7805 39.9859 32.8213 39.3516C32.8642 38.7943 33.2883 38.3288 33.8809 38.2822H44.5742ZM35.5801 33.4463C36.2234 33.4935 36.6795 34.0012 36.6387 34.6328C36.5956 35.1927 36.1674 35.6594 35.5703 35.7021H23.0215C22.4079 35.6582 21.9023 35.1807 21.9023 34.5479C21.9024 33.9183 22.4013 33.4464 23.0557 33.4463H35.5801ZM44.5322 33.4463C45.1677 33.4465 45.6337 33.9518 45.6338 34.5479C45.6338 35.1377 45.122 35.6502 44.5322 35.6504H40.4756C39.8858 35.6502 39.374 35.1377 39.374 34.5479C39.3741 33.9123 39.8795 33.4464 40.4756 33.4463H44.5322ZM37.876 27.7783C38.524 27.7784 39.0302 28.2961 39.0303 28.8799C39.0303 29.482 38.5057 30.0342 37.9277 30.0342H27.7715C27.1456 30.0759 26.6338 29.577 26.6338 28.9316C26.634 28.2837 27.1526 27.7783 27.7363 27.7783H37.876ZM32.5791 11.6514C32.8004 11.6084 33.0209 11.6082 33.2422 11.6514C34.9833 12.2149 36.5172 12.7439 37.9551 13.2061L37.9629 13.208C38.1349 13.2572 38.2717 13.404 38.3516 13.6143C38.4001 13.7423 38.4062 13.8905 38.4062 14.084V14.7471C38.4571 15.8649 38.3561 17.0377 38.1523 18.1631C37.5423 20.7555 36.0189 22.9872 33.8398 24.4062L33.2812 24.7617L33.2578 24.7734C33.1814 24.8117 33.1124 24.8701 33.0762 24.9004C33.0744 24.9018 33.0689 24.9053 33.0557 24.9102C33.04 24.9159 33.0194 24.9212 32.9844 24.9287C32.9464 24.9369 32.9044 24.9385 32.832 24.9385C32.7834 24.9385 32.7336 24.9351 32.6875 24.9131C29.2818 22.8751 27.4646 19.8882 27.3613 16.1396C27.3613 15.826 27.3618 15.5238 27.3828 15.2451C27.3968 15.0604 27.414 14.8608 27.4141 14.6602V13.9562C27.4141 13.947 27.4134 13.9378 27.4121 13.9287C27.3742 13.5876 27.6035 13.2853 27.9004 13.2109L27.9102 13.208L27.9189 13.2051C28.8397 12.8982 29.7407 12.631 30.6234 12.3196C30.6238 12.3194 30.6242 12.3195 30.6245 12.3198C30.6248 12.3201 30.6253 12.3202 30.6257 12.3201L32.5791 11.6514ZM32.8838 13.7578C32.4741 13.7578 32.072 13.8742 31.7324 14.0439C31.4413 14.1895 31.1039 14.2854 30.7764 14.3945L30.7686 14.3975L30.4551 14.5156C30.4 14.5363 30.3402 14.553 30.2715 14.5703C30.2592 14.5734 30.2466 14.5758 30.2344 14.5791C29.7466 14.7097 29.3745 15.1698 29.4395 15.7051C29.4514 15.8033 29.4587 15.893 29.457 15.9775C29.4251 17.5532 29.8736 19.0656 30.71 20.3398C31.7416 21.9117 34.0211 21.8945 35.0273 20.3057C35.8524 19.0028 36.2859 17.4613 36.2539 15.8799V15.6201C36.2539 15.5193 36.2536 15.4262 36.2588 15.335C36.2742 15.0626 36.1284 14.7572 35.8232 14.6553L35.8218 14.6547C35.8163 14.6525 35.8105 14.6507 35.8047 14.6494L35.3467 14.5254C35.0429 14.4363 34.7429 14.3347 34.4531 14.2207L34.0273 14.04C33.6894 13.8725 33.2904 13.7578 32.8838 13.7578ZM14.2676 8.55762C13.226 8.50892 12.3383 9.1795 12.0869 10.1768L12.0449 10.3809L12.043 10.3926C11.9892 10.8768 11.9902 11.4111 11.9902 11.876V14.7881C11.9903 15.2133 12.3346 15.5576 12.7598 15.5576H15.0996C15.8408 15.5576 16.4414 14.957 16.4414 14.2158C16.4414 13.3195 16.442 12.4197 16.4199 11.5186L16.3896 10.6172V10.6152L16.3682 10.3994C16.2126 9.33751 15.321 8.55762 14.2676 8.55762Z" fill="url(#paint0_linear_4045_5725)"/>
</g>
<defs>
<linearGradient id="paint0_linear_4045_5725" x1="31.9667" y1="10.9896" x2="39.6082" y2="51.7923" gradientUnits="userSpaceOnUse">
<stop stop-color="#00A5E3"/>
<stop offset="0.5" stop-color="#373188"/>
<stop offset="1" stop-color="#FD0026"/>
</linearGradient>
</defs>
</svg>
