<svg width="40" height="40" viewBox="0 0 40 40" fill="none" xmlns="http://www.w3.org/2000/svg">
<path d="M20 18.125C19.5055 18.125 19.0222 18.2716 18.6111 18.5463C18.2 18.821 17.8795 19.2115 17.6903 19.6683C17.5011 20.1251 17.4516 20.6278 17.548 21.1127C17.6445 21.5977 17.8826 22.0431 18.2322 22.3928C18.5819 22.7424 19.0273 22.9805 19.5123 23.077C19.9972 23.1734 20.4999 23.1239 20.9567 22.9347C21.4135 22.7455 21.804 22.425 22.0787 22.0139C22.3534 21.6028 22.5 21.1195 22.5 20.625C22.5 19.962 22.2366 19.3261 21.7678 18.8572C21.2989 18.3884 20.663 18.125 20 18.125ZM20 21.875C19.7528 21.875 19.5111 21.8017 19.3055 21.6643C19.1 21.527 18.9398 21.3318 18.8452 21.1034C18.7505 20.8749 18.7258 20.6236 18.774 20.3811C18.8223 20.1387 18.9413 19.9159 19.1161 19.7411C19.2909 19.5663 19.5137 19.4472 19.7561 19.399C19.9986 19.3508 20.2499 19.3755 20.4784 19.4702C20.7068 19.5648 20.902 19.725 21.0393 19.9305C21.1767 20.1361 21.25 20.3778 21.25 20.625C21.25 20.9565 21.1183 21.2745 20.8839 21.5089C20.6495 21.7433 20.3315 21.875 20 21.875Z" fill="#32B9E9"/>
<mask id="path-2-inside-1_4832_640" fill="white">
<path d="M33.75 11.2497C34.833 11.2538 35.8883 10.9076 36.7583 10.2627C37.6284 9.61778 38.2665 8.70876 38.5774 7.67136C38.8883 6.63395 38.8554 5.52381 38.4835 4.50667C38.1116 3.48953 37.4207 2.61996 36.5139 2.02777C35.6072 1.43559 34.5332 1.15257 33.4524 1.22096C32.3716 1.28935 31.3418 1.70549 30.5169 2.40724C29.6921 3.10899 29.1163 4.05871 28.8755 5.11462C28.6348 6.17052 28.7421 7.27596 29.1813 8.2659L24.3181 13.129C23.5658 12.6545 22.7404 12.3074 21.875 12.1015V10.0103C22.5899 9.59753 23.1487 8.96041 23.4646 8.19775C23.7805 7.43508 23.8359 6.58949 23.6222 5.79211C23.4086 4.99474 22.9378 4.29014 22.2829 3.78761C21.628 3.28508 20.8255 3.01268 20 3.01268C19.1745 3.01268 18.3721 3.28508 17.7172 3.78761C17.0622 4.29014 16.5915 4.99474 16.3778 5.79211C16.1641 6.58949 16.2196 7.43508 16.5355 8.19775C16.8514 8.96041 17.4101 9.59753 18.125 10.0103V12.1015C17.2597 12.3074 16.4342 12.6545 15.6819 13.129L10.8188 8.2659C11.2941 7.19463 11.3795 5.9908 11.0603 4.86314C10.7411 3.73547 10.0373 2.75506 9.071 2.09187C8.1047 1.42868 6.93681 1.12453 5.76978 1.23215C4.60275 1.33977 3.51017 1.85237 2.68145 2.68109C1.85274 3.5098 1.34014 4.60238 1.23252 5.76941C1.1249 6.93644 1.42905 8.10434 2.09224 9.07063C2.75542 10.0369 3.73584 10.7407 4.8635 11.0599C5.99117 11.3791 7.19499 11.2937 8.26627 10.8184L13.1294 15.6822C12.6548 16.4342 12.3076 17.2595 12.1019 18.1247H10.0106C9.59789 17.4097 8.96078 16.851 8.19811 16.5351C7.43545 16.2192 6.58985 16.1638 5.79248 16.3774C4.9951 16.5911 4.29051 17.0619 3.78798 17.7168C3.28544 18.3717 3.01305 19.1742 3.01305 19.9997C3.01305 20.8252 3.28544 21.6276 3.78798 22.2825C4.29051 22.9374 4.9951 23.4082 5.79248 23.6219C6.58985 23.8355 7.43545 23.7801 8.19811 23.4642C8.96078 23.1483 9.59789 22.5896 10.0106 21.8747H12.1019C12.3076 22.7398 12.6548 23.5651 13.1294 24.3172L8.26627 29.1809C7.19499 28.7056 5.99117 28.6202 4.8635 28.9394C3.73584 29.2586 2.75542 29.9624 2.09224 30.9287C1.42905 31.895 1.1249 33.0629 1.23252 34.2299C1.34014 35.3969 1.85274 36.4895 2.68145 37.3182C3.51017 38.1469 4.60275 38.6595 5.76978 38.7672C6.93681 38.8748 8.1047 38.5706 9.071 37.9074C10.0373 37.2443 10.7411 36.2638 11.0603 35.1362C11.3795 34.0085 11.2941 32.8047 10.8188 31.7334L15.6819 26.8703C16.4342 27.3448 17.2597 27.6919 18.125 27.8978V29.989C17.4101 30.4018 16.8514 31.0389 16.5355 31.8016C16.2196 32.5642 16.1641 33.4098 16.3778 34.2072C16.5915 35.0046 17.0622 35.7092 17.7172 36.2117C18.3721 36.7142 19.1745 36.9866 20 36.9866C20.8255 36.9866 21.628 36.7142 22.2829 36.2117C22.9378 35.7092 23.4086 35.0046 23.6222 34.2072C23.8359 33.4098 23.7805 32.5642 23.4646 31.8016C23.1487 31.0389 22.5899 30.4018 21.875 29.989V27.8978C22.7404 27.6919 23.5658 27.3448 24.3181 26.8703L29.1813 31.7334C28.706 32.8047 28.6205 34.0085 28.9398 35.1362C29.259 36.2638 29.9628 37.2443 30.929 37.9074C31.8953 38.5706 33.0632 38.8748 34.2303 38.7672C35.3973 38.6595 36.4899 38.1469 37.3186 37.3182C38.1473 36.4895 38.6599 35.3969 38.7675 34.2299C38.8751 33.0629 38.571 31.895 37.9078 30.9287C37.2446 29.9624 36.2642 29.2586 35.1365 28.9394C34.0089 28.6202 32.805 28.7056 31.7338 29.1809L26.8706 24.3172C27.3452 23.5651 27.6924 22.7398 27.8981 21.8747H29.9894C30.4021 22.5896 31.0393 23.1483 31.8019 23.4642C32.5646 23.7801 33.4102 23.8355 34.2076 23.6219C35.0049 23.4082 35.7095 22.9374 36.2121 22.2825C36.7146 21.6276 36.987 20.8252 36.987 19.9997C36.987 19.1742 36.7146 18.3717 36.2121 17.7168C35.7095 17.0619 35.0049 16.5911 34.2076 16.3774C33.4102 16.1638 32.5646 16.2192 31.8019 16.5351C31.0393 16.851 30.4021 17.4097 29.9894 18.1247H27.8981C27.6924 17.2595 27.3452 16.4342 26.8706 15.6822L31.7338 10.8184C32.3683 11.1017 33.0552 11.2486 33.75 11.2497ZM6.76877 22.4997C6.3642 22.4999 5.9656 22.402 5.6072 22.2143C5.2488 22.0266 4.94131 21.7547 4.71112 21.422C4.48094 21.0893 4.33494 20.7057 4.28567 20.3042C4.23639 19.9026 4.2853 19.4951 4.42821 19.1166C4.57112 18.7381 4.80375 18.3999 5.10614 18.1311C5.40852 17.8624 5.77161 17.671 6.16425 17.5734C6.55689 17.4759 6.96734 17.4751 7.36035 17.5711C7.75337 17.6671 8.11721 17.8571 8.42065 18.1247H7.39377C6.89715 18.1268 6.42148 18.325 6.07031 18.6762C5.71914 19.0274 5.52091 19.503 5.51877 19.9997C5.51877 20.4969 5.71631 20.9738 6.06795 21.3255C6.41958 21.6771 6.89649 21.8747 7.39377 21.8747H8.42065C7.9644 22.277 7.3771 22.4992 6.76877 22.4997ZM11.9069 20.6247H7.39377C7.22801 20.6247 7.06904 20.5588 6.95183 20.4416C6.83462 20.3244 6.76877 20.1654 6.76877 19.9997C6.7685 19.9162 6.78539 19.8336 6.81839 19.7569C6.8514 19.6802 6.89982 19.6112 6.96065 19.554C7.01704 19.4965 7.08447 19.451 7.1589 19.4201C7.23333 19.3893 7.31322 19.3738 7.39377 19.3747H11.9069C11.8906 19.5815 11.875 19.7884 11.875 19.9997C11.875 20.2109 11.8906 20.4178 11.9069 20.6247ZM33.2313 17.4997C33.6358 17.4994 34.0344 17.5973 34.3928 17.785C34.7512 17.9727 35.0587 18.2446 35.2889 18.5773C35.5191 18.91 35.6651 19.2936 35.7144 19.6952C35.7637 20.0967 35.7147 20.5042 35.5718 20.8827C35.4289 21.2612 35.1963 21.5994 34.8939 21.8682C34.5915 22.137 34.2284 22.3283 33.8358 22.4259C33.4432 22.5234 33.0327 22.5242 32.6397 22.4282C32.2467 22.3322 31.8828 22.1423 31.5794 21.8747H31.9813C32.4779 21.8725 32.9536 21.6743 33.3047 21.3231C33.6559 20.9719 33.8541 20.4963 33.8563 19.9997C33.8563 19.5024 33.6587 19.0255 33.3071 18.6738C32.9555 18.3222 32.4786 18.1247 31.9813 18.1247H31.5794C32.0356 17.7223 32.6229 17.5001 33.2313 17.4997ZM28.0931 19.3747H31.9813C32.147 19.3747 32.306 19.4405 32.4232 19.5577C32.5404 19.6749 32.6063 19.8339 32.6063 19.9997C32.6065 20.0831 32.5897 20.1657 32.5566 20.2424C32.5236 20.3191 32.4752 20.3881 32.4144 20.4453C32.358 20.5028 32.2906 20.5483 32.2161 20.5792C32.1417 20.61 32.0618 20.6255 31.9813 20.6247H28.0931C28.1094 20.4178 28.125 20.2109 28.125 19.9997C28.125 19.7884 28.1094 19.5815 28.0931 19.3747ZM33.75 2.49965C34.288 2.49812 34.8201 2.61236 35.31 2.83462C35.7999 3.05689 36.2363 3.38197 36.5895 3.78781C36.9427 4.19364 37.2044 4.67072 37.3569 5.18666C37.5094 5.70259 37.5491 6.2453 37.4734 6.77794C37.3976 7.31057 37.208 7.82066 36.9177 8.27358C36.6273 8.72649 36.2429 9.11163 35.7905 9.40283C35.3381 9.69403 34.8284 9.88449 34.2959 9.96126C33.7634 10.038 33.2206 9.99933 32.7044 9.84778L33.3606 9.19153C33.6982 8.85194 33.8877 8.39255 33.8877 7.91372C33.8877 7.43488 33.6982 6.9755 33.3606 6.6359C33.0201 6.30228 32.5624 6.11542 32.0856 6.11542C31.6089 6.11542 31.1512 6.30228 30.8106 6.6359L30.1544 7.29216C29.9908 6.73401 29.9597 6.14542 30.0634 5.57313C30.1672 5.00085 30.4029 4.46063 30.752 3.9954C31.101 3.53017 31.5537 3.15274 32.0742 2.89309C32.5946 2.63344 33.1684 2.49873 33.75 2.49965ZM17.5 6.7684C17.4997 6.36383 17.5977 5.96523 17.7854 5.60683C17.9731 5.24843 18.2449 4.94094 18.5776 4.71076C18.9104 4.48057 19.294 4.33458 19.6955 4.2853C20.0971 4.23602 20.5046 4.28494 20.8831 4.42785C21.2616 4.57076 21.5997 4.80339 21.8685 5.10577C22.1373 5.40815 22.3287 5.77125 22.4263 6.16389C22.5238 6.55652 22.5246 6.96697 22.4286 7.35999C22.3326 7.75301 22.1426 8.11685 21.875 8.42028V8.0184C21.8722 7.52198 21.6738 7.04669 21.3228 6.69566C20.9717 6.34463 20.4964 6.14619 20 6.1434C19.5027 6.1434 19.0258 6.34095 18.6742 6.69258C18.3226 7.04421 18.125 7.52112 18.125 8.0184V8.42028C17.723 7.96382 17.5008 7.37666 17.5 6.7684ZM20.625 8.0184V11.9065C20.4181 11.8903 20.2113 11.8747 20 11.8747C19.7888 11.8747 19.5819 11.8903 19.375 11.9065V8.0184C19.375 7.85264 19.4409 7.69367 19.5581 7.57646C19.6753 7.45925 19.8343 7.3934 20 7.3934C20.0833 7.39328 20.1657 7.41018 20.2423 7.44307C20.3188 7.47596 20.3878 7.52414 20.445 7.58465C20.5027 7.64107 20.5484 7.70858 20.5794 7.78313C20.6103 7.85767 20.6258 7.9377 20.625 8.0184ZM6.25002 9.99965C5.4596 10.0023 4.68843 9.75592 4.04594 9.29552C3.40344 8.83512 2.92226 8.18407 2.67067 7.43476C2.41909 6.68544 2.40987 5.87593 2.64434 5.12108C2.87881 4.36623 3.34505 3.7044 3.9769 3.2295C4.60875 2.75459 5.37412 2.49074 6.16439 2.47539C6.95466 2.46003 7.7297 2.69395 8.37953 3.14394C9.02935 3.59394 9.52095 4.23716 9.78457 4.98233C10.0482 5.72749 10.0704 6.53676 9.84815 7.29528L9.18752 6.6359C8.84699 6.30228 8.38925 6.11542 7.91252 6.11542C7.43579 6.11542 6.97805 6.30228 6.63752 6.6359C6.30013 6.97497 6.11073 7.43383 6.11073 7.91215C6.11073 8.39048 6.30013 8.84934 6.63752 9.1884L7.29377 9.84465C6.95483 9.94495 6.60348 9.99712 6.25002 9.99965ZM7.52315 8.30778C7.47127 8.25594 7.43032 8.19421 7.40273 8.12625C7.37514 8.05829 7.36146 7.98549 7.36252 7.91215C7.36165 7.84046 7.3752 7.76933 7.40237 7.70297C7.42953 7.63662 7.46975 7.57641 7.52065 7.5259C7.62579 7.42284 7.76716 7.36511 7.9144 7.36511C8.06163 7.36511 8.203 7.42284 8.30815 7.5259L14.6688 13.8834C14.3896 14.127 14.1273 14.3892 13.8838 14.6684L7.52315 8.30778ZM6.25002 37.4997C5.71202 37.5012 5.17999 37.387 4.69005 37.1647C4.2001 36.9424 3.76372 36.6173 3.41053 36.2115C3.05734 35.8057 2.79561 35.3286 2.6431 34.8127C2.4906 34.2967 2.4509 33.754 2.52669 33.2214C2.60248 32.6887 2.792 32.1786 3.08237 31.7257C3.37274 31.2728 3.75716 30.8877 4.20954 30.5965C4.66192 30.3053 5.17166 30.1148 5.70415 30.038C6.23665 29.9613 6.77943 30 7.29565 30.1515L6.6394 30.8078C6.30706 31.1475 6.12214 31.6046 6.12476 32.0799C6.12738 32.5552 6.31734 33.0102 6.65341 33.3463C6.98947 33.6823 7.44451 33.8723 7.91977 33.8749C8.39503 33.8775 8.85214 33.6926 9.1919 33.3603L9.84815 32.704C10.0123 33.2626 10.0439 33.8517 9.94032 34.4246C9.83673 34.9975 9.60085 35.5383 9.25146 36.004C8.90207 36.4697 8.4488 36.8473 7.92774 37.107C7.40667 37.3667 6.8322 37.5011 6.25002 37.4997ZM8.31252 32.4734C8.20778 32.5769 8.06665 32.6352 7.91941 32.6358C7.77217 32.6363 7.63058 32.5792 7.52502 32.4765C7.4735 32.4257 7.43272 32.3651 7.40513 32.2982C7.37753 32.2313 7.36368 32.1595 7.3644 32.0872C7.36334 32.0138 7.37701 31.941 7.4046 31.8731C7.43219 31.8051 7.47314 31.7434 7.52502 31.6915L13.8838 25.3309C14.1273 25.6101 14.3896 25.8724 14.6688 26.1159L8.31252 32.4734ZM22.5 33.2309C22.5003 33.6355 22.4024 34.0341 22.2147 34.3925C22.027 34.7509 21.7551 35.0584 21.4224 35.2886C21.0897 35.5187 20.7061 35.6647 20.3045 35.714C19.903 35.7633 19.4954 35.7144 19.1169 35.5715C18.7384 35.4286 18.4003 35.1959 18.1315 34.8935C17.8627 34.5912 17.6713 34.2281 17.5738 33.8354C17.4762 33.4428 17.4754 33.0323 17.5714 32.6393C17.6675 32.2463 17.8574 31.8825 18.125 31.579V32.6059C18.1278 33.1023 18.3262 33.5776 18.6773 33.9286C19.0283 34.2797 19.5036 34.4781 20 34.4809C20.4973 34.4809 20.9742 34.2834 21.3258 33.9317C21.6775 33.5801 21.875 33.1032 21.875 32.6059V31.579C22.277 32.0355 22.4992 32.6226 22.5 33.2309ZM19.375 32.6059V28.0928C19.5819 28.109 19.7888 28.1247 20 28.1247C20.2113 28.1247 20.4181 28.109 20.625 28.0928V32.6059C20.625 32.7717 20.5592 32.9306 20.442 33.0478C20.3248 33.1651 20.1658 33.2309 20 33.2309C19.9167 33.231 19.8343 33.2141 19.7578 33.1812C19.6812 33.1484 19.6123 33.1002 19.555 33.0397C19.4973 32.9832 19.4516 32.9157 19.4207 32.8412C19.3897 32.7666 19.3742 32.6866 19.375 32.6059ZM20 26.8747C18.7759 26.8743 17.5745 26.5444 16.5219 25.9197C16.6873 25.6413 16.9218 25.4104 17.2027 25.2492C17.4835 25.088 17.8012 25.0021 18.125 24.9997H21.875C22.1988 25.0021 22.5165 25.088 22.7974 25.2492C23.0782 25.4104 23.3127 25.6413 23.4781 25.9197C22.4255 26.5444 21.2241 26.8743 20 26.8747ZM33.75 29.9997C34.5404 29.997 35.3116 30.2434 35.9541 30.7038C36.5966 31.1642 37.0778 31.8152 37.3294 32.5646C37.581 33.3139 37.5902 34.1234 37.3557 34.8782C37.1212 35.6331 36.655 36.2949 36.0231 36.7698C35.3913 37.2447 34.6259 37.5086 33.8357 37.5239C33.0454 37.5393 32.2703 37.3054 31.6205 36.8554C30.9707 36.4054 30.4791 35.7621 30.2155 35.017C29.9519 34.2718 29.9296 33.4626 30.1519 32.704L30.8125 33.3634C31.1529 33.6973 31.6107 33.8844 32.0875 33.8844C32.5643 33.8844 33.0221 33.6973 33.3625 33.3634C33.6999 33.0243 33.8893 32.5655 33.8893 32.0872C33.8893 31.6088 33.6999 31.15 33.3625 30.8109L32.7063 30.1547C33.0452 30.0544 33.3966 30.0022 33.75 29.9997ZM32.4769 31.6915C32.5288 31.7434 32.5697 31.8051 32.5973 31.8731C32.6249 31.941 32.6386 32.0138 32.6375 32.0872C32.6384 32.1588 32.6248 32.23 32.5977 32.2963C32.5705 32.3627 32.5303 32.4229 32.4794 32.4734C32.3747 32.5769 32.2335 32.6352 32.0863 32.6358C31.939 32.6363 31.7975 32.5792 31.6919 32.4765L25.3313 26.1159C25.6104 25.8724 25.8727 25.6101 26.1163 25.3309L32.4769 31.6915ZM26.875 19.9997C26.8745 20.9852 26.6615 21.9591 26.2506 22.855C25.8396 23.7508 25.2404 24.5476 24.4938 25.1909C24.2116 24.7518 23.8244 24.39 23.3671 24.1383C22.9098 23.8866 22.397 23.753 21.875 23.7497H18.125C17.6031 23.753 17.0902 23.8866 16.6329 24.1383C16.1757 24.39 15.7884 24.7518 15.5063 25.1909C14.6361 24.4375 13.9691 23.4776 13.5665 22.3993C13.1639 21.321 13.0387 20.1588 13.2023 19.0194C13.3659 17.8801 13.8131 16.8001 14.5028 15.8786C15.1925 14.9572 16.1026 14.2237 17.1497 13.7456C18.1967 13.2675 19.347 13.0601 20.4951 13.1424C21.6432 13.2247 22.7522 13.5941 23.7203 14.2167C24.6884 14.8392 25.4846 15.695 26.0359 16.7055C26.5871 17.7159 26.8756 18.8486 26.875 19.9997ZM26.1163 14.6684C25.8727 14.3892 25.6104 14.127 25.3313 13.8834L31.6875 7.5259C31.7927 7.42284 31.934 7.36511 32.0813 7.36511C32.2285 7.36511 32.3699 7.42284 32.475 7.5259C32.5265 7.57671 32.5673 7.63737 32.5949 7.70427C32.6225 7.77116 32.6364 7.84292 32.6356 7.91528C32.6367 7.98862 32.623 8.06142 32.5954 8.12938C32.5678 8.19733 32.5269 8.25906 32.475 8.31091L26.1163 14.6684Z"/>
</mask>
<path d="M33.75 11.2497C34.833 11.2538 35.8883 10.9076 36.7583 10.2627C37.6284 9.61778 38.2665 8.70876 38.5774 7.67136C38.8883 6.63395 38.8554 5.52381 38.4835 4.50667C38.1116 3.48953 37.4207 2.61996 36.5139 2.02777C35.6072 1.43559 34.5332 1.15257 33.4524 1.22096C32.3716 1.28935 31.3418 1.70549 30.5169 2.40724C29.6921 3.10899 29.1163 4.05871 28.8755 5.11462C28.6348 6.17052 28.7421 7.27596 29.1813 8.2659L24.3181 13.129C23.5658 12.6545 22.7404 12.3074 21.875 12.1015V10.0103C22.5899 9.59753 23.1487 8.96041 23.4646 8.19775C23.7805 7.43508 23.8359 6.58949 23.6222 5.79211C23.4086 4.99474 22.9378 4.29014 22.2829 3.78761C21.628 3.28508 20.8255 3.01268 20 3.01268C19.1745 3.01268 18.3721 3.28508 17.7172 3.78761C17.0622 4.29014 16.5915 4.99474 16.3778 5.79211C16.1641 6.58949 16.2196 7.43508 16.5355 8.19775C16.8514 8.96041 17.4101 9.59753 18.125 10.0103V12.1015C17.2597 12.3074 16.4342 12.6545 15.6819 13.129L10.8188 8.2659C11.2941 7.19463 11.3795 5.9908 11.0603 4.86314C10.7411 3.73547 10.0373 2.75506 9.071 2.09187C8.1047 1.42868 6.93681 1.12453 5.76978 1.23215C4.60275 1.33977 3.51017 1.85237 2.68145 2.68109C1.85274 3.5098 1.34014 4.60238 1.23252 5.76941C1.1249 6.93644 1.42905 8.10434 2.09224 9.07063C2.75542 10.0369 3.73584 10.7407 4.8635 11.0599C5.99117 11.3791 7.19499 11.2937 8.26627 10.8184L13.1294 15.6822C12.6548 16.4342 12.3076 17.2595 12.1019 18.1247H10.0106C9.59789 17.4097 8.96078 16.851 8.19811 16.5351C7.43545 16.2192 6.58985 16.1638 5.79248 16.3774C4.9951 16.5911 4.29051 17.0619 3.78798 17.7168C3.28544 18.3717 3.01305 19.1742 3.01305 19.9997C3.01305 20.8252 3.28544 21.6276 3.78798 22.2825C4.29051 22.9374 4.9951 23.4082 5.79248 23.6219C6.58985 23.8355 7.43545 23.7801 8.19811 23.4642C8.96078 23.1483 9.59789 22.5896 10.0106 21.8747H12.1019C12.3076 22.7398 12.6548 23.5651 13.1294 24.3172L8.26627 29.1809C7.19499 28.7056 5.99117 28.6202 4.8635 28.9394C3.73584 29.2586 2.75542 29.9624 2.09224 30.9287C1.42905 31.895 1.1249 33.0629 1.23252 34.2299C1.34014 35.3969 1.85274 36.4895 2.68145 37.3182C3.51017 38.1469 4.60275 38.6595 5.76978 38.7672C6.93681 38.8748 8.1047 38.5706 9.071 37.9074C10.0373 37.2443 10.7411 36.2638 11.0603 35.1362C11.3795 34.0085 11.2941 32.8047 10.8188 31.7334L15.6819 26.8703C16.4342 27.3448 17.2597 27.6919 18.125 27.8978V29.989C17.4101 30.4018 16.8514 31.0389 16.5355 31.8016C16.2196 32.5642 16.1641 33.4098 16.3778 34.2072C16.5915 35.0046 17.0622 35.7092 17.7172 36.2117C18.3721 36.7142 19.1745 36.9866 20 36.9866C20.8255 36.9866 21.628 36.7142 22.2829 36.2117C22.9378 35.7092 23.4086 35.0046 23.6222 34.2072C23.8359 33.4098 23.7805 32.5642 23.4646 31.8016C23.1487 31.0389 22.5899 30.4018 21.875 29.989V27.8978C22.7404 27.6919 23.5658 27.3448 24.3181 26.8703L29.1813 31.7334C28.706 32.8047 28.6205 34.0085 28.9398 35.1362C29.259 36.2638 29.9628 37.2443 30.929 37.9074C31.8953 38.5706 33.0632 38.8748 34.2303 38.7672C35.3973 38.6595 36.4899 38.1469 37.3186 37.3182C38.1473 36.4895 38.6599 35.3969 38.7675 34.2299C38.8751 33.0629 38.571 31.895 37.9078 30.9287C37.2446 29.9624 36.2642 29.2586 35.1365 28.9394C34.0089 28.6202 32.805 28.7056 31.7338 29.1809L26.8706 24.3172C27.3452 23.5651 27.6924 22.7398 27.8981 21.8747H29.9894C30.4021 22.5896 31.0393 23.1483 31.8019 23.4642C32.5646 23.7801 33.4102 23.8355 34.2076 23.6219C35.0049 23.4082 35.7095 22.9374 36.2121 22.2825C36.7146 21.6276 36.987 20.8252 36.987 19.9997C36.987 19.1742 36.7146 18.3717 36.2121 17.7168C35.7095 17.0619 35.0049 16.5911 34.2076 16.3774C33.4102 16.1638 32.5646 16.2192 31.8019 16.5351C31.0393 16.851 30.4021 17.4097 29.9894 18.1247H27.8981C27.6924 17.2595 27.3452 16.4342 26.8706 15.6822L31.7338 10.8184C32.3683 11.1017 33.0552 11.2486 33.75 11.2497ZM6.76877 22.4997C6.3642 22.4999 5.9656 22.402 5.6072 22.2143C5.2488 22.0266 4.94131 21.7547 4.71112 21.422C4.48094 21.0893 4.33494 20.7057 4.28567 20.3042C4.23639 19.9026 4.2853 19.4951 4.42821 19.1166C4.57112 18.7381 4.80375 18.3999 5.10614 18.1311C5.40852 17.8624 5.77161 17.671 6.16425 17.5734C6.55689 17.4759 6.96734 17.4751 7.36035 17.5711C7.75337 17.6671 8.11721 17.8571 8.42065 18.1247H7.39377C6.89715 18.1268 6.42148 18.325 6.07031 18.6762C5.71914 19.0274 5.52091 19.503 5.51877 19.9997C5.51877 20.4969 5.71631 20.9738 6.06795 21.3255C6.41958 21.6771 6.89649 21.8747 7.39377 21.8747H8.42065C7.9644 22.277 7.3771 22.4992 6.76877 22.4997ZM11.9069 20.6247H7.39377C7.22801 20.6247 7.06904 20.5588 6.95183 20.4416C6.83462 20.3244 6.76877 20.1654 6.76877 19.9997C6.7685 19.9162 6.78539 19.8336 6.81839 19.7569C6.8514 19.6802 6.89982 19.6112 6.96065 19.554C7.01704 19.4965 7.08447 19.451 7.1589 19.4201C7.23333 19.3893 7.31322 19.3738 7.39377 19.3747H11.9069C11.8906 19.5815 11.875 19.7884 11.875 19.9997C11.875 20.2109 11.8906 20.4178 11.9069 20.6247ZM33.2313 17.4997C33.6358 17.4994 34.0344 17.5973 34.3928 17.785C34.7512 17.9727 35.0587 18.2446 35.2889 18.5773C35.5191 18.91 35.6651 19.2936 35.7144 19.6952C35.7637 20.0967 35.7147 20.5042 35.5718 20.8827C35.4289 21.2612 35.1963 21.5994 34.8939 21.8682C34.5915 22.137 34.2284 22.3283 33.8358 22.4259C33.4432 22.5234 33.0327 22.5242 32.6397 22.4282C32.2467 22.3322 31.8828 22.1423 31.5794 21.8747H31.9813C32.4779 21.8725 32.9536 21.6743 33.3047 21.3231C33.6559 20.9719 33.8541 20.4963 33.8563 19.9997C33.8563 19.5024 33.6587 19.0255 33.3071 18.6738C32.9555 18.3222 32.4786 18.1247 31.9813 18.1247H31.5794C32.0356 17.7223 32.6229 17.5001 33.2313 17.4997ZM28.0931 19.3747H31.9813C32.147 19.3747 32.306 19.4405 32.4232 19.5577C32.5404 19.6749 32.6063 19.8339 32.6063 19.9997C32.6065 20.0831 32.5897 20.1657 32.5566 20.2424C32.5236 20.3191 32.4752 20.3881 32.4144 20.4453C32.358 20.5028 32.2906 20.5483 32.2161 20.5792C32.1417 20.61 32.0618 20.6255 31.9813 20.6247H28.0931C28.1094 20.4178 28.125 20.2109 28.125 19.9997C28.125 19.7884 28.1094 19.5815 28.0931 19.3747ZM33.75 2.49965C34.288 2.49812 34.8201 2.61236 35.31 2.83462C35.7999 3.05689 36.2363 3.38197 36.5895 3.78781C36.9427 4.19364 37.2044 4.67072 37.3569 5.18666C37.5094 5.70259 37.5491 6.2453 37.4734 6.77794C37.3976 7.31057 37.208 7.82066 36.9177 8.27358C36.6273 8.72649 36.2429 9.11163 35.7905 9.40283C35.3381 9.69403 34.8284 9.88449 34.2959 9.96126C33.7634 10.038 33.2206 9.99933 32.7044 9.84778L33.3606 9.19153C33.6982 8.85194 33.8877 8.39255 33.8877 7.91372C33.8877 7.43488 33.6982 6.9755 33.3606 6.6359C33.0201 6.30228 32.5624 6.11542 32.0856 6.11542C31.6089 6.11542 31.1512 6.30228 30.8106 6.6359L30.1544 7.29216C29.9908 6.73401 29.9597 6.14542 30.0634 5.57313C30.1672 5.00085 30.4029 4.46063 30.752 3.9954C31.101 3.53017 31.5537 3.15274 32.0742 2.89309C32.5946 2.63344 33.1684 2.49873 33.75 2.49965ZM17.5 6.7684C17.4997 6.36383 17.5977 5.96523 17.7854 5.60683C17.9731 5.24843 18.2449 4.94094 18.5776 4.71076C18.9104 4.48057 19.294 4.33458 19.6955 4.2853C20.0971 4.23602 20.5046 4.28494 20.8831 4.42785C21.2616 4.57076 21.5997 4.80339 21.8685 5.10577C22.1373 5.40815 22.3287 5.77125 22.4263 6.16389C22.5238 6.55652 22.5246 6.96697 22.4286 7.35999C22.3326 7.75301 22.1426 8.11685 21.875 8.42028V8.0184C21.8722 7.52198 21.6738 7.04669 21.3228 6.69566C20.9717 6.34463 20.4964 6.14619 20 6.1434C19.5027 6.1434 19.0258 6.34095 18.6742 6.69258C18.3226 7.04421 18.125 7.52112 18.125 8.0184V8.42028C17.723 7.96382 17.5008 7.37666 17.5 6.7684ZM20.625 8.0184V11.9065C20.4181 11.8903 20.2113 11.8747 20 11.8747C19.7888 11.8747 19.5819 11.8903 19.375 11.9065V8.0184C19.375 7.85264 19.4409 7.69367 19.5581 7.57646C19.6753 7.45925 19.8343 7.3934 20 7.3934C20.0833 7.39328 20.1657 7.41018 20.2423 7.44307C20.3188 7.47596 20.3878 7.52414 20.445 7.58465C20.5027 7.64107 20.5484 7.70858 20.5794 7.78313C20.6103 7.85767 20.6258 7.9377 20.625 8.0184ZM6.25002 9.99965C5.4596 10.0023 4.68843 9.75592 4.04594 9.29552C3.40344 8.83512 2.92226 8.18407 2.67067 7.43476C2.41909 6.68544 2.40987 5.87593 2.64434 5.12108C2.87881 4.36623 3.34505 3.7044 3.9769 3.2295C4.60875 2.75459 5.37412 2.49074 6.16439 2.47539C6.95466 2.46003 7.7297 2.69395 8.37953 3.14394C9.02935 3.59394 9.52095 4.23716 9.78457 4.98233C10.0482 5.72749 10.0704 6.53676 9.84815 7.29528L9.18752 6.6359C8.84699 6.30228 8.38925 6.11542 7.91252 6.11542C7.43579 6.11542 6.97805 6.30228 6.63752 6.6359C6.30013 6.97497 6.11073 7.43383 6.11073 7.91215C6.11073 8.39048 6.30013 8.84934 6.63752 9.1884L7.29377 9.84465C6.95483 9.94495 6.60348 9.99712 6.25002 9.99965ZM7.52315 8.30778C7.47127 8.25594 7.43032 8.19421 7.40273 8.12625C7.37514 8.05829 7.36146 7.98549 7.36252 7.91215C7.36165 7.84046 7.3752 7.76933 7.40237 7.70297C7.42953 7.63662 7.46975 7.57641 7.52065 7.5259C7.62579 7.42284 7.76716 7.36511 7.9144 7.36511C8.06163 7.36511 8.203 7.42284 8.30815 7.5259L14.6688 13.8834C14.3896 14.127 14.1273 14.3892 13.8838 14.6684L7.52315 8.30778ZM6.25002 37.4997C5.71202 37.5012 5.17999 37.387 4.69005 37.1647C4.2001 36.9424 3.76372 36.6173 3.41053 36.2115C3.05734 35.8057 2.79561 35.3286 2.6431 34.8127C2.4906 34.2967 2.4509 33.754 2.52669 33.2214C2.60248 32.6887 2.792 32.1786 3.08237 31.7257C3.37274 31.2728 3.75716 30.8877 4.20954 30.5965C4.66192 30.3053 5.17166 30.1148 5.70415 30.038C6.23665 29.9613 6.77943 30 7.29565 30.1515L6.6394 30.8078C6.30706 31.1475 6.12214 31.6046 6.12476 32.0799C6.12738 32.5552 6.31734 33.0102 6.65341 33.3463C6.98947 33.6823 7.44451 33.8723 7.91977 33.8749C8.39503 33.8775 8.85214 33.6926 9.1919 33.3603L9.84815 32.704C10.0123 33.2626 10.0439 33.8517 9.94032 34.4246C9.83673 34.9975 9.60085 35.5383 9.25146 36.004C8.90207 36.4697 8.4488 36.8473 7.92774 37.107C7.40667 37.3667 6.8322 37.5011 6.25002 37.4997ZM8.31252 32.4734C8.20778 32.5769 8.06665 32.6352 7.91941 32.6358C7.77217 32.6363 7.63058 32.5792 7.52502 32.4765C7.4735 32.4257 7.43272 32.3651 7.40513 32.2982C7.37753 32.2313 7.36368 32.1595 7.3644 32.0872C7.36334 32.0138 7.37701 31.941 7.4046 31.8731C7.43219 31.8051 7.47314 31.7434 7.52502 31.6915L13.8838 25.3309C14.1273 25.6101 14.3896 25.8724 14.6688 26.1159L8.31252 32.4734ZM22.5 33.2309C22.5003 33.6355 22.4024 34.0341 22.2147 34.3925C22.027 34.7509 21.7551 35.0584 21.4224 35.2886C21.0897 35.5187 20.7061 35.6647 20.3045 35.714C19.903 35.7633 19.4954 35.7144 19.1169 35.5715C18.7384 35.4286 18.4003 35.1959 18.1315 34.8935C17.8627 34.5912 17.6713 34.2281 17.5738 33.8354C17.4762 33.4428 17.4754 33.0323 17.5714 32.6393C17.6675 32.2463 17.8574 31.8825 18.125 31.579V32.6059C18.1278 33.1023 18.3262 33.5776 18.6773 33.9286C19.0283 34.2797 19.5036 34.4781 20 34.4809C20.4973 34.4809 20.9742 34.2834 21.3258 33.9317C21.6775 33.5801 21.875 33.1032 21.875 32.6059V31.579C22.277 32.0355 22.4992 32.6226 22.5 33.2309ZM19.375 32.6059V28.0928C19.5819 28.109 19.7888 28.1247 20 28.1247C20.2113 28.1247 20.4181 28.109 20.625 28.0928V32.6059C20.625 32.7717 20.5592 32.9306 20.442 33.0478C20.3248 33.1651 20.1658 33.2309 20 33.2309C19.9167 33.231 19.8343 33.2141 19.7578 33.1812C19.6812 33.1484 19.6123 33.1002 19.555 33.0397C19.4973 32.9832 19.4516 32.9157 19.4207 32.8412C19.3897 32.7666 19.3742 32.6866 19.375 32.6059ZM20 26.8747C18.7759 26.8743 17.5745 26.5444 16.5219 25.9197C16.6873 25.6413 16.9218 25.4104 17.2027 25.2492C17.4835 25.088 17.8012 25.0021 18.125 24.9997H21.875C22.1988 25.0021 22.5165 25.088 22.7974 25.2492C23.0782 25.4104 23.3127 25.6413 23.4781 25.9197C22.4255 26.5444 21.2241 26.8743 20 26.8747ZM33.75 29.9997C34.5404 29.997 35.3116 30.2434 35.9541 30.7038C36.5966 31.1642 37.0778 31.8152 37.3294 32.5646C37.581 33.3139 37.5902 34.1234 37.3557 34.8782C37.1212 35.6331 36.655 36.2949 36.0231 36.7698C35.3913 37.2447 34.6259 37.5086 33.8357 37.5239C33.0454 37.5393 32.2703 37.3054 31.6205 36.8554C30.9707 36.4054 30.4791 35.7621 30.2155 35.017C29.9519 34.2718 29.9296 33.4626 30.1519 32.704L30.8125 33.3634C31.1529 33.6973 31.6107 33.8844 32.0875 33.8844C32.5643 33.8844 33.0221 33.6973 33.3625 33.3634C33.6999 33.0243 33.8893 32.5655 33.8893 32.0872C33.8893 31.6088 33.6999 31.15 33.3625 30.8109L32.7063 30.1547C33.0452 30.0544 33.3966 30.0022 33.75 29.9997ZM32.4769 31.6915C32.5288 31.7434 32.5697 31.8051 32.5973 31.8731C32.6249 31.941 32.6386 32.0138 32.6375 32.0872C32.6384 32.1588 32.6248 32.23 32.5977 32.2963C32.5705 32.3627 32.5303 32.4229 32.4794 32.4734C32.3747 32.5769 32.2335 32.6352 32.0863 32.6358C31.939 32.6363 31.7975 32.5792 31.6919 32.4765L25.3313 26.1159C25.6104 25.8724 25.8727 25.6101 26.1163 25.3309L32.4769 31.6915ZM26.875 19.9997C26.8745 20.9852 26.6615 21.9591 26.2506 22.855C25.8396 23.7508 25.2404 24.5476 24.4938 25.1909C24.2116 24.7518 23.8244 24.39 23.3671 24.1383C22.9098 23.8866 22.397 23.753 21.875 23.7497H18.125C17.6031 23.753 17.0902 23.8866 16.6329 24.1383C16.1757 24.39 15.7884 24.7518 15.5063 25.1909C14.6361 24.4375 13.9691 23.4776 13.5665 22.3993C13.1639 21.321 13.0387 20.1588 13.2023 19.0194C13.3659 17.8801 13.8131 16.8001 14.5028 15.8786C15.1925 14.9572 16.1026 14.2237 17.1497 13.7456C18.1967 13.2675 19.347 13.0601 20.4951 13.1424C21.6432 13.2247 22.7522 13.5941 23.7203 14.2167C24.6884 14.8392 25.4846 15.695 26.0359 16.7055C26.5871 17.7159 26.8756 18.8486 26.875 19.9997ZM26.1163 14.6684C25.8727 14.3892 25.6104 14.127 25.3313 13.8834L31.6875 7.5259C31.7927 7.42284 31.934 7.36511 32.0813 7.36511C32.2285 7.36511 32.3699 7.42284 32.475 7.5259C32.5265 7.57671 32.5673 7.63737 32.5949 7.70427C32.6225 7.77116 32.6364 7.84292 32.6356 7.91528C32.6367 7.98862 32.623 8.06142 32.5954 8.12938C32.5678 8.19733 32.5269 8.25906 32.475 8.31091L26.1163 14.6684Z" fill="#EAF8FD" stroke="#32B9E9" stroke-width="2" mask="url(#path-2-inside-1_4832_640)"/>
</svg>
