<svg width="44" height="44" viewBox="0 0 44 44" fill="none" xmlns="http://www.w3.org/2000/svg">
<rect width="44" height="44" rx="5" fill="white" fill-opacity="0.08"/>
<g clip-path="url(#clip0_4725_7809)">
<path d="M22 15.0078C22.0401 15.0078 28.2652 15.0096 29.8252 15.4365C30.6818 15.6672 31.3573 16.3425 31.5879 17.1992C32.0163 18.7642 32 22.0264 32 22.0264C32 22.0704 31.9968 25.2815 31.5879 26.8359C31.3572 27.6925 30.6819 28.3681 29.8252 28.5986C28.2624 29.01 22.0187 29.0107 22 29.0107C22 29.0107 15.7565 29.0113 14.1748 28.583C13.3182 28.3523 12.6429 27.6767 12.4121 26.8203C12.0027 25.2808 12 22.0476 12 22.0098C12 22.0098 12.0003 18.7642 12.4121 17.1992C12.6427 16.3426 13.3347 15.6505 14.1748 15.4199C15.7403 15.008 22 15.0078 22 15.0078ZM20.0068 25.0078L25.2119 22.0098L20.0068 19.0107V25.0078Z" fill="#010F14"/>
</g>
<defs>
<clipPath id="clip0_4725_7809">
<rect width="20" height="20" fill="white" transform="translate(12 12)"/>
</clipPath>
</defs>
</svg>
