<svg width="52" height="52" viewBox="0 0 52 52" fill="none" xmlns="http://www.w3.org/2000/svg">
<g clip-path="url(#clip0_3582_445)">
<g opacity="0.9">
<path d="M29.5941 22.285C30.0711 21.8037 30.8484 21.8019 31.3275 22.2811C31.8074 22.761 31.8048 23.5398 31.3217 24.0164L26.8959 28.3826C25.6226 29.6386 23.5775 29.6423 22.2992 28.3914L20.8197 26.9432C20.345 26.4786 20.3357 25.7178 20.7992 25.242C21.2678 24.7612 22.0394 24.7566 22.5141 25.2313L22.9555 25.6727C23.8647 26.5816 25.3395 26.5781 26.2445 25.6649L29.5941 22.285Z" fill="url(#paint0_linear_3582_445)"/>
<path d="M26.9668 0.25C29.2447 0.250222 31.1239 2.12574 31.1748 4.41016V7.14453C31.1748 7.20169 31.1902 7.26142 31.2256 7.31445C31.2598 7.3657 31.3036 7.39687 31.3398 7.41504C31.3674 7.42883 31.3939 7.43408 31.4141 7.43848C31.416 7.43899 31.418 7.43992 31.4199 7.44043C31.4233 7.44111 31.4267 7.44384 31.4297 7.44434C32.7961 7.81407 34.1161 8.39373 35.3887 9.08301C35.4868 9.13668 35.6086 9.11833 35.6866 9.03814L37.5615 7.10938C39.1829 5.53712 41.7109 5.53411 43.3438 6.96582L43.499 7.10938L44.8926 8.50293C46.5139 10.1243 46.5139 12.8132 44.8926 14.4346L44.8877 14.4395L43.0083 16.4262C42.9359 16.5028 42.9189 16.6165 42.9658 16.7109C43.6059 17.9912 44.1894 19.3713 44.5596 20.7461C44.589 20.8555 44.6882 20.9316 44.8015 20.9316H47.5938C49.9279 20.9316 51.7995 22.8611 51.749 25.0811V26.9668C51.7488 29.2976 49.8211 31.1748 47.54 31.1748H44.7478C44.6344 31.1748 44.5352 31.2509 44.5059 31.3604C44.1349 32.7382 43.6052 34.0615 42.918 35.2773C42.8635 35.3741 42.8792 35.4951 42.9566 35.5747L44.7822 37.4541L44.7852 37.457C46.4065 39.0784 46.4065 41.7673 44.7852 43.3887L43.4453 44.7285C41.7716 46.3515 39.1319 46.3018 37.5078 44.7285L35.4588 42.6795C35.3648 42.5855 35.2041 42.6521 35.2041 42.785C35.2041 42.8398 35.1741 42.8903 35.1257 42.9161C33.8833 43.5779 32.5397 44.0926 31.1904 44.5078C31.0853 44.5403 31.0137 44.6375 31.0137 44.7475V47.4863C31.0137 48.5964 30.5603 49.6121 29.792 50.4316C29.0342 51.2398 27.9727 51.6952 26.8594 51.6953H24.9785C22.6994 51.6951 20.8242 49.8192 20.8242 47.54V44.6941C20.8242 44.5807 20.7481 44.4815 20.6387 44.4521C19.2589 44.0807 17.8836 43.5512 16.6172 42.8125C16.5788 42.7901 16.5352 42.7783 16.4908 42.7783H16.4487C16.3409 42.7783 16.2374 42.8212 16.1612 42.8974L14.3271 44.7314C13.5676 45.491 12.5029 45.9471 11.3887 45.9473C10.2786 45.9473 9.26288 45.4939 8.44336 44.7256L7.10938 43.3379L7.10645 43.335L6.95898 43.1797C5.48662 41.5495 5.53582 39.0277 7.10645 37.457L7.11133 37.4521L8.9375 35.5176L8.93791 35.5171C8.96273 35.4911 8.98158 35.4599 8.99316 35.4258L9.04688 35.2646C9.06847 35.1993 9.06231 35.1268 9.0293 35.0664C8.34014 33.7941 7.80952 32.4666 7.38379 31.083C7.35127 30.9779 7.25409 30.9062 7.14408 30.9062H4.45898C2.25201 30.9062 0.418358 29.1461 0.259766 26.959L0.25 26.7461V24.8828C0.351694 22.5947 2.23353 20.7705 4.45898 20.7705H7.30521C7.41522 20.7705 7.51241 20.6988 7.54492 20.5938C7.97066 19.2101 8.50126 17.8827 9.19043 16.6104C9.24315 16.513 9.22563 16.3926 9.14736 16.3144L7.26758 14.4346C5.64379 12.7572 5.64858 10.1219 7.26758 8.50293L8.60449 7.16602C10.23 5.639 12.7598 5.59453 14.3896 7.02051L14.5449 7.16309L16.4223 9.0405C16.4993 9.11749 16.6174 9.1355 16.7139 9.08496C18.0424 8.39413 19.3716 7.86314 20.7549 7.4375C20.86 7.40498 20.9316 7.3078 20.9316 7.19779V4.45898C20.9316 3.33737 21.3387 2.27811 22.1416 1.52539L22.1475 1.51953C22.9648 0.702299 23.9771 0.250089 25.0859 0.25H26.9668ZM25.1396 2.7041C24.6948 2.7042 24.2558 2.89365 23.9424 3.20703C23.6289 3.52056 23.4395 3.96025 23.4395 4.40527V7.18848C23.3897 8.42909 22.5976 9.46179 21.4678 9.80566C20.2148 10.1335 19.0172 10.624 17.9287 11.2227L17.9248 11.2246C16.8973 11.8117 15.57 11.6168 14.7344 10.7812L12.8545 8.90137C12.166 8.21284 11.0401 8.21284 10.3516 8.90137L9.00879 10.2441C8.32026 10.9327 8.32026 12.0048 9.00879 12.6934L10.8887 14.5732L10.8945 14.5781C11.776 15.4108 11.9731 16.7328 11.334 17.8145L11.3301 17.8213C10.7305 18.9114 10.2377 20.1147 9.96289 21.377C9.66737 22.4969 8.59078 23.3272 7.36914 23.2783H4.56641C3.6346 23.2783 2.8117 24.0232 2.81152 24.9785V26.8057C2.81177 27.7609 3.63463 28.5059 4.56641 28.5059H7.48047C8.56472 28.5558 9.5359 29.3118 9.85938 30.4209C9.86003 30.4248 9.86095 30.4286 9.86215 30.4324C10.2419 31.6247 10.7309 32.8198 11.3301 33.9092L11.3369 33.9199C11.9301 34.8781 11.8 36.1932 11.0078 37.0869L10.8398 37.2598L10.8301 37.2695L9.00879 39.1982C8.27257 39.9345 8.26112 41.0059 8.95508 41.7002L10.2412 43.04C10.2432 43.0426 10.2453 43.0451 10.2476 43.0474C10.5609 43.3589 10.999 43.5469 11.4424 43.5469C11.8872 43.5467 12.3262 43.3574 12.6396 43.0439L14.5195 41.1631C15.066 40.6167 15.7555 40.3233 16.4912 40.3232C16.9228 40.3232 17.4183 40.4687 17.8734 40.7213C17.8738 40.7216 17.8742 40.7218 17.8745 40.7222C17.8748 40.7225 17.8752 40.7228 17.8756 40.723C18.9648 41.322 20.1096 41.812 21.417 42.1934C22.4772 42.5171 23.2366 43.4468 23.3682 44.5371L23.3857 44.7578V47.5938C23.3857 48.5852 24.1363 49.3485 25.0859 49.3486H26.9668C27.4117 49.3485 27.8506 49.1582 28.1641 48.8447L28.1719 48.8369L28.1787 48.8281C28.4753 48.4722 28.667 48.0415 28.667 47.5938V44.8545C28.667 43.6227 29.4535 42.5911 30.5836 42.2465C30.5845 42.2462 30.5854 42.2461 30.5864 42.2461C30.5874 42.2461 30.5884 42.2459 30.5893 42.2456C31.783 41.8657 32.9797 41.3762 34.0703 40.7764L34.0811 40.7695C35.103 40.1369 36.5324 40.3263 37.4229 41.2139L39.1951 43.0398C39.1959 43.0406 39.1966 43.0415 39.1972 43.0424C39.1979 43.0434 39.1987 43.0444 39.1995 43.0452C39.8882 43.7324 41.0131 43.732 41.7012 43.0439C41.934 42.8111 42.3989 42.3452 42.748 41.9961C42.8926 41.8515 43.0168 41.7264 43.0967 41.6465C43.1546 41.5885 43.1848 41.5603 43.1904 41.5547C43.1911 41.5541 43.1914 41.5532 43.1914 41.5523C43.1913 41.5511 43.1911 41.5499 43.1909 41.5486C43.1905 41.5456 43.1915 41.5427 43.1935 41.5404C43.7828 40.8517 43.7519 39.8525 43.0977 39.1982L41.2227 37.3242C40.4826 36.4811 40.2915 35.2991 40.7314 34.3213C40.7379 34.3057 40.7474 34.2919 40.7578 34.2786C40.7595 34.2763 40.7612 34.274 40.7627 34.2715C40.7754 34.2503 40.7876 34.2256 40.7956 34.1973C40.7958 34.1966 40.7959 34.1959 40.7959 34.1953C40.7959 34.194 40.7962 34.1928 40.7968 34.1917C41.387 33.1113 41.8714 31.9258 42.1951 30.7389C42.1952 30.7385 42.1951 30.7381 42.1948 30.7378C42.1945 30.7375 42.1944 30.737 42.1945 30.7366C42.5417 29.5557 43.5728 28.7744 44.8008 28.7744H47.5938C48.5375 28.7744 49.3484 27.9642 49.3486 27.0205V26.7974C49.3486 26.7825 49.3366 26.7705 49.3218 26.7705C49.3069 26.7705 49.2949 26.7585 49.2949 26.7437V25.1396C49.2947 24.196 48.4838 23.3857 47.54 23.3857H44.8008C43.6222 23.3857 42.5412 22.5999 42.1953 21.4756C41.9086 20.4243 41.4966 19.3735 40.9961 18.3965L40.7764 17.9824C40.2373 16.8952 40.4388 15.5681 41.2686 14.7363L43.2009 12.8576C43.2017 12.8568 43.2026 12.8561 43.2036 12.8555C43.2046 12.8548 43.2055 12.8541 43.2064 12.8532L43.2598 12.7998L43.2645 12.7941C43.2646 12.794 43.2646 12.7939 43.2646 12.7937V12.793C43.2646 12.7926 43.2651 12.7924 43.2653 12.7927C43.2655 12.7928 43.2658 12.7928 43.2659 12.7927C43.9401 12.0569 43.9512 10.9903 43.2588 10.2979L41.8613 8.90137C41.219 8.20571 40.0937 8.22072 39.4131 8.90137L37.5332 10.7812L37.5283 10.7871L37.5234 10.792C36.7422 11.6708 35.4208 11.9183 34.3418 11.332C33.1973 10.678 31.9987 10.1872 30.7988 9.85938C29.7373 9.53631 28.9774 8.6068 28.8457 7.51562L28.8281 7.29492L28.7744 4.4541C28.772 3.45315 27.9569 2.70431 27.0205 2.7041H25.1396Z" fill="url(#paint1_linear_3582_445)"/>
<path d="M26.0942 12.2832C33.6191 12.3056 39.77 18.4701 39.77 26C39.7699 33.5435 33.5967 39.7167 26.0532 39.7168H25.9995C18.5091 39.7168 12.3365 33.5966 12.3364 26.0537C12.3364 22.3596 13.761 18.9319 16.3462 16.3467C18.8793 13.8136 22.2016 12.3897 25.7886 12.3369L25.8892 12.335L25.9146 12.3096C25.9531 12.3096 26.0196 12.3066 26.0942 12.2832ZM26.0532 14.7373C22.9797 14.7373 20.1762 15.8916 18.0337 18.0342C15.8916 20.1763 14.7368 22.9795 14.7368 26V26.002C14.7917 32.2617 19.7909 37.2617 26.0532 37.2617C32.261 37.2616 37.3137 32.2087 37.3687 26.0557V26.0518C37.3137 19.9022 32.4271 14.9022 26.3286 14.7373H26.0532Z" fill="url(#paint2_linear_3582_445)"/>
</g>
</g>
<defs>
<linearGradient id="paint0_linear_3582_445" x1="26.0706" y1="22.0121" x2="27.0665" y2="29.9669" gradientUnits="userSpaceOnUse">
<stop stop-color="#00A5E3"/>
<stop offset="0.5" stop-color="#373188"/>
<stop offset="1" stop-color="#FD0026"/>
</linearGradient>
<linearGradient id="paint1_linear_3582_445" x1="25.9618" y1="4.98934" x2="32.6645" y2="46.1288" gradientUnits="userSpaceOnUse">
<stop stop-color="#00A5E3"/>
<stop offset="0.5" stop-color="#373188"/>
<stop offset="1" stop-color="#FD0026"/>
</linearGradient>
<linearGradient id="paint2_linear_3582_445" x1="26.0326" y1="14.7162" x2="29.6405" y2="36.8376" gradientUnits="userSpaceOnUse">
<stop stop-color="#00A5E3"/>
<stop offset="0.5" stop-color="#373188"/>
<stop offset="1" stop-color="#FD0026"/>
</linearGradient>
<clipPath id="clip0_3582_445">
<rect width="52" height="52" fill="white"/>
</clipPath>
</defs>
</svg>
