<svg width="52" height="50" viewBox="0 0 52 50" fill="none" xmlns="http://www.w3.org/2000/svg">
<g opacity="0.9">
<path d="M8.64203 23.8779C7.70603 23.8779 6.92603 24.6579 6.92603 25.5939C6.92603 26.5299 7.70603 27.3099 8.64203 27.3099C9.57803 27.3099 10.358 26.5299 10.358 25.5939C10.358 24.6579 9.57803 23.8779 8.64203 23.8779Z" fill="url(#paint0_linear_3582_486)"/>
<path d="M27.1709 5.27246C29.0643 5.27246 30.5 6.53337 30.5 8.02246C30.5 9.51155 29.0643 10.7725 27.1709 10.7725H17.3291C15.4357 10.7725 14 9.51155 14 8.02246C14 6.53337 15.4357 5.27246 17.3291 5.27246H27.1709ZM17.3291 7.23047C16.8862 7.23047 16.4326 7.55321 16.4326 8.02246C16.4326 8.49171 16.8862 8.81445 17.3291 8.81445H27.1709C27.6138 8.81445 28.0674 8.49171 28.0674 8.02246C28.0674 7.55321 27.6138 7.23047 27.1709 7.23047H17.3291Z" fill="url(#paint1_linear_3582_486)"/>
<path d="M8.64203 32.9258C7.70603 32.9258 6.92603 33.7058 6.92603 34.6418C6.92603 35.5778 7.70603 36.3578 8.64203 36.3578C9.57803 36.3578 10.358 35.5778 10.358 34.6418C10.358 33.7058 9.57803 32.9258 8.64203 32.9258Z" fill="url(#paint2_linear_3582_486)"/>
<path d="M26.738 27.2582C27.674 27.2582 28.454 26.4782 28.454 25.5422C28.454 24.6062 27.674 23.8262 26.738 23.8262C25.802 23.8262 25.022 24.6062 25.022 25.5422C25.022 26.5302 25.802 27.2582 26.738 27.2582Z" fill="url(#paint3_linear_3582_486)"/>
<path d="M26.738 32.9258C25.802 32.9258 25.022 33.7058 25.022 34.6418C25.022 35.5778 25.802 36.3578 26.738 36.3578C27.674 36.3578 28.454 35.5778 28.454 34.6418C28.454 33.7058 27.674 32.9258 26.738 32.9258Z" fill="url(#paint4_linear_3582_486)"/>
<path d="M17.6901 23.8779C16.7541 23.8779 15.9741 24.6579 15.9741 25.5939C15.9741 26.5299 16.7541 27.3099 17.6901 27.3099C18.6261 27.3099 19.4061 26.5299 19.4061 25.5939C19.4061 24.6579 18.6261 23.8779 17.6901 23.8779Z" fill="url(#paint5_linear_3582_486)"/>
<path d="M17.6901 32.9258C16.7541 32.9258 15.9741 33.7058 15.9741 34.6418C15.9741 35.5778 16.7541 36.3578 17.6901 36.3578C18.6261 36.3578 19.4061 35.5778 19.4061 34.6418C19.4061 33.7058 18.6261 32.9258 17.6901 32.9258Z" fill="url(#paint6_linear_3582_486)"/>
<path d="M32.9775 0C34.2955 0 35.3799 1.08441 35.3799 2.40234V25.7256C35.3799 26.9682 36.3873 27.9755 37.6299 27.9756H50.1904C50.8896 27.9758 51.5 28.5457 51.5 29.2861V48.6816C51.5 49.422 50.8896 49.992 50.1904 49.9922H2.40234C1.08441 49.9922 0 48.9078 0 47.5898V2.40234C0 1.08757 1.081 0 2.4541 0H32.9775ZM4.87012 15.7764C3.62748 15.7764 2.62012 16.7837 2.62012 18.0264V45.2256C2.62012 46.4682 3.62748 47.4756 4.87012 47.4756H28.2744C29.5169 47.4754 30.5244 46.4681 30.5244 45.2256V29.2861C30.5244 28.5456 31.1346 27.9756 31.834 27.9756C32.3741 27.9756 32.8115 27.5382 32.8115 26.998V18.0264C32.8115 16.7837 31.8042 15.7764 30.5615 15.7764H4.87012ZM35.0576 43.5439C33.9721 43.5442 33.0919 44.4242 33.0918 45.5098C33.0918 46.5954 33.972 47.4754 35.0576 47.4756H46.9141C47.9998 47.4756 48.8799 46.5955 48.8799 45.5098C48.8798 44.4241 47.9997 43.544 46.9141 43.5439H35.0576ZM35.0576 37.0439C33.9721 37.0442 33.0919 37.9242 33.0918 39.0098C33.0918 40.0954 33.972 40.9754 35.0576 40.9756H46.9141C47.9998 40.9756 48.8799 40.0955 48.8799 39.0098C48.8798 37.9241 47.9997 37.044 46.9141 37.0439H35.0576ZM35.0576 30.5439C33.9721 30.5442 33.0919 31.4242 33.0918 32.5098C33.0918 33.5954 33.972 34.4754 35.0576 34.4756H46.9141C47.9998 34.4756 48.8799 33.5955 48.8799 32.5098C48.8798 31.4241 47.9997 30.544 46.9141 30.5439H35.0576ZM4.87012 2.56836C3.62748 2.56836 2.62012 3.57572 2.62012 4.81836V10.958C2.62012 12.2006 3.62748 13.208 4.87012 13.208H30.5615C31.8042 13.208 32.8115 12.2006 32.8115 10.958V4.81836C32.8115 3.57572 31.8042 2.56836 30.5615 2.56836H4.87012Z" fill="url(#paint7_linear_3582_486)"/>
</g>
<defs>
<linearGradient id="paint0_linear_3582_486" x1="8.63951" y1="24.2076" x2="9.08279" y2="26.9255" gradientUnits="userSpaceOnUse">
<stop stop-color="#00A5E3"/>
<stop offset="0.5" stop-color="#373188"/>
<stop offset="1" stop-color="#FD0026"/>
</linearGradient>
<linearGradient id="paint1_linear_3582_486" x1="18.5296" y1="6.1477" x2="21.4691" y2="12.0134" gradientUnits="userSpaceOnUse">
<stop offset="0.176848" stop-color="#00A5E3"/>
<stop offset="0.5" stop-color="#373188"/>
<stop offset="1" stop-color="#FD0026"/>
</linearGradient>
<linearGradient id="paint2_linear_3582_486" x1="8.63951" y1="33.2554" x2="9.08279" y2="35.9733" gradientUnits="userSpaceOnUse">
<stop stop-color="#00A5E3"/>
<stop offset="0.5" stop-color="#373188"/>
<stop offset="1" stop-color="#FD0026"/>
</linearGradient>
<linearGradient id="paint3_linear_3582_486" x1="26.7355" y1="24.1558" x2="27.1787" y2="26.8737" gradientUnits="userSpaceOnUse">
<stop stop-color="#00A5E3"/>
<stop offset="0.5" stop-color="#373188"/>
<stop offset="1" stop-color="#FD0026"/>
</linearGradient>
<linearGradient id="paint4_linear_3582_486" x1="26.7355" y1="33.2554" x2="27.1787" y2="35.9733" gradientUnits="userSpaceOnUse">
<stop stop-color="#00A5E3"/>
<stop offset="0.5" stop-color="#373188"/>
<stop offset="1" stop-color="#FD0026"/>
</linearGradient>
<linearGradient id="paint5_linear_3582_486" x1="17.6876" y1="24.2076" x2="18.1309" y2="26.9255" gradientUnits="userSpaceOnUse">
<stop stop-color="#00A5E3"/>
<stop offset="0.5" stop-color="#373188"/>
<stop offset="1" stop-color="#FD0026"/>
</linearGradient>
<linearGradient id="paint6_linear_3582_486" x1="17.6876" y1="33.2554" x2="18.1309" y2="35.9733" gradientUnits="userSpaceOnUse">
<stop stop-color="#00A5E3"/>
<stop offset="0.5" stop-color="#373188"/>
<stop offset="1" stop-color="#FD0026"/>
</linearGradient>
<linearGradient id="paint7_linear_3582_486" x1="25.7118" y1="4.59975" x2="32.0537" y2="44.6455" gradientUnits="userSpaceOnUse">
<stop stop-color="#00A5E3"/>
<stop offset="0.5" stop-color="#373188"/>
<stop offset="1" stop-color="#FD0026"/>
</linearGradient>
</defs>
</svg>
