<svg width="52" height="52" viewBox="0 0 52 52" fill="none" xmlns="http://www.w3.org/2000/svg">
<g opacity="0.9">
<path d="M28.253 0.807157C29.4547 0.389181 30.7281 0.00690764 31.9883 0.442899L31.9942 0.444852C33.1912 0.829638 33.9439 1.69917 34.6416 2.61477L34.9385 3.00931C35.344 3.56666 35.7754 4.10961 36.1719 4.39993C36.3837 4.58144 36.6594 4.72427 36.9551 4.84524C37.1038 4.90607 37.2618 4.96318 37.4248 5.01809L37.9248 5.17825C39.129 5.59711 40.3993 6.04503 41.2285 7.16556C42.0066 8.23569 42.0645 9.61247 42.0645 10.8667C42.0645 11.5181 42.0622 12.2325 42.2276 12.7466C42.2889 12.9921 42.4229 13.2529 42.583 13.5132C42.7439 13.7746 42.9429 14.0533 43.1494 14.3374C43.8838 15.3865 44.6641 16.5213 44.6641 17.939C44.6641 19.1795 44.0672 20.2029 43.4258 21.1421L43.1494 21.5396L43.1436 21.5484C42.9662 21.8271 42.7788 22.1102 42.6221 22.3648C42.5039 22.5568 42.3952 22.746 42.3116 22.9263L42.2364 23.1031L42.2334 23.1118C42.0616 23.6273 42.0645 24.3517 42.0645 25.0113C42.0645 26.2709 42.0574 27.5903 41.2295 28.7105L41.2256 28.7154C40.7684 29.3685 40.1779 29.7845 39.5283 30.0962C38.8948 30.4003 38.54 31.1535 38.8477 31.8306L44.8946 45.1343C45.0694 45.5807 45.0153 46.0445 44.7266 46.3745L44.7263 46.3749C44.7219 46.3792 44.7181 46.384 44.7149 46.3892C44.4538 46.7373 43.9655 46.9576 43.5352 46.9146L38.4512 46.4009C38.0009 46.3555 37.5613 46.5575 37.3018 46.9282L34.3614 51.1275L34.3545 51.1382C34.1416 51.4789 33.7548 51.6968 33.3184 51.6968H33.1797C32.7073 51.6518 32.3203 51.3528 32.1465 50.9195L27.6231 39.4771C27.2142 38.4436 25.7599 38.4178 25.3145 39.4361L20.3028 50.899C20.0753 51.3538 19.6769 51.6547 19.2041 51.6978C18.7268 51.7412 18.295 51.5269 18.0323 51.1343L15.3526 47.022C15.0949 46.6267 14.636 46.4104 14.167 46.4624L8.69729 47.0699C8.25216 47.1143 7.77808 46.9337 7.52639 46.5562L7.52628 46.556C7.5231 46.5509 7.51955 46.5461 7.51565 46.5415C7.2117 46.1506 7.16873 45.6824 7.38473 45.2487C7.38542 45.2473 7.38623 45.246 7.38715 45.2448C7.38818 45.2434 7.38907 45.2419 7.3898 45.2404L13.7832 31.7749C14.1019 31.1033 13.7603 30.3427 13.128 30.0318C12.5024 29.7242 11.9216 29.321 11.4717 28.7105C10.6944 27.6405 10.6367 26.2651 10.6367 25.0113C10.6367 24.3517 10.6386 23.6273 10.4668 23.1118C10.4035 22.8719 10.2742 22.6184 10.1182 22.3648C10.0373 22.2333 9.94696 22.0972 9.85061 21.9585L9.54885 21.5357C8.81526 20.4876 8.03616 19.355 8.03616 17.939C8.03619 16.5213 8.81741 15.3875 9.55178 14.3384L9.55764 14.3296C9.73503 14.0509 9.92243 13.7678 10.0791 13.5132C10.2367 13.2572 10.378 13.0066 10.4649 12.7749L10.4678 12.7661C10.6396 12.2507 10.6367 11.5263 10.6367 10.8667C10.6367 9.60716 10.6438 8.2876 11.4717 7.16751C12.3027 6.04328 13.5771 5.59519 14.7842 5.17532L14.792 5.17239C15.1223 5.04535 15.4574 4.92429 15.7461 4.80618C16.029 4.69047 16.2924 4.56647 16.4975 4.4228C16.4978 4.42256 16.4983 4.4226 16.4986 4.42289C16.4989 4.42317 16.4993 4.42322 16.4996 4.42301C16.7405 4.27236 16.955 4.05357 17.1563 3.81204C17.3572 3.57092 17.5581 3.29073 17.7627 3.00931C18.5476 1.96284 19.3882 0.885483 20.7061 0.444852C21.972 0.0562265 23.2482 0.441189 24.4571 0.80911C25.1136 1.01113 25.7832 1.23684 26.3506 1.23684C26.9181 1.23683 27.5876 1.0121 28.2442 0.810087L28.253 0.807157ZM16.8809 32.4644C16.5551 32.5018 16.256 32.7098 16.0948 33.0454L11.668 42.2622C11.2439 43.1457 11.9553 44.1511 12.9297 44.0454L15.4564 43.7721C15.4567 43.772 15.4568 43.7717 15.4566 43.7715C15.4564 43.7713 15.4565 43.771 15.4568 43.771C15.9408 43.7283 16.4199 43.9503 16.6778 44.3355L17.6436 45.8111C18.1871 46.6405 19.4335 46.5369 19.833 45.6294L23.3672 37.5991C23.5843 37.1057 23.4489 36.6005 23.1524 36.2339C22.8582 35.8703 22.3891 35.619 21.8828 35.6138C21.4871 35.6097 21.0921 35.556 20.7061 35.4331C19.3379 34.9933 18.5503 33.9201 17.7617 32.8687C17.5409 32.5634 17.2072 32.427 16.8809 32.4644ZM36.6651 33.0279C36.3643 32.3524 35.5216 32.2423 35.0508 32.8072L35.043 32.8169C34.2576 33.8642 33.4153 34.9414 32.0957 35.3814L32.0869 35.3853C31.7063 35.528 31.3215 35.5767 30.9268 35.5767C30.478 35.5767 30.0643 35.7946 29.8018 36.1138C29.5373 36.4356 29.4121 36.8817 29.5879 37.3247L32.8662 45.5767C33.2343 46.503 34.4858 46.647 35.0547 45.8286L36.124 44.2896L36.127 44.2857C36.3896 43.892 36.8219 43.6759 37.2998 43.7193L39.4707 43.9517C40.4282 44.0538 41.1374 43.0805 40.7461 42.2007L36.6651 33.0279ZM31.3174 2.82962C31.015 2.72891 30.6318 2.76909 30.2627 2.84817C29.8835 2.92947 29.468 3.06424 29.0791 3.19388C28.2384 3.45665 27.3428 3.75345 26.4024 3.75345C25.4602 3.75341 24.5628 3.45603 23.7207 3.1929C23.3102 3.06462 22.8944 2.93009 22.5235 2.84915C22.1601 2.76988 21.79 2.72873 21.4873 2.82962C21.1843 2.93064 20.8988 3.19901 20.6446 3.48587C20.3835 3.7804 20.1158 4.14311 19.8604 4.47513C19.3327 5.16115 18.8357 5.85563 18.0908 6.40188C17.3467 6.94757 16.4969 7.24928 15.668 7.50833L15.6631 7.51028C15.2785 7.63849 14.8628 7.77241 14.5059 7.92727C14.1562 8.07905 13.8161 8.26892 13.6182 8.53274C13.4186 8.79889 13.3366 9.18387 13.2969 9.56692C13.2563 9.9592 13.2569 10.4022 13.2569 10.815C13.2569 11.7072 13.2543 12.6512 12.959 13.4878L12.9551 13.5005C12.7089 14.3376 12.2153 15.0327 11.6914 15.7661C11.4333 16.1275 11.1652 16.5015 10.9629 16.8521C10.7652 17.1948 10.6045 17.5565 10.6045 17.8872C10.6046 18.2408 10.7622 18.6135 10.9629 18.9615C11.165 19.3116 11.4316 19.6699 11.6895 20.0054C12.1133 20.6638 12.5758 21.2663 12.8496 21.9663L12.9551 22.274C13.2051 23.1763 13.2569 24.1365 13.2569 24.9595C13.2569 25.3977 13.2563 25.841 13.2969 26.2271C13.3366 26.604 13.4192 26.9713 13.6153 27.2359C13.7874 27.4766 14.1172 27.6693 14.4678 27.8316C14.8308 27.9996 15.2701 28.1594 15.711 28.315L15.7198 28.3179C16.5487 28.5769 17.3985 28.8787 18.1426 29.4243L18.1455 29.4263C18.6644 29.7969 19.1045 30.2825 19.5108 30.8081L19.9073 31.3443C20.1429 31.6845 20.4095 32.045 20.6797 32.3423C20.9427 32.6316 21.2394 32.8966 21.5391 32.9966C21.8415 33.0974 22.2246 33.0562 22.5938 32.9771C22.9728 32.8959 23.3879 32.7621 23.7767 32.6326C23.777 32.6325 23.7771 32.6321 23.7769 32.6319C23.7767 32.6316 23.7768 32.6313 23.7771 32.6312C24.6178 32.3684 25.5136 32.0729 26.4541 32.0728H26.8545L27.1514 32.1001C27.8368 32.1839 28.4846 32.3961 29.084 32.5806C29.4945 32.7089 29.9104 32.8444 30.2813 32.9253C30.6446 33.0046 31.0148 33.0447 31.3174 32.9439C31.6204 32.8429 31.9059 32.5745 32.1602 32.2876C32.4212 31.9931 32.689 31.6313 32.9444 31.2993C33.4719 30.6136 33.9693 29.9196 34.7137 29.3734C34.7145 29.3729 34.7152 29.3722 34.7159 29.3716C34.7165 29.3709 34.7172 29.3704 34.7179 29.3698C35.0878 29.0927 35.5047 28.9011 35.9498 28.7029C35.9734 28.6923 35.9982 28.6847 36.0235 28.6792C36.0354 28.6767 36.0482 28.6733 36.0596 28.6704C36.0616 28.6699 36.0904 28.6635 36.1153 28.6529C36.4655 28.5028 36.7999 28.3617 37.1309 28.2671L37.1416 28.2642C37.5265 28.1359 37.9427 28.0022 38.2998 27.8472C38.6495 27.6954 38.9887 27.5046 39.1865 27.2408C39.3861 26.9745 39.4682 26.5897 39.5078 26.2066C39.5484 25.8144 39.5489 25.3721 39.5489 24.9595C39.5489 24.0673 39.5515 23.1233 39.8467 22.2866L39.8506 22.274C40.0968 21.4369 40.5904 20.7417 41.1143 20.0083C41.3723 19.6472 41.6396 19.2728 41.8418 18.9224C42.0395 18.5798 42.2002 18.2179 42.2002 17.8872C42.2002 17.5336 42.0426 17.161 41.8418 16.813C41.6393 16.462 41.3728 16.1024 41.1143 15.7661C40.691 15.1088 40.2296 14.5071 39.9561 13.8081L39.8506 13.5005C39.6005 12.5981 39.5489 11.6381 39.5489 10.815C39.5489 10.3767 39.5485 9.93353 39.5078 9.54739C39.4679 9.16803 39.3853 8.7977 39.1865 8.53274L39.1817 8.52688L39.1768 8.52005L39.0977 8.43704C38.8993 8.24687 38.6073 8.08666 38.3028 7.94876C37.946 7.78721 37.533 7.64075 37.1416 7.51028L37.1367 7.50833C36.3081 7.24935 35.4588 6.94732 34.7149 6.40188L34.7119 6.39993L34.459 6.20559C34.0473 5.86655 33.6853 5.45618 33.3467 5.01809L32.9502 4.48196C32.7145 4.14166 32.448 3.78124 32.1778 3.48391C31.9147 3.19454 31.6173 2.92957 31.3174 2.82962ZM35.9561 28.6909C35.9497 28.6919 35.9446 28.6917 35.9424 28.6919C35.9399 28.6921 35.9374 28.6928 35.9356 28.6929C35.9345 28.693 35.9304 28.6929 35.9248 28.6929C35.9387 28.6929 35.9527 28.6905 35.9639 28.689C35.9606 28.6896 35.9579 28.6907 35.9561 28.6909Z" fill="url(#paint0_linear_3582_30)"/>
<path d="M30.6382 14.2218C31.1419 13.7141 31.9626 13.7122 32.4683 14.2179C32.9724 14.722 32.9722 15.5397 32.4683 16.044L27.5464 20.9659C26.0819 22.4304 23.7072 22.4304 22.2427 20.9659L20.2876 19.0108C19.7851 18.5083 19.7898 17.6918 20.2984 17.1954C20.7983 16.7073 21.5983 16.7121 22.0923 17.2061L22.8569 17.9718C23.9812 19.0959 25.8053 19.0923 26.9253 17.964L30.6382 14.2218Z" fill="url(#paint1_linear_3582_30)"/>
</g>
<defs>
<linearGradient id="paint0_linear_3582_30" x1="26.0941" y1="4.9906" x2="35.0145" y2="45.2523" gradientUnits="userSpaceOnUse">
<stop stop-color="#00A5E3"/>
<stop offset="0.5" stop-color="#373188"/>
<stop offset="1" stop-color="#FD0026"/>
</linearGradient>
<linearGradient id="paint1_linear_3582_30" x1="26.3658" y1="14.0061" x2="27.4447" y2="22.8368" gradientUnits="userSpaceOnUse">
<stop stop-color="#00A5E3"/>
<stop offset="0.5" stop-color="#373188"/>
<stop offset="1" stop-color="#FD0026"/>
</linearGradient>
</defs>
</svg>
