<svg width="52" height="45" viewBox="0 0 52 45" fill="none" xmlns="http://www.w3.org/2000/svg">
<path opacity="0.9" d="M13.4996 0.394608C14.0259 -0.131505 14.8033 -0.131567 15.3296 0.394608L15.483 0.547928C16.2642 1.32919 17.3196 1.77533 18.4244 1.79207L23.6499 1.87117C23.9784 1.92071 24.3284 2.06132 24.5337 2.26668L25.566 3.2989C26.4788 4.21176 27.7575 4.66109 29.0406 4.51863L32.7554 4.10555C33.7146 3.99898 34.6092 3.56917 35.2915 2.8868L36.5874 1.5909C37.0618 1.11655 37.9432 1.11657 38.4175 1.5909L51.106 14.2784C51.581 14.7534 51.5816 15.5887 51.1499 16.0645L50.9009 16.3136C50.0866 17.1279 49.6377 18.2382 49.6568 19.3897L49.733 23.9337C49.7321 24.2775 49.6047 24.5775 49.3374 24.8448C48.6712 25.511 48.3722 26.3854 48.2515 27.2921C48.1311 28.197 48.1859 29.1604 48.2486 30.0245C48.3436 31.3357 47.8882 32.6915 46.8941 33.6856L46.8892 33.6905C46.0062 34.6225 44.7746 35.0684 43.5865 35.0684C42.7616 35.0684 41.9622 35.5219 41.5513 36.2413C41.3477 36.5978 41.1027 36.9281 40.8101 37.2208L40.6353 37.3956C39.7681 38.2124 38.6163 38.6036 37.5025 38.6036C36.6426 38.6036 35.7761 39.089 35.314 39.8096C35.1364 40.0866 34.9234 40.3502 34.6761 40.598C34.6743 40.5998 34.6727 40.6017 34.6713 40.6038C34.6701 40.6056 34.6687 40.6073 34.6672 40.6089C33.7844 41.5393 32.5539 41.9844 31.3667 41.9845C31.285 41.9845 31.2025 41.9814 31.1207 41.9766C29.9057 41.9056 28.6185 42.3919 27.7574 43.253L27.7525 43.2579C26.9176 44.1419 25.7364 44.6358 24.5025 44.6358H24.4507C23.2871 44.6358 22.1782 44.2434 21.3599 43.4698L3.45561 25.5655L3.44682 25.5577L3.36089 25.4757C3.17323 25.2714 3.06981 24.9751 3.06889 24.6622L3.14507 19.8565C3.16348 18.7059 2.71461 17.597 1.90093 16.7833L0.395066 15.2774C-0.131005 14.7513 -0.131881 13.9732 0.393597 13.4469C0.393867 13.4466 0.394308 13.4466 0.394578 13.4469C0.394848 13.4471 0.395285 13.4471 0.395555 13.4469L13.4986 0.395585L13.4996 0.394608ZM15.2154 3.94148C14.7444 3.47051 13.9803 3.47051 13.5093 3.94148L5.34526 12.1055C4.09928 13.352 4.09902 15.373 5.34526 16.6192L5.35405 16.627L5.36284 16.6339C5.57514 16.8109 5.70472 17.0922 5.73393 17.4005L5.74077 17.5343L5.66362 22.3848C5.64542 23.5374 6.09635 24.6482 6.91264 25.462L22.9742 41.4747C23.3458 41.8979 23.8856 42.0684 24.399 42.0684C24.9411 42.0683 25.4698 41.8267 25.8746 41.422C26.7012 40.647 26.6996 39.2941 25.9273 38.5216L25.9263 38.5206L19.0103 31.6563C18.4849 31.1301 18.4855 30.3533 19.0113 29.8272C19.5376 29.3009 20.315 29.3009 20.8414 29.8272L29.8902 38.8751C30.6663 39.6508 31.9621 39.6425 32.7832 38.8287C32.7835 38.8284 32.784 38.8284 32.7842 38.8287C32.7845 38.829 32.7849 38.829 32.7852 38.8287C33.6181 38.0547 33.6178 36.6954 32.8433 35.921L23.7955 26.8731C23.2691 26.3468 23.2691 25.5694 23.7955 25.043C24.3218 24.5167 25.0992 24.5167 25.6255 25.043L35.9742 35.3907C36.7525 36.1688 38.0537 36.1588 38.8746 35.338C39.7012 34.563 39.6996 33.2101 38.9273 32.4376L28.5796 22.0889C28.0533 21.5626 28.0533 20.7852 28.5796 20.2589C29.106 19.7326 29.8834 19.7325 30.4097 20.2589L42.1099 31.9591C42.8882 32.7371 44.1905 32.7271 45.0113 31.9063C45.8223 31.0951 45.903 29.7923 45.1158 29.005L33.1236 17.0137C31.4639 15.354 28.7726 15.354 27.1128 17.0137L25.5757 18.5509C23.7492 20.3278 20.838 20.3277 19.0113 18.5011L19.0064 18.4962L18.8453 18.336C18.0625 17.5138 17.6285 16.4031 17.6285 15.2462C17.6285 13.956 18.0735 12.8246 18.9595 11.9386L23.5728 7.32527C24.2239 6.6742 24.2239 5.61795 23.5728 4.96687C23.2694 4.66368 22.861 4.48931 22.4322 4.47957L16.0992 4.33601C15.7708 4.28648 15.4208 4.14675 15.2154 3.94148ZM39.3433 6.12508C38.362 5.14383 36.7761 5.13839 35.7867 6.10652C35.556 6.29101 35.285 6.42483 34.9732 6.4698L28.6675 7.19441C27.7142 7.30395 26.8256 7.73267 26.147 8.41121L20.7896 13.7696C20.3664 14.1413 20.1968 14.6811 20.1968 15.1944C20.1969 15.7363 20.4369 16.2653 20.8414 16.67C21.6162 17.4973 22.971 17.4954 23.7437 16.7227L29.1509 11.2628C29.677 10.7367 30.4546 10.7363 30.981 11.2618L43.7144 24.0421C44.4763 24.8067 45.7138 24.8083 46.4771 24.045C46.8511 23.671 47.0572 23.1608 47.0484 22.6319L46.9566 17.1182C46.9566 16.7732 47.0829 16.4718 47.3506 16.2037C47.3509 16.2034 47.3509 16.203 47.3506 16.2027C47.3504 16.2024 47.3504 16.202 47.3507 16.2017C47.9316 15.6491 47.9442 14.727 47.3765 14.1593L39.3433 6.12508Z" fill="url(#paint0_linear_3582_1616)"/>
<defs>
<linearGradient id="paint0_linear_3582_1616" x1="25.6962" y1="4.08531" x2="30.7921" y2="40.0591" gradientUnits="userSpaceOnUse">
<stop stop-color="#00A5E3"/>
<stop offset="0.5" stop-color="#373188"/>
<stop offset="1" stop-color="#FD0026"/>
</linearGradient>
</defs>
</svg>
