<svg width="52" height="52" viewBox="0 0 52 52" fill="none" xmlns="http://www.w3.org/2000/svg">
<g opacity="0.9">
<path d="M39.4678 0.25C42.1845 0.25 44.1055 2.21297 44.1055 4.99219V38.9482C44.1056 40.9816 45.7547 42.6299 47.7881 42.6299C47.9897 42.6299 48.1834 42.7128 48.2871 42.8164C48.301 42.8303 48.3113 42.8409 48.3203 42.8506C48.3445 42.8765 48.3637 42.9176 48.3672 42.9482C48.3688 42.9622 48.3631 42.976 48.3567 42.9885C48.3317 43.0362 48.3184 43.0896 48.3184 43.1445V44.46C48.3184 45.6052 48.3177 46.7385 48.2148 47.9219C48.0714 49.6438 46.5951 51.2084 44.7012 51.583C44.639 51.5953 44.5741 51.6114 44.5098 51.6328L44.458 51.6504C44.4299 51.6598 44.4025 51.6713 44.376 51.6846C44.3581 51.6935 44.3383 51.6982 44.3184 51.6982H14.4561C14.401 51.6982 14.3482 51.6935 14.2988 51.6836C13.3066 51.4838 12.3658 50.9973 11.6611 50.2676L11.5234 50.1182C10.7368 49.1815 10.3401 47.9458 10.3896 46.7061V16.1162C10.3896 13.769 8.48686 11.8662 6.13965 11.8662H4.41992C3.98605 11.8662 3.62998 11.51 3.62988 11.0762V4.99805C3.67997 2.99684 4.57283 1.48314 6.23633 0.749023L6.24023 0.74707C6.89289 0.445845 7.58566 0.25 8.32031 0.25H39.4678ZM15.9229 2.55762C15.0105 2.55762 14.2511 3.03316 13.709 3.7041C13.1683 4.37334 12.8292 5.25253 12.751 6.11328L12.75 6.125V46.6963C12.75 46.8653 12.7643 47.0185 12.7773 47.1494L12.8018 47.4756V47.4893C12.8611 48.6158 13.8088 49.494 14.9756 49.4941C16.088 49.4941 17.0305 48.673 17.1484 47.5547L17.1494 47.542C17.2019 46.5981 17.2021 45.6553 17.2021 44.7725V43.5762C17.2021 43.0384 17.6097 42.6301 18.1475 42.6299H37.5479C39.8951 42.6299 41.7979 40.7271 41.7979 38.3799V5.04395C41.7979 4.84467 41.7987 4.55285 41.7383 4.30957C41.5665 3.59391 41.1867 3.14452 40.7139 2.88184C40.2515 2.62498 39.7217 2.55762 39.2598 2.55762H15.9229ZM20.4883 45.042C19.9483 45.042 19.51 45.4796 19.5098 46.0195V46.0322L19.5107 46.0439C19.5893 46.8688 19.9179 47.7096 20.4395 48.3486C20.9623 48.9892 21.6938 49.4422 22.5693 49.4424H43.9922C44.8878 49.4422 45.6609 48.843 45.8975 47.9561C45.9001 47.947 45.902 47.9377 45.9032 47.9283L45.9033 47.9277C46.009 47.1881 46.0615 46.448 46.0615 45.708C46.0615 45.3402 45.7633 45.042 45.3955 45.042H20.4883ZM38.5664 37.2217L38.6797 37.2344C39.241 37.3253 39.6855 37.7826 39.6855 38.376C39.6855 39.0178 39.174 39.5301 38.5322 39.5303H23.6602C23.0182 39.5303 22.5059 39.0179 22.5059 38.376C22.5059 37.7341 23.0182 37.2217 23.6602 37.2217H38.5664ZM18.7197 37.2744C19.3485 37.2744 19.8239 37.7736 19.873 38.3818C19.87 39.0145 19.3659 39.4775 18.7715 39.4775H17.0039C16.3682 39.4775 15.9023 38.9722 15.9023 38.376C15.9024 37.7403 16.4077 37.2744 17.0039 37.2744H18.7197ZM22.9316 32.334C23.5672 32.334 24.0339 32.8395 24.0342 33.4355C24.0342 34.0442 23.5556 34.5898 22.9316 34.5898H17.0039C16.4201 34.5898 15.9023 34.0836 15.9023 33.4355C15.9026 32.8001 16.4078 32.334 17.0039 32.334H22.9316ZM38.5742 32.2822C39.1781 32.3297 39.6853 32.8517 39.6855 33.4355C39.6855 34.0712 39.1802 34.538 38.584 34.5381H27.8887C27.2408 34.4949 26.7805 33.9859 26.8213 33.3516C26.8642 32.7943 27.2883 32.3288 27.8809 32.2822H38.5742ZM29.5801 27.4463C30.2234 27.4935 30.6795 28.0012 30.6387 28.6328C30.5956 29.1927 30.1674 29.6594 29.5703 29.7021H17.0215C16.4079 29.6582 15.9023 29.1807 15.9023 28.5479C15.9024 27.9183 16.4013 27.4464 17.0557 27.4463H29.5801ZM38.5322 27.4463C39.1677 27.4465 39.6337 27.9518 39.6338 28.5479C39.6338 29.1377 39.122 29.6502 38.5322 29.6504H34.4756C33.8858 29.6502 33.374 29.1377 33.374 28.5479C33.3741 27.9123 33.8795 27.4464 34.4756 27.4463H38.5322ZM31.876 21.7783C32.524 21.7784 33.0302 22.2961 33.0303 22.8799C33.0303 23.482 32.5057 24.0342 31.9277 24.0342H21.7715C21.1456 24.0759 20.6338 23.577 20.6338 22.9316C20.634 22.2837 21.1526 21.7783 21.7363 21.7783H31.876ZM26.5791 5.65137C26.8004 5.60841 27.0209 5.60822 27.2422 5.65137C28.9833 6.21488 30.5172 6.74386 31.9551 7.20605L31.9629 7.20801C32.1349 7.25716 32.2717 7.404 32.3516 7.61426C32.4001 7.7423 32.4062 7.8905 32.4062 8.08398V8.74707C32.4571 9.86492 32.3561 11.0377 32.1523 12.1631C31.5423 14.7555 30.0189 16.9872 27.8398 18.4062L27.2812 18.7617L27.2578 18.7734C27.1814 18.8117 27.1124 18.8701 27.0762 18.9004C27.0744 18.9018 27.0689 18.9053 27.0557 18.9102C27.04 18.9159 27.0194 18.9212 26.9844 18.9287C26.9464 18.9369 26.9044 18.9385 26.832 18.9385C26.7834 18.9385 26.7336 18.9351 26.6875 18.9131C23.2818 16.8751 21.4646 13.8882 21.3613 10.1396C21.3613 9.82595 21.3618 9.52376 21.3828 9.24512C21.3968 9.06036 21.414 8.86081 21.4141 8.66016V7.95619C21.4141 7.947 21.4134 7.93781 21.4121 7.92871C21.3742 7.58763 21.6035 7.28529 21.9004 7.21094L21.9102 7.20801L21.9189 7.20508C22.8397 6.89818 23.7407 6.63096 24.6234 6.31957C24.6238 6.31943 24.6242 6.31953 24.6245 6.31983C24.6248 6.32012 24.6253 6.32023 24.6257 6.32009L26.5791 5.65137ZM26.8838 7.75781C26.4741 7.75783 26.072 7.87423 25.7324 8.04395C25.4413 8.18949 25.1039 8.28537 24.7764 8.39453L24.7686 8.39746L24.4551 8.51562C24.4 8.53625 24.3402 8.55297 24.2715 8.57031C24.2592 8.57341 24.2466 8.57584 24.2344 8.5791C23.7466 8.70969 23.3745 9.16981 23.4395 9.70508C23.4514 9.80329 23.4587 9.89298 23.457 9.97754C23.4251 11.5532 23.8736 13.0656 24.71 14.3398C25.7416 15.9117 28.0211 15.8945 29.0273 14.3057C29.8524 13.0028 30.2859 11.4613 30.2539 9.87988V9.62012C30.2539 9.5193 30.2536 9.42625 30.2588 9.33496C30.2742 9.06265 30.1284 8.75721 29.8232 8.65527L29.8218 8.65471C29.8163 8.65249 29.8105 8.65071 29.8047 8.64941L29.3467 8.52539C29.0429 8.43631 28.7429 8.33472 28.4531 8.2207L28.0273 8.04004C27.6894 7.87246 27.2904 7.75781 26.8838 7.75781ZM8.26758 2.55762C7.22597 2.50892 6.33828 3.1795 6.08691 4.17676L6.04492 4.38086L6.04297 4.39258C5.98919 4.87678 5.99023 5.41106 5.99023 5.87598V8.78809C5.99028 9.21327 6.33459 9.55755 6.75977 9.55762H9.09961C9.84078 9.55762 10.4414 8.95699 10.4414 8.21582C10.4414 7.31953 10.442 6.41968 10.4199 5.51855L10.3896 4.61719V4.61523L10.3682 4.39941C10.2126 3.33751 9.32099 2.55762 8.26758 2.55762Z" fill="url(#paint0_linear_3582_986)"/>
</g>
<defs>
<linearGradient id="paint0_linear_3582_986" x1="25.9667" y1="4.9896" x2="33.6082" y2="45.7923" gradientUnits="userSpaceOnUse">
<stop stop-color="#00A5E3"/>
<stop offset="0.5" stop-color="#373188"/>
<stop offset="1" stop-color="#FD0026"/>
</linearGradient>
</defs>
</svg>
