<svg width="52" height="52" viewBox="0 0 52 52" fill="none" xmlns="http://www.w3.org/2000/svg">
<g opacity="0.9">
<path d="M17.6011 2.55419C17.6008 2.55394 17.6009 2.55352 17.6012 2.55334C22.7739 -0.518533 29.1745 -0.517148 34.2939 2.5537C34.8673 2.90277 35.0879 3.62641 34.8076 4.23632L31.7051 10.9883C31.5846 11.2505 31.5225 11.5356 31.5225 11.8242C31.5225 12.7818 32.2 13.5875 33.1104 13.8232C36.0639 14.5874 38.4697 15.8006 40.1318 17.2861C41.7927 18.7706 42.702 20.5167 42.7021 22.3603V42.3467C42.7023 43.4055 43.4768 44.2381 44.251 44.7939C45.2111 45.4833 45.8222 46.6131 45.8223 47.8926V49.9492C45.822 50.9154 45.0385 51.6991 44.0723 51.6992H7.87598C6.90964 51.6992 6.12624 50.9155 6.12598 49.9492V47.8926C6.12603 46.6136 6.76294 45.4809 7.74414 44.79C8.52558 44.2399 9.29767 43.4054 9.29785 42.3467V22.3603C9.29798 20.5159 10.2074 18.7801 11.8701 17.3017C13.5345 15.8219 15.9442 14.6106 18.9023 13.8291C19.8073 13.5898 20.4775 12.7865 20.4775 11.834C20.4775 11.5382 20.4124 11.246 20.2861 10.9785L17.0996 4.2285C16.8145 3.62458 17.031 2.90273 17.601 2.55503C17.6013 2.55485 17.6013 2.55444 17.6011 2.55419ZM25.0645 12.3349C23.95 12.3349 23.0461 13.2381 23.0459 14.3525V14.5439C23.0459 15.1791 22.5849 15.7202 21.958 15.8213L21.4209 15.9101C18.7619 16.3799 16.4553 17.2322 14.7764 18.3017C12.9975 19.435 11.8664 20.8526 11.8662 22.3603V42.9785C11.8662 43.6192 12.3857 44.1387 13.0264 44.1387C13.3907 44.1389 13.6855 44.4344 13.6855 44.7988V45.4228C13.6855 46.1318 13.1113 46.7068 12.4023 46.707H9.98438C9.33507 46.707 8.74631 47.226 8.74609 47.9443C8.74609 48.6281 9.30064 49.1826 9.98438 49.1826H41.9639C42.6763 49.1826 43.2539 48.605 43.2539 47.8926C43.2538 47.2432 42.7341 46.6543 42.0156 46.6543H39.5977C38.8888 46.6541 38.3146 46.0799 38.3145 45.3711V44.7471C38.3145 44.3827 38.6093 44.0871 38.9736 44.0869C39.6143 44.0869 40.1338 43.5674 40.1338 42.9267V22.3603C40.1336 20.8272 39.003 19.4098 37.2227 18.2822C35.4314 17.1477 32.9264 16.267 30.042 15.8213C29.4155 15.7198 28.9541 15.1788 28.9541 14.5439V14.3525C28.9539 13.2381 28.05 12.3349 26.9355 12.3349H25.0645ZM29.9141 3.41698C27.3628 2.63602 24.6372 2.63602 22.0859 3.41698C20.8751 3.78766 20.4146 5.15366 20.918 6.25878L21.9629 8.5537C22.3284 9.35597 23.1291 9.87108 24.0107 9.87108H27.9893C28.8709 9.87106 29.6716 9.35597 30.0371 8.5537L31.082 6.25878C31.5853 5.15367 31.1249 3.78768 29.9141 3.41698Z" fill="url(#paint0_linear_3582_3245)"/>
<path d="M27.113 22.8701C27.5951 22.8702 27.986 23.2611 27.9861 23.7432C27.9861 24.3661 28.4056 24.8758 28.9343 25.1143C30.2102 25.6898 31.1817 26.735 31.6033 28.0029C31.7055 28.3105 31.6237 28.5946 31.4275 28.8115C31.227 29.033 30.9067 29.1815 30.5505 29.1816C30.2059 29.1816 29.875 29.0235 29.5369 28.7705C29.1929 28.5131 28.8863 28.1958 28.5554 27.8965C28.081 27.4674 27.4129 27.2062 26.6765 27.2061C25.2794 27.2061 24.086 28.1643 24.0857 29.4316C24.0857 30.6992 25.2792 31.6582 26.6765 31.6582C29.5204 31.6584 31.8337 33.7998 31.8337 36.4521C31.8337 38.3481 30.6641 39.9892 28.9343 40.7695C28.4057 41.008 27.9862 41.5178 27.9861 42.1406C27.9861 42.6228 27.5952 43.0135 27.113 43.0137H26.2917C25.8095 43.0137 25.4177 42.6229 25.4177 42.1406C25.4176 41.5178 24.9981 41.008 24.4695 40.7695C23.1938 40.194 22.222 39.1487 21.8005 37.8809C21.6985 37.5734 21.7802 37.2891 21.9763 37.0723C22.1769 36.8507 22.4979 36.7021 22.8542 36.7021C23.1989 36.7022 23.5297 36.8612 23.8679 37.1143C24.2117 37.3716 24.5177 37.6881 24.8484 37.9873C25.3229 38.4165 25.9917 38.6777 26.7283 38.6777C28.1255 38.6776 29.3181 37.7197 29.3181 36.4521C29.3181 35.1846 28.1255 34.2267 26.7283 34.2266C23.8842 34.2266 21.5701 32.0841 21.5701 29.4316C21.5703 27.536 22.7399 25.8945 24.4695 25.1143C24.9982 24.8758 25.4177 24.3661 25.4177 23.7432C25.4178 23.261 25.8095 22.8701 26.2917 22.8701H27.113Z" fill="url(#paint1_linear_3582_3245)"/>
</g>
<defs>
<linearGradient id="paint0_linear_3582_3245" x1="25.9445" y1="4.99009" x2="34.4679" y2="45.4273" gradientUnits="userSpaceOnUse">
<stop stop-color="#00A5E3"/>
<stop offset="0.5" stop-color="#373188"/>
<stop offset="1" stop-color="#FD0026"/>
</linearGradient>
<linearGradient id="paint1_linear_3582_3245" x1="26.6942" y1="24.603" x2="31.4762" y2="39.8908" gradientUnits="userSpaceOnUse">
<stop stop-color="#00A5E3"/>
<stop offset="0.5" stop-color="#373188"/>
<stop offset="1" stop-color="#FD0026"/>
</linearGradient>
</defs>
</svg>
