<svg width="52" height="52" viewBox="0 0 52 52" fill="none" xmlns="http://www.w3.org/2000/svg">
<g opacity="0.9">
<path d="M43.4922 0.290353C43.9127 0.198376 44.339 0.256608 44.6211 0.498361L44.6279 0.503244L44.6338 0.508126C44.9832 0.77022 45.1582 1.16304 45.1582 1.55695V39.3607C45.1581 39.9255 44.8145 40.4014 44.2422 40.5775L32.0273 44.0599L32.0166 44.0638C31.4498 44.2527 30.9226 44.4838 30.4365 44.7581C30.1531 44.9184 30.2829 45.3303 30.5879 45.3304H46.2803C46.9705 45.3302 47.5303 44.7707 47.5303 44.0804V7.6927C47.5303 6.95221 48.1405 6.38224 48.8398 6.38215C49.4878 6.38215 50.0334 6.87846 50.1357 7.52473L50.1504 7.65656V46.5364C50.1504 47.277 49.5392 47.846 48.8398 47.846H30.5879C29.8741 47.846 29.0513 47.9246 28.3721 48.2327C27.6782 48.5475 27.1285 49.1073 27.0117 50.0413L27.0098 50.057V50.3841L27.0029 50.5208C26.9335 51.1937 26.3559 51.6945 25.7002 51.6946C24.9597 51.6946 24.3896 51.0835 24.3896 50.3841V50.056L24.3877 50.0404C24.2707 49.1342 23.7358 48.5748 23.0498 48.2532C22.3772 47.9381 21.5538 47.846 20.8115 47.846H2.55957C1.81924 47.8458 1.25 47.2357 1.25 46.5364V8.83625C1.25012 8.09058 1.81393 7.5269 2.55957 7.52668C3.30003 7.52668 3.86999 8.13697 3.87012 8.83625V44.0804C3.87012 44.7707 4.42976 45.3304 5.12012 45.3304H20.916C21.554 45.3304 22.1635 45.4 22.7295 45.5247C23.5582 45.7074 24.4939 45.1343 24.4941 44.2181V13.8284C24.4941 11.8185 22.8742 10.1987 20.8643 10.1986H17.5879C16.842 10.1985 16.2783 9.6339 16.2783 8.88801C16.2786 8.14774 16.8887 7.5785 17.5879 7.57844H20.8643C21.9351 7.57849 22.9586 7.88609 23.8613 8.39485C24.5307 8.77212 25.4275 8.58514 25.8564 7.92902C27.1405 5.96497 29.1049 4.47273 31.4346 3.82551L31.4385 3.82453L43.4922 0.290353ZM42.6416 4.96223C42.6416 4.13185 41.8473 3.53214 41.0488 3.76008L32.1309 6.30793C29.7019 6.99477 27.7911 8.87336 27.0596 11.2825C27.025 11.3963 27.0098 11.5132 27.0098 11.6273V41.4163C27.0099 41.964 27.3497 42.3821 27.7783 42.5931C28.2049 42.803 28.7493 42.8245 29.2061 42.5599C29.8702 42.1751 30.5808 41.8619 31.3314 41.6285C31.3318 41.6283 31.3322 41.6284 31.3325 41.6287C31.3328 41.629 31.3333 41.6291 31.3337 41.629L41.7344 38.6634C42.2714 38.5103 42.6416 38.0196 42.6416 37.4613V4.96223Z" fill="url(#paint0_linear_3582_779)"/>
<path d="M12.6482 7.52637C13.3885 7.5265 13.9575 8.13682 13.9578 8.83594V19.8086C13.9577 20.2877 13.6977 20.7197 13.2644 20.9365L8.37573 23.3809C8.20288 23.4672 8.03339 23.5107 7.81226 23.5107C7.53213 23.5107 7.3192 23.4645 7.10815 23.3379L7.10132 23.334L6.96655 23.2451C6.67106 23.0166 6.49164 22.6364 6.44995 22.2334V8.83594C6.45019 8.09576 7.06046 7.5266 7.75952 7.52637H12.6482ZM10.2302 10.1465C9.58958 10.1465 9.07007 10.666 9.07007 11.3066V18.3027C9.07009 19.1592 9.96664 19.7199 10.7371 19.3457C11.1364 19.1516 11.3904 18.7468 11.3904 18.3027V11.3066C11.3904 10.6661 10.8707 10.1466 10.2302 10.1465Z" fill="url(#paint1_linear_3582_779)"/>
</g>
<defs>
<linearGradient id="paint0_linear_3582_779" x1="25.6637" y1="4.98928" x2="32.6994" y2="46.0138" gradientUnits="userSpaceOnUse">
<stop stop-color="#00A5E3"/>
<stop offset="0.5" stop-color="#373188"/>
<stop offset="1" stop-color="#FD0026"/>
</linearGradient>
<linearGradient id="paint1_linear_3582_779" x1="10.1981" y1="8.85965" x2="14.2416" y2="20.9037" gradientUnits="userSpaceOnUse">
<stop stop-color="#00A5E3"/>
<stop offset="0.5" stop-color="#373188"/>
<stop offset="1" stop-color="#FD0026"/>
</linearGradient>
</defs>
</svg>
