<svg width="52" height="52" viewBox="0 0 52 52" fill="none" xmlns="http://www.w3.org/2000/svg">
<g clip-path="url(#clip0_3582_3257)">
<g opacity="0.9">
<path d="M41.1318 0.353516C41.8722 0.353516 42.4422 0.963887 42.4424 1.66309C42.4424 2.80622 43.3686 3.73325 44.5117 3.7334H46.2803C49.2634 3.73355 51.7498 6.17095 51.75 9.20312V46.2793C51.75 49.3117 49.2636 51.7499 46.2803 51.75H5.71973C2.6874 51.7499 0.25 49.2626 0.25 46.2793V9.20312C0.250213 6.17095 2.73657 3.73355 5.71973 3.7334H7.43555C8.57878 3.7334 9.50586 2.80632 9.50586 1.66309C9.50608 0.91737 10.0706 0.353516 10.8164 0.353516C11.5566 0.353739 12.1257 0.964016 12.126 1.66309C12.126 2.80631 13.0531 3.7334 14.1963 3.7334H17.5244C18.6675 3.73317 19.5938 2.80618 19.5938 1.66309C19.594 0.91737 20.1585 0.353516 20.9043 0.353516C21.6445 0.353679 22.2136 0.963981 22.2139 1.66309C22.2139 2.80631 23.1409 3.7334 24.2842 3.7334H27.6641C28.8073 3.73336 29.7344 2.80629 29.7344 1.66309C29.7346 0.917388 30.2982 0.353543 31.0439 0.353516C31.7843 0.353516 32.3533 0.963888 32.3535 1.66309C32.3535 2.80626 33.2807 3.73331 34.4238 3.7334H37.752C38.8952 3.7334 39.8223 2.80632 39.8223 1.66309C39.8225 0.917424 40.3861 0.353597 41.1318 0.353516ZM5.77246 6.30176C4.17852 6.30176 2.87033 7.60923 2.87012 9.20312V46.2793C2.87012 47.8668 4.11937 49.1815 5.71973 49.1816H46.2275C47.7123 49.1816 48.9451 48.0467 49.1075 46.6029C49.1207 46.4855 49.1815 46.3721 49.1816 46.2539V9.20312C49.1814 7.60932 47.8741 6.30191 46.2803 6.30176H44.7197C43.5768 6.3019 42.6506 7.22815 42.6504 8.37109C42.6504 9.11702 42.0858 9.68164 41.3398 9.68164C40.5994 9.68156 40.0303 9.07042 40.0303 8.37109C40.03 7.22806 39.1031 6.30176 37.96 6.30176H34.5801C33.437 6.30176 32.51 7.22806 32.5098 8.37109C32.5098 9.11696 31.946 9.68154 31.2002 9.68164C30.4597 9.68164 29.8896 9.07047 29.8896 8.37109C29.8894 7.22816 28.9633 6.30193 27.8203 6.30176H24.4404C23.2973 6.30176 22.3703 7.22806 22.3701 8.37109C22.3701 9.11702 21.8055 9.68164 21.0596 9.68164C20.3192 9.68141 19.75 9.07034 19.75 8.37109C19.7498 7.22806 18.8228 6.30176 17.6797 6.30176H14.2998C13.1568 6.30186 12.2307 7.22812 12.2305 8.37109C12.2305 9.11702 11.6659 9.68164 10.9199 9.68164C10.1794 9.6816 9.61035 9.07045 9.61035 8.37109C9.61012 7.22807 8.68311 6.30178 7.54004 6.30176H5.77246Z" fill="url(#paint0_linear_3582_3257)"/>
<path d="M25.9995 14.8096C33.7653 14.8096 40.1018 21.1454 40.1021 28.9111C40.1021 36.6771 33.7654 43.0137 25.9995 43.0137C18.2338 43.0134 11.8979 36.6769 11.8979 28.9111C11.8982 21.1455 18.2339 14.8098 25.9995 14.8096ZM25.9995 17.3779C19.6218 17.3782 14.4665 22.5334 14.4663 28.9111C14.4663 35.2891 19.6216 40.4451 25.9995 40.4453C32.3776 40.4453 37.5337 35.2892 37.5337 28.9111C37.5335 22.5333 32.3774 17.3779 25.9995 17.3779Z" fill="url(#paint1_linear_3582_3257)"/>
<path d="M25.9995 21.3096C26.7399 21.3096 27.3098 21.9199 27.3101 22.6191V26.5488C27.3101 27.6947 27.7729 28.7919 28.5933 29.5918L29.4653 30.4424C29.9909 30.9701 29.9898 31.752 29.5073 32.2783L29.4995 32.2871C29.2973 32.5298 28.9595 32.666 28.6001 32.666C28.3444 32.666 28.0754 32.5692 27.8257 32.3896L27.7202 32.3076L25.0796 29.8213L25.0679 29.8115L24.9819 29.7295C24.7935 29.5243 24.6899 29.2256 24.6899 28.9111V22.6191C24.6902 21.879 25.3004 21.3098 25.9995 21.3096Z" fill="url(#paint2_linear_3582_3257)"/>
</g>
</g>
<defs>
<linearGradient id="paint0_linear_3582_3257" x1="25.9618" y1="5.08812" x2="32.6521" y2="46.1907" gradientUnits="userSpaceOnUse">
<stop stop-color="#00A5E3"/>
<stop offset="0.5" stop-color="#373188"/>
<stop offset="1" stop-color="#FD0026"/>
</linearGradient>
<linearGradient id="paint1_linear_3582_3257" x1="25.9789" y1="17.3166" x2="29.6863" y2="40.0483" gradientUnits="userSpaceOnUse">
<stop stop-color="#00A5E3"/>
<stop offset="0.5" stop-color="#373188"/>
<stop offset="1" stop-color="#FD0026"/>
</linearGradient>
<linearGradient id="paint2_linear_3582_3257" x1="27.2731" y1="22.1983" x2="30.2159" y2="30.8345" gradientUnits="userSpaceOnUse">
<stop stop-color="#00A5E3"/>
<stop offset="0.5" stop-color="#373188"/>
<stop offset="1" stop-color="#FD0026"/>
</linearGradient>
<clipPath id="clip0_3582_3257">
<rect width="52" height="52" fill="white"/>
</clipPath>
</defs>
</svg>
