<svg width="30" height="30" viewBox="0 0 30 30" fill="none" xmlns="http://www.w3.org/2000/svg">
<g clip-path="url(#clip0_4683_7708)">
<path d="M25.4734 0.416992H4.52675C2.25686 0.416992 0.416748 2.2571 0.416748 4.52699V25.4737C0.416748 27.7435 2.25686 29.5837 4.52675 29.5837H25.4734C27.7433 29.5837 29.5834 27.7436 29.5834 25.4737V4.52699C29.5834 2.2571 27.7433 0.416992 25.4734 0.416992Z" fill="url(#paint0_linear_4683_7708)"/>
<path d="M26.4734 0.416992H3.52675C1.80914 0.416992 0.416748 1.80939 0.416748 3.52699V26.4737C0.416748 28.1913 1.80914 29.5837 3.52675 29.5837H26.4734C28.191 29.5837 29.5834 28.1913 29.5834 26.4737V3.52699C29.5834 1.80939 28.191 0.416992 26.4734 0.416992Z" stroke="#08526D" stroke-linecap="round" stroke-linejoin="round"/>
<path d="M0.833496 5.41699H29.3454" stroke="#08526D" stroke-linecap="round" stroke-linejoin="round"/>
<path d="M24.2735 18.334H18.6435C17.7819 18.334 17.0835 19.0324 17.0835 19.894V24.274C17.0835 25.1355 17.7819 25.834 18.6435 25.834H24.2735C25.1351 25.834 25.8335 25.1355 25.8335 24.274V19.894C25.8335 19.0324 25.1351 18.334 24.2735 18.334Z" fill="white" stroke="#08526D" stroke-linecap="round" stroke-linejoin="round"/>
<path d="M23.9585 8.75H15.2085C14.173 8.75 13.3335 9.58947 13.3335 10.625C13.3335 11.6605 14.173 12.5 15.2085 12.5H23.9585C24.994 12.5 25.8335 11.6605 25.8335 10.625C25.8335 9.58947 24.994 8.75 23.9585 8.75Z" stroke="#08526D" stroke-linecap="round" stroke-linejoin="round"/>
<path d="M4.16675 25.9287H13.4882" stroke="#08526D" stroke-linecap="round" stroke-linejoin="round"/>
<path d="M4.16675 22.2861H13.4882" stroke="#08526D" stroke-linecap="round" stroke-linejoin="round"/>
<path d="M4.16675 18.5898H13.4882" stroke="#08526D" stroke-linecap="round" stroke-linejoin="round"/>
<path d="M6.89879 12.6071C7.96391 12.6071 8.82736 11.7437 8.82736 10.6786C8.82736 9.61345 7.96391 8.75 6.89879 8.75C5.83367 8.75 4.97021 9.61345 4.97021 10.6786C4.97021 11.7437 5.83367 12.6071 6.89879 12.6071Z" stroke="#08526D" stroke-linecap="round" stroke-linejoin="round"/>
<path d="M5.50603 12.0713L4.16675 13.4106" stroke="#08526D" stroke-linecap="round" stroke-linejoin="round"/>
</g>
<defs>
<linearGradient id="paint0_linear_4683_7708" x1="18.1823" y1="47.5157" x2="14.8741" y2="9.58103" gradientUnits="userSpaceOnUse">
<stop stop-color="#32B9E9"/>
<stop offset="0.961538" stop-color="#32B9E9" stop-opacity="0"/>
</linearGradient>
<clipPath id="clip0_4683_7708">
<rect width="30" height="30" fill="white"/>
</clipPath>
</defs>
</svg>
