<svg width="64" height="64" viewBox="0 0 64 64" fill="none" xmlns="http://www.w3.org/2000/svg">
<g id="icon/website" clip-path="url(#clip0_3502_4803)">
<g id="Group">
<g id="Group_2">
<g id="Group_3">
<path id="Vector" d="M31.9998 1.41406C44.0256 1.41406 54.4287 8.39221 59.4158 18.4736C59.8558 19.3632 59.1932 20.414 58.1228 20.4141H5.87769C4.80722 20.4141 4.14367 19.3633 4.58374 18.4736C9.57071 8.39217 19.974 1.41416 31.9998 1.41406Z" stroke="#08526D" class="id_anim_stroke-property0" data-duration="3.125" data-offset="0" style="stroke-dashoffset: 0px; stroke-dasharray: 0px, 125.869px; animation: 3.125s linear 0s 1 normal forwards running id_anim_stroke-property0;"></path>
<path id="Vector_2" d="M5.87769 43.5854H58.1228C59.1932 43.5855 59.8558 44.6363 59.4158 45.5259C54.4287 55.6073 44.0256 62.5854 31.9998 62.5854C19.974 62.5854 9.57071 55.6073 4.58374 45.5259C4.14367 44.6362 4.80722 43.5854 5.87769 43.5854Z" fill="url(#paint0_linear_3502_4803)" stroke="#08526D" class="id_anim_stroke-property1" data-duration="3.125" data-offset="0" style="stroke-dashoffset: 0px; stroke-dasharray: 0px, 125.869px; animation: 3.125s linear 0s 1 normal forwards running id_anim_stroke-property1;"></path>
</g>
<path id="Vector_3" d="M32 43.0854V63.0855" stroke="#08526D" stroke-width="2" stroke-linecap="round" stroke-linejoin="round" class="id_anim_stroke-property2" data-duration="3.125" data-offset="0" style="stroke-dashoffset: 0px; stroke-dasharray: 0px, 20.0001px; animation: 3.125s linear 0s 1 normal forwards running id_anim_stroke-property2;"></path>
<path id="Vector_4" d="M32 0.914062V20.9141" stroke="#08526D" stroke-width="2" stroke-linecap="round" stroke-linejoin="round" class="id_anim_stroke-property3" data-duration="3.125" data-offset="0" style="stroke-dashoffset: 0px; stroke-dasharray: 0px, 20px; animation: 3.125s linear 0s 1 normal forwards running id_anim_stroke-property3;"></path>
<path id="Vector_5" d="M12.4201 7.87141C11.8754 8.30866 11.9722 9.14881 12.6067 9.44085C17.4846 11.6862 24.3588 13.0283 32 13.0283C39.6444 13.0283 46.4252 11.685 51.3754 9.43802C52.015 9.14766 52.1164 8.30171 51.5684 7.86217C46.1424 3.51008 39.3707 0.914062 32 0.914062C24.624 0.914062 17.848 3.51375 12.4201 7.87141Z" stroke="#08526D" stroke-width="2" stroke-linecap="round" stroke-linejoin="round" class="id_anim_stroke-property4" data-duration="3.125" data-offset="0" style="stroke-dashoffset: 0px; stroke-dasharray: 0px, 85.8697px; animation: 3.125s linear 0s 1 normal forwards running id_anim_stroke-property4;"></path>
<path id="Vector_6" d="M12.6104 54.5689C11.9746 54.8572 11.8698 55.696 12.4107 56.1374C17.7438 60.4895 24.5224 63.0855 32 63.0855C39.4772 63.0855 46.1557 60.4897 51.5689 56.138C52.1164 55.6979 52.015 54.852 51.375 54.5624C46.4094 52.3148 39.5406 50.9712 32 50.9712C24.452 50.9712 17.5772 52.3175 12.6104 54.5689Z" stroke="#08526D" stroke-width="2" stroke-linecap="round" stroke-linejoin="round" class="id_anim_stroke-property5" data-duration="3.125" data-offset="0" style="stroke-dashoffset: 0px; stroke-dasharray: 0px, 85.8843px; animation: 3.125s linear 0s 1 normal forwards running id_anim_stroke-property5;"></path>
<g id="Group_4">
<path id="Vector_7" d="M44.4269 20.9141C45.6859 20.9141 46.6341 19.7622 46.3318 18.5401C43.7592 8.14071 38.2756 0.914062 32 0.914062C25.7244 0.914062 20.2408 8.14071 17.6682 18.5401C17.3659 19.7622 18.3141 20.9141 19.5731 20.9141H44.4269Z" stroke="#08526D" stroke-width="2" stroke-linecap="round" stroke-linejoin="round" class="id_anim_stroke-property6" data-duration="3.125" data-offset="0" style="stroke-dashoffset: 0px; stroke-dasharray: 0px, 80.4254px; animation: 3.125s linear 0s 1 normal forwards running id_anim_stroke-property6;"></path>
<path id="Vector_8" d="M19.5731 43.0854C18.3141 43.0854 17.3659 44.2373 17.6682 45.4594C20.2408 55.8588 25.7244 63.0855 32 63.0855C38.2756 63.0855 43.7592 55.8588 46.3318 45.4594C46.6341 44.2373 45.6859 43.0854 44.4269 43.0854H19.5731Z" stroke="#08526D" stroke-width="2" stroke-linecap="round" stroke-linejoin="round" class="id_anim_stroke-property7" data-duration="3.125" data-offset="0" style="stroke-dashoffset: 0px; stroke-dasharray: 0px, 80.4255px; animation: 3.125s linear 0s 1 normal forwards running id_anim_stroke-property7;"></path>
</g>
<g id="Group_5">
<path id="Vector_9" d="M59.5756 20.9141C60.2766 20.9141 60.7586 20.2115 60.4777 19.5693C55.6885 8.62061 44.7416 0.914062 32 0.914062C19.2584 0.914062 8.31157 8.62061 3.52229 19.5693C3.24138 20.2115 3.72345 20.9141 4.42439 20.9141H59.5756Z" stroke="#08526D" stroke-width="2" stroke-linecap="round" stroke-linejoin="round" class="id_anim_stroke-property8" data-duration="3.125" data-offset="0" style="stroke-dashoffset: 0px; stroke-dasharray: 0px, 131.043px; animation: 3.125s linear 0s 1 normal forwards running id_anim_stroke-property8;"></path>
<path id="Vector_10" d="M4.42439 43.0854C3.72345 43.0854 3.24138 43.788 3.52229 44.4302C8.31157 55.3789 19.2584 63.0855 32 63.0855C44.7416 63.0855 55.6885 55.3789 60.4777 44.4302C60.7586 43.788 60.2766 43.0854 59.5756 43.0854H4.42439Z" stroke="#08526D" stroke-width="2" stroke-linecap="round" stroke-linejoin="round" class="id_anim_stroke-property9" data-duration="3.125" data-offset="0" style="stroke-dashoffset: 0px; stroke-dasharray: 0px, 131.043px; animation: 3.125s linear 0s 1 normal forwards running id_anim_stroke-property9;"></path>
</g>
<g id="Group_6">
<path id="Vector_11" d="M64 26.6279H60L58.2857 31.7708L56.2286 26.6279H51.0857L49.1429 31.7708L47.4286 26.6279H43.3143L46.8571 37.3708H51.0857L53.7143 30.6279L56.2286 37.3708H60.4571L64 26.6279Z" fill="#08526D"></path>
</g>
<g id="Group_7">
<path id="Vector_12" d="M42.2857 26.7427H38.2857L36.5714 31.8855L34.6286 26.7427H29.3714L27.4286 31.8855L25.7143 26.7427H21.7143L25.2571 37.4855H29.3714L32 30.7427L34.6286 37.4855H38.7429L42.2857 26.7427Z" fill="#08526D"></path>
<path id="Vector_13" d="M32.3428 21.0286L32 20L31.6571 21.0286H32.3428Z" fill="#08526D"></path>
<path id="Vector_14" d="M27.0857 43.2002L27.2 43.4288V43.2002H27.0857Z" fill="#08526D"></path>
<path id="Vector_15" d="M36.8 43.2002V43.4288L36.9143 43.2002H36.8Z" fill="#08526D"></path>
</g>
<g id="Group_8">
<path id="Vector_16" d="M3.63965 27.1279L5.24023 31.9287L5.67188 33.2236L6.17871 31.9561L8.10938 27.1279H12.5684L14.3896 31.9473L14.8867 33.2637L15.3311 31.9287L16.9316 27.1279H19.9941L16.7812 36.8711H13.2559L10.752 30.4463L10.2754 29.2246L9.81738 30.4531L7.42383 36.8711H3.9043L0.691406 27.1279H3.63965Z" fill="#08526D" stroke="#08526D" class="id_anim_stroke-property15" data-duration="3.125" data-offset="0" style="stroke-dashoffset: 0px; stroke-dasharray: 0px, 80.4182px; animation: 3.125s linear 0s 1 normal forwards running id_anim_stroke-property15;"></path>
<g id="Vector_17">
<mask id="path-17-inside-1_3502_4803" fill="white">
<path d="M10.7429 20.9138L10.2857 19.8853L9.94287 20.9138H10.7429Z"></path>
</mask>
<path d="M10.7429 20.9138L10.2857 19.8853L9.94287 20.9138H10.7429Z" fill="#010F14"></path>
<path d="M10.7429 20.9138V21.9138H12.2816L11.6567 20.5077L10.7429 20.9138ZM10.2857 19.8853L11.1995 19.4791L10.1524 17.123L9.33705 19.569L10.2857 19.8853ZM9.94287 20.9138L8.99419 20.5976L8.55544 21.9138H9.94287V20.9138ZM10.7429 20.9138L11.6567 20.5077L11.1995 19.4791L10.2857 19.8853L9.37192 20.2914L9.82906 21.32L10.7429 20.9138ZM10.2857 19.8853L9.33705 19.569L8.99419 20.5976L9.94287 20.9138L10.8916 21.2301L11.2344 20.2015L10.2857 19.8853ZM9.94287 20.9138V21.9138H10.7429V20.9138V19.9138H9.94287V20.9138Z" fill="#08526D" mask="url(#path-17-inside-1_3502_4803)"></path>
</g>
<g id="Vector_18">
<mask id="path-19-inside-2_3502_4803" fill="white">
<path d="M15.0857 43.0854L15.2 43.314V43.0854H15.0857Z"></path>
</mask>
<path d="M15.0857 43.0854L15.2 43.314V43.0854H15.0857Z" fill="#010F14"></path>
<path d="M15.0857 43.0854V42.0854H13.4677L14.1913 43.5327L15.0857 43.0854ZM15.2 43.314L14.3056 43.7612L16.2 43.314H15.2ZM15.2 43.0854H16.2V42.0854H15.2V43.0854ZM15.0857 43.0854L14.1913 43.5327L14.3056 43.7612L15.2 43.314L16.0944 42.8668L15.9802 42.6382L15.0857 43.0854ZM15.2 43.314H16.2V43.0854H15.2H14.2V43.314H15.2ZM15.2 43.0854V42.0854H15.0857V43.0854V44.0854H15.2V43.0854Z" fill="#08526D" mask="url(#path-19-inside-2_3502_4803)"></path>
</g>
<g id="Vector_19">
<mask id="path-21-inside-3_3502_4803" fill="white">
<path d="M5.48572 43.0854V43.314L5.6 43.0854H5.48572Z"></path>
</mask>
<path d="M5.48572 43.0854V43.314L5.6 43.0854H5.48572Z" fill="#010F14"></path>
<path d="M5.48572 43.0854V42.0854H4.48572V43.0854H5.48572ZM5.48572 43.314H4.48572L6.38015 43.7612L5.48572 43.314ZM5.6 43.0854L6.49443 43.5327L7.21803 42.0854H5.6V43.0854ZM5.48572 43.0854H4.48572V43.314H5.48572H6.48572V43.0854H5.48572ZM5.48572 43.314L6.38015 43.7612L6.49443 43.5327L5.6 43.0854L4.70558 42.6382L4.59129 42.8668L5.48572 43.314ZM5.6 43.0854V42.0854H5.48572V43.0854V44.0854H5.6V43.0854Z" fill="#08526D" mask="url(#path-21-inside-3_3502_4803)"></path>
</g>
</g>
</g>
</g>
</g>
<defs>
<linearGradient id="paint0_linear_3502_4803" x1="32" y1="69.5" x2="32" y2="34.4528" gradientUnits="userSpaceOnUse">
<stop stop-color="#32B9E9"></stop>
<stop offset="0.6875" stop-color="#32B9E9" stop-opacity="0"></stop>
</linearGradient>
<clipPath id="clip0_3502_4803">
<rect width="64" height="64" fill="white"></rect>
</clipPath>
</defs>
<style>
        @keyframes id_anim_stroke-property0{
        
            0%{
                stroke-dashoffset: 0px; 
        stroke-dasharray: 0px, 125.86893463134766px;
            }
        
            50%{
                stroke-dashoffset: -62.93446731567383px; 
        stroke-dasharray: 62.93446731567383px, 62.93446731567383px;
            }
        
            100%{
                stroke-dashoffset: -125.86893463134766px; 
        stroke-dasharray: 125.86893463134766px, 0px;
            }
        
        }
         
        @keyframes id_anim_stroke-property1{
        
            0%{
                stroke-dashoffset: 0px; 
        stroke-dasharray: 0px, 125.8689193725586px;
            }
        
            50%{
                stroke-dashoffset: -62.9344596862793px; 
        stroke-dasharray: 62.9344596862793px, 62.9344596862793px;
            }
        
            100%{
                stroke-dashoffset: -125.8689193725586px; 
        stroke-dasharray: 125.8689193725586px, 0px;
            }
        
        }
         
        @keyframes id_anim_stroke-property2{
        
            0%{
                stroke-dashoffset: 0px; 
        stroke-dasharray: 0px, 20.000099182128906px;
            }
        
            50%{
                stroke-dashoffset: -10.000049591064453px; 
        stroke-dasharray: 10.000049591064453px, 10.000049591064453px;
            }
        
            100%{
                stroke-dashoffset: -20.000099182128906px; 
        stroke-dasharray: 20.000099182128906px, 0px;
            }
        
        }
         
        @keyframes id_anim_stroke-property3{
        
            0%{
                stroke-dashoffset: 0px; 
        stroke-dasharray: 0px, 20.000038146972656px;
            }
        
            50%{
                stroke-dashoffset: -10.000019073486328px; 
        stroke-dasharray: 10.000019073486328px, 10.000019073486328px;
            }
        
            100%{
                stroke-dashoffset: -20.000038146972656px; 
        stroke-dasharray: 20.000038146972656px, 0px;
            }
        
        }
         
        @keyframes id_anim_stroke-property4{
        
            0%{
                stroke-dashoffset: 0px; 
        stroke-dasharray: 0px, 85.86970520019531px;
            }
        
            50%{
                stroke-dashoffset: -42.934852600097656px; 
        stroke-dasharray: 42.934852600097656px, 42.934852600097656px;
            }
        
            100%{
                stroke-dashoffset: -85.86970520019531px; 
        stroke-dasharray: 85.86970520019531px, 0px;
            }
        
        }
         
        @keyframes id_anim_stroke-property5{
        
            0%{
                stroke-dashoffset: 0px; 
        stroke-dasharray: 0px, 85.8843002319336px;
            }
        
            50%{
                stroke-dashoffset: -42.9421501159668px; 
        stroke-dasharray: 42.9421501159668px, 42.9421501159668px;
            }
        
            100%{
                stroke-dashoffset: -85.8843002319336px; 
        stroke-dasharray: 85.8843002319336px, 0px;
            }
        
        }
         
        @keyframes id_anim_stroke-property6{
        
            0%{
                stroke-dashoffset: 0px; 
        stroke-dasharray: 0px, 80.42538452148438px;
            }
        
            50%{
                stroke-dashoffset: -40.21269226074219px; 
        stroke-dasharray: 40.21269226074219px, 40.21269226074219px;
            }
        
            100%{
                stroke-dashoffset: -80.42538452148438px; 
        stroke-dasharray: 80.42538452148438px, 0px;
            }
        
        }
         
        @keyframes id_anim_stroke-property7{
        
            0%{
                stroke-dashoffset: 0px; 
        stroke-dasharray: 0px, 80.42548370361328px;
            }
        
            50%{
                stroke-dashoffset: -40.21274185180664px; 
        stroke-dasharray: 40.21274185180664px, 40.21274185180664px;
            }
        
            100%{
                stroke-dashoffset: -80.42548370361328px; 
        stroke-dasharray: 80.42548370361328px, 0px;
            }
        
        }
         
        @keyframes id_anim_stroke-property8{
        
            0%{
                stroke-dashoffset: 0px; 
        stroke-dasharray: 0px, 131.04330444335938px;
            }
        
            50%{
                stroke-dashoffset: -65.52165222167969px; 
        stroke-dasharray: 65.52165222167969px, 65.52165222167969px;
            }
        
            100%{
                stroke-dashoffset: -131.04330444335938px; 
        stroke-dasharray: 131.04330444335938px, 0px;
            }
        
        }
         
        @keyframes id_anim_stroke-property9{
        
            0%{
                stroke-dashoffset: 0px; 
        stroke-dasharray: 0px, 131.0434112548828px;
            }
        
            50%{
                stroke-dashoffset: -65.5217056274414px; 
        stroke-dasharray: 65.5217056274414px, 65.5217056274414px;
            }
        
            100%{
                stroke-dashoffset: -131.0434112548828px; 
        stroke-dasharray: 131.0434112548828px, 0px;
            }
        
        }
         
        @keyframes id_anim_stroke-property15{
        
            0%{
                stroke-dashoffset: 0px; 
        stroke-dasharray: 0px, 80.41815185546875px;
            }
        
            50%{
                stroke-dashoffset: -40.209075927734375px; 
        stroke-dasharray: 40.209075927734375px, 40.209075927734375px;
            }
        
            100%{
                stroke-dashoffset: -80.41815185546875px; 
        stroke-dasharray: 80.41815185546875px, 0px;
            }
        
        }
        </style></svg>
