<svg width="103" height="100" viewBox="0 0 103 100" fill="none" xmlns="http://www.w3.org/2000/svg">
<g clip-path="url(#clip0_4262_7641)">
<path d="M31.207 46.0182C31.207 46.0182 36.0884 53.3225 49.6719 53.3225C63.2552 53.3225 70.8957 43.7223 70.8957 34.9569C70.8957 26.1916 63.7988 21.1048 62.9499 20.2698L61.3184 23.0873L54.732 14.2827H66.3324L64.9794 16.9828C64.9794 16.9828 80.8176 24.2612 80.8176 40.2267C80.8176 56.1921 66.8096 66.523 53.1202 66.523C48.9816 66.523 42.2962 64.8012 41.1821 64.0184C41.1821 64.0184 48.5838 64.6832 50.494 64.6832C61.7956 64.6832 78.1116 55.2531 78.1116 40.4614C78.1116 34.5917 74.2915 23.322 63.1488 17.5305L64.5614 15.2805L56.994 15.2349L61.2384 20.9741L62.5121 18.861C62.5121 18.861 73.8136 24.2611 73.8136 36.5484C73.8136 48.8356 61.3978 56.505 52.3243 56.505C43.2516 56.5052 35.5583 53.0617 31.207 46.0182Z" fill="white"/>
<path d="M32.9052 45.3921C32.9052 45.3921 26.0606 15.0263 22.0811 6.88712L66.0146 0L67.0492 3.83481L65.0596 0.730513L25.7954 8.03494C25.7954 8.03494 33.5419 27.4439 32.9052 45.3921Z" fill="white"/>
<path d="M54.0313 10.963C54.2135 12.2436 53.2883 13.4292 51.9653 13.6114L34.8119 15.9731C33.4891 16.1556 32.2685 15.265 32.0864 13.9846C31.9042 12.7039 32.8288 11.5181 34.1517 11.3359L51.305 8.97434C52.6281 8.7921 53.8489 9.68242 54.0313 10.963Z" fill="#568AD8"/>
<path d="M56.6826 22.5312C56.8411 23.6465 55.9288 24.6938 54.6456 24.8705L38.0053 27.1617C36.7219 27.3386 35.553 26.5775 35.3939 25.4622C35.2353 24.3469 36.1468 23.2994 37.4302 23.1226L54.0703 20.8317C55.3536 20.6548 56.523 21.4157 56.6826 22.5312Z" fill="#9EBCE8"/>
<path d="M57.9561 29.4185C58.1145 30.5338 57.2022 31.5811 55.9191 31.7578L39.2788 34.0492C37.9954 34.2259 36.8266 33.4647 36.6673 32.3494C36.5087 31.2341 37.4202 30.1866 38.7037 30.0099L55.3437 27.7189C56.627 27.5421 57.797 28.303 57.9561 29.4185Z" fill="#568AD8"/>
<path d="M59.2294 36.8275C59.3878 37.9426 58.4758 38.9899 57.1923 39.1668L40.5522 41.4581C39.2688 41.6349 38.0998 40.8735 37.9408 39.7584C37.7822 38.6431 38.6937 37.5954 39.9772 37.4188L56.6172 35.1275C57.9006 34.951 59.0703 35.712 59.2294 36.8275Z" fill="#F3F4F5"/>
<path d="M6.3357 86.4657C9.12846 86.7208 10.5448 88.2702 10.5448 90.3888C10.5448 92.7035 8.80929 94.5862 5.2585 94.5862C3.26369 94.5862 1.30878 93.9587 0.131836 92.9189L1.04945 91.3696C1.98701 92.2324 3.54296 92.8407 5.2585 92.8407C7.35308 92.8407 8.54996 91.899 8.54996 90.4087C8.54996 88.9567 7.49271 88.0151 5.09891 88.0151H3.98182V86.642L7.49271 82.4054H0.770177V80.699H9.98623V82.0324L6.3357 86.4657ZM18.3876 86.0933C21.1604 86.0933 23.1752 87.7208 23.1752 90.2516C23.1752 92.8997 21.0008 94.5862 18.2281 94.5862C14.4778 94.5862 12.3633 92.1151 12.3633 87.7407C12.3633 83.0529 15.0563 80.542 18.9661 80.542C20.2827 80.542 21.5394 80.7971 22.4371 81.3458L21.6791 82.876C20.9609 82.4055 20.0034 82.2285 19.006 82.2285C16.1734 82.2285 14.3581 83.9747 14.3581 87.4074C14.3581 87.5644 14.3581 87.7208 14.3781 87.8978C15.176 86.7208 16.6522 86.0933 18.3876 86.0933ZM18.1483 92.9978C19.9635 92.9978 21.2402 91.958 21.2402 90.3298C21.2402 88.7215 20.0034 87.6817 18.0485 87.6817C16.1534 87.6817 14.8369 88.8394 14.8369 90.3497C14.8369 91.7619 15.9939 92.9978 18.1483 92.9978ZM30.3383 94.5862C27.0668 94.5862 24.6332 92.0362 24.6332 87.5644C24.6332 83.092 27.0668 80.542 30.3383 80.542C33.5899 80.542 36.0235 83.092 36.0235 87.5644C36.0235 92.0362 33.5899 94.5862 30.3383 94.5862ZM30.3383 92.8407C32.5127 92.8407 34.0287 91.0753 34.0287 87.5644C34.0287 84.0529 32.5127 82.2875 30.3383 82.2875C28.144 82.2875 26.628 84.0529 26.628 87.5644C26.628 91.0753 28.144 92.8407 30.3383 92.8407ZM55.8588 94.4298H53.6845L50.6723 90.2125C50.3931 90.2317 50.0938 90.2516 49.7946 90.2516H46.3436V94.4298H44.3488V80.699H49.7946C53.4252 80.699 55.6195 82.5035 55.6195 85.4849C55.6195 87.6035 54.5024 89.1337 52.5475 89.8202L55.8588 94.4298ZM49.7348 88.5843C52.2881 88.5843 53.6247 87.4465 53.6247 85.4849C53.6247 83.5234 52.2881 82.4054 49.7348 82.4054H46.3436V88.5843H49.7348ZM63.0494 94.5471C59.8777 94.5471 57.5437 92.3304 57.5437 89.2317C57.5437 86.1324 59.8777 83.9356 63.0494 83.9356C66.2214 83.9356 68.535 86.1324 68.535 89.2317C68.535 92.3304 66.2214 94.5471 63.0494 94.5471ZM63.0494 92.8997C65.0841 92.8997 66.6002 91.4478 66.6002 89.2317C66.6002 87.0151 65.0841 85.583 63.0494 85.583C61.0147 85.583 59.4787 87.0151 59.4787 89.2317C59.4787 91.4478 61.0147 92.8997 63.0494 92.8997ZM79.0808 84.0337H80.9961V94.4298H79.1805V92.8606C78.4028 93.9394 77.086 94.5471 75.5899 94.5471C72.8571 94.5471 71.0422 93.076 71.0422 90.0163V84.0337H72.9568V89.8003C72.9568 91.8401 73.994 92.8606 75.8095 92.8606C77.8044 92.8606 79.0808 91.6439 79.0808 89.408V84.0337ZM89.946 92.4683L90.5444 93.8215C89.9655 94.3119 89.0881 94.5471 88.2302 94.5471C86.0958 94.5471 84.8788 93.3901 84.8788 91.2913V85.583H83.0834V84.0337H84.8788V81.758H86.794V84.0337H89.826V85.583H86.794V91.2125C86.794 92.3305 87.3925 92.9587 88.4499 92.9587C89.0085 92.9587 89.547 92.7817 89.946 92.4683ZM102.022 89.2901C102.022 89.4471 102.002 89.6824 101.982 89.8593H93.4043C93.6442 91.6837 95.1403 92.8997 97.2348 92.8997C98.4715 92.8997 99.5087 92.4875 100.286 91.6439L101.344 92.8606C100.386 93.9587 98.9304 94.5471 97.1749 94.5471C93.7635 94.5471 91.4897 92.3304 91.4897 89.2317C91.4897 86.1516 93.7439 83.9356 96.7955 83.9356C99.8477 83.9356 102.022 86.0933 102.022 89.2901ZM96.7955 85.524C94.9604 85.524 93.6038 86.7401 93.4043 88.5055H100.187C99.9872 86.7599 98.6508 85.524 96.7955 85.524Z" fill="white"/>
</g>
<defs>
<clipPath id="clip0_4262_7641">
<rect width="103" height="100" fill="white"/>
</clipPath>
</defs>
</svg>
