<svg width="28" height="28" viewBox="0 0 28 28" fill="none" xmlns="http://www.w3.org/2000/svg">
<mask id="mask0_4268_7736" style="mask-type:alpha" maskUnits="userSpaceOnUse" x="0" y="0" width="28" height="28">
<rect width="28" height="28" fill="#D9D9D9"/>
</mask>
<g mask="url(#mask0_4268_7736)">
<path d="M7.00033 18.6663C6.35866 18.6663 5.80935 18.4379 5.35241 17.9809C4.89546 17.524 4.66699 16.9747 4.66699 16.333C4.66699 15.6913 4.89546 15.142 5.35241 14.6851C5.80935 14.2281 6.35866 13.9997 7.00033 13.9997C7.64199 13.9997 8.1913 14.2281 8.64824 14.6851C9.10519 15.142 9.33366 15.6913 9.33366 16.333C9.33366 16.9747 9.10519 17.524 8.64824 17.9809C8.1913 18.4379 7.64199 18.6663 7.00033 18.6663ZM21.0003 18.6663C20.3587 18.6663 19.8094 18.4379 19.3524 17.9809C18.8955 17.524 18.667 16.9747 18.667 16.333C18.667 15.6913 18.8955 15.142 19.3524 14.6851C19.8094 14.2281 20.3587 13.9997 21.0003 13.9997C21.642 13.9997 22.1913 14.2281 22.6482 14.6851C23.1052 15.142 23.3337 15.6913 23.3337 16.333C23.3337 16.9747 23.1052 17.524 22.6482 17.9809C22.1913 18.4379 21.642 18.6663 21.0003 18.6663ZM14.0003 17.4997C13.1837 17.4997 12.4934 17.2177 11.9295 16.6538C11.3656 16.09 11.0837 15.3997 11.0837 14.583C11.0837 13.7663 11.3656 13.0761 11.9295 12.5122C12.4934 11.9483 13.1837 11.6663 14.0003 11.6663C14.817 11.6663 15.5073 11.9483 16.0712 12.5122C16.635 13.0761 16.917 13.7663 16.917 14.583C16.917 15.3997 16.635 16.09 16.0712 16.6538C15.5073 17.2177 14.817 17.4997 14.0003 17.4997ZM8.28366 24.4997C8.55588 23.158 9.22185 22.0448 10.2816 21.1601C11.3413 20.2754 12.5809 19.833 14.0003 19.833C15.4198 19.833 16.6594 20.2754 17.7191 21.1601C18.7788 22.0448 19.4448 23.158 19.717 24.4997H8.28366ZM2.33366 24.4997C2.33366 23.2163 2.7906 22.1177 3.70449 21.2038C4.61838 20.29 5.71699 19.833 7.00033 19.833C7.33088 19.833 7.64199 19.8622 7.93366 19.9205C8.22533 19.9788 8.50727 20.0663 8.77949 20.183C8.19616 20.7469 7.71005 21.3934 7.32116 22.1226C6.93227 22.8518 6.66977 23.6441 6.53366 24.4997H2.33366ZM21.467 24.4997C21.3309 23.6441 21.0684 22.8518 20.6795 22.1226C20.2906 21.3934 19.8045 20.7469 19.2212 20.183C19.4934 20.0663 19.7753 19.9788 20.067 19.9205C20.3587 19.8622 20.6698 19.833 21.0003 19.833C22.2837 19.833 23.3823 20.29 24.2962 21.2038C25.21 22.1177 25.667 23.2163 25.667 24.4997H21.467ZM2.56699 13.9997L1.16699 12.133L14.0003 2.33301L18.667 5.89134V3.49967H22.167V8.57467L26.8337 12.133L25.4337 13.9997L14.0003 5.27884L2.56699 13.9997Z" fill="#010F14"/>
</g>
</svg>
