<svg width="28" height="28" viewBox="0 0 28 28" fill="none" xmlns="http://www.w3.org/2000/svg">
<path d="M14 5C9.03745 5 5 9.03745 5 14C5 18.9625 9.03745 23 14 23C18.9625 23 23 18.9625 23 14C23 9.03745 18.9625 5 14 5ZM20.1875 18.1538H18.2309C18.1702 18.1537 18.1107 18.1376 18.0582 18.1073C18.0058 18.0769 17.9622 18.0333 17.9319 17.9808L17.2335 16.7831C17.1875 16.7048 17.1742 16.6115 17.1963 16.5235L17.8393 13.9308C17.8522 13.8785 17.8771 13.83 17.912 13.7891C17.9469 13.7481 17.9909 13.7159 18.0405 13.695L19.2563 13.18C19.3158 13.1549 19.381 13.1468 19.4448 13.1567C19.5086 13.1666 19.5683 13.1942 19.6172 13.2363L21.4185 14.7862C21.4629 14.8244 21.4969 14.8733 21.5172 14.9283C21.5376 14.9832 21.5437 15.0424 21.5349 15.1003C21.3857 16.1238 21.0282 17.1058 20.4843 17.9855C20.4536 18.0368 20.4101 18.0793 20.3581 18.1088C20.3061 18.1383 20.2473 18.1538 20.1875 18.1538ZM8.74365 13.1835L9.95952 13.6984C10.0091 13.7194 10.0531 13.7516 10.088 13.7925C10.1229 13.8335 10.1478 13.882 10.1607 13.9342L10.8037 16.5269C10.8258 16.615 10.8125 16.7082 10.7665 16.7865L10.0681 17.9808C10.0378 18.0333 9.99424 18.0769 9.94177 18.1073C9.88929 18.1376 9.82976 18.1537 9.76913 18.1538H7.8125C7.75332 18.1539 7.69512 18.1387 7.64346 18.1099C7.5918 18.081 7.5484 18.0394 7.5174 17.989C6.97357 17.1092 6.61601 16.1273 6.46683 15.1038C6.45806 15.0459 6.46413 14.9867 6.48449 14.9317C6.50485 14.8768 6.53882 14.8279 6.58322 14.7897L8.38452 13.2398C8.43328 13.198 8.49269 13.1706 8.55611 13.1607C8.61953 13.1508 8.68446 13.1587 8.74365 13.1835ZM19.8612 9.4087L19.0794 11.6319C19.0637 11.6773 19.0387 11.719 19.006 11.7542C18.9732 11.7894 18.9336 11.8175 18.8894 11.8365L17.6095 12.3787C17.5508 12.4036 17.4863 12.4117 17.4233 12.4022C17.3602 12.3928 17.301 12.366 17.2521 12.325L14.8178 10.2832C14.7789 10.251 14.7475 10.2107 14.7258 10.1651C14.7042 10.1195 14.6927 10.0697 14.6923 10.0192V8.56625C14.6923 8.50932 14.7064 8.45328 14.7333 8.40309C14.7602 8.3529 14.799 8.31011 14.8463 8.27851L16.6996 7.04361C16.7479 7.01132 16.8036 6.99175 16.8616 6.98668C16.9195 6.98161 16.9778 6.99122 17.031 7.01462C18.0974 7.47968 19.0437 8.18169 19.7981 9.06731C19.8377 9.11361 19.8645 9.16956 19.8756 9.22951C19.8867 9.28946 19.8817 9.35127 19.8612 9.4087ZM11.3 7.04361L13.1537 8.27851C13.201 8.31011 13.2398 8.3529 13.2667 8.40309C13.2936 8.45328 13.3077 8.50932 13.3077 8.56625V10.0192C13.3077 10.0698 13.2966 10.1197 13.2752 10.1656C13.2539 10.2114 13.2227 10.252 13.1839 10.2845L10.7496 12.3263C10.7008 12.3673 10.6415 12.3941 10.5785 12.4035C10.5154 12.413 10.4509 12.4048 10.3922 12.38L9.11058 11.8365C9.06616 11.8177 9.02617 11.7898 8.99316 11.7547C8.96015 11.7195 8.93485 11.6778 8.91889 11.6323L8.13702 9.40913C8.1167 9.3515 8.112 9.28951 8.1234 9.22947C8.1348 9.16944 8.16189 9.11348 8.20192 9.06731C8.95673 8.1808 9.90384 7.47816 10.9712 7.01288C11.0242 6.9902 11.082 6.98113 11.1395 6.9865C11.1969 6.99186 11.2521 7.01149 11.3 7.04361ZM12.049 21.2125L11.1953 19.0625C11.1758 19.0136 11.1676 18.9609 11.1715 18.9085C11.1754 18.856 11.1913 18.8051 11.2178 18.7596L11.8742 17.6346C11.9045 17.5821 11.9481 17.5385 12.0005 17.5081C12.053 17.4777 12.1125 17.4617 12.1732 17.4615H15.8268C15.8875 17.4617 15.947 17.4777 15.9995 17.5081C16.0519 17.5385 16.0955 17.5821 16.1258 17.6346L16.7826 18.7596C16.8092 18.805 16.8251 18.8559 16.8291 18.9084C16.8331 18.9609 16.825 19.0136 16.8056 19.0625L15.9579 21.2117C15.9372 21.2642 15.9039 21.3109 15.861 21.3476C15.8181 21.3844 15.7668 21.41 15.7117 21.4224C14.5869 21.6805 13.4183 21.6805 12.2935 21.4224C12.2388 21.4099 12.1879 21.3842 12.1453 21.3477C12.1027 21.3111 12.0697 21.2647 12.049 21.2125Z" fill="#323A3E"/>
</svg>
