<svg width="570" height="556" viewBox="0 0 570 556" fill="none" xmlns="http://www.w3.org/2000/svg">
<path d="M210.336 117.274C228.291 99.3194 228.291 70.2089 210.336 52.254C192.381 34.2992 163.27 34.2992 145.316 52.254C127.361 70.2089 127.361 99.3194 145.316 117.274C163.27 135.229 192.381 135.229 210.336 117.274Z" stroke="white" stroke-width="0.57141" stroke-miterlimit="10"/>
<path opacity="0.5" d="M262.264 84.7613C262.264 131.391 224.463 169.192 177.833 169.192C131.203 169.192 93.4014 131.391 93.4014 84.7613C93.4014 38.1315 131.202 0.330078 177.833 0.330078C224.462 0.330078 262.264 38.1315 262.264 84.7613Z" stroke="white" stroke-width="0.66045" stroke-miterlimit="10"/>
<path d="M126.278 150.083C126.319 147.278 121.912 147.278 121.953 150.083C121.912 152.888 126.319 152.888 126.278 150.083Z" fill="#F3645B"/>
<path d="M221.647 32.6442C221.688 29.8393 217.281 29.8393 217.322 32.6442C217.281 35.4498 221.688 35.4498 221.647 32.6442Z" fill="white"/>
<path d="M90.5942 42.9929C90.6355 40.1873 86.2283 40.1873 86.2703 42.9929C86.229 45.7978 90.6355 45.7978 90.5942 42.9929Z" fill="#FFD601"/>
<path d="M134.018 87.9501C134.06 85.1452 129.652 85.1445 129.694 87.9501C129.653 90.7557 134.06 90.7557 134.018 87.9501Z" fill="#8DFACE"/>
<path d="M466.083 13.2407C461.343 8.20841 454.652 6.8133 451.137 10.1243C447.621 13.4353 448.614 20.1987 453.353 25.2303C458.093 30.2626 464.784 31.6577 468.299 28.3467C471.815 25.0357 470.822 18.2723 466.083 13.2407Z" fill="url(#paint0_linear_1476_1689)"/>
<path d="M453.353 25.2305C458.093 30.2628 464.784 31.6579 468.3 28.3469L466.267 30.2614C462.751 33.5724 456.059 32.1773 451.32 27.145C446.581 22.1127 445.589 15.3493 449.103 12.039L451.136 10.1245C447.622 13.4355 448.613 20.1989 453.353 25.2305Z" fill="url(#paint1_linear_1476_1689)"/>
<path d="M464.551 14.6841C460.952 10.8635 455.872 9.80444 453.203 12.3181C450.534 14.8318 451.287 19.967 454.885 23.7876C458.484 27.6082 463.565 28.6673 466.234 26.1536C468.903 23.6392 468.149 18.5047 464.551 14.6841Z" fill="url(#paint2_linear_1476_1689)"/>
<path d="M461.638 24.837L461.108 23.5784L459.722 23.5483C459.418 23.5413 459.11 23.4503 458.796 23.2739C458.482 23.0975 458.193 22.8623 457.93 22.5676C457.667 22.2736 457.463 21.9551 457.319 21.6128L456.552 19.7893C456.416 19.4645 456.358 19.1642 456.377 18.8884C456.397 18.6133 456.493 18.3928 456.662 18.2262C456.832 18.0603 457.072 17.9812 457.383 17.9875L458.77 18.0176L458.046 16.297L456.714 16.2683L457.032 17.0257L455.375 16.9893L455.03 16.1675C454.878 15.8084 454.811 15.4863 454.827 15.2021C454.844 14.9186 454.939 14.6961 455.11 14.5337C455.282 14.372 455.523 14.295 455.834 14.3013L457.221 14.3314L456.692 13.0728L458.35 13.1092L458.879 14.3678L460.277 14.3979C460.588 14.4049 460.899 14.4938 461.211 14.666C461.523 14.8389 461.808 15.0692 462.066 15.359C462.324 15.6488 462.528 15.9736 462.679 16.3327L463.446 18.1561C463.601 18.5243 463.67 18.8527 463.651 19.1404C463.633 19.4288 463.537 19.6535 463.366 19.8152C463.194 19.9769 462.956 20.0546 462.653 20.0476L461.267 20.0175L461.952 21.6478L463.285 21.6771L462.972 20.9324L464.629 20.9681L464.97 21.7766C465.114 22.1189 465.178 22.4346 465.164 22.7223C465.149 23.0107 465.056 23.2375 464.886 23.4034C464.716 23.5693 464.476 23.6491 464.165 23.6421L462.767 23.6112L463.297 24.8699L461.638 24.837ZM461.772 18.0848L461.049 16.3642L459.716 16.3348L460.439 18.0554L461.772 18.0848ZM459.597 19.9839L458.264 19.9552L458.95 21.5855L460.282 21.6142L459.597 19.9839Z" fill="url(#paint3_linear_1476_1689)"/>
<path d="M468.316 171.922C478.536 161.071 492.965 158.062 500.546 165.202C508.126 172.341 505.986 186.925 495.766 197.776C485.546 208.627 471.116 211.635 463.536 204.496C455.956 197.356 458.096 182.772 468.316 171.922Z" fill="url(#paint4_linear_1476_1689)"/>
<path d="M495.766 197.776C485.546 208.627 471.116 211.635 463.536 204.496L467.919 208.624C475.499 215.764 489.929 212.755 500.149 201.904C510.369 191.054 512.509 176.47 504.929 169.33L500.546 165.202C508.126 172.342 505.986 186.925 495.766 197.776Z" fill="url(#paint5_linear_1476_1689)"/>
<path d="M471.62 175.034C479.379 166.796 490.335 164.511 496.091 169.932C501.846 175.353 500.221 186.426 492.462 194.664C484.702 202.903 473.746 205.187 467.991 199.766C462.236 194.345 463.86 183.272 471.62 175.034Z" fill="url(#paint6_linear_1476_1689)"/>
<path d="M474.326 197.006L475.467 194.292L472.453 194.358C471.783 194.373 471.265 194.202 470.898 193.843C470.531 193.486 470.332 192.996 470.301 192.375C470.268 191.754 470.408 191.074 470.719 190.335L471.453 188.591L475.026 188.514L474.352 190.119L477.225 190.057L478.703 186.541L475.713 186.606C475.059 186.62 474.547 186.453 474.176 186.104C473.806 185.755 473.6 185.271 473.561 184.649C473.521 184.029 473.668 183.321 474.002 182.527L475.656 178.595C475.981 177.82 476.423 177.12 476.978 176.495C477.534 175.871 478.148 175.373 478.822 175.001C479.494 174.63 480.166 174.437 480.836 174.422L483.85 174.357L484.991 171.643L488.565 171.565L487.425 174.278L490.414 174.214C491.084 174.199 491.604 174.367 491.975 174.715C492.344 175.064 492.548 175.544 492.585 176.156C492.619 176.768 492.475 177.461 492.149 178.237L491.404 180.009L487.83 180.087L488.517 178.453L485.644 178.515L484.084 182.226L487.073 182.161C487.743 182.146 488.261 182.318 488.628 182.675C488.994 183.034 489.199 183.509 489.243 184.103C489.286 184.697 489.161 185.344 488.866 186.045L487.214 189.976C486.904 190.715 486.463 191.402 485.897 192.036C485.329 192.67 484.706 193.178 484.03 193.558C483.352 193.939 482.688 194.136 482.033 194.15L479.043 194.215L477.903 196.928L474.326 197.006ZM480.485 182.304L482.045 178.593L479.171 178.656L477.611 182.367L480.485 182.304ZM480.823 189.978L483.697 189.915L485.175 186.399L482.301 186.461L480.823 189.978Z" fill="url(#paint7_linear_1476_1689)"/>
<path d="M533.02 100.478C542.19 110.214 555.139 112.914 561.941 106.508C568.743 100.101 566.823 87.014 557.652 77.2773C548.481 67.5406 535.532 64.8408 528.731 71.2472C521.929 77.6542 523.849 90.7408 533.02 100.478Z" fill="url(#paint8_linear_1476_1689)"/>
<path d="M557.652 77.2776C548.482 67.5409 535.533 64.8411 528.731 71.2475L532.664 67.5431C539.466 61.1367 552.415 63.8365 561.585 73.5732C570.756 83.3099 572.676 96.3966 565.874 102.804L561.941 106.508C568.743 100.102 566.823 87.0143 557.652 77.2776Z" fill="url(#paint9_linear_1476_1689)"/>
<path d="M535.984 97.6851C542.947 105.078 552.778 107.128 557.943 102.264C563.107 97.3995 561.65 87.4634 554.687 80.0709C547.724 72.6783 537.893 70.6282 532.728 75.4923C527.564 80.3565 529.022 90.2926 535.984 97.6851Z" fill="url(#paint10_linear_1476_1689)"/>
<path d="M541.621 78.0391L542.644 80.474L545.327 80.5317C545.915 80.5445 546.511 80.7215 547.119 81.0631C547.726 81.4041 548.285 81.86 548.795 82.4289C549.303 82.9973 549.699 83.6139 549.977 84.2769L551.46 87.8049C551.724 88.4338 551.837 89.0145 551.798 89.5477C551.758 90.0802 551.575 90.5064 551.247 90.8284C550.917 91.1487 550.452 91.3027 549.851 91.2898L547.168 91.2321L548.568 94.5619L551.146 94.6179L550.53 93.1518L553.737 93.2218L554.406 94.8117C554.698 95.5072 554.828 96.1293 554.796 96.6793C554.763 97.2281 554.581 97.6587 554.249 97.9723C553.917 98.2848 553.45 98.4349 552.849 98.4214L550.166 98.3637L551.189 100.799L547.982 100.729L546.958 98.2937L544.253 98.2349C543.652 98.2221 543.05 98.049 542.446 97.7158C541.841 97.3821 541.29 96.9352 540.791 96.3752C540.292 95.8141 539.897 95.1857 539.605 94.4902L538.121 90.9622C537.821 90.2493 537.689 89.6143 537.725 89.0582C537.761 88.4999 537.945 88.0659 538.277 87.7529C538.61 87.4398 539.07 87.2897 539.657 87.3026L542.34 87.3609L541.014 84.2058L538.435 84.1498L539.041 85.5907L535.834 85.5213L535.176 83.9566C534.897 83.2936 534.772 82.6832 534.801 82.126C534.829 81.5682 535.008 81.1286 535.337 80.8083C535.666 80.4869 536.132 80.3334 536.732 80.3463L539.437 80.4051L538.413 77.9702L541.621 78.0391ZM541.36 91.105L542.76 94.4348L545.339 94.4908L543.939 91.161L541.36 91.105ZM545.569 87.4303L548.147 87.4863L546.821 84.3313L544.243 84.2753L545.569 87.4303Z" fill="url(#paint11_linear_1476_1689)"/>
<path d="M376.793 66.3315L349.092 519.433L138.911 522.303C138.911 522.303 138.015 555.407 171.453 555.407H354.438C366.005 555.407 376.864 549.137 382.039 538.792C384.538 533.795 386.468 527.314 387.172 518.913L421.219 112.522C424.506 66.9608 404.133 66.965 376.793 66.3315Z" fill="#5237D4"/>
<path d="M398.562 74.6746C394.98 69.4015 388.94 66.3306 382.566 66.3306H372.549H196.611C187.042 66.3306 178.401 76.2188 177.313 88.4163L138.96 517.912C137.871 530.11 144.745 539.998 154.315 539.998H337.344C353.251 539.998 366.43 527.659 367.476 511.786L402.99 94.0513C403.8 87.2711 402.442 80.1983 398.562 74.6746Z" fill="url(#paint12_linear_1476_1689)"/>
<path d="M356.854 346.68H175.353C172.194 346.68 169.81 344.104 170.055 340.954L183.648 215.253C183.902 211.995 186.782 209.331 190.049 209.331H371.551C374.71 209.331 377.093 211.907 376.848 215.057L363.255 340.758C363.002 344.015 360.121 346.68 356.854 346.68Z" fill="#6343FF"/>
<path d="M275.952 517.71H225.047C223.183 517.71 221.657 516.184 221.657 514.32C221.657 512.455 223.183 510.93 225.047 510.93H275.952C280.332 510.874 280.358 517.766 275.952 517.71Z" fill="#6343FF"/>
<path d="M402.989 94.0521C404.961 81.1525 396.796 66.0542 382.565 66.3314H372.548H196.61C187.041 66.3314 178.4 76.2196 177.312 88.4171L167.306 202.629H393.757L402.989 94.0521ZM338.203 94.2397C333.805 94.3041 333.805 87.3944 338.203 87.4595C342.602 87.3951 342.602 94.3048 338.203 94.2397Z" fill="#E2DBFF"/>
<path d="M319.981 94.1485H225.837C224.022 94.1485 222.537 92.6638 222.537 90.8494C222.537 89.035 224.022 87.5503 225.837 87.5503H319.981C321.795 87.5503 323.28 89.035 323.28 90.8494C323.28 92.6638 321.795 94.1485 319.981 94.1485Z" fill="#6343FF"/>
<path d="M194.556 148.583H193.453C193.448 148.271 193.386 147.997 193.268 147.761C193.153 147.525 192.995 147.327 192.794 147.167C192.597 147.004 192.367 146.882 192.103 146.8C191.84 146.719 191.557 146.678 191.255 146.678C190.703 146.678 190.178 146.815 189.677 147.088C189.18 147.362 188.749 147.766 188.383 148.299C188.02 148.832 187.765 149.486 187.617 150.261C187.469 151.035 187.475 151.689 187.634 152.222C187.796 152.755 188.073 153.159 188.466 153.433C188.861 153.706 189.335 153.843 189.886 153.843C190.189 153.843 190.487 153.803 190.782 153.721C191.076 153.639 191.353 153.519 191.611 153.358C191.874 153.195 192.108 152.996 192.313 152.76C192.522 152.521 192.688 152.247 192.812 151.938H193.916C193.745 152.396 193.516 152.805 193.227 153.166C192.939 153.527 192.607 153.835 192.233 154.088C191.859 154.339 191.456 154.529 191.025 154.66C190.596 154.791 190.152 154.857 189.693 154.857C188.916 154.857 188.26 154.671 187.727 154.298C187.193 153.925 186.818 153.395 186.603 152.707C186.387 152.02 186.369 151.204 186.549 150.261C186.73 149.317 187.059 148.501 187.537 147.814C188.015 147.126 188.593 146.596 189.269 146.223C189.945 145.851 190.672 145.664 191.449 145.664C191.908 145.664 192.327 145.73 192.705 145.861C193.087 145.992 193.416 146.184 193.694 146.437C193.972 146.688 194.187 146.994 194.337 147.355C194.488 147.713 194.561 148.123 194.556 148.583ZM199.852 151.991L200.609 148.023H201.659L200.377 154.735H199.328L199.545 153.599H199.473C199.248 153.939 198.944 154.229 198.56 154.468C198.177 154.704 197.727 154.822 197.211 154.822C196.784 154.822 196.422 154.73 196.125 154.547C195.829 154.36 195.621 154.081 195.503 153.708C195.385 153.332 195.38 152.859 195.489 152.288L196.304 148.023H197.353L196.552 152.218C196.459 152.707 196.524 153.098 196.747 153.389C196.973 153.68 197.304 153.826 197.74 153.826C198.001 153.826 198.279 153.76 198.573 153.629C198.871 153.498 199.138 153.297 199.374 153.026C199.612 152.755 199.772 152.41 199.852 151.991ZM202.3 154.735L203.582 148.023H204.596L204.403 149.037H204.474C204.662 148.705 204.939 148.436 205.304 148.229C205.67 148.022 206.057 147.919 206.467 147.919C206.544 147.919 206.64 147.92 206.755 147.923C206.87 147.926 206.957 147.93 207.015 147.936L206.815 148.985C206.781 148.976 206.702 148.963 206.578 148.945C206.457 148.925 206.327 148.915 206.187 148.915C205.855 148.915 205.546 148.983 205.259 149.12C204.975 149.254 204.735 149.441 204.538 149.679C204.345 149.915 204.219 150.185 204.161 150.488L203.35 154.735H202.3ZM206.961 154.735L208.243 148.023H209.257L209.063 149.037H209.134C209.322 148.705 209.599 148.436 209.965 148.229C210.331 148.022 210.718 147.919 211.127 147.919C211.204 147.919 211.301 147.92 211.416 147.923C211.531 147.926 211.617 147.93 211.676 147.936L211.475 148.985C211.441 148.976 211.362 148.963 211.238 148.945C211.118 148.925 210.988 148.915 210.848 148.915C210.516 148.915 210.206 148.983 209.919 149.12C209.636 149.254 209.395 149.441 209.199 149.679C209.005 149.915 208.88 150.185 208.822 150.488L208.011 154.735H206.961ZM214.251 154.874C213.593 154.874 213.053 154.732 212.63 154.446C212.21 154.158 211.921 153.756 211.761 153.24C211.605 152.722 211.593 152.119 211.724 151.432C211.855 150.744 212.099 150.138 212.454 149.614C212.813 149.087 213.25 148.676 213.766 148.382C214.285 148.085 214.853 147.936 215.47 147.936C215.826 147.936 216.166 147.994 216.491 148.111C216.816 148.227 217.095 148.417 217.33 148.679C217.565 148.938 217.726 149.282 217.813 149.71C217.901 150.138 217.885 150.665 217.765 151.292L217.681 151.729H212.415L212.585 150.837H216.784C216.856 150.459 216.844 150.121 216.746 149.824C216.652 149.527 216.48 149.292 216.231 149.12C215.985 148.948 215.673 148.862 215.293 148.862C214.875 148.862 214.494 148.964 214.149 149.168C213.808 149.369 213.526 149.631 213.301 149.955C213.076 150.278 212.928 150.625 212.857 150.995L212.744 151.589C212.647 152.096 212.654 152.525 212.765 152.878C212.879 153.227 213.078 153.494 213.364 153.677C213.649 153.858 214.004 153.948 214.428 153.948C214.704 153.948 214.961 153.91 215.197 153.835C215.438 153.756 215.654 153.639 215.847 153.485C216.04 153.328 216.203 153.133 216.337 152.9L217.298 153.179C217.126 153.517 216.89 153.814 216.589 154.071C216.289 154.324 215.939 154.522 215.542 154.665C215.144 154.805 214.714 154.874 214.251 154.874ZM220.525 150.697L219.754 154.735H218.704L219.986 148.023H221L220.8 149.072H220.889C221.114 148.731 221.41 148.458 221.775 148.251C222.142 148.041 222.583 147.936 223.099 147.936C223.561 147.936 223.948 148.029 224.26 148.216C224.572 148.399 224.788 148.679 224.909 149.055C225.031 149.427 225.037 149.899 224.928 150.47L224.113 154.735H223.063L223.865 150.54C223.965 150.013 223.904 149.602 223.682 149.308C223.46 149.011 223.106 148.862 222.619 148.862C222.284 148.862 221.971 148.934 221.68 149.076C221.392 149.219 221.146 149.427 220.942 149.701C220.739 149.975 220.6 150.307 220.525 150.697ZM230.285 148.023L230.118 148.897H226.577L226.744 148.023H230.285ZM228.083 146.416H229.133L227.911 152.812C227.856 153.103 227.857 153.322 227.915 153.468C227.977 153.61 228.071 153.706 228.198 153.756C228.328 153.803 228.471 153.826 228.625 153.826C228.741 153.826 228.837 153.82 228.913 153.808C228.99 153.794 229.052 153.782 229.098 153.773L229.134 154.7C229.058 154.726 228.954 154.752 228.821 154.778C228.688 154.808 228.524 154.822 228.328 154.822C228.031 154.822 227.753 154.759 227.492 154.634C227.234 154.509 227.036 154.318 226.899 154.062C226.764 153.805 226.733 153.482 226.808 153.092L228.083 146.416ZM234.248 154.735L235.957 145.786H239.142C239.776 145.786 240.279 145.894 240.65 146.11C241.022 146.322 241.274 146.609 241.406 146.97C241.54 147.329 241.565 147.726 241.481 148.163C241.408 148.548 241.277 148.865 241.09 149.116C240.906 149.366 240.687 149.564 240.434 149.71C240.184 149.856 239.921 149.963 239.647 150.033L239.63 150.121C239.906 150.138 240.168 150.234 240.416 150.409C240.664 150.584 240.852 150.834 240.98 151.161C241.107 151.487 241.126 151.886 241.036 152.358C240.95 152.806 240.769 153.21 240.493 153.568C240.217 153.926 239.835 154.21 239.347 154.42C238.86 154.63 238.257 154.735 237.539 154.735H234.248ZM235.534 153.773H237.723C238.443 153.773 238.981 153.637 239.336 153.363C239.694 153.086 239.911 152.751 239.986 152.358C240.044 152.055 240.019 151.775 239.91 151.519C239.803 151.26 239.618 151.053 239.357 150.898C239.097 150.741 238.768 150.663 238.37 150.663H236.128L235.534 153.773ZM236.309 149.719H238.355C238.687 149.719 238.999 149.655 239.29 149.527C239.585 149.398 239.833 149.218 240.034 148.985C240.239 148.752 240.371 148.478 240.431 148.163C240.506 147.77 240.431 147.437 240.204 147.163C239.978 146.886 239.563 146.748 238.958 146.748H236.876L236.309 149.719ZM244.233 154.892C243.8 154.892 243.422 154.812 243.1 154.652C242.778 154.489 242.543 154.254 242.393 153.948C242.245 153.639 242.212 153.267 242.296 152.83C242.369 152.445 242.506 152.134 242.706 151.895C242.906 151.653 243.148 151.464 243.432 151.327C243.717 151.19 244.021 151.088 244.345 151.021C244.673 150.951 244.999 150.896 245.324 150.855C245.749 150.802 246.093 150.763 246.356 150.737C246.623 150.708 246.822 150.66 246.953 150.593C247.088 150.526 247.171 150.409 247.202 150.243L247.209 150.208C247.291 149.777 247.235 149.442 247.041 149.203C246.849 148.964 246.512 148.845 246.028 148.845C245.527 148.845 245.114 148.953 244.788 149.168C244.462 149.384 244.218 149.614 244.055 149.859L243.126 149.509C243.382 149.101 243.679 148.784 244.019 148.557C244.363 148.326 244.72 148.166 245.09 148.076C245.463 147.983 245.822 147.936 246.166 147.936C246.386 147.936 246.633 147.962 246.907 148.015C247.186 148.064 247.443 148.168 247.68 148.325C247.92 148.482 248.098 148.72 248.216 149.037C248.333 149.355 248.341 149.78 248.239 150.313L247.394 154.735H246.345L246.518 153.826H246.465C246.366 153.972 246.217 154.127 246.02 154.293C245.822 154.459 245.574 154.601 245.276 154.717C244.978 154.834 244.63 154.892 244.233 154.892ZM244.57 153.966C244.985 153.966 245.35 153.886 245.665 153.725C245.984 153.565 246.24 153.358 246.433 153.105C246.63 152.852 246.755 152.585 246.809 152.305L246.989 151.362C246.934 151.414 246.827 151.462 246.668 151.506C246.512 151.547 246.333 151.583 246.131 151.615C245.932 151.644 245.739 151.67 245.551 151.694C245.366 151.714 245.216 151.732 245.1 151.746C244.821 151.781 244.555 151.838 244.303 151.917C244.054 151.992 243.842 152.107 243.668 152.262C243.496 152.413 243.386 152.62 243.335 152.882C243.267 153.24 243.35 153.511 243.585 153.695C243.823 153.875 244.152 153.966 244.57 153.966ZM252.069 145.786L250.36 154.735H249.31L251.02 145.786H252.069ZM254.264 154.892C253.831 154.892 253.453 154.812 253.131 154.652C252.809 154.489 252.573 154.254 252.424 153.948C252.276 153.639 252.243 153.267 252.327 152.83C252.4 152.445 252.537 152.134 252.736 151.895C252.937 151.653 253.179 151.464 253.463 151.327C253.747 151.19 254.052 151.088 254.376 151.021C254.703 150.951 255.03 150.896 255.355 150.855C255.78 150.802 256.124 150.763 256.387 150.737C256.654 150.708 256.853 150.66 256.984 150.593C257.118 150.526 257.202 150.409 257.233 150.243L257.24 150.208C257.322 149.777 257.266 149.442 257.072 149.203C256.88 148.964 256.542 148.845 256.059 148.845C255.558 148.845 255.144 148.953 254.819 149.168C254.493 149.384 254.249 149.614 254.086 149.859L253.156 149.509C253.412 149.101 253.71 148.784 254.05 148.557C254.394 148.326 254.75 148.166 255.121 148.076C255.494 147.983 255.853 147.936 256.197 147.936C256.416 147.936 256.664 147.962 256.938 148.015C257.216 148.064 257.474 148.168 257.711 148.325C257.951 148.482 258.129 148.72 258.246 149.037C258.364 149.355 258.371 149.78 258.27 150.313L257.425 154.735H256.375L256.549 153.826H256.496C256.397 153.972 256.248 154.127 256.05 154.293C255.853 154.459 255.605 154.601 255.307 154.717C255.009 154.834 254.661 154.892 254.264 154.892ZM254.601 153.966C255.016 153.966 255.381 153.886 255.696 153.725C256.015 153.565 256.27 153.358 256.464 153.105C256.661 152.852 256.786 152.585 256.839 152.305L257.02 151.362C256.965 151.414 256.858 151.462 256.698 151.506C256.542 151.547 256.363 151.583 256.162 151.615C255.963 151.644 255.77 151.67 255.582 151.694C255.397 151.714 255.247 151.732 255.131 151.746C254.852 151.781 254.586 151.838 254.334 151.917C254.085 151.992 253.873 152.107 253.698 152.262C253.527 152.413 253.416 152.62 253.366 152.882C253.298 153.24 253.381 153.511 253.616 153.695C253.854 153.875 254.182 153.966 254.601 153.966ZM261.162 150.697L260.391 154.735H259.341L260.623 148.023H261.637L261.437 149.072H261.526C261.751 148.731 262.047 148.458 262.412 148.251C262.779 148.041 263.22 147.936 263.736 147.936C264.198 147.936 264.585 148.029 264.897 148.216C265.209 148.399 265.425 148.679 265.546 149.055C265.668 149.427 265.674 149.899 265.565 150.47L264.75 154.735H263.7L264.502 150.54C264.602 150.013 264.541 149.602 264.319 149.308C264.097 149.011 263.743 148.862 263.256 148.862C262.921 148.862 262.608 148.934 262.317 149.076C262.029 149.219 261.783 149.427 261.579 149.701C261.376 149.975 261.237 150.307 261.162 150.697ZM269.418 154.874C268.777 154.874 268.254 154.726 267.848 154.429C267.442 154.132 267.164 153.722 267.015 153.201C266.865 152.68 266.855 152.084 266.983 151.414C267.113 150.732 267.355 150.131 267.71 149.61C268.068 149.085 268.505 148.676 269.021 148.382C269.54 148.085 270.108 147.936 270.725 147.936C271.205 147.936 271.622 148.023 271.974 148.198C272.326 148.373 272.595 148.618 272.781 148.932C272.967 149.247 273.05 149.614 273.029 150.033H271.979C271.958 149.728 271.831 149.457 271.601 149.221C271.373 148.982 271.029 148.862 270.566 148.862C270.157 148.862 269.778 148.967 269.429 149.177C269.084 149.384 268.79 149.677 268.545 150.055C268.305 150.431 268.136 150.872 268.039 151.379C267.94 151.898 267.937 152.349 268.029 152.734C268.125 153.118 268.305 153.417 268.57 153.629C268.838 153.842 269.179 153.948 269.595 153.948C269.867 153.948 270.124 153.902 270.364 153.808C270.604 153.715 270.818 153.581 271.006 153.406C271.193 153.232 271.343 153.022 271.455 152.777H272.505C272.37 153.173 272.155 153.53 271.86 153.848C271.569 154.162 271.214 154.413 270.796 154.599C270.381 154.783 269.922 154.874 269.418 154.874ZM276.504 154.874C275.845 154.874 275.305 154.732 274.882 154.446C274.462 154.158 274.173 153.756 274.013 153.24C273.857 152.722 273.845 152.119 273.976 151.432C274.108 150.744 274.351 150.138 274.706 149.614C275.065 149.087 275.502 148.676 276.018 148.382C276.537 148.085 277.105 147.936 277.722 147.936C278.078 147.936 278.418 147.994 278.743 148.111C279.068 148.227 279.347 148.417 279.582 148.679C279.817 148.938 279.978 149.282 280.066 149.71C280.153 150.138 280.137 150.665 280.017 151.292L279.934 151.729H274.667L274.837 150.837H279.036C279.109 150.459 279.096 150.121 278.999 149.824C278.904 149.527 278.732 149.292 278.483 149.12C278.238 148.948 277.925 148.862 277.545 148.862C277.127 148.862 276.746 148.964 276.401 149.168C276.061 149.369 275.778 149.631 275.553 149.955C275.328 150.278 275.18 150.625 275.11 150.995L274.996 151.589C274.899 152.096 274.906 152.525 275.017 152.878C275.131 153.227 275.331 153.494 275.616 153.677C275.902 153.858 276.257 153.948 276.681 153.948C276.956 153.948 277.213 153.91 277.45 153.835C277.69 153.756 277.906 153.639 278.099 153.485C278.292 153.328 278.456 153.133 278.589 152.9L279.55 153.179C279.378 153.517 279.142 153.814 278.841 154.071C278.541 154.324 278.192 154.522 277.794 154.665C277.396 154.805 276.966 154.874 276.504 154.874Z" fill="#6343FF"/>
<path d="M188.814 187.935L193.37 164.078H194.926L190.37 187.935H188.814ZM197.241 171.235C197.307 170.291 196.985 169.558 196.276 169.036C195.566 168.514 194.622 168.253 193.446 168.253C192.586 168.253 191.807 168.389 191.109 168.663C190.418 168.936 189.847 169.312 189.395 169.791C188.949 170.269 188.668 170.813 188.552 171.421C188.455 171.931 188.495 172.369 188.671 172.735C188.855 173.096 189.12 173.397 189.466 173.639C189.813 173.875 190.187 174.071 190.588 174.227C190.989 174.376 191.361 174.497 191.704 174.59L193.578 175.112C194.059 175.242 194.588 175.423 195.164 175.652C195.746 175.882 196.284 176.196 196.777 176.594C197.278 176.985 197.656 177.488 197.912 178.103C198.167 178.718 198.21 179.473 198.039 180.368C197.842 181.399 197.389 182.331 196.68 183.164C195.977 183.996 195.053 184.658 193.909 185.149C192.772 185.64 191.457 185.885 189.964 185.885C188.573 185.885 187.41 185.665 186.476 185.223C185.548 184.782 184.868 184.167 184.437 183.378C184.012 182.589 183.862 181.673 183.985 180.629H186.414C186.34 181.35 186.472 181.946 186.812 182.418C187.16 182.884 187.644 183.232 188.264 183.462C188.892 183.686 189.591 183.798 190.363 183.798C191.261 183.798 192.095 183.655 192.864 183.369C193.635 183.077 194.278 182.673 194.794 182.157C195.311 181.635 195.636 181.027 195.769 180.331C195.89 179.697 195.808 179.181 195.524 178.784C195.239 178.386 194.826 178.063 194.286 177.814C193.745 177.566 193.151 177.349 192.503 177.162L190.24 176.491C188.804 176.062 187.719 175.45 186.986 174.655C186.252 173.86 186.008 172.819 186.254 171.533C186.458 170.465 186.93 169.533 187.67 168.737C188.418 167.936 189.333 167.315 190.417 166.874C191.508 166.426 192.674 166.203 193.913 166.203C195.166 166.203 196.237 166.423 197.127 166.864C198.018 167.299 198.675 167.896 199.1 168.654C199.531 169.412 199.67 170.272 199.518 171.235H197.241ZM206.599 185.811C205.486 185.811 204.525 185.593 203.716 185.158C202.907 184.723 202.306 184.127 201.913 183.369C201.52 182.611 201.391 181.747 201.526 180.778H203.803C203.726 181.642 203.988 182.356 204.589 182.922C205.197 183.481 205.997 183.76 206.99 183.76C207.787 183.76 208.531 183.577 209.221 183.21C209.917 182.844 210.503 182.341 210.98 181.701C211.464 181.055 211.783 180.325 211.939 179.511C212.098 178.678 212.053 177.936 211.804 177.283C211.563 176.625 211.156 176.106 210.584 175.727C210.011 175.348 209.311 175.155 208.483 175.149C207.89 175.143 207.262 175.233 206.601 175.419C205.94 175.6 205.38 175.833 204.921 176.118L202.769 175.857L205.74 166.463H215.835L215.443 168.514H207.322L205.564 174.143H205.677C206.135 173.832 206.684 173.574 207.324 173.369C207.964 173.164 208.61 173.062 209.262 173.062C210.451 173.062 211.457 173.341 212.28 173.9C213.11 174.453 213.699 175.211 214.047 176.174C214.4 177.137 214.459 178.237 214.223 179.473C213.99 180.691 213.504 181.778 212.765 182.735C212.033 183.686 211.131 184.437 210.057 184.99C208.985 185.537 207.832 185.811 206.599 185.811ZM223.12 185.811C221.69 185.811 220.545 185.428 219.686 184.664C218.827 183.894 218.272 182.779 218.019 181.319C217.768 179.852 217.84 178.082 218.237 176.007C218.631 173.944 219.233 172.182 220.043 170.722C220.861 169.256 221.846 168.138 222.999 167.367C224.159 166.591 225.448 166.203 226.865 166.203C228.281 166.203 229.419 166.591 230.276 167.367C231.141 168.138 231.699 169.256 231.95 170.722C232.209 172.182 232.141 173.944 231.747 176.007C231.351 178.082 230.747 179.852 229.936 181.319C229.126 182.779 228.144 183.894 226.991 184.664C225.84 185.428 224.549 185.811 223.12 185.811ZM223.511 183.76C224.928 183.76 226.157 183.089 227.197 181.747C228.238 180.405 228.996 178.492 229.47 176.007C229.786 174.354 229.875 172.947 229.736 171.785C229.604 170.623 229.26 169.738 228.706 169.129C228.158 168.52 227.416 168.216 226.48 168.216C225.076 168.216 223.849 168.896 222.798 170.256C221.749 171.611 220.987 173.528 220.514 176.007C220.198 177.659 220.107 179.063 220.241 180.219C220.374 181.374 220.715 182.254 221.264 182.856C221.82 183.459 222.569 183.76 223.511 183.76ZM239.818 185.811C238.389 185.811 237.244 185.428 236.384 184.664C235.526 183.894 234.97 182.779 234.718 181.319C234.466 179.852 234.539 178.082 234.935 176.007C235.329 173.944 235.931 172.182 236.742 170.722C237.559 169.256 238.545 168.138 239.697 167.367C240.858 166.591 242.146 166.203 243.563 166.203C244.98 166.203 246.117 166.591 246.975 167.367C247.839 168.138 248.398 169.256 248.649 170.722C248.908 172.182 248.84 173.944 248.446 176.007C248.05 178.082 247.446 179.852 246.634 181.319C245.824 182.779 244.843 183.894 243.69 184.664C242.538 185.428 241.248 185.811 239.818 185.811ZM240.21 183.76C241.627 183.76 242.855 183.089 243.896 181.747C244.937 180.405 245.694 178.492 246.169 176.007C246.485 174.354 246.573 172.947 246.434 171.785C246.302 170.623 245.959 169.738 245.405 169.129C244.857 168.52 244.115 168.216 243.179 168.216C241.775 168.216 240.547 168.896 239.497 170.256C238.447 171.611 237.686 173.528 237.212 176.007C236.897 177.659 236.806 179.063 236.939 180.219C237.073 181.374 237.414 182.254 237.963 182.856C238.518 183.459 239.267 183.76 240.21 183.76ZM251.192 185.699C250.724 185.699 250.353 185.534 250.081 185.205C249.809 184.875 249.716 184.481 249.804 184.021C249.892 183.561 250.135 183.167 250.533 182.838C250.931 182.508 251.364 182.344 251.832 182.344C252.301 182.344 252.671 182.508 252.943 182.838C253.215 183.167 253.308 183.561 253.22 184.021C253.162 184.326 253.029 184.605 252.823 184.86C252.622 185.115 252.377 185.32 252.088 185.475C251.807 185.624 251.508 185.699 251.192 185.699ZM262.518 185.811C261.088 185.811 259.944 185.428 259.084 184.664C258.225 183.894 257.67 182.779 257.417 181.319C257.166 179.852 257.239 178.082 257.635 176.007C258.029 173.944 258.631 172.182 259.441 170.722C260.259 169.256 261.244 168.138 262.397 167.367C263.557 166.591 264.846 166.203 266.263 166.203C267.68 166.203 268.817 166.591 269.674 167.367C270.539 168.138 271.097 169.256 271.348 170.722C271.607 172.182 271.54 173.944 271.146 176.007C270.749 178.082 270.145 179.852 269.334 181.319C268.524 182.779 267.542 183.894 266.39 184.664C265.238 185.428 263.947 185.811 262.518 185.811ZM262.909 183.76C264.326 183.76 265.555 183.089 266.596 181.747C267.636 180.405 268.394 178.492 268.869 176.007C269.184 174.354 269.273 172.947 269.134 171.785C269.002 170.623 268.659 169.738 268.104 169.129C267.557 168.52 266.815 168.216 265.878 168.216C264.474 168.216 263.247 168.896 262.196 170.256C261.147 171.611 260.386 173.528 259.912 176.007C259.596 177.659 259.505 179.063 259.639 180.219C259.772 181.374 260.114 182.254 260.663 182.856C261.218 183.459 261.967 183.76 262.909 183.76ZM279.216 185.811C277.787 185.811 276.642 185.428 275.783 184.664C274.924 183.894 274.368 182.779 274.116 181.319C273.865 179.852 273.937 178.082 274.334 176.007C274.728 173.944 275.33 172.182 276.14 170.722C276.958 169.256 277.943 168.138 279.096 167.367C280.256 166.591 281.545 166.203 282.962 166.203C284.378 166.203 285.515 166.591 286.373 167.367C287.238 168.138 287.796 169.256 288.047 170.722C288.306 172.182 288.238 173.944 287.844 176.007C287.448 178.082 286.844 179.852 286.033 181.319C285.223 182.779 284.241 183.894 283.088 184.664C281.936 185.428 280.646 185.811 279.216 185.811ZM279.608 183.76C281.025 183.76 282.254 183.089 283.294 181.747C284.335 180.405 285.093 178.492 285.567 176.007C285.883 174.354 285.971 172.947 285.833 171.785C285.7 170.623 285.357 169.738 284.803 169.129C284.255 168.52 283.513 168.216 282.577 168.216C281.173 168.216 279.945 168.896 278.895 170.256C277.846 171.611 277.084 173.528 276.611 176.007C276.295 177.659 276.204 179.063 276.337 180.219C276.471 181.374 276.812 182.254 277.361 182.856C277.917 183.459 278.666 183.76 279.608 183.76ZM295.915 185.811C294.485 185.811 293.341 185.428 292.481 184.664C291.623 183.894 291.067 182.779 290.815 181.319C290.563 179.852 290.636 178.082 291.032 176.007C291.426 173.944 292.028 172.182 292.838 170.722C293.656 169.256 294.641 168.138 295.794 167.367C296.955 166.591 298.243 166.203 299.66 166.203C301.077 166.203 302.214 166.591 303.071 167.367C303.936 168.138 304.494 169.256 304.746 170.722C305.004 172.182 304.937 173.944 304.543 176.007C304.147 178.082 303.543 179.852 302.731 181.319C301.921 182.779 300.94 183.894 299.787 184.664C298.635 185.428 297.345 185.811 295.915 185.811ZM296.307 183.76C297.723 183.76 298.952 183.089 299.993 181.747C301.033 180.405 301.791 178.492 302.266 176.007C302.581 174.354 302.67 172.947 302.531 171.785C302.399 170.623 302.056 169.738 301.502 169.129C300.954 168.52 300.212 168.216 299.276 168.216C297.871 168.216 296.644 168.896 295.594 170.256C294.544 171.611 293.783 173.528 293.309 176.007C292.994 177.659 292.903 179.063 293.036 180.219C293.17 181.374 293.511 182.254 294.06 182.856C294.615 183.459 295.364 183.76 296.307 183.76Z" fill="#6343FF"/>
<path d="M363.395 122.627C364.382 111.933 348.423 113.132 347.832 122.627C346.845 133.32 362.804 132.121 363.395 122.627Z" fill="#6343FF"/>
<path d="M355.068 128.733C351.194 128.952 348.677 124.581 353.389 123.8C354.893 124.913 356.374 124.126 357.931 123.869C362.39 125.33 357.765 128.856 355.068 128.733Z" fill="#E2DBFF"/>
<path d="M355.501 123.59C353.089 123.588 352.186 120.58 354.078 118.874C358.544 115.445 360.514 123.492 355.501 123.59Z" fill="#E2DBFF"/>
<path d="M379.728 119.795C379.876 118.618 380.569 117.583 381.513 116.909C381.169 116.77 380.801 116.661 380.392 116.622C382.198 114.771 378.42 114.89 379.868 116.629C375.567 116.873 375.601 121.175 374.906 124.322C374.376 125.367 373.068 125.988 373.11 127.206C376.915 127.206 380.691 127.206 384.48 127.206C384.837 125.702 383.05 124.947 383.333 123.437C381.188 123.736 379.429 121.956 379.728 119.795Z" fill="#6343FF"/>
<path d="M380.953 127.925C379.442 127.925 377.931 127.925 376.419 127.925C376.14 130.748 380.644 130.75 380.953 127.925Z" fill="#6343FF"/>
<path d="M386.036 119.633C386.379 116.289 381.414 116.709 381.203 119.633C380.86 122.978 385.825 122.558 386.036 119.633Z" fill="#F3645B"/>
<path d="M188.773 127.52H207.098" stroke="url(#paint13_linear_1476_1689)" stroke-width="1.52012" stroke-miterlimit="10"/>
<path d="M189.321 122.751H207.645" stroke="url(#paint14_linear_1476_1689)" stroke-width="1.52012" stroke-miterlimit="10"/>
<path d="M189.867 117.982H208.192" stroke="url(#paint15_linear_1476_1689)" stroke-width="1.52012" stroke-miterlimit="10"/>
<path d="M349.687 432.239H168.185C165.025 432.239 162.642 429.662 162.887 426.513L167.466 366.387C167.72 363.13 170.6 360.465 173.867 360.465H355.369C358.528 360.465 360.911 363.042 360.666 366.191L356.087 426.317C355.834 429.574 352.954 432.239 349.687 432.239Z" fill="#6343FF"/>
<path d="M344.491 482.442H162.989C159.83 482.442 157.446 479.865 157.691 476.716L159.62 451.947C159.873 448.69 162.753 446.025 166.02 446.025H347.522C350.681 446.025 353.065 448.602 352.82 451.751L350.891 476.52C350.638 479.777 347.757 482.442 344.491 482.442Z" fill="#6343FF"/>
<path d="M254.62 375.44C268.733 375.44 268.733 410.213 282.846 410.213C296.961 410.213 296.961 375.44 311.076 375.44C325.192 375.44 325.192 410.213 339.307 410.213" stroke="#E2DBFF" stroke-width="1.65592" stroke-miterlimit="10"/>
<path d="M261.872 376.385C262.258 370.067 252.652 370.502 252.467 376.386C252.082 382.703 261.687 382.267 261.872 376.385Z" fill="url(#paint16_linear_1476_1689)"/>
<path d="M285.595 410.324C285.981 404.006 276.375 404.442 276.19 410.325C275.805 416.643 285.41 416.207 285.595 410.324Z" fill="url(#paint17_linear_1476_1689)"/>
<path d="M327.136 385.789C327.522 379.471 317.916 379.906 317.731 385.79C317.346 392.107 326.951 391.671 327.136 385.789Z" fill="url(#paint18_linear_1476_1689)"/>
<path d="M344.172 409.97C344.557 403.652 334.952 404.087 334.767 409.971C334.381 416.288 343.986 415.853 344.172 409.97Z" fill="url(#paint19_linear_1476_1689)"/>
<path d="M182.691 381.628C182.986 376.79 175.632 377.124 175.49 381.628C175.195 386.465 182.549 386.132 182.691 381.628Z" fill="#E2DBFF"/>
<path d="M236.151 379.887H186.72V383.368H236.151V379.887Z" fill="url(#paint20_linear_1476_1689)"/>
<path d="M181.541 396.352C181.836 391.515 174.482 391.849 174.34 396.352C174.044 401.19 181.399 400.857 181.541 396.352Z" fill="#E2DBFF"/>
<path d="M235.001 394.612H185.57V398.093H235.001V394.612Z" fill="url(#paint21_linear_1476_1689)"/>
<path d="M180.493 411.078C180.788 406.24 173.434 406.574 173.292 411.078C172.997 415.916 180.351 415.582 180.493 411.078Z" fill="#E2DBFF"/>
<path d="M233.954 409.335H184.522V412.817H233.954V409.335Z" fill="url(#paint22_linear_1476_1689)"/>
<path d="M258.757 461.722C259.445 450.446 242.304 451.224 241.975 461.722C241.287 472.997 258.427 472.219 258.757 461.722Z" fill="#E2DBFF"/>
<path d="M309.62 461.722C310.308 450.446 293.167 451.224 292.838 461.722C292.149 472.997 309.29 472.219 309.62 461.722Z" fill="#E2DBFF"/>
<path d="M207.894 461.722C208.582 450.446 191.441 451.224 191.112 461.722C190.423 472.997 207.564 472.219 207.894 461.722Z" fill="#E2DBFF"/>
<path d="M179.086 249.195C197.843 249.195 197.843 301.612 216.599 301.612C235.356 301.612 235.356 249.195 254.112 249.195C272.869 249.195 270.957 275.404 289.714 275.404C308.474 275.404 310.385 249.195 329.145 249.195C347.905 249.195 347.056 278.182 370.544 273.348L363.13 346.703L170.037 348.575L179.086 249.195Z" fill="url(#paint23_linear_1476_1689)"/>
<path d="M219.29 332.355C219.676 326.036 210.07 326.472 209.886 332.355C209.5 338.673 219.105 338.237 219.29 332.355Z" fill="#E2DBFF"/>
<path d="M257.558 306.624C257.943 300.306 248.338 300.741 248.153 306.625C247.767 312.942 257.373 312.506 257.558 306.624Z" fill="#E2DBFF"/>
<path d="M329.263 306.933C329.649 300.615 320.044 301.05 319.859 306.933C319.473 313.251 329.078 312.815 329.263 306.933Z" fill="#E2DBFF"/>
<path d="M179.087 249.195C197.843 249.195 197.843 301.612 216.6 301.612C235.356 301.612 235.356 249.195 254.112 249.195C272.869 249.195 270.957 275.404 289.714 275.404C308.474 275.404 310.386 249.195 329.146 249.195C347.906 249.195 347.11 277.688 370.598 272.854" stroke="#E2DBFF" stroke-width="1.90337" stroke-miterlimit="10"/>
<path d="M214.981 325.076L215.184 322.805" stroke="#E2DBFF" stroke-width="1.14009" stroke-miterlimit="10"/>
<path d="M215.524 318.994L216.715 305.659" stroke="#E2DBFF" stroke-width="1.14009" stroke-miterlimit="10" stroke-dasharray="3.83 3.83"/>
<path d="M216.886 303.754L217.088 301.483" stroke="#E2DBFF" stroke-width="1.14009" stroke-miterlimit="10"/>
<path d="M252.856 297.502L253.058 295.231" stroke="#E2DBFF" stroke-width="1.14009" stroke-miterlimit="10"/>
<path d="M253.493 290.368L256.75 253.897" stroke="#E2DBFF" stroke-width="1.14009" stroke-miterlimit="10" stroke-dasharray="4.88 4.88"/>
<path d="M256.966 251.466L257.169 249.195" stroke="#E2DBFF" stroke-width="1.14009" stroke-miterlimit="10"/>
<path d="M325.333 297.443L325.537 295.171" stroke="#E2DBFF" stroke-width="1.14009" stroke-miterlimit="10"/>
<path d="M325.971 290.308L329.227 253.837" stroke="#E2DBFF" stroke-width="1.14009" stroke-miterlimit="10" stroke-dasharray="4.88 4.88"/>
<path d="M329.445 251.407L329.647 249.135" stroke="#E2DBFF" stroke-width="1.14009" stroke-miterlimit="10"/>
<path d="M273.005 218.37H245.906C244 218.37 242.303 219.916 242.117 221.822C240.752 236.431 238.292 236.606 254.18 236.088L257.183 241.565L261.26 236.088C264.512 235.476 274.446 238.159 275.059 232.636C275.615 227.621 278.844 218.19 273.005 218.37Z" fill="#E2DBFF"/>
<path opacity="0.9" d="M215.949 264.169H7.49702C3.37332 264.169 0 260.795 0 256.672V180.062C0 175.938 3.37402 172.565 7.49702 172.565H215.949C220.072 172.565 223.446 175.939 223.446 180.062V256.672C223.446 260.795 220.072 264.169 215.949 264.169Z" fill="#F3645B"/>
<path d="M22.5316 203.45C32.7005 192.653 47.0589 189.659 54.6014 196.764C62.1439 203.868 60.0145 218.379 49.8456 229.176C39.6767 239.973 25.3183 242.966 17.7758 235.862C10.2333 228.759 12.3627 214.247 22.5316 203.45Z" fill="url(#paint24_linear_1476_1689)"/>
<path d="M49.8459 229.176C39.677 239.973 25.3186 242.967 17.7761 235.862L22.1372 239.97C29.6797 247.074 44.038 244.08 54.2069 233.284C64.3758 222.487 66.5053 207.975 58.9628 200.871L54.6017 196.763C62.1442 203.867 60.0148 218.379 49.8459 229.176Z" fill="url(#paint25_linear_1476_1689)"/>
<path d="M25.8196 206.547C33.5406 198.349 44.4417 196.077 50.1684 201.47C55.8951 206.864 54.2788 217.882 46.5578 226.079C38.8368 234.277 27.9357 236.55 22.209 231.156C16.4823 225.762 18.0986 214.744 25.8196 206.547Z" fill="url(#paint26_linear_1476_1689)"/>
<path d="M28.5127 228.409L29.6481 225.709L26.6493 225.774C25.9829 225.789 25.467 225.619 25.1023 225.262C24.7369 224.906 24.5388 224.419 24.508 223.801C24.4758 223.183 24.6144 222.506 24.9238 221.771L25.6539 220.035L29.2099 219.958L28.5386 221.556L31.3974 221.493L32.8681 217.995L29.8931 218.059C29.2421 218.073 28.7325 217.907 28.3636 217.56C27.9947 217.213 27.7903 216.731 27.7518 216.113C27.7119 215.496 27.8582 214.792 28.1907 214.001L29.8364 210.089C30.1605 209.318 30.5987 208.622 31.1524 207.999C31.7054 207.378 32.3165 206.882 32.9871 206.512C33.6563 206.143 34.3248 205.951 34.9912 205.936L37.99 205.871L39.1247 203.171L42.6814 203.093L41.5467 205.793L44.5217 205.729C45.1881 205.714 45.7054 205.881 46.075 206.227C46.4425 206.575 46.6455 207.052 46.6819 207.661C46.7162 208.27 46.5727 208.96 46.2479 209.731L45.5066 211.495L41.9499 211.572L42.6338 209.947L39.775 210.009L38.2224 213.701L41.1974 213.637C41.8638 213.622 42.379 213.793 42.7444 214.148C43.1084 214.505 43.3128 214.979 43.3562 215.569C43.3989 216.159 43.2743 216.803 42.981 217.501L41.3367 221.414C41.028 222.149 40.5898 222.833 40.0256 223.463C39.4607 224.094 38.8412 224.599 38.1678 224.977C37.4937 225.356 36.8329 225.552 36.1812 225.566L33.2062 225.63L32.0715 228.33L28.5127 228.409ZM34.6405 213.78L36.1924 210.088L33.3329 210.151L31.781 213.842L34.6405 213.78ZM34.9772 221.416L37.836 221.354L39.3067 217.856L36.4472 217.917L34.9772 221.416Z" fill="url(#paint27_linear_1476_1689)"/>
<path d="M138.665 217.936C144.883 217.936 144.883 235.311 151.101 235.311C157.318 235.311 157.318 217.936 163.536 217.936C169.754 217.936 169.12 226.624 175.338 226.624C181.556 226.624 182.19 217.936 188.409 217.936C194.627 217.936 194.346 227.545 202.132 225.943L202.674 238.016L138.665 238.636V217.936Z" fill="url(#paint28_linear_1476_1689)"/>
<path d="M138.665 217.936C144.883 217.936 144.883 235.311 151.101 235.311C157.318 235.311 157.318 217.936 163.536 217.936C169.754 217.936 169.12 226.624 175.338 226.624C181.556 226.624 182.19 217.936 188.409 217.936C194.627 217.936 194.364 227.381 202.15 225.779" stroke="#00CF9B" stroke-width="1.24957" stroke-miterlimit="10"/>
<path d="M157.729 201.495L154.793 205.924H160.665L157.729 201.495Z" fill="#00CF9B"/>
<path opacity="0.9" d="M334.756 394.294V240.344C334.756 236.22 338.13 232.847 342.253 232.847H493.889C498.012 232.847 501.386 236.221 501.386 240.344V394.294C501.386 398.417 498.012 401.791 493.889 401.791H342.253C338.129 401.791 334.756 398.417 334.756 394.294Z" fill="#F3645B"/>
<path opacity="0.43" d="M357.517 266.026V263.468C357.517 261.556 359.081 259.992 360.993 259.992H475.149C477.06 259.992 478.625 261.556 478.625 263.468V266.026C478.625 267.938 477.061 269.503 475.149 269.503H360.993C359.081 269.503 357.517 267.938 357.517 266.026Z" fill="#8DFACE"/>
<path opacity="0.67" d="M357.517 266.026V263.468C357.517 261.556 359.081 259.992 360.993 259.992H403.291C405.202 259.992 406.767 261.556 406.767 263.468V266.026C406.767 267.938 405.202 269.503 403.291 269.503H360.993C359.081 269.503 357.517 267.938 357.517 266.026Z" fill="#8DFACE"/>
<path d="M357.517 266.026V263.468C357.517 261.556 359.081 259.992 360.993 259.992H376.852C378.763 259.992 380.328 261.556 380.328 263.468V266.026C380.328 267.938 378.763 269.503 376.852 269.503H360.993C359.081 269.503 357.517 267.938 357.517 266.026Z" fill="#8DFACE"/>
<path opacity="0.43" d="M357.517 295.208V292.65C357.517 290.738 359.081 289.173 360.993 289.173H475.149C477.06 289.173 478.625 290.738 478.625 292.65V295.208C478.625 297.12 477.061 298.684 475.149 298.684H360.993C359.081 298.684 357.517 297.12 357.517 295.208Z" fill="#8DFACE"/>
<path opacity="0.67" d="M357.517 295.208V292.65C357.517 290.738 359.081 289.173 360.993 289.173H443.884C445.796 289.173 447.36 290.738 447.36 292.65V295.208C447.36 297.12 445.796 298.684 443.884 298.684H360.993C359.081 298.684 357.517 297.12 357.517 295.208Z" fill="#8DFACE"/>
<path d="M357.517 295.208V292.65C357.517 290.738 359.081 289.173 360.993 289.173H395.491C397.403 289.173 398.967 290.738 398.967 292.65V295.208C398.967 297.12 397.403 298.684 395.491 298.684H360.993C359.081 298.684 357.517 297.12 357.517 295.208Z" fill="#8DFACE"/>
<path opacity="0.43" d="M357.517 324.231V321.672C357.517 319.76 359.081 318.196 360.993 318.196H475.149C477.06 318.196 478.625 319.76 478.625 321.672V324.231C478.625 326.142 477.061 327.707 475.149 327.707H360.993C359.081 327.707 357.517 326.142 357.517 324.231Z" fill="#8DFACE"/>
<path opacity="0.67" d="M357.517 324.231V321.672C357.517 319.76 359.081 318.196 360.993 318.196H414.802C416.714 318.196 418.278 319.76 418.278 321.672V324.231C418.278 326.142 416.714 327.707 414.802 327.707H360.993C359.081 327.707 357.517 326.142 357.517 324.231Z" fill="#8DFACE"/>
<path d="M357.517 324.231V321.672C357.517 319.76 359.081 318.196 360.993 318.196H376.852C378.764 318.196 380.328 319.76 380.328 321.672V324.231C380.328 326.142 378.764 327.707 376.852 327.707H360.993C359.081 327.707 357.517 326.142 357.517 324.231Z" fill="#8DFACE"/>
<path opacity="0.43" d="M357.517 353.77V351.211C357.517 349.299 359.081 347.735 360.993 347.735H475.149C477.06 347.735 478.625 349.299 478.625 351.211V353.77C478.625 355.681 477.061 357.246 475.149 357.246H360.993C359.081 357.246 357.517 355.682 357.517 353.77Z" fill="#8DFACE"/>
<path opacity="0.67" d="M357.517 353.77V351.211C357.517 349.299 359.081 347.735 360.993 347.735H456.999C458.91 347.735 460.475 349.299 460.475 351.211V353.77C460.475 355.681 458.91 357.246 456.999 357.246H360.993C359.081 357.246 357.517 355.682 357.517 353.77Z" fill="#8DFACE"/>
<path d="M357.517 353.77V351.211C357.517 349.299 359.081 347.735 360.993 347.735H421.026C422.937 347.735 424.502 349.299 424.502 351.211V353.77C424.502 355.681 422.937 357.246 421.026 357.246H360.993C359.081 357.246 357.517 355.682 357.517 353.77Z" fill="#8DFACE"/>
<path opacity="0.43" d="M357.517 383.58V381.022C357.517 379.11 359.081 377.545 360.993 377.545H475.149C477.06 377.545 478.625 379.11 478.625 381.022V383.58C478.625 385.492 477.061 387.056 475.149 387.056H360.993C359.081 387.056 357.517 385.492 357.517 383.58Z" fill="#8DFACE"/>
<path opacity="0.67" d="M357.517 383.58V381.022C357.517 379.11 359.081 377.545 360.993 377.545H433.662C435.574 377.545 437.138 379.11 437.138 381.022V383.58C437.138 385.492 435.574 387.056 433.662 387.056H360.993C359.081 387.056 357.517 385.492 357.517 383.58Z" fill="#8DFACE"/>
<path d="M357.517 383.58V381.022C357.517 379.11 359.081 377.545 360.993 377.545H401.298C403.21 377.545 404.774 379.11 404.774 381.022V383.58C404.774 385.492 403.21 387.056 401.298 387.056H360.993C359.081 387.056 357.517 385.492 357.517 383.58Z" fill="#8DFACE"/>
<defs>
<linearGradient id="paint0_linear_1476_1689" x1="468.776" y1="38.1528" x2="452.491" y2="4.14399" gradientUnits="userSpaceOnUse">
<stop offset="0.2301" stop-color="#E8BF00"/>
<stop offset="0.3764" stop-color="#E8C003"/>
<stop offset="0.4876" stop-color="#E9C30D"/>
<stop offset="0.5873" stop-color="#EBC71D"/>
<stop offset="0.6802" stop-color="#EECE34"/>
<stop offset="0.7683" stop-color="#F1D652"/>
<stop offset="0.853" stop-color="#F5E176"/>
<stop offset="0.9333" stop-color="#FAEDA1"/>
<stop offset="1" stop-color="#FFF9CA"/>
</linearGradient>
<linearGradient id="paint1_linear_1476_1689" x1="474.702" y1="44.6668" x2="429.704" y2="-6.43705" gradientUnits="userSpaceOnUse">
<stop offset="0.1215" stop-color="#FEF7B5"/>
<stop offset="0.2254" stop-color="#FEF6B2"/>
<stop offset="0.2994" stop-color="#FDF4A9"/>
<stop offset="0.3642" stop-color="#FBF099"/>
<stop offset="0.4236" stop-color="#F8EA83"/>
<stop offset="0.4794" stop-color="#F5E366"/>
<stop offset="0.5325" stop-color="#F1D943"/>
<stop offset="0.5825" stop-color="#ECCF1A"/>
<stop offset="0.6105" stop-color="#E9C800"/>
</linearGradient>
<linearGradient id="paint2_linear_1476_1689" x1="472.213" y1="7.33265" x2="444.274" y2="33.9471" gradientUnits="userSpaceOnUse">
<stop offset="0.2301" stop-color="#E8BF00"/>
<stop offset="0.4003" stop-color="#EDCB28"/>
<stop offset="0.7801" stop-color="#F8E78D"/>
<stop offset="1" stop-color="#FFF9CA"/>
</linearGradient>
<linearGradient id="paint3_linear_1476_1689" x1="471.295" y1="12.4828" x2="460.491" y2="25.5622" gradientUnits="userSpaceOnUse">
<stop offset="0.2301" stop-color="#E8BF00"/>
<stop offset="0.4003" stop-color="#EDCB28"/>
<stop offset="0.7801" stop-color="#F8E78D"/>
<stop offset="1" stop-color="#FFF9CA"/>
</linearGradient>
<linearGradient id="paint4_linear_1476_1689" x1="462.508" y1="225.641" x2="497.623" y2="152.306" gradientUnits="userSpaceOnUse">
<stop offset="0.2301" stop-color="#E8BF00"/>
<stop offset="0.3764" stop-color="#E8C003"/>
<stop offset="0.4876" stop-color="#E9C30D"/>
<stop offset="0.5873" stop-color="#EBC71D"/>
<stop offset="0.6802" stop-color="#EECE34"/>
<stop offset="0.7683" stop-color="#F1D652"/>
<stop offset="0.853" stop-color="#F5E176"/>
<stop offset="0.9333" stop-color="#FAEDA1"/>
<stop offset="1" stop-color="#FFF9CA"/>
</linearGradient>
<linearGradient id="paint5_linear_1476_1689" x1="449.73" y1="239.687" x2="546.76" y2="129.49" gradientUnits="userSpaceOnUse">
<stop offset="0.1215" stop-color="#FEF7B5"/>
<stop offset="0.2254" stop-color="#FEF6B2"/>
<stop offset="0.2994" stop-color="#FDF4A9"/>
<stop offset="0.3642" stop-color="#FBF099"/>
<stop offset="0.4236" stop-color="#F8EA83"/>
<stop offset="0.4794" stop-color="#F5E366"/>
<stop offset="0.5325" stop-color="#F1D943"/>
<stop offset="0.5825" stop-color="#ECCF1A"/>
<stop offset="0.6105" stop-color="#E9C800"/>
</linearGradient>
<linearGradient id="paint6_linear_1476_1689" x1="455.097" y1="159.183" x2="515.342" y2="216.572" gradientUnits="userSpaceOnUse">
<stop offset="0.2301" stop-color="#E8BF00"/>
<stop offset="0.4003" stop-color="#EDCB28"/>
<stop offset="0.7801" stop-color="#F8E78D"/>
<stop offset="1" stop-color="#FFF9CA"/>
</linearGradient>
<linearGradient id="paint7_linear_1476_1689" x1="457.078" y1="170.287" x2="480.374" y2="198.491" gradientUnits="userSpaceOnUse">
<stop offset="0.2301" stop-color="#E8BF00"/>
<stop offset="0.4003" stop-color="#EDCB28"/>
<stop offset="0.7801" stop-color="#F8E78D"/>
<stop offset="1" stop-color="#FFF9CA"/>
</linearGradient>
<linearGradient id="paint8_linear_1476_1689" x1="527.808" y1="52.2732" x2="559.318" y2="118.079" gradientUnits="userSpaceOnUse">
<stop offset="0.2301" stop-color="#E8BF00"/>
<stop offset="0.3764" stop-color="#E8C003"/>
<stop offset="0.4876" stop-color="#E9C30D"/>
<stop offset="0.5873" stop-color="#EBC71D"/>
<stop offset="0.6802" stop-color="#EECE34"/>
<stop offset="0.7683" stop-color="#F1D652"/>
<stop offset="0.853" stop-color="#F5E176"/>
<stop offset="0.9333" stop-color="#FAEDA1"/>
<stop offset="1" stop-color="#FFF9CA"/>
</linearGradient>
<linearGradient id="paint9_linear_1476_1689" x1="516.343" y1="39.6696" x2="603.411" y2="138.554" gradientUnits="userSpaceOnUse">
<stop offset="0.1215" stop-color="#FEF7B5"/>
<stop offset="0.2254" stop-color="#FEF6B2"/>
<stop offset="0.2994" stop-color="#FDF4A9"/>
<stop offset="0.3642" stop-color="#FBF099"/>
<stop offset="0.4236" stop-color="#F8EA83"/>
<stop offset="0.4794" stop-color="#F5E366"/>
<stop offset="0.5325" stop-color="#F1D943"/>
<stop offset="0.5825" stop-color="#ECCF1A"/>
<stop offset="0.6105" stop-color="#E9C800"/>
</linearGradient>
<linearGradient id="paint10_linear_1476_1689" x1="521.158" y1="111.909" x2="575.218" y2="60.4115" gradientUnits="userSpaceOnUse">
<stop offset="0.2301" stop-color="#E8BF00"/>
<stop offset="0.4003" stop-color="#EDCB28"/>
<stop offset="0.7801" stop-color="#F8E78D"/>
<stop offset="1" stop-color="#FFF9CA"/>
</linearGradient>
<linearGradient id="paint11_linear_1476_1689" x1="522.936" y1="101.945" x2="543.84" y2="76.6366" gradientUnits="userSpaceOnUse">
<stop offset="0.2301" stop-color="#E8BF00"/>
<stop offset="0.4003" stop-color="#EDCB28"/>
<stop offset="0.7801" stop-color="#F8E78D"/>
<stop offset="1" stop-color="#FFF9CA"/>
</linearGradient>
<linearGradient id="paint12_linear_1476_1689" x1="296.003" y1="-72.9229" x2="253.892" y2="565.065" gradientUnits="userSpaceOnUse">
<stop offset="0.2474" stop-color="#6343FF"/>
<stop offset="0.345" stop-color="#6C4EFF"/>
<stop offset="0.5172" stop-color="#856CFF"/>
<stop offset="0.5819" stop-color="#9079FF"/>
<stop offset="0.8265" stop-color="#927BFF"/>
<stop offset="0.9145" stop-color="#9782FF"/>
<stop offset="0.9771" stop-color="#A18DFF"/>
<stop offset="1" stop-color="#A694FF"/>
</linearGradient>
<linearGradient id="paint13_linear_1476_1689" x1="nan" y1="nan" x2="nan" y2="nan" gradientUnits="userSpaceOnUse">
<stop stop-color="#A694FF"/>
<stop offset="0.0396" stop-color="#9782FF"/>
<stop offset="0.1275" stop-color="#7B60FF"/>
<stop offset="0.1999" stop-color="#694BFF"/>
<stop offset="0.2474" stop-color="#6343FF"/>
<stop offset="0.3234" stop-color="#6C4EFF"/>
<stop offset="0.5304" stop-color="#8066FF"/>
<stop offset="0.7225" stop-color="#8C74FF"/>
<stop offset="0.884" stop-color="#9079FF"/>
</linearGradient>
<linearGradient id="paint14_linear_1476_1689" x1="nan" y1="nan" x2="nan" y2="nan" gradientUnits="userSpaceOnUse">
<stop stop-color="#A694FF"/>
<stop offset="0.0396" stop-color="#9782FF"/>
<stop offset="0.1275" stop-color="#7B60FF"/>
<stop offset="0.1999" stop-color="#694BFF"/>
<stop offset="0.2474" stop-color="#6343FF"/>
<stop offset="0.3234" stop-color="#6C4EFF"/>
<stop offset="0.5304" stop-color="#8066FF"/>
<stop offset="0.7225" stop-color="#8C74FF"/>
<stop offset="0.884" stop-color="#9079FF"/>
</linearGradient>
<linearGradient id="paint15_linear_1476_1689" x1="nan" y1="nan" x2="nan" y2="nan" gradientUnits="userSpaceOnUse">
<stop stop-color="#A694FF"/>
<stop offset="0.0396" stop-color="#9782FF"/>
<stop offset="0.1275" stop-color="#7B60FF"/>
<stop offset="0.1999" stop-color="#694BFF"/>
<stop offset="0.2474" stop-color="#6343FF"/>
<stop offset="0.3234" stop-color="#6C4EFF"/>
<stop offset="0.5304" stop-color="#8066FF"/>
<stop offset="0.7225" stop-color="#8C74FF"/>
<stop offset="0.884" stop-color="#9079FF"/>
</linearGradient>
<linearGradient id="paint16_linear_1476_1689" x1="245.992" y1="359.817" x2="265.644" y2="387.634" gradientUnits="userSpaceOnUse">
<stop offset="0.2474" stop-color="#6343FF"/>
<stop offset="0.345" stop-color="#6C4EFF"/>
<stop offset="0.5172" stop-color="#856CFF"/>
<stop offset="0.5819" stop-color="#9079FF"/>
<stop offset="0.8265" stop-color="#927BFF"/>
<stop offset="0.9145" stop-color="#9782FF"/>
<stop offset="0.9771" stop-color="#A18DFF"/>
<stop offset="1" stop-color="#A694FF"/>
</linearGradient>
<linearGradient id="paint17_linear_1476_1689" x1="269.716" y1="393.757" x2="289.368" y2="421.574" gradientUnits="userSpaceOnUse">
<stop offset="0.2474" stop-color="#6343FF"/>
<stop offset="0.345" stop-color="#6C4EFF"/>
<stop offset="0.5172" stop-color="#856CFF"/>
<stop offset="0.5819" stop-color="#9079FF"/>
<stop offset="0.8265" stop-color="#927BFF"/>
<stop offset="0.9145" stop-color="#9782FF"/>
<stop offset="0.9771" stop-color="#A18DFF"/>
<stop offset="1" stop-color="#A694FF"/>
</linearGradient>
<linearGradient id="paint18_linear_1476_1689" x1="311.257" y1="369.222" x2="330.908" y2="397.038" gradientUnits="userSpaceOnUse">
<stop offset="0.2474" stop-color="#6343FF"/>
<stop offset="0.345" stop-color="#6C4EFF"/>
<stop offset="0.5172" stop-color="#856CFF"/>
<stop offset="0.5819" stop-color="#9079FF"/>
<stop offset="0.8265" stop-color="#927BFF"/>
<stop offset="0.9145" stop-color="#9782FF"/>
<stop offset="0.9771" stop-color="#A18DFF"/>
<stop offset="1" stop-color="#A694FF"/>
</linearGradient>
<linearGradient id="paint19_linear_1476_1689" x1="328.292" y1="393.402" x2="347.944" y2="421.219" gradientUnits="userSpaceOnUse">
<stop offset="0.2474" stop-color="#6343FF"/>
<stop offset="0.345" stop-color="#6C4EFF"/>
<stop offset="0.5172" stop-color="#856CFF"/>
<stop offset="0.5819" stop-color="#9079FF"/>
<stop offset="0.8265" stop-color="#927BFF"/>
<stop offset="0.9145" stop-color="#9782FF"/>
<stop offset="0.9771" stop-color="#A18DFF"/>
<stop offset="1" stop-color="#A694FF"/>
</linearGradient>
<linearGradient id="paint20_linear_1476_1689" x1="218.968" y1="344.595" x2="206.737" y2="404.727" gradientUnits="userSpaceOnUse">
<stop offset="0.2474" stop-color="#6343FF"/>
<stop offset="0.345" stop-color="#6C4EFF"/>
<stop offset="0.5172" stop-color="#856CFF"/>
<stop offset="0.5819" stop-color="#9079FF"/>
<stop offset="0.8265" stop-color="#927BFF"/>
<stop offset="0.9145" stop-color="#9782FF"/>
<stop offset="0.9771" stop-color="#A18DFF"/>
<stop offset="1" stop-color="#A694FF"/>
</linearGradient>
<linearGradient id="paint21_linear_1476_1689" x1="217.817" y1="359.32" x2="205.587" y2="419.452" gradientUnits="userSpaceOnUse">
<stop offset="0.2474" stop-color="#6343FF"/>
<stop offset="0.345" stop-color="#6C4EFF"/>
<stop offset="0.5172" stop-color="#856CFF"/>
<stop offset="0.5819" stop-color="#9079FF"/>
<stop offset="0.8265" stop-color="#927BFF"/>
<stop offset="0.9145" stop-color="#9782FF"/>
<stop offset="0.9771" stop-color="#A18DFF"/>
<stop offset="1" stop-color="#A694FF"/>
</linearGradient>
<linearGradient id="paint22_linear_1476_1689" x1="216.77" y1="374.044" x2="204.539" y2="434.176" gradientUnits="userSpaceOnUse">
<stop offset="0.2474" stop-color="#6343FF"/>
<stop offset="0.345" stop-color="#6C4EFF"/>
<stop offset="0.5172" stop-color="#856CFF"/>
<stop offset="0.5819" stop-color="#9079FF"/>
<stop offset="0.8265" stop-color="#927BFF"/>
<stop offset="0.9145" stop-color="#9782FF"/>
<stop offset="0.9771" stop-color="#A18DFF"/>
<stop offset="1" stop-color="#A694FF"/>
</linearGradient>
<linearGradient id="paint23_linear_1476_1689" x1="265.175" y1="463.157" x2="275.631" y2="152.118" gradientUnits="userSpaceOnUse">
<stop offset="0.2759" stop-color="#6343FF" stop-opacity="0"/>
<stop offset="0.4082" stop-color="#6646FF" stop-opacity="0.297"/>
<stop offset="0.5215" stop-color="#6F51FF" stop-opacity="0.5514"/>
<stop offset="0.6275" stop-color="#7D63FF" stop-opacity="0.7895"/>
<stop offset="0.7213" stop-color="#9079FF"/>
</linearGradient>
<linearGradient id="paint24_linear_1476_1689" x1="16.7529" y1="256.902" x2="51.6935" y2="183.932" gradientUnits="userSpaceOnUse">
<stop offset="0.2301" stop-color="#E8BF00"/>
<stop offset="0.3764" stop-color="#E8C003"/>
<stop offset="0.4876" stop-color="#E9C30D"/>
<stop offset="0.5873" stop-color="#EBC71D"/>
<stop offset="0.6802" stop-color="#EECE34"/>
<stop offset="0.7683" stop-color="#F1D652"/>
<stop offset="0.853" stop-color="#F5E176"/>
<stop offset="0.9333" stop-color="#FAEDA1"/>
<stop offset="1" stop-color="#FFF9CA"/>
</linearGradient>
<linearGradient id="paint25_linear_1476_1689" x1="4.03882" y1="270.879" x2="100.587" y2="161.229" gradientUnits="userSpaceOnUse">
<stop offset="0.1215" stop-color="#FEF7B5"/>
<stop offset="0.2254" stop-color="#FEF6B2"/>
<stop offset="0.2994" stop-color="#FDF4A9"/>
<stop offset="0.3642" stop-color="#FBF099"/>
<stop offset="0.4236" stop-color="#F8EA83"/>
<stop offset="0.4794" stop-color="#F5E366"/>
<stop offset="0.5325" stop-color="#F1D943"/>
<stop offset="0.5825" stop-color="#ECCF1A"/>
<stop offset="0.6105" stop-color="#E9C800"/>
</linearGradient>
<linearGradient id="paint26_linear_1476_1689" x1="9.37888" y1="190.774" x2="69.3248" y2="247.879" gradientUnits="userSpaceOnUse">
<stop offset="0.2301" stop-color="#E8BF00"/>
<stop offset="0.4003" stop-color="#EDCB28"/>
<stop offset="0.7801" stop-color="#F8E78D"/>
<stop offset="1" stop-color="#FFF9CA"/>
</linearGradient>
<linearGradient id="paint27_linear_1476_1689" x1="11.3501" y1="201.823" x2="34.53" y2="229.887" gradientUnits="userSpaceOnUse">
<stop offset="0.2301" stop-color="#E8BF00"/>
<stop offset="0.4003" stop-color="#EDCB28"/>
<stop offset="0.7801" stop-color="#F8E78D"/>
<stop offset="1" stop-color="#FFF9CA"/>
</linearGradient>
<linearGradient id="paint28_linear_1476_1689" x1="170.669" y1="244.296" x2="170.669" y2="208.685" gradientUnits="userSpaceOnUse">
<stop offset="0.2019" stop-color="#12B5AD" stop-opacity="0"/>
<stop offset="1" stop-color="#00CF9B"/>
</linearGradient>
</defs>
</svg>
