<svg width="70" height="70" viewBox="0 0 70 70" fill="none" xmlns="http://www.w3.org/2000/svg">
<rect width="70" height="70" rx="35" fill="white"/>
<path d="M37.2295 32.1873C38.495 30.419 39.1754 28.2992 39.1754 26.1248C39.1754 23.9503 38.495 21.8305 37.2295 20.0623C38.4145 19.255 39.8165 18.8264 41.2503 18.8331C43.1842 18.8331 45.0389 19.6013 46.4063 20.9688C47.7738 22.3362 48.542 24.1909 48.542 26.1248C48.542 28.0586 47.7738 29.9133 46.4063 31.2807C45.0389 32.6482 43.1842 33.4164 41.2503 33.4164C39.8165 33.4231 38.4145 32.9945 37.2295 32.1873ZM21.4587 26.1248C21.4587 24.6826 21.8863 23.2728 22.6875 22.0737C23.4887 20.8746 24.6275 19.94 25.9599 19.3881C27.2923 18.8362 28.7584 18.6918 30.1729 18.9732C31.5873 19.2545 32.8866 19.949 33.9063 20.9688C34.9261 21.9885 35.6205 23.2878 35.9019 24.7022C36.1832 26.1167 36.0388 27.5828 35.4869 28.9151C34.9351 30.2475 34.0005 31.3863 32.8014 32.1876C31.6023 32.9888 30.1925 33.4164 28.7503 33.4164C26.8165 33.4164 24.9618 32.6482 23.5943 31.2807C22.2269 29.9133 21.4587 28.0586 21.4587 26.1248ZM25.6253 26.1248C25.6253 26.7428 25.8086 27.347 26.152 27.8609C26.4954 28.3748 26.9834 28.7754 27.5544 29.0119C28.1255 29.2484 28.7538 29.3103 29.36 29.1897C29.9662 29.0691 30.523 28.7715 30.96 28.3345C31.3971 27.8974 31.6947 27.3406 31.8153 26.7344C31.9359 26.1282 31.874 25.4999 31.6375 24.9289C31.4009 24.3578 31.0004 23.8698 30.4865 23.5264C29.9726 23.183 29.3684 22.9998 28.7503 22.9998C27.9215 22.9998 27.1267 23.329 26.5406 23.915C25.9546 24.5011 25.6253 25.2959 25.6253 26.1248ZM43.3337 45.9164V50.0831H14.167V45.9164C14.167 45.9164 14.167 37.5831 28.7503 37.5831C43.3337 37.5831 43.3337 45.9164 43.3337 45.9164ZM39.167 45.9164C38.8753 44.2914 36.3962 41.7498 28.7503 41.7498C21.1045 41.7498 18.4795 44.4789 18.3337 45.9164M43.2295 37.5831C44.5064 38.5763 45.5504 39.8369 46.2882 41.2766C47.026 42.7162 47.4397 44.2999 47.5003 45.9164V50.0831H55.8337V45.9164C55.8337 45.9164 55.8337 38.3539 43.2087 37.5831H43.2295Z" fill="url(#paint0_linear_4380_3935)"/>
<defs>
<linearGradient id="paint0_linear_4380_3935" x1="34.9697" y1="21.8346" x2="38.0317" y2="46.8664" gradientUnits="userSpaceOnUse">
<stop stop-color="#00A5E3"/>
<stop offset="0.5" stop-color="#373188"/>
<stop offset="1" stop-color="#FD0026"/>
</linearGradient>
</defs>
</svg>
