<svg width="20" height="20" viewBox="0 0 20 20" fill="none" xmlns="http://www.w3.org/2000/svg">
<path d="M5.33332 10.0003L9.33332 13.3337L14.6667 6.66699M9.99999 19.3337C8.77432 19.3337 7.56065 19.0922 6.42828 18.6232C5.29591 18.1542 4.26701 17.4667 3.40033 16.6C2.53365 15.7333 1.84616 14.7044 1.37711 13.572C0.90807 12.4397 0.666656 11.226 0.666656 10.0003C0.666656 8.77465 0.90807 7.56099 1.37711 6.42861C1.84616 5.29624 2.53365 4.26734 3.40033 3.40066C4.26701 2.53398 5.29591 1.84649 6.42828 1.37745C7.56065 0.908406 8.77432 0.666992 9.99999 0.666992C12.4753 0.666992 14.8493 1.65032 16.5997 3.40066C18.35 5.151 19.3333 7.52497 19.3333 10.0003C19.3333 12.4757 18.35 14.8496 16.5997 16.6C14.8493 18.3503 12.4753 19.3337 9.99999 19.3337Z" stroke="black"/>
</svg>
