<svg width="221" height="107" viewBox="0 0 221 107" fill="none" xmlns="http://www.w3.org/2000/svg">
<path d="M48.917 24.0518H0V23.3718H48.917V24.0518Z" fill="white"/>
<path d="M220.128 24.0518H171.21V23.3718H220.128V24.0518Z" fill="white"/>
<path d="M165.093 21.1484C163.726 21.9144 162.541 20.4744 163.105 19.6404C163.674 18.8024 164.647 19.2384 164.593 19.8354C164.539 20.4314 163.883 20.1514 163.883 20.1514C163.883 20.1514 164.289 21.0144 164.995 20.4774C165.708 19.9404 165.604 18.2024 163.674 18.2994C161.739 18.3954 158.461 20.4774 158.461 20.4774C160.77 19.7894 162.455 21.1684 162.455 21.1684C161.314 20.8114 160.139 21.0204 160.139 21.0204C161.377 21.2804 162.946 22.7294 163.073 24.8424C163.199 26.9594 161.966 27.8224 161.142 27.6314C160.316 27.4364 160.239 26.4674 161.029 26.1924C161.819 25.9174 161.923 26.6184 161.923 26.6184C162.584 26.1224 163.175 23.8784 161.214 22.3024C159.248 20.7304 156.457 21.9074 156.457 21.9074C157.826 21.7144 159.632 23.0184 159.632 23.0184C158.213 22.2904 155.219 22.1824 153.744 22.9694C152.271 23.7584 149.546 27.3224 144.469 25.8674C141.856 25.1174 140.861 23.1124 140.955 21.1424C140.436 22.4224 139.448 23.5614 137.849 24.3784C131.334 27.7064 127.552 22.1514 129.128 19.0154C130.706 15.8744 134.912 16.4524 134.73 19.2384C134.545 22.0294 130.585 20.8984 130.585 20.8984C131.331 24.2914 135.086 24.0484 136.68 22.5434C138.277 21.0394 140.323 16.0514 133.607 13.7054C126.889 11.3614 124.531 16.4434 120.587 21.2504C116.642 26.0594 111.99 23.7734 111.99 23.7734C118.794 23.9084 120.947 16.5664 120.947 16.5664C119.463 9.81441 114.566 13.2454 113.538 14.0544C112.962 19.5804 111.081 23.4594 110.199 25.0154C109.28 23.4804 107.306 19.6414 106.601 14.1244C105.807 13.4794 100.637 9.59443 99.1044 16.5654C99.1044 16.5654 101.259 23.9074 108.061 23.7724C108.061 23.7724 103.409 26.0574 99.4644 21.2494C95.5214 16.4424 93.1624 11.3604 86.4444 13.7044C79.7264 16.0504 81.7764 21.0384 83.3714 22.5424C84.9654 24.0484 88.7194 24.2904 89.4664 20.8974C89.4664 20.8974 85.5074 22.0284 85.3214 19.2374C85.1384 16.4524 89.3444 15.8744 90.9234 19.0144C92.4994 22.1514 88.7174 27.7054 82.2044 24.3774C80.6864 23.6024 79.7224 22.5364 79.1844 21.3364C79.2044 23.2424 78.1844 25.1414 75.6594 25.8654C70.5814 27.3204 67.8564 23.7564 66.3834 22.9674C64.9084 22.1804 61.9154 22.2874 60.4954 23.0164C60.4954 23.0164 62.3014 21.7114 63.6704 21.9054C63.6704 21.9054 60.8804 20.7274 58.9134 22.3004C56.9524 23.8764 57.5444 26.1204 58.2044 26.6164C58.2044 26.6164 58.3084 25.9154 59.0994 26.1904C59.8894 26.4654 59.8114 27.4344 58.9854 27.6294C58.1624 27.8204 56.9294 26.9574 57.0544 24.8404C57.1824 22.7274 58.7504 21.2774 59.9894 21.0184C59.9894 21.0184 58.8124 20.8094 57.6724 21.1664C57.6724 21.1664 59.3584 19.7874 61.6674 20.4754C61.6674 20.4754 58.3894 18.3934 56.4544 18.2974C54.5234 18.1994 54.4204 19.9384 55.1324 20.4754C55.8394 21.0124 56.2454 20.1494 56.2454 20.1494C56.2454 20.1494 55.5884 20.4284 55.5344 19.8334C55.4804 19.2354 56.4544 18.8004 57.0234 19.6384C57.5864 20.4724 56.4024 21.9114 55.0354 21.1464C53.6674 20.3804 53.8584 17.5624 56.3034 17.6264C58.7474 17.6944 63.7094 21.4624 66.5414 22.2984C69.3724 23.1404 73.7374 24.1634 75.6664 21.4524C75.6664 21.4524 74.0084 24.8624 69.0214 24.0094C69.0214 24.0094 72.8964 26.9904 75.8044 24.7634C78.7084 22.5404 78.1634 18.4274 75.2574 17.4334C75.2574 17.4334 75.9284 19.0294 73.7904 18.8614C71.6484 18.6894 73.0654 15.2774 76.4034 16.7464C77.3944 17.1814 78.1724 18.0384 78.6524 19.0614C78.4894 15.5394 80.9514 11.6884 83.8074 10.4534C88.3594 8.47844 93.9914 9.28742 97.7024 15.3224C97.7024 15.3224 98.5634 9.98444 102.455 10.2034C105.143 10.3514 106.145 12.2054 106.509 13.3404C106.415 12.4214 106.355 11.4624 106.343 10.4594C106.287 5.97142 107.77 3.41843 109.904 0.000432968C112.118 3.37143 113.66 5.89142 113.71 10.3774C113.722 11.3224 113.691 12.2304 113.626 13.1034C114.05 11.9654 115.087 10.3424 117.596 10.2044C121.487 9.98541 122.351 15.3234 122.351 15.3234C126.061 9.28843 131.692 8.47941 136.247 10.4544C139.151 11.7114 141.646 15.6764 141.387 19.2464C141.857 18.1414 142.674 17.2084 143.726 16.7474C147.064 15.2784 148.481 18.6904 146.339 18.8624C144.201 19.0304 144.872 17.4344 144.872 17.4344C141.966 18.4284 141.42 22.5414 144.324 24.7644C147.232 26.9914 151.107 24.0104 151.107 24.0104C146.122 24.8644 144.463 21.4534 144.463 21.4534C146.392 24.1644 150.757 23.1414 153.587 22.2994C156.419 21.4634 161.382 17.6954 163.826 17.6274C166.27 17.5644 166.46 20.3834 165.093 21.1484Z" fill="white"/>
<path d="M27.4189 66.2432C24.2288 66.2432 21.8981 65.8265 20.4268 64.9932C18.9554 64.1598 18.2197 63.1182 18.2197 61.8682C18.2197 60.6572 18.6429 59.8044 19.4893 59.3096C20.3356 58.8018 21.3903 58.5479 22.6533 58.5479C23.3174 58.5479 24.014 58.7041 24.7432 59.0166C25.4854 59.3161 26.195 59.7002 26.8721 60.1689C27.5492 60.6247 28.1221 61.0999 28.5908 61.5947C29.2028 60.0192 30.0231 58.1312 31.0518 55.9307C31.5465 54.876 32.0674 53.7952 32.6143 52.6885C33.1611 51.5687 33.708 50.4684 34.2549 49.3877C34.8018 48.307 35.3356 47.2653 35.8564 46.2627C36.3773 45.2601 36.859 44.3421 37.3018 43.5088C38.1872 41.8291 38.8512 40.6051 39.2939 39.8369C39.6846 39.0426 40.2054 38.4502 40.8564 38.0596C41.5205 37.6689 42.152 37.4736 42.751 37.4736C43.1676 37.4736 43.5192 37.5843 43.8057 37.8057C44.0921 38.014 44.2354 38.3265 44.2354 38.7432C44.2354 39.0947 44.1507 39.4463 43.9814 39.7979C42.7965 42.3239 41.6768 44.6676 40.6221 46.8291C39.5674 48.9906 38.4411 51.2171 37.2432 53.5088C36.1755 55.5661 35.1468 57.4346 34.1572 59.1143C33.1807 60.7809 32.3343 62.0765 31.6182 63.001C32.751 62.9229 33.7861 62.8187 34.7236 62.6885C35.6611 62.5583 36.5661 62.4085 37.4385 62.2393C38.2848 62.07 39.1637 61.8812 40.0752 61.6729C40.9867 61.4645 41.9307 61.2627 42.9072 61.0674C43.0244 61.0153 43.1676 60.9893 43.3369 60.9893C43.7406 60.9893 44.0596 61.152 44.2939 61.4775C44.5283 61.79 44.6455 62.1481 44.6455 62.5518C44.6455 62.9163 44.1442 63.3135 43.1416 63.7432C42.152 64.1729 40.8239 64.5765 39.1572 64.9541C37.5687 65.3187 35.7458 65.6247 33.6885 65.8721C31.6442 66.1195 29.5544 66.2432 27.4189 66.2432ZM26.7158 63.1377C26.2731 62.8903 25.7848 62.6169 25.251 62.3174C24.7171 62.0179 24.2158 61.7575 23.7471 61.5361C23.2783 61.3148 22.9072 61.2041 22.6338 61.2041C22.165 61.2041 21.9307 61.3278 21.9307 61.5752C21.9307 61.9788 22.3604 62.3369 23.2197 62.6494C24.0791 62.9489 25.2445 63.1117 26.7158 63.1377ZM46.4033 66.1455C45.3617 66.1455 44.4697 65.8916 43.7275 65.3838C42.9984 64.863 42.4385 64.1859 42.0479 63.3525C41.6702 62.5062 41.4814 61.6012 41.4814 60.6377C41.4814 59.7913 41.7223 58.8473 42.2041 57.8057C42.6989 56.751 43.402 55.7419 44.3135 54.7783C45.2249 53.8148 46.3122 53.0205 47.5752 52.3955C48.8512 51.7575 50.238 51.4385 51.7354 51.4385C52.8161 51.4385 53.6234 51.6989 54.1572 52.2197C54.6911 52.7406 54.958 53.4632 54.958 54.3877C54.958 54.9346 54.8148 55.5075 54.5283 56.1064C54.2419 56.7054 53.7471 57.3109 53.0439 57.9229C52.3408 58.5479 51.3968 59.1859 50.2119 59.8369C49.04 60.4749 47.5687 61.1195 45.7979 61.7705C45.9411 62.5778 46.5921 62.9814 47.751 62.9814C48.6494 62.9814 49.6195 62.7992 50.6611 62.4346C51.7028 62.057 52.7054 61.6273 53.6689 61.1455C54.6325 60.6768 55.4593 60.234 56.1494 59.8174C56.8395 59.4007 57.2497 59.1663 57.3799 59.1143C57.4971 59.0361 57.6012 58.9906 57.6924 58.9775C57.7965 58.9645 57.8877 58.958 57.9658 58.958C58.2783 58.958 58.4932 59.0817 58.6104 59.3291C58.7406 59.5635 58.8057 59.7588 58.8057 59.915C58.8057 60.0322 58.7926 60.1755 58.7666 60.3447C58.7406 60.501 58.6429 60.6833 58.4736 60.8916C58.3044 61.0609 57.8096 61.432 56.9893 62.0049C56.1689 62.5778 55.29 63.1312 54.3525 63.665C53.2067 64.3031 51.9307 64.876 50.5244 65.3838C49.1182 65.8916 47.7445 66.1455 46.4033 66.1455ZM45.5049 59.5244C46.3512 59.0817 47.2106 58.5674 48.083 57.9814C48.9684 57.3825 49.639 56.9463 50.0947 56.6729C50.7067 56.2822 51.1104 55.9372 51.3057 55.6377C51.527 55.3122 51.6377 55.0387 51.6377 54.8174C51.6377 54.6221 51.5726 54.4658 51.4424 54.3486C51.3252 54.2314 51.1885 54.1598 51.0322 54.1338L50.8564 54.1143H50.6807C49.9645 54.1143 49.3005 54.3226 48.6885 54.7393C48.0895 55.1429 47.5817 55.6507 47.165 56.2627C46.7223 56.9007 46.3643 57.4997 46.0908 58.0596C45.8304 58.6195 45.6351 59.1077 45.5049 59.5244ZM93.5518 45.6182C93.2262 45.6182 92.8551 45.5531 92.4385 45.4229C92.0218 45.2796 91.8135 44.9867 91.8135 44.5439C91.8135 44.3747 91.9046 44.1338 92.0869 43.8213C92.2822 43.5088 92.471 43.1898 92.6533 42.8643C92.8356 42.5257 92.9268 42.2523 92.9268 42.0439C92.9268 41.6012 92.6143 41.2757 91.9893 41.0674C91.3643 40.8721 90.3161 40.7744 88.8447 40.7744C86.7484 40.8525 84.8799 41.0088 83.2393 41.2432C81.5986 41.4775 80.1077 41.7835 78.7666 42.1611C77.8942 42.4085 77.0348 42.6755 76.1885 42.9619C75.3421 43.2354 74.4893 43.5283 73.6299 43.8408C73.1872 44.0101 72.738 44.1729 72.2822 44.3291C71.8265 44.4854 71.3512 44.6481 70.8564 44.8174L70.6025 44.8955C70.4723 44.9215 70.3942 44.9346 70.3682 44.9346C69.9645 44.9346 69.626 44.7653 69.3525 44.4268C69.0921 44.0752 68.9619 43.6976 68.9619 43.2939C68.9619 42.7992 69.5348 42.2197 70.6807 41.5557C71.8395 40.8916 73.4085 40.2406 75.3877 39.6025C77.3408 38.9906 79.5088 38.4827 81.8916 38.0791C84.2744 37.6755 86.6702 37.4736 89.0791 37.4736C91.8656 37.4736 93.9098 37.8903 95.2119 38.7236C96.514 39.557 97.1781 40.6117 97.2041 41.8877C97.2041 42.2132 97.0479 42.6755 96.7354 43.2744C96.4229 43.8734 95.9932 44.4137 95.4463 44.8955C94.8994 45.3773 94.2679 45.6182 93.5518 45.6182ZM70.915 67.1025C70.4984 67.1025 70.1468 66.9919 69.8604 66.7705C69.5739 66.5622 69.4307 66.2497 69.4307 65.833C69.4307 65.6898 69.4437 65.5335 69.4697 65.3643C69.5088 65.182 69.5804 64.9867 69.6846 64.7783C70.6742 62.734 71.6637 60.7679 72.6533 58.8799C73.6429 56.9919 74.5934 55.2275 75.5049 53.5869C75.9606 52.7666 76.4033 51.9854 76.833 51.2432C77.2757 50.488 77.6989 49.7718 78.1025 49.0947C79.3005 47.1286 80.3486 45.5661 81.2471 44.4072C82.1455 43.2354 82.764 42.6494 83.1025 42.6494C83.5583 42.6494 83.8968 42.7796 84.1182 43.04C84.3395 43.3005 84.4502 43.6064 84.4502 43.958C84.4502 44.2184 84.3786 44.5049 84.2354 44.8174L78.9424 55.6768C78.3695 56.8747 77.7705 58.1051 77.1455 59.3682C76.5205 60.6182 75.9541 61.738 75.4463 62.7275C74.9515 63.7041 74.5934 64.3747 74.3721 64.7393C73.9814 65.5335 73.4541 66.126 72.79 66.5166C72.139 66.9072 71.514 67.1025 70.915 67.1025ZM84.8604 66.1455C84.2093 66.1455 83.8838 65.8135 83.8838 65.1494C83.8838 65.0062 83.9033 64.8304 83.9424 64.6221C83.9945 64.4007 84.0921 64.1598 84.2354 63.8994C84.4567 63.4827 84.6976 62.9945 84.958 62.4346C85.2184 61.8617 85.4919 61.2692 85.7783 60.6572C86.0908 59.9932 86.4489 59.2314 86.8525 58.3721C87.2692 57.4997 87.7575 56.4971 88.3174 55.3643C88.1351 55.208 87.9788 55.0192 87.8486 54.7979C87.7314 54.5635 87.6729 54.277 87.6729 53.9385C87.6729 53.3265 87.9072 52.8773 88.376 52.5908C88.8577 52.2913 89.4307 52.1416 90.0947 52.1416C90.7458 52.1416 91.3773 52.2588 91.9893 52.4932C92.6143 52.7145 92.9268 53.0531 92.9268 53.5088C92.9268 53.5609 92.8812 53.6846 92.79 53.8799C92.7119 54.0622 92.6729 54.1859 92.6729 54.251C92.6729 54.277 92.6794 54.29 92.6924 54.29H92.7119L92.751 54.2705C93.7145 53.6715 94.7497 53.1637 95.8564 52.7471C96.9632 52.3304 97.8747 52.1221 98.5908 52.1221C99.1768 52.1221 99.626 52.2653 99.9385 52.5518C100.264 52.8252 100.427 53.2939 100.427 53.958C100.427 54.1012 100.42 54.2575 100.407 54.4268C100.394 54.583 100.368 54.7523 100.329 54.9346C100.238 55.4163 99.8734 56.0413 99.2354 56.8096C98.5973 57.5778 97.9202 58.32 97.2041 59.0361C96.8786 59.3617 96.488 59.7523 96.0322 60.208C95.5765 60.6507 95.1794 61.0609 94.8408 61.4385C94.5023 61.8031 94.333 62.0505 94.333 62.1807C94.333 62.363 94.3981 62.4541 94.5283 62.4541C95.4658 62.0505 96.527 61.5557 97.7119 60.9697C98.8968 60.3708 100.043 59.7718 101.149 59.1729C102.256 58.5739 103.161 58.0726 103.864 57.6689C104.138 57.5127 104.372 57.4346 104.567 57.4346C105.114 57.4346 105.388 57.721 105.388 58.2939C105.388 58.5934 105.257 58.9385 104.997 59.3291C104.75 59.7067 104.326 60.1038 103.728 60.5205C103.168 60.8721 102.399 61.3604 101.423 61.9854C100.459 62.5973 99.5023 63.1768 98.5518 63.7236C97.6143 64.2575 96.7158 64.7132 95.8564 65.0908C95.0101 65.4684 94.3005 65.6572 93.7275 65.6572C92.8291 65.6572 92.152 65.4424 91.6963 65.0127C91.2536 64.583 91.0322 64.0296 91.0322 63.3525C91.0322 63.2354 91.0387 63.1572 91.0518 63.1182C91.195 62.2848 91.4945 61.4775 91.9502 60.6963C92.4059 59.915 92.8812 59.1989 93.376 58.5479C93.8708 57.9098 94.307 57.3174 94.6846 56.7705C95.0752 56.2236 95.2705 55.7549 95.2705 55.3643C95.2705 55.1689 95.1989 55.0713 95.0557 55.0713C94.8473 55.0713 94.4697 55.1755 93.9229 55.3838C93.376 55.5791 92.8356 55.8395 92.3018 56.165C91.7679 56.4906 91.4033 56.8356 91.208 57.2002C90.9476 57.6559 90.6156 58.2939 90.2119 59.1143C89.8213 59.9215 89.4307 60.7484 89.04 61.5947C88.6624 62.4411 88.3434 63.1442 88.083 63.7041C87.7965 64.4202 87.3213 65.0062 86.6572 65.4619C86.0062 65.9176 85.4072 66.1455 84.8604 66.1455ZM105.466 66.1455C105.023 66.1455 104.496 66.0218 103.884 65.7744C103.272 65.527 102.731 65.1169 102.263 64.5439C101.807 63.971 101.579 63.2028 101.579 62.2393C101.579 61.432 101.761 60.4229 102.126 59.2119C102.491 58.001 103.063 56.8096 103.845 55.6377C104.626 54.4398 105.622 53.4437 106.833 52.6494C108.057 51.8551 109.47 51.458 111.071 51.458C111.644 51.458 112.146 51.5296 112.575 51.6729C113.005 51.8161 113.369 51.9723 113.669 52.1416C113.838 52.2458 113.994 52.3564 114.138 52.4736C114.294 52.5778 114.437 52.695 114.567 52.8252L115.251 52.4932C115.446 52.402 115.648 52.3239 115.856 52.2588C116.078 52.1807 116.267 52.1416 116.423 52.1416C116.918 52.1416 117.321 52.2783 117.634 52.5518C117.946 52.8252 118.103 53.1247 118.103 53.4502C118.103 53.5544 118.096 53.626 118.083 53.665C117.992 54.0296 117.823 54.5309 117.575 55.1689C117.341 55.807 117.087 56.5166 116.813 57.2979C116.54 58.0531 116.306 58.7822 116.11 59.4854C115.928 60.1885 115.837 60.7679 115.837 61.2236C115.837 61.6143 115.902 61.9398 116.032 62.2002C116.162 62.4476 116.384 62.5713 116.696 62.5713C117.074 62.5713 117.582 62.3564 118.22 61.9268C118.858 61.484 119.515 60.9632 120.192 60.3643C120.557 60.0387 120.935 59.6937 121.325 59.3291C121.716 58.9515 122.113 58.5544 122.517 58.1377C122.725 57.9684 122.927 57.8838 123.122 57.8838C123.382 57.8838 123.597 58.014 123.767 58.2744C123.949 58.5218 124.04 58.8018 124.04 59.1143C124.04 59.4788 123.916 59.7848 123.669 60.0322C123.148 60.514 122.614 61.0283 122.067 61.5752C121.521 62.1221 120.765 62.7926 119.802 63.5869C118.942 64.29 118.057 64.8955 117.146 65.4033C116.234 65.8981 115.414 66.1455 114.685 66.1455C113.773 66.1455 113.109 65.7939 112.692 65.0908C112.276 64.3747 112.067 63.613 112.067 62.8057C112.067 62.2197 112.152 61.6989 112.321 61.2432C111.787 61.9593 111.156 62.7015 110.427 63.4697C109.698 64.2249 108.91 64.863 108.063 65.3838C107.217 65.8916 106.351 66.1455 105.466 66.1455ZM107.028 62.708C107.445 62.708 107.966 62.4411 108.591 61.9072C109.229 61.3734 109.841 60.7484 110.427 60.0322C111.078 59.251 111.592 58.5413 111.97 57.9033C112.347 57.2653 112.536 56.8356 112.536 56.6143C112.536 56.1195 112.25 55.7288 111.677 55.4424C111.104 55.1429 110.59 54.9932 110.134 54.9932C109.326 54.9932 108.558 55.2536 107.829 55.7744C107.113 56.2952 106.527 56.9658 106.071 57.7861C105.616 58.5934 105.388 59.4333 105.388 60.3057C105.388 60.8135 105.479 61.3408 105.661 61.8877C105.856 62.4346 106.312 62.708 107.028 62.708ZM121.501 66.165C121.032 66.165 120.661 66.0153 120.388 65.7158C120.114 65.4163 119.978 65.0583 119.978 64.6416C119.978 64.3031 120.16 63.665 120.524 62.7275C120.889 61.79 121.312 60.7874 121.794 59.7197C122.315 58.5869 122.816 57.4867 123.298 56.4189C123.793 55.3512 124.183 54.4788 124.47 53.8018C124.704 53.2419 125.01 52.8252 125.388 52.5518C125.778 52.2783 126.162 52.1416 126.54 52.1416C126.866 52.1416 127.152 52.2653 127.399 52.5127C127.66 52.7471 127.79 53.0921 127.79 53.5479C127.79 53.8734 127.712 54.2445 127.556 54.6611C128.024 54.2314 128.532 53.7692 129.079 53.2744C129.639 52.7666 130.284 52.3369 131.013 51.9854C131.742 51.6338 132.595 51.458 133.571 51.458C134.3 51.458 134.938 51.6468 135.485 52.0244C136.032 52.402 136.332 53.0335 136.384 53.9189C136.996 53.307 137.705 52.7471 138.513 52.2393C139.32 51.7184 140.297 51.458 141.442 51.458C142.315 51.458 143.076 51.6598 143.728 52.0635C144.379 52.4541 144.704 53.1442 144.704 54.1338C144.704 54.915 144.522 55.6572 144.157 56.3604C143.806 57.0635 143.389 57.708 142.907 58.2939C142.725 58.5153 142.445 58.8408 142.067 59.2705C141.703 59.7002 141.364 60.1624 141.052 60.6572C140.752 61.152 140.603 61.6143 140.603 62.0439C140.603 62.3304 140.687 62.5127 140.856 62.5908C141.039 62.6689 141.273 62.708 141.56 62.708C142.106 62.708 142.692 62.5518 143.317 62.2393C143.955 61.9137 144.58 61.5166 145.192 61.0479C145.817 60.5791 146.384 60.0973 146.892 59.6025C147.412 59.1077 147.836 58.6846 148.161 58.333C148.317 58.1637 148.513 58.0791 148.747 58.0791C148.981 58.0791 149.19 58.1833 149.372 58.3916C149.567 58.5999 149.665 58.8734 149.665 59.2119C149.665 59.4723 149.587 59.7588 149.431 60.0713C149.274 60.3838 149.007 60.6898 148.63 60.9893C147.731 61.8617 146.781 62.695 145.778 63.4893C144.789 64.2705 143.786 64.9085 142.771 65.4033C141.755 65.8981 140.752 66.1455 139.763 66.1455C138.799 66.1455 138.018 65.9176 137.419 65.4619C136.833 65.0062 136.54 64.2835 136.54 63.2939C136.54 62.4085 136.755 61.5817 137.185 60.8135C137.627 60.0322 138.122 59.3096 138.669 58.6455C139.229 57.9684 139.685 57.3499 140.036 56.79C140.166 56.5817 140.271 56.3864 140.349 56.2041C140.427 56.0088 140.466 55.8135 140.466 55.6182C140.466 55.1364 140.238 54.8955 139.782 54.8955C139.014 54.8955 138.265 55.1364 137.536 55.6182C136.807 56.0869 136.136 56.6859 135.524 57.415C134.886 58.1572 134.32 58.9189 133.825 59.7002C133.343 60.4814 132.901 61.1911 132.497 61.8291C132.25 62.2848 131.996 62.8577 131.735 63.5479C131.475 64.2249 131.156 64.8304 130.778 65.3643C130.414 65.8981 129.945 66.165 129.372 66.165C129.034 66.165 128.695 66.0544 128.356 65.833C128.031 65.6117 127.855 65.3317 127.829 64.9932C127.829 64.1468 128.09 63.2419 128.61 62.2783C129.131 61.3148 129.73 60.3577 130.407 59.4072C131.097 58.4567 131.683 57.5843 132.165 56.79C132.295 56.5817 132.399 56.3864 132.478 56.2041C132.556 56.0088 132.595 55.8135 132.595 55.6182C132.595 55.1364 132.367 54.8955 131.911 54.8955C131.143 54.8955 130.394 55.1364 129.665 55.6182C128.936 56.0869 128.265 56.6859 127.653 57.415C127.015 58.1572 126.449 58.9189 125.954 59.7002C125.472 60.4814 125.03 61.1911 124.626 61.8291C124.379 62.2848 124.125 62.8577 123.864 63.5479C123.604 64.2249 123.285 64.8304 122.907 65.3643C122.543 65.8981 122.074 66.165 121.501 66.165ZM148.884 66.1455C147.751 66.1455 146.963 65.8916 146.521 65.3838C146.091 64.863 145.876 64.2054 145.876 63.4111C145.876 62.5778 146.019 61.6924 146.306 60.7549C146.605 59.8174 146.937 58.932 147.302 58.0986C147.666 57.2653 147.959 56.6012 148.181 56.1064C148.584 55.208 148.916 54.4854 149.177 53.9385C149.45 53.3786 149.691 52.9424 149.899 52.6299C150.121 52.3304 150.336 52.1286 150.544 52.0244C150.752 51.9202 151.019 51.8682 151.345 51.8682C151.84 51.8682 152.263 52.0309 152.614 52.3564C152.979 52.6689 153.161 53.0726 153.161 53.5674C153.161 53.7497 153.103 53.984 152.985 54.2705L149.665 62.1221C149.574 62.3174 149.528 62.5322 149.528 62.7666C149.528 63.1051 149.639 63.2744 149.86 63.2744C150.186 63.2744 150.55 63.0921 150.954 62.7275C151.371 62.363 151.937 61.8226 152.653 61.1064C153.213 60.5205 153.773 59.7979 154.333 58.9385C154.906 58.0791 155.446 57.1872 155.954 56.2627C156.462 55.3382 156.885 54.4854 157.224 53.7041C157.601 52.9489 157.92 52.4541 158.181 52.2197C158.454 51.9854 158.799 51.8682 159.216 51.8682C160.01 51.8682 160.407 52.2132 160.407 52.9033C160.381 53.0335 160.368 53.1507 160.368 53.2549C160.355 53.3721 160.316 53.5218 160.251 53.7041L157.204 62.708C157.204 63.0335 157.367 63.1963 157.692 63.1963C158.031 63.1572 158.467 62.9619 159.001 62.6104C159.548 62.2458 160.069 61.79 160.563 61.2432C161.071 60.6833 161.423 60.1038 161.618 59.5049C161.996 58.359 162.386 57.2262 162.79 56.1064C163.194 54.9736 163.636 54.0231 164.118 53.2549C164.6 52.4867 165.153 52.0765 165.778 52.0244C166.195 52.0244 166.534 52.1611 166.794 52.4346C167.067 52.695 167.204 53.04 167.204 53.4697C167.204 54.5244 166.95 55.6702 166.442 56.9072C165.935 58.1312 165.362 59.1794 164.724 60.0518C164.828 60.3252 165.017 60.4619 165.29 60.4619C166.293 60.4619 167.204 60.3122 168.024 60.0127C168.858 59.7002 169.724 59.277 170.622 58.7432C170.843 58.5999 171.052 58.5283 171.247 58.5283C171.507 58.5283 171.742 58.626 171.95 58.8213C172.159 59.0166 172.263 59.2705 172.263 59.583C172.263 59.9997 171.996 60.4359 171.462 60.8916C170.928 61.3473 170.264 61.764 169.47 62.1416C168.597 62.5452 167.764 62.8577 166.97 63.0791C166.175 63.3005 165.511 63.4111 164.978 63.4111C164.248 63.4111 163.5 63.2028 162.731 62.7861C160.869 65.0257 158.923 66.1455 156.892 66.1455C155.954 66.1455 155.277 65.9046 154.86 65.4229C154.457 64.9281 154.255 64.2119 154.255 63.2744C152.354 65.1885 150.563 66.1455 148.884 66.1455ZM172.575 66.1455C172.132 66.1455 171.605 66.0218 170.993 65.7744C170.381 65.527 169.841 65.1169 169.372 64.5439C168.916 63.971 168.688 63.2028 168.688 62.2393C168.688 61.432 168.871 60.4229 169.235 59.2119C169.6 58.001 170.173 56.8096 170.954 55.6377C171.735 54.4398 172.731 53.4437 173.942 52.6494C175.166 51.8551 176.579 51.458 178.181 51.458C178.754 51.458 179.255 51.5296 179.685 51.6729C180.114 51.8161 180.479 51.9723 180.778 52.1416C180.948 52.2458 181.104 52.3564 181.247 52.4736C181.403 52.5778 181.547 52.695 181.677 52.8252L182.36 52.4932C182.556 52.402 182.757 52.3239 182.966 52.2588C183.187 52.1807 183.376 52.1416 183.532 52.1416C184.027 52.1416 184.431 52.2783 184.743 52.5518C185.056 52.8252 185.212 53.1247 185.212 53.4502C185.212 53.5544 185.205 53.626 185.192 53.665C185.101 54.0296 184.932 54.5309 184.685 55.1689C184.45 55.807 184.196 56.5166 183.923 57.2979C183.649 58.0531 183.415 58.7822 183.22 59.4854C183.037 60.1885 182.946 60.7679 182.946 61.2236C182.946 61.6143 183.011 61.9398 183.142 62.2002C183.272 62.4476 183.493 62.5713 183.806 62.5713C184.183 62.5713 184.691 62.3564 185.329 61.9268C185.967 61.484 186.625 60.9632 187.302 60.3643C187.666 60.0387 188.044 59.6937 188.435 59.3291C188.825 58.9515 189.222 58.5544 189.626 58.1377C189.834 57.9684 190.036 57.8838 190.231 57.8838C190.492 57.8838 190.707 58.014 190.876 58.2744C191.058 58.5218 191.149 58.8018 191.149 59.1143C191.149 59.4788 191.026 59.7848 190.778 60.0322C190.257 60.514 189.724 61.0283 189.177 61.5752C188.63 62.1221 187.875 62.7926 186.911 63.5869C186.052 64.29 185.166 64.8955 184.255 65.4033C183.343 65.8981 182.523 66.1455 181.794 66.1455C180.882 66.1455 180.218 65.7939 179.802 65.0908C179.385 64.3747 179.177 63.613 179.177 62.8057C179.177 62.2197 179.261 61.6989 179.431 61.2432C178.897 61.9593 178.265 62.7015 177.536 63.4697C176.807 64.2249 176.019 64.863 175.173 65.3838C174.326 65.8916 173.461 66.1455 172.575 66.1455ZM174.138 62.708C174.554 62.708 175.075 62.4411 175.7 61.9072C176.338 61.3734 176.95 60.7484 177.536 60.0322C178.187 59.251 178.701 58.5413 179.079 57.9033C179.457 57.2653 179.646 56.8356 179.646 56.6143C179.646 56.1195 179.359 55.7288 178.786 55.4424C178.213 55.1429 177.699 54.9932 177.243 54.9932C176.436 54.9932 175.668 55.2536 174.938 55.7744C174.222 56.2952 173.636 56.9658 173.181 57.7861C172.725 58.5934 172.497 59.4333 172.497 60.3057C172.497 60.8135 172.588 61.3408 172.771 61.8877C172.966 62.4346 173.422 62.708 174.138 62.708ZM191.345 77.2393C190.824 77.2393 190.401 77.0635 190.075 76.7119C189.75 76.3734 189.587 75.9111 189.587 75.3252C189.587 74.7783 189.652 74.2314 189.782 73.6846C189.925 73.1507 190.173 72.5583 190.524 71.9072C190.863 71.2562 191.312 70.527 191.872 69.7197C192.445 68.9255 193.161 67.988 194.021 66.9072L197.927 58.9971C195.974 61.3148 194.203 63.0856 192.614 64.3096C191.026 65.5335 189.541 66.1455 188.161 66.1455C187.718 66.1455 187.341 66.0413 187.028 65.833C186.716 65.6377 186.56 65.3057 186.56 64.8369C186.56 64.1859 186.716 63.4502 187.028 62.6299C187.289 61.9919 187.562 61.3994 187.849 60.8525C188.148 60.2926 188.454 59.7067 188.767 59.0947C189.092 58.4437 189.47 57.6429 189.899 56.6924C190.329 55.7419 190.804 54.6025 191.325 53.2744C191.586 52.7666 191.924 52.402 192.341 52.1807C192.757 51.9463 193.161 51.8291 193.552 51.8291C193.955 51.8291 194.294 51.9268 194.567 52.1221C194.854 52.3044 194.997 52.5518 194.997 52.8643C194.997 53.0335 194.971 53.1702 194.919 53.2744L191.345 60.7158C191.162 61.1064 191.071 61.4059 191.071 61.6143C191.071 61.8096 191.149 61.9072 191.306 61.9072C191.449 61.9072 191.631 61.8356 191.853 61.6924C192.074 61.5492 192.282 61.3864 192.478 61.2041L200.544 53.2744C201.195 52.7536 201.696 52.4346 202.048 52.3174C202.399 52.2002 202.744 52.1416 203.083 52.1416C203.356 52.1416 203.552 52.2458 203.669 52.4541C203.786 52.6494 203.845 52.8577 203.845 53.0791C203.845 53.2484 203.812 53.4176 203.747 53.5869L199.372 62.708C199.997 62.2393 200.713 61.7835 201.521 61.3408C202.328 60.8851 203.116 60.4749 203.884 60.1104C204.652 59.7458 205.303 59.4593 205.837 59.251C206.371 59.0296 206.67 58.9189 206.735 58.9189C207.061 58.9189 207.347 59.0426 207.595 59.29C207.842 59.5374 207.966 59.8499 207.966 60.2275C207.966 60.5661 207.836 60.9242 207.575 61.3018C207.328 61.6794 206.885 62.0439 206.247 62.3955C205.427 62.8512 204.646 63.2744 203.903 63.665C203.174 64.0557 202.562 64.3877 202.067 64.6611L200.681 65.4424C200.056 65.807 199.476 66.1911 198.942 66.5947C198.422 66.9984 197.894 67.4476 197.36 67.9424C196.787 69.4398 196.247 70.7614 195.739 71.9072C195.244 73.0531 194.938 73.7367 194.821 73.958C193.767 76.1455 192.608 77.2393 191.345 77.2393Z" fill="white"/>
<path d="M48.917 82.2627H0V82.9427H48.917V82.2627Z" fill="white"/>
<path d="M220.128 82.2627H171.21V82.9427H220.128V82.2627Z" fill="white"/>
<path d="M165.093 85.166C163.726 84.4 162.541 85.84 163.105 86.674C163.674 87.512 164.647 87.076 164.593 86.479C164.539 85.883 163.883 86.163 163.883 86.163C163.883 86.163 164.289 85.3 164.995 85.837C165.708 86.374 165.604 88.112 163.674 88.015C161.739 87.919 158.461 85.837 158.461 85.837C160.77 86.525 162.455 85.146 162.455 85.146C161.314 85.503 160.139 85.294 160.139 85.294C161.377 85.034 162.946 83.585 163.073 81.472C163.199 79.355 161.966 78.492 161.142 78.683C160.316 78.878 160.239 79.847 161.029 80.122C161.819 80.397 161.923 79.696 161.923 79.696C162.584 80.192 163.175 82.436 161.214 84.012C159.248 85.584 156.457 84.407 156.457 84.407C157.826 84.6 159.632 83.296 159.632 83.296C158.213 84.024 155.219 84.132 153.744 83.345C152.271 82.556 149.546 78.992 144.469 80.447C141.856 81.197 140.861 83.202 140.955 85.172C140.436 83.892 139.448 82.753 137.849 81.936C131.334 78.608 127.552 84.163 129.128 87.299C130.706 90.44 134.912 89.862 134.73 87.076C134.545 84.285 130.585 85.416 130.585 85.416C131.331 82.023 135.086 82.266 136.68 83.771C138.277 85.275 140.323 90.263 133.607 92.609C126.889 94.953 124.531 89.871 120.587 85.064C116.642 80.255 111.99 82.541 111.99 82.541C118.794 82.406 120.947 89.748 120.947 89.748C119.463 96.5 114.566 93.069 113.538 92.26C112.962 86.734 111.081 82.855 110.199 81.299C109.28 82.834 107.306 86.673 106.601 92.19C105.807 92.835 100.637 96.72 99.1044 89.749C99.1044 89.749 101.259 82.407 108.061 82.542C108.061 82.542 103.409 80.257 99.4644 85.065C95.5214 89.872 93.1624 94.954 86.4444 92.61C79.7264 90.264 81.7764 85.276 83.3714 83.772C84.9654 82.266 88.7194 82.024 89.4664 85.417C89.4664 85.417 85.5074 84.286 85.3214 87.077C85.1384 89.862 89.3444 90.44 90.9234 87.3C92.4994 84.163 88.7174 78.609 82.2044 81.937C80.6864 82.712 79.7224 83.778 79.1844 84.978C79.2044 83.072 78.1844 81.173 75.6594 80.449C70.5814 78.994 67.8564 82.558 66.3834 83.347C64.9084 84.134 61.9154 84.027 60.4954 83.298C60.4954 83.298 62.3014 84.603 63.6704 84.409C63.6704 84.409 60.8804 85.587 58.9134 84.014C56.9524 82.438 57.5444 80.194 58.2044 79.698C58.2044 79.698 58.3084 80.399 59.0994 80.124C59.8894 79.849 59.8114 78.88 58.9854 78.685C58.1624 78.494 56.9294 79.357 57.0544 81.474C57.1824 83.587 58.7504 85.037 59.9894 85.296C59.9894 85.296 58.8124 85.505 57.6724 85.148C57.6724 85.148 59.3584 86.527 61.6674 85.839C61.6674 85.839 58.3894 87.921 56.4544 88.017C54.5234 88.115 54.4204 86.376 55.1324 85.839C55.8394 85.302 56.2454 86.165 56.2454 86.165C56.2454 86.165 55.5884 85.886 55.5344 86.481C55.4804 87.079 56.4544 87.514 57.0234 86.676C57.5864 85.842 56.4024 84.403 55.0354 85.168C53.6674 85.934 53.8584 88.752 56.3034 88.688C58.7474 88.62 63.7094 84.852 66.5414 84.016C69.3724 83.174 73.7374 82.151 75.6664 84.862C75.6664 84.862 74.0084 81.452 69.0214 82.305C69.0214 82.305 72.8964 79.324 75.8044 81.551C78.7084 83.774 78.1634 87.887 75.2574 88.881C75.2574 88.881 75.9284 87.285 73.7904 87.453C71.6484 87.625 73.0654 91.037 76.4034 89.568C77.3944 89.133 78.1724 88.276 78.6524 87.253C78.4894 90.775 80.9514 94.626 83.8074 95.861C88.3594 97.836 93.9914 97.027 97.7024 90.992C97.7024 90.992 98.5634 96.33 102.455 96.111C105.143 95.963 106.145 94.109 106.509 92.974C106.415 93.893 106.355 94.852 106.343 95.855C106.287 100.343 107.77 102.896 109.904 106.314C112.118 102.943 113.66 100.423 113.71 95.937C113.722 94.992 113.691 94.084 113.626 93.211C114.05 94.349 115.087 95.972 117.596 96.11C121.487 96.329 122.351 90.991 122.351 90.991C126.061 97.026 131.692 97.835 136.247 95.86C139.151 94.603 141.646 90.638 141.387 87.068C141.857 88.173 142.674 89.106 143.726 89.567C147.064 91.036 148.481 87.624 146.339 87.452C144.201 87.284 144.872 88.88 144.872 88.88C141.966 87.886 141.42 83.773 144.324 81.55C147.232 79.323 151.107 82.304 151.107 82.304C146.122 81.45 144.463 84.861 144.463 84.861C146.392 82.15 150.757 83.173 153.587 84.015C156.419 84.851 161.382 88.619 163.826 88.687C166.27 88.75 166.46 85.931 165.093 85.166Z" fill="white"/>
</svg>
