<svg width="48" height="49" viewBox="0 0 48 49" fill="none" xmlns="http://www.w3.org/2000/svg">
<path d="M24 0.5C36.9787 0.5 47.5 11.0213 47.5 24C47.5 36.9787 36.9787 47.5 24 47.5C11.0213 47.5 0.5 36.9787 0.5 24C0.5 11.0213 11.0213 0.500001 24 0.5Z" fill="url(#paint0_linear_4899_2474)" stroke="#08526D"/>
<path d="M24 1.5C36.9787 1.5 47.5 12.0213 47.5 25C47.5 37.9787 36.9787 48.5 24 48.5C11.0213 48.5 0.5 37.9787 0.5 25C0.5 12.0213 11.0213 1.5 24 1.5Z" stroke="#08526D"/>
<path d="M17.4617 31.256C17.5097 30.616 17.6297 29.92 17.8217 29.168C18.0137 28.4 18.3097 27.656 18.7097 26.936C19.1097 26.2 19.6217 25.52 20.2457 24.896C20.8857 24.272 21.6697 23.776 22.5977 23.408C23.1257 23.184 23.6377 22.968 24.1337 22.76C24.6297 22.552 25.0777 22.328 25.4777 22.088C25.8777 21.848 26.1977 21.576 26.4377 21.272C26.6777 20.968 26.7977 20.616 26.7977 20.216C26.7977 19.8 26.7017 19.432 26.5097 19.112C26.3337 18.792 26.1017 18.528 25.8137 18.32C25.5257 18.112 25.2137 17.96 24.8777 17.864C24.5417 17.752 24.2137 17.696 23.8937 17.696C23.4457 17.696 23.0057 17.744 22.5737 17.84C22.1577 17.92 21.7817 18.056 21.4457 18.248C21.1097 18.44 20.8297 18.688 20.6057 18.992C20.3817 19.296 20.2297 19.664 20.1497 20.096L17.1977 19.784C17.3097 18.984 17.5657 18.28 17.9657 17.672C18.3817 17.064 18.8857 16.56 19.4777 16.16C20.0857 15.744 20.7657 15.432 21.5177 15.224C22.2857 15 23.0777 14.888 23.8937 14.888C24.6297 14.888 25.3497 15.008 26.0537 15.248C26.7577 15.472 27.3817 15.808 27.9257 16.256C28.4857 16.688 28.9337 17.232 29.2697 17.888C29.6217 18.528 29.7977 19.256 29.7977 20.072C29.7977 20.904 29.6377 21.616 29.3177 22.208C29.0137 22.8 28.5897 23.32 28.0457 23.768C27.5177 24.2 26.8857 24.584 26.1497 24.92C25.4137 25.256 24.6217 25.592 23.7737 25.928C23.1017 26.2 22.5497 26.616 22.1177 27.176C21.7017 27.72 21.3737 28.336 21.1337 29.024H29.9657V31.976H17.4617V31.256Z" fill="#08526D"/>
<defs>
<linearGradient id="paint0_linear_4899_2474" x1="24.0542" y1="46.0215" x2="24.0542" y2="20.8373" gradientUnits="userSpaceOnUse">
<stop stop-color="#ADE3F6"/>
<stop offset="0.01" stop-color="#ADE3F6" stop-opacity="0.98"/>
<stop offset="0.635" stop-color="#ADE3F6" stop-opacity="0.28"/>
<stop offset="0.9925" stop-color="#ADE3F6" stop-opacity="0"/>
</linearGradient>
</defs>
</svg>
