<svg width="48" height="49" viewBox="0 0 48 49" fill="none" xmlns="http://www.w3.org/2000/svg">
<path d="M24 0.5C36.9787 0.5 47.5 11.0213 47.5 24C47.5 36.9787 36.9787 47.5 24 47.5C11.0213 47.5 0.5 36.9787 0.5 24C0.5 11.0213 11.0213 0.500001 24 0.5Z" fill="url(#paint0_linear_4899_2481)" stroke="#08526D"/>
<path d="M24 1.5C36.9787 1.5 47.5 12.0213 47.5 25C47.5 37.9787 36.9787 48.5 24 48.5C11.0213 48.5 0.5 37.9787 0.5 25C0.5 12.0213 11.0213 1.5 24 1.5Z" stroke="#08526D"/>
<path d="M29.3417 19.784C29.3417 20.456 29.1977 21.072 28.9097 21.632C28.6217 22.176 28.2137 22.656 27.6857 23.072C28.3577 23.536 28.8777 24.104 29.2457 24.776C29.6137 25.448 29.7977 26.192 29.7977 27.008C29.7977 27.776 29.6377 28.48 29.3177 29.12C28.9977 29.76 28.5497 30.312 27.9737 30.776C27.4137 31.24 26.7497 31.608 25.9817 31.88C25.2297 32.136 24.4137 32.264 23.5337 32.264C22.7017 32.264 21.9177 32.144 21.1817 31.904C20.4617 31.664 19.8217 31.336 19.2617 30.92C18.7177 30.488 18.2777 29.976 17.9417 29.384C17.6057 28.792 17.4217 28.152 17.3897 27.464L20.6297 27.224C20.7737 27.864 21.1097 28.384 21.6377 28.784C22.1817 29.168 22.8137 29.36 23.5337 29.36C24.4457 29.36 25.1977 29.128 25.7897 28.664C26.3817 28.184 26.6777 27.584 26.6777 26.864C26.6777 26.144 26.3817 25.552 25.7897 25.088C25.1977 24.624 24.4457 24.392 23.5337 24.392H22.6457L22.6697 21.872H23.5337C24.3497 21.872 25.0137 21.68 25.5257 21.296C26.0377 20.896 26.2937 20.392 26.2937 19.784C26.2937 19.176 26.0297 18.672 25.5017 18.272C24.9737 17.856 24.3017 17.648 23.4857 17.648C22.9257 17.648 22.3977 17.784 21.9017 18.056C21.4057 18.312 21.0457 18.68 20.8217 19.16L17.7257 18.968C17.8217 18.376 18.0297 17.832 18.3497 17.336C18.6857 16.84 19.1097 16.416 19.6217 16.064C20.1337 15.696 20.7177 15.408 21.3737 15.2C22.0297 14.992 22.7337 14.888 23.4857 14.888C24.3337 14.888 25.1177 15.016 25.8377 15.272C26.5577 15.512 27.1737 15.848 27.6857 16.28C28.2137 16.712 28.6217 17.232 28.9097 17.84C29.1977 18.432 29.3417 19.08 29.3417 19.784Z" fill="#08526D"/>
<defs>
<linearGradient id="paint0_linear_4899_2481" x1="24.0542" y1="46.0215" x2="24.0542" y2="20.8373" gradientUnits="userSpaceOnUse">
<stop stop-color="#ADE3F6"/>
<stop offset="0.01" stop-color="#ADE3F6" stop-opacity="0.98"/>
<stop offset="0.635" stop-color="#ADE3F6" stop-opacity="0.28"/>
<stop offset="0.9925" stop-color="#ADE3F6" stop-opacity="0"/>
</linearGradient>
</defs>
</svg>
