<svg width="48" height="49" viewBox="0 0 48 49" fill="none" xmlns="http://www.w3.org/2000/svg">
<path d="M24 0.5C36.9787 0.5 47.5 11.0213 47.5 24C47.5 36.9787 36.9787 47.5 24 47.5C11.0213 47.5 0.5 36.9787 0.5 24C0.5 11.0213 11.0213 0.500001 24 0.5Z" fill="url(#paint0_linear_4899_409)" stroke="#08526D"/>
<path d="M24 1.5C36.9787 1.5 47.5 12.0213 47.5 25C47.5 37.9787 36.9787 48.5 24 48.5C11.0213 48.5 0.5 37.9787 0.5 25C0.5 12.0213 11.0213 1.5 24 1.5Z" stroke="#08526D"/>
<path d="M29.8217 26.552C29.8217 28.376 29.2857 29.784 28.2137 30.776C27.1577 31.768 25.6697 32.264 23.7497 32.264C21.8297 32.264 20.3177 31.856 19.2137 31.04C18.1097 30.224 17.5097 29.072 17.4137 27.584L20.3657 27.224C20.5257 27.944 20.8937 28.48 21.4697 28.832C22.0617 29.184 22.8217 29.36 23.7497 29.36C24.7577 29.36 25.5337 29.12 26.0777 28.64C26.6217 28.16 26.8937 27.464 26.8937 26.552C26.8937 25.8 26.6217 25.224 26.0777 24.824C25.5337 24.424 24.7577 24.224 23.7497 24.224H20.4377V24.2L18.1577 24.224L19.2857 15.2H29.2217V18.176H21.9017L21.4697 21.584H23.7497C25.6697 21.584 27.1577 22.016 28.2137 22.88C29.2857 23.744 29.8217 24.968 29.8217 26.552Z" fill="#08526D"/>
<defs>
<linearGradient id="paint0_linear_4899_409" x1="24.0542" y1="46.0215" x2="24.0542" y2="20.8373" gradientUnits="userSpaceOnUse">
<stop stop-color="#ADE3F6"/>
<stop offset="0.01" stop-color="#ADE3F6" stop-opacity="0.98"/>
<stop offset="0.635" stop-color="#ADE3F6" stop-opacity="0.28"/>
<stop offset="0.9925" stop-color="#ADE3F6" stop-opacity="0"/>
</linearGradient>
</defs>
</svg>
