<svg width="28" height="28" viewBox="0 0 28 28" fill="none" xmlns="http://www.w3.org/2000/svg">
<path d="M9.45033 15.563L12.752 12.2614L5.53033 5.05137C4.97033 4.49137 4.00199 4.64304 3.65199 5.36637C2.82366 7.10471 3.12699 9.23971 4.56199 10.6864L9.45033 15.563ZM17.3603 13.4514C19.1453 14.2797 21.6537 13.6964 23.5087 11.8414C25.737 9.61304 26.1687 6.41637 24.4537 4.70137C22.7503 2.99804 19.5537 3.41804 17.3137 5.64637C15.4587 7.50137 14.8753 10.0097 15.7037 11.7947L5.13366 22.3647C4.91552 22.5828 4.79297 22.8787 4.79297 23.1872C4.79297 23.4957 4.91552 23.7916 5.13366 24.0097C5.3518 24.2278 5.64766 24.3504 5.95616 24.3504C6.26466 24.3504 6.56052 24.2278 6.77866 24.0097L14.0003 16.8114L21.2103 24.0214C21.3183 24.1294 21.4466 24.2151 21.5877 24.2735C21.7288 24.332 21.8801 24.3621 22.0328 24.3621C22.1856 24.3621 22.3368 24.332 22.478 24.2735C22.6191 24.2151 22.7473 24.1294 22.8553 24.0214C22.9633 23.9134 23.049 23.7851 23.1075 23.644C23.1659 23.5029 23.196 23.3516 23.196 23.1989C23.196 23.0461 23.1659 22.8949 23.1075 22.7537C23.049 22.6126 22.9633 22.4844 22.8553 22.3764L15.6453 15.1664L17.3603 13.4514Z" fill="white"/>
</svg>
