<svg width="70" height="70" viewBox="0 0 70 70" fill="none" xmlns="http://www.w3.org/2000/svg">
<rect width="70" height="70" rx="35" fill="white"/>
<path d="M29.8271 38.9854L35 35.8479L40.1729 38.9854L38.7979 33.1L43.3729 29.175L37.3604 28.6417L35 23.1208L32.6396 28.6417L26.6271 29.175L31.2021 33.1L29.8271 38.9854ZM16.25 52.3271V20.1167C16.25 19.1569 16.5715 18.3563 17.2146 17.7146C17.8576 17.0729 18.6576 16.7514 19.6146 16.75H50.3854C51.3438 16.75 52.1437 17.0715 52.7854 17.7146C53.4271 18.3576 53.7486 19.1583 53.75 20.1167V42.5521C53.75 43.5104 53.4285 44.3111 52.7854 44.9542C52.1424 45.5972 51.3424 45.9181 50.3854 45.9167H22.6604L16.25 52.3271ZM21.7708 43.8333H50.3854C50.7049 43.8333 50.9986 43.7 51.2667 43.4333C51.5347 43.1667 51.6681 42.8729 51.6667 42.5521V20.1146C51.6667 19.7951 51.5333 19.5014 51.2667 19.2333C51 18.9653 50.7062 18.8319 50.3854 18.8333H19.6146C19.2951 18.8333 19.0014 18.9667 18.7333 19.2333C18.4653 19.5 18.3319 19.7937 18.3333 20.1146V47.2604L21.7708 43.8333Z" fill="url(#paint0_linear_4380_3991)"/>
<defs>
<linearGradient id="paint0_linear_4380_3991" x1="34.9725" y1="20.1672" x2="39.3434" y2="48.4151" gradientUnits="userSpaceOnUse">
<stop stop-color="#00A5E3"/>
<stop offset="0.5" stop-color="#373188"/>
<stop offset="1" stop-color="#FD0026"/>
</linearGradient>
</defs>
</svg>
