<svg width="70" height="70" viewBox="0 0 70 70" fill="none" xmlns="http://www.w3.org/2000/svg">
<rect width="70" height="70" rx="35" fill="white"/>
<path d="M35.0657 26.7238V41.0256L40.8834 45.5101L38.7017 38.1168L44.1558 34.2383H37.3685L35.0657 26.7238ZM35.0657 44.1041L27.7281 49.6915C27.4696 49.8693 27.2102 49.9477 26.95 49.9267C26.6898 49.9057 26.4507 49.8321 26.2325 49.7061C26.0143 49.58 25.8487 49.3902 25.7356 49.1364C25.6225 48.8827 25.62 48.6137 25.7283 48.3292L28.5305 39.1227L21.5614 34.0929C21.2931 33.9248 21.1218 33.7107 21.0475 33.4505C20.9732 33.1903 20.9861 32.9309 21.0863 32.6724C21.1865 32.4138 21.3368 32.2062 21.5371 32.0494C21.7375 31.8927 21.9816 31.8143 22.2692 31.8143H31.02L33.8803 22.4163C33.9902 22.1303 34.1486 21.9056 34.3555 21.7424C34.5607 21.5808 34.7974 21.5 35.0657 21.5C35.334 21.5 35.5707 21.5808 35.7759 21.7424C35.9828 21.9056 36.1412 22.1303 36.251 22.4163L39.1114 31.8143H47.8622C48.1482 31.8143 48.3922 31.8927 48.5942 32.0494C48.7962 32.2062 48.9465 32.4138 49.0451 32.6724C49.1437 32.9309 49.1566 33.1903 49.0839 33.4505C49.0079 33.7123 48.8366 33.9272 48.57 34.0953L41.6009 39.1227L44.4031 48.3292C44.5114 48.6153 44.5089 48.8843 44.3958 49.1364C44.2827 49.3885 44.117 49.5784 43.8989 49.7061C43.6807 49.8338 43.4415 49.9073 43.1814 49.9267C42.9212 49.9461 42.6618 49.8677 42.4033 49.6915L35.0657 44.1041Z" fill="url(#paint0_linear_4380_5180)"/>
<defs>
<linearGradient id="paint0_linear_4380_5180" x1="35.0444" y1="24.2307" x2="38.7536" y2="46.7329" gradientUnits="userSpaceOnUse">
<stop stop-color="#00A5E3"/>
<stop offset="0.5" stop-color="#373188"/>
<stop offset="1" stop-color="#FD0026"/>
</linearGradient>
</defs>
</svg>
