<svg width="80" height="80" viewBox="0 0 80 80" fill="none" xmlns="http://www.w3.org/2000/svg">
<g id="icons/fitness">
<g id="fitness-tracking 1" clip-path="url(#clip0_3662_5394)">
<path id="Vector" d="M48.4501 37.0286H22.2644C21.9108 37.0286 21.5606 36.9589 21.2339 36.8236C20.9072 36.6883 20.6103 36.4899 20.3603 36.2399C20.1102 35.9898 19.9118 35.6929 19.7765 35.3662C19.6412 35.0395 19.5715 34.6893 19.5715 34.3357V16.6929C19.5715 15.9787 19.8552 15.2937 20.3603 14.7887C20.8653 14.2837 21.5502 14 22.2644 14H48.4501C49.1643 14 49.8492 14.2837 50.3542 14.7887C50.8592 15.2937 51.143 15.9787 51.143 16.6929V34.3357C51.143 34.6893 51.0733 35.0395 50.938 35.3662C50.8027 35.6929 50.6043 35.9898 50.3542 36.2399C50.1042 36.4899 49.8073 36.6883 49.4806 36.8236C49.1539 36.9589 48.8037 37.0286 48.4501 37.0286Z" fill="#ADE3F6"></path>
<path id="Vector_2" d="M18.6428 20.2216H21.0571L23.3785 26.0716L27.1857 14.9287L30.7143 22.7287L32.4785 20.2216H36.3785" stroke="#08526D" stroke-width="2" stroke-linecap="round" stroke-linejoin="round" class="id_anim_stroke-property1" data-duration="2.7777777777777777" data-offset="0" style="stroke-dashoffset: 0px; stroke-dasharray: 0px, 36.01px; animation: 2.77778s linear 0s 1 normal forwards running id_anim_stroke-property1;"></path>
<path id="Vector_3" d="M53.1916 46.5C55.2978 46.5107 57.3252 47.3024 58.8812 48.722C60.4372 50.1416 61.4112 52.088 61.6145 54.1844C61.8179 56.2808 61.2362 58.3781 59.982 60.0703C58.7278 61.7625 56.8904 62.9291 54.8255 63.3444C52.7606 63.7596 50.615 63.394 48.8042 62.3182C46.9934 61.2424 45.6461 59.533 45.0233 57.5209C44.4004 55.5089 44.5462 53.3373 45.4325 51.4265C46.3188 49.5158 47.8825 48.0019 49.8209 47.1779" fill="url(#paint0_linear_3662_5394)"></path>
<path id="Vector_4" d="M23.9543 63.6229C28.6826 63.6229 32.5157 59.7898 32.5157 55.0614C32.5157 50.3331 28.6826 46.5 23.9543 46.5C19.2259 46.5 15.3928 50.3331 15.3928 55.0614C15.3928 59.7898 19.2259 63.6229 23.9543 63.6229Z" stroke="#08526D" stroke-width="2" stroke-linecap="round" stroke-linejoin="round" class="id_anim_stroke-property3" data-duration="2.7777777777777777" data-offset="0" style="stroke-dashoffset: 0px; stroke-dasharray: 0px, 53.8008px; animation: 2.77778s linear 0s 1 normal forwards running id_anim_stroke-property3;"></path>
<path id="Vector_5" d="M53.1916 46.5C55.2978 46.5107 57.3252 47.3024 58.8812 48.722C60.4372 50.1416 61.4112 52.088 61.6145 54.1844C61.8179 56.2808 61.2362 58.3781 59.982 60.0703C58.7278 61.7625 56.8904 62.9291 54.8255 63.3444C52.7606 63.7596 50.615 63.394 48.8042 62.3182C46.9934 61.2424 45.6461 59.533 45.0233 57.5209C44.4004 55.5089 44.5462 53.3373 45.4325 51.4265C46.3188 49.5158 47.8825 48.0019 49.8209 47.1779" stroke="#08526D" stroke-width="2" stroke-linecap="round" stroke-linejoin="round" class="id_anim_stroke-property4" data-duration="2.7777777777777777" data-offset="0" style="stroke-dashoffset: 0px; stroke-dasharray: 0px, 49.981px; animation: 2.77778s linear 0s 1 normal forwards running id_anim_stroke-property4;"></path>
<path id="Vector_6" d="M48.7844 27.6308C50.5588 27.6308 51.9972 26.1923 51.9972 24.4179C51.9972 22.6435 50.5588 21.2051 48.7844 21.2051C47.01 21.2051 45.5715 22.6435 45.5715 24.4179C45.5715 26.1923 47.01 27.6308 48.7844 27.6308Z" stroke="#08526D" stroke-width="2" stroke-linecap="round" stroke-linejoin="round" class="id_anim_stroke-property5" data-duration="2.7777777777777777" data-offset="0" style="stroke-dashoffset: 0px; stroke-dasharray: 0px, 20.1898px; animation: 2.77778s linear 0s 1 normal forwards running id_anim_stroke-property5;"></path>
<path id="Vector_7" d="M56.3896 33.6956H48.9054L42.8696 26.3692C42.5777 25.9959 42.2064 25.6922 41.7826 25.4802C41.3588 25.2681 40.8931 25.153 40.4193 25.1433C39.9454 25.1335 39.4754 25.2292 39.0432 25.4236C38.611 25.618 38.2274 25.9061 37.9204 26.2671L31.5039 33.7606C31.0133 34.3156 30.734 35.0258 30.7154 35.7663C30.6967 36.5068 30.9397 37.2302 31.4018 37.8092L37.1404 45.1356V52.9542C37.1404 53.5206 37.3654 54.0639 37.7659 54.4644C38.1664 54.8649 38.7097 55.0899 39.2761 55.0899C39.8425 55.0899 40.3857 54.8649 40.7863 54.4644C41.1868 54.0639 41.4118 53.5206 41.4118 52.9542V44.4392C41.4124 44.1174 41.3394 43.7998 41.1982 43.5106L37.7346 36.3792L42.4889 30.5385" stroke="#08526D" stroke-width="2" stroke-linecap="round" stroke-linejoin="round" class="id_anim_stroke-property6" data-duration="2.7777777777777777" data-offset="0" style="stroke-dashoffset: 0px; stroke-dasharray: 0px, 85.6745px; animation: 2.77778s linear 0s 1 normal forwards running id_anim_stroke-property6;"></path>
<path id="Vector_8" d="M55.5595 55.9066L52.1888 48.0323L50.3874 43.8166C50.2511 43.5053 50.1939 43.1651 50.2209 42.8263C50.2478 42.4876 50.3581 42.1607 50.5419 41.8749C50.7258 41.5891 50.9774 41.3531 51.2744 41.188C51.5715 41.0229 51.9047 40.9339 52.2445 40.9287H56.5809" stroke="#08526D" stroke-width="2" stroke-linecap="round" stroke-linejoin="round" class="id_anim_stroke-property7" data-duration="2.7777777777777777" data-offset="0" style="stroke-dashoffset: 0px; stroke-dasharray: 0px, 21.5437px; animation: 2.77778s linear 0s 1 normal forwards running id_anim_stroke-property7;"></path>
<path id="Vector_9" d="M24.2142 57.6427C25.7527 57.6427 26.9999 56.3955 26.9999 54.857C26.9999 53.3185 25.7527 52.0713 24.2142 52.0713C22.6757 52.0713 21.4285 53.3185 21.4285 54.857C21.4285 56.3955 22.6757 57.6427 24.2142 57.6427Z" fill="#B3DEFF"></path>
</g>
</g>
<defs>
<linearGradient id="paint0_linear_3662_5394" x1="53.1916" y1="63.6136" x2="53.1916" y2="46.5" gradientUnits="userSpaceOnUse">
<stop stop-color="#ADE3F6"></stop>
<stop offset="0.494476" stop-color="#ADE3F6" stop-opacity="0.5"></stop>
<stop offset="1" stop-color="#ADE3F6" stop-opacity="0"></stop>
</linearGradient>
<clipPath id="clip0_3662_5394">
<rect width="52" height="52" fill="white" transform="translate(14 14)"></rect>
</clipPath>
</defs>
<style>
        @keyframes id_anim_stroke-property1{
        
            0%{
                stroke-dashoffset: 0px; 
        stroke-dasharray: 0px, 36.010040283203125px;
            }
        
            50%{
                stroke-dashoffset: -18.005020141601562px; 
        stroke-dasharray: 18.005020141601562px, 18.005020141601562px;
            }
        
            100%{
                stroke-dashoffset: -36.010040283203125px; 
        stroke-dasharray: 36.010040283203125px, 0px;
            }
        
        }
         
        @keyframes id_anim_stroke-property3{
        
            0%{
                stroke-dashoffset: 0px; 
        stroke-dasharray: 0px, 53.800785064697266px;
            }
        
            50%{
                stroke-dashoffset: -26.900392532348633px; 
        stroke-dasharray: 26.900392532348633px, 26.900392532348633px;
            }
        
            100%{
                stroke-dashoffset: -53.800785064697266px; 
        stroke-dasharray: 53.800785064697266px, 0px;
            }
        
        }
         
        @keyframes id_anim_stroke-property4{
        
            0%{
                stroke-dashoffset: 0px; 
        stroke-dasharray: 0px, 49.981040954589844px;
            }
        
            50%{
                stroke-dashoffset: -24.990520477294922px; 
        stroke-dasharray: 24.990520477294922px, 24.990520477294922px;
            }
        
            100%{
                stroke-dashoffset: -49.981040954589844px; 
        stroke-dasharray: 49.981040954589844px, 0px;
            }
        
        }
         
        @keyframes id_anim_stroke-property5{
        
            0%{
                stroke-dashoffset: 0px; 
        stroke-dasharray: 0px, 20.189781188964844px;
            }
        
            50%{
                stroke-dashoffset: -10.094890594482422px; 
        stroke-dasharray: 10.094890594482422px, 10.094890594482422px;
            }
        
            100%{
                stroke-dashoffset: -20.189781188964844px; 
        stroke-dasharray: 20.189781188964844px, 0px;
            }
        
        }
         
        @keyframes id_anim_stroke-property6{
        
            0%{
                stroke-dashoffset: 0px; 
        stroke-dasharray: 0px, 85.67449951171875px;
            }
        
            50%{
                stroke-dashoffset: -42.837249755859375px; 
        stroke-dasharray: 42.837249755859375px, 42.837249755859375px;
            }
        
            100%{
                stroke-dashoffset: -85.67449951171875px; 
        stroke-dasharray: 85.67449951171875px, 0px;
            }
        
        }
         
        @keyframes id_anim_stroke-property7{
        
            0%{
                stroke-dashoffset: 0px; 
        stroke-dasharray: 0px, 21.543701171875px;
            }
        
            50%{
                stroke-dashoffset: -10.7718505859375px; 
        stroke-dasharray: 10.7718505859375px, 10.7718505859375px;
            }
        
            100%{
                stroke-dashoffset: -21.543701171875px; 
        stroke-dasharray: 21.543701171875px, 0px;
            }
        
        }
        </style></svg>
