<svg width="80" height="80" viewBox="0 0 80 80" fill="none" xmlns="http://www.w3.org/2000/svg">
<g id="icons/travel">
<g id="travel 1" clip-path="url(#clip0_3662_5573)">
<g id="Group">
<g id="Group_2">
<path id="Vector" d="M53.65 44.4572V43.5287L48.1714 45.6644L48.3571 46.5001L41.4857 49.1929C39.0714 50.1215 36.2857 49.1929 34.8 47.0572L33.8714 45.5715L56.3428 35.9144C56.6214 35.7287 56.9928 35.6358 57.2714 35.5429C54.0214 28.5787 46.9643 23.6572 38.7928 23.6572C27.5571 23.6572 18.3643 32.7572 18.3643 44.0858C18.3643 55.3215 27.4643 64.5144 38.7928 64.5144C50.0285 64.5144 59.2214 55.4144 59.2214 44.0858C59.2214 43.5287 59.2214 42.9715 59.1285 42.3215L53.65 44.4572Z" fill="url(#paint0_linear_3662_5573)"></path>
<path id="Vector_2" d="M53.9287 40.0004C60.6468 40.0004 66.093 34.5543 66.093 27.8362C66.093 21.118 60.6468 15.6719 53.9287 15.6719C47.2105 15.6719 41.7644 21.118 41.7644 27.8362C41.7644 34.5543 47.2105 40.0004 53.9287 40.0004Z" fill="#ADE3F6"></path>
<path id="Vector_3" d="M36.9664 44.1967C37.6636 43.8959 37.7844 42.9584 37.1862 42.4907L33.8545 39.8859C33.5771 39.669 33.206 39.614 32.8776 39.7411L31.6859 40.2024C31.091 40.4327 30.8609 41.1537 31.2125 41.686L33.317 44.873C33.5841 45.2773 34.1026 45.4321 34.5476 45.2401L36.9664 44.1967Z" stroke="#08526D" stroke-width="2" stroke-linecap="round" stroke-linejoin="round" class="id_anim_stroke-property2" data-duration="2.7777777777777777" data-offset="0" style="stroke-dashoffset: 0px; stroke-dasharray: 0px, 18.2457px; animation: 2.77778s linear 0s 1 normal forwards running id_anim_stroke-property2;"></path>
<path id="Vector_4" d="M19.293 37.8645C20.2215 37.4931 21.1501 37.4002 21.7073 37.8645C23.6573 39.4431 26.2573 38.7931 26.7215 34.9859C27.2787 31.2717 30.4358 32.5717 31.9215 30.8074C32.8501 29.7859 32.6644 26.8145 32.3858 24.5859C26.1644 26.7217 21.243 31.6431 19.293 37.8645Z" stroke="#08526D" stroke-width="2" stroke-linecap="round" stroke-linejoin="round" class="id_anim_stroke-property3" data-duration="2.7777777777777777" data-offset="0" style="stroke-dashoffset: 0px; stroke-dasharray: 0px, 42.8116px; animation: 2.77778s linear 0s 1 normal forwards running id_anim_stroke-property3;"></path>
<path id="Vector_5" d="M48.7711 39.1468C49.3933 38.8801 49.5763 38.0852 49.1333 37.5733L46.3125 34.3137C46.0353 33.9934 45.5864 33.8825 45.1919 34.0368L42.6833 35.0185C42.106 35.2443 41.8712 35.9356 42.1915 36.4664L44.3788 40.091C44.6366 40.5183 45.1701 40.6901 45.6289 40.4935L48.7711 39.1468Z" stroke="#08526D" stroke-width="2" stroke-linecap="round" stroke-linejoin="round" class="id_anim_stroke-property4" data-duration="2.7777777777777777" data-offset="0" style="stroke-dashoffset: 0px; stroke-dasharray: 0px, 20.9412px; animation: 2.77778s linear 0s 1 normal forwards running id_anim_stroke-property4;"></path>
<path id="Vector_6" d="M49.2488 51.7499C49.3654 52.3563 49.9983 52.7131 50.5775 52.4991L53.0811 51.5738C53.4779 51.4271 53.7395 51.0467 53.7344 50.6237L53.6671 45.0355C53.6588 44.3456 52.9707 43.8712 52.3229 44.1087L48.8769 45.3722C48.4167 45.541 48.1466 46.0185 48.2392 46.4999L49.2488 51.7499Z" stroke="#08526D" stroke-width="2" stroke-linecap="round" stroke-linejoin="round" class="id_anim_stroke-property5" data-duration="2.7777777777777777" data-offset="0" style="stroke-dashoffset: 0px; stroke-dasharray: 0px, 23.559px; animation: 2.77778s linear 0s 1 normal forwards running id_anim_stroke-property5;"></path>
<path id="Vector_7" d="M63.3071 38.7935L62.8428 37.5863C61.9143 35.0792 58.6643 34.8006 56.25 35.9149L33.7786 45.572L34.7071 47.0577C36.1929 49.2863 38.9786 50.122 41.3929 49.1935L48.2643 46.5006L48.0786 45.6649L53.5571 43.5292V44.4577L62.1929 41.1149C63.2143 40.8363 63.6786 39.722 63.3071 38.7935Z" stroke="#08526D" stroke-width="2" stroke-linecap="round" stroke-linejoin="round" class="id_anim_stroke-property6" data-duration="2.7777777777777777" data-offset="0" style="stroke-dashoffset: 0px; stroke-dasharray: 0px, 69.927px; animation: 2.77778s linear 0s 1 normal forwards running id_anim_stroke-property6;"></path>
<path id="Vector_8" d="M19.0143 49.5645C19.0143 49.5645 14.0929 52.7216 15.95 55.5073C17.7143 58.3859 28.0215 55.693 33.7786 52.5359" stroke="#08526D" stroke-width="2" stroke-linecap="round" stroke-linejoin="round" class="id_anim_stroke-property7" data-duration="2.7777777777777777" data-offset="0" style="stroke-dashoffset: 0px; stroke-dasharray: 0px, 26.3094px; animation: 2.77778s linear 0s 1 normal forwards running id_anim_stroke-property7;"></path>
<path id="Vector_9" d="M53.65 44.4572V43.5287L48.1714 45.6644L48.3571 46.5001L41.4857 49.1929C39.0714 50.1215 36.2857 49.1929 34.8 47.0572L33.8714 45.5715L56.3428 35.9144C56.6214 35.7287 56.9928 35.6358 57.2714 35.5429C54.0214 28.5787 46.9643 23.6572 38.7928 23.6572C27.5571 23.6572 18.3643 32.7572 18.3643 44.0858C18.3643 55.3215 27.4643 64.5144 38.7928 64.5144C50.0285 64.5144 59.2214 55.4144 59.2214 44.0858C59.2214 43.5287 59.2214 42.9715 59.1285 42.3215L53.65 44.4572Z" stroke="#08526D" stroke-width="2" stroke-linecap="round" stroke-linejoin="round" class="id_anim_stroke-property8" data-duration="2.7777777777777777" data-offset="0" style="stroke-dashoffset: 0px; stroke-dasharray: 0px, 176.937px; animation: 2.77778s linear 0s 1 normal forwards running id_anim_stroke-property8;"></path>
<path id="Vector_10" d="M53.6502 44.458V43.5294L48.1716 45.6651L48.3573 46.5008L41.4859 49.1937C40.8359 49.4723 40.1859 49.5651 39.5359 49.5651C39.5359 49.9366 39.6287 50.2151 39.6287 50.5866C40.6502 58.758 38.3287 57.5508 34.243 58.5723C31.9216 59.1294 31.9216 61.5437 32.293 63.4937C34.3359 64.1437 36.5644 64.5151 38.793 64.5151C50.0287 64.5151 59.2216 55.4151 59.2216 44.0866C59.2216 43.5294 59.2216 42.9723 59.1287 42.3223L53.6502 44.458Z" stroke="#08526D" stroke-width="2" stroke-linecap="round" stroke-linejoin="round" class="id_anim_stroke-property9" data-duration="2.7777777777777777" data-offset="0" style="stroke-dashoffset: 0px; stroke-dasharray: 0px, 82.1347px; animation: 2.77778s linear 0s 1 normal forwards running id_anim_stroke-property9;"></path>
</g>
</g>
</g>
</g>
<defs>
<linearGradient id="paint0_linear_3662_5573" x1="38.6895" y1="65.2263" x2="38.6895" y2="48.2024" gradientUnits="userSpaceOnUse">
<stop stop-color="#ADE3F6"></stop>
<stop offset="1" stop-color="#ADE3F6" stop-opacity="0"></stop>
</linearGradient>
<clipPath id="clip0_3662_5573">
<rect width="52" height="52" fill="white" transform="translate(14 14)"></rect>
</clipPath>
</defs>
<style>
        @keyframes id_anim_stroke-property2{
        
            0%{
                stroke-dashoffset: 0px; 
        stroke-dasharray: 0px, 18.245662689208984px;
            }
        
            50%{
                stroke-dashoffset: -9.122831344604492px; 
        stroke-dasharray: 9.122831344604492px, 9.122831344604492px;
            }
        
            100%{
                stroke-dashoffset: -18.245662689208984px; 
        stroke-dasharray: 18.245662689208984px, 0px;
            }
        
        }
         
        @keyframes id_anim_stroke-property3{
        
            0%{
                stroke-dashoffset: 0px; 
        stroke-dasharray: 0px, 42.8116340637207px;
            }
        
            50%{
                stroke-dashoffset: -21.40581703186035px; 
        stroke-dasharray: 21.40581703186035px, 21.40581703186035px;
            }
        
            100%{
                stroke-dashoffset: -42.8116340637207px; 
        stroke-dasharray: 42.8116340637207px, 0px;
            }
        
        }
         
        @keyframes id_anim_stroke-property4{
        
            0%{
                stroke-dashoffset: 0px; 
        stroke-dasharray: 0px, 20.94120979309082px;
            }
        
            50%{
                stroke-dashoffset: -10.47060489654541px; 
        stroke-dasharray: 10.47060489654541px, 10.47060489654541px;
            }
        
            100%{
                stroke-dashoffset: -20.94120979309082px; 
        stroke-dasharray: 20.94120979309082px, 0px;
            }
        
        }
         
        @keyframes id_anim_stroke-property5{
        
            0%{
                stroke-dashoffset: 0px; 
        stroke-dasharray: 0px, 23.55895233154297px;
            }
        
            50%{
                stroke-dashoffset: -11.779476165771484px; 
        stroke-dasharray: 11.779476165771484px, 11.779476165771484px;
            }
        
            100%{
                stroke-dashoffset: -23.55895233154297px; 
        stroke-dasharray: 23.55895233154297px, 0px;
            }
        
        }
         
        @keyframes id_anim_stroke-property6{
        
            0%{
                stroke-dashoffset: 0px; 
        stroke-dasharray: 0px, 69.92696380615234px;
            }
        
            50%{
                stroke-dashoffset: -34.96348190307617px; 
        stroke-dasharray: 34.96348190307617px, 34.96348190307617px;
            }
        
            100%{
                stroke-dashoffset: -69.92696380615234px; 
        stroke-dasharray: 69.92696380615234px, 0px;
            }
        
        }
         
        @keyframes id_anim_stroke-property7{
        
            0%{
                stroke-dashoffset: 0px; 
        stroke-dasharray: 0px, 26.309358596801758px;
            }
        
            50%{
                stroke-dashoffset: -13.154679298400879px; 
        stroke-dasharray: 13.154679298400879px, 13.154679298400879px;
            }
        
            100%{
                stroke-dashoffset: -26.309358596801758px; 
        stroke-dasharray: 26.309358596801758px, 0px;
            }
        
        }
         
        @keyframes id_anim_stroke-property8{
        
            0%{
                stroke-dashoffset: 0px; 
        stroke-dasharray: 0px, 176.93661499023438px;
            }
        
            50%{
                stroke-dashoffset: -88.46830749511719px; 
        stroke-dasharray: 88.46830749511719px, 88.46830749511719px;
            }
        
            100%{
                stroke-dashoffset: -176.93661499023438px; 
        stroke-dasharray: 176.93661499023438px, 0px;
            }
        
        }
         
        @keyframes id_anim_stroke-property9{
        
            0%{
                stroke-dashoffset: 0px; 
        stroke-dasharray: 0px, 82.13465118408203px;
            }
        
            50%{
                stroke-dashoffset: -41.067325592041016px; 
        stroke-dasharray: 41.067325592041016px, 41.067325592041016px;
            }
        
            100%{
                stroke-dashoffset: -82.13465118408203px; 
        stroke-dasharray: 82.13465118408203px, 0px;
            }
        
        }
        </style></svg>
