<svg width="80" height="80" viewBox="0 0 80 80" fill="none" xmlns="http://www.w3.org/2000/svg">
<g id="icons/charity">
<g id="charity-orange 1">
<path id="Vector" d="M49.3786 16.6931L47.4286 17.1573L44.55 18.6431L41.8572 20.3145C41.8572 20.3145 40 22.3573 40 22.4502C39.9072 22.5431 37.3072 25.1431 37.3072 25.1431L36.1929 28.4859L36.3786 31.8288L40.5572 32.0145C40.5572 32.0145 41.3929 28.4859 41.7643 28.5788C42.1357 28.6716 45.9429 25.6073 46.1286 25.5145C46.2214 25.4216 50.3072 25.7002 50.3072 25.7002L51.7 26.7216L50.8643 28.6716L47.4286 31.4573L42.9714 34.0573L41.8572 36.3788L42.5072 38.3288C42.5072 38.3288 44.2714 38.7002 44.6429 38.7002C44.9214 38.7931 48.2643 37.6788 48.2643 37.6788L53.65 35.1716L57.55 32.7573L60.9857 29.6931L62.2857 27.2788L61.1714 15.9502L49.3786 16.6931Z" fill="url(#paint0_linear_3662_5578)"></path>
<g id="Group">
<g id="Group_2">
<path id="Vector_2" d="M33.9643 49.5641C31.1785 50.0284 29.0428 54.3927 33.2214 58.4784C36.9357 62.0998 38.5143 62.9355 38.5143 62.9355V51.9784C37.7714 50.307 36.5643 49.0998 33.9643 49.5641Z" fill="#ADE3F6"></path>
<path id="Vector_3" d="M43.1571 49.5638C40.6499 49.1923 39.4428 50.3995 38.6071 51.978V62.9352C38.6071 62.9352 40.1856 62.0995 43.8999 58.478C48.0785 54.3923 45.9428 49.9352 43.1571 49.5638Z" fill="#ADE3F6"></path>
</g>
<path id="Vector_4" d="M60.45 46.6855H16.7643C16.212 46.6855 15.7643 47.1333 15.7643 47.6855V63.7927C15.7643 64.345 16.212 64.7927 16.7643 64.7927H60.45C61.0023 64.7927 61.45 64.345 61.45 63.7927V47.6855C61.45 47.1333 61.0023 46.6855 60.45 46.6855Z" stroke="#08526D" stroke-width="2" stroke-linecap="round" stroke-linejoin="round" class="id_anim_stroke-property3" data-duration="2.7777777777777777" data-offset="0" style="stroke-dashoffset: 0px; stroke-dasharray: 0px, 125.87px; animation: 2.77778s linear 0s 1 normal forwards running id_anim_stroke-property3;"></path>
<path id="Vector_5" d="M29.1357 41.9502H48.0786" stroke="#08526D" stroke-width="2" stroke-linecap="round" stroke-linejoin="round" class="id_anim_stroke-property4" data-duration="2.7777777777777777" data-offset="0" style="stroke-dashoffset: 0px; stroke-dasharray: 0px, 18.9429px; animation: 2.77778s linear 0s 1 normal forwards running id_anim_stroke-property4;"></path>
<path id="Vector_6" d="M15.7643 46.6863L25.1429 37.2148H29.1357" stroke="#08526D" stroke-width="2" stroke-linecap="round" stroke-linejoin="round" class="id_anim_stroke-property5" data-duration="2.7777777777777777" data-offset="0" style="stroke-dashoffset: 0px; stroke-dasharray: 0px, 17.322px; animation: 2.77778s linear 0s 1 normal forwards running id_anim_stroke-property5;"></path>
<path id="Vector_7" d="M62.1929 27.7429L57.1786 32.7572C56.3429 33.5929 55.4143 34.2429 54.3 34.7072L45.2929 38.6072C44.1786 39.0715 42.7857 38.7001 42.1357 37.5858C41.4857 36.4715 41.7643 34.9858 42.8786 34.2429L50.3072 29.2286L51.3286 27.1858C51.6072 26.6286 51.3286 25.8858 50.6786 25.7001L48.0786 24.8643C47.4286 24.6786 46.7786 24.7715 46.3143 25.1429L41.6714 28.4858L40.9286 31.7358" stroke="#08526D" stroke-width="2" stroke-linecap="round" stroke-linejoin="round" class="id_anim_stroke-property6" data-duration="2.7777777777777777" data-offset="0" style="stroke-dashoffset: 0px; stroke-dasharray: 0px, 54.5296px; animation: 2.77778s linear 0s 1 normal forwards running id_anim_stroke-property6;"></path>
<path id="Vector_8" d="M36.1929 31.7359L36.8429 27.0931C36.9357 26.5359 37.1214 25.9788 37.4929 25.5145L39.9072 22.0788C40.1857 21.6145 40.65 21.2431 41.0214 20.9645L46.2214 17.2502C47.4286 16.4145 48.8214 15.9502 50.2143 15.9502H61.45" stroke="#08526D" stroke-width="2" stroke-linecap="round" stroke-linejoin="round" class="id_anim_stroke-property7" data-duration="2.7777777777777777" data-offset="0" style="stroke-dashoffset: 0px; stroke-dasharray: 0px, 34.0889px; animation: 2.77778s linear 0s 1 normal forwards running id_anim_stroke-property7;"></path>
<g id="Group_3">
<path id="Vector_9" d="M61.45 46.6858L53.5571 38.793" stroke="#08526D" stroke-width="2" stroke-linecap="round" stroke-linejoin="round" class="id_anim_stroke-property8" data-duration="2.7777777777777777" data-offset="0" style="stroke-dashoffset: 0px; stroke-dasharray: 0px, 11.1622px; animation: 2.77778s linear 0s 1 normal forwards running id_anim_stroke-property8;"></path>
</g>
<path id="Vector_10" d="M43.4357 33.964C42.3214 32.5711 40.5571 31.6426 38.6071 31.6426C35.0786 31.6426 32.2928 34.4283 32.2928 37.9569C32.2928 39.4426 32.85 40.8354 33.6857 41.8569" stroke="#08526D" stroke-width="2" stroke-linecap="round" stroke-linejoin="round" class="id_anim_stroke-property9" data-duration="2.7777777777777777" data-offset="0" style="stroke-dashoffset: 0px; stroke-dasharray: 0px, 19.6993px; animation: 2.77778s linear 0s 1 normal forwards running id_anim_stroke-property9;"></path>
<path id="Vector_11" d="M44.8286 38.8857C44.6429 40.0929 44.1786 41.1143 43.5286 41.95" stroke="#08526D" stroke-width="2" stroke-linecap="round" stroke-linejoin="round" class="id_anim_stroke-property10" data-duration="2.7777777777777777" data-offset="0" style="stroke-dashoffset: 0px; stroke-dasharray: 0px, 3.36537px; animation: 2.77778s linear 0s 1 normal forwards running id_anim_stroke-property10;"></path>
</g>
</g>
</g>
<defs>
<linearGradient id="paint0_linear_3662_5578" x1="40.7327" y1="33.425" x2="61.3607" y2="17.5839" gradientUnits="userSpaceOnUse">
<stop stop-color="#ADE3F6"></stop>
<stop offset="0.3549" stop-color="#ADE3F6" stop-opacity="0"></stop>
</linearGradient>
</defs>
<style>
        @keyframes id_anim_stroke-property3{
        
            0%{
                stroke-dashoffset: 0px; 
        stroke-dasharray: 0px, 125.86988830566406px;
            }
        
            50%{
                stroke-dashoffset: -62.93494415283203px; 
        stroke-dasharray: 62.93494415283203px, 62.93494415283203px;
            }
        
            100%{
                stroke-dashoffset: -125.86988830566406px; 
        stroke-dasharray: 125.86988830566406px, 0px;
            }
        
        }
         
        @keyframes id_anim_stroke-property4{
        
            0%{
                stroke-dashoffset: 0px; 
        stroke-dasharray: 0px, 18.942901611328125px;
            }
        
            50%{
                stroke-dashoffset: -9.471450805664062px; 
        stroke-dasharray: 9.471450805664062px, 9.471450805664062px;
            }
        
            100%{
                stroke-dashoffset: -18.942901611328125px; 
        stroke-dasharray: 18.942901611328125px, 0px;
            }
        
        }
         
        @keyframes id_anim_stroke-property5{
        
            0%{
                stroke-dashoffset: 0px; 
        stroke-dasharray: 0px, 17.321992874145508px;
            }
        
            50%{
                stroke-dashoffset: -8.660996437072754px; 
        stroke-dasharray: 8.660996437072754px, 8.660996437072754px;
            }
        
            100%{
                stroke-dashoffset: -17.321992874145508px; 
        stroke-dasharray: 17.321992874145508px, 0px;
            }
        
        }
         
        @keyframes id_anim_stroke-property6{
        
            0%{
                stroke-dashoffset: 0px; 
        stroke-dasharray: 0px, 54.529563903808594px;
            }
        
            50%{
                stroke-dashoffset: -27.264781951904297px; 
        stroke-dasharray: 27.264781951904297px, 27.264781951904297px;
            }
        
            100%{
                stroke-dashoffset: -54.529563903808594px; 
        stroke-dasharray: 54.529563903808594px, 0px;
            }
        
        }
         
        @keyframes id_anim_stroke-property7{
        
            0%{
                stroke-dashoffset: 0px; 
        stroke-dasharray: 0px, 34.08892059326172px;
            }
        
            50%{
                stroke-dashoffset: -17.04446029663086px; 
        stroke-dasharray: 17.04446029663086px, 17.04446029663086px;
            }
        
            100%{
                stroke-dashoffset: -34.08892059326172px; 
        stroke-dasharray: 34.08892059326172px, 0px;
            }
        
        }
         
        @keyframes id_anim_stroke-property8{
        
            0%{
                stroke-dashoffset: 0px; 
        stroke-dasharray: 0px, 11.162177085876465px;
            }
        
            50%{
                stroke-dashoffset: -5.581088542938232px; 
        stroke-dasharray: 5.581088542938232px, 5.581088542938232px;
            }
        
            100%{
                stroke-dashoffset: -11.162177085876465px; 
        stroke-dasharray: 11.162177085876465px, 0px;
            }
        
        }
         
        @keyframes id_anim_stroke-property9{
        
            0%{
                stroke-dashoffset: 0px; 
        stroke-dasharray: 0px, 19.699310302734375px;
            }
        
            50%{
                stroke-dashoffset: -9.849655151367188px; 
        stroke-dasharray: 9.849655151367188px, 9.849655151367188px;
            }
        
            100%{
                stroke-dashoffset: -19.699310302734375px; 
        stroke-dasharray: 19.699310302734375px, 0px;
            }
        
        }
         
        @keyframes id_anim_stroke-property10{
        
            0%{
                stroke-dashoffset: 0px; 
        stroke-dasharray: 0px, 3.365370512008667px;
            }
        
            50%{
                stroke-dashoffset: -1.6826852560043335px; 
        stroke-dasharray: 1.6826852560043335px, 1.6826852560043335px;
            }
        
            100%{
                stroke-dashoffset: -3.365370512008667px; 
        stroke-dasharray: 3.365370512008667px, 0px;
            }
        
        }
        </style></svg>
