<svg width="80" height="80" viewBox="0 0 80 80" fill="none" xmlns="http://www.w3.org/2000/svg">
<g id="icons/healthcare">
<g id="healthcare-yellow 1" clip-path="url(#clip0_3662_5379)">
<path id="Vector" d="M58.3263 33.5001H37.4594C36.2915 33.5001 35.3572 32.3746 35.3572 30.9677V17.4612C35.3572 16.0543 36.2915 14.9287 37.4594 14.9287H58.3263C59.4943 14.9287 60.4286 16.0543 60.4286 17.4612V30.9677C60.4286 32.3746 59.4943 33.5001 58.3263 33.5001Z" fill="#ADE3F6"></path>
<g id="Group">
<path id="Vector_2" d="M17.6213 47.2425H25.4213L29.4142 37.864C29.5999 37.3997 30.0642 37.1211 30.6213 37.1211C31.0856 37.1211 31.5499 37.4925 31.7356 37.9568L35.3571 51.1425L38.0499 45.1068C38.2356 44.7354 38.6071 44.4568 39.0713 44.364C39.5356 44.364 39.9071 44.5497 40.1856 44.8282L41.8571 47.2425H51.4213" stroke="#08526D" stroke-width="2" stroke-linecap="round" stroke-linejoin="round" class="id_anim_stroke-property1" data-duration="2.7777777777777777" data-offset="0" style="stroke-dashoffset: 0px; stroke-dasharray: 0px, 56.3036px; animation: 2.77778s linear 0s 1 normal forwards running id_anim_stroke-property1;"></path>
<path id="Vector_3" d="M50.8642 48.2643C48.1713 50.9572 40.3713 58.85 34.4285 65.0715C28.4856 58.85 20.6856 50.9572 17.9928 48.2643C16.9713 47.2429 16.2285 46.1286 15.6713 44.8286C15.207 43.6215 14.9285 42.4143 14.9285 40.9286C14.9285 35.0786 19.5713 29.1357 25.8856 29.1357C32.107 29.1357 34.4285 32.4786 34.4285 32.4786C34.4285 32.4786 36.7499 29.1357 42.9713 29.1357C49.2856 29.1357 53.9285 34.9857 53.9285 40.9286C53.9285 42.4143 53.6499 43.7143 53.1856 44.9215C52.7213 46.1286 51.8856 47.3357 50.8642 48.2643Z" fill="url(#paint0_linear_3662_5379)"></path>
<path id="Vector_4" d="M50.8642 48.2643C48.1713 50.9572 40.3713 58.85 34.4285 65.0715C28.4856 58.85 20.6856 50.9572 17.9928 48.2643C16.9713 47.2429 16.2285 46.1286 15.6713 44.8286C15.207 43.6215 14.9285 42.4143 14.9285 40.9286C14.9285 35.0786 19.5713 29.1357 25.8856 29.1357C32.107 29.1357 34.4285 32.4786 34.4285 32.4786C34.4285 32.4786 36.7499 29.1357 42.9713 29.1357C49.2856 29.1357 53.9285 34.9857 53.9285 40.9286C53.9285 42.4143 53.6499 43.7143 53.1856 44.9215C52.7213 46.1286 51.8856 47.3357 50.8642 48.2643Z" stroke="#08526D" stroke-width="2" stroke-linecap="round" stroke-linejoin="round" class="id_anim_stroke-property3" data-duration="2.7777777777777777" data-offset="0" style="stroke-dashoffset: 0px; stroke-dasharray: 0px, 117.94px; animation: 2.77778s linear 0s 1 normal forwards running id_anim_stroke-property3;"></path>
</g>
</g>
</g>
<defs>
<linearGradient id="paint0_linear_3662_5379" x1="34.4285" y1="65.0715" x2="34.4285" y2="29.1317" gradientUnits="userSpaceOnUse">
<stop offset="0.01" stop-color="#ADE3F6"></stop>
<stop offset="0.4" stop-color="#ADE3F6" stop-opacity="0"></stop>
</linearGradient>
<clipPath id="clip0_3662_5379">
<rect width="52" height="52" fill="white" transform="translate(14 14)"></rect>
</clipPath>
</defs>
<style>
        @keyframes id_anim_stroke-property1{
        
            0%{
                stroke-dashoffset: 0px; 
        stroke-dasharray: 0px, 56.30356979370117px;
            }
        
            50%{
                stroke-dashoffset: -28.151784896850586px; 
        stroke-dasharray: 28.151784896850586px, 28.151784896850586px;
            }
        
            100%{
                stroke-dashoffset: -56.30356979370117px; 
        stroke-dasharray: 56.30356979370117px, 0px;
            }
        
        }
         
        @keyframes id_anim_stroke-property3{
        
            0%{
                stroke-dashoffset: 0px; 
        stroke-dasharray: 0px, 117.94023895263672px;
            }
        
            50%{
                stroke-dashoffset: -58.97011947631836px; 
        stroke-dasharray: 58.97011947631836px, 58.97011947631836px;
            }
        
            100%{
                stroke-dashoffset: -117.94023895263672px; 
        stroke-dasharray: 117.94023895263672px, 0px;
            }
        
        }
        </style></svg>
