<svg width="80" height="80" viewBox="0 0 80 80" fill="none" xmlns="http://www.w3.org/2000/svg">
<g id="icons/citizen">
<g id="citizens-red 1" clip-path="url(#clip0_3662_5576)">
<g id="Group">
<g id="Group_2">
<path id="Vector" d="M52.7214 55.6931C52.5357 55.6003 52.2572 55.5074 52.0714 55.4146H51.9786C51.7929 55.3217 51.5143 55.2289 51.3286 55.2289C51.3286 55.2289 51.2357 55.2289 51.1429 55.2289C50.5857 55.0431 50.0286 54.9503 49.3786 54.8574H49.2857C49.1 54.8574 49.0072 54.9503 48.9143 55.0431C48.3572 55.6003 47.6143 55.9717 46.6857 55.9717C45.7572 55.9717 45.0143 55.6003 44.4572 55.0431C44.3643 54.9503 44.1786 54.8574 44.0857 54.8574H43.9929C43.3429 54.9503 42.7857 55.136 42.2286 55.3217C42.0429 55.4146 41.4857 55.6003 40.8357 55.8788C40.3714 56.1574 40 56.5289 39.7214 56.9003C39.6286 56.9003 39.4429 56.8074 39.35 56.8074C39.35 56.8074 39.2572 56.8074 39.1643 56.7146C38.6072 56.5289 38.05 56.436 37.4 56.2503H37.3072C37.1214 56.2503 37.0286 56.3431 36.9357 56.436C36.3786 56.9931 35.6357 57.3646 34.7072 57.3646C33.7786 57.3646 33.0357 56.9931 32.4786 56.436C32.3857 56.3431 32.2 56.2503 32.1072 56.2503H32.0143C31.3643 56.3431 30.8072 56.5289 30.25 56.7146C30.1572 56.7146 29.9714 56.8074 29.7857 56.9003C29.5072 56.5289 29.2286 56.1574 28.7643 55.8788C28.5786 55.786 28.3 55.6931 28.1143 55.6003H28.0214C27.8357 55.5074 27.5572 55.4146 27.3714 55.4146C27.3714 55.4146 27.2786 55.4146 27.1857 55.4146C26.6286 55.2288 26.0714 55.136 25.4214 55.0431H25.3286C25.1429 55.0431 25.05 55.136 24.9572 55.2289C24.4 55.786 23.6572 56.1574 22.7286 56.1574C21.8 56.1574 21.0572 55.786 20.5 55.2289C20.4072 55.136 20.2214 55.0431 20.1286 55.0431H20.0357C19.3857 55.136 18.8286 55.3217 18.2714 55.5074C18.0857 55.6003 17.5286 55.786 16.8786 56.0646C15.95 56.5288 15.3 57.4574 15.2072 58.4789C15.2072 58.7574 15.2072 58.9431 15.2072 59.2217V60.5217C15.2072 61.3574 15.6714 62.1931 16.4143 62.5646C19.9429 64.3288 23.9357 64.6074 27.65 63.2146C27.8357 63.586 28.1143 63.8646 28.4857 64.0503C32.4786 66.0931 37.1214 66.0931 41.1143 64.0503C41.4857 63.8646 41.7643 63.586 41.95 63.2146C45.5714 64.6074 49.6572 64.3288 53.1857 62.5646C53.9286 62.1931 54.3929 61.3574 54.3929 60.5217V58.5717C54.2072 57.086 53.65 56.2503 52.7214 55.6931Z" fill="url(#paint0_linear_3662_5576)"></path>
</g>
<g id="Group_3">
<g id="Group_4">
<g id="Group_5">
<g id="Group_6">
<path id="Vector_2" d="M34.5215 54.2067C36.5643 54.2067 38.1429 52.6282 38.1429 50.5853C38.1429 48.5424 36.5643 46.9639 34.5215 46.9639C32.4786 46.9639 30.9 48.5424 30.9 50.5853C30.9 52.6282 32.5715 54.2067 34.5215 54.2067Z" stroke="#08526D" stroke-width="2" stroke-miterlimit="10" stroke-linecap="round" stroke-linejoin="round" class="id_anim_stroke-property1" data-duration="2.7777777777777777" data-offset="0" style="stroke-dashoffset: 0px; stroke-dasharray: 0px, 22.8119px; animation: 2.77778s linear 0s 1 normal forwards running id_anim_stroke-property1;"></path>
</g>
<g id="Group_7">
<path id="Vector_3" d="M42.1358 59.4994V61.4494C42.1358 61.9136 42.0429 62.3779 41.7643 62.6565C41.5786 63.0279 41.3 63.3065 40.9286 63.4922C36.9358 65.5351 32.2 65.5351 28.3 63.4922C27.9286 63.3065 27.65 63.0279 27.4643 62.6565C27.2786 62.2851 27.0929 61.8208 27.0929 61.4494V60.1494C27.0929 59.9636 27.0929 59.6851 27.0929 59.4065C27.0929 58.3851 27.7429 57.4565 28.7643 56.9922C29.1358 56.8065 29.5072 56.6208 29.6929 56.5279C29.8786 56.4351 30.0643 56.4351 30.1572 56.3422C30.7143 56.1565 31.2715 56.0636 31.9215 55.8779H32.0143C32.2 55.8779 32.2929 55.8779 32.3858 56.0636C32.9429 56.6208 33.6858 56.9922 34.6143 56.9922C35.5429 56.9922 36.2858 56.6208 36.8429 56.0636C36.9358 55.9708 37.1215 55.8779 37.2143 55.8779H37.3072C37.9572 55.9708 38.5143 56.1565 39.0715 56.3422C39.0715 56.3422 39.1643 56.3422 39.2572 56.4351C39.35 56.4351 39.4429 56.5279 39.6286 56.5279C39.7215 56.5279 39.8143 56.6208 40 56.6208H40.0929C40.3715 56.7136 40.5572 56.8065 40.7429 56.8994C41.5786 57.6422 42.1358 58.4779 42.1358 59.4994Z" stroke="#08526D" stroke-width="2" stroke-miterlimit="10" stroke-linecap="round" stroke-linejoin="round" class="id_anim_stroke-property2" data-duration="2.7777777777777777" data-offset="0" style="stroke-dashoffset: 0px; stroke-dasharray: 0px, 41.2324px; animation: 2.77778s linear 0s 1 normal forwards running id_anim_stroke-property2;"></path>
</g>
</g>
</g>
<g id="Group_8">
<g id="Group_9">
<g id="Group_10">
<path id="Vector_4" d="M22.45 52.8141C24.4929 52.8141 26.0715 51.2356 26.0715 49.1927C26.0715 47.1499 24.4929 45.5713 22.45 45.5713C20.4072 45.5713 18.8286 47.1499 18.8286 49.1927C18.8286 51.2356 20.5 52.8141 22.45 52.8141Z" stroke="#08526D" stroke-width="2" stroke-miterlimit="10" stroke-linecap="round" stroke-linejoin="round" class="id_anim_stroke-property3" data-duration="2.7777777777777777" data-offset="0" style="stroke-dashoffset: 0px; stroke-dasharray: 0px, 22.8119px; animation: 2.77778s linear 0s 1 normal forwards running id_anim_stroke-property3;"></path>
</g>
<g id="Group_11">
<path id="Vector_5" d="M29.6 56.621C29.3214 56.7138 29.0429 56.8067 28.6714 57.0853C27.7429 57.5496 27.0929 58.4781 27 59.4996C27 59.7781 27 59.9638 27 60.2424V61.5424C27 62.0067 27.0929 62.471 27.3714 62.7496C23.75 64.1424 19.6643 63.8638 16.1357 62.0996C15.3929 61.7281 14.9286 60.8924 14.9286 60.0567V58.7567C14.9286 58.4781 14.9286 58.2924 14.9286 58.0138C14.9286 56.9924 15.5786 56.0638 16.6 55.5996C17.25 55.2281 17.8072 55.0424 17.9929 55.0424C18.55 54.8567 19.1072 54.7638 19.7572 54.5781H19.85C20.0357 54.5781 20.1286 54.671 20.2214 54.7638C20.7786 55.321 21.5214 55.6924 22.45 55.6924C23.3786 55.6924 24.1214 55.321 24.6786 54.7638C24.7714 54.671 24.9572 54.5781 25.05 54.5781H25.1429C25.7929 54.671 26.35 54.8567 26.9072 54.9496C26.9072 54.9496 27 54.9496 27.0929 54.9496C27.2786 55.0424 27.5572 55.1353 27.7429 55.1353H27.8357C28.1143 55.2281 28.3 55.321 28.4857 55.4138C29.0429 55.8781 29.3214 56.2496 29.6 56.621Z" stroke="#08526D" stroke-width="2" stroke-miterlimit="10" stroke-linecap="round" stroke-linejoin="round" class="id_anim_stroke-property4" data-duration="2.7777777777777777" data-offset="0" style="stroke-dashoffset: 0px; stroke-dasharray: 0px, 41.1206px; animation: 2.77778s linear 0s 1 normal forwards running id_anim_stroke-property4;"></path>
</g>
</g>
</g>
<g id="Group_12">
<g id="Group_13">
<g id="Group_14">
<path id="Vector_6" d="M46.5929 52.8141C48.6357 52.8141 50.2143 51.2356 50.2143 49.1927C50.2143 47.1499 48.6357 45.5713 46.5929 45.5713C44.55 45.5713 42.9714 47.1499 42.9714 49.1927C42.9714 51.2356 44.6429 52.8141 46.5929 52.8141Z" stroke="#08526D" stroke-width="2" stroke-miterlimit="10" stroke-linecap="round" stroke-linejoin="round" class="id_anim_stroke-property5" data-duration="2.7777777777777777" data-offset="0" style="stroke-dashoffset: 0px; stroke-dasharray: 0px, 22.8119px; animation: 2.77778s linear 0s 1 normal forwards running id_anim_stroke-property5;"></path>
</g>
<g id="Group_15">
<path id="Vector_7" d="M54.2071 58.1066V60.0566C54.2071 60.8923 53.7428 61.728 53 62.0995C49.4714 63.8638 45.3857 64.1423 41.7643 62.7495C41.95 62.378 42.1357 61.9138 42.1357 61.5423V59.4995C42.1357 58.478 41.5785 57.6423 40.7428 57.0852C40.5571 56.9923 40.2785 56.8066 40.0928 56.8066H40C39.9071 56.8066 39.8143 56.7138 39.6285 56.7138C39.9071 56.3423 40.2785 55.9709 40.7428 55.6923C41.3928 55.3209 41.95 55.1352 42.1357 55.1352C42.6928 54.9495 43.25 54.8566 43.9 54.6709H43.9928C44.1785 54.6709 44.2714 54.7638 44.3643 54.8566C44.9214 55.4138 45.6643 55.7852 46.5928 55.7852C47.5214 55.7852 48.2643 55.4138 48.8214 54.8566C48.9143 54.7638 49.1 54.6709 49.1928 54.6709H49.2857C49.9357 54.7638 50.4928 54.9495 51.05 55.0423C51.05 55.0423 51.1428 55.0423 51.2357 55.0423C51.4214 55.1352 51.7 55.228 51.8857 55.228H51.9785C52.2571 55.3209 52.4428 55.4138 52.6285 55.5066C53.65 56.2495 54.2071 57.0852 54.2071 58.1066Z" stroke="#08526D" stroke-width="2" stroke-miterlimit="10" stroke-linecap="round" stroke-linejoin="round" class="id_anim_stroke-property6" data-duration="2.7777777777777777" data-offset="0" style="stroke-dashoffset: 0px; stroke-dasharray: 0px, 40.9332px; animation: 2.77778s linear 0s 1 normal forwards running id_anim_stroke-property6;"></path>
</g>
</g>
</g>
</g>
<path id="Vector_8" d="M62.5642 33.3144H37.6785C36.2857 33.3144 35.1714 32.2001 35.1714 30.8073V17.4359C35.1714 16.043 36.2857 14.9287 37.6785 14.9287H62.5642C63.9571 14.9287 65.0714 16.043 65.0714 17.4359V30.8073C65.0714 32.2001 63.9571 33.3144 62.5642 33.3144Z" fill="#ADE3F6"></path>
<g id="Group_16">
<g id="Group_17">
<g id="Group_18">
<path id="Vector_9" d="M47.8929 43.714H47.8C47.4286 43.6211 47.15 43.2497 47.2429 42.8783C47.3357 42.1354 47.4286 41.3926 47.4286 40.5568C47.4286 37.3068 46.2214 34.2426 43.9929 31.8283C41.5786 29.2283 38.1429 27.6497 34.5214 27.6497C30.9 27.6497 27.65 29.0426 25.1429 31.7354C22.9143 34.1497 21.6143 37.3068 21.6143 40.5568C21.6143 41.2997 21.7071 42.1354 21.8 42.8783C21.8929 43.2497 21.6143 43.6211 21.2429 43.714C20.8714 43.8068 20.5 43.5283 20.4072 43.1568C20.2214 42.3211 20.2214 41.4854 20.2214 40.5568C20.2214 36.8426 21.6143 33.4068 24.1214 30.714C26.8143 27.8354 30.5286 26.2568 34.5214 26.2568C38.5143 26.2568 42.3214 27.9283 45.1071 30.8997C47.5214 33.5926 48.9143 37.0283 48.9143 40.5568C48.9143 41.3926 48.8214 42.3211 48.7286 43.1568C48.5429 43.5283 48.2643 43.714 47.8929 43.714Z" fill="#08526D"></path>
</g>
</g>
<g id="Group_19">
<g id="Group_20">
<path id="Vector_10" d="M34.7072 35.0782C34.6143 35.0782 34.6143 35.0782 34.5215 35.0782C32.5715 35.0782 30.6215 34.7996 28.8572 34.1496C27.1857 33.5924 25.6072 32.8496 24.2143 31.8282C23.8429 31.5496 23.8429 31.1782 24.0286 30.8067C24.3072 30.4353 24.6786 30.4353 25.05 30.621C26.35 31.5496 27.7429 32.1996 29.3215 32.7567C30.9929 33.3139 32.7572 33.5924 34.6143 33.5924C34.7072 33.5924 34.7072 33.5924 34.8 33.5924C36.5643 33.5924 38.3286 33.3139 39.9072 32.8496C41.4857 32.3853 42.8786 31.6424 44.1786 30.8067C44.55 30.621 45.0143 30.621 45.2 30.9924C45.3857 31.3639 45.3857 31.8282 45.0143 32.0139C43.6215 33.0353 42.0429 33.7782 40.2786 34.3353C38.5143 34.7996 36.5643 35.0782 34.7072 35.0782Z" fill="#08526D"></path>
</g>
</g>
<g id="Group_21">
<g id="Group_22">
<path id="Vector_11" d="M40.4643 46.4997C40.3715 46.4997 40.3715 46.4997 40.2786 46.4997C39.9072 46.4068 39.6286 46.0354 39.7215 45.664C40 44.0854 40.1857 42.3211 40.1857 40.6497C40.1857 38.2354 39.9072 35.914 39.2572 33.8711C38.2357 30.1568 36.3786 27.8354 34.4286 27.8354C32.5715 27.8354 30.7143 30.1568 29.6929 33.7783L29.6 33.964C29.0429 36.0068 28.7643 38.3283 28.7643 40.6497C28.7643 42.414 28.95 44.0854 29.2286 45.664C29.3215 46.0354 29.0429 46.4068 28.6715 46.4997C28.3 46.5926 27.9286 46.314 27.8357 45.9426C27.4643 44.2711 27.3715 42.414 27.3715 40.6497C27.3715 38.0497 27.7429 35.5426 28.3 33.314L28.4857 32.7568C29.7857 28.6711 32.0143 26.2568 34.5215 26.2568C37.1215 26.2568 39.4429 28.9497 40.7429 33.4068C41.3929 35.5426 41.6715 38.0497 41.6715 40.6497C41.6715 42.5068 41.4857 44.2711 41.2072 45.9426C41.1143 46.2211 40.8357 46.4997 40.4643 46.4997Z" fill="#08526D"></path>
</g>
</g>
<g id="Group_23">
<g id="Group_24">
<path id="Vector_12" d="M48.1714 41.3002H20.9643C20.5929 41.3002 20.2214 40.9287 20.2214 40.5573C20.2214 40.1859 20.5929 39.8145 20.9643 39.8145H48.1714C48.5429 39.8145 48.9143 40.1859 48.9143 40.5573C48.9143 41.0216 48.5429 41.3002 48.1714 41.3002Z" fill="#08526D"></path>
</g>
</g>
<g id="Group_25">
<g id="Group_26">
<path id="Vector_13" d="M34.5214 44.364C34.15 44.364 33.7786 43.9926 33.7786 43.6211V26.9997C33.7786 26.6283 34.15 26.2568 34.5214 26.2568C34.8929 26.2568 35.2643 26.6283 35.2643 26.9997V43.714C35.2643 44.0854 34.9857 44.364 34.5214 44.364Z" fill="#08526D"></path>
</g>
</g>
</g>
</g>
</g>
</g>
<defs>
<linearGradient id="paint0_linear_3662_5576" x1="34.5494" y1="65.0717" x2="34.5494" y2="54.609" gradientUnits="userSpaceOnUse">
<stop stop-color="#ADE3F6"></stop>
<stop offset="0.5947" stop-color="#ADE3F6" stop-opacity="0"></stop>
</linearGradient>
<clipPath id="clip0_3662_5576">
<rect width="52" height="52" fill="white" transform="translate(14 14)"></rect>
</clipPath>
</defs>
<style>
        @keyframes id_anim_stroke-property1{
        
            0%{
                stroke-dashoffset: 0px; 
        stroke-dasharray: 0px, 22.811904907226562px;
            }
        
            50%{
                stroke-dashoffset: -11.405952453613281px; 
        stroke-dasharray: 11.405952453613281px, 11.405952453613281px;
            }
        
            100%{
                stroke-dashoffset: -22.811904907226562px; 
        stroke-dasharray: 22.811904907226562px, 0px;
            }
        
        }
         
        @keyframes id_anim_stroke-property2{
        
            0%{
                stroke-dashoffset: 0px; 
        stroke-dasharray: 0px, 41.232444763183594px;
            }
        
            50%{
                stroke-dashoffset: -20.616222381591797px; 
        stroke-dasharray: 20.616222381591797px, 20.616222381591797px;
            }
        
            100%{
                stroke-dashoffset: -41.232444763183594px; 
        stroke-dasharray: 41.232444763183594px, 0px;
            }
        
        }
         
        @keyframes id_anim_stroke-property3{
        
            0%{
                stroke-dashoffset: 0px; 
        stroke-dasharray: 0px, 22.8118839263916px;
            }
        
            50%{
                stroke-dashoffset: -11.4059419631958px; 
        stroke-dasharray: 11.4059419631958px, 11.4059419631958px;
            }
        
            100%{
                stroke-dashoffset: -22.8118839263916px; 
        stroke-dasharray: 22.8118839263916px, 0px;
            }
        
        }
         
        @keyframes id_anim_stroke-property4{
        
            0%{
                stroke-dashoffset: 0px; 
        stroke-dasharray: 0px, 41.12056350708008px;
            }
        
            50%{
                stroke-dashoffset: -20.56028175354004px; 
        stroke-dasharray: 20.56028175354004px, 20.56028175354004px;
            }
        
            100%{
                stroke-dashoffset: -41.12056350708008px; 
        stroke-dasharray: 41.12056350708008px, 0px;
            }
        
        }
         
        @keyframes id_anim_stroke-property5{
        
            0%{
                stroke-dashoffset: 0px; 
        stroke-dasharray: 0px, 22.811857223510742px;
            }
        
            50%{
                stroke-dashoffset: -11.405928611755371px; 
        stroke-dasharray: 11.405928611755371px, 11.405928611755371px;
            }
        
            100%{
                stroke-dashoffset: -22.811857223510742px; 
        stroke-dasharray: 22.811857223510742px, 0px;
            }
        
        }
         
        @keyframes id_anim_stroke-property6{
        
            0%{
                stroke-dashoffset: 0px; 
        stroke-dasharray: 0px, 40.93321990966797px;
            }
        
            50%{
                stroke-dashoffset: -20.466609954833984px; 
        stroke-dasharray: 20.466609954833984px, 20.466609954833984px;
            }
        
            100%{
                stroke-dashoffset: -40.93321990966797px; 
        stroke-dasharray: 40.93321990966797px, 0px;
            }
        
        }
        </style></svg>
