<svg width="80" height="80" viewBox="0 0 80 80" fill="none" xmlns="http://www.w3.org/2000/svg">
<g id="icons/real-esate">
<g id="real-estate-blue 1" clip-path="url(#clip0_3662_5575)">
<g id="Group">
<path id="Vector" d="M50.2143 44.643C58.4197 44.643 65.0715 37.9912 65.0715 29.7859C65.0715 21.5805 58.4197 14.9287 50.2143 14.9287C42.0089 14.9287 35.3572 21.5805 35.3572 29.7859C35.3572 37.9912 42.0089 44.643 50.2143 44.643Z" fill="#ADE3F6"></path>
<g id="Group_2">
<path id="Vector_2" d="M51.9785 47.1504H18.1786C18.1786 47.1504 18.0857 63.679 18.0857 65.0718H22.8214V51.8861C22.8214 50.9575 23.5643 50.4004 24.3071 50.4004H33.0357C34.0571 50.4004 34.5214 50.8647 34.5214 51.8861V65.0718H52.0714C51.9785 64.2361 51.9785 47.1504 51.9785 47.1504ZM47.3357 57.829C47.2428 58.479 46.6857 58.9432 46.0357 58.9432H39.9071C39.2571 58.8504 38.7928 58.2932 38.8857 57.6432V54.6718C38.8857 53.6504 38.7928 52.7218 38.8857 51.7932V51.6075C38.9786 50.9575 39.5357 50.4932 40.1857 50.5861H46.2214C46.8714 50.679 47.3357 51.2361 47.3357 51.8861V57.829Z" fill="url(#paint0_linear_3662_5575)"></path>
<path id="Vector_3" d="M15.0214 43.3432C15.2072 43.0647 15.3929 42.7861 15.5786 42.5075C17.8072 40.0004 20.0357 37.5861 22.2643 34.9861C22.6357 34.5218 23.1929 34.2432 23.8429 34.2432C31.4572 34.2432 38.9786 34.2432 46.5929 34.1504C47.15 34.1504 47.6143 34.3361 47.9857 34.7075L54.7643 42.4147C54.95 42.6004 55.1357 42.879 55.2286 43.1575C55.4143 43.7147 55.0429 44.3647 54.4857 44.5504C54.3929 44.5504 54.3 44.5504 54.3 44.6432H16.4143C15.7643 44.7361 15.2072 44.3647 14.9286 43.8075L15.0214 43.3432Z" stroke="#08526D" stroke-width="2" stroke-miterlimit="10" stroke-linecap="round" stroke-linejoin="round" class="id_anim_stroke-property2" data-duration="2.7777777777777777" data-offset="0" style="stroke-dashoffset: 0px; stroke-dasharray: 0px, 90.4753px; animation: 2.77778s linear 0s 1 normal forwards running id_anim_stroke-property2;"></path>
<path id="Vector_4" d="M51.9794 49.1456C51.9786 48.0411 51.0831 47.1504 49.9786 47.1504H20.1673C19.0672 47.1504 18.1736 48.0363 18.1675 49.1364C18.1484 52.5685 18.1099 59.5771 18.0934 63.078C18.0882 64.1826 18.9811 65.0718 20.0857 65.0718H20.8214C21.926 65.0718 22.8214 64.1764 22.8214 63.0718V51.8861C22.8214 50.9575 23.5643 50.4004 24.3071 50.4004H33.0357C34.0571 50.4004 34.5214 50.8647 34.5214 51.8861V63.0718C34.5214 64.1764 35.4168 65.0718 36.5214 65.0718H49.8369C51.0289 65.0718 52.0373 64.0369 52.0257 62.8449C51.9911 59.3067 51.9819 52.5141 51.9794 49.1456ZM47.3357 57.6868C47.3357 57.7815 47.3315 57.8767 47.308 57.9684C47.1609 58.5443 46.6382 58.9432 46.0357 58.9432H40.0493C39.9546 58.9432 39.8594 58.939 39.7677 58.9156C39.2379 58.7801 38.863 58.3263 38.8741 57.7849C38.876 57.6903 38.8857 57.5957 38.8857 57.5011V54.6718C38.8857 53.6504 38.7928 52.7218 38.8857 51.7932V51.7497C38.8857 51.655 38.8899 51.5598 38.9134 51.4681C39.0488 50.9383 39.5027 50.5635 40.044 50.5745C40.1386 50.5764 40.2332 50.5861 40.3278 50.5861H46.0793C46.1739 50.5861 46.2691 50.5903 46.3608 50.6138C46.9368 50.7609 47.3357 51.2836 47.3357 51.8861V57.6868Z" stroke="#08526D" stroke-width="2" stroke-miterlimit="10" stroke-linecap="round" stroke-linejoin="round" class="id_anim_stroke-property3" data-duration="2.7777777777777777" data-offset="0" style="stroke-dashoffset: 0px; stroke-dasharray: 0px, 158.079px; animation: 2.77778s linear 0s 1 normal forwards running id_anim_stroke-property3;"></path>
</g>
</g>
</g>
</g>
<defs>
<linearGradient id="paint0_linear_3662_5575" x1="35.0058" y1="65.0718" x2="35.0058" y2="47.1808" gradientUnits="userSpaceOnUse">
<stop stop-color="#ADE3F6"></stop>
<stop offset="0.4" stop-color="#ADE3F6" stop-opacity="0"></stop>
</linearGradient>
<clipPath id="clip0_3662_5575">
<rect width="52" height="52" fill="white" transform="translate(14 14)"></rect>
</clipPath>
</defs>
<style>
        @keyframes id_anim_stroke-property2{
        
            0%{
                stroke-dashoffset: 0px; 
        stroke-dasharray: 0px, 90.47530364990234px;
            }
        
            50%{
                stroke-dashoffset: -45.23765182495117px; 
        stroke-dasharray: 45.23765182495117px, 45.23765182495117px;
            }
        
            100%{
                stroke-dashoffset: -90.47530364990234px; 
        stroke-dasharray: 90.47530364990234px, 0px;
            }
        
        }
         
        @keyframes id_anim_stroke-property3{
        
            0%{
                stroke-dashoffset: 0px; 
        stroke-dasharray: 0px, 158.07949829101562px;
            }
        
            50%{
                stroke-dashoffset: -79.03974914550781px; 
        stroke-dasharray: 79.03974914550781px, 79.03974914550781px;
            }
        
            100%{
                stroke-dashoffset: -158.07949829101562px; 
        stroke-dasharray: 158.07949829101562px, 0px;
            }
        
        }
        </style></svg>
