<svg width="80" height="80" viewBox="0 0 80 80" fill="none" xmlns="http://www.w3.org/2000/svg">
<path d="M51.5005 27C54.5381 27 57.0005 24.5376 57.0005 21.5C57.0005 18.4624 54.5381 16 51.5005 16C48.4629 16 46.0005 18.4624 46.0005 21.5C46.0005 24.5376 48.4629 27 51.5005 27Z" fill="url(#paint0_linear_3867_5121)"/>
<path d="M51.6479 14.9004C54.6437 14.9004 57.2016 17.0368 57.8413 19.915L57.9985 20.6201H64.1284C64.5151 20.6203 64.7876 20.8935 64.7876 21.2803C64.7874 21.6476 64.4827 21.9402 64.1284 21.9404H57.9868L57.8384 22.6582C57.2481 25.5187 54.7022 27.6602 51.6479 27.6602C48.6522 27.6601 46.0942 25.5229 45.4546 22.6445L45.2983 21.9404H15.8716C15.485 21.9402 15.2125 21.6669 15.2124 21.2803C15.2124 20.9129 15.5172 20.6204 15.8716 20.6201H45.3091L45.4575 19.9023C46.0478 17.0418 48.5937 14.9004 51.6479 14.9004ZM51.6479 16.2197C48.8109 16.2198 46.5356 18.495 46.5356 21.332C46.5357 24.1691 48.8109 26.4443 51.6479 26.4443C54.485 26.4443 56.7602 24.1691 56.7603 21.332C56.7603 18.4878 54.4258 16.2197 51.6479 16.2197Z" fill="#08526D"/>
<path d="M29.5005 46C32.5381 46 35.0005 43.5376 35.0005 40.5C35.0005 37.4624 32.5381 35 29.5005 35C26.4629 35 24.0005 37.4624 24.0005 40.5C24.0005 43.5376 26.4629 46 29.5005 46Z" fill="url(#paint1_linear_3867_5121)"/>
<path d="M29.1841 33.6201C32.1798 33.6201 34.7377 35.7565 35.3774 38.6348L35.5337 39.3398H64.1284C64.4958 39.3401 64.7876 39.6456 64.7876 40C64.7874 40.3673 64.4827 40.6599 64.1284 40.6602H35.5229L35.3745 41.3779C34.785 44.2346 32.1902 46.3799 29.1841 46.3799C26.1883 46.3799 23.6304 44.2426 22.9907 41.3643L22.8335 40.6602H15.8716C15.5043 40.6599 15.2126 40.3543 15.2124 40C15.2124 39.6326 15.5172 39.3401 15.8716 39.3398H22.8452L22.9937 38.6221C23.5831 35.7653 26.1779 33.6201 29.1841 33.6201ZM29.1841 34.8877C26.347 34.8877 24.0718 37.1629 24.0718 40C24.0719 42.8441 26.4064 45.1113 29.1841 45.1113C31.9618 45.1113 34.2962 42.8441 34.2964 40C34.2964 37.1558 31.9619 34.8877 29.1841 34.8877Z" fill="#08526D"/>
<path d="M42.0005 64C45.3142 64 48.0005 61.5376 48.0005 58.5C48.0005 55.4624 45.3142 53 42.0005 53C38.6868 53 36.0005 55.4624 36.0005 58.5C36.0005 61.5376 38.6868 64 42.0005 64Z" fill="url(#paint2_linear_3867_5121)"/>
<path d="M42.2876 52.3408C45.2834 52.3408 47.8423 54.4771 48.4819 57.3555L48.6382 58.0605H64.1284C64.5151 58.0607 64.7876 58.3339 64.7876 58.7207C64.7874 59.088 64.4827 59.3806 64.1284 59.3809H48.6265L48.479 60.0986C47.8887 62.9592 45.3419 65.1006 42.2876 65.1006C39.292 65.1004 36.7339 62.9632 36.0942 60.085L35.938 59.3809H15.8716C15.485 59.3807 15.2125 59.1074 15.2124 58.7207C15.2124 58.3533 15.5172 58.0608 15.8716 58.0605H35.9497L36.0972 57.3428C36.6874 54.4823 39.2335 52.341 42.2876 52.3408ZM42.2876 53.5566C39.4509 53.5569 37.1765 55.8313 37.1763 58.668C37.1763 61.5121 39.51 63.78 42.2876 63.7803C45.0654 63.7803 47.3999 61.5122 47.3999 58.668C47.3997 55.8311 45.1245 53.5566 42.2876 53.5566Z" fill="#08526D"/>
<defs>
<linearGradient id="paint0_linear_3867_5121" x1="51.5129" y1="26.5466" x2="51.5129" y2="20.7752" gradientUnits="userSpaceOnUse">
<stop stop-color="#ADE3F6"/>
<stop offset="0.01" stop-color="#ADE3F6" stop-opacity="0.98"/>
<stop offset="0.635" stop-color="#ADE3F6" stop-opacity="0.28"/>
<stop offset="0.9925" stop-color="#ADE3F6" stop-opacity="0"/>
</linearGradient>
<linearGradient id="paint1_linear_3867_5121" x1="29.5129" y1="45.5466" x2="29.5129" y2="39.7752" gradientUnits="userSpaceOnUse">
<stop stop-color="#ADE3F6"/>
<stop offset="0.01" stop-color="#ADE3F6" stop-opacity="0.98"/>
<stop offset="0.635" stop-color="#ADE3F6" stop-opacity="0.28"/>
<stop offset="0.9925" stop-color="#ADE3F6" stop-opacity="0"/>
</linearGradient>
<linearGradient id="paint2_linear_3867_5121" x1="42.014" y1="63.5466" x2="42.014" y2="57.7752" gradientUnits="userSpaceOnUse">
<stop stop-color="#ADE3F6"/>
<stop offset="0.01" stop-color="#ADE3F6" stop-opacity="0.98"/>
<stop offset="0.635" stop-color="#ADE3F6" stop-opacity="0.28"/>
<stop offset="0.9925" stop-color="#ADE3F6" stop-opacity="0"/>
</linearGradient>
</defs>
</svg>
