<svg width="90" height="90" viewBox="0 0 90 90" fill="none" xmlns="http://www.w3.org/2000/svg">
<g clip-path="url(#clip0_3864_639)">
<path d="M43.8569 50.1567C43.8569 50.3827 43.924 50.6037 44.0496 50.7917C44.1752 50.9797 44.3537 51.1262 44.5625 51.2127C44.7714 51.2992 45.0012 51.3218 45.2229 51.2777C45.4446 51.2336 45.6483 51.1247 45.8082 50.9649C45.968 50.805 46.0769 50.6014 46.121 50.3797C46.1651 50.1579 46.1424 49.9281 46.0559 49.7193C45.9694 49.5104 45.8229 49.3319 45.635 49.2063C45.447 49.0807 45.226 49.0137 44.9999 49.0137C44.6968 49.0137 44.4061 49.1341 44.1917 49.3484C43.9774 49.5628 43.8569 49.8535 43.8569 50.1567Z" fill="url(#paint0_linear_3864_639)"/>
<path d="M48.1231 47.0344C47.7127 46.6232 47.2252 46.297 46.6885 46.0744C46.1519 45.8519 45.5766 45.7373 44.9956 45.7373C44.4146 45.7373 43.8394 45.8519 43.3027 46.0744C42.766 46.297 42.2786 46.6232 41.8681 47.0344C41.7792 47.1081 41.7068 47.1996 41.6554 47.303C41.604 47.4064 41.5748 47.5194 41.5697 47.6348C41.5645 47.7502 41.5836 47.8653 41.6256 47.9729C41.6676 48.0804 41.7317 48.178 41.8136 48.2593C41.8956 48.3407 41.9937 48.404 42.1015 48.4451C42.2094 48.4863 42.3247 48.5045 42.44 48.4985C42.5553 48.4924 42.6681 48.4624 42.7711 48.4102C42.8741 48.358 42.9651 48.2848 43.0381 48.1954C43.5604 47.6788 44.2654 47.389 45.0001 47.389C45.7348 47.389 46.4398 47.6788 46.9621 48.1954C47.0376 48.274 47.1286 48.3361 47.2293 48.3779C47.3299 48.4197 47.4381 48.4403 47.5471 48.4384C47.71 48.439 47.8694 48.3909 48.0049 48.3004C48.1404 48.2099 48.2458 48.081 48.3076 47.9303C48.3695 47.7795 48.385 47.6138 48.3521 47.4542C48.3192 47.2946 48.2395 47.1484 48.1231 47.0344Z" fill="url(#paint1_linear_3864_639)"/>
<path d="M50.5528 44.604C49.8239 43.8742 48.9583 43.2952 48.0054 42.9001C47.0526 42.5051 46.0312 42.3018 44.9998 42.3018C43.9683 42.3018 42.9469 42.5051 41.9941 42.9001C41.0413 43.2952 40.1757 43.8742 39.4468 44.604C39.3573 44.6771 39.2842 44.768 39.232 44.871C39.1798 44.974 39.1497 45.0868 39.1437 45.2021C39.1377 45.3174 39.1558 45.4327 39.197 45.5406C39.2382 45.6485 39.3015 45.7465 39.3828 45.8285C39.4642 45.9105 39.5617 45.9745 39.6693 46.0165C39.7769 46.0585 39.892 46.0776 40.0074 46.0725C40.1227 46.0673 40.2357 46.0381 40.3391 45.9867C40.4425 45.9353 40.534 45.8629 40.6078 45.774C41.1837 45.1974 41.8676 44.7399 42.6205 44.4278C43.3733 44.1157 44.1803 43.955 44.9953 43.955C45.8102 43.955 46.6172 44.1157 47.3701 44.4278C48.1229 44.7399 48.8069 45.1974 49.3828 45.774C49.5419 45.9232 49.7498 46.0096 49.9678 46.017C50.1314 46.0168 50.2913 45.9682 50.4273 45.8772C50.5633 45.7862 50.6692 45.6569 50.7318 45.5057C50.7944 45.3546 50.8108 45.1882 50.7789 45.0277C50.7471 44.8673 50.6684 44.7198 50.5528 44.604Z" fill="url(#paint2_linear_3864_639)"/>
<path d="M45 73.3504C43.9886 73.3572 43.0076 73.0045 42.2322 72.3551C41.4568 71.7057 40.9373 70.8019 40.7664 69.805C40.5956 68.8081 40.7845 67.783 41.2995 66.9124C41.8145 66.0419 42.622 65.3827 43.578 65.0524L44.154 64.8454V54.4054H36.792L24.516 66.6904L24.777 67.2394C25.0473 67.8011 25.1887 68.416 25.191 69.0394C25.1981 69.8868 24.9532 70.7172 24.4874 71.4251C24.0217 72.133 23.356 72.6866 22.575 73.0154C21.7939 73.3442 20.9328 73.4335 20.1009 73.2719C19.269 73.1103 18.504 72.7051 17.9028 72.1078C17.3017 71.5105 16.8917 70.748 16.7248 69.9172C16.5579 69.0864 16.6418 68.2247 16.9656 67.4416C17.2895 66.6585 17.8388 65.9893 18.5438 65.519C19.2487 65.0488 20.0775 64.7986 20.925 64.8004C21.5483 64.8026 22.1633 64.9441 22.725 65.2144L23.274 65.4754L34.452 54.3514L33.399 53.8114C32.5121 53.3582 31.7678 52.6687 31.2485 51.8189C30.7291 50.9691 30.4548 49.9923 30.456 48.9964C30.4551 48.3213 30.5834 47.6523 30.834 47.0254L31.293 45.8464H25.2L24.993 46.4224C24.6574 47.3737 23.9963 48.1757 23.1265 48.6866C22.2567 49.1974 21.2343 49.3843 20.2401 49.2141C19.2458 49.0439 18.3437 48.5276 17.6934 47.7565C17.0431 46.9853 16.6864 46.0091 16.6864 45.0004C16.6864 43.9917 17.0431 43.0154 17.6934 42.2443C18.3437 41.4732 19.2458 40.9569 20.2401 40.7867C21.2343 40.6165 22.2567 40.8033 23.1265 41.3142C23.9963 41.8251 24.6574 42.6271 24.993 43.5784L25.2 44.1544H33.471L33.678 44.0734L33.957 43.9564L34.542 43.7224V43.1014C34.542 42.9754 34.542 42.8494 34.542 42.7144C34.5151 41.1163 35.0289 39.5559 36 38.2864L36.486 37.6834L30.447 31.6444L29.898 31.9054C29.1024 32.29 28.2067 32.4169 27.3356 32.2685C26.4644 32.1201 25.6613 31.7037 25.038 31.0774C24.6409 30.6811 24.3259 30.2105 24.111 29.6924C23.8961 29.1742 23.7855 28.6188 23.7855 28.0579C23.7855 27.497 23.8961 26.9415 24.111 26.4234C24.3259 25.9053 24.6409 25.4346 25.038 25.0384C25.4342 24.6414 25.9049 24.3264 26.423 24.1115C26.9411 23.8965 27.4965 23.7859 28.0575 23.7859C28.6184 23.7859 29.1738 23.8965 29.6919 24.1115C30.2101 24.3264 30.6807 24.6414 31.077 25.0384C31.7013 25.6628 32.117 26.4653 32.2669 27.3355C32.4168 28.2058 32.2935 29.1011 31.914 29.8984L31.644 30.4474L37.8 36.6304L38.358 36.3514C39.3481 35.8501 40.4431 35.5909 41.553 35.5954C42.0648 35.5945 42.5751 35.6518 43.074 35.7664L44.127 36.0004V25.2004L43.551 24.9934C42.5997 24.6578 41.7977 23.9967 41.2868 23.1269C40.7759 22.2572 40.5891 21.2347 40.7593 20.2405C40.9295 19.2462 41.4458 18.3442 42.2169 17.6938C42.988 17.0435 43.9642 16.6868 44.973 16.6868C45.9817 16.6868 46.9579 17.0435 47.729 17.6938C48.5001 18.3442 49.0165 19.2462 49.1867 20.2405C49.3569 21.2347 49.17 22.2572 48.6591 23.1269C48.1482 23.9967 47.3463 24.6578 46.395 24.9934L45.819 25.2004V37.0174L46.134 37.2784C46.3778 37.4866 46.6092 37.709 46.827 37.9444L47.214 38.3674L47.754 38.1784C48.3325 37.976 48.941 37.8725 49.554 37.8724C49.8251 37.8755 50.0957 37.8965 50.364 37.9354L50.787 37.9984L65.484 23.3104L65.223 22.7614C64.9526 22.1997 64.8112 21.5847 64.809 20.9614C64.8018 20.114 65.0467 19.2836 65.5125 18.5757C65.9783 17.8677 66.644 17.3142 67.425 16.9854C68.206 16.6565 69.0671 16.5672 69.899 16.7288C70.7309 16.8904 71.496 17.2956 72.0971 17.8929C72.6982 18.4902 73.1082 19.2527 73.2751 20.0836C73.442 20.9144 73.3582 21.7761 73.0343 22.5592C72.7104 23.3423 72.1611 24.0115 71.4562 24.4817C70.7512 24.952 69.9224 25.2021 69.075 25.2004C68.4516 25.1982 67.8366 25.0567 67.275 24.7864L66.726 24.5254L52.533 38.7004L53.199 39.3034L53.388 39.4834C54.3341 40.4294 54.8954 41.6931 54.963 43.0294V43.6414L55.557 43.8124C55.8283 43.8869 56.0931 43.9832 56.349 44.1004L56.484 44.1634H64.809L65.016 43.5874C65.3515 42.6361 66.0126 41.8341 66.8824 41.3232C67.7522 40.8123 68.7746 40.6255 69.7689 40.7957C70.7631 40.9659 71.6652 41.4822 72.3155 42.2533C72.9658 43.0244 73.3225 44.0007 73.3225 45.0094C73.3225 46.0181 72.9658 46.9943 72.3155 47.7655C71.6652 48.5366 70.7631 49.0529 69.7689 49.2231C68.7746 49.3933 67.7522 49.2064 66.8824 48.6955C66.0126 48.1847 65.3515 47.3827 65.016 46.4314L64.809 45.8554H58.707L59.175 47.0344C59.6656 48.2831 59.6738 49.6698 59.198 50.9243C58.7222 52.1788 57.7964 53.2112 56.601 53.8204L55.548 54.3604L59.553 58.3654L60.102 58.1044C61.01 57.6699 62.0424 57.5706 63.0166 57.8238C63.9908 58.0771 64.844 58.6667 65.4255 59.4884C66.0069 60.3101 66.2791 61.3109 66.1938 62.3138C66.1086 63.3168 65.6715 64.2573 64.9597 64.9691C64.2479 65.6809 63.3074 66.118 62.3044 66.2033C61.3015 66.2885 60.3006 66.0163 59.479 65.4349C58.6573 64.8535 58.0677 64.0002 57.8144 63.026C57.5612 62.0518 57.6605 61.0194 58.095 60.1114L58.356 59.5624L53.208 54.4144H45.846V64.8544L46.422 65.0614C47.3714 65.3963 48.1718 66.0563 48.6816 66.9246C49.1913 67.7928 49.3775 68.8134 49.2073 69.8057C49.0371 70.798 48.5213 71.6981 47.7514 72.3469C46.9814 72.9956 46.0068 73.351 45 73.3504ZM45 66.5014C44.4909 66.5014 43.9932 66.6523 43.5699 66.9352C43.1466 67.218 42.8167 67.62 42.6219 68.0904C42.4271 68.5607 42.3761 69.0782 42.4754 69.5775C42.5747 70.0769 42.8199 70.5355 43.1799 70.8955C43.5399 71.2555 43.9985 71.5006 44.4978 71.5999C44.9971 71.6992 45.5147 71.6483 45.985 71.4534C46.4553 71.2586 46.8573 70.9287 47.1402 70.5054C47.423 70.0821 47.574 69.5845 47.574 69.0754C47.5716 68.3934 47.2996 67.7401 46.8174 67.2579C46.3352 66.7757 45.6819 66.5038 45 66.5014ZM20.925 66.5014C20.4159 66.5014 19.9182 66.6523 19.4949 66.9352C19.0716 67.218 18.7417 67.62 18.5469 68.0904C18.3521 68.5607 18.3011 69.0782 18.4004 69.5775C18.4997 70.0769 18.7449 70.5355 19.1049 70.8955C19.4649 71.2555 19.9235 71.5006 20.4228 71.5999C20.9221 71.6992 21.4397 71.6483 21.91 71.4534C22.3803 71.2586 22.7823 70.9287 23.0652 70.5054C23.348 70.0821 23.499 69.5845 23.499 69.0754C23.4966 68.3934 23.2246 67.7401 22.7424 67.2579C22.2602 66.7757 21.6069 66.5038 20.925 66.5014ZM61.947 59.4004C61.5226 59.3967 61.104 59.4981 60.7283 59.6953C60.3526 59.8926 60.0314 60.1797 59.7935 60.5311C59.5556 60.8825 59.4082 61.2872 59.3646 61.7093C59.3209 62.1314 59.3822 62.5578 59.5431 62.9504C59.7041 63.3431 59.9596 63.6898 60.2869 63.9599C60.6143 64.2299 61.0033 64.4148 61.4194 64.4982C61.8355 64.5815 62.2657 64.5607 62.6718 64.4375C63.0779 64.3144 63.4472 64.0928 63.747 63.7924C64.2133 63.3092 64.4739 62.6639 64.4739 61.9924C64.4739 61.3209 64.2133 60.6756 63.747 60.1924C63.5141 59.9481 63.2351 59.7523 62.9262 59.6163C62.6172 59.4804 62.2844 59.407 61.947 59.4004ZM41.58 37.2874C40.1478 37.2874 38.7743 37.8563 37.7616 38.869C36.7489 39.8817 36.18 41.2552 36.18 42.6874C36.1824 43.1924 36.2521 43.6948 36.387 44.1814C36.4201 44.3043 36.4268 44.4328 36.4067 44.5584C36.3865 44.6841 36.3399 44.8041 36.27 44.9104C36.1973 45.0145 36.1021 45.1009 35.9915 45.1632C35.8809 45.2256 35.7577 45.2622 35.631 45.2704C34.6877 45.361 33.8146 45.8084 33.1902 46.5213C32.5658 47.2342 32.2373 48.1586 32.2717 49.1056C32.3062 50.0526 32.7011 50.9507 33.3757 51.6163C34.0503 52.2818 34.9536 52.6646 35.901 52.6864H54.126C55.1118 52.6864 56.0572 52.2948 56.7543 51.5977C57.4514 50.9006 57.843 49.9552 57.843 48.9694C57.843 47.9836 57.4514 47.0381 56.7543 46.3411C56.0572 45.644 55.1118 45.2524 54.126 45.2524H54C53.8693 45.2513 53.7404 45.2217 53.6223 45.1658C53.5041 45.1098 53.3996 45.0288 53.316 44.9284C53.2336 44.8263 53.1761 44.7066 53.148 44.5785C53.1199 44.4504 53.1219 44.3175 53.154 44.1904C53.348 43.4572 53.3125 42.6821 53.0522 41.9696C52.792 41.2572 52.3196 40.6417 51.6986 40.2062C51.0777 39.7706 50.3381 39.536 49.5797 39.5339C48.8212 39.5318 48.0803 39.7623 47.457 40.1944C47.3173 40.2929 47.1509 40.3463 46.98 40.3474H46.8C46.6849 40.3199 46.5764 40.2699 46.4806 40.2004C46.3849 40.1309 46.3038 40.0433 46.242 39.9424C45.7636 39.132 45.0818 38.4607 44.264 37.995C43.4463 37.5293 42.521 37.2853 41.58 37.2874ZM69.075 42.4264C68.5659 42.4264 68.0682 42.5773 67.6449 42.8602C67.2216 43.143 66.8917 43.545 66.6969 44.0154C66.5021 44.4857 66.4511 45.0032 66.5504 45.5025C66.6497 46.0019 66.8949 46.4605 67.2549 46.8205C67.6149 47.1805 68.0735 47.4256 68.5728 47.5249C69.0721 47.6242 69.5897 47.5733 70.06 47.3784C70.5303 47.1836 70.9323 46.8537 71.2152 46.4304C71.498 46.0071 71.649 45.5095 71.649 45.0004C71.6466 44.3184 71.3746 43.6651 70.8924 43.1829C70.4102 42.7007 69.7569 42.4288 69.075 42.4264ZM20.925 42.4264C20.4159 42.4264 19.9182 42.5773 19.4949 42.8602C19.0716 43.143 18.7417 43.545 18.5469 44.0154C18.3521 44.4857 18.3011 45.0032 18.4004 45.5025C18.4997 46.0019 18.7449 46.4605 19.1049 46.8205C19.4649 47.1805 19.9235 47.4256 20.4228 47.5249C20.9221 47.6242 21.4397 47.5733 21.91 47.3784C22.3803 47.1836 22.7823 46.8537 23.0652 46.4304C23.348 46.0071 23.499 45.5095 23.499 45.0004C23.499 44.3177 23.2278 43.663 22.7451 43.1803C22.2623 42.6976 21.6076 42.4264 20.925 42.4264ZM28.053 25.4794C27.371 25.4818 26.7177 25.7537 26.2355 26.2359C25.7533 26.7181 25.4813 27.3714 25.479 28.0534C25.4794 28.3885 25.5465 28.7203 25.6763 29.0293C25.8061 29.3383 25.996 29.6184 26.235 29.8534C26.7119 30.3328 27.3588 30.6045 28.035 30.6094C28.5419 30.605 29.0363 30.4511 29.4561 30.1668C29.8759 29.8826 30.2024 29.4807 30.3946 29.0116C30.5869 28.5425 30.6363 28.0271 30.5368 27.53C30.4372 27.0329 30.1931 26.5763 29.835 26.2174C29.3607 25.7473 28.7207 25.4823 28.053 25.4794ZM69.075 18.3514C68.5659 18.3514 68.0682 18.5023 67.6449 18.7852C67.2216 19.068 66.8917 19.47 66.6969 19.9404C66.5021 20.4107 66.4511 20.9282 66.5504 21.4275C66.6497 21.9269 66.8949 22.3855 67.2549 22.7455C67.6149 23.1055 68.0735 23.3506 68.5728 23.4499C69.0721 23.5492 69.5897 23.4983 70.06 23.3035C70.5303 23.1086 70.9323 22.7787 71.2152 22.3554C71.498 21.9321 71.649 21.4345 71.649 20.9254C71.6466 20.2434 71.3746 19.5901 70.8924 19.1079C70.4102 18.6257 69.7569 18.3538 69.075 18.3514ZM45 18.3514C44.4909 18.3514 43.9932 18.5023 43.5699 18.7852C43.1466 19.068 42.8167 19.47 42.6219 19.9404C42.4271 20.4107 42.3761 20.9282 42.4754 21.4275C42.5747 21.9269 42.8199 22.3855 43.1799 22.7455C43.5399 23.1055 43.9985 23.3506 44.4978 23.4499C44.9971 23.5492 45.5147 23.4983 45.985 23.3035C46.4553 23.1086 46.8573 22.7787 47.1402 22.3554C47.423 21.9321 47.574 21.4345 47.574 20.9254C47.574 20.2427 47.3028 19.588 46.8201 19.1053C46.3373 18.6226 45.6826 18.3514 45 18.3514Z" fill="url(#paint3_linear_3864_639)"/>
</g>
<defs>
<linearGradient id="paint0_linear_3864_639" x1="44.9983" y1="49.2332" x2="45.2935" y2="51.0436" gradientUnits="userSpaceOnUse">
<stop stop-color="#00A5E3"/>
<stop offset="0.5" stop-color="#373188"/>
<stop offset="1" stop-color="#FD0026"/>
</linearGradient>
<linearGradient id="paint1_linear_3864_639" x1="44.9639" y1="46.0026" x2="45.112" y2="48.2385" gradientUnits="userSpaceOnUse">
<stop stop-color="#00A5E3"/>
<stop offset="0.5" stop-color="#373188"/>
<stop offset="1" stop-color="#FD0026"/>
</linearGradient>
<linearGradient id="paint2_linear_3864_639" x1="44.9601" y1="42.664" x2="45.1216" y2="45.7217" gradientUnits="userSpaceOnUse">
<stop stop-color="#00A5E3"/>
<stop offset="0.5" stop-color="#373188"/>
<stop offset="1" stop-color="#FD0026"/>
</linearGradient>
<linearGradient id="paint3_linear_3864_639" x1="44.9583" y1="22.0964" x2="52.2797" y2="67" gradientUnits="userSpaceOnUse">
<stop stop-color="#00A5E3"/>
<stop offset="0.5" stop-color="#373188"/>
<stop offset="1" stop-color="#FD0026"/>
</linearGradient>
<clipPath id="clip0_3864_639">
<rect width="90" height="90" fill="white"/>
</clipPath>
</defs>
</svg>
