<svg width="80" height="80" viewBox="0 0 80 80" fill="none" xmlns="http://www.w3.org/2000/svg">
<path d="M34.0005 52C43.9416 52 52.0005 43.9411 52.0005 34C52.0005 24.0589 43.9416 16 34.0005 16C24.0594 16 16.0005 24.0589 16.0005 34C16.0005 43.9411 24.0594 52 34.0005 52Z" fill="url(#paint0_linear_3867_2065)"/>
<path d="M33.6044 15.0039C38.618 15.004 43.2768 16.9371 46.7997 20.46C50.3217 23.982 52.2557 28.6924 52.2557 33.6553C52.2557 38.1199 50.6688 42.3857 47.7909 45.7598L47.2518 46.3916L49.8046 48.9443L50.413 48.5605C51.2631 48.0237 52.2935 47.7119 53.3124 47.7119C54.7831 47.712 56.168 48.2882 57.2518 49.3721L63.3944 55.5146C65.5796 57.6554 65.5803 61.2253 63.3036 63.3682L63.286 63.3838L63.2704 63.4004C62.2519 64.4632 60.8264 65.0477 59.3446 65.0479C57.8739 65.0479 56.4881 64.4706 55.4042 63.3867L49.2684 57.251C47.385 55.3674 47.1181 52.5019 48.4589 50.3564L48.8388 49.749L46.2919 47.2031L45.66 47.7354C42.1847 50.6646 37.9155 52.1535 33.6454 52.2031H33.4579C28.7392 52.1535 24.0279 50.3669 20.4081 46.7471C17.9851 44.324 16.3524 41.3594 15.5565 38.1963C15.5494 38.1587 15.5423 38.1265 15.536 38.1035C15.53 38.0815 15.5232 38.06 15.5175 38.042L15.4989 37.9658C14.0105 31.8627 15.6478 25.1688 20.4081 20.4082C23.9267 16.8896 28.5845 15.0039 33.6044 15.0039ZM53.3124 48.876C52.1221 48.876 51.0648 49.3453 50.2313 50.1787C48.528 51.8821 48.5282 54.6881 50.2313 56.3916L56.368 62.5283C57.1725 63.3843 58.2908 63.8311 59.4481 63.8311C60.6383 63.8311 61.6948 63.3615 62.5282 62.5283C64.2381 60.8184 64.2219 58.073 62.5409 56.3271L62.5341 56.3213L56.3925 50.1787C55.5881 49.3228 54.4697 48.876 53.3124 48.876ZM28.2684 38.2393L27.9725 38.5078V50.0811L28.6132 50.2734C29.7128 50.6033 30.8633 50.8224 32.0106 50.9316L32.996 51.0254V33.9697L28.2684 38.2393ZM34.2118 32.8398V51.0254L35.1971 50.9316C36.3445 50.8224 37.495 50.6033 38.5946 50.2734L39.2362 50.0811V28.3018L34.2118 32.8398ZM21.7323 46.3818L22.0321 46.6504C23.0825 47.5902 24.2344 48.3566 25.4247 49.0059L26.7557 49.7314V38.6045L21.7323 35.6064V46.3818ZM40.452 49.6201L41.7548 48.9688C42.9838 48.3542 44.1415 47.5248 45.1766 46.5986L45.4764 46.3301V31.793L40.452 28.1465V49.6201ZM46.6923 31.7637V45.5508L48.3573 42.8662C50.0513 40.134 51.0399 36.9548 51.0399 33.6035C51.0399 32.4526 50.9305 31.3533 50.7108 30.2549L50.4227 28.8145L46.6923 31.7637ZM16.785 38.2275L16.9911 38.8701C17.4264 40.2305 18.0299 41.6066 18.8622 42.8828L20.5165 45.4189V35.7041L16.785 38.2275ZM33.6044 16.168C28.9469 16.168 24.5571 17.9779 21.2675 21.2676C17.3727 25.1626 15.727 30.4314 16.33 35.5293L16.5038 36.999L20.7499 34.1191C20.7706 34.1113 20.7968 34.1027 20.8251 34.0898C20.8527 34.0773 20.8866 34.058 20.9257 34.0352H21.0243L21.1288 33.9834H21.328L21.412 34.0254L27.2675 37.4688L39.3163 26.6514H39.4374L39.6317 26.4551C39.6601 26.4382 39.6938 26.4179 39.7294 26.3916H40.0341C40.0413 26.3961 40.0488 26.3993 40.0555 26.4033L40.2509 26.5996H40.3641L46.0585 30.7305L46.5946 30.3027L49.9735 27.5996L49.7294 26.9814C48.9016 24.8845 47.5824 22.9097 45.9403 21.2676C42.6507 17.978 38.2618 16.168 33.6044 16.168ZM20.5595 34.0879H20.5526L20.5634 34.0869L20.5595 34.0879ZM20.6141 34.085C20.6029 34.0858 20.592 34.0866 20.5819 34.0869C20.5781 34.087 20.5739 34.0868 20.5702 34.0869C20.5891 34.0866 20.607 34.0842 20.6239 34.083C20.6205 34.0833 20.6174 34.0847 20.6141 34.085Z" fill="#08526D"/>
<defs>
<linearGradient id="paint0_linear_3867_2065" x1="34.0411" y1="50.5162" x2="34.0411" y2="31.628" gradientUnits="userSpaceOnUse">
<stop stop-color="#ADE3F6"/>
<stop offset="0.01" stop-color="#ADE3F6" stop-opacity="0.98"/>
<stop offset="0.635" stop-color="#ADE3F6" stop-opacity="0.28"/>
<stop offset="0.9925" stop-color="#ADE3F6" stop-opacity="0"/>
</linearGradient>
</defs>
</svg>
