<svg width="80" height="80" viewBox="0 0 80 80" fill="none" xmlns="http://www.w3.org/2000/svg">
<path d="M40 27.0195C40.1231 27.0195 40.2448 27.0508 40.3526 27.1104C40.46 27.1699 40.5509 27.2554 40.6163 27.3594L43.6669 32.212C43.8094 32.4387 44.0369 32.5988 44.2985 32.6564L50.086 33.9307C50.2104 33.9582 50.3249 34.0195 50.419 34.1055C50.513 34.1915 50.5835 34.3004 50.6221 34.4219C50.6606 34.5432 50.6668 34.6725 50.6397 34.7969C50.6127 34.9205 50.5535 35.0349 50.4688 35.1289L46.6041 39.3608C46.4146 39.5683 46.3212 39.846 46.3467 40.1258L46.8575 45.7344V45.7363C46.8689 45.8596 46.8482 45.9836 46.7979 46.0967C46.7474 46.21 46.668 46.3088 46.5684 46.3828C46.469 46.4566 46.3524 46.5038 46.2295 46.5195C46.1065 46.5352 45.9812 46.5193 45.8662 46.4727L40.3379 44.2305C40.1224 44.1434 39.8815 44.1432 39.6658 44.2299L34.1329 46.4551L33.9952 46.4961C33.9493 46.5051 33.9025 46.5083 33.8555 46.5088C33.7566 46.5078 33.6589 46.4883 33.5684 46.4482C33.4761 46.4074 33.3932 46.347 33.3252 46.2725C33.2574 46.198 33.2051 46.1101 33.1729 46.0146C33.1408 45.9191 33.1287 45.8172 33.1377 45.7168L33.6582 40.083C33.6813 39.8304 33.5969 39.5798 33.4259 39.3926L29.5313 35.1289C29.4467 35.035 29.3883 34.9204 29.3614 34.7969C29.3343 34.6724 29.3404 34.5433 29.3789 34.4219C29.4175 34.3005 29.4871 34.1914 29.5811 34.1055C29.6749 34.0197 29.7894 33.9595 29.9134 33.9318C29.9137 33.9317 29.9138 33.9314 29.9136 33.9312C29.9134 33.9309 29.9135 33.9306 29.9138 33.9305L35.7068 32.6565C35.9687 32.5989 36.1965 32.4384 36.3391 32.2113L39.3838 27.3584C39.4493 27.2545 39.541 27.1698 39.6485 27.1104C39.7562 27.0508 39.877 27.0196 40 27.0195ZM37.1973 33.5947L37.1934 33.6006C37.1427 33.6818 37.0757 33.752 36.9971 33.8066C36.9185 33.8613 36.8292 33.8997 36.7354 33.9189L36.7256 33.9209L33.2084 34.6847C32.4557 34.8482 32.1626 35.7655 32.6812 36.3351L35.0547 38.9424C35.1212 39.0175 35.1723 39.105 35.2041 39.2002C35.2361 39.2957 35.2483 39.3967 35.2403 39.4971L34.9176 43.0255C34.8492 43.7726 35.5972 44.326 36.2917 44.0423L39.7777 42.6179C39.7788 42.6174 39.7798 42.6169 39.7808 42.6162C39.7818 42.6156 39.7828 42.615 39.7839 42.6146C39.9527 42.5452 40.1429 42.5454 40.3116 42.6152L40.3155 42.6172L43.8027 44.0421C44.4972 44.3259 45.2453 43.7722 45.1767 43.025L44.8536 39.502C44.8448 39.4 44.8572 39.2972 44.8897 39.2002C44.9141 39.1273 44.9501 39.0589 44.9952 38.9971L45.043 38.9375L47.452 36.371C47.983 35.8052 47.6954 34.8766 46.9376 34.7099L43.3496 33.9209C43.3412 33.9196 43.3329 33.9176 43.3247 33.9151L43.2012 33.876C43.1574 33.8572 43.1155 33.834 43.0762 33.8066C42.9976 33.752 42.9307 33.6818 42.8799 33.6006L42.876 33.5947L40.8805 30.4519C40.4877 29.8332 39.5848 29.8333 39.192 30.452L37.1973 33.5947Z" fill="#08526D"/>
<path d="M62.5664 18.8936L62.8154 18.9062C63.0635 18.9311 63.3071 18.9917 63.5381 19.0879C63.846 19.2161 64.126 19.4043 64.3613 19.6406C64.5965 19.8769 64.7824 20.1575 64.9092 20.4658C65.036 20.7743 65.1006 21.105 65.0996 21.4385V52.083C65.0861 52.2636 65.0068 52.433 64.875 52.5576C64.7399 52.6853 64.5609 52.7568 64.375 52.7568C64.1892 52.7568 64.0101 52.6853 63.875 52.5576C63.743 52.4328 63.6637 52.263 63.6504 52.082V21.4404C63.6503 21.1895 63.5629 20.9473 63.4053 20.7549L63.333 20.6758L63.2539 20.6035C63.0615 20.4459 62.8193 20.3585 62.5684 20.3584H17.4317C17.1807 20.3585 16.9385 20.4458 16.7461 20.6035L16.667 20.6758C16.4642 20.8786 16.3497 21.1536 16.3496 21.4404V52.1338L16.3506 52.1465C16.3586 52.428 16.4758 52.6953 16.6777 52.8916C16.8796 53.0877 17.1502 53.1962 17.4317 53.1963L44.5391 53.1973L44.5645 53.1963C44.6633 53.1907 44.7625 53.2053 44.8555 53.2393C44.9484 53.2732 45.0336 53.3256 45.1055 53.3936C45.1774 53.4616 45.2343 53.5439 45.2734 53.6348C45.3126 53.7257 45.333 53.8238 45.333 53.9229C45.333 54.0218 45.3126 54.1201 45.2734 54.2109C45.2343 54.3016 45.1772 54.3833 45.1055 54.4512C45.0335 54.5192 44.9485 54.5725 44.8555 54.6064C44.7625 54.6404 44.6633 54.655 44.5645 54.6494L44.5391 54.6475H17.4317C17.0986 54.6474 16.7685 54.5818 16.4609 54.4541C16.1534 54.3264 15.8738 54.1392 15.6387 53.9033C15.4035 53.6674 15.2176 53.3871 15.0908 53.0791C14.964 52.771 14.8994 52.4406 14.9004 52.1074V21.4268C14.9014 20.7552 15.1687 20.1116 15.6436 19.6367C16.0592 19.2211 16.6038 18.9645 17.1836 18.9062L17.4336 18.8936H62.5664Z" fill="#08526D"/>
<path d="M21.0405 24.8125H24.5854C24.6267 24.8166 24.6649 24.8305 24.6968 24.8535L24.728 24.8809C24.7682 24.9235 24.7905 24.9797 24.7905 25.0371C24.7905 25.0803 24.7777 25.1226 24.7544 25.1592L24.728 25.1934C24.6914 25.2321 24.6412 25.2562 24.5854 25.2617H21.2681V28.6055C21.2624 28.6616 21.238 28.7118 21.1997 28.748C21.157 28.7883 21.1009 28.8105 21.0435 28.8105C20.9861 28.8105 20.9299 28.7883 20.8872 28.748C20.8489 28.7118 20.8245 28.6616 20.8188 28.6055V25.0342C20.8189 24.974 20.8426 24.9176 20.8833 24.877C20.924 24.8363 20.9803 24.8126 21.0405 24.8125Z" fill="#08526D" stroke="#08526D"/>
<path d="M58.959 24.7861C58.9889 24.7861 59.0178 24.792 59.0439 24.8027C59.0577 24.8084 59.0709 24.8152 59.083 24.8232L59.1162 24.8506C59.1272 24.8616 59.1364 24.8736 59.1445 24.8857L59.165 24.9229C59.1757 24.9486 59.1816 24.9775 59.1816 25.0078V28.6484L59.1777 28.6924C59.1749 28.7067 59.1704 28.7204 59.165 28.7334C59.1598 28.746 59.1527 28.7584 59.1445 28.7705L59.1162 28.8057C59.0962 28.8256 59.0716 28.8421 59.0439 28.8535C59.0178 28.8643 58.9889 28.8701 58.959 28.8701C58.9271 28.8701 58.8972 28.8644 58.8711 28.8535C58.8434 28.8419 58.818 28.8241 58.7969 28.8027C58.7758 28.7813 58.7592 28.7559 58.748 28.7285C58.7424 28.7144 58.7381 28.6994 58.7354 28.6846L58.7314 28.6396V25.2354H55.415C55.3583 25.2299 55.3077 25.2053 55.2715 25.167C55.2325 25.1256 55.21 25.0699 55.21 25.0107C55.21 24.9516 55.2325 24.8959 55.2715 24.8545C55.3077 24.8162 55.3583 24.7916 55.415 24.7861H58.959Z" fill="#08526D" stroke="#08526D"/>
<path d="M21.0425 44.6709C21.1025 44.6713 21.1595 44.6952 21.2017 44.7373C21.244 44.7796 21.2681 44.8376 21.2681 44.8984V48.2842H24.6099C24.6659 48.2893 24.7171 48.3141 24.7544 48.3535C24.7946 48.3962 24.8169 48.4524 24.8169 48.5098L24.813 48.5518C24.8049 48.5933 24.7848 48.6327 24.7544 48.665C24.7171 48.7045 24.6664 48.7288 24.6118 48.7344H21.0454C20.9853 48.7342 20.9277 48.7103 20.8853 48.668C20.8432 48.6258 20.8188 48.5677 20.8188 48.5068V44.8984L20.8237 44.8535C20.8325 44.8098 20.8537 44.769 20.8853 44.7373C20.927 44.6956 20.9834 44.6718 21.0425 44.6709Z" fill="#08526D" stroke="#08526D"/>
<path d="M54.5 45.5C56.7091 45.5 58.5 47.2909 58.5 49.5C58.5 51.7091 56.7091 53.5 54.5 53.5C52.2909 53.5 50.5 51.7091 50.5 49.5C50.5 47.2909 52.2909 45.5 54.5 45.5Z" fill="url(#paint0_linear_3867_4631)" stroke="#08526D"/>
<path d="M56.519 53.876L55.4565 54.0713C54.907 54.1722 54.343 54.1722 53.7935 54.0713L52.731 53.876L52.1401 53.7676V60.0049L52.9233 59.4678L54.3315 58.502L54.5034 58.3848C54.5389 58.3623 54.5806 58.3497 54.6245 58.3496C54.6558 58.3496 54.686 58.3566 54.7134 58.3682L54.7642 58.3965L54.9185 58.502L56.3267 59.4678L57.1089 60.0049V53.7676L56.519 53.876ZM54.6274 45.1201C53.4896 45.1202 52.3979 45.5726 51.5933 46.377C50.7885 47.1818 50.3364 48.2742 50.3364 49.4121C50.3365 50.2605 50.5888 51.0894 51.0601 51.7949C51.5314 52.5004 52.2009 53.0511 52.9849 53.376C53.7689 53.7007 54.632 53.7856 55.4644 53.6201C56.2964 53.4546 57.0614 53.0465 57.6616 52.4463C58.2619 51.846 58.6699 51.0811 58.8354 50.249C59.0009 49.4171 58.9171 48.5539 58.5923 47.7695C58.2675 46.9855 57.7175 46.3151 57.0122 45.8438C56.3068 45.3724 55.4764 45.1202 54.6274 45.1201ZM51.6909 53.1719L51.5435 53.0254L51.2778 52.7617H51.2788C50.6146 52.1 50.1612 51.2555 49.9771 50.3359C49.7932 49.4167 49.8864 48.4631 50.2446 47.5967C50.6032 46.7299 51.2118 45.9885 51.9917 45.4678C52.674 45.0123 53.462 44.743 54.2769 44.6836L54.6274 44.6709C55.565 44.6707 56.482 44.9488 57.2612 45.4697C58.0403 45.9908 58.6474 46.7322 59.0054 47.5986C59.3632 48.4649 59.456 49.418 59.272 50.3369C59.0877 51.2561 58.6352 52.1002 57.9712 52.7617L57.7065 53.0254L57.5591 53.1719V60.3828C57.5592 60.4219 57.5492 60.4623 57.5278 60.498C57.5071 60.5327 57.4773 60.5611 57.4419 60.5801C57.4053 60.5997 57.3648 60.6084 57.3257 60.6064C57.2866 60.6045 57.2477 60.5913 57.2134 60.5684L57.186 60.5508L57.1831 60.5488L54.9058 59.0322L54.6294 58.8477L54.3521 59.0312L52.0435 60.5635L52.0356 60.5684C52.0024 60.5904 51.964 60.6044 51.9243 60.6064C51.9046 60.6074 51.8844 60.605 51.8647 60.6006L51.8081 60.5801C51.7726 60.561 51.7428 60.5324 51.7222 60.498C51.7021 60.4643 51.6908 60.4242 51.6909 60.3828V53.1719Z" fill="#08526D" stroke="#08526D"/>
<defs>
<linearGradient id="paint0_linear_3867_4631" x1="54.5102" y1="53.629" x2="54.5" y2="46.9286" gradientUnits="userSpaceOnUse">
<stop stop-color="#ADE3F6"/>
<stop offset="0.01" stop-color="#ADE3F6" stop-opacity="0.98"/>
<stop offset="0.635" stop-color="#ADE3F6" stop-opacity="0.28"/>
<stop offset="0.9925" stop-color="#ADE3F6" stop-opacity="0"/>
</linearGradient>
</defs>
</svg>
