<svg width="90" height="90" viewBox="0 0 90 90" fill="none" xmlns="http://www.w3.org/2000/svg">
<g clip-path="url(#clip0_3864_1599)">
<path d="M70.2 61.6053C70.0928 61.5502 69.9757 61.5173 69.8555 61.5083C69.7353 61.4994 69.6146 61.5147 69.5004 61.5533C69.3862 61.5919 69.281 61.6531 69.1909 61.7331C69.1009 61.8132 69.0278 61.9105 68.976 62.0193C68.8688 62.2495 68.736 62.4669 68.58 62.6673C68.2774 63.0676 67.9128 63.417 67.5 63.7023C67.3779 63.7849 67.2779 63.8962 67.2088 64.0264C67.1398 64.1567 67.1038 64.3019 67.104 64.4493C67.104 64.688 67.1988 64.9169 67.3676 65.0857C67.5364 65.2545 67.7653 65.3493 68.004 65.3493C68.1861 65.3483 68.3641 65.2952 68.517 65.1963C69.0895 64.8005 69.5966 64.3177 70.02 63.7653C70.2407 63.4828 70.4365 63.1817 70.605 62.8653C70.6593 62.7573 70.6912 62.6395 70.6989 62.5189C70.7067 62.3983 70.69 62.2773 70.65 62.1633C70.6172 62.0444 70.5604 61.9336 70.483 61.8376C70.4056 61.7416 70.3092 61.6625 70.2 61.6053Z" fill="#005EB8"/>
<path d="M67.1492 48.3206C66.3842 47.1866 65.5472 46.0886 64.6742 45.0266C66.1253 43.2744 67.4287 41.405 68.5712 39.4376C71.7392 33.8936 72.2612 29.2046 70.0382 26.2346C67.3382 22.6346 61.2542 22.3736 53.8382 24.8486C51.6062 19.7006 48.5012 16.5596 45.0002 16.5596C41.4992 16.5596 38.3942 19.7096 36.1532 24.8666C28.4492 22.2836 22.5722 22.7606 19.9532 26.2346C16.9832 30.2306 18.9902 37.2056 25.3352 44.9996C19.2332 52.4696 16.9022 59.6786 19.9352 63.7826C21.4112 65.7536 24.0212 66.7976 27.4682 66.7976C30.424 66.7201 33.349 66.1764 36.1352 65.1866C38.3672 70.3166 41.4812 73.4576 44.9642 73.4576C48.4472 73.4576 51.5792 70.3076 53.8202 65.1506C56.2775 66.0029 58.8328 66.5412 61.4252 66.7526H61.5062C61.7449 66.7526 61.9738 66.6577 62.1426 66.489C62.3114 66.3202 62.4062 66.0913 62.4062 65.8526C62.4116 65.7324 62.393 65.6123 62.3512 65.4995C62.3095 65.3866 62.2455 65.2833 62.1632 65.1956C62.0806 65.1089 61.9815 65.0396 61.8718 64.9917C61.7621 64.9438 61.6439 64.9182 61.5242 64.9166C59.1255 64.7162 56.7613 64.2174 54.4862 63.4316C55.6928 60.007 56.505 56.4561 56.9072 52.8476C59.2345 50.8725 61.4153 48.7308 63.4322 46.4396C64.1882 47.3396 64.9172 48.3476 65.5922 49.3376C65.5939 49.3615 65.5939 49.3856 65.5922 49.4096C65.6632 49.5067 65.753 49.5886 65.8562 49.6504C65.9594 49.7123 66.074 49.7528 66.1932 49.7695C66.3123 49.7863 66.4336 49.779 66.5499 49.7481C66.6662 49.7172 66.7751 49.6633 66.8702 49.5896C66.9665 49.5193 67.048 49.4307 67.1098 49.3287C67.1716 49.2267 67.2125 49.1135 67.2302 48.9956C67.2925 48.7686 67.2634 48.5263 67.1492 48.3206ZM68.5802 27.3326C71.0462 30.6266 68.7782 36.9446 63.4502 43.5776C61.4397 41.2896 59.2714 39.1453 56.9612 37.1606C56.5583 33.558 55.746 30.0131 54.5402 26.5946C57.128 25.6629 59.8462 25.1436 62.5952 25.0556C65.3942 25.0556 67.5002 25.8476 68.5802 27.3326ZM53.1632 34.1096C51.1385 32.5988 49.0356 31.1959 46.8632 29.9066C48.7808 28.8939 50.755 27.9924 52.7762 27.2066C53.7452 29.8714 54.4564 32.623 54.9002 35.4236C54.2882 34.9736 53.7212 34.5326 53.1632 34.1096ZM43.1372 29.8886C40.965 31.1847 38.8621 32.5936 36.8372 34.1096C36.2612 34.5506 35.6942 35.0096 35.1452 35.4236C35.57 32.6204 36.257 29.8633 37.1972 27.1886C39.2321 27.9626 41.216 28.8644 43.1372 29.8886ZM32.7872 39.8426C32.6612 41.5166 32.5892 43.2356 32.5892 44.9996C32.5892 46.7636 32.6612 48.5006 32.7872 50.1746C31.0054 48.5488 29.3195 46.8209 27.7382 44.9996C29.3212 43.1855 31.007 41.4637 32.7872 39.8426ZM36.8462 55.8896C38.8696 57.4049 40.9726 58.8109 43.1462 60.1016C41.2243 61.118 39.2438 62.0195 37.2152 62.8016C36.2707 60.1343 35.5835 57.3827 35.1632 54.5846C35.7212 55.0256 36.2882 55.4666 36.8462 55.8896ZM52.0742 54.4226C49.815 56.1216 47.4524 57.6786 45.0002 59.0846C42.5526 57.6789 40.1932 56.125 37.9352 54.4316C36.9182 53.6666 35.8652 52.8206 34.7852 51.9206C34.5364 49.622 34.4133 47.3116 34.4162 44.9996C34.412 42.6903 34.5382 40.3826 34.7942 38.0876C35.8112 37.1876 36.8552 36.3866 37.9352 35.5766C40.1913 33.8831 42.5509 32.3321 45.0002 30.9326C47.445 32.33 49.7987 33.8811 52.0472 35.5766C53.0732 36.3326 54.1262 37.1786 55.1972 38.0696C55.4562 40.3705 55.5854 42.6841 55.5842 44.9996C55.5857 47.312 55.4565 49.6227 55.1972 51.9206C54.2012 52.7786 53.1602 53.6126 52.0742 54.4226ZM45.0002 28.7996C42.7124 27.5244 40.3364 26.4146 37.8902 25.4786C39.7892 21.0866 42.3002 18.3686 45.0092 18.3686C47.7182 18.3686 50.2292 21.0686 52.1282 25.4516C49.6747 26.3946 47.2925 27.5135 45.0002 28.7996ZM33.0572 37.1516C30.73 39.1269 28.5493 41.2685 26.5322 43.5596C21.0062 36.6926 19.0442 30.5276 21.4382 27.3596C23.4992 24.6056 28.7102 24.3356 35.4782 26.5946C34.2736 30.0104 33.4614 33.5522 33.0572 37.1516ZM33.0572 52.8386C33.4631 56.4473 34.2783 59.9982 35.4872 63.4226C34.7672 63.6566 34.0652 63.8726 33.3722 64.0526C27.5222 65.6186 23.2832 65.1236 21.4382 62.6666C19.5932 60.2096 20.3132 56.0066 23.4542 50.8316C24.3994 49.296 25.4425 47.823 26.5772 46.4216C28.5793 48.7113 30.7418 50.8557 33.0482 52.8386H33.0572ZM45.0002 61.1996C47.2839 62.4765 49.6571 63.5864 52.1012 64.5206C50.2022 68.9126 47.6912 71.6306 44.9732 71.6306C42.2552 71.6306 39.7712 68.9306 37.8722 64.5656C40.3242 63.6121 42.706 62.4873 45.0002 61.1996ZM46.8002 60.1286C48.9724 58.8325 51.0753 57.4236 53.1002 55.9076C53.6762 55.4756 54.2342 55.0076 54.7922 54.5936C54.3717 57.3976 53.6846 60.1551 52.7402 62.8286C50.731 62.0422 48.7713 61.1345 46.8722 60.1106L46.8002 60.1286ZM57.4202 44.9996C57.4202 43.1996 57.3482 41.4986 57.2222 39.8246C59.004 41.4503 60.6898 43.1783 62.2712 44.9996C60.6908 46.819 59.0049 48.5439 57.2222 50.1656C57.3482 48.4916 57.4202 46.7996 57.4202 44.9996Z" fill="url(#paint0_linear_3864_1599)"/>
<path d="M69.9838 53.4147C69.9365 53.3042 69.8676 53.2042 69.781 53.1207C69.6944 53.0373 69.592 52.972 69.4798 52.9288C69.37 52.883 69.2523 52.8594 69.1333 52.8594C69.0144 52.8594 68.8966 52.883 68.7868 52.9288C68.6762 52.976 68.5763 53.045 68.4928 53.1316C68.4093 53.2181 68.344 53.3205 68.3008 53.4327C68.255 53.5425 68.2314 53.6603 68.2314 53.7792C68.2314 53.8982 68.255 54.016 68.3008 54.1257C68.6676 54.9743 68.9685 55.8499 69.2008 56.7447C69.2501 56.9444 69.3663 57.1212 69.53 57.2457C69.6938 57.3701 69.8952 57.4347 70.1008 57.4288C70.1695 57.4387 70.2392 57.4387 70.3078 57.4288C70.4244 57.4004 70.5341 57.3491 70.6305 57.2778C70.7269 57.2065 70.8081 57.1167 70.8693 57.0135C70.9305 56.9104 70.9705 56.7961 70.9869 56.6773C71.0033 56.5585 70.9958 56.4376 70.9648 56.3218C70.7171 55.3278 70.3891 54.3556 69.9838 53.4147Z" fill="#005EB8"/>
<path d="M45.0001 37.2061C42.0301 37.2061 39.0151 38.2681 39.0151 40.3021V50.1121C39.0151 52.1461 42.0301 53.2081 45.0001 53.2081C47.9701 53.2081 50.9941 52.1461 50.9941 50.1121V40.3021C50.9941 38.2681 47.9791 37.2061 45.0001 37.2061ZM45.0001 48.1141C42.3001 48.1141 40.8421 47.1691 40.8421 46.8361V45.8461C43.5097 46.9379 46.4995 46.9379 49.1671 45.8461V46.8001C49.1671 47.1691 47.7001 48.1141 45.0001 48.1141ZM45.0001 44.8381C42.3001 44.8381 40.8421 43.9381 40.8421 43.5691V42.5791C43.512 43.6594 46.4973 43.6594 49.1671 42.5791V43.5691C49.1671 43.8931 47.7001 44.8381 45.0001 44.8381ZM45.0001 41.5711C42.3001 41.5711 40.8421 40.6711 40.8421 40.3021C40.8421 39.9331 42.3001 39.0331 45.0001 39.0331C47.7001 39.0331 49.1671 39.9331 49.1671 40.3021C49.1671 40.6711 47.7001 41.5711 45.0001 41.5711ZM40.8421 49.1221C43.512 50.2024 46.4973 50.2024 49.1671 49.1221V50.1121C49.1671 50.4361 47.7361 51.3811 45.0001 51.3811C42.2641 51.3811 40.8421 50.4001 40.8421 50.1121V49.1221Z" fill="url(#paint1_linear_3864_1599)"/>
</g>
<defs>
<linearGradient id="paint0_linear_3864_1599" x1="44.962" y1="22.0246" x2="52.8501" y2="66.8961" gradientUnits="userSpaceOnUse">
<stop stop-color="#00A5E3"/>
<stop offset="0.5" stop-color="#373188"/>
<stop offset="1" stop-color="#FD0026"/>
</linearGradient>
<linearGradient id="paint1_linear_3864_1599" x1="44.9958" y1="38.743" x2="47.7018" y2="51.1631" gradientUnits="userSpaceOnUse">
<stop stop-color="#00A5E3"/>
<stop offset="0.5" stop-color="#373188"/>
<stop offset="1" stop-color="#FD0026"/>
</linearGradient>
<clipPath id="clip0_3864_1599">
<rect width="90" height="90" fill="white"/>
</clipPath>
</defs>
</svg>
