<svg width="90" height="90" viewBox="0 0 90 90" fill="none" xmlns="http://www.w3.org/2000/svg">
<g clip-path="url(#clip0_3864_1439)">
<path d="M29.6097 30.6003C28.4397 29.1603 27.7197 27.3603 27.7197 25.3803C27.7197 20.8803 31.3197 17.2803 35.8197 17.2803C40.3197 17.2803 43.9197 20.8803 43.9197 25.3803" stroke="url(#paint0_linear_3864_1439)"/>
<path d="M44.0101 64.6205C44.0101 69.1205 40.4101 72.7205 35.9101 72.7205C31.4101 72.7205 27.8101 69.1205 27.8101 64.6205C27.8101 61.2005 29.9701 58.2305 33.0301 57.0605" stroke="url(#paint1_linear_3864_1439)"/>
<path d="M23.8498 40.0504C21.5998 38.6104 20.0698 36.0904 20.0698 33.2104C20.0698 28.8904 23.4898 25.2904 27.8098 25.1104" stroke="url(#paint2_linear_3864_1439)"/>
<path d="M27.7199 63.9907C23.9399 63.2707 21.1499 59.9407 21.1499 55.9807C21.1499 52.6507 23.2199 49.7707 26.0999 48.5107" stroke="url(#paint3_linear_3864_1439)"/>
<path d="M21.8699 52.6501C18.8099 51.4801 16.6499 48.5101 16.6499 45.0001C16.6499 41.7601 18.6299 38.8801 21.3299 37.6201" stroke="url(#paint4_linear_3864_1439)"/>
<path d="M44.0098 64.6199V25.3799" stroke="url(#paint5_linear_3864_1439)"/>
<path d="M35.8198 27.3604C35.8198 27.3604 38.7898 30.6904 43.9198 30.6904" stroke="url(#paint6_linear_3864_1439)"/>
<path d="M38.52 62.9102C38.52 62.9102 41.49 61.3802 44.01 58.4102" stroke="url(#paint7_linear_3864_1439)"/>
<path d="M57.4197 28.8901C59.3582 28.8901 60.9297 27.3186 60.9297 25.3801C60.9297 23.4416 59.3582 21.8701 57.4197 21.8701C55.4811 21.8701 53.9097 23.4416 53.9097 25.3801C53.9097 27.3186 55.4811 28.8901 57.4197 28.8901Z" stroke="url(#paint8_linear_3864_1439)"/>
<path d="M68.3098 36.9907C70.2483 36.9907 71.8198 35.4192 71.8198 33.4807C71.8198 31.5422 70.2483 29.9707 68.3098 29.9707C66.3713 29.9707 64.7998 31.5422 64.7998 33.4807C64.7998 35.4192 66.3713 36.9907 68.3098 36.9907Z" stroke="url(#paint9_linear_3864_1439)"/>
<path d="M69.8401 52.1098C71.7786 52.1098 73.3501 50.5384 73.3501 48.5998C73.3501 46.6613 71.7786 45.0898 69.8401 45.0898C67.9016 45.0898 66.3301 46.6613 66.3301 48.5998C66.3301 50.5384 67.9016 52.1098 69.8401 52.1098Z" stroke="url(#paint10_linear_3864_1439)"/>
<path d="M57.1501 53.1001C59.0887 53.1001 60.6601 51.5286 60.6601 49.5901C60.6601 47.6516 59.0887 46.0801 57.1501 46.0801C55.2116 46.0801 53.6401 47.6516 53.6401 49.5901C53.6401 51.5286 55.2116 53.1001 57.1501 53.1001Z" stroke="url(#paint11_linear_3864_1439)"/>
<path d="M62.1897 69.8403C64.1282 69.8403 65.6997 68.2688 65.6997 66.3303C65.6997 64.3918 64.1282 62.8203 62.1897 62.8203C60.2512 62.8203 58.6797 64.3918 58.6797 66.3303C58.6797 68.2688 60.2512 69.8403 62.1897 69.8403Z" stroke="url(#paint12_linear_3864_1439)"/>
<path d="M53.9098 25.3799H44.0098" stroke="url(#paint13_linear_3864_1439)"/>
<path d="M58.6801 66.3301H43.8301" stroke="url(#paint14_linear_3864_1439)"/>
<path d="M53.6398 49.5898H44.0098" stroke="url(#paint15_linear_3864_1439)"/>
<path d="M68.3098 51.75L64.4398 57.87H44.0098" stroke="url(#paint16_linear_3864_1439)"/>
<path d="M44.0098 40.7705H55.1698L59.8498 33.4805H64.7998" stroke="url(#paint17_linear_3864_1439)"/>
<path d="M29.4297 41.2207C29.4297 41.2207 35.0997 41.6707 35.0997 47.2507C35.0997 50.2207 33.1197 51.5707 32.2197 52.1107" stroke="url(#paint18_linear_3864_1439)"/>
<path d="M33.8398 43.3801C33.8398 43.3801 37.4398 40.5001 37.9798 37.6201" stroke="url(#paint19_linear_3864_1439)"/>
</g>
<defs>
<linearGradient id="paint0_linear_3864_1439" x1="35.8078" y1="18.5597" x2="37.2344" y2="29.1975" gradientUnits="userSpaceOnUse">
<stop stop-color="#00A5E3"/>
<stop offset="0.5" stop-color="#373188"/>
<stop offset="1" stop-color="#FD0026"/>
</linearGradient>
<linearGradient id="paint1_linear_3864_1439" x1="35.8982" y1="58.5647" x2="37.8568" y2="70.9875" gradientUnits="userSpaceOnUse">
<stop stop-color="#00A5E3"/>
<stop offset="0.5" stop-color="#373188"/>
<stop offset="1" stop-color="#FD0026"/>
</linearGradient>
<linearGradient id="paint2_linear_3864_1439" x1="23.9341" y1="26.5453" x2="27.4132" y2="37.5963" gradientUnits="userSpaceOnUse">
<stop stop-color="#00A5E3"/>
<stop offset="0.5" stop-color="#373188"/>
<stop offset="1" stop-color="#FD0026"/>
</linearGradient>
<linearGradient id="paint3_linear_3864_1439" x1="24.4301" y1="49.9976" x2="28.6441" y2="60.9635" gradientUnits="userSpaceOnUse">
<stop stop-color="#00A5E3"/>
<stop offset="0.5" stop-color="#373188"/>
<stop offset="1" stop-color="#FD0026"/>
</linearGradient>
<linearGradient id="paint4_linear_3864_1439" x1="19.2561" y1="39.0637" x2="23.9576" y2="49.0753" gradientUnits="userSpaceOnUse">
<stop stop-color="#00A5E3"/>
<stop offset="0.5" stop-color="#373188"/>
<stop offset="1" stop-color="#FD0026"/>
</linearGradient>
<linearGradient id="paint5_linear_3864_1439" x1="44.509" y1="29.1489" x2="49.375" y2="29.9092" gradientUnits="userSpaceOnUse">
<stop stop-color="#00A5E3"/>
<stop offset="0.5" stop-color="#373188"/>
<stop offset="1" stop-color="#FD0026"/>
</linearGradient>
<linearGradient id="paint6_linear_3864_1439" x1="39.8639" y1="27.6802" x2="40.0446" y2="30.3754" gradientUnits="userSpaceOnUse">
<stop stop-color="#00A5E3"/>
<stop offset="0.5" stop-color="#373188"/>
<stop offset="1" stop-color="#FD0026"/>
</linearGradient>
<linearGradient id="paint7_linear_3864_1439" x1="41.261" y1="58.8424" x2="41.7415" y2="62.4366" gradientUnits="userSpaceOnUse">
<stop stop-color="#00A5E3"/>
<stop offset="0.5" stop-color="#373188"/>
<stop offset="1" stop-color="#FD0026"/>
</linearGradient>
<linearGradient id="paint8_linear_3864_1439" x1="57.4145" y1="22.5444" x2="58.3212" y2="28.1038" gradientUnits="userSpaceOnUse">
<stop stop-color="#00A5E3"/>
<stop offset="0.5" stop-color="#373188"/>
<stop offset="1" stop-color="#FD0026"/>
</linearGradient>
<linearGradient id="paint9_linear_3864_1439" x1="68.3047" y1="30.645" x2="69.2114" y2="36.2044" gradientUnits="userSpaceOnUse">
<stop stop-color="#00A5E3"/>
<stop offset="0.5" stop-color="#373188"/>
<stop offset="1" stop-color="#FD0026"/>
</linearGradient>
<linearGradient id="paint10_linear_3864_1439" x1="69.8349" y1="45.7641" x2="70.7416" y2="51.3235" gradientUnits="userSpaceOnUse">
<stop stop-color="#00A5E3"/>
<stop offset="0.5" stop-color="#373188"/>
<stop offset="1" stop-color="#FD0026"/>
</linearGradient>
<linearGradient id="paint11_linear_3864_1439" x1="57.145" y1="46.7543" x2="58.0517" y2="52.3137" gradientUnits="userSpaceOnUse">
<stop stop-color="#00A5E3"/>
<stop offset="0.5" stop-color="#373188"/>
<stop offset="1" stop-color="#FD0026"/>
</linearGradient>
<linearGradient id="paint12_linear_3864_1439" x1="62.1845" y1="63.4946" x2="63.0913" y2="69.054" gradientUnits="userSpaceOnUse">
<stop stop-color="#00A5E3"/>
<stop offset="0.5" stop-color="#373188"/>
<stop offset="1" stop-color="#FD0026"/>
</linearGradient>
<linearGradient id="paint13_linear_3864_1439" x1="48.9525" y1="25.4759" x2="48.9659" y2="26.2887" gradientUnits="userSpaceOnUse">
<stop stop-color="#00A5E3"/>
<stop offset="0.5" stop-color="#373188"/>
<stop offset="1" stop-color="#FD0026"/>
</linearGradient>
<linearGradient id="paint14_linear_3864_1439" x1="51.2442" y1="66.4261" x2="51.2531" y2="67.239" gradientUnits="userSpaceOnUse">
<stop stop-color="#00A5E3"/>
<stop offset="0.5" stop-color="#373188"/>
<stop offset="1" stop-color="#FD0026"/>
</linearGradient>
<linearGradient id="paint15_linear_3864_1439" x1="48.8177" y1="49.6859" x2="48.8315" y2="50.4987" gradientUnits="userSpaceOnUse">
<stop stop-color="#00A5E3"/>
<stop offset="0.5" stop-color="#373188"/>
<stop offset="1" stop-color="#FD0026"/>
</linearGradient>
<linearGradient id="paint16_linear_3864_1439" x1="56.1419" y1="52.3378" x2="56.346" y2="57.305" gradientUnits="userSpaceOnUse">
<stop stop-color="#00A5E3"/>
<stop offset="0.5" stop-color="#373188"/>
<stop offset="1" stop-color="#FD0026"/>
</linearGradient>
<linearGradient id="paint17_linear_3864_1439" x1="54.3895" y1="34.1807" x2="54.7273" y2="40.0881" gradientUnits="userSpaceOnUse">
<stop stop-color="#00A5E3"/>
<stop offset="0.5" stop-color="#373188"/>
<stop offset="1" stop-color="#FD0026"/>
</linearGradient>
<linearGradient id="paint18_linear_3864_1439" x1="32.2605" y1="42.2667" x2="34.7861" y2="50.3291" gradientUnits="userSpaceOnUse">
<stop stop-color="#00A5E3"/>
<stop offset="0.5" stop-color="#373188"/>
<stop offset="1" stop-color="#FD0026"/>
</linearGradient>
<linearGradient id="paint19_linear_3864_1439" x1="35.9068" y1="38.1734" x2="36.9174" y2="42.6269" gradientUnits="userSpaceOnUse">
<stop stop-color="#00A5E3"/>
<stop offset="0.5" stop-color="#373188"/>
<stop offset="1" stop-color="#FD0026"/>
</linearGradient>
<clipPath id="clip0_3864_1439">
<rect width="90" height="90" fill="white"/>
</clipPath>
</defs>
</svg>
