<svg width="80" height="80" viewBox="0 0 80 80" fill="none" xmlns="http://www.w3.org/2000/svg">
<path d="M22.9421 46.2673L16.1689 36.1447C16.0588 35.9802 16 35.7866 16 35.5886V28C16 27.4477 16.4477 27 17 27H60.6042C61.1141 27 61.5423 27.3836 61.5982 27.8904L62.9881 40.4924C62.996 40.5639 62.9962 40.6361 62.9886 40.7076L62.5138 45.178C62.5046 45.2641 62.4843 45.3486 62.4534 45.4295L60.7458 49.8956C60.5978 50.2828 60.2262 50.5385 59.8117 50.5385H57.1304C56.7452 50.5385 56.3943 50.7597 56.2282 51.1072L55.1876 53.2843C55.068 53.5347 54.8496 53.7241 54.5848 53.8072L50.2068 55.1813C50.0705 55.224 49.945 55.2955 49.8386 55.3909L46.9172 58.0106C46.658 58.2429 46.2967 58.3238 45.9632 58.2242L44.2864 57.723C43.645 57.5312 43 58.0216 43 58.6911C43 59.128 42.7163 59.5198 42.2994 59.6506L38.5704 60.821C38.2191 60.9312 37.8357 60.8396 37.5723 60.5824L23.0745 46.4266C23.025 46.3782 22.9806 46.3248 22.9421 46.2673Z" fill="url(#paint0_linear_3867_5136)"/>
<path d="M28.1737 18.5011C28.4658 18.2092 28.8632 18.2093 29.1551 18.5011L29.3085 18.6545C30.2001 19.546 31.4045 20.0553 32.6649 20.0744L37.8368 20.1525C38.0786 20.1939 38.2788 20.2928 38.3592 20.3732L39.3915 21.4054C40.433 22.4468 41.892 22.9596 43.3563 22.797L47.0712 22.384C48.1656 22.2623 49.1869 21.7721 49.9657 20.9933L51.2616 19.6974C51.3679 19.5911 51.5443 19.5168 51.7518 19.5168C51.9595 19.5168 52.1367 19.5911 52.243 19.6974L64.9315 32.3849C65.1743 32.6279 65.1769 33.0981 64.955 33.3429L64.7264 33.5715C63.7972 34.5007 63.2848 35.7674 63.3065 37.0812L63.3827 41.6144C63.3822 41.788 63.3264 41.9392 63.163 42.1027C62.3691 42.8966 62.0364 43.9158 61.9061 44.8947C61.7767 45.8678 61.8378 46.888 61.9003 47.7502C61.9833 48.8967 61.5841 50.079 60.7196 50.9435L60.5585 51.1047C59.8146 51.8053 58.8153 52.1506 57.8358 52.1506C56.8003 52.1507 55.8001 52.7158 55.2801 53.6261C55.1003 53.941 54.8867 54.2276 54.6356 54.4787L54.4735 54.6408C53.7302 55.3409 52.7308 55.6857 51.7518 55.6857C50.6828 55.6858 49.6282 56.2797 49.0585 57.1681C48.9047 57.4078 48.7184 57.639 48.4989 57.8586L48.4569 57.9006L48.452 57.9064C47.6982 58.6829 46.6469 59.0665 45.6161 59.0666C45.5489 59.0666 45.4784 59.064 45.4051 59.0597C44.0203 58.9788 42.5658 59.5279 41.5829 60.5109L41.4276 60.6662C40.7205 61.3392 39.7599 61.7179 38.7518 61.7179H38.7001C37.6733 61.7179 36.7221 61.3735 36.0301 60.7238L18.1171 42.8107L18.1044 42.799L18.0467 42.7443C17.9971 42.6871 17.9502 42.5953 17.9296 42.4757L17.9188 42.342L17.995 37.548L17.9921 37.3029C17.9498 36.0786 17.4456 34.9118 16.5751 34.0412L15.0692 32.5353C14.7807 32.2468 14.7774 31.8552 15.0575 31.5646L15.0682 31.5549L28.1717 18.5031L28.1737 18.5011ZM29.8895 21.1994C29.1842 20.4941 28.0401 20.4941 27.3348 21.1994L19.1708 29.3634C17.6906 30.8441 17.6901 33.2451 19.1708 34.7257L19.1962 34.7492L19.205 34.757L19.2196 34.7707L19.2303 34.7785C19.2949 34.8335 19.3671 34.9521 19.3856 35.133L19.3895 35.2228L19.3133 40.0568C19.2927 41.3719 19.8077 42.6399 20.7391 43.5685L36.787 59.5685C37.301 60.1429 38.0184 60.3507 38.6483 60.3507C39.3699 60.3506 40.0457 60.0295 40.5477 59.5275C41.611 58.5156 41.6055 56.7839 40.6014 55.7795L40.5985 55.7765L33.6825 48.9123C33.3934 48.6208 33.3943 48.2251 33.6854 47.9338C33.9775 47.6417 34.3748 47.6417 34.6669 47.9338L43.7157 56.9816L43.9149 57.1603C44.7914 57.8704 46.031 57.9102 46.9842 57.3088L47.0194 57.3439L47.4423 56.9504C48.5288 55.9413 48.5284 54.19 47.5175 53.1789L38.4696 44.131C38.1776 43.839 38.1776 43.4417 38.4696 43.1496C38.7617 42.8575 39.159 42.8575 39.451 43.1496L49.7997 53.4972C50.8241 54.5212 52.5046 54.4866 53.5477 53.4435C54.611 52.4316 54.6055 50.6999 53.6014 49.6955L43.2538 39.3468C42.9617 39.0548 42.9618 38.6574 43.2538 38.3654C43.5459 38.0734 43.9433 38.0734 44.2352 38.3654L55.9354 50.0656C56.9598 51.0895 58.6423 51.0559 59.6854 50.0129C60.6946 49.0034 60.8456 47.319 59.7899 46.2629L47.7977 34.2716C45.9037 32.3776 42.8324 32.3776 40.9383 34.2716L39.4071 35.8029C37.8145 37.3522 35.2788 37.3521 33.6854 35.759L33.6786 35.7521L33.5175 35.592C32.8518 34.8862 32.4784 33.93 32.4784 32.9279C32.4784 31.7864 32.8675 30.8112 33.6337 30.0451L38.2469 25.4318C39.1323 24.5465 39.1321 23.1102 38.2469 22.2248C37.8343 21.8123 37.2781 21.5749 36.6952 21.5617L30.412 21.4191C30.1694 21.3777 29.9697 21.2793 29.8895 21.1994ZM54.0175 23.383C52.8149 22.1805 50.8792 22.1628 49.6532 23.3254C49.4944 23.4506 49.3239 23.5298 49.1376 23.5568L42.8485 24.2804C41.7608 24.4055 40.7469 24.8947 39.9725 25.6691L34.6151 31.0275C34.0503 31.5411 33.8466 32.2519 33.8466 32.8761C33.8467 33.5963 34.1644 34.2737 34.6669 34.7765C35.6789 35.8409 37.4133 35.8337 38.4178 34.8293L38.4198 34.8273L43.8251 29.3693C44.117 29.0773 44.5146 29.0771 44.8065 29.3683L57.5389 42.1476C58.5348 43.1472 60.1532 43.1496 61.1512 42.1515C61.6403 41.6624 61.9098 40.9951 61.8983 40.3039L61.8065 34.8C61.8066 34.6242 61.8624 34.4728 62.0253 34.3097L62.4491 33.8849L62.3925 33.8283C62.8163 33.0601 62.7058 32.0725 62.0507 31.4172L54.0175 23.383Z" fill="#08526D"/>
<defs>
<linearGradient id="paint0_linear_3867_5136" x1="40.4786" y1="62.0462" x2="40.4786" y2="26.9945" gradientUnits="userSpaceOnUse">
<stop offset="0.01" stop-color="#ADE3F6"/>
<stop offset="0.48291" stop-color="#ADE3F6" stop-opacity="0"/>
</linearGradient>
</defs>
</svg>
