<svg width="80" height="80" viewBox="0 0 80 80" fill="none" xmlns="http://www.w3.org/2000/svg">
<rect x="15.5" y="37.001" width="50" height="27" rx="1" fill="url(#paint0_linear_3867_718)"/>
<path d="M23.3918 38.8564C22.4558 38.8564 21.6758 39.6364 21.6758 40.5724C21.6758 41.5084 22.4558 42.2884 23.3918 42.2884C24.3278 42.2884 25.1078 41.5084 25.1078 40.5724C25.1078 39.6364 24.3278 38.8564 23.3918 38.8564Z" fill="#08526D"/>
<path d="M41.54 19.9971C43.123 19.9971 44.3838 21.2579 44.3838 22.8408C44.3837 24.4237 43.1229 25.6845 41.54 25.6846H31.2441C29.6612 25.6846 28.4005 24.4237 28.4004 22.8408C28.4004 21.2579 29.6612 19.9971 31.2441 19.9971H41.54ZM31.2441 21.2646C30.437 21.2646 29.7577 21.8928 29.6758 22.6807L29.668 22.8408L29.6758 23C29.7573 23.7882 30.4368 24.417 31.2441 24.417H41.54C42.401 24.417 43.1161 23.7018 43.1162 22.8408C43.1162 21.9798 42.4011 21.2647 41.54 21.2646H31.2441Z" fill="#08526D"/>
<path d="M23.3916 48.4043C24.0514 48.4043 24.6073 48.9603 24.6074 49.6201C24.6074 50.28 24.0515 50.8359 23.3916 50.8359C22.7318 50.8358 22.1758 50.2799 22.1758 49.6201C22.1759 48.9604 22.7319 48.4044 23.3916 48.4043Z" fill="#08526D" stroke="#08526D"/>
<path d="M41.4878 39.3047C42.1476 39.3047 42.7035 39.8607 42.7036 40.5205C42.7036 41.1804 42.1477 41.7363 41.4878 41.7363C40.818 41.7362 40.272 41.2224 40.272 40.5205C40.2721 39.8608 40.8281 39.3048 41.4878 39.3047Z" fill="#08526D" stroke="#08526D"/>
<path d="M41.4878 48.4043C42.1476 48.4043 42.7035 48.9603 42.7036 49.6201C42.7036 50.28 42.1476 50.8359 41.4878 50.8359C40.828 50.8358 40.272 50.2799 40.272 49.6201C40.2721 48.9604 40.8281 48.4044 41.4878 48.4043Z" fill="#08526D" stroke="#08526D"/>
<path d="M32.4399 39.3564C33.0997 39.3564 33.6557 39.9125 33.6558 40.5723C33.6558 41.2321 33.0998 41.7881 32.4399 41.7881C31.7802 41.788 31.2241 41.2321 31.2241 40.5723C31.2242 39.9125 31.7802 39.3565 32.4399 39.3564Z" fill="#08526D" stroke="#08526D"/>
<path d="M32.4399 48.4043C33.0997 48.4043 33.6557 48.9603 33.6558 49.6201C33.6558 50.28 33.0998 50.8359 32.4399 50.8359C31.7802 50.8358 31.2241 50.2799 31.2241 49.6201C31.2242 48.9604 31.7802 48.4044 32.4399 48.4043Z" fill="#08526D" stroke="#08526D"/>
<path d="M17.2041 16.0781H47.7275C48.438 16.0781 49.0303 16.6704 49.0303 17.3809V42.5537C49.0303 43.3821 49.7018 44.0537 50.5303 44.0537H64.9297L64.9824 44.0596C65.078 44.0809 65.1504 44.1684 65.1504 44.2646V63.6602C65.1504 63.7563 65.0779 63.8428 64.9824 63.8643L64.9297 63.8711H17.1523C16.4419 63.8711 15.8496 63.2788 15.8496 62.5684V17.3809C15.8496 16.6869 16.4252 16.0781 17.2041 16.0781ZM17.7705 29.6553C16.9421 29.6553 16.2705 30.3268 16.2705 31.1553V62.0537C16.2705 62.8821 16.9421 63.5537 17.7705 63.5537H44.874C45.7025 63.5537 46.374 62.8821 46.374 62.0537V44.2646C46.374 44.1651 46.4496 44.0788 46.543 44.0586L46.584 44.0537H47.1611C47.9896 44.0537 48.6611 43.3821 48.6611 42.5537V31.1553C48.6611 30.3268 47.9896 29.6553 47.1611 29.6553H17.7705ZM48.2422 57.4229C47.4138 57.4229 46.7422 58.0944 46.7422 58.9229V62.0537C46.7422 62.8821 47.4138 63.5537 48.2422 63.5537H63.2295C64.0579 63.5537 64.7295 62.8821 64.7295 62.0537V58.9229C64.7295 58.0944 64.0579 57.4229 63.2295 57.4229H48.2422ZM48.2422 50.9229C47.4138 50.9229 46.7422 51.5944 46.7422 52.4229V55.5537C46.7422 56.3821 47.4138 57.0537 48.2422 57.0537H63.2295C64.0579 57.0537 64.7295 56.3821 64.7295 55.5537V52.4229C64.7295 51.5944 64.0579 50.9229 63.2295 50.9229H48.2422ZM48.2422 44.4229C47.4138 44.4229 46.7422 45.0944 46.7422 45.9229V49.0537C46.7422 49.8821 47.4138 50.5537 48.2422 50.5537H63.2295C64.0579 50.5537 64.7295 49.8821 64.7295 49.0537V45.9229C64.7295 45.0944 64.0579 44.4229 63.2295 44.4229H48.2422ZM17.7705 16.4473C16.9421 16.4473 16.2705 17.1188 16.2705 17.9473V27.7861C16.2705 28.6146 16.9421 29.2861 17.7705 29.2861H47.1611C47.9896 29.2861 48.6611 28.6146 48.6611 27.7861V17.9473C48.6611 17.1188 47.9896 16.4473 47.1611 16.4473H17.7705Z" fill="#08526D" stroke="#08526D"/>
<path d="M16 16.5V63H64.7061L65 44H47" stroke="black"/>
<defs>
<linearGradient id="paint0_linear_3867_718" x1="40.4782" y1="64.001" x2="40.4782" y2="36.9968" gradientUnits="userSpaceOnUse">
<stop offset="0.01" stop-color="#ADE3F6"/>
<stop offset="0.4" stop-color="#ADE3F6" stop-opacity="0"/>
</linearGradient>
</defs>
</svg>
