<svg width="90" height="90" viewBox="0 0 90 90" fill="none" xmlns="http://www.w3.org/2000/svg">
<g clip-path="url(#clip0_3864_419)">
<path d="M36.1618 38.7004H27.8998C27.7813 38.6997 27.6639 38.7224 27.5543 38.7672C27.4446 38.812 27.3449 38.878 27.2608 38.9614L23.9308 42.3004H23.2378C23.0255 41.6999 22.6077 41.1938 22.0583 40.8715C21.509 40.5493 20.8634 40.4316 20.2356 40.5393C19.6079 40.647 19.0384 40.9731 18.6279 41.4601C18.2173 41.9471 17.9922 42.5635 17.9922 43.2004C17.9922 43.8373 18.2173 44.4537 18.6279 44.9407C19.0384 45.4276 19.6079 45.7538 20.2356 45.8615C20.8634 45.9692 21.509 45.8515 22.0583 45.5293C22.6077 45.207 23.0255 44.7009 23.2378 44.1004H24.2998C24.5381 44.0971 24.7663 44.0038 24.9388 43.8394L28.2688 40.5004H36.1618C36.3475 41.0256 36.691 41.4805 37.1454 41.8027C37.5998 42.125 38.1427 42.2988 38.6998 42.3004C39.3645 42.3074 40.0074 42.0631 40.4998 41.6164L44.1718 43.6594C44.1339 43.8038 44.1098 43.9514 44.0998 44.1004C44.0998 44.8165 44.3842 45.5032 44.8906 46.0096C45.3969 46.5159 46.0837 46.8004 46.7998 46.8004C47.5159 46.8004 48.2026 46.5159 48.709 46.0096C49.2153 45.5032 49.4998 44.8165 49.4998 44.1004C49.5135 43.9537 49.5135 43.8061 49.4998 43.6594L53.0998 41.6164C53.5953 42.0579 54.2361 42.3014 54.8998 42.3004C55.533 42.2955 56.1443 42.0682 56.6269 41.6582C57.1095 41.2483 57.4326 40.6818 57.5398 40.0577C57.6471 39.4336 57.5315 38.7917 57.2135 38.2442C56.8954 37.6967 56.395 37.2784 55.7998 37.0624V33.1294C56.1793 32.9991 56.5251 32.7859 56.8119 32.5052C57.0986 32.2245 57.3192 31.8834 57.4576 31.5067C57.596 31.13 57.6487 30.7272 57.6118 30.3276C57.5749 29.928 57.4495 29.5417 57.2445 29.1967C57.0395 28.8516 56.7603 28.5567 56.427 28.3332C56.0937 28.1097 55.7148 27.9633 55.3178 27.9046C54.9208 27.846 54.5157 27.8766 54.132 27.9942C53.7484 28.1117 53.3957 28.3134 53.0998 28.5844L49.4998 26.5414C49.5135 26.3947 49.5135 26.2471 49.4998 26.1004C49.4998 25.3843 49.2153 24.6976 48.709 24.1912C48.2026 23.6849 47.5159 23.4004 46.7998 23.4004C46.0837 23.4004 45.3969 23.6849 44.8906 24.1912C44.3842 24.6976 44.0998 25.3843 44.0998 26.1004C44.086 26.2471 44.086 26.3947 44.0998 26.5414L40.4998 28.5844C40.0074 28.1376 39.3645 27.8933 38.6998 27.9004C38.1427 27.902 37.5998 28.0758 37.1454 28.398C36.691 28.7203 36.3475 29.1752 36.1618 29.7004H28.2688L24.9388 26.3614C24.8547 26.278 24.7549 26.212 24.6453 26.1672C24.5356 26.1224 24.4182 26.0997 24.2998 26.1004H23.2378C23.0255 25.4999 22.6077 24.9938 22.0583 24.6715C21.509 24.3493 20.8634 24.2316 20.2356 24.3393C19.6079 24.447 19.0384 24.7731 18.6279 25.2601C18.2173 25.7471 17.9922 26.3635 17.9922 27.0004C17.9922 27.6373 18.2173 28.2537 18.6279 28.7407C19.0384 29.2276 19.6079 29.5538 20.2356 29.6615C20.8634 29.7692 21.509 29.6515 22.0583 29.3293C22.6077 29.007 23.0255 28.5009 23.2378 27.9004H23.9308L27.2608 31.2394C27.3449 31.3228 27.4446 31.3888 27.5543 31.4336C27.6639 31.4784 27.7813 31.5011 27.8998 31.5004H36.1618C36.2962 31.8778 36.5129 32.2207 36.7962 32.504C37.0795 32.7873 37.4223 33.004 37.7998 33.1384V34.2004H23.2378C23.0255 33.5999 22.6077 33.0938 22.0583 32.7715C21.509 32.4493 20.8634 32.3316 20.2356 32.4393C19.6079 32.547 19.0384 32.8731 18.6279 33.3601C18.2173 33.8471 17.9922 34.4635 17.9922 35.1004C17.9922 35.7373 18.2173 36.3537 18.6279 36.8407C19.0384 37.3276 19.6079 37.6538 20.2356 37.7615C20.8634 37.8692 21.509 37.7515 22.0583 37.4293C22.6077 37.107 23.0255 36.6009 23.2378 36.0004H37.7998V37.0624C37.4223 37.1968 37.0795 37.4135 36.7962 37.6968C36.5129 37.9801 36.2962 38.3229 36.1618 38.7004ZM20.6998 44.1004C20.5218 44.1004 20.3478 44.0476 20.1998 43.9487C20.0518 43.8498 19.9364 43.7093 19.8683 43.5448C19.8002 43.3804 19.7823 43.1994 19.8171 43.0248C19.8518 42.8502 19.9375 42.6899 20.0634 42.564C20.1892 42.4381 20.3496 42.3524 20.5242 42.3177C20.6988 42.283 20.8797 42.3008 21.0442 42.3689C21.2086 42.437 21.3492 42.5524 21.4481 42.7004C21.547 42.8484 21.5998 43.0224 21.5998 43.2004C21.5998 43.4391 21.505 43.668 21.3362 43.8368C21.1674 44.0056 20.9385 44.1004 20.6998 44.1004ZM20.6998 27.9004C20.5218 27.9004 20.3478 27.8476 20.1998 27.7487C20.0518 27.6498 19.9364 27.5093 19.8683 27.3448C19.8002 27.1804 19.7823 26.9994 19.8171 26.8248C19.8518 26.6502 19.9375 26.4899 20.0634 26.364C20.1892 26.2381 20.3496 26.1524 20.5242 26.1177C20.6988 26.083 20.8797 26.1008 21.0442 26.1689C21.2086 26.237 21.3492 26.3524 21.4481 26.5004C21.547 26.6484 21.5998 26.8224 21.5998 27.0004C21.5998 27.2391 21.505 27.468 21.3362 27.6368C21.1674 27.8056 20.9385 27.9004 20.6998 27.9004ZM20.6998 36.0004C20.5218 36.0004 20.3478 35.9476 20.1998 35.8487C20.0518 35.7498 19.9364 35.6093 19.8683 35.4448C19.8002 35.2804 19.7823 35.0994 19.8171 34.9248C19.8518 34.7502 19.9375 34.5899 20.0634 34.464C20.1892 34.3381 20.3496 34.2524 20.5242 34.2177C20.6988 34.183 20.8797 34.2008 21.0442 34.2689C21.2086 34.337 21.3492 34.4524 21.4481 34.6004C21.547 34.7484 21.5998 34.9224 21.5998 35.1004C21.5998 35.3391 21.505 35.568 21.3362 35.7368C21.1674 35.9056 20.9385 36.0004 20.6998 36.0004ZM38.6998 40.5004C38.5218 40.5004 38.3478 40.4476 38.1998 40.3487C38.0518 40.2498 37.9364 40.1093 37.8683 39.9448C37.8002 39.7804 37.7823 39.5994 37.8171 39.4248C37.8518 39.2502 37.9375 39.0899 38.0634 38.964C38.1892 38.8381 38.3496 38.7524 38.5242 38.7177C38.6988 38.683 38.8797 38.7008 39.0442 38.7689C39.2086 38.837 39.3492 38.9524 39.4481 39.1004C39.547 39.2484 39.5998 39.4224 39.5998 39.6004C39.5998 39.8391 39.505 40.068 39.3362 40.2368C39.1674 40.4056 38.9385 40.5004 38.6998 40.5004ZM40.4998 32.6164L44.1718 34.6594C44.1094 34.9561 44.1094 35.2626 44.1718 35.5594L40.4998 37.5844C40.2365 37.3537 39.9308 37.1764 39.5998 37.0624V33.1294C39.9322 33.0228 40.2387 32.8481 40.4998 32.6164ZM53.0998 37.5844L49.4998 35.5414C49.5622 35.2446 49.5622 34.9381 49.4998 34.6414L53.0998 32.6164C53.3649 32.8446 53.6701 33.0216 53.9998 33.1384V37.0624C53.6701 37.1792 53.3649 37.3562 53.0998 37.5844ZM41.3998 39.1594L44.9998 37.1164C45.2649 37.3446 45.5701 37.5216 45.8998 37.6384V41.5624C45.5701 41.6792 45.2649 41.8562 44.9998 42.0844L41.3998 40.0414C41.4622 39.7446 41.4622 39.4381 41.3998 39.1414V39.1594ZM46.7998 34.2004C46.9778 34.2004 47.1518 34.2532 47.2998 34.3521C47.4478 34.451 47.5631 34.5915 47.6313 34.756C47.6994 34.9204 47.7172 35.1014 47.6825 35.276C47.6478 35.4506 47.562 35.6109 47.4362 35.7368C47.3103 35.8627 47.1499 35.9484 46.9754 35.9831C46.8008 36.0178 46.6198 36 46.4554 35.9319C46.2909 35.8638 46.1503 35.7484 46.0514 35.6004C45.9526 35.4524 45.8998 35.2784 45.8998 35.1004C45.8998 34.8617 45.9946 34.6328 46.1634 34.464C46.3322 34.2952 46.5611 34.2004 46.7998 34.2004ZM47.6998 37.6384C48.0308 37.5244 48.3365 37.3471 48.5998 37.1164L52.2718 39.1594C52.2094 39.4561 52.2094 39.7626 52.2718 40.0594L48.5998 42.0844C48.3365 41.8537 48.0308 41.6764 47.6998 41.5624V37.6384ZM52.1998 31.0414L48.5998 33.0844C48.3365 32.8537 48.0308 32.6764 47.6998 32.5624V28.6294C48.0301 28.5181 48.3357 28.3439 48.5998 28.1164L52.2718 30.1594C52.2094 30.4561 52.2094 30.7626 52.2718 31.0594L52.1998 31.0414ZM45.8998 32.5624C45.5701 32.6792 45.2649 32.8562 44.9998 33.0844L41.3998 31.0414C41.4622 30.7446 41.4622 30.4381 41.3998 30.1414L44.9998 28.1164C45.2649 28.3446 45.5701 28.5216 45.8998 28.6384V32.5624ZM46.7998 45.0004C46.6218 45.0004 46.4478 44.9476 46.2998 44.8487C46.1518 44.7498 46.0364 44.6093 45.9683 44.4448C45.9002 44.2804 45.8823 44.0994 45.9171 43.9248C45.9518 43.7502 46.0375 43.5899 46.1634 43.464C46.2892 43.3381 46.4496 43.2524 46.6242 43.2177C46.7988 43.183 46.9797 43.2008 47.1442 43.2689C47.3086 43.337 47.4492 43.4524 47.5481 43.6004C47.647 43.7484 47.6998 43.9224 47.6998 44.1004C47.6998 44.3391 47.605 44.568 47.4362 44.7368C47.2674 44.9056 47.0385 45.0004 46.7998 45.0004ZM54.8998 40.5004C54.7218 40.5004 54.5478 40.4476 54.3998 40.3487C54.2518 40.2498 54.1364 40.1093 54.0683 39.9448C54.0002 39.7804 53.9823 39.5994 54.0171 39.4248C54.0518 39.2502 54.1375 39.0899 54.2634 38.964C54.3892 38.8381 54.5496 38.7524 54.7242 38.7177C54.8988 38.683 55.0797 38.7008 55.2442 38.7689C55.4086 38.837 55.5492 38.9524 55.6481 39.1004C55.747 39.2484 55.7998 39.4224 55.7998 39.6004C55.7998 39.8391 55.705 40.068 55.5362 40.2368C55.3674 40.4056 55.1385 40.5004 54.8998 40.5004ZM54.8998 29.7004C55.0778 29.7004 55.2518 29.7532 55.3998 29.8521C55.5478 29.951 55.6631 30.0915 55.7313 30.256C55.7994 30.4204 55.8172 30.6014 55.7825 30.776C55.7478 30.9506 55.662 31.1109 55.5362 31.2368C55.4103 31.3627 55.2499 31.4484 55.0754 31.4831C54.9008 31.5178 54.7198 31.5 54.5554 31.4319C54.3909 31.3638 54.2503 31.2484 54.1514 31.1004C54.0526 30.9524 53.9998 30.7784 53.9998 30.6004C53.9998 30.3617 54.0946 30.1328 54.2634 29.964C54.4322 29.7952 54.6611 29.7004 54.8998 29.7004ZM46.7998 25.2004C46.9778 25.2004 47.1518 25.2532 47.2998 25.3521C47.4478 25.451 47.5631 25.5915 47.6313 25.756C47.6994 25.9204 47.7172 26.1014 47.6825 26.276C47.6478 26.4506 47.562 26.6109 47.4362 26.7368C47.3103 26.8627 47.1499 26.9484 46.9754 26.9831C46.8008 27.0178 46.6198 27 46.4554 26.9319C46.2909 26.8638 46.1503 26.7484 46.0514 26.6004C45.9526 26.4524 45.8998 26.2784 45.8998 26.1004C45.8998 25.8617 45.9946 25.6328 46.1634 25.464C46.3322 25.2952 46.5611 25.2004 46.7998 25.2004ZM38.6998 29.7004C38.8778 29.7004 39.0518 29.7532 39.1998 29.8521C39.3478 29.951 39.4631 30.0915 39.5313 30.256C39.5994 30.4204 39.6172 30.6014 39.5825 30.776C39.5478 30.9506 39.462 31.1109 39.3362 31.2368C39.2103 31.3627 39.0499 31.4484 38.8754 31.4831C38.7008 31.5178 38.5198 31.5 38.3554 31.4319C38.1909 31.3638 38.0503 31.2484 37.9514 31.1004C37.8526 30.9524 37.7998 30.7784 37.7998 30.6004C37.7998 30.3617 37.8946 30.1328 38.0634 29.964C38.2322 29.7952 38.4611 29.7004 38.6998 29.7004Z" fill="url(#paint0_linear_3864_419)"/>
<path d="M36.9 71.9996H51.3C51.5387 71.9996 51.7676 71.9048 51.9364 71.736C52.1051 71.5673 52.2 71.3383 52.2 71.0996V64.7996H63.9C64.1387 64.7996 64.3676 64.7048 64.5364 64.536C64.7051 64.3673 64.8 64.1383 64.8 63.8996V53.0996H71.1C71.242 53.1 71.382 53.0668 71.5088 53.0026C71.6355 52.9385 71.7452 52.8453 71.829 52.7306C71.9188 52.6202 71.9811 52.49 72.0109 52.3507C72.0406 52.2115 72.0369 52.0672 72 51.9296L67.5 37.5296C67.41 34.8257 66.7788 32.1673 65.6439 29.7114C64.5089 27.2556 62.8931 25.0522 60.892 23.2315C58.8909 21.4108 56.5451 20.0097 53.9933 19.1111C51.4414 18.2125 48.7354 17.8345 46.035 17.9996C43.0027 18.1989 40.0539 19.0761 37.4058 20.5668C34.7578 22.0575 32.4781 24.1236 30.735 26.6126C30.6681 26.7121 30.6217 26.8239 30.5986 26.9415C30.5755 27.0591 30.5761 27.1802 30.6004 27.2975C30.6247 27.4149 30.6723 27.5262 30.7402 27.625C30.8081 27.7238 30.8951 27.8079 30.996 27.8726C31.1937 28.0001 31.4334 28.0451 31.6638 27.998C31.8943 27.9509 32.0971 27.8154 32.229 27.6206C34.4588 24.4408 37.6374 22.0478 41.3099 20.7841C44.9824 19.5205 48.9605 19.451 52.6749 20.5856C56.3893 21.7202 59.6495 24.0007 61.9891 27.1008C64.3286 30.2008 65.6276 33.9615 65.7 37.8446C65.7013 37.9975 65.7449 38.147 65.826 38.2766L69.876 51.2996H63.9C63.6613 51.2996 63.4323 51.3945 63.2636 51.5632C63.0948 51.732 63 51.9609 63 52.1996V55.7996H60.3C59.7096 55.7994 59.1355 55.6056 58.6658 55.248C58.196 54.8904 57.8564 54.3887 57.699 53.8196C57.6569 53.6133 57.5438 53.4282 57.3793 53.2967C57.2149 53.1651 57.0095 53.0954 56.799 53.0996C56.6592 53.0952 56.5203 53.1233 56.3934 53.1819C56.2664 53.2404 56.1548 53.3278 56.0675 53.437C55.9801 53.5461 55.9194 53.6742 55.8902 53.8109C55.8609 53.9476 55.8639 54.0893 55.899 54.2246C56.1502 55.1979 56.7201 56.059 57.5177 56.6707C58.3154 57.2824 59.2948 57.6094 60.3 57.5996H63V62.9996H51.3C51.0613 62.9996 50.8323 63.0945 50.6636 63.2632C50.4948 63.432 50.4 63.6609 50.4 63.8996V70.1996H37.8V69.2996C37.7099 61.6823 35.5308 54.2358 31.5 47.7716C30.7428 46.5193 30.1385 45.1808 29.7 43.7846C29.6642 43.6716 29.6064 43.5667 29.53 43.4761C29.4535 43.3855 29.3599 43.3108 29.2546 43.2564C29.1492 43.2021 29.0341 43.1691 28.9159 43.1593C28.7978 43.1496 28.6788 43.1633 28.566 43.1996C28.4476 43.2269 28.336 43.2777 28.2379 43.3492C28.1397 43.4207 28.0571 43.5113 27.9948 43.6155C27.9326 43.7198 27.8921 43.8356 27.8758 43.9559C27.8595 44.0762 27.8677 44.1986 27.9 44.3156C28.3885 45.8641 29.0624 47.3479 29.907 48.7346C33.78 54.9036 35.8874 62.0165 36 69.2996V71.0996C36 71.3383 36.0948 71.5673 36.2636 71.736C36.4323 71.9048 36.6613 71.9996 36.9 71.9996Z" fill="url(#paint1_linear_3864_419)"/>
</g>
<defs>
<linearGradient id="paint0_linear_3864_419" x1="37.7786" y1="25.648" x2="39.5938" y2="44.4974" gradientUnits="userSpaceOnUse">
<stop stop-color="#00A5E3"/>
<stop offset="0.5" stop-color="#373188"/>
<stop offset="1" stop-color="#FD0026"/>
</linearGradient>
<linearGradient id="paint1_linear_3864_419" x1="49.9168" y1="23.1522" x2="58.3484" y2="65.4023" gradientUnits="userSpaceOnUse">
<stop stop-color="#00A5E3"/>
<stop offset="0.5" stop-color="#373188"/>
<stop offset="1" stop-color="#FD0026"/>
</linearGradient>
<clipPath id="clip0_3864_419">
<rect width="90" height="90" fill="white"/>
</clipPath>
</defs>
</svg>
