<svg width="80" height="80" viewBox="0 0 80 80" fill="none" xmlns="http://www.w3.org/2000/svg">
<g clip-path="url(#clip0_3867_2280)">
<path d="M24.8877 49.0996L35.4502 59.7434L38.7002 56.4934L50.3189 56.4121L54.7064 52.7559L64.6189 42.7621L65.1877 39.5934L63.0752 38.1309L60.9627 38.6184L57.3064 41.9496L50.5627 47.7996L51.7002 45.1996L50.8064 42.3559L47.8002 40.8934L34.3939 41.2996L31.3877 42.5996L28.4627 45.5246L24.8877 49.0996Z" fill="url(#paint0_linear_3867_2280)"/>
<path d="M36.425 32.7684V20.0121C36.425 16.7621 34.3938 14.1621 31.875 14.1621H18.55C16.0313 14.1621 14 16.8434 14 20.0121V32.7684C14 36.0184 16.0313 38.6184 18.55 38.6184H31.875C34.3938 38.6184 36.425 36.0184 36.425 32.7684Z" fill="#B3DEFF"/>
<path d="M36.4251 60.7188L31.8751 65.35L19.4438 52.7563L23.9938 48.125L36.4251 60.7188Z" stroke="#08526D" stroke-width="2" stroke-miterlimit="10" stroke-linecap="round" stroke-linejoin="round"/>
<path d="M24.8877 49.1L30.8189 43.0875C32.0377 41.8687 33.6627 41.2188 35.3689 41.2188H48.2064C50.1564 41.2188 51.7002 42.7625 51.7002 44.7125C51.7002 46.6625 50.1564 48.2062 48.2064 48.2062H40.4064" stroke="#08526D" stroke-width="2" stroke-miterlimit="10" stroke-linecap="round" stroke-linejoin="round"/>
<path d="M48.2064 48.2877C49.9939 48.2877 51.7002 47.5564 52.9189 46.3377L60.2314 38.9439C61.3689 37.8064 63.1564 37.8064 64.2939 38.9439C65.4314 40.0814 65.4314 41.8689 64.2939 43.0064L51.7814 55.6002C51.2127 56.1689 50.5627 56.4127 49.7502 56.4127H38.7002L35.4502 59.6627" stroke="#08526D" stroke-width="2" stroke-miterlimit="10" stroke-linecap="round" stroke-linejoin="round"/>
<path d="M55.3564 36.9129L53.0814 35.2879C53.1626 34.8004 53.1626 34.3129 53.1626 33.8254C53.1626 33.3379 53.0814 32.8504 53.0814 32.3629L55.3564 30.7379C55.8439 30.4129 56.0064 29.6816 55.6814 29.1129L53.8126 25.7816C53.4876 25.2129 52.8376 24.9691 52.2689 25.2129L49.6689 26.2691C48.7751 25.5379 47.8001 24.9691 46.7439 24.5629L46.5001 21.8004C46.4189 21.1504 45.9314 20.7441 45.2814 20.7441H41.4626C40.8126 20.7441 40.3251 21.2316 40.2439 21.8004L39.9189 24.5629C38.8626 24.9691 37.8876 25.5379 36.9939 26.2691L34.3939 25.2129C33.8251 24.9691 33.1751 25.2129 32.8501 25.7816L31.0626 29.1129C30.7376 29.6816 30.9001 30.3316 31.3876 30.7379L33.6626 32.3629C33.5814 32.8504 33.5814 33.3379 33.5814 33.8254C33.5814 34.3129 33.6626 34.8004 33.6626 35.2879L31.3876 36.9129M39.9189 36.7504C39.2689 35.9379 38.8626 34.9629 38.8626 33.8254C38.8626 31.3066 40.8939 29.2754 43.3314 29.2754C45.7689 29.2754 47.8001 31.3066 47.8001 33.8254C47.8001 34.9629 47.3939 35.9379 46.7439 36.7504" stroke="#08526D" stroke-width="2" stroke-miterlimit="10" stroke-linecap="round" stroke-linejoin="round"/>
<path d="M18.7939 21.3127L21.5564 24.0752L26.4314 19.2002" stroke="#08526D" stroke-width="2" stroke-miterlimit="10" stroke-linecap="round" stroke-linejoin="round"/>
</g>
<defs>
<linearGradient id="paint0_linear_3867_2280" x1="45.05" y1="59.4996" x2="45.05" y2="43.3173" gradientUnits="userSpaceOnUse">
<stop stop-color="#ADE3F6"/>
<stop offset="0.59" stop-color="#ADE3F6" stop-opacity="0"/>
</linearGradient>
<clipPath id="clip0_3867_2280">
<rect width="52" height="52" fill="white" transform="translate(14 14)"/>
</clipPath>
</defs>
</svg>
