<svg width="80" height="80" viewBox="0 0 80 80" fill="none" xmlns="http://www.w3.org/2000/svg">
<path d="M15.5 60V37V29.5C15.5 28.9477 15.9477 28.5 16.5 28.5H60.1065C60.6154 28.5 61.0431 28.8821 61.1002 29.3878L64.3955 58.5742C64.4544 59.0957 64.1 59.5741 63.5839 59.6697L52.02 61.8111C51.4628 61.9143 50.9313 61.5344 50.8486 60.9738L46.626 32.354C46.5536 31.8634 46.1326 31.5 45.6367 31.5H45.4667C44.9276 31.5 44.4855 31.9273 44.4673 32.4661L43.5327 60.0339C43.5145 60.5727 43.0724 61 42.5333 61H16.5C15.9477 61 15.5 60.5523 15.5 60Z" fill="url(#paint0_linear_3867_3366)"/>
<path d="M58.2988 17.4251C58.6556 17.3429 59.0957 17.4419 59.4834 17.7512C59.8288 18.0682 60.0254 18.474 60.0586 18.9055L60.0625 18.9465L64.9762 58.613C64.9775 58.6241 64.9709 58.6347 64.9603 58.6383C64.9508 58.6416 64.9443 58.6506 64.9443 58.6607V59.2923C64.9443 60.1846 64.4518 60.8214 63.6616 61.0309C63.6264 61.0402 63.59 61.0442 63.5537 61.0442L63.5 61.051L51.4873 62.5071C51.4276 62.5142 51.3687 62.5273 51.3115 62.5462C51.3031 62.549 51.2944 62.5507 51.2856 62.5512C51.281 62.5516 51.2751 62.5518 51.2676 62.552C51.2461 62.5525 51.2211 62.552 51.1797 62.552C50.8924 62.5519 50.5238 62.4326 50.1992 62.1887C49.8597 61.873 49.6667 61.4709 49.6338 61.0432L49.6318 61.0217L49.6289 61.0003L46.5169 36.152C46.4541 35.6512 46.0128 35.2854 45.509 35.3167C45.005 35.3479 44.6123 35.7658 44.6123 36.2708V60.6448C44.6121 61.5515 43.8707 62.2923 42.9639 62.2923H30.7959C30.5054 62.2922 30.2971 62.2484 30.1582 62.179C29.9449 62.0726 29.6979 62.0552 29.4717 62.1301C29.173 62.2297 28.9254 62.2923 28.7158 62.2923H16.5479C15.6411 62.2922 14.9006 61.5515 14.9004 60.6448V19.9807C14.9004 19.0912 15.668 18.3509 16.5664 18.384H28.7676C29.058 18.384 29.2664 18.428 29.4053 18.4973C29.6187 18.6041 29.8664 18.6218 30.0928 18.5462C30.3912 18.4467 30.6382 18.3841 30.8477 18.384H43.0156C43.5603 18.384 43.9875 18.6136 44.2959 18.9905C44.5889 19.3489 45.1062 19.4262 45.4912 19.1692C45.7106 19.0229 45.9021 18.9563 46.084 18.9563H46.1416L46.1992 18.9485L55.0247 17.806C55.0251 17.806 55.0256 17.8061 55.0259 17.8064C55.0262 17.8067 55.0266 17.8069 55.027 17.8068L58.249 17.4368L58.2988 17.4251ZM55.1328 18.9827L55.1191 18.9837L46.8458 20.0631C46.3006 20.1342 45.9151 20.6322 45.9828 21.1779L50.8468 60.3445C50.9147 60.8915 51.4126 61.2804 51.9598 61.2139L62.8893 59.886C63.439 59.8192 63.8298 59.3184 63.7609 58.7689L58.8458 19.5511C58.7776 19.007 58.2838 18.6192 57.739 18.6821L55.1328 18.9827ZM17.2197 19.6008C16.6674 19.6008 16.2197 20.0486 16.2197 20.6008V60.0764C16.2197 60.6287 16.6674 61.0764 17.2197 61.0764H28.2002C28.7525 61.0764 29.2002 60.6287 29.2002 60.0764V20.6008C29.2002 20.0486 28.7525 19.6008 28.2002 19.6008H17.2197ZM31.416 19.6008C30.8637 19.6008 30.416 20.0486 30.416 20.6008V60.0764C30.416 60.6287 30.8637 61.0764 31.416 61.0764H42.3965C42.9488 61.0764 43.3965 60.6287 43.3965 60.0764V20.6008C43.3965 20.0486 42.9488 19.6008 42.3965 19.6008H31.416Z" fill="#08526D"/>
<path d="M53.6841 26.177C53.9678 26.1417 54.2651 26.3351 54.3647 26.6204L54.395 26.7483L56.8911 46.9231C56.9305 47.2382 56.6879 47.569 56.3501 47.6282H56.2241C55.9543 47.6281 55.6586 47.3989 55.6099 47.0657L53.1138 26.8899L53.1128 26.8889L53.1118 26.7668C53.1389 26.4833 53.3749 26.2156 53.6841 26.177Z" fill="#08526D"/>
<path d="M56.5137 52.4961C56.7498 52.4519 57.0645 52.6613 57.1289 52.9834C57.147 53.074 57.1217 53.2041 57.0186 53.3398C56.9152 53.4758 56.7701 53.5668 56.6406 53.5928C56.4256 53.6358 56.0977 53.443 56.0332 53.1152C55.9699 52.7206 56.2329 52.5052 56.4209 52.5049H56.4678L56.5137 52.4961Z" fill="#08526D" stroke="#08526D"/>
<path d="M37.4517 26.9971C37.5371 26.9971 37.6116 27.0721 37.6118 27.1562V47.541L37.5991 47.6016C37.5741 47.6582 37.5157 47.7002 37.4517 47.7002C37.3791 47.7001 37.3451 47.6767 37.3306 47.6621C37.316 47.6476 37.2926 47.6136 37.2925 47.541V27.1562L37.2964 27.1094C37.3037 27.0682 37.3196 27.0461 37.3306 27.0352C37.3416 27.0242 37.3636 27.0083 37.4048 27.001L37.4517 26.9971Z" fill="#08526D" stroke="#08526D"/>
<path d="M36.9512 53.1367C37.238 53.1367 37.5115 53.3686 37.5117 53.6963C37.5117 53.9832 37.2791 54.2568 36.9512 54.2568C36.675 54.2566 36.4146 54.0411 36.3955 53.7324C36.4835 53.2986 36.7416 53.1369 36.9512 53.1367Z" fill="#08526D" stroke="#08526D"/>
<path d="M23.2036 26.9971C23.289 26.9971 23.3635 27.0721 23.3638 27.1562V47.541L23.3511 47.6016C23.326 47.6582 23.2676 47.7002 23.2036 47.7002C23.119 47.6999 23.0446 47.6257 23.0444 47.541V27.1562L23.0483 27.1094C23.0556 27.0682 23.0715 27.0461 23.0825 27.0352C23.0935 27.0242 23.1156 27.0083 23.1567 27.001L23.2036 26.9971Z" fill="#08526D" stroke="#08526D"/>
<path d="M22.7036 52.6367C22.1736 52.6367 21.7496 53.0607 21.6436 53.6967C21.6436 54.3327 22.1736 54.7567 22.7036 54.7567C23.3396 54.7567 23.7636 54.2267 23.7636 53.6967C23.7636 53.0607 23.2336 52.6367 22.7036 52.6367Z" fill="#08526D"/>
<defs>
<linearGradient id="paint0_linear_3867_3366" x1="39.9786" y1="62" x2="39.9786" y2="28.4948" gradientUnits="userSpaceOnUse">
<stop offset="0.01" stop-color="#ADE3F6"/>
<stop offset="0.4" stop-color="#ADE3F6" stop-opacity="0"/>
</linearGradient>
</defs>
</svg>
