<svg width="90" height="90" viewBox="0 0 90 90" fill="none" xmlns="http://www.w3.org/2000/svg">
<g clip-path="url(#clip0_3864_5088)">
<path d="M70.8299 52.5056C70.9814 52.5117 71.1325 52.4871 71.2743 52.4333C71.416 52.3795 71.5454 52.2975 71.6547 52.1925C71.7639 52.0874 71.8509 51.9613 71.9102 51.8218C71.9695 51.6823 72 51.5322 71.9999 51.3806V38.8886C71.9953 38.7401 71.9613 38.5939 71.8998 38.4586C71.8384 38.3233 71.7507 38.2015 71.6419 38.1002C71.5332 37.999 71.4054 37.9203 71.266 37.8687C71.1266 37.8171 70.9784 37.7936 70.8299 37.7996H58.3289C58.0306 37.7996 57.7444 37.9182 57.5334 38.1291C57.3224 38.3401 57.2039 38.6263 57.2039 38.9246V44.2706H52.3709V38.8886C52.3616 38.5965 52.2389 38.3196 52.029 38.1163C51.819 37.9131 51.5382 37.7995 51.2459 37.7996H45.8999V32.8406H51.2459C51.5443 32.8406 51.8304 32.7221 52.0414 32.5111C52.2524 32.3001 52.3709 32.014 52.3709 31.7156V19.2236C52.3709 18.9253 52.2524 18.6391 52.0414 18.4281C51.8304 18.2172 51.5443 18.0986 51.2459 18.0986H38.7539C38.4556 18.0986 38.1694 18.2172 37.9584 18.4281C37.7474 18.6391 37.6289 18.9253 37.6289 19.2236V24.5696H32.7959V19.2236C32.7959 18.9253 32.6774 18.6391 32.4664 18.4281C32.2554 18.2172 31.9693 18.0986 31.6709 18.0986H19.1699C18.8716 18.0986 18.5854 18.2172 18.3744 18.4281C18.1634 18.6391 18.0449 18.9253 18.0449 19.2236V31.7156C18.0449 32.014 18.1634 32.3001 18.3744 32.5111C18.5854 32.7221 18.8716 32.8406 19.1699 32.8406H31.6709C31.9693 32.8406 32.2554 32.7221 32.4664 32.5111C32.6774 32.3001 32.7959 32.014 32.7959 31.7156V26.3696H37.6289V31.7156C37.6289 32.014 37.7474 32.3001 37.9584 32.5111C38.1694 32.7221 38.4556 32.8406 38.7539 32.8406H44.0999V37.7996H38.7539C38.4556 37.7996 38.1694 37.9182 37.9584 38.1291C37.7474 38.3401 37.6289 38.6263 37.6289 38.9246V51.3806C37.6289 51.679 37.7474 51.9651 37.9584 52.1761C38.1694 52.3871 38.4556 52.5056 38.7539 52.5056H51.2459C51.5443 52.5056 51.8304 52.3871 52.0414 52.1761C52.2524 51.9651 52.3709 51.679 52.3709 51.3806V46.0346H57.2039V51.3806C57.2039 51.5284 57.233 51.6747 57.2896 51.8112C57.3461 51.9476 57.429 52.0717 57.5334 52.1761C57.6379 52.2806 57.7619 52.3635 57.8984 52.42C58.0349 52.4765 58.1812 52.5056 58.3289 52.5056H63.6749V57.1586H58.3289C58.0306 57.1586 57.7444 57.2772 57.5334 57.4881C57.3224 57.6991 57.2039 57.9853 57.2039 58.2836V63.6296H52.3709V58.2836C52.3709 57.9853 52.2524 57.6991 52.0414 57.4881C51.8304 57.2772 51.5443 57.1586 51.2459 57.1586H38.7539C38.4556 57.1586 38.1694 57.2772 37.9584 57.4881C37.7474 57.6991 37.6289 57.9853 37.6289 58.2836V63.6296H32.7959V58.2836C32.7959 57.9853 32.6774 57.6991 32.4664 57.4881C32.2554 57.2772 31.9693 57.1586 31.6709 57.1586H19.1699C18.8716 57.1586 18.5854 57.2772 18.3744 57.4881C18.1634 57.6991 18.0449 57.9853 18.0449 58.2836V70.7756C18.0449 71.074 18.1634 71.3601 18.3744 71.5711C18.5854 71.7821 18.8716 71.9006 19.1699 71.9006H31.6709C31.9693 71.9006 32.2554 71.7821 32.4664 71.5711C32.6774 71.3601 32.7959 71.074 32.7959 70.7756V65.4296H37.6289V70.7756C37.6289 71.074 37.7474 71.3601 37.9584 71.5711C38.1694 71.7821 38.4556 71.9006 38.7539 71.9006H51.2459C51.5443 71.9006 51.8304 71.7821 52.0414 71.5711C52.2524 71.3601 52.3709 71.074 52.3709 70.7756V65.4296H57.2039V70.7756C57.2039 70.9234 57.233 71.0697 57.2896 71.2062C57.3461 71.3426 57.429 71.4667 57.5334 71.5711C57.6379 71.6756 57.7619 71.7585 57.8984 71.815C58.0349 71.8715 58.1812 71.9006 58.3289 71.9006H70.8299C70.9814 71.9067 71.1325 71.8821 71.2743 71.8283C71.416 71.7744 71.5454 71.6925 71.6547 71.5875C71.7639 71.4824 71.8509 71.3563 71.9102 71.2168C71.9695 71.0773 72 70.9272 71.9999 70.7756V58.2836C71.9999 57.9853 71.8814 57.6991 71.6704 57.4881C71.4594 57.2772 71.1733 57.1586 70.8749 57.1586H65.4749V52.5056H70.8299ZM30.9959 31.0406H19.8449V19.8986H30.9959V31.0406ZM39.4289 19.8986H50.5709V31.0406H39.4289V19.8986ZM50.5709 50.7056H39.4289V39.5996H50.5709V50.7056ZM30.9959 70.1006H19.8449V58.9586H30.9959V70.1006ZM50.5709 70.1006H39.4289V58.9586H50.5709V70.1006ZM70.1549 70.1006H59.0039V58.9586H70.1999L70.1549 70.1006ZM59.0039 39.5996H70.1999V50.7056H59.0039V39.5996Z" fill="url(#paint0_linear_3864_5088)"/>
</g>
<defs>
<linearGradient id="paint0_linear_3864_5088" x1="44.9828" y1="23.2664" x2="51.9135" y2="65.881" gradientUnits="userSpaceOnUse">
<stop stop-color="#00A5E3"/>
<stop offset="0.5" stop-color="#373188"/>
<stop offset="1" stop-color="#FD0026"/>
</linearGradient>
<clipPath id="clip0_3864_5088">
<rect width="90" height="90" fill="white"/>
</clipPath>
</defs>
</svg>
