<svg width="90" height="90" viewBox="0 0 90 90" fill="none" xmlns="http://www.w3.org/2000/svg">
<g clip-path="url(#clip0_3864_5072)">
<path d="M45.0001 60.6516C43.1249 60.6472 41.2625 60.3434 39.4831 59.7516C39.2397 59.6675 39.0391 59.4911 38.9246 59.2604C38.8101 59.0298 38.7909 58.7633 38.8711 58.5186C38.933 58.3276 39.053 58.1608 39.2144 58.0414C39.3758 57.9219 39.5704 57.8559 39.7711 57.8526C39.8727 57.8395 39.9755 57.8395 40.0771 57.8526C41.6617 58.3983 43.3242 58.684 45.0001 58.6986C46.6645 58.7044 48.3185 58.4368 49.8961 57.9066C49.9977 57.8935 50.1005 57.8935 50.2021 57.9066C50.4028 57.9099 50.5975 57.9759 50.7589 58.0954C50.9202 58.2148 51.0402 58.3816 51.1021 58.5726C51.1427 58.693 51.1589 58.8203 51.1496 58.947C51.1403 59.0738 51.1058 59.1974 51.0481 59.3106C50.9923 59.4258 50.9142 59.5288 50.8185 59.6137C50.7227 59.6987 50.6111 59.7639 50.4901 59.8056C48.7165 60.3768 46.8634 60.6624 45.0001 60.6516Z" fill="url(#paint0_linear_3864_5072)"/>
<path d="M44.9998 72C40.3838 71.9871 35.9417 70.2375 32.5566 67.0993C29.1716 63.961 27.0914 59.6638 26.7298 55.062V54.594L26.2708 54.477C26.0728 54.432 21.5098 53.298 21.5098 48.474V34.587C21.5177 33.1893 21.9963 31.8351 22.8682 30.7427C23.7401 29.6503 24.9546 28.8835 26.3158 28.566L26.7478 28.467L26.8108 28.026C27.1253 25.7208 28.2676 23.6087 30.0245 22.0835C31.7815 20.5584 34.0332 19.7244 36.3598 19.737H38.8528V18.972C38.8549 18.7195 38.9543 18.4776 39.1304 18.2965C39.3064 18.1155 39.5454 18.0093 39.7978 18H50.2018C50.4604 18 50.7086 18.1021 50.8923 18.2841C51.076 18.4662 51.1804 18.7134 51.1828 18.972V19.737H53.6758C55.9981 19.743 58.241 20.5834 59.9955 22.1049C61.75 23.6265 62.8992 25.7279 63.2338 28.026L63.2878 28.467L63.7288 28.566C65.0875 28.8867 66.299 29.6547 67.169 30.7466C68.0389 31.8385 68.5167 33.191 68.5258 34.587V48.474C68.521 49.8637 68.0488 51.2114 67.1852 52.3003C66.3216 53.3891 65.1169 54.1558 63.7648 54.477L63.3058 54.594V55.062C62.9395 59.6684 60.8531 63.9684 57.4613 67.1067C54.0694 70.245 49.6208 71.9919 44.9998 72ZM28.7098 55.359C29.1335 59.3841 31.0324 63.1099 34.0404 65.8178C37.0484 68.5258 40.9524 70.0243 44.9998 70.0243C49.0471 70.0243 52.9512 68.5258 55.9592 65.8178C58.9672 63.1099 60.8661 59.3841 61.2898 55.359L61.3618 54.648H52.6588C50.8313 54.6419 49.0794 53.9178 47.7808 52.632C47.0432 51.9048 46.049 51.4972 45.0133 51.4972C43.9775 51.4972 42.9834 51.9048 42.2458 52.632C40.9464 53.9376 39.1828 54.6754 37.3408 54.684H28.6378L28.7098 55.359ZM44.9998 49.5C46.5577 49.5046 48.0513 50.1221 49.1578 51.219C50.0883 52.1455 51.3457 52.6692 52.6588 52.677H62.3518C63.4729 52.6746 64.5474 52.2282 65.3402 51.4354C66.133 50.6427 66.5794 49.5681 66.5818 48.447V34.587C66.5794 33.4659 66.133 32.3913 65.3402 31.5986C64.5474 30.8058 63.4729 30.3594 62.3518 30.357H27.6478C26.5266 30.3594 25.4521 30.8058 24.6593 31.5986C23.8666 32.3913 23.4201 33.4659 23.4178 34.587V48.474C23.4201 49.5951 23.8666 50.6697 24.6593 51.4624C25.4521 52.2552 26.5266 52.7016 27.6478 52.704H37.3408C38.6367 52.7026 39.8818 52.1994 40.8148 51.3C41.359 50.7385 42.009 50.2904 42.7273 49.9815C43.4455 49.6725 44.2179 49.5089 44.9998 49.5ZM51.1828 28.386H61.3618L61.1998 27.621C60.7993 25.9325 59.8418 24.4282 58.4817 23.3505C57.1215 22.2728 55.4381 21.6847 53.7028 21.681H51.1828V28.386ZM40.7698 28.386H49.2298V19.926H40.7698V28.386ZM36.3238 21.654C34.5822 21.6558 32.8922 22.2449 31.5269 23.3261C30.1615 24.4072 29.2007 25.9172 28.7998 27.612L28.6108 28.413H38.7808V21.681L36.3238 21.654Z" fill="url(#paint1_linear_3864_5072)"/>
<path d="M43.5781 35.6564C43.5781 35.9376 43.6615 36.2125 43.8178 36.4464C43.974 36.6802 44.1961 36.8625 44.4559 36.9701C44.7158 37.0778 45.0017 37.1059 45.2775 37.0511C45.5534 36.9962 45.8068 36.8608 46.0056 36.6619C46.2045 36.463 46.3399 36.2096 46.3948 35.9338C46.4497 35.658 46.4215 35.372 46.3139 35.1122C46.2063 34.8524 46.024 34.6303 45.7901 34.474C45.5563 34.3178 45.2814 34.2344 45.0001 34.2344C44.623 34.2344 44.2613 34.3842 43.9946 34.6509C43.7279 34.9175 43.5781 35.2792 43.5781 35.6564Z" fill="url(#paint2_linear_3864_5072)"/>
<path d="M48.0781 35.6564C48.0781 35.9376 48.1615 36.2125 48.3178 36.4464C48.474 36.6802 48.6961 36.8625 48.9559 36.9701C49.2158 37.0778 49.5017 37.1059 49.7775 37.0511C50.0534 36.9962 50.3068 36.8608 50.5056 36.6619C50.7045 36.463 50.8399 36.2096 50.8948 35.9338C50.9497 35.658 50.9215 35.372 50.8139 35.1122C50.7063 34.8524 50.524 34.6303 50.2901 34.474C50.0563 34.3178 49.7814 34.2344 49.5001 34.2344C49.123 34.2344 48.7613 34.3842 48.4946 34.6509C48.2279 34.9175 48.0781 35.2792 48.0781 35.6564Z" fill="url(#paint3_linear_3864_5072)"/>
<path d="M39.0781 35.6564C39.0781 35.9376 39.1615 36.2125 39.3178 36.4464C39.474 36.6802 39.6961 36.8625 39.9559 36.9701C40.2158 37.0778 40.5017 37.1059 40.7775 37.0511C41.0534 36.9962 41.3068 36.8608 41.5056 36.6619C41.7045 36.463 41.8399 36.2096 41.8948 35.9338C41.9497 35.658 41.9215 35.372 41.8139 35.1122C41.7063 34.8524 41.524 34.6303 41.2901 34.474C41.0563 34.3178 40.7814 34.2344 40.5001 34.2344C40.123 34.2344 39.7613 34.3842 39.4946 34.6509C39.2279 34.9175 39.0781 35.2792 39.0781 35.6564Z" fill="url(#paint4_linear_3864_5072)"/>
</g>
<defs>
<linearGradient id="paint0_linear_3864_5072" x1="44.9781" y1="58.1126" x2="45.0629" y2="60.3933" gradientUnits="userSpaceOnUse">
<stop stop-color="#00A5E3"/>
<stop offset="0.5" stop-color="#373188"/>
<stop offset="1" stop-color="#FD0026"/>
</linearGradient>
<linearGradient id="paint1_linear_3864_5072" x1="44.9832" y1="23.1867" x2="52.9284" y2="65.6004" gradientUnits="userSpaceOnUse">
<stop stop-color="#00A5E3"/>
<stop offset="0.5" stop-color="#373188"/>
<stop offset="1" stop-color="#FD0026"/>
</linearGradient>
<linearGradient id="paint2_linear_3864_5072" x1="44.998" y1="34.5075" x2="45.3654" y2="36.7598" gradientUnits="userSpaceOnUse">
<stop stop-color="#00A5E3"/>
<stop offset="0.5" stop-color="#373188"/>
<stop offset="1" stop-color="#FD0026"/>
</linearGradient>
<linearGradient id="paint3_linear_3864_5072" x1="49.498" y1="34.5075" x2="49.8654" y2="36.7598" gradientUnits="userSpaceOnUse">
<stop stop-color="#00A5E3"/>
<stop offset="0.5" stop-color="#373188"/>
<stop offset="1" stop-color="#FD0026"/>
</linearGradient>
<linearGradient id="paint4_linear_3864_5072" x1="40.498" y1="34.5075" x2="40.8654" y2="36.7598" gradientUnits="userSpaceOnUse">
<stop stop-color="#00A5E3"/>
<stop offset="0.5" stop-color="#373188"/>
<stop offset="1" stop-color="#FD0026"/>
</linearGradient>
<clipPath id="clip0_3864_5072">
<rect width="90" height="90" fill="white"/>
</clipPath>
</defs>
</svg>
