<svg width="90" height="90" viewBox="0 0 90 90" fill="none" xmlns="http://www.w3.org/2000/svg">
<g clip-path="url(#clip0_3864_5058)">
<path d="M67.2122 32.8594H63.1442C62.9055 32.8594 62.6765 32.9542 62.5078 33.123C62.339 33.2918 62.2442 33.5207 62.2442 33.7594C62.2442 33.9981 62.339 34.227 62.5078 34.3958C62.6765 34.5646 62.9055 34.6594 63.1442 34.6594H67.5722V56.2594C67.5722 60.8854 67.5722 60.8854 67.4462 61.0024L67.3382 61.0924H22.4282V34.7224H26.8562C27.0948 34.7224 27.3238 34.6276 27.4925 34.4588C27.6613 34.29 27.7562 34.0611 27.7562 33.8224C27.7562 33.5837 27.6613 33.3548 27.4925 33.186C27.3238 33.0172 27.0948 32.9224 26.8562 32.9224H22.7882C22.2054 32.9222 21.6457 33.1499 21.2287 33.5569C20.8116 33.9639 20.5703 34.5178 20.5562 35.1004V60.8044C20.5656 61.3901 20.8049 61.9486 21.2225 62.3594C21.64 62.7702 22.2024 63.0005 22.7882 63.0004H37.6382V70.1104H31.1942C30.9471 70.1104 30.7102 70.2085 30.5355 70.3832C30.3608 70.5579 30.2627 70.7948 30.2627 71.0419C30.2627 71.2889 30.3608 71.5259 30.5355 71.7005C30.7102 71.8752 30.9471 71.9734 31.1942 71.9734H58.8061C59.0532 71.9734 59.2901 71.8752 59.4648 71.7005C59.6395 71.5259 59.7377 71.2889 59.7377 71.0419C59.7377 70.7948 59.6395 70.5579 59.4648 70.3832C59.2901 70.2085 59.0532 70.1104 58.8061 70.1104H52.3622V63.0004H67.2122C67.8026 63.0004 68.3689 62.7665 68.7872 62.3498C69.2056 61.9332 69.4418 61.3678 69.4442 60.7774V35.1004C69.4453 34.8065 69.3885 34.5153 69.2768 34.2435C69.1652 33.9716 69.001 33.7245 68.7936 33.5163C68.5862 33.3081 68.3398 33.1429 68.0684 33.0301C67.797 32.9174 67.506 32.8594 67.2122 32.8594ZM50.4992 70.1374H39.5012V63.0004H50.4992V70.1374Z" fill="url(#paint0_linear_3864_5058)"/>
<path d="M45.0002 30.5371C44.3434 30.5371 43.7013 30.7319 43.1552 31.0968C42.609 31.4617 42.1834 31.9804 41.932 32.5872C41.6806 33.194 41.6149 33.8618 41.743 34.506C41.8712 35.1502 42.1875 35.742 42.6519 36.2064C43.1164 36.6709 43.7081 36.9872 44.3523 37.1153C44.9965 37.2434 45.6643 37.1777 46.2711 36.9263C46.8779 36.675 47.3966 36.2493 47.7615 35.7032C48.1264 35.157 48.3212 34.5149 48.3212 33.8581C48.3212 32.9773 47.9713 32.1326 47.3485 31.5098C46.7257 30.887 45.881 30.5371 45.0002 30.5371ZM45.0002 35.3161C44.7093 35.3179 44.4244 35.2331 44.1818 35.0726C43.9392 34.9121 43.7498 34.6831 43.6376 34.4147C43.5255 34.1463 43.4957 33.8505 43.552 33.5651C43.6083 33.2797 43.7482 33.0175 43.9539 32.8118C44.1596 32.6061 44.4218 32.4662 44.7072 32.4099C44.9926 32.3536 45.2883 32.3834 45.5568 32.4955C45.8252 32.6077 46.0542 32.7971 46.2147 33.0397C46.3752 33.2823 46.46 33.5672 46.4582 33.8581C46.4558 34.2441 46.3015 34.6135 46.0286 34.8865C45.7556 35.1594 45.3862 35.3137 45.0002 35.3161Z" fill="#005EB8"/>
<path d="M51.2998 40.4996C52.8519 39.9393 54.3089 39.144 55.6198 38.1416C57.0322 37.0915 58.2376 35.7885 59.1748 34.2986C59.2537 34.1618 59.2953 34.0066 59.2953 33.8486C59.2953 33.6906 59.2537 33.5354 59.1748 33.3986C58.2168 31.9234 56.9967 30.6361 55.5748 29.6006C52.5796 27.3595 48.9474 26.133 45.2068 26.0996H44.8738C42.7687 26.0987 40.6795 26.4642 38.6998 27.1796C37.1492 27.7436 35.6928 28.5385 34.3798 29.5376C32.9499 30.5857 31.7288 31.8922 30.7798 33.3896C30.7008 33.5264 30.6592 33.6816 30.6592 33.8396C30.6592 33.9976 30.7008 34.1528 30.7798 34.2896C31.7381 35.7671 32.9581 37.0572 34.3798 38.0966C37.4154 40.3628 41.1035 41.5848 44.8918 41.5796H45.1258C47.2312 41.5849 49.3211 41.2194 51.2998 40.4996ZM57.2668 33.8306C56.4854 34.9082 55.5481 35.8637 54.4858 36.6656C53.4327 37.478 52.269 38.1357 51.0298 38.6186C52.1005 37.2714 52.6894 35.6044 52.7025 33.8835C52.7155 32.1626 52.152 30.4869 51.1018 29.1236C53.5502 30.0964 55.6833 31.725 57.2668 33.8306ZM44.9008 39.7166C43.4289 39.5934 42.0577 38.9196 41.0608 37.8298C40.0639 36.7401 39.5146 35.3144 39.5225 33.8375C39.5305 32.3605 40.0951 30.9409 41.1037 29.8619C42.1123 28.7829 43.4907 28.124 44.9638 28.0166H45.1618C46.6336 28.149 48.0013 28.8318 48.9916 29.9286C49.9819 31.0255 50.5219 32.4556 50.5038 33.9332C50.4856 35.4109 49.9105 36.8273 48.8935 37.8994C47.8765 38.9716 46.4924 39.6205 45.0178 39.7166H44.9008ZM32.7148 33.8486C33.4985 32.773 34.4355 31.8179 35.4958 31.0136C36.5509 30.2044 37.7142 29.547 38.9518 29.0606C37.881 30.4078 37.2921 32.0748 37.2791 33.7957C37.266 35.5166 37.8295 37.1923 38.8798 38.5556C36.4294 37.5861 34.2956 35.9569 32.7148 33.8486Z" fill="url(#paint1_linear_3864_5058)"/>
<path d="M30.0692 28.9263C30.3079 28.9263 30.5368 28.8314 30.7056 28.6627C30.8744 28.4939 30.9692 28.265 30.9692 28.0263V19.9263H39.0692C39.315 19.9263 39.5508 19.8286 39.7247 19.6548C39.8985 19.4809 39.9962 19.2451 39.9962 18.9993C39.9962 18.7534 39.8985 18.5176 39.7247 18.3438C39.5508 18.1699 39.315 18.0723 39.0692 18.0723H30.0692C29.8305 18.0723 29.6016 18.1671 29.4328 18.3359C29.264 18.5047 29.1692 18.7336 29.1692 18.9723V27.9903C29.1643 28.1115 29.184 28.2324 29.2271 28.3457C29.2701 28.4591 29.3356 28.5626 29.4197 28.6501C29.5038 28.7375 29.6046 28.807 29.7162 28.8545C29.8278 28.9019 29.9479 28.9264 30.0692 28.9263Z" fill="#005EB8"/>
<path d="M59.9311 18H50.8591C50.6133 18 50.3775 18.0977 50.2036 18.2715C50.0298 18.4454 49.9321 18.6811 49.9321 18.927C49.9321 19.1729 50.0298 19.4086 50.2036 19.5825C50.3775 19.7563 50.6133 19.854 50.8591 19.854H58.9591V27.954C58.9591 28.201 59.0573 28.438 59.232 28.6127C59.4066 28.7874 59.6436 28.8855 59.8906 28.8855C60.1377 28.8855 60.3746 28.7874 60.5493 28.6127C60.724 28.438 60.8221 28.201 60.8221 27.954V18.9C60.8221 18.6629 60.7286 18.4353 60.5617 18.2668C60.3949 18.0982 60.1683 18.0024 59.9311 18Z" fill="url(#paint2_linear_3864_5058)"/>
<path d="M59.931 38.79C59.6923 38.79 59.4634 38.8849 59.2946 39.0536C59.1258 39.2224 59.031 39.4513 59.031 39.69V47.79H50.931C50.684 47.79 50.447 47.8882 50.2723 48.0629C50.0976 48.2376 49.9995 48.4745 49.9995 48.7215C49.9995 48.9686 50.0976 49.2055 50.2723 49.3802C50.447 49.5549 50.684 49.653 50.931 49.653H59.931C60.1697 49.653 60.3986 49.5582 60.5674 49.3894C60.7362 49.2207 60.831 48.9917 60.831 48.753V39.717C60.8346 39.5966 60.814 39.4767 60.7704 39.3643C60.7268 39.252 60.6611 39.1496 60.5771 39.0631C60.4932 38.9767 60.3928 38.9079 60.2818 38.861C60.1708 38.8141 60.0515 38.79 59.931 38.79Z" fill="url(#paint3_linear_3864_5058)"/>
<path d="M39.1412 47.8528H31.0412V39.7528C31.0412 39.5057 30.9431 39.2688 30.7684 39.0941C30.5937 38.9194 30.3568 38.8213 30.1097 38.8213C29.8627 38.8213 29.6257 38.9194 29.4511 39.0941C29.2764 39.2688 29.1782 39.5057 29.1782 39.7528V48.7798C29.1782 49.0185 29.273 49.2474 29.4418 49.4162C29.6106 49.585 29.8395 49.6798 30.0782 49.6798H39.1412C39.3883 49.6798 39.6252 49.5817 39.7999 49.407C39.9746 49.2323 40.0727 48.9953 40.0727 48.7483C40.0727 48.5012 39.9746 48.2643 39.7999 48.0896C39.6252 47.9149 39.3883 47.8168 39.1412 47.8168V47.8528Z" fill="url(#paint4_linear_3864_5058)"/>
</g>
<defs>
<linearGradient id="paint0_linear_3864_5058" x1="44.9643" y1="36.6163" x2="49.0443" y2="67.8836" gradientUnits="userSpaceOnUse">
<stop stop-color="#00A5E3"/>
<stop offset="0.5" stop-color="#373188"/>
<stop offset="1" stop-color="#FD0026"/>
</linearGradient>
<linearGradient id="paint1_linear_3864_5058" x1="44.9562" y1="27.5865" x2="46.0573" y2="40.0747" gradientUnits="userSpaceOnUse">
<stop stop-color="#00A5E3"/>
<stop offset="0.5" stop-color="#373188"/>
<stop offset="1" stop-color="#FD0026"/>
</linearGradient>
<linearGradient id="paint2_linear_3864_5058" x1="55.3691" y1="19.0456" x2="56.7746" y2="27.6663" gradientUnits="userSpaceOnUse">
<stop stop-color="#00A5E3"/>
<stop offset="0.5" stop-color="#373188"/>
<stop offset="1" stop-color="#FD0026"/>
</linearGradient>
<linearGradient id="paint3_linear_3864_5058" x1="55.4075" y1="39.8334" x2="56.8144" y2="48.4349" gradientUnits="userSpaceOnUse">
<stop stop-color="#00A5E3"/>
<stop offset="0.5" stop-color="#373188"/>
<stop offset="1" stop-color="#FD0026"/>
</linearGradient>
<linearGradient id="paint4_linear_3864_5058" x1="34.6175" y1="39.8642" x2="36.0156" y2="48.4649" gradientUnits="userSpaceOnUse">
<stop stop-color="#00A5E3"/>
<stop offset="0.5" stop-color="#373188"/>
<stop offset="1" stop-color="#FD0026"/>
</linearGradient>
<clipPath id="clip0_3864_5058">
<rect width="90" height="90" fill="white"/>
</clipPath>
</defs>
</svg>
