<svg width="90" height="90" viewBox="0 0 90 90" fill="none" xmlns="http://www.w3.org/2000/svg">
<g clip-path="url(#clip0_3864_2418)">
<path d="M44.5858 74.2497C44.3402 74.2476 44.1049 74.1509 43.9288 73.9797L23.3998 57.3027C23.2627 57.1755 23.1686 57.0087 23.1306 56.8256C23.0926 56.6425 23.1126 56.452 23.1878 56.2808C23.263 56.1096 23.3898 55.966 23.5503 55.8701C23.7109 55.7742 23.8974 55.7307 24.0838 55.7457C24.2059 55.7437 24.3271 55.7667 24.4401 55.8131C24.553 55.8595 24.6553 55.9284 24.7408 56.0157L44.5858 71.9997L65.2858 55.2507C65.4045 55.0956 65.5703 54.9832 65.7584 54.9307C65.9465 54.8781 66.1466 54.8881 66.3284 54.9593C66.5103 55.0304 66.6641 55.1587 66.7667 55.325C66.8692 55.4912 66.9149 55.6862 66.8968 55.8807C66.8987 56.0028 66.8758 56.124 66.8294 56.2369C66.783 56.3499 66.714 56.4522 66.6268 56.5377L45.2698 73.9527C45.1816 74.0456 45.0755 74.1197 44.958 74.1708C44.8405 74.2218 44.7139 74.2486 44.5858 74.2497Z" fill="url(#paint0_linear_3864_2418)"/>
<path d="M28.1162 52.002C27.9383 52.0008 27.7607 51.9857 27.5852 51.957C26.7629 51.8347 26.0179 51.4045 25.5011 50.7534C24.9843 50.1023 24.7343 49.2791 24.8018 48.4505C24.8694 47.622 25.2493 46.8501 25.8647 46.2913C26.4801 45.7325 27.285 45.4285 28.1162 45.441C28.281 45.4321 28.4463 45.4321 28.6112 45.441C29.0572 45.5149 29.4832 45.6804 29.8622 45.927L30.0512 46.053L32.6882 44.127V31.14C32.6931 30.9598 32.749 30.7847 32.8493 30.635C32.9497 30.4853 33.0904 30.367 33.2552 30.294L44.0012 25.362V22.185L43.7942 22.104C43.0718 21.8359 42.4666 21.3224 42.0845 20.6533C41.7024 19.9842 41.5677 19.202 41.7039 18.4436C41.8401 17.6852 42.2385 16.9988 42.8296 16.5045C43.4206 16.0101 44.1666 15.7393 44.9372 15.7393C45.7077 15.7393 46.4537 16.0101 47.0447 16.5045C47.6358 16.9988 48.0342 17.6852 48.1704 18.4436C48.3066 19.202 48.1719 19.9842 47.7898 20.6533C47.4077 21.3224 46.8025 21.8359 46.0802 22.104L45.8642 22.185V25.362L56.6012 30.285C56.7753 30.3614 56.9229 30.4876 57.0254 30.6478C57.1279 30.8079 57.1807 30.9949 57.1772 31.185V44.1L59.8772 46.116L60.0752 45.99C60.4391 45.7399 60.8541 45.5739 61.2902 45.504C61.4719 45.476 61.6553 45.4609 61.8392 45.459C62.6595 45.4702 63.446 45.7881 64.0439 46.3499C64.6417 46.9118 65.0077 47.6771 65.0697 48.4952C65.1318 49.3133 64.8855 50.125 64.3792 50.7706C63.873 51.4163 63.1435 51.8491 62.3342 51.984C62.1586 52.0124 61.981 52.0274 61.8032 52.029C61.2938 52.0288 60.7915 51.9099 60.3362 51.6816C59.8809 51.4534 59.485 51.1221 59.1801 50.7141C58.8752 50.3061 58.6696 49.8326 58.5797 49.3313C58.4898 48.8299 58.518 48.3145 58.6622 47.826L58.7252 47.61L56.0252 45.666L45.2252 50.625C45.1038 50.6803 44.9716 50.708 44.8382 50.706C44.7049 50.7061 44.5732 50.6785 44.4512 50.625L33.8312 45.666L31.1852 47.583L31.2572 47.799C31.4013 48.2875 31.4295 48.8029 31.3396 49.3043C31.2497 49.8056 31.0441 50.2791 30.7392 50.6871C30.4343 51.0951 30.0385 51.4264 29.5831 51.6546C29.1278 51.8829 28.6255 52.0018 28.1162 52.002ZM28.1162 47.295C27.8159 47.2961 27.5235 47.3905 27.2792 47.565C27.0373 47.7432 26.8577 47.9929 26.7658 48.2789C26.6738 48.5648 26.6741 48.8724 26.7667 49.1582C26.8593 49.4439 27.0394 49.6933 27.2816 49.8709C27.5238 50.0486 27.8158 50.1455 28.1162 50.148C28.4134 50.1456 28.7026 50.0513 28.9442 49.878C29.175 49.7144 29.3517 49.4856 29.4518 49.221C29.5519 48.9564 29.5707 48.6679 29.506 48.3925C29.4412 48.1171 29.2958 47.8673 29.0883 47.675C28.8808 47.4827 28.6207 47.3567 28.3412 47.313L28.1162 47.295ZM61.8662 47.295H61.6322C61.2694 47.3645 60.9472 47.5707 60.7322 47.871C60.5444 48.1287 60.4493 48.4424 60.4623 48.761C60.4754 49.0797 60.5959 49.3845 60.8042 49.626C60.9378 49.7815 61.1036 49.9062 61.29 49.9917C61.4764 50.0771 61.6791 50.1212 61.8842 50.121C62.1096 50.1249 62.3323 50.0723 62.5322 49.968C62.8231 49.8262 63.057 49.5893 63.1951 49.2965C63.3332 49.0038 63.3674 48.6727 63.2918 48.3579C63.2163 48.0432 63.0356 47.7636 62.7797 47.5654C62.5237 47.3672 62.2078 47.2623 61.8842 47.268L61.8662 47.295ZM45.9002 36.945V48.303L55.3592 43.974V32.589L45.9002 36.945ZM34.5422 43.974L44.0012 48.303V36.945L34.5422 32.589V43.974ZM35.8832 31.14L44.8832 35.325L54.0002 31.14L44.9192 27L35.8832 31.14ZM45.0002 17.613C44.7189 17.613 44.444 17.6964 44.2101 17.8526C43.9763 18.0089 43.794 18.231 43.6864 18.4908C43.5788 18.7507 43.5506 19.0366 43.6055 19.3124C43.6604 19.5883 43.7958 19.8416 43.9947 20.0405C44.1935 20.2394 44.4469 20.3748 44.7227 20.4297C44.9986 20.4845 45.2845 20.4564 45.5443 20.3488C45.8042 20.2411 46.0263 20.0589 46.1825 19.825C46.3388 19.5912 46.4222 19.3162 46.4222 19.035C46.4175 18.6593 46.2662 18.3003 46.0005 18.0346C45.7348 17.769 45.3759 17.6177 45.0002 17.613Z" fill="url(#paint1_linear_3864_2418)"/>
</g>
<defs>
<linearGradient id="paint0_linear_3864_2418" x1="44.9741" y1="56.7562" x2="46.1023" y2="72.4083" gradientUnits="userSpaceOnUse">
<stop stop-color="#00A5E3"/>
<stop offset="0.5" stop-color="#373188"/>
<stop offset="1" stop-color="#FD0026"/>
</linearGradient>
<linearGradient id="paint1_linear_3864_2418" x1="44.9055" y1="19.2249" x2="49.1483" y2="48.1052" gradientUnits="userSpaceOnUse">
<stop stop-color="#00A5E3"/>
<stop offset="0.5" stop-color="#373188"/>
<stop offset="1" stop-color="#FD0026"/>
</linearGradient>
<clipPath id="clip0_3864_2418">
<rect width="90" height="90" fill="white"/>
</clipPath>
</defs>
</svg>
