<svg width="80" height="80" viewBox="0 0 80 80" fill="none" xmlns="http://www.w3.org/2000/svg">
<g clip-path="url(#clip0_3867_842)">
<mask id="mask0_3867_842" style="mask-type:luminance" maskUnits="userSpaceOnUse" x="14" y="14" width="52" height="52">
<path d="M66 14H14V66H66V14Z" fill="white"/>
</mask>
<g mask="url(#mask0_3867_842)">
<path d="M65.5938 28.2188V17.6562C65.5938 15.637 63.9568 14 61.9375 14H44.875C42.8557 14 41.2188 15.637 41.2188 17.6562V28.2188C41.2188 30.2381 42.8557 31.875 44.875 31.875H61.9375C63.9568 31.875 65.5938 30.2381 65.5938 28.2188Z" fill="#ADE3F6"/>
<path d="M59.7266 20.5322V21.1572H46.6475V20.5322H59.7266Z" fill="#08526D" stroke="#08526D"/>
<path d="M56.5605 25.4414V26.0664H46.6475V25.4414H56.5605Z" fill="#08526D" stroke="#08526D"/>
<path d="M29.7993 23.9912C32.6217 23.9912 34.9263 26.206 34.9263 28.957C34.9261 31.7093 32.6215 33.9219 29.7993 33.9219C26.978 33.9219 24.6735 31.7092 24.6733 28.957C24.6733 26.2064 26.9778 23.9912 29.7993 23.9912ZM29.7993 24.6162C27.3026 24.6162 25.2983 26.5716 25.2983 28.957C25.2985 31.3439 27.3026 33.2969 29.7993 33.2969C32.2969 33.2969 34.3011 31.3438 34.3013 28.957C34.3013 26.5713 32.2969 24.6162 29.7993 24.6162Z" fill="#08526D" stroke="#08526D"/>
<path d="M14.8125 40.2002H28.9492C29.0877 40.2003 29.2099 40.2918 29.249 40.4248L32.3721 51.0508C32.3998 51.1452 32.3812 51.2474 32.3223 51.3262C32.2633 51.405 32.1707 51.4511 32.0723 51.4512H17.9355C17.7971 51.4512 17.675 51.3604 17.6357 51.2275V51.2266L14.5127 40.6006C14.485 40.5062 14.5035 40.404 14.5625 40.3252C14.6215 40.2465 14.7141 40.2002 14.8125 40.2002ZM15.418 41.4658L18.0635 50.4678L18.1689 50.8262H31.6543L31.4658 50.1855L28.8203 41.1846L28.7148 40.8252H15.2305L15.418 41.4658Z" fill="#08526D" stroke="#08526D"/>
<path d="M34.1987 41.1211C34.3713 41.1211 34.5112 41.261 34.5112 41.4336V43.3652C34.5112 43.8359 34.1203 44.2051 33.6538 44.2051H29.9673C29.7948 44.2051 29.655 44.065 29.6548 43.8926C29.6548 43.72 29.7947 43.5801 29.9673 43.5801H33.8862V41.4336C33.8862 41.261 34.0262 41.1212 34.1987 41.1211Z" fill="#08526D" stroke="#08526D"/>
<path d="M26.292 35.9414H33.3066C36.2936 35.9414 38.7324 38.2848 38.7324 41.1963C38.7324 41.3687 38.5923 41.5085 38.4199 41.5088C38.2473 41.5088 38.1074 41.3689 38.1074 41.1963C38.1074 38.65 35.9689 36.5664 33.3066 36.5664H26.292C25.0209 36.5664 23.8675 37.0425 23.0098 37.8184C22.8818 37.9341 22.6842 37.9238 22.5684 37.7959C22.4526 37.6679 22.462 37.4703 22.5898 37.3545C23.56 36.4769 24.8626 35.9414 26.292 35.9414Z" fill="#08526D" stroke="#08526D"/>
<path d="M45.5986 31.5273H60.9642C61.413 31.5273 61.7767 31.8911 61.7767 32.3398V63.5633C61.7767 64.0121 61.413 64.3758 60.9642 64.3758H45.5986C45.1499 64.3758 44.7861 64.0121 44.7861 63.5633V32.3398C44.7861 31.8911 45.1499 31.5273 45.5986 31.5273Z" fill="url(#paint0_linear_3867_842)"/>
<path fill-rule="evenodd" clip-rule="evenodd" d="M46.0838 30.9512C43.1169 30.9512 40.7598 33.2692 40.7598 36.0696C40.7598 38.8714 43.1167 41.1881 46.0838 41.1881C49.0498 41.1881 51.4068 38.8715 51.4068 36.0696C51.4068 33.2696 49.0495 30.9512 46.0838 30.9512ZM39.1348 36.0696C39.1348 32.3202 42.2719 29.3262 46.0838 29.3262C49.8949 29.3262 53.0318 32.3209 53.0318 36.0696C53.0318 39.8207 49.8947 42.8131 46.0838 42.8131C42.2721 42.8131 39.1348 39.8207 39.1348 36.0696Z" fill="#08526D"/>
<path fill-rule="evenodd" clip-rule="evenodd" d="M46.3885 50.5707C46.4901 50.2249 46.8075 49.9873 47.168 49.9873H65.187C65.4431 49.9873 65.6841 50.108 65.8375 50.313C65.9909 50.5179 66.0388 50.7832 65.9666 51.0288L61.9862 64.5737C61.8846 64.9196 61.5671 65.1572 61.2066 65.1572H43.187C42.931 65.1572 42.6899 65.0364 42.5365 64.8314C42.3831 64.6264 42.3353 64.3612 42.4075 64.1155L46.3885 50.5707ZM47.7761 51.6123L44.2728 63.5322H60.5984L64.1015 51.6123H47.7761Z" fill="#08526D"/>
<path fill-rule="evenodd" clip-rule="evenodd" d="M40.4766 51.1611C40.9253 51.1611 41.2891 51.525 41.2891 51.9736V54.295H45.8703C46.3191 54.295 46.6828 54.6588 46.6828 55.1075C46.6828 55.5563 46.3191 55.92 45.8703 55.92H41.1712C40.365 55.92 39.6641 55.2814 39.6641 54.436V51.9736C39.6641 51.525 40.0278 51.1611 40.4766 51.1611Z" fill="#08526D"/>
<path fill-rule="evenodd" clip-rule="evenodd" d="M34.2837 51.6719C34.2837 47.7179 37.5913 44.5596 41.6133 44.5596H50.5547C52.4815 44.5596 54.2398 45.282 55.5509 46.4679C55.8837 46.7689 55.9094 47.2827 55.6084 47.6155C55.3074 47.9483 54.7935 47.974 54.4607 47.673C53.442 46.7515 52.0701 46.1846 50.5547 46.1846H41.6133C38.4364 46.1846 35.9087 48.6669 35.9087 51.6719V56.6669C35.9087 58.1869 37.1915 59.466 38.8319 59.466H44.3823C44.831 59.466 45.1948 59.8298 45.1948 60.2785C45.1948 60.7273 44.831 61.091 44.3823 61.091H38.8319C36.3461 61.091 34.2837 59.1356 34.2837 56.6669V51.6719Z" fill="#08526D"/>
<path fill-rule="evenodd" clip-rule="evenodd" d="M36.4531 64.3428C36.4531 63.894 36.8169 63.5303 37.2656 63.5303H43.1868C43.6355 63.5303 43.9993 63.894 43.9993 64.3428C43.9993 64.7914 43.6355 65.1553 43.1868 65.1553H37.2656C36.8169 65.1553 36.4531 64.7914 36.4531 64.3428Z" fill="#08526D"/>
</g>
</g>
<defs>
<linearGradient id="paint0_linear_3867_842" x1="52.6956" y1="65.1579" x2="52.6956" y2="56.5547" gradientUnits="userSpaceOnUse">
<stop stop-color="#ADE3F6"/>
<stop offset="1" stop-color="#ADE3F6" stop-opacity="0"/>
</linearGradient>
<clipPath id="clip0_3867_842">
<rect width="52" height="52" fill="white" transform="translate(14 14)"/>
</clipPath>
</defs>
</svg>
