<svg width="80" height="80" viewBox="0 0 80 80" fill="none" xmlns="http://www.w3.org/2000/svg">
<g id="icons/price 3">
<g id="price-ecommerce 1" clip-path="url(#clip0_3518_5500)">
<g id="Group">
<g id="Group_2">
<path id="Vector" d="M40.4245 32.0405V19.3058C40.4245 16.6527 38.302 14.5303 35.649 14.5303H19.7306C17.0775 14.5303 14.9551 16.6527 14.9551 19.3058V32.0405C14.9551 34.6935 17.0775 36.816 19.7306 36.816H35.649C38.302 36.816 40.4245 34.6935 40.4245 32.0405Z" fill="#F9B2BD"></path>
<path id="Vector_2" d="M24.1877 19.624C24.5061 19.624 24.7183 19.8363 24.7183 20.1546V21.0036C24.7183 21.2159 24.5061 21.4281 24.1877 21.4281C23.8694 21.4281 23.6571 21.2159 23.6571 20.8975V20.0485C23.7632 19.8363 23.9755 19.624 24.1877 19.624ZM24.0816 30.024C24.4 30.024 24.6122 30.2363 24.6122 30.5546V31.1914C24.6122 31.5097 24.4 31.722 24.0816 31.722C23.7632 31.722 23.551 31.5097 23.551 31.1914V30.5546C23.551 30.2363 23.7632 29.9179 24.0816 30.024ZM25.1428 27.9016C25.1428 27.6893 25.1428 27.4771 25.0367 27.2648C24.9306 27.0526 24.8245 26.9465 24.6122 26.8404C24.4 26.7342 24.1877 26.522 23.8694 26.522C23.3387 26.3097 22.8081 26.0975 22.3836 25.8852C21.9592 25.673 21.6408 25.3546 21.4285 25.0363C21.2163 24.5057 21.0041 23.975 21.1102 23.5506C21.1102 23.0199 21.2163 22.5955 21.4285 22.171C21.6408 21.7465 22.0653 21.4281 22.4898 21.2159C23.0204 21.0036 23.551 20.8975 24.0816 20.8975C24.5061 20.8975 24.9306 21.0036 25.3551 21.1097C25.6734 21.2159 25.9918 21.4281 26.3102 21.7465C26.6285 21.9587 26.8408 22.2771 26.9469 22.7016C26.9469 22.8077 27.053 22.9138 27.053 23.0199C27.1592 23.4444 26.8408 23.8689 26.4163 23.975C26.3102 23.975 26.2041 23.975 26.2041 23.975H25.8857C25.5673 23.975 25.249 23.6567 25.1428 23.3383C25.1428 23.1261 25.0367 23.0199 24.9306 22.9138C24.7183 22.7016 24.6122 22.5955 24.5061 22.4893C24.4 22.4893 24.1877 22.4893 24.0816 22.4893C23.8694 22.4893 23.7632 22.4893 23.551 22.5955C23.4449 22.7016 23.2326 22.8077 23.2326 23.0199C23.1265 23.1261 23.1265 23.3383 23.1265 23.5506C23.1265 23.7628 23.1265 23.8689 23.2326 24.0812C23.3387 24.1873 23.4449 24.3995 23.551 24.5057C23.7632 24.6118 24.0816 24.824 24.2938 24.9301C24.8245 25.1424 25.249 25.3546 25.7796 25.673C26.2041 25.8852 26.5224 26.2036 26.8408 26.6281C27.053 27.0526 27.2653 27.4771 27.1592 28.0077C27.1592 28.5383 26.9469 28.9628 26.7347 29.3873C26.5224 29.8118 26.0979 30.1301 25.6734 30.2363C25.1428 30.4485 24.6122 30.5546 24.0816 30.5546C23.6571 30.5546 23.2326 30.4485 22.9143 30.4485C22.4898 30.3424 22.1714 30.1301 21.853 29.9179C21.4285 29.4934 21.2163 29.175 21.0041 28.8567C20.8979 28.7506 20.8979 28.5383 20.7918 28.4322C20.6857 28.0077 21.0041 27.5832 21.4285 27.4771C21.5347 27.4771 21.5347 27.4771 21.6408 27.4771H21.853C22.2775 27.4771 22.5959 27.7955 22.702 28.2199C22.8081 28.4322 22.9143 28.5383 23.0204 28.6444C23.2326 28.7506 23.4449 28.8567 23.551 28.8567C23.7632 28.8567 23.8694 28.9628 24.0816 28.9628C24.2938 28.9628 24.5061 28.9628 24.7183 28.8567C24.8245 28.7506 25.0367 28.6444 25.0367 28.4322C25.1428 28.2199 25.1428 28.1138 25.1428 27.9016Z" fill="#08526D"></path>
<path id="Vector_3" d="M31.6164 19.624C31.9347 19.624 32.147 19.8363 32.147 20.1546V21.0036C32.147 21.322 31.9347 21.5342 31.6164 21.5342C31.298 21.5342 31.0857 21.322 31.0857 21.0036V20.1546C31.0857 19.8363 31.298 19.624 31.6164 19.624ZM31.5102 30.024C31.8286 30.024 32.0408 30.2363 32.0408 30.5546V31.1914C32.0408 31.5097 31.8286 31.722 31.5102 31.722C31.1919 31.722 30.9796 31.5097 30.9796 31.1914V30.5546C30.9796 30.2363 31.1919 30.024 31.5102 30.024ZM32.5715 27.9016C32.5715 27.6893 32.5715 27.4771 32.4653 27.2648C32.3592 27.0526 32.2531 26.9465 32.0408 26.8404C31.8286 26.7342 31.6163 26.522 31.298 26.522C30.7674 26.3097 30.2368 26.0975 29.8123 25.8852C29.3878 25.673 29.0694 25.3546 28.8572 24.9301C28.6449 24.5057 28.5388 24.0812 28.5388 23.5506C28.5388 23.0199 28.6449 22.5955 28.8572 22.171C29.0694 21.7465 29.4939 21.4281 29.9184 21.322C30.449 21.1097 30.9796 21.0036 31.5102 21.0036C31.9347 21.0036 32.3592 21.1097 32.7837 21.2159C33.1021 21.2159 33.4204 21.4281 33.7388 21.7465C34.0572 21.9587 34.2694 22.2771 34.3755 22.7016C34.3755 22.8077 34.4817 22.9138 34.4817 23.0199C34.5878 23.4444 34.2694 23.8689 33.8449 23.975C33.7388 23.975 33.6327 23.975 33.6327 23.975H33.3143C32.9959 23.975 32.6776 23.6567 32.5715 23.3383C32.5715 23.1261 32.4653 23.0199 32.3592 22.9138C32.147 22.7016 32.0408 22.5955 31.9347 22.4893C31.8286 22.4893 31.6164 22.3832 31.5102 22.4893C31.298 22.4893 31.0857 22.4893 30.9796 22.5955C30.8735 22.7016 30.6612 22.8077 30.6612 23.0199C30.5551 23.2322 30.5551 23.3383 30.5551 23.5506C30.5551 23.7628 30.5551 23.8689 30.6612 24.0812C30.7674 24.2934 30.8735 24.3995 31.0857 24.5057C31.298 24.6118 31.6163 24.824 31.8286 24.9301C32.3592 25.1424 32.7837 25.3546 33.3143 25.673C33.7388 25.8852 34.0572 26.2036 34.3755 26.6281C34.5878 27.0526 34.8 27.4771 34.6939 28.0077C34.6939 28.5383 34.5878 28.9628 34.2694 29.3873C34.0572 29.8118 33.6327 30.1301 33.2082 30.2363C32.6776 30.4485 32.147 30.5546 31.6164 30.5546C31.1919 30.5546 30.7674 30.4485 30.449 30.4485C30.0245 30.3424 29.7061 30.1301 29.3878 29.9179C29.0694 29.7057 28.751 29.3873 28.6449 28.9628C28.5388 28.8567 28.5388 28.6444 28.4327 28.5383C28.3266 28.1138 28.6449 27.6893 29.0694 27.5832C29.1755 27.5832 29.1755 27.5832 29.2817 27.5832H29.4939C29.9184 27.5832 30.2368 27.9016 30.3429 28.3261C30.449 28.5383 30.5551 28.6444 30.6612 28.7506C30.7674 28.8567 30.8735 28.9628 31.0857 28.9628C31.298 28.9628 31.4041 29.0689 31.6164 29.0689C31.8286 29.0689 32.0408 29.0689 32.2531 28.9628C32.3592 28.8567 32.5715 28.7506 32.5715 28.5383C32.5715 28.2199 32.5715 28.1138 32.5715 27.9016Z" fill="#08526D"></path>
<path id="Vector_4" d="M29.4938 30.2363H63.453C64.0898 30.2363 64.5143 30.6608 64.5143 31.2976V62.922C64.5143 63.5588 64.0898 63.9833 63.453 63.9833H29.4938C28.8571 63.9833 28.4326 63.5588 28.4326 62.922V31.2976C28.4326 30.6608 28.8571 30.2363 29.4938 30.2363Z" fill="url(#paint0_linear_3518_5500)"></path>
<path id="Vector_5" d="M47.4287 35.0117C48.1715 35.0117 48.8083 35.6485 48.8083 36.3913C48.8083 37.1342 48.1715 37.7709 47.4287 37.7709C46.6858 37.7709 46.0491 37.1342 46.0491 36.3913C46.0491 35.6485 46.6858 35.0117 47.4287 35.0117Z" fill="#08526D"></path>
<path id="Vector_6" d="M58.5715 35.0117C59.3143 35.0117 59.9511 35.6485 59.9511 36.3913C59.9511 37.1342 59.3143 37.7709 58.5715 37.7709C57.8286 37.7709 57.1919 37.1342 57.1919 36.3913C57.1919 35.6485 57.8286 35.0117 58.5715 35.0117Z" fill="#08526D"></path>
<path id="Vector_7" d="M52.947 35.0117C53.6898 35.0117 54.3266 35.6485 54.3266 36.3913C54.3266 37.1342 53.6898 37.7709 52.947 37.7709C52.2041 37.7709 51.5674 37.1342 51.5674 36.3913C51.5674 35.6485 52.2041 35.0117 52.947 35.0117Z" fill="#08526D"></path>
<path id="Vector_8" d="M31.6165 31.9414H61.3303C63.2508 31.9414 64.8254 33.516 64.8254 35.4365V61.2236C64.8254 63.1441 63.2508 64.7188 61.3303 64.7188H31.6165C29.696 64.7188 28.1213 63.1441 28.1213 61.2236V35.4365C28.1213 33.516 29.696 31.9414 31.6165 31.9414ZM63.4504 39.9922L29.4915 40.0986L28.7434 40.1006V61.2236C28.7434 62.8052 30.0349 64.0967 31.6165 64.0967H61.3303C62.9119 64.0967 64.2034 62.8052 64.2034 61.2236V39.9902L63.4504 39.9922ZM31.6165 32.5635C30.0349 32.5635 28.7434 33.855 28.7434 35.4365V39.4785L29.4963 39.4766L63.4553 39.3701L64.2034 39.3672V35.4365C64.2034 33.855 62.9119 32.5635 61.3303 32.5635H31.6165Z" stroke="#08526D" stroke-width="1.5" class="id_anim_stroke-property7" data-duration="2.7777777777777777" data-offset="0" style="stroke-dashoffset: 0px; stroke-dasharray: 0px, 331.671px; animation: 2.77778s linear 0s 1 normal forwards running id_anim_stroke-property7;"></path>
<g id="Group_3">
<path id="Vector_9" d="M53.4588 57.1048C53.3487 58.12 52.4916 58.8892 51.4705 58.8892H41.4765C40.4554 58.8892 39.5983 58.12 39.4882 57.1048L38.9668 52.2967C38.8385 51.1137 39.7652 50.0811 40.9552 50.0811H51.9918C53.1818 50.0811 54.1085 51.1137 53.9802 52.2967L53.4588 57.1048Z" stroke="#08526D" stroke-width="1.5" stroke-linecap="round" stroke-linejoin="round" class="id_anim_stroke-property8" data-duration="2.7777777777777777" data-offset="0" style="stroke-dashoffset: 0px; stroke-dasharray: 0px, 43.2716px; animation: 2.77778s linear 0s 1 normal forwards running id_anim_stroke-property8;"></path>
<path id="Vector_10" d="M55.9184 50.0811H37.0286" stroke="#08526D" stroke-width="1.5" stroke-linecap="round" stroke-linejoin="round" class="id_anim_stroke-property9" data-duration="2.7777777777777777" data-offset="0" style="stroke-dashoffset: 0px; stroke-dasharray: 0px, 18.8898px; animation: 2.77778s linear 0s 1 normal forwards running id_anim_stroke-property9;"></path>
<path id="Vector_11" d="M41.1672 50.0812L44.3509 45.3057" stroke="#08526D" stroke-width="1.5" stroke-linecap="round" stroke-linejoin="round" class="id_anim_stroke-property10" data-duration="2.7777777777777777" data-offset="0" style="stroke-dashoffset: 0px; stroke-dasharray: 0px, 5.73946px; animation: 2.77778s linear 0s 1 normal forwards running id_anim_stroke-property10;"></path>
<path id="Vector_12" d="M51.7796 50.0812L48.5959 45.3057" stroke="#08526D" stroke-width="1.5" stroke-linecap="round" stroke-linejoin="round" class="id_anim_stroke-property11" data-duration="2.7777777777777777" data-offset="0" style="stroke-dashoffset: 0px; stroke-dasharray: 0px, 5.73945px; animation: 2.77778s linear 0s 1 normal forwards running id_anim_stroke-property11;"></path>
</g>
</g>
</g>
</g>
</g>
<defs>
<linearGradient id="paint0_linear_3518_5500" x1="49.5" y1="70.5" x2="48" y2="47.5" gradientUnits="userSpaceOnUse">
<stop stop-color="#F9B2BD"></stop>
<stop offset="1" stop-color="#F9B2BD" stop-opacity="0"></stop>
</linearGradient>
<clipPath id="clip0_3518_5500">
<rect width="52" height="52" fill="white" transform="translate(14 14)"></rect>
</clipPath>
</defs>
<style>
        @keyframes id_anim_stroke-property7{
        
            0%{
                stroke-dashoffset: 0px; 
        stroke-dasharray: 0px, 331.6712646484375px;
            }
        
            50%{
                stroke-dashoffset: -165.83563232421875px; 
        stroke-dasharray: 165.83563232421875px, 165.83563232421875px;
            }
        
            100%{
                stroke-dashoffset: -331.6712646484375px; 
        stroke-dasharray: 331.6712646484375px, 0px;
            }
        
        }
         
        @keyframes id_anim_stroke-property8{
        
            0%{
                stroke-dashoffset: 0px; 
        stroke-dasharray: 0px, 43.27161407470703px;
            }
        
            50%{
                stroke-dashoffset: -21.635807037353516px; 
        stroke-dasharray: 21.635807037353516px, 21.635807037353516px;
            }
        
            100%{
                stroke-dashoffset: -43.27161407470703px; 
        stroke-dasharray: 43.27161407470703px, 0px;
            }
        
        }
         
        @keyframes id_anim_stroke-property9{
        
            0%{
                stroke-dashoffset: 0px; 
        stroke-dasharray: 0px, 18.889801025390625px;
            }
        
            50%{
                stroke-dashoffset: -9.444900512695312px; 
        stroke-dasharray: 9.444900512695312px, 9.444900512695312px;
            }
        
            100%{
                stroke-dashoffset: -18.889801025390625px; 
        stroke-dasharray: 18.889801025390625px, 0px;
            }
        
        }
         
        @keyframes id_anim_stroke-property10{
        
            0%{
                stroke-dashoffset: 0px; 
        stroke-dasharray: 0px, 5.739456653594971px;
            }
        
            50%{
                stroke-dashoffset: -2.8697283267974854px; 
        stroke-dasharray: 2.8697283267974854px, 2.8697283267974854px;
            }
        
            100%{
                stroke-dashoffset: -5.739456653594971px; 
        stroke-dasharray: 5.739456653594971px, 0px;
            }
        
        }
         
        @keyframes id_anim_stroke-property11{
        
            0%{
                stroke-dashoffset: 0px; 
        stroke-dasharray: 0px, 5.73945426940918px;
            }
        
            50%{
                stroke-dashoffset: -2.86972713470459px; 
        stroke-dasharray: 2.86972713470459px, 2.86972713470459px;
            }
        
            100%{
                stroke-dashoffset: -5.73945426940918px; 
        stroke-dasharray: 5.73945426940918px, 0px;
            }
        
        }
        </style></svg>
