<svg width="80" height="80" viewBox="0 0 80 80" fill="none" xmlns="http://www.w3.org/2000/svg">
<g id="icons/price 1">
<g id="price-1 1" clip-path="url(#clip0_3518_5362)">
<g id="Clip path group">
<mask id="mask0_3518_5362" style="mask-type:luminance" maskUnits="userSpaceOnUse" x="14" y="14" width="52" height="52">
<g id="clip0_2890_124845">
<path id="Vector" d="M65.6026 14.5303H14.6633V65.4689H65.6026V14.5303Z" fill="white"></path>
</g>
</mask>
<g mask="url(#mask0_3518_5362)">
<g id="Group">
<path id="Vector_2" d="M35.8878 32.0405V19.3058C35.8878 16.6683 33.7498 14.5303 31.1123 14.5303H19.4388C16.8014 14.5303 14.6633 16.6683 14.6633 19.3058V32.0405C14.6633 34.6779 16.8014 36.816 19.4388 36.816H31.1123C33.7498 36.816 35.8878 34.6779 35.8878 32.0405Z" fill="#F9B2BD"></path>
<path id="Vector_3" d="M25.4067 31.2061C25.4065 31.2066 25.4058 31.208 25.4048 31.209C25.4038 31.21 25.4025 31.2106 25.4019 31.2109C25.4016 31.2111 25.4008 31.2119 25.3989 31.2119C25.3975 31.2119 25.3964 31.2111 25.396 31.2109C25.3954 31.2107 25.3941 31.21 25.3931 31.209C25.392 31.2079 25.3914 31.2067 25.3911 31.2061C25.391 31.2058 25.3901 31.2052 25.3901 31.2031V30.9727C25.393 30.9727 25.3961 30.9736 25.3989 30.9736C25.4015 30.9736 25.4041 30.9727 25.4067 30.9727V31.2061ZM24.6792 21.5322C24.8363 21.7761 25.0959 21.9464 25.397 21.9854C25.0998 21.9873 24.8092 22.0503 24.5601 22.2119C24.3278 22.3583 24.1525 22.5631 24.0444 22.8164C23.9459 23.0473 23.9009 23.2956 23.9009 23.5527C23.9009 23.8155 23.9491 24.0698 24.0601 24.3018L24.0649 24.3115C24.1882 24.5548 24.3807 24.7523 24.6089 24.9131C24.83 25.069 25.113 25.215 25.4438 25.3535L25.4497 25.3564C25.9893 25.5735 26.4605 25.7998 26.8647 26.0352L26.8677 26.0371C27.2391 26.2497 27.513 26.5022 27.7046 26.7891L27.7085 26.7939C27.8805 27.0442 27.9868 27.3965 27.9868 27.8887C27.9868 28.3575 27.8769 28.7236 27.6812 29.0117L27.6782 29.0146C27.4799 29.3115 27.1976 29.547 26.8101 29.7158C26.6245 29.7955 26.4207 29.856 26.1987 29.8994C26.0145 29.659 25.7252 29.503 25.3989 29.5029C25.073 29.5029 24.7835 29.6585 24.5991 29.8984C24.5039 29.8807 24.4088 29.8601 24.314 29.8359C23.9797 29.7457 23.6763 29.6019 23.4019 29.4023C23.1476 29.2173 22.9391 28.9675 22.7788 28.6406C22.7255 28.5319 22.6795 28.4107 22.6431 28.2773C22.621 28.1961 22.6398 28.1222 22.7056 28.0518C22.7786 27.9737 22.9037 27.9131 23.0474 27.9131H23.2993C23.3561 27.9131 23.4189 27.9339 23.4917 28.002C23.5497 28.0563 23.606 28.1344 23.6519 28.2285L23.6938 28.3281L23.6987 28.3398C23.7968 28.5873 23.9338 28.8092 24.1206 28.9873L24.1274 28.9932L24.1333 28.999C24.3123 29.158 24.5171 29.2769 24.7446 29.3496L24.7476 29.3506C24.9591 29.4165 25.1772 29.4492 25.3989 29.4492C25.7036 29.4492 25.9997 29.3918 26.2563 29.2412C26.4946 29.1014 26.6824 28.9051 26.8052 28.6562H26.8062L26.8081 28.6514C26.9207 28.4169 26.9731 28.1638 26.9731 27.9014C26.9731 27.6133 26.9231 27.3358 26.8003 27.0889H26.8013C26.6784 26.8327 26.483 26.6281 26.2466 26.4668V26.4658C26.0263 26.3158 25.7518 26.1802 25.436 26.0537L25.4321 26.0518L25.0327 25.8906C24.6495 25.729 24.3073 25.5637 24.0044 25.3965C23.6345 25.1884 23.3613 24.9382 23.1704 24.6523C22.9994 24.3962 22.894 24.0395 22.894 23.5459C22.8941 23.1065 23.0006 22.7513 23.1958 22.459L23.1968 22.457C23.399 22.151 23.6808 21.909 24.0571 21.7334C24.2459 21.6463 24.4529 21.5781 24.6792 21.5322ZM26.5229 21.6357C26.8411 21.7499 27.1046 21.9101 27.3208 22.1133L27.3237 22.1162C27.539 22.3153 27.7082 22.5638 27.8286 22.8711V22.873C27.8565 22.9436 27.8821 23.0172 27.9038 23.0938C27.9264 23.1739 27.9083 23.2454 27.8442 23.3145C27.7727 23.3914 27.6491 23.4521 27.5054 23.4521H27.1528C27.1196 23.4521 27.0797 23.4408 27.0317 23.3955C26.9929 23.3588 26.9554 23.3045 26.9272 23.2383L26.9028 23.1689C26.8378 22.9348 26.7362 22.7174 26.5854 22.5342H26.5864C26.4432 22.3558 26.2662 22.2143 26.0571 22.1201H26.0581C25.9037 22.0491 25.7405 22.0077 25.5728 21.9922C25.8888 21.9781 26.1663 21.8198 26.3413 21.5801L26.5229 21.6357ZM25.5308 20.1348C25.5314 20.1351 25.5317 20.1367 25.5327 20.1377C25.5336 20.1386 25.5343 20.139 25.5347 20.1396C25.5348 20.1399 25.5356 20.1409 25.5356 20.1426V20.4648C25.5301 20.4647 25.5246 20.4649 25.519 20.4648V20.1396C25.5193 20.139 25.5199 20.1378 25.521 20.1367C25.5221 20.1357 25.5233 20.135 25.5239 20.1348H25.5308Z" stroke="#08526D" class="id_anim_stroke-property2" data-duration="2.7777777777777777" data-offset="0" style="stroke-dashoffset: 0px; stroke-dasharray: 0px, 40.4248px; animation: 2.77778s linear 0s 1 normal forwards running id_anim_stroke-property2;"></path>
<path id="Vector_4" d="M29.9173 32.04H63.8787C64.4642 32.04 64.9388 32.4879 64.9388 33.0404V62.8764C64.9388 63.4289 64.4642 63.8768 63.8787 63.8768H29.9173C29.3318 63.8768 28.8572 63.4289 28.8572 62.8764V33.0404C28.8572 32.4879 29.3318 32.04 29.9173 32.04Z" fill="url(#paint0_linear_3518_5362)"></path>
<path id="Vector_5" d="M50.5 36.25C50.5 35.5596 49.9404 35 49.25 35C48.5596 35 48 35.5596 48 36.25C48 36.9404 48.5596 37.5 49.25 37.5C49.9404 37.5 50.5 36.9404 50.5 36.25Z" fill="#08526D"></path>
<path id="Vector_6" d="M61.5 36.25C61.5 35.5596 60.9404 35 60.25 35C59.5596 35 59 35.5596 59 36.25C59 36.9404 59.5596 37.5 60.25 37.5C60.9404 37.5 61.5 36.9404 61.5 36.25Z" fill="#08526D"></path>
<path id="Vector_7" d="M56.5 36.25C56.5 35.5596 55.9404 35 55.25 35C54.5596 35 54 35.5596 54 36.25C54 36.9404 54.5596 37.5 55.25 37.5C55.9404 37.5 56.5 36.9404 56.5 36.25Z" fill="#08526D"></path>
<path id="Vector_8" d="M31.6047 31.9512H61.3567C63.2868 31.9512 64.8518 33.5162 64.8518 35.4463V61.2246C64.8516 63.1546 63.2867 64.7188 61.3567 64.7188H31.6047C29.6746 64.7188 28.1099 63.1547 28.1096 61.2246V35.4463C28.1096 33.5161 29.6745 31.9512 31.6047 31.9512ZM63.4778 39.9863L29.4797 40.0859L28.7317 40.0889V61.2246C28.7319 62.8108 30.0184 64.0967 31.6047 64.0967H61.3567C62.943 64.0967 64.2295 62.8108 64.2297 61.2246V39.9834L63.4778 39.9863ZM31.6047 32.5732C30.0183 32.5732 28.7317 33.86 28.7317 35.4463V39.4658L29.4846 39.4639L63.4817 39.3633L64.2297 39.3613V35.4463C64.2297 33.86 62.9432 32.5732 61.3567 32.5732H31.6047Z" stroke="#08526D" stroke-width="1.5" class="id_anim_stroke-property7" data-duration="2.7777777777777777" data-offset="0" style="stroke-dashoffset: 0px; stroke-dasharray: 0px, 331.886px; animation: 2.77778s linear 0s 1 normal forwards running id_anim_stroke-property7;"></path>
</g>
</g>
</g>
</g>
</g>
<defs>
<linearGradient id="paint0_linear_3518_5362" x1="47" y1="72" x2="47" y2="44.5" gradientUnits="userSpaceOnUse">
<stop stop-color="#F9B2BD"></stop>
<stop offset="1" stop-color="#F9B2BD" stop-opacity="0"></stop>
</linearGradient>
<clipPath id="clip0_3518_5362">
<rect width="52" height="52" fill="white" transform="translate(14 14)"></rect>
</clipPath>
</defs>
<style>
        @keyframes id_anim_stroke-property2{
        
            0%{
                stroke-dashoffset: 0px; 
        stroke-dasharray: 0px, 40.42484664916992px;
            }
        
            50%{
                stroke-dashoffset: -20.21242332458496px; 
        stroke-dasharray: 20.21242332458496px, 20.21242332458496px;
            }
        
            100%{
                stroke-dashoffset: -40.42484664916992px; 
        stroke-dasharray: 40.42484664916992px, 0px;
            }
        
        }
         
        @keyframes id_anim_stroke-property7{
        
            0%{
                stroke-dashoffset: 0px; 
        stroke-dasharray: 0px, 331.8863830566406px;
            }
        
            50%{
                stroke-dashoffset: -165.9431915283203px; 
        stroke-dasharray: 165.9431915283203px, 165.9431915283203px;
            }
        
            100%{
                stroke-dashoffset: -331.8863830566406px; 
        stroke-dasharray: 331.8863830566406px, 0px;
            }
        
        }
        </style></svg>
