<svg width="80" height="80" viewBox="0 0 80 80" fill="none" xmlns="http://www.w3.org/2000/svg">
<g id="icons/price 4">
<g id="large 1" clip-path="url(#clip0_3518_5501)">
<g id="Group">
<g id="Group_2">
<path id="Vector" d="M55.3878 46.1547V28.0078H42.9715V41.0609H30.5552V64.9384H42.9715H55.3878H64.9389V46.1547H55.3878Z" fill="url(#paint0_linear_3518_5501)"></path>
<g id="Group_3">
<path id="Vector_2" d="M41.4857 30.449V18.7755C41.4857 16.1224 39.3633 14 36.7102 14H18.6694C16.1224 14 14 16.1224 14 18.7755V30.449C14 32.9959 16.1224 35.2245 18.7755 35.2245H36.8163C39.3633 35.2245 41.4857 32.9959 41.4857 30.449Z" fill="#F9B2BD"></path>
<path id="Vector_3" d="M20.898 18.3506C21.1102 18.3506 21.4286 18.4567 21.4286 18.7751V19.5179C21.4286 19.8363 21.2163 20.0485 20.898 20.0485C20.5796 20.0485 20.3674 19.8363 20.3674 19.5179V18.7751C20.4735 18.5628 20.6857 18.3506 20.898 18.3506ZM20.7919 28.1139C21.0041 28.1139 21.2163 28.3261 21.2163 28.5383V29.1751C21.2163 29.4934 21.0041 29.7057 20.6857 29.7057C20.3674 29.7057 20.1551 29.4934 20.1551 29.1751V28.5383C20.2612 28.3261 20.4735 28.1139 20.7919 28.1139ZM21.8531 26.0975C21.8531 25.8853 21.8531 25.673 21.747 25.5669C21.6408 25.3547 21.5347 25.2485 21.4286 25.1424C21.2163 25.0363 21.0041 24.9302 20.7919 24.8241C20.1551 24.6118 19.7306 24.3996 19.3061 24.1873C18.8816 23.9751 18.5633 23.6567 18.351 23.3383C18.0327 22.9139 17.9265 22.4894 18.0327 22.0649C18.0327 21.6404 18.1388 21.1098 18.351 20.7914C18.5633 20.3669 18.9878 20.1547 19.4123 19.9424C19.8367 19.7302 20.3674 19.6241 20.898 19.6241C21.3225 19.6241 21.747 19.7302 22.0653 19.8363C22.3837 19.9424 22.7021 20.1547 22.9143 20.3669C23.1265 20.5792 23.3388 20.8975 23.551 21.2159C23.551 21.322 23.551 21.322 23.551 21.4281C23.6572 21.8526 23.3388 22.2771 22.9143 22.3832C22.8082 22.3832 22.8082 22.3832 22.7021 22.3832H22.4898C22.1714 22.3832 21.8531 22.0649 21.8531 21.7465C21.747 21.6404 21.6408 21.5343 21.5347 21.4281C21.4286 21.322 21.3225 21.2159 21.2163 21.1098C21.1102 21.1098 20.898 21.1098 20.7919 21.1098C20.5796 21.1098 20.3674 21.1098 20.2612 21.2159C20.049 21.322 19.9429 21.4281 19.9429 21.5343C19.8367 21.7465 19.8367 21.9587 19.8367 22.0649C19.8367 22.2771 19.8367 22.3832 19.9429 22.5955C20.049 22.7016 20.1551 22.9139 20.2612 23.02C20.4735 23.1261 20.6857 23.3383 21.0041 23.3383C21.4286 23.5506 21.9592 23.7628 22.3837 23.9751C22.8082 24.1873 23.1265 24.5057 23.3388 24.8241C23.551 25.2485 23.6572 25.673 23.6572 26.2036C23.6572 27.1587 23.1265 28.0077 22.2776 28.3261C21.747 28.5383 21.3225 28.6445 20.7919 28.6445C20.3674 28.6445 20.049 28.6445 19.6245 28.5383C19.2 28.4322 18.8816 28.3261 18.5633 28.0077C18.2449 27.7955 18.0327 27.4771 17.8204 27.1587C17.7143 27.0526 17.7143 26.8404 17.7143 26.7343C17.6082 26.2036 17.8204 25.7792 18.2449 25.673C18.351 25.673 18.4572 25.673 18.5633 25.673H18.7755C19.2 25.673 19.5184 25.9914 19.6245 26.4159C19.7306 26.6281 19.8367 26.7343 19.9429 26.8404C20.049 26.9465 20.1551 27.0526 20.3674 27.0526C20.4735 27.0526 20.6857 27.1587 20.7919 27.1587C21.0041 27.1587 21.2163 27.1587 21.3225 27.0526C21.4286 26.9465 21.6408 26.7343 21.6408 26.6281C21.747 26.522 21.747 26.3098 21.8531 26.0975Z" fill="#08526D"></path>
<path id="Vector_4" d="M28.0081 18.3506C28.2203 18.3506 28.4326 18.5628 28.4326 18.7751V19.5179C28.4326 19.8363 28.2203 20.0485 27.902 20.0485C27.5836 20.0485 27.3713 19.8363 27.3713 19.5179V18.7751C27.4775 18.5628 27.6897 18.3506 28.0081 18.3506ZM27.902 28.1139C28.1142 28.1139 28.3264 28.3261 28.3264 28.5383V29.1751C28.3264 29.4934 28.1142 29.7057 27.7958 29.7057C27.4775 29.7057 27.2652 29.4934 27.2652 29.1751V28.5383C27.3713 28.3261 27.5836 28.1139 27.902 28.1139ZM28.9632 26.0975C28.9632 25.8853 28.9632 25.673 28.8571 25.5669C28.7509 25.3547 28.6448 25.2485 28.5387 25.1424C28.3264 25.0363 28.1142 24.9302 27.902 24.8241C27.3713 24.6118 26.9469 24.3996 26.5224 24.1873C26.0979 23.9751 25.7795 23.6567 25.5673 23.3383C25.355 22.9139 25.2489 22.4894 25.2489 22.0649C25.2489 21.6404 25.355 21.1098 25.5673 20.7914C25.7795 20.3669 26.204 20.1547 26.6285 19.9424C27.053 19.7302 27.5836 19.6241 28.1142 19.6241C28.5387 19.6241 28.9632 19.7302 29.2815 19.8363C29.5999 19.9424 29.9183 20.1547 30.2367 20.3669C30.4489 20.5792 30.6611 20.8975 30.8734 21.2159C30.8734 21.322 30.8734 21.4281 30.9795 21.4281C31.0856 21.8526 30.7673 22.2771 30.3428 22.3832C30.2367 22.3832 30.2367 22.3832 30.1305 22.3832H29.8122C29.2815 22.4894 28.8571 22.171 28.8571 21.7465C28.8571 21.6404 28.7509 21.4281 28.6448 21.322C28.5387 21.2159 28.4326 21.1098 28.3264 21.1098C28.2203 21.0036 28.0081 21.0036 27.902 21.0036C27.6897 21.0036 27.4775 21.0036 27.3713 21.1098C27.2652 21.2159 27.1591 21.322 27.053 21.4281C26.9469 21.6404 26.9469 21.7465 26.9469 21.9587C26.9469 22.171 26.9469 22.2771 27.053 22.4894C27.1591 22.5955 27.2652 22.8077 27.3713 22.9139C27.5836 23.02 27.7958 23.2322 28.1142 23.2322C28.6448 23.4445 29.0693 23.6567 29.4938 23.869C29.9183 24.0812 30.2367 24.3996 30.4489 24.7179C30.6611 25.1424 30.7673 25.5669 30.7673 25.9914C30.7673 26.9465 30.2367 27.7955 29.3877 28.1139C28.8571 28.3261 28.4326 28.4322 27.902 28.4322C27.4775 28.4322 27.1591 28.4322 26.7346 28.3261C26.3101 28.22 25.9918 28.1139 25.6734 27.7955C25.355 27.5832 25.1428 27.2649 24.9305 26.9465C24.8244 26.8404 24.8244 26.6281 24.8244 26.522C24.7183 26.0975 24.9305 25.673 25.355 25.5669C25.4611 25.5669 25.5673 25.5669 25.6734 25.5669H25.8856C26.3101 25.5669 26.6285 25.8853 26.7346 26.3098C26.8407 26.522 26.9469 26.6281 27.053 26.7343C27.1591 26.8404 27.2652 26.9465 27.4775 26.9465C27.5836 26.9465 27.7958 27.0526 27.902 27.0526C28.1142 27.0526 28.3264 27.0526 28.4326 26.9465C28.5387 26.8404 28.6448 26.7343 28.7509 26.6281C28.8571 26.522 28.8571 26.3098 28.9632 26.0975Z" fill="#08526D"></path>
<path id="Vector_5" d="M35.1183 18.3506C35.3305 18.3506 35.5428 18.5628 35.5428 18.7751V19.5179C35.5428 19.8363 35.3305 20.0485 35.0122 20.0485C34.6938 20.0485 34.4816 19.8363 34.4816 19.5179V18.7751C34.6938 18.5628 34.9061 18.3506 35.1183 18.3506ZM35.0122 28.1139C35.2244 28.1139 35.4367 28.3261 35.4367 28.5383V29.1751C35.4367 29.4934 35.2244 29.7057 34.9061 29.7057C34.5877 29.7057 34.3754 29.4934 34.3754 29.1751V28.5383C34.4816 28.3261 34.6938 28.1139 35.0122 28.1139ZM36.0734 26.0975C36.0734 25.8853 36.0734 25.673 35.9673 25.5669C35.8612 25.3547 35.755 25.2485 35.6489 25.1424C35.4367 25.0363 35.2244 24.9302 35.0122 24.8241C34.4816 24.6118 34.0571 24.3996 33.6326 24.1873C33.2081 23.9751 32.8897 23.6567 32.6775 23.3383C32.4652 22.9139 32.3591 22.4894 32.3591 22.0649C32.3591 21.6404 32.4652 21.1098 32.6775 20.7914C32.8897 20.3669 33.3142 20.1547 33.7387 19.9424C34.1632 19.7302 34.6938 19.6241 35.2244 19.6241C35.6489 19.6241 35.9673 19.6241 36.2857 19.7302C36.604 19.8363 36.9224 20.0485 37.2408 20.2608C37.453 20.473 37.6652 20.7914 37.8775 21.1098C37.8775 21.2159 37.8775 21.322 37.9836 21.322C38.0897 21.7465 37.7714 22.171 37.3469 22.2771C37.2408 22.2771 37.2408 22.2771 37.1346 22.2771H36.8163C36.4979 22.2771 36.1795 21.9587 36.1795 21.6404C36.1795 21.5343 36.0734 21.322 35.9673 21.2159C35.8612 21.1098 35.755 21.0036 35.6489 21.0036C35.5428 20.8975 35.3305 20.8975 35.2244 20.8975C35.0122 20.8975 34.7999 20.8975 34.6938 21.0036C34.2693 21.2159 34.1632 21.322 34.1632 21.5343C34.0571 21.7465 34.0571 21.8526 34.0571 22.0649C34.0571 22.2771 34.0571 22.3832 34.1632 22.5955C34.2693 22.7016 34.3754 22.9139 34.4816 23.02C34.6938 23.1261 34.9061 23.3383 35.2244 23.3383C35.755 23.5506 36.1795 23.7628 36.604 23.9751C37.0285 24.1873 37.3469 24.5057 37.5591 24.8241C37.7714 25.2485 37.8775 25.673 37.8775 26.0975C37.8775 27.0526 37.3469 27.9016 36.4979 28.22C35.9673 28.4322 35.5428 28.5383 35.0122 28.5383C34.5877 28.5383 34.2693 28.5383 33.8448 28.4322C33.4203 28.3261 33.102 28.22 32.7836 27.9016C32.4652 27.6894 32.253 27.371 32.0408 27.0526C31.9346 26.9465 31.9346 26.7343 31.9346 26.6281C31.8285 26.2036 32.1469 25.7792 32.5714 25.673C32.6775 25.673 32.6775 25.673 32.7836 25.673H33.102C33.5265 25.673 33.8448 25.9914 33.951 26.4159C34.0571 26.6281 34.1632 26.7343 34.2693 26.8404C34.3754 26.9465 34.4816 27.0526 34.6938 27.0526C34.7999 27.0526 35.0122 27.1587 35.1183 27.1587C35.3305 27.1587 35.5428 27.1587 35.6489 27.0526C35.755 26.9465 35.8612 26.8404 35.9673 26.7343C35.9673 26.4159 36.0734 26.3098 36.0734 26.0975Z" fill="#08526D"></path>
</g>
<path id="Vector_6" d="M63.9387 46.1553H56.3877C55.8354 46.1553 55.3877 46.603 55.3877 47.1553V63.9389C55.3877 64.4912 55.8354 64.9389 56.3877 64.9389H63.9387C64.491 64.9389 64.9387 64.4912 64.9387 63.9389V47.1553C64.9387 46.603 64.491 46.1553 63.9387 46.1553Z" stroke="#08526D" stroke-width="1.5" stroke-miterlimit="10" class="id_anim_stroke-property5" data-duration="2.7777777777777777" data-offset="0" style="stroke-dashoffset: 0px; stroke-dasharray: 0px, 54.9533px; animation: 2.77778s linear 0s 1 normal forwards running id_anim_stroke-property5;"></path>
<path id="Vector_7" d="M54.3878 28.0078H43.9714C43.4192 28.0078 42.9714 28.4555 42.9714 29.0078V64.0445C42.9714 64.5968 43.4192 65.0445 43.9714 65.0445H54.3878C54.94 65.0445 55.3878 64.5968 55.3878 64.0445V29.0078C55.3878 28.4555 54.94 28.0078 54.3878 28.0078Z" stroke="#08526D" stroke-width="1.5" stroke-miterlimit="10" class="id_anim_stroke-property6" data-duration="2.7777777777777777" data-offset="0" style="stroke-dashoffset: 0px; stroke-dasharray: 0px, 97.1902px; animation: 2.77778s linear 0s 1 normal forwards running id_anim_stroke-property6;"></path>
<path id="Vector_8" d="M41.9715 41.0615H31.5552C31.0029 41.0615 30.5552 41.5092 30.5552 42.0615V63.9391C30.5552 64.4914 31.0029 64.9391 31.5552 64.9391H41.9715C42.5238 64.9391 42.9715 64.4914 42.9715 63.9391V42.0615C42.9715 41.5092 42.5238 41.0615 41.9715 41.0615Z" stroke="#08526D" stroke-width="1.5" stroke-miterlimit="10" class="id_anim_stroke-property7" data-duration="2.7777777777777777" data-offset="0" style="stroke-dashoffset: 0px; stroke-dasharray: 0px, 70.8719px; animation: 2.77778s linear 0s 1 normal forwards running id_anim_stroke-property7;"></path>
<path id="Vector_9" d="M50.9918 24.8242H47.4734C46.9211 24.8242 46.4734 25.2719 46.4734 25.8242V26.9018C46.4734 27.4541 46.9211 27.9018 47.4734 27.9018H50.9918C51.544 27.9018 51.9918 27.4541 51.9918 26.9018V25.8242C51.9918 25.2719 51.544 24.8242 50.9918 24.8242Z" stroke="#08526D" stroke-width="1.5" stroke-miterlimit="10" class="id_anim_stroke-property8" data-duration="2.7777777777777777" data-offset="0" style="stroke-dashoffset: 0px; stroke-dasharray: 0px, 15.4761px; animation: 2.77778s linear 0s 1 normal forwards running id_anim_stroke-property8;"></path>
<path id="Vector_10" d="M38.4693 37.9834H34.9509C34.3986 37.9834 33.9509 38.4311 33.9509 38.9834V40.0609C33.9509 40.6132 34.3986 41.0609 34.9509 41.0609H38.4693C39.0216 41.0609 39.4693 40.6132 39.4693 40.0609V38.9834C39.4693 38.4311 39.0216 37.9834 38.4693 37.9834Z" stroke="#08526D" stroke-width="1.5" stroke-miterlimit="10" class="id_anim_stroke-property9" data-duration="2.7777777777777777" data-offset="0" style="stroke-dashoffset: 0px; stroke-dasharray: 0px, 15.4759px; animation: 2.77778s linear 0s 1 normal forwards running id_anim_stroke-property9;"></path>
<path id="Vector_11" d="M58.6775 58.3594H61.755" stroke="#08526D" stroke-width="1.5" stroke-miterlimit="10" stroke-linecap="round" class="id_anim_stroke-property10" data-duration="2.7777777777777777" data-offset="0" style="stroke-dashoffset: 0px; stroke-dasharray: 0px, 3.0775px; animation: 2.77778s linear 0s 1 normal forwards running id_anim_stroke-property10;"></path>
<path id="Vector_12" d="M58.6775 52.6289H61.755" stroke="#08526D" stroke-width="1.5" stroke-miterlimit="10" stroke-linecap="round" class="id_anim_stroke-property11" data-duration="2.7777777777777777" data-offset="0" style="stroke-dashoffset: 0px; stroke-dasharray: 0px, 3.0775px; animation: 2.77778s linear 0s 1 normal forwards running id_anim_stroke-property11;"></path>
<path id="Vector_13" d="M46.4734 58.3594H51.8856" stroke="#08526D" stroke-width="1.5" stroke-miterlimit="10" stroke-linecap="round" class="id_anim_stroke-property12" data-duration="2.7777777777777777" data-offset="0" style="stroke-dashoffset: 0px; stroke-dasharray: 0px, 5.4122px; animation: 2.77778s linear 0s 1 normal forwards running id_anim_stroke-property12;"></path>
<path id="Vector_14" d="M46.4734 52.6289H51.8856" stroke="#08526D" stroke-width="1.5" stroke-miterlimit="10" stroke-linecap="round" class="id_anim_stroke-property13" data-duration="2.7777777777777777" data-offset="0" style="stroke-dashoffset: 0px; stroke-dasharray: 0px, 5.4122px; animation: 2.77778s linear 0s 1 normal forwards running id_anim_stroke-property13;"></path>
<path id="Vector_15" d="M46.4734 46.8984H51.8856" stroke="#08526D" stroke-width="1.5" stroke-miterlimit="10" stroke-linecap="round" class="id_anim_stroke-property14" data-duration="2.7777777777777777" data-offset="0" style="stroke-dashoffset: 0px; stroke-dasharray: 0px, 5.4122px; animation: 2.77778s linear 0s 1 normal forwards running id_anim_stroke-property14;"></path>
<path id="Vector_16" d="M34.0571 58.3594H39.4694" stroke="#08526D" stroke-width="1.5" stroke-miterlimit="10" stroke-linecap="round" class="id_anim_stroke-property15" data-duration="2.7777777777777777" data-offset="0" style="stroke-dashoffset: 0px; stroke-dasharray: 0px, 5.4123px; animation: 2.77778s linear 0s 1 normal forwards running id_anim_stroke-property15;"></path>
<path id="Vector_17" d="M34.0571 52.6289H39.4694" stroke="#08526D" stroke-width="1.5" stroke-miterlimit="10" stroke-linecap="round" class="id_anim_stroke-property16" data-duration="2.7777777777777777" data-offset="0" style="stroke-dashoffset: 0px; stroke-dasharray: 0px, 5.4123px; animation: 2.77778s linear 0s 1 normal forwards running id_anim_stroke-property16;"></path>
<path id="Vector_18" d="M34.0571 46.8984H39.4694" stroke="#08526D" stroke-width="1.5" stroke-miterlimit="10" stroke-linecap="round" class="id_anim_stroke-property17" data-duration="2.7777777777777777" data-offset="0" style="stroke-dashoffset: 0px; stroke-dasharray: 0px, 5.4123px; animation: 2.77778s linear 0s 1 normal forwards running id_anim_stroke-property17;"></path>
<path id="Vector_19" d="M46.4734 41.0615H51.8856" stroke="#08526D" stroke-width="1.5" stroke-miterlimit="10" stroke-linecap="round" class="id_anim_stroke-property18" data-duration="2.7777777777777777" data-offset="0" style="stroke-dashoffset: 0px; stroke-dasharray: 0px, 5.4122px; animation: 2.77778s linear 0s 1 normal forwards running id_anim_stroke-property18;"></path>
<path id="Vector_20" d="M46.4734 35.3311H51.8856" stroke="#08526D" stroke-width="1.5" stroke-miterlimit="10" stroke-linecap="round" class="id_anim_stroke-property19" data-duration="2.7777777777777777" data-offset="0" style="stroke-dashoffset: 0px; stroke-dasharray: 0px, 5.4122px; animation: 2.77778s linear 0s 1 normal forwards running id_anim_stroke-property19;"></path>
</g>
</g>
</g>
</g>
<defs>
<linearGradient id="paint0_linear_3518_5501" x1="48.0001" y1="70.5" x2="48.0001" y2="48" gradientUnits="userSpaceOnUse">
<stop stop-color="#F9B2BD"></stop>
<stop offset="1" stop-color="#F9B2BD" stop-opacity="0.02"></stop>
</linearGradient>
<clipPath id="clip0_3518_5501">
<rect width="52" height="52" fill="white" transform="translate(14 14)"></rect>
</clipPath>
</defs>
<style>
        @keyframes id_anim_stroke-property5{
        
            0%{
                stroke-dashoffset: 0px; 
        stroke-dasharray: 0px, 54.953330993652344px;
            }
        
            50%{
                stroke-dashoffset: -27.476665496826172px; 
        stroke-dasharray: 27.476665496826172px, 27.476665496826172px;
            }
        
            100%{
                stroke-dashoffset: -54.953330993652344px; 
        stroke-dasharray: 54.953330993652344px, 0px;
            }
        
        }
         
        @keyframes id_anim_stroke-property6{
        
            0%{
                stroke-dashoffset: 0px; 
        stroke-dasharray: 0px, 97.19024658203125px;
            }
        
            50%{
                stroke-dashoffset: -48.595123291015625px; 
        stroke-dasharray: 48.595123291015625px, 48.595123291015625px;
            }
        
            100%{
                stroke-dashoffset: -97.19024658203125px; 
        stroke-dasharray: 97.19024658203125px, 0px;
            }
        
        }
         
        @keyframes id_anim_stroke-property7{
        
            0%{
                stroke-dashoffset: 0px; 
        stroke-dasharray: 0px, 70.87194061279297px;
            }
        
            50%{
                stroke-dashoffset: -35.435970306396484px; 
        stroke-dasharray: 35.435970306396484px, 35.435970306396484px;
            }
        
            100%{
                stroke-dashoffset: -70.87194061279297px; 
        stroke-dasharray: 70.87194061279297px, 0px;
            }
        
        }
         
        @keyframes id_anim_stroke-property8{
        
            0%{
                stroke-dashoffset: 0px; 
        stroke-dasharray: 0px, 15.476090431213379px;
            }
        
            50%{
                stroke-dashoffset: -7.7380452156066895px; 
        stroke-dasharray: 7.7380452156066895px, 7.7380452156066895px;
            }
        
            100%{
                stroke-dashoffset: -15.476090431213379px; 
        stroke-dasharray: 15.476090431213379px, 0px;
            }
        
        }
         
        @keyframes id_anim_stroke-property9{
        
            0%{
                stroke-dashoffset: 0px; 
        stroke-dasharray: 0px, 15.475942611694336px;
            }
        
            50%{
                stroke-dashoffset: -7.737971305847168px; 
        stroke-dasharray: 7.737971305847168px, 7.737971305847168px;
            }
        
            100%{
                stroke-dashoffset: -15.475942611694336px; 
        stroke-dasharray: 15.475942611694336px, 0px;
            }
        
        }
         
        @keyframes id_anim_stroke-property10{
        
            0%{
                stroke-dashoffset: 0px; 
        stroke-dasharray: 0px, 3.0774993896484375px;
            }
        
            50%{
                stroke-dashoffset: -1.5387496948242188px; 
        stroke-dasharray: 1.5387496948242188px, 1.5387496948242188px;
            }
        
            100%{
                stroke-dashoffset: -3.0774993896484375px; 
        stroke-dasharray: 3.0774993896484375px, 0px;
            }
        
        }
         
        @keyframes id_anim_stroke-property11{
        
            0%{
                stroke-dashoffset: 0px; 
        stroke-dasharray: 0px, 3.0774993896484375px;
            }
        
            50%{
                stroke-dashoffset: -1.5387496948242188px; 
        stroke-dasharray: 1.5387496948242188px, 1.5387496948242188px;
            }
        
            100%{
                stroke-dashoffset: -3.0774993896484375px; 
        stroke-dasharray: 3.0774993896484375px, 0px;
            }
        
        }
         
        @keyframes id_anim_stroke-property12{
        
            0%{
                stroke-dashoffset: 0px; 
        stroke-dasharray: 0px, 5.412200927734375px;
            }
        
            50%{
                stroke-dashoffset: -2.7061004638671875px; 
        stroke-dasharray: 2.7061004638671875px, 2.7061004638671875px;
            }
        
            100%{
                stroke-dashoffset: -5.412200927734375px; 
        stroke-dasharray: 5.412200927734375px, 0px;
            }
        
        }
         
        @keyframes id_anim_stroke-property13{
        
            0%{
                stroke-dashoffset: 0px; 
        stroke-dasharray: 0px, 5.412200927734375px;
            }
        
            50%{
                stroke-dashoffset: -2.7061004638671875px; 
        stroke-dasharray: 2.7061004638671875px, 2.7061004638671875px;
            }
        
            100%{
                stroke-dashoffset: -5.412200927734375px; 
        stroke-dasharray: 5.412200927734375px, 0px;
            }
        
        }
         
        @keyframes id_anim_stroke-property14{
        
            0%{
                stroke-dashoffset: 0px; 
        stroke-dasharray: 0px, 5.412200927734375px;
            }
        
            50%{
                stroke-dashoffset: -2.7061004638671875px; 
        stroke-dasharray: 2.7061004638671875px, 2.7061004638671875px;
            }
        
            100%{
                stroke-dashoffset: -5.412200927734375px; 
        stroke-dasharray: 5.412200927734375px, 0px;
            }
        
        }
         
        @keyframes id_anim_stroke-property15{
        
            0%{
                stroke-dashoffset: 0px; 
        stroke-dasharray: 0px, 5.412300109863281px;
            }
        
            50%{
                stroke-dashoffset: -2.7061500549316406px; 
        stroke-dasharray: 2.7061500549316406px, 2.7061500549316406px;
            }
        
            100%{
                stroke-dashoffset: -5.412300109863281px; 
        stroke-dasharray: 5.412300109863281px, 0px;
            }
        
        }
         
        @keyframes id_anim_stroke-property16{
        
            0%{
                stroke-dashoffset: 0px; 
        stroke-dasharray: 0px, 5.412300109863281px;
            }
        
            50%{
                stroke-dashoffset: -2.7061500549316406px; 
        stroke-dasharray: 2.7061500549316406px, 2.7061500549316406px;
            }
        
            100%{
                stroke-dashoffset: -5.412300109863281px; 
        stroke-dasharray: 5.412300109863281px, 0px;
            }
        
        }
         
        @keyframes id_anim_stroke-property17{
        
            0%{
                stroke-dashoffset: 0px; 
        stroke-dasharray: 0px, 5.412300109863281px;
            }
        
            50%{
                stroke-dashoffset: -2.7061500549316406px; 
        stroke-dasharray: 2.7061500549316406px, 2.7061500549316406px;
            }
        
            100%{
                stroke-dashoffset: -5.412300109863281px; 
        stroke-dasharray: 5.412300109863281px, 0px;
            }
        
        }
         
        @keyframes id_anim_stroke-property18{
        
            0%{
                stroke-dashoffset: 0px; 
        stroke-dasharray: 0px, 5.412200927734375px;
            }
        
            50%{
                stroke-dashoffset: -2.7061004638671875px; 
        stroke-dasharray: 2.7061004638671875px, 2.7061004638671875px;
            }
        
            100%{
                stroke-dashoffset: -5.412200927734375px; 
        stroke-dasharray: 5.412200927734375px, 0px;
            }
        
        }
         
        @keyframes id_anim_stroke-property19{
        
            0%{
                stroke-dashoffset: 0px; 
        stroke-dasharray: 0px, 5.412200927734375px;
            }
        
            50%{
                stroke-dashoffset: -2.7061004638671875px; 
        stroke-dasharray: 2.7061004638671875px, 2.7061004638671875px;
            }
        
            100%{
                stroke-dashoffset: -5.412200927734375px; 
        stroke-dasharray: 5.412200927734375px, 0px;
            }
        
        }
        </style></svg>
