<svg width="80" height="80" viewBox="0 0 80 80" fill="none" xmlns="http://www.w3.org/2000/svg">
<g id="icons/price 2">
<g id="price-automation 1" clip-path="url(#clip0_3518_5499)">
<path id="Vector" d="M45.9747 32.0405V19.3058C45.9747 18.0393 45.4716 16.8246 44.576 15.929C43.6804 15.0334 42.4657 14.5303 41.1992 14.5303H18.9135C18.2859 14.5289 17.6643 14.6515 17.0843 14.8909C16.5043 15.1304 15.9773 15.4822 15.5335 15.9259C15.0898 16.3696 14.7381 16.8966 14.4986 17.4766C14.2591 18.0567 14.1366 18.6783 14.138 19.3058V32.0405C14.1366 32.668 14.2591 33.2896 14.4986 33.8697C14.7381 34.4497 15.0898 34.9767 15.5335 35.4204C15.9773 35.8641 16.5043 36.2158 17.0843 36.4553C17.6643 36.6948 18.2859 36.8174 18.9135 36.816H41.1992C42.4657 36.816 43.6804 36.3129 44.576 35.4173C45.4716 34.5217 45.9747 33.307 45.9747 32.0405Z" fill="#F9B2BD"></path>
<path id="Vector_2" d="M22.7656 19.6035C22.9007 19.6035 23.0303 19.6572 23.1258 19.7527C23.2213 19.8482 23.275 19.9778 23.275 20.1129V20.9619C23.2643 21.0895 23.206 21.2084 23.1116 21.2949C23.0172 21.3815 22.8937 21.4293 22.7656 21.4288C22.6314 21.4261 22.5034 21.3716 22.4084 21.2766C22.3135 21.1817 22.259 21.0537 22.2562 20.9194V20.0705C22.2692 19.9437 22.3283 19.8262 22.4222 19.7401C22.516 19.6541 22.6383 19.6055 22.7656 19.6035ZM22.6383 29.9717C22.7734 29.9717 22.9029 30.0253 22.9985 30.1209C23.094 30.2164 23.1477 30.346 23.1477 30.4811V31.1709C23.1491 31.2382 23.1369 31.305 23.1118 31.3675C23.0868 31.43 23.0493 31.4867 23.0017 31.5343C22.9541 31.5819 22.8974 31.6193 22.8349 31.6444C22.7725 31.6695 22.7056 31.6817 22.6383 31.6802C22.5032 31.6802 22.3736 31.6266 22.2781 31.5311C22.1826 31.4355 22.1289 31.306 22.1289 31.1709V30.4811C22.1316 30.3468 22.1861 30.2188 22.2811 30.1239C22.376 30.0289 22.504 29.9744 22.6383 29.9717ZM23.6995 27.8492C23.6961 27.6491 23.6452 27.4527 23.5509 27.2762C23.4589 27.1032 23.3236 26.9569 23.1583 26.8517C22.9506 26.7052 22.7262 26.584 22.4897 26.4909C21.9788 26.2964 21.4823 26.0659 21.004 25.8011C20.6012 25.5845 20.2557 25.2753 19.9958 24.899C19.7447 24.4955 19.6191 24.0264 19.635 23.5513C19.6218 23.0669 19.7549 22.5898 20.0171 22.1823C20.2805 21.7892 20.6479 21.477 21.0783 21.2803C21.5791 21.0587 22.1226 20.95 22.6701 20.9619C23.0957 20.9606 23.5187 21.0287 23.9224 21.1635C24.2847 21.2935 24.6168 21.4957 24.8987 21.7578C25.2623 22.0657 25.5309 22.4705 25.6734 22.9251C25.7024 23.051 25.7012 23.182 25.6699 23.3073C25.6385 23.4326 25.5779 23.5487 25.4929 23.6461C25.408 23.7434 25.3012 23.8193 25.1813 23.8673C25.0614 23.9154 24.9318 23.9344 24.8032 23.9227H24.3893C24.2145 23.9093 24.049 23.8386 23.9186 23.7216C23.7881 23.6045 23.6999 23.4477 23.6677 23.2754C23.6249 23.1077 23.5452 22.9518 23.4342 22.819C23.3444 22.7015 23.2281 22.6069 23.0946 22.5431C22.9508 22.4973 22.7995 22.4793 22.6489 22.49C22.4476 22.4842 22.2489 22.5357 22.0758 22.6386C21.9244 22.723 21.8078 22.8584 21.7469 23.0207C21.6732 23.1877 21.637 23.3688 21.6407 23.5513C21.6399 23.7369 21.676 23.9209 21.7469 24.0925C21.8456 24.2577 21.9797 24.3991 22.1395 24.5064C22.3735 24.6615 22.6224 24.793 22.8824 24.899C23.3916 25.0977 23.8848 25.3354 24.3575 25.61C24.7774 25.8227 25.1411 26.1319 25.4187 26.5121C25.6761 26.9247 25.8019 27.4059 25.7795 27.8917C25.7975 28.3881 25.6603 28.8778 25.3869 29.2925C25.1289 29.6854 24.7593 29.9921 24.3256 30.1733C23.8149 30.386 23.2657 30.4908 22.7126 30.4811C22.2778 30.4767 21.8457 30.4124 21.4285 30.29C21.0476 30.1837 20.6884 30.0113 20.3673 29.7807C20.0331 29.5397 19.7604 29.2234 19.5713 28.8574C19.502 28.7103 19.4452 28.5577 19.4015 28.4011C19.3765 28.2739 19.3813 28.1426 19.4155 28.0175C19.4498 27.8925 19.5126 27.7771 19.599 27.6804C19.6854 27.5837 19.793 27.5084 19.9134 27.4604C20.0338 27.4123 20.1638 27.3929 20.293 27.4035H20.5371C20.7408 27.4231 20.9336 27.5049 21.0892 27.6378C21.2449 27.7707 21.3559 27.9482 21.4073 28.1464C21.4667 28.324 21.5687 28.4843 21.7044 28.6133C21.8299 28.7278 21.9782 28.8146 22.1395 28.868C22.3007 28.9193 22.4691 28.9444 22.6383 28.9423C22.8487 28.9522 23.0579 28.9045 23.2432 28.8043C23.3806 28.705 23.4873 28.5689 23.5509 28.4117C23.6478 28.2472 23.7025 28.0612 23.7101 27.8705L23.6995 27.8492Z" fill="#08526D"></path>
<path id="Vector_3" d="M30.3004 19.6035C30.4355 19.6035 30.5651 19.6572 30.6606 19.7527C30.7561 19.8482 30.8098 19.9778 30.8098 20.1129V20.9619C30.8098 21.097 30.7561 21.2265 30.6606 21.3221C30.5651 21.4176 30.4355 21.4713 30.3004 21.4713C30.1662 21.4686 30.0382 21.414 29.9432 21.3191C29.8483 21.2241 29.7937 21.0961 29.791 20.9619V20.1129C29.7937 19.9787 29.8483 19.8507 29.9432 19.7557C30.0382 19.6608 30.1662 19.6062 30.3004 19.6035ZM30.1731 29.9717C30.3073 29.9744 30.4353 30.0289 30.5303 30.1239C30.6252 30.2188 30.6797 30.3468 30.6825 30.4811V31.1709C30.6825 31.3116 30.6265 31.4466 30.527 31.5461C30.4275 31.6456 30.2926 31.7015 30.1518 31.7015C30.0111 31.7015 29.8761 31.6456 29.7766 31.5461C29.6771 31.4466 29.6212 31.3116 29.6212 31.1709V30.4811C29.6225 30.4109 29.638 30.3417 29.6667 30.2777C29.6955 30.2137 29.7369 30.1562 29.7884 30.1086C29.84 30.061 29.9006 30.0243 29.9667 30.0008C30.0329 29.9773 30.103 29.9674 30.1731 29.9717ZM31.2343 27.8492C31.2388 27.645 31.199 27.4423 31.1176 27.2549C31.0222 27.0843 30.8876 26.9388 30.7249 26.8305C30.5029 26.6826 30.2643 26.5615 30.0139 26.4696C29.5004 26.273 29.0005 26.0426 28.5176 25.7798C28.1177 25.5632 27.7756 25.2539 27.52 24.8778C27.2766 24.4792 27.1549 24.0181 27.1698 23.5513C27.1566 23.0669 27.2897 22.5898 27.5518 22.1823C27.8127 21.7869 28.1808 21.474 28.6131 21.2803C29.1139 21.0587 29.6574 20.95 30.2049 20.9619C30.6305 20.9606 31.0535 21.0287 31.4571 21.1635C31.8163 21.2934 32.145 21.4957 32.4229 21.7578C32.7053 22.015 32.9233 22.3349 33.0596 22.6917C33.0927 22.7785 33.121 22.8671 33.1445 22.957C33.1735 23.0829 33.1723 23.2138 33.141 23.3391C33.1096 23.4645 33.049 23.5806 32.9641 23.6779C32.8791 23.7753 32.7723 23.8511 32.6524 23.8992C32.5325 23.9473 32.4029 23.9662 32.2743 23.9545H31.9135C31.738 23.94 31.5718 23.8691 31.4399 23.7524C31.3079 23.6358 31.2172 23.4796 31.1812 23.3072C31.1529 23.131 31.0839 22.9638 30.9796 22.819C30.8885 22.6985 30.7679 22.6035 30.6294 22.5431C30.4863 22.4938 30.3343 22.4758 30.1837 22.49C29.9824 22.4842 29.7837 22.5357 29.6106 22.6386C29.4567 22.7199 29.3392 22.8564 29.2816 23.0207C29.208 23.1877 29.1718 23.3688 29.1755 23.5513C29.1695 23.7374 29.2058 23.9224 29.2816 24.0925C29.3804 24.2577 29.5145 24.3991 29.6743 24.5064C29.9057 24.6596 30.1508 24.7911 30.4065 24.899C30.9191 25.0979 31.4158 25.3356 31.8922 25.61C32.2921 25.8267 32.6342 26.136 32.8898 26.5121C33.1503 26.9238 33.2798 27.4048 33.2612 27.8917C33.2792 28.3881 33.142 28.8778 32.8686 29.2925C32.6106 29.6854 32.241 29.9921 31.8074 30.1733C31.2963 30.3849 30.7473 30.4896 30.1943 30.4811C29.7858 30.4804 29.3792 30.4269 28.9845 30.3219C28.6036 30.2156 28.2444 30.0431 27.9233 29.8125C27.5913 29.5661 27.3253 29.2417 27.1486 28.868C27.0747 28.7229 27.0177 28.5698 26.9788 28.4117C26.954 28.2854 26.9587 28.1551 26.9924 28.031C27.0261 27.9068 27.0879 27.792 27.1731 27.6956C27.2582 27.5991 27.3644 27.5236 27.4835 27.4748C27.6025 27.426 27.7312 27.4052 27.8596 27.4141H28.1143C28.3152 27.4419 28.5039 27.5266 28.6581 27.6582C28.8123 27.7899 28.9256 27.963 28.9845 28.157C29.0439 28.3346 29.1459 28.4949 29.2816 28.6239C29.4072 28.7384 29.5554 28.8252 29.7167 28.8786C29.878 28.9299 30.0464 28.955 30.2155 28.9529C30.4259 28.9629 30.6351 28.9152 30.8204 28.8149C30.9705 28.7274 31.0921 28.5985 31.1706 28.4435C31.2435 28.2619 31.269 28.0647 31.2449 27.8705L31.2343 27.8492Z" fill="#08526D"></path>
<path id="Vector_4" d="M37.8351 19.6035C37.9702 19.6035 38.0997 19.6572 38.1953 19.7527C38.2908 19.8482 38.3445 19.9778 38.3445 20.1129V20.9619C38.3445 21.097 38.2908 21.2265 38.1953 21.3221C38.0997 21.4176 37.9702 21.4713 37.8351 21.4713C37.7046 21.4633 37.5819 21.4064 37.4914 21.312C37.4009 21.2176 37.3493 21.0926 37.3469 20.9619V20.1129C37.3493 19.9822 37.4009 19.8572 37.4914 19.7628C37.5819 19.6684 37.7046 19.6115 37.8351 19.6035ZM37.7077 29.9717C37.842 29.9744 37.97 30.0289 38.0649 30.1239C38.1599 30.2188 38.2144 30.3468 38.2171 30.4811V31.1709C38.2171 31.3116 38.1612 31.4466 38.0617 31.5461C37.9622 31.6456 37.8272 31.7015 37.6865 31.7015C37.5458 31.7015 37.4108 31.6456 37.3113 31.5461C37.2118 31.4466 37.1559 31.3116 37.1559 31.1709V30.4811C37.1572 30.4109 37.1727 30.3417 37.2014 30.2777C37.2301 30.2137 37.2715 30.1562 37.3231 30.1086C37.3747 30.061 37.4353 30.0243 37.5014 30.0008C37.5675 29.9773 37.6377 29.9674 37.7077 29.9717ZM38.769 27.8492C38.7735 27.645 38.7337 27.4423 38.6522 27.2549C38.5569 27.0843 38.4223 26.9388 38.2596 26.8305C38.0376 26.6826 37.7989 26.5615 37.5485 26.4696C37.0351 26.273 36.5352 26.0426 36.0522 25.7798C35.6524 25.5632 35.3103 25.2539 35.0547 24.8778C34.8113 24.4792 34.6895 24.0181 34.7045 23.5513C34.6912 23.0669 34.8244 22.5898 35.0865 22.1823C35.3474 21.7869 35.7155 21.474 36.1477 21.2803C36.6486 21.0587 37.192 20.95 37.7396 20.9619C38.1652 20.9606 38.5881 21.0287 38.9918 21.1635C39.351 21.2934 39.6797 21.4957 39.9575 21.7578C40.2399 22.015 40.458 22.3349 40.5943 22.6917C40.6274 22.7785 40.6557 22.8671 40.6792 22.957C40.7082 23.0829 40.707 23.2138 40.6756 23.3391C40.6443 23.4645 40.5836 23.5806 40.4987 23.6779C40.4138 23.7753 40.307 23.8511 40.1871 23.8992C40.0672 23.9473 39.9376 23.9662 39.809 23.9545H39.4694C39.2938 23.94 39.1277 23.8691 38.9958 23.7524C38.8638 23.6358 38.7731 23.4796 38.7371 23.3072C38.6934 23.142 38.6177 22.9869 38.5143 22.8509C38.4231 22.7304 38.3025 22.6354 38.1641 22.5749C38.0233 22.5148 37.8713 22.4859 37.7183 22.49C37.5171 22.4842 37.3183 22.5357 37.1453 22.6386C36.9913 22.7199 36.8738 22.8564 36.8163 23.0207C36.7427 23.1877 36.7065 23.3688 36.7102 23.5513C36.7042 23.7374 36.7405 23.9224 36.8163 24.0925C36.9151 24.2577 37.0492 24.3991 37.209 24.5064C37.4404 24.6596 37.6855 24.7911 37.9412 24.899C38.4538 25.0979 38.9505 25.3356 39.4269 25.61C39.8268 25.8267 40.1688 26.136 40.4245 26.5121C40.6849 26.9238 40.8144 27.4048 40.7959 27.8917C40.8139 28.3881 40.6767 28.8778 40.4032 29.2925C40.1453 29.6854 39.7757 29.9921 39.342 30.1733C38.831 30.3849 38.282 30.4896 37.729 30.4811C37.3205 30.4804 36.9139 30.4269 36.5192 30.3219C36.1383 30.2156 35.7791 30.0431 35.4579 29.8125C35.126 29.5661 34.8599 29.2417 34.6832 28.868C34.6093 28.7229 34.5524 28.5698 34.5134 28.4117C34.4887 28.2854 34.4934 28.1551 34.5271 28.031C34.5607 27.9068 34.6226 27.792 34.7077 27.6956C34.7929 27.5991 34.8991 27.5236 35.0182 27.4748C35.1372 27.426 35.2659 27.4052 35.3943 27.4141H35.649C35.8498 27.4419 36.0385 27.5266 36.1927 27.6582C36.347 27.7899 36.4602 27.963 36.5192 28.157C36.5786 28.3346 36.6806 28.4949 36.8163 28.6239C36.9418 28.7384 37.0901 28.8252 37.2514 28.8786C37.4126 28.9299 37.581 28.955 37.7502 28.9529C37.9606 28.9629 38.1698 28.9152 38.3551 28.8149C38.5051 28.7274 38.6267 28.5985 38.7053 28.4435C38.7781 28.2619 38.8037 28.0647 38.7796 27.8705L38.769 27.8492Z" fill="#08526D"></path>
<path id="Vector_5" d="M28.9526 30.1943H62.9118C63.1932 30.1943 63.4632 30.3061 63.6622 30.5052C63.8612 30.7042 63.973 30.9741 63.973 31.2556V62.9013C63.973 63.1827 63.8612 63.4527 63.6622 63.6517C63.4632 63.8507 63.1932 63.9625 62.9118 63.9625H28.9526C28.6711 63.9625 28.4012 63.8507 28.2022 63.6517C28.0032 63.4527 27.8914 63.1827 27.8914 62.9013V31.2556C27.8914 30.9741 28.0032 30.7042 28.2022 30.5052C28.4012 30.3061 28.6711 30.1943 28.9526 30.1943Z" fill="url(#paint0_linear_3518_5499)"></path>
<path id="Vector_6" d="M46.898 35.0439C47.2667 35.0439 47.6203 35.1904 47.881 35.4511C48.1418 35.7118 48.2882 36.0654 48.2882 36.4341C48.2882 36.8029 48.1418 37.1565 47.881 37.4172C47.6203 37.6779 47.2667 37.8244 46.898 37.8244C46.5293 37.8244 46.1757 37.6779 45.915 37.4172C45.6543 37.1565 45.5078 36.8029 45.5078 36.4341C45.5078 36.2516 45.5438 36.0708 45.6136 35.9021C45.6835 35.7335 45.7859 35.5802 45.915 35.4511C46.0441 35.322 46.1973 35.2196 46.366 35.1498C46.5347 35.0799 46.7155 35.0439 46.898 35.0439Z" fill="#08526D"></path>
<path id="Vector_7" d="M57.9879 35.044C58.1708 35.0426 58.3522 35.0776 58.5215 35.1469C58.6908 35.2163 58.8447 35.3186 58.974 35.448C59.1034 35.5774 59.2058 35.7312 59.2751 35.9005C59.3445 36.0698 59.3795 36.2512 59.3781 36.4342C59.3781 36.6168 59.3421 36.7975 59.2722 36.9662C59.2024 37.1349 59.1 37.2881 58.9709 37.4172C58.8418 37.5463 58.6885 37.6487 58.5199 37.7186C58.3512 37.7884 58.1704 37.8244 57.9879 37.8244C57.8053 37.8244 57.6245 37.7884 57.4559 37.7186C57.2872 37.6487 57.1339 37.5463 57.0048 37.4172C56.8757 37.2881 56.7733 37.1349 56.7035 36.9662C56.6336 36.7975 56.5977 36.6168 56.5977 36.4342C56.5977 36.2516 56.6336 36.0709 56.7035 35.9022C56.7733 35.7335 56.8757 35.5803 57.0048 35.4512C57.1339 35.3221 57.2872 35.2197 57.4559 35.1498C57.6245 35.0799 57.8053 35.044 57.9879 35.044Z" fill="#08526D"></path>
<path id="Vector_8" d="M52.4376 35.044C52.8063 35.044 53.1599 35.1905 53.4206 35.4512C53.6813 35.7119 53.8278 36.0655 53.8278 36.4342C53.8278 36.8029 53.6813 37.1565 53.4206 37.4172C53.1599 37.6779 52.8063 37.8244 52.4376 37.8244C52.0689 37.8244 51.7153 37.6779 51.4546 37.4172C51.1939 37.1565 51.0474 36.8029 51.0474 36.4342C51.046 36.2512 51.081 36.0698 51.1504 35.9005C51.2197 35.7312 51.3221 35.5774 51.4514 35.448C51.5808 35.3186 51.7346 35.2163 51.9039 35.1469C52.0732 35.0776 52.2547 35.0426 52.4376 35.044Z" fill="#08526D"></path>
<path id="Vector_9" d="M31.0754 31.9521H60.7893C61.7162 31.9521 62.6056 32.3202 63.261 32.9756C63.9164 33.631 64.2844 34.5204 64.2844 35.4473V61.2246C64.2843 62.1513 63.9162 63.04 63.261 63.6953C62.6056 64.3507 61.7162 64.7188 60.7893 64.7188H31.0754C30.1485 64.7188 29.2592 64.3507 28.6038 63.6953C27.9485 63.04 27.5804 62.1513 27.5803 61.2246V35.4473C27.5803 34.5204 27.9483 33.631 28.6038 32.9756C29.2592 32.3202 30.1485 31.9521 31.0754 31.9521ZM62.9094 40.0029L28.9504 40.1094L28.2024 40.1113V61.2246C28.2025 61.9862 28.5057 62.7163 29.0442 63.2549C29.5829 63.7936 30.3136 64.0967 31.0754 64.0967H60.7893C61.5511 64.0967 62.2819 63.7936 62.8206 63.2549C63.359 62.7163 63.6622 61.9862 63.6624 61.2246V40.001L62.9094 40.0029ZM31.0745 32.5742C30.3129 32.5744 29.5827 32.8775 29.0442 33.416C28.5055 33.9547 28.2024 34.6854 28.2024 35.4473V39.4678L28.9553 39.4658L62.9143 39.3594L63.6624 39.3574V35.4258C63.6623 34.664 63.3592 33.9332 62.8206 33.3945C62.3492 32.9233 61.731 32.6327 61.0735 32.5674L60.7893 32.5537L31.0745 32.5742Z" stroke="#08526D" stroke-width="1.5" class="id_anim_stroke-property8" data-duration="2.7777777777777777" data-offset="0" style="stroke-dashoffset: 0px; stroke-dasharray: 0px, 331.628px; animation: 2.77778s linear 0s 1 normal forwards running id_anim_stroke-property8;"></path>
<path id="Vector_10" d="M52.2036 50.6982H58.5718C59.0019 50.6984 59.4141 50.8697 59.7183 51.1738C60.0224 51.478 60.1937 51.8902 60.1938 52.3203V59.749C60.1938 60.1793 60.0225 60.5922 59.7183 60.8965C59.5354 61.0793 59.3132 61.2127 59.0718 61.291V51.8203H51.7036V60.249H58.0718V61.3721H52.2036C51.7735 61.372 51.3613 61.2006 51.0571 60.8965C50.7529 60.5922 50.5815 60.1793 50.5815 59.749V52.3203C50.5816 51.8901 50.753 51.478 51.0571 51.1738C51.3233 50.9076 51.6721 50.743 52.0435 50.7061L52.2036 50.6982Z" fill="#08526D" stroke="#08526D" class="id_anim_stroke-property9" data-duration="2.7777777777777777" data-offset="0" style="stroke-dashoffset: 0px; stroke-dasharray: 0px, 69.5348px; animation: 2.77778s linear 0s 1 normal forwards running id_anim_stroke-property9;"></path>
<path id="Vector_11" d="M59.6323 43.1533C59.7812 43.1533 59.9245 43.2121 60.0298 43.3174C60.135 43.4226 60.1938 43.566 60.1938 43.7148V45.8369C60.1938 46.2672 60.0225 46.6801 59.7183 46.9844C59.4141 47.2884 59.0018 47.4589 58.5718 47.459H52.2036C51.7736 47.4589 51.3613 47.2884 51.0571 46.9844C50.7529 46.6801 50.5815 46.2672 50.5815 45.8369V43.7148C50.5815 43.566 50.6404 43.4226 50.7456 43.3174C50.8509 43.2121 50.9942 43.1533 51.1431 43.1533C51.2917 43.1534 51.4344 43.2123 51.5396 43.3174C51.6448 43.4226 51.7036 43.566 51.7036 43.7148V46.3369H59.0718V43.7148C59.0718 43.566 59.1306 43.4226 59.2358 43.3174C59.341 43.2123 59.4837 43.1534 59.6323 43.1533Z" fill="#08526D" stroke="#08526D" class="id_anim_stroke-property10" data-duration="2.7777777777777777" data-offset="0" style="stroke-dashoffset: 0px; stroke-dasharray: 0px, 31.8485px; animation: 2.77778s linear 0s 1 normal forwards running id_anim_stroke-property10;"></path>
<path id="Vector_12" fill-rule="evenodd" clip-rule="evenodd" d="M40.0424 49.6574C40.2264 49.6574 40.4029 49.7297 40.534 49.8588C40.665 49.9878 40.7401 50.1633 40.7428 50.3472V54.2101C40.7401 54.395 40.6654 54.5715 40.5347 54.7023C40.4039 54.8331 40.2273 54.9077 40.0424 54.9105H38.0898C37.9934 55.2152 37.8764 55.513 37.7396 55.8019L39.151 57.277C39.2742 57.4054 39.343 57.5765 39.343 57.7545C39.343 57.9325 39.2742 58.1037 39.151 58.2321L36.5298 60.9701C36.4654 61.0375 36.388 61.0911 36.3022 61.1278C36.2165 61.1645 36.1242 61.1834 36.031 61.1834C35.9378 61.1834 35.8455 61.1645 35.7598 61.1278C35.674 61.0911 35.5966 61.0375 35.5322 60.9701L34.1632 59.5374C33.9013 59.6801 33.628 59.8008 33.3461 59.8982V61.1823C33.3433 61.3662 33.2683 61.5417 33.1372 61.6707C33.0062 61.7998 32.8296 61.8721 32.6457 61.8721H30.4277V60.4925H31.9559V59.3676C31.957 59.2113 32.0112 59.0601 32.1095 58.9386C32.2079 58.8172 32.3445 58.7327 32.4971 58.699C32.9887 58.5845 33.4558 58.3833 33.8767 58.1047H33.9298C34.0648 58.0229 34.2238 57.9898 34.3802 58.0111C34.5367 58.0323 34.6811 58.1066 34.7894 58.2215L36.031 59.5268L37.6971 57.7864L36.4024 56.4492C36.3015 56.3434 36.2369 56.2082 36.2178 56.0633C36.1987 55.9183 36.2262 55.771 36.2963 55.6427C36.5621 55.1487 36.7687 54.6251 36.9118 54.0827C36.9479 53.9331 37.0337 53.8002 37.1551 53.7057C37.2766 53.6113 37.4265 53.5608 37.5804 53.5627H39.3526V51.037H37.5804C37.4265 51.0389 37.2766 50.9884 37.1551 50.894C37.0337 50.7995 36.9479 50.6666 36.9118 50.517C36.7653 49.9741 36.5552 49.4505 36.2857 48.957C36.2165 48.8303 36.1895 48.6848 36.2085 48.5417C36.2276 48.3986 36.2918 48.2652 36.3918 48.1611L37.6865 46.8027L36.0204 45.0623L34.7894 46.3676C34.6811 46.4825 34.5367 46.5568 34.3802 46.578C34.2238 46.5993 34.0648 46.5662 33.9298 46.4843H33.8767C33.4572 46.2056 32.9893 46.0076 32.4971 45.9007C32.3437 45.8649 32.2068 45.7783 32.1085 45.6551C32.0103 45.5318 31.9566 45.3791 31.9559 45.2215V44.0647H30.4277V42.6533H32.6457C32.8296 42.6533 33.0062 42.7256 33.1372 42.8547C33.2683 42.9838 33.3433 43.1592 33.3461 43.3431V44.6272C33.628 44.7246 33.9013 44.8453 34.1632 44.988L35.5322 43.5554C35.5966 43.4879 35.674 43.4343 35.7598 43.3976C35.8455 43.361 35.9378 43.3421 36.031 43.3421C36.1242 43.3421 36.2165 43.361 36.3022 43.3976C36.388 43.4343 36.4654 43.4879 36.5298 43.5554L39.151 46.2933C39.2742 46.4218 39.343 46.5929 39.343 46.7709C39.343 46.9489 39.2742 47.12 39.151 47.2484L37.7396 48.7235C37.8764 49.016 37.9934 49.3174 38.0898 49.6256L40.0424 49.6574Z" fill="#08526D" stroke="#08526D" stroke-width="0.5" stroke-miterlimit="10" stroke-linecap="round" class="id_anim_stroke-property11" data-duration="2.7777777777777777" data-offset="0" style="stroke-dashoffset: 0px; stroke-dasharray: 0px, 82.9599px; animation: 2.77778s linear 0s 1 normal forwards running id_anim_stroke-property11;"></path>
<path id="Vector_13" fill-rule="evenodd" clip-rule="evenodd" d="M33.8343 52.2785C33.8925 51.3139 33.5671 50.3655 32.929 49.6399C32.2909 48.9144 31.3918 48.4704 30.4277 48.405V47.0254C31.7594 47.0887 33.0118 47.677 33.9108 48.6615C34.8098 49.646 35.2821 50.9465 35.2245 52.2785C35.2602 52.9415 35.1646 53.605 34.9432 54.231C34.7217 54.857 34.3788 55.433 33.934 55.9261C33.4893 56.4191 32.9516 56.8195 32.3517 57.1041C31.7518 57.3887 31.1015 57.552 30.4383 57.5846V56.205C30.9196 56.1714 31.3895 56.043 31.8209 55.8272C32.2524 55.6114 32.637 55.3125 32.9525 54.9476C33.2681 54.5828 33.5085 54.1591 33.6598 53.701C33.8111 53.243 33.8704 52.7595 33.8343 52.2785Z" fill="#08526D" stroke="#08526D" stroke-width="0.5" stroke-miterlimit="10" stroke-linecap="round" class="id_anim_stroke-property12" data-duration="2.7777777777777777" data-offset="0" style="stroke-dashoffset: 0px; stroke-dasharray: 0px, 30.0921px; animation: 2.77778s linear 0s 1 normal forwards running id_anim_stroke-property12;"></path>
</g>
</g>
<defs>
<linearGradient id="paint0_linear_3518_5499" x1="45.9999" y1="73.5" x2="45.8367" y2="49.0207" gradientUnits="userSpaceOnUse">
<stop stop-color="#F9B2BD"></stop>
<stop offset="1" stop-color="#F9B2BD" stop-opacity="0"></stop>
</linearGradient>
<clipPath id="clip0_3518_5499">
<rect width="52" height="52" fill="white" transform="translate(14 14)"></rect>
</clipPath>
</defs>
<style>
        @keyframes id_anim_stroke-property8{
        
            0%{
                stroke-dashoffset: 0px; 
        stroke-dasharray: 0px, 331.627685546875px;
            }
        
            50%{
                stroke-dashoffset: -165.8138427734375px; 
        stroke-dasharray: 165.8138427734375px, 165.8138427734375px;
            }
        
            100%{
                stroke-dashoffset: -331.627685546875px; 
        stroke-dasharray: 331.627685546875px, 0px;
            }
        
        }
         
        @keyframes id_anim_stroke-property9{
        
            0%{
                stroke-dashoffset: 0px; 
        stroke-dasharray: 0px, 69.5348129272461px;
            }
        
            50%{
                stroke-dashoffset: -34.76740646362305px; 
        stroke-dasharray: 34.76740646362305px, 34.76740646362305px;
            }
        
            100%{
                stroke-dashoffset: -69.5348129272461px; 
        stroke-dasharray: 69.5348129272461px, 0px;
            }
        
        }
         
        @keyframes id_anim_stroke-property10{
        
            0%{
                stroke-dashoffset: 0px; 
        stroke-dasharray: 0px, 31.848453521728516px;
            }
        
            50%{
                stroke-dashoffset: -15.924226760864258px; 
        stroke-dasharray: 15.924226760864258px, 15.924226760864258px;
            }
        
            100%{
                stroke-dashoffset: -31.848453521728516px; 
        stroke-dasharray: 31.848453521728516px, 0px;
            }
        
        }
         
        @keyframes id_anim_stroke-property11{
        
            0%{
                stroke-dashoffset: 0px; 
        stroke-dasharray: 0px, 82.95994567871094px;
            }
        
            50%{
                stroke-dashoffset: -41.47997283935547px; 
        stroke-dasharray: 41.47997283935547px, 41.47997283935547px;
            }
        
            100%{
                stroke-dashoffset: -82.95994567871094px; 
        stroke-dasharray: 82.95994567871094px, 0px;
            }
        
        }
         
        @keyframes id_anim_stroke-property12{
        
            0%{
                stroke-dashoffset: 0px; 
        stroke-dasharray: 0px, 30.09208106994629px;
            }
        
            50%{
                stroke-dashoffset: -15.046040534973145px; 
        stroke-dasharray: 15.046040534973145px, 15.046040534973145px;
            }
        
            100%{
                stroke-dashoffset: -30.09208106994629px; 
        stroke-dasharray: 30.09208106994629px, 0px;
            }
        
        }
        </style></svg>
