<svg width="64" height="64" viewBox="0 0 64 64" fill="none" xmlns="http://www.w3.org/2000/svg">
<g id="icon/mobile-app 1">
<path id="Vector" d="M48.6303 21H16C13.7909 21 12 22.7909 12 25V45.5405C12 47.7497 13.7909 49.5405 16 49.5405H16.5H28.5H32.8243C34.3021 49.5405 35.5 50.7385 35.5 52.2162V53.6419C35.5 54.3322 34.9404 54.8919 34.25 54.8919C33.5596 54.8919 33 55.4515 33 56.1419V58.3992C33 60.3724 34.6271 61.9572 36.5996 61.9053L49.8451 61.5567C51.0443 61.5252 52 60.544 52 59.3444C52 59.1162 51.9647 58.8893 51.8953 58.6719L50.7183 54.9818C50.5739 54.5291 50.5114 54.0543 50.5335 53.5796L51 43.5946L52.6147 25.3527C52.8218 23.0135 50.9786 21 48.6303 21Z" fill="url(#paint0_linear_3606_5787)"></path>
<g id="Group">
<g id="Group_2">
<g id="Group_3">
<g id="Vector_2">
<mask id="path-2-inside-1_3606_5787" fill="white">
<path d="M37.2478 0.913574C39.1543 0.913574 40.7505 2.46119 40.7507 4.41553V24.5942L40.7898 24.6372L40.8162 24.6665L40.8181 24.6685L40.8455 24.6978L40.8484 24.7017L50.3201 34.5581C51.672 36.0185 52.4065 37.9251 52.3074 39.8911L52.2742 40.3003L52.2732 40.312L50.9187 54.1245L50.9031 54.2896H51.8982L52.0056 54.2935C52.4418 54.3382 52.8229 54.6725 52.9402 55.1304L52.9607 55.231L52.9744 55.3442V62.0796C52.9744 62.6341 52.5221 63.0864 51.9675 63.0864H33.1521C32.5975 63.0864 32.1453 62.6341 32.1453 62.0796V55.2964C32.1453 54.7418 32.5975 54.2896 33.1521 54.2896H34.45V50.7983H14.5916C12.8586 50.7981 11.3824 49.5188 11.1287 47.8179L11.1082 47.6528L11.0955 47.4819L11.0896 47.2886V4.41553C11.0898 2.50107 12.6456 0.913574 14.5281 0.913574H37.2478ZM34.0945 56.3022V61.0737H50.8972V56.3022H34.0945ZM40.7507 40.1284L40.7468 40.2017C40.7194 40.5248 40.5153 40.8313 40.2312 40.9917L40.0925 41.0542C39.9442 41.1034 39.8754 41.1226 39.8328 41.1294L39.7996 41.1323C39.5587 41.1306 39.3194 41.0609 39.1365 40.9312L39.0613 40.8716L38.9744 40.7827L31.6267 32.4136C31.3113 32.0179 30.8817 31.8639 30.5818 31.813L30.5759 31.812L30.4636 31.7974L30.4539 31.7954H30.4402L30.3484 31.7915L30.3357 31.7905C30.0651 31.7906 29.4774 31.8951 29.0671 32.3882C28.6162 32.8616 28.463 33.5732 28.7585 34.2046L28.824 34.3306L36.2761 48.2192C36.3682 48.455 36.3982 48.5957 36.3982 48.7681V54.354H48.9617L48.9753 54.2183L48.9929 54.0386L50.3826 40.0835C50.5254 38.6517 50.0648 37.2149 49.1169 36.1509L49.1111 36.144L49.1052 36.1382L48.9275 35.9507L48.9265 35.9487L41.0095 27.728L40.7507 27.4604V40.1284ZM14.5916 2.92627C13.8625 2.92657 13.1026 3.50479 13.1023 4.41553V47.2964C13.1024 47.6874 13.2374 48.0596 13.5066 48.3481C13.769 48.6292 14.1117 48.7816 14.4519 48.8384L14.4988 48.8462L14.5066 48.8472L14.5154 48.8481L14.5232 48.8491H34.3132L34.1931 48.6274L34.114 48.481L27.1306 35.3364L27.1238 35.3218L27.1228 35.3198L26.988 35.0454C26.4215 33.7516 26.6577 32.2214 27.5828 31.1479L27.5837 31.1489C28.3254 30.3023 29.3117 29.8424 30.3962 29.8413L30.6121 29.8462C31.6375 29.8962 32.5371 30.3116 33.2156 31.0864L38.363 36.9585L38.5378 37.1587L38.8015 37.4595V4.41553C38.8012 3.68648 38.2232 2.92646 37.3123 2.92627H33.8386V5.37549C33.8386 7.00892 32.4996 8.30225 30.9119 8.30225H20.9919C19.3585 8.30222 18.0652 6.9632 18.0652 5.37549V2.92627H14.5916ZM20.0144 2.92627V5.37549C20.0144 5.53898 20.0575 5.72002 20.1667 5.88428C20.2715 6.04118 20.4055 6.13784 20.5154 6.19287C20.6219 6.24605 20.7187 6.26693 20.7781 6.27686C20.8073 6.28172 20.8375 6.28563 20.865 6.2876C20.8744 6.28826 20.884 6.28843 20.8904 6.28857C20.8937 6.28865 20.8971 6.28952 20.8992 6.28955H30.8484C31.0121 6.28944 31.1925 6.24611 31.3562 6.13721C31.5131 6.03245 31.6098 5.89849 31.6648 5.78857C31.718 5.68203 31.7389 5.5852 31.7488 5.52588C31.7536 5.49666 31.7576 5.46641 31.7595 5.43896C31.7602 5.42953 31.7603 5.41992 31.7605 5.41357C31.7606 5.41022 31.7614 5.40684 31.7615 5.40479V2.92627H20.0144Z"></path>
</mask>
<path d="M37.2478 0.913574C39.1543 0.913574 40.7505 2.46119 40.7507 4.41553V24.5942L40.7898 24.6372L40.8162 24.6665L40.8181 24.6685L40.8455 24.6978L40.8484 24.7017L50.3201 34.5581C51.672 36.0185 52.4065 37.9251 52.3074 39.8911L52.2742 40.3003L52.2732 40.312L50.9187 54.1245L50.9031 54.2896H51.8982L52.0056 54.2935C52.4418 54.3382 52.8229 54.6725 52.9402 55.1304L52.9607 55.231L52.9744 55.3442V62.0796C52.9744 62.6341 52.5221 63.0864 51.9675 63.0864H33.1521C32.5975 63.0864 32.1453 62.6341 32.1453 62.0796V55.2964C32.1453 54.7418 32.5975 54.2896 33.1521 54.2896H34.45V50.7983H14.5916C12.8586 50.7981 11.3824 49.5188 11.1287 47.8179L11.1082 47.6528L11.0955 47.4819L11.0896 47.2886V4.41553C11.0898 2.50107 12.6456 0.913574 14.5281 0.913574H37.2478ZM34.0945 56.3022V61.0737H50.8972V56.3022H34.0945ZM40.7507 40.1284L40.7468 40.2017C40.7194 40.5248 40.5153 40.8313 40.2312 40.9917L40.0925 41.0542C39.9442 41.1034 39.8754 41.1226 39.8328 41.1294L39.7996 41.1323C39.5587 41.1306 39.3194 41.0609 39.1365 40.9312L39.0613 40.8716L38.9744 40.7827L31.6267 32.4136C31.3113 32.0179 30.8817 31.8639 30.5818 31.813L30.5759 31.812L30.4636 31.7974L30.4539 31.7954H30.4402L30.3484 31.7915L30.3357 31.7905C30.0651 31.7906 29.4774 31.8951 29.0671 32.3882C28.6162 32.8616 28.463 33.5732 28.7585 34.2046L28.824 34.3306L36.2761 48.2192C36.3682 48.455 36.3982 48.5957 36.3982 48.7681V54.354H48.9617L48.9753 54.2183L48.9929 54.0386L50.3826 40.0835C50.5254 38.6517 50.0648 37.2149 49.1169 36.1509L49.1111 36.144L49.1052 36.1382L48.9275 35.9507L48.9265 35.9487L41.0095 27.728L40.7507 27.4604V40.1284ZM14.5916 2.92627C13.8625 2.92657 13.1026 3.50479 13.1023 4.41553V47.2964C13.1024 47.6874 13.2374 48.0596 13.5066 48.3481C13.769 48.6292 14.1117 48.7816 14.4519 48.8384L14.4988 48.8462L14.5066 48.8472L14.5154 48.8481L14.5232 48.8491H34.3132L34.1931 48.6274L34.114 48.481L27.1306 35.3364L27.1238 35.3218L27.1228 35.3198L26.988 35.0454C26.4215 33.7516 26.6577 32.2214 27.5828 31.1479L27.5837 31.1489C28.3254 30.3023 29.3117 29.8424 30.3962 29.8413L30.6121 29.8462C31.6375 29.8962 32.5371 30.3116 33.2156 31.0864L38.363 36.9585L38.5378 37.1587L38.8015 37.4595V4.41553C38.8012 3.68648 38.2232 2.92646 37.3123 2.92627H33.8386V5.37549C33.8386 7.00892 32.4996 8.30225 30.9119 8.30225H20.9919C19.3585 8.30222 18.0652 6.9632 18.0652 5.37549V2.92627H14.5916ZM20.0144 2.92627V5.37549C20.0144 5.53898 20.0575 5.72002 20.1667 5.88428C20.2715 6.04118 20.4055 6.13784 20.5154 6.19287C20.6219 6.24605 20.7187 6.26693 20.7781 6.27686C20.8073 6.28172 20.8375 6.28563 20.865 6.2876C20.8744 6.28826 20.884 6.28843 20.8904 6.28857C20.8937 6.28865 20.8971 6.28952 20.8992 6.28955H30.8484C31.0121 6.28944 31.1925 6.24611 31.3562 6.13721C31.5131 6.03245 31.6098 5.89849 31.6648 5.78857C31.718 5.68203 31.7389 5.5852 31.7488 5.52588C31.7536 5.49666 31.7576 5.46641 31.7595 5.43896C31.7602 5.42953 31.7603 5.41992 31.7605 5.41357C31.7606 5.41022 31.7614 5.40684 31.7615 5.40479V2.92627H20.0144Z" stroke="#08526D" stroke-width="3" mask="url(#path-2-inside-1_3606_5787)" class="id_anim_stroke-property2" data-duration="2.7777777777777777" data-offset="0" style="stroke-dashoffset: 0px; stroke-dasharray: 0px, 538.015px; animation: 2.77778s linear 0s 1 normal forwards running id_anim_stroke-property2;"></path>
</g>
<path id="Vector_3" d="M25.92 45.1198C26.9804 45.1198 27.84 44.2602 27.84 43.1998C27.84 42.1394 26.9804 41.2798 25.92 41.2798C24.8596 41.2798 24 42.1394 24 43.1998C24 44.2602 24.8596 45.1198 25.92 45.1198Z" fill="#08526D"></path>
</g>
</g>
</g>
</g>
<defs>
<linearGradient id="paint0_linear_3606_5787" x1="36.9733" y1="92.0518" x2="31.6235" y2="34.8901" gradientUnits="userSpaceOnUse">
<stop stop-color="#32B9E9"></stop>
<stop offset="0.961538" stop-color="#32B9E9" stop-opacity="0"></stop>
</linearGradient>
</defs>
<style>
        @keyframes id_anim_stroke-property2{
        
            0%{
                stroke-dashoffset: 0px; 
        stroke-dasharray: 0px, 538.0151977539062px;
            }
        
            50%{
                stroke-dashoffset: -269.0075988769531px; 
        stroke-dasharray: 269.0075988769531px, 269.0075988769531px;
            }
        
            100%{
                stroke-dashoffset: -538.0151977539062px; 
        stroke-dasharray: 538.0151977539062px, 0px;
            }
        
        }
        </style></svg>
