<svg width="64" height="64" viewBox="0 0 64 64" fill="none" xmlns="http://www.w3.org/2000/svg">
<g id="icon/design 1">
<g id="Group">
<path id="Vector" d="M35.8975 25.4683L27.6968 25.0367C27.2782 25.0146 26.8903 25.2561 26.7251 25.6414L21.2092 38.512C21.0784 38.8171 21.1076 39.1673 21.2871 39.4466L25.3412 45.7529C25.4449 45.9142 25.5 46.102 25.5 46.2937V52.5V56.5V59.5C25.5 60.0523 25.9477 60.5 26.5 60.5H37C37.5523 60.5 38 60.0523 38 59.5V46.277C38 46.0957 38.0493 45.9179 38.1425 45.7625L42.2279 38.9534C42.3981 38.6698 42.417 38.3203 42.2784 38.0199L36.7529 26.0478C36.5973 25.7109 36.268 25.4878 35.8975 25.4683Z" fill="url(#paint0_linear_3606_5788)"></path>
<g id="Group_2">
<g id="Group_3">
<path id="Vector_2" d="M32 16.4619C32.127 16.462 32.2236 16.5234 32.2764 16.627V16.6279L43.2207 38.5801H43.2217C43.2815 38.6998 43.2785 38.8121 43.1904 38.9453L37.9629 46.4062L37.9619 46.4072C37.7799 46.6679 37.6816 46.979 37.6816 47.2969V59.5117C37.6816 59.6498 37.5697 59.7617 37.4316 59.7617H37.3193C37.1815 59.7615 37.0693 59.6496 37.0693 59.5117V48.7764C37.0693 47.8099 36.2858 47.0264 35.3193 47.0264H28.6152C27.649 47.0266 26.8652 47.81 26.8652 48.7764V59.5762C26.8652 59.7142 26.7533 59.8262 26.6152 59.8262H26.5039C26.3661 59.8259 26.2539 59.7141 26.2539 59.5762V47.3594C26.2539 47.0801 26.1785 46.8069 26.0361 46.5684L25.9717 46.4688L20.7432 39.0098C20.6563 38.8779 20.6536 38.7651 20.7139 38.6445L31.7217 16.6289C31.7608 16.5508 31.826 16.4962 31.9102 16.4736L32 16.4619ZM33.6377 20.6455C33.0882 19.1496 30.9878 19.1067 30.3779 20.5791L30.2598 20.8643L21.7803 37.9014L21.7793 37.9023C21.5267 38.4123 21.5737 39.02 21.9014 39.4854L26.3164 45.7539V45.7549C26.6062 46.168 27.0794 46.4141 27.584 46.4141H36.3125C36.8787 46.4141 37.41 46.14 37.7383 45.6787L42.0254 39.6523C42.3997 39.1261 42.4538 38.4366 42.166 37.8584L33.7451 20.9385L33.6377 20.6455Z" stroke="#08526D" stroke-width="1.5" class="id_anim_stroke-property1" data-duration="2.7777777777777777" data-offset="0" style="stroke-dashoffset: 0px; stroke-dasharray: 0px, 203.938px; animation: 2.77778s linear 0s 1 normal forwards running id_anim_stroke-property1;"></path>
<path id="Vector_3" d="M35.4976 4.43799V8.02197H56.8618L57.0845 7.69385L57.3521 7.30029L57.3745 7.26807C57.6155 6.91997 58.0302 6.6803 58.5532 6.67822L58.7271 6.68604C59.4608 6.763 60.0046 7.35088 60.0083 8.12061L60.0005 8.29541C59.9285 8.98149 59.4129 9.49694 58.7271 9.56885L58.5532 9.57666C58.0312 9.57459 57.6166 9.33699 57.3755 8.99072H57.3765L57.3511 8.95361L57.0845 8.56201L56.8618 8.23389H40.1245L42.4565 9.62744L45.5659 11.4858L46.1636 11.853V11.854C52.2947 15.7368 56.7399 21.9475 58.2534 29.2808L58.2983 29.5005L58.2993 29.5015L58.4194 30.0806L58.5435 30.6782H62.186V37.6733H55.1265V30.6782H58.3433L58.1235 29.7544L57.8306 28.5229C55.5151 18.6581 47.7328 10.9625 37.8394 8.70752L37.8354 8.70361L37.6196 8.65771L36.4067 8.39404L35.4976 8.1958V11.4341H28.5024V8.2124L27.5981 8.40186L26.3921 8.65479L26.3784 8.65771L26.3696 8.65967C16.4335 10.7906 8.4996 18.5951 6.16943 28.5229L5.87646 29.7544L5.65674 30.6782H8.87354V37.6733H1.81396V30.6782H5.45654L5.58057 30.0806L5.69971 29.5015L5.70166 29.5005L5.74658 29.2808C7.30871 21.7119 11.9909 15.3445 18.479 11.5591L18.48 11.5601L21.6812 9.6958L24.0825 8.29736H7.21924L6.99561 8.61572L6.71631 9.01318L6.70752 9.02393L6.68896 9.05127C6.46188 9.37928 6.08287 9.60808 5.60693 9.63721L5.49658 9.64014C4.67432 9.63621 4.0542 9.01415 4.0542 8.19189L4.06104 8.03955C4.13246 7.29385 4.72599 6.74635 5.49658 6.74268L5.60693 6.74561C6.08287 6.77472 6.46186 7.00449 6.68896 7.33252L6.70752 7.35986L6.71436 7.36768L6.99561 7.76807L7.21924 8.08643H28.5024V4.43799H35.4976ZM2.02588 37.5269H8.59814V30.8892H2.02588V37.5269ZM55.3374 37.5269H61.8745V37.4263H61.9106V30.8892H55.3374V37.5269ZM28.7134 11.2222H35.2866V4.6499H28.7134V11.2222Z" stroke="#08526D" stroke-width="1.5" class="id_anim_stroke-property2" data-duration="2.7777777777777777" data-offset="0" style="stroke-dashoffset: 0px; stroke-dasharray: 0px, 386.412px; animation: 2.77778s linear 0s 1 normal forwards running id_anim_stroke-property2;"></path>
</g>
</g>
</g>
</g>
<defs>
<linearGradient id="paint0_linear_3606_5788" x1="34.1185" y1="83.7481" x2="27.7151" y2="36.1202" gradientUnits="userSpaceOnUse">
<stop stop-color="#32B9E9"></stop>
<stop offset="0.961538" stop-color="#32B9E9" stop-opacity="0"></stop>
</linearGradient>
</defs>
<style>
        @keyframes id_anim_stroke-property1{
        
            0%{
                stroke-dashoffset: 0px; 
        stroke-dasharray: 0px, 203.93763732910156px;
            }
        
            50%{
                stroke-dashoffset: -101.96881866455078px; 
        stroke-dasharray: 101.96881866455078px, 101.96881866455078px;
            }
        
            100%{
                stroke-dashoffset: -203.93763732910156px; 
        stroke-dasharray: 203.93763732910156px, 0px;
            }
        
        }
         
        @keyframes id_anim_stroke-property2{
        
            0%{
                stroke-dashoffset: 0px; 
        stroke-dasharray: 0px, 386.4117431640625px;
            }
        
            50%{
                stroke-dashoffset: -193.20587158203125px; 
        stroke-dasharray: 193.20587158203125px, 193.20587158203125px;
            }
        
            100%{
                stroke-dashoffset: -386.4117431640625px; 
        stroke-dasharray: 386.4117431640625px, 0px;
            }
        
        }
        </style></svg>
