<svg width="64" height="64" viewBox="0 0 64 64" fill="none" xmlns="http://www.w3.org/2000/svg">
<g id="icon/testing">
<path id="Vector" d="M61.4995 22.8771L3.98325 17.5C3.98325 17.5 1.88477 25.7889 1.99993 31.1872C2.1245 37.0263 2.28374 40.649 4.97491 45.852C7.59026 50.9084 10.0888 53.4764 14.8915 56.6062C20.6163 60.3369 24.8881 61.595 31.7497 61.4945C37.5742 61.4092 40.9342 60.1825 46.1288 57.5839C51.172 55.061 54.2934 53.355 57.5329 48.785C60.7951 44.1829 61.9954 35.0978 61.9954 35.0978L61.4995 22.8771Z" fill="url(#paint0_linear_3649_5170)"></path>
<g id="Group">
<g id="Group_2">
<g id="Vector_2">
<mask id="path-2-inside-1_3649_5170" fill="white">
<path d="M32 1C49.1104 1 63 14.951 63 32C63 46.4052 53.0053 58.5967 39.6631 61.9795C39.6132 61.9831 39.5713 61.9887 39.541 61.9941C39.4932 62.0027 39.4519 62.0136 39.4229 62.0215C39.3978 62.0283 39.3734 62.0364 39.3525 62.043L39.2451 62.0703C38.7007 62.2064 38.3363 62.3093 37.9092 62.3643C37.8468 62.3688 37.7929 62.3757 37.7539 62.3818C37.6921 62.3916 37.6315 62.404 37.5957 62.4111C37.5613 62.418 37.5419 62.4214 37.5283 62.4238H37.4971L37.4268 62.4336C37.2028 62.4656 36.9788 62.4983 36.7549 62.5303C36.5444 62.5603 36.3335 62.59 36.123 62.6201C35.9626 62.6289 35.8343 62.6544 35.7715 62.667C35.6874 62.6838 35.6969 62.6797 35.7119 62.6797H35.6406L35.5703 62.6904C35.3871 62.7166 35.1983 62.7297 34.9688 62.7461C34.7504 62.7617 34.4913 62.7805 34.2266 62.8184L34.1377 62.8311L34.0518 62.8594C34.0359 62.8647 34.0275 62.8665 34.0244 62.8672C34.0217 62.8678 34.0186 62.8685 34.0127 62.8691C34.0055 62.8699 33.9915 62.8705 33.9658 62.8711C33.9381 62.8717 33.9066 62.8721 33.8564 62.8721H33.8057L33.7568 62.877C33.1738 62.9353 32.6456 62.9355 32 62.9355C31.3794 62.9355 30.8237 62.9325 30.332 62.8838C30.0653 62.8118 29.8524 62.8078 29.6836 62.8076C29.4504 62.7778 29.2249 62.7599 29.0312 62.7461C28.8017 62.7297 28.6129 62.7166 28.4297 62.6904L28.3594 62.6797H28.2881C28.3031 62.6797 28.3126 62.6838 28.2285 62.667C28.1656 62.6544 28.0369 62.6289 27.876 62.6201C27.6658 62.5901 27.4553 62.5603 27.2451 62.5303C27.0212 62.4983 26.7972 62.4656 26.5732 62.4336L26.5029 62.4238H26.4717C26.4581 62.4214 26.4387 62.418 26.4043 62.4111C26.3685 62.404 26.3079 62.3916 26.2461 62.3818C26.2069 62.3756 26.1527 62.3688 26.0898 62.3643C25.6631 62.3093 25.2989 62.2063 24.7549 62.0703L24.6465 62.043C24.6258 62.0364 24.6019 62.0282 24.5771 62.0215C24.5481 62.0136 24.5068 62.0027 24.459 61.9941C24.4283 61.9886 24.3857 61.9831 24.335 61.9795C10.9326 58.5968 1 46.4071 1 32C1 14.9523 14.9523 1 32 1ZM39.1279 26.9443C39.1279 27.1976 39.0391 27.4195 38.8369 27.5928L32.5186 33.0176C32.1829 33.2922 31.6882 33.2922 31.3525 33.0176L25.0352 27.5938L25.0303 27.5889L25.0244 27.584L24.9678 27.5312C24.8402 27.3973 24.7442 27.1904 24.7441 26.9443V17.1328L23.123 18.416C19.8118 21.0375 17.8164 25.1026 17.8164 29.4404C17.8166 34.6051 20.6384 39.3554 25.1152 41.835L25.1523 41.8545C25.3948 41.9757 25.4967 42.1786 25.4482 42.4453L25.4316 42.5342V60.6484H26.4316C26.4146 60.6484 26.4078 60.644 26.4629 60.6562C26.4814 60.6604 26.5464 60.675 26.6045 60.6855C26.6399 60.692 26.6842 60.698 26.7354 60.7031C26.9088 60.7391 27.0777 60.7575 27.1855 60.7695C27.3455 60.7873 27.4193 60.7979 27.4697 60.8105L27.5889 60.8398H27.7119C27.6947 60.8398 27.6877 60.8363 27.7432 60.8486C27.7618 60.8528 27.8259 60.8674 27.8838 60.8779C27.9229 60.885 27.9732 60.8913 28.0312 60.8965C28.3265 60.9555 28.7155 61.0322 29.1201 61.0322H29.4033C31.0288 61.1599 32.7153 61.1599 34.3408 61.0322H34.7227L34.8203 61.0127C34.9244 60.9919 35.0358 60.9796 35.2031 60.9629C35.3323 60.95 35.5016 60.9314 35.6816 60.9004C35.8449 60.8918 35.9746 60.8651 36.0488 60.8486C36.073 60.8433 36.0795 60.8406 36.0918 60.8379C36.4784 60.8307 36.8121 60.7559 37.0625 60.7041C37.1187 60.6988 37.168 60.6921 37.208 60.6846C37.2741 60.6722 37.3353 60.6572 37.3623 60.6504C37.365 60.6497 37.3678 60.649 37.3701 60.6484H38.3115V42.624C38.3115 42.2779 38.503 41.9751 38.7559 41.834L38.7568 41.835C43.2336 39.3554 46.0555 34.6051 46.0557 29.4404C46.0557 25.1617 44.0569 21.1036 40.7588 18.4238L39.1279 17.0986V26.9443ZM32 2.83984C15.8957 2.83984 2.83984 15.8957 2.83984 32C2.83984 44.7909 11.0584 55.6563 22.4551 59.6318L23.7842 60.0957V43.1709L23.3311 42.875C18.8111 39.922 16.0402 34.8593 16.04 29.4404C16.04 23.3032 19.6514 17.5838 25.2383 14.9941C25.4732 14.8898 25.7675 14.8898 26.0996 15.0625C26.3979 15.2732 26.5194 15.5383 26.5195 15.8076V26.5723L26.8691 26.8711L31.3496 30.7109L32 31.2695L32.6504 30.7109L37.1309 26.8711L37.4805 26.5723V15.8076C37.4806 15.4761 37.6482 15.2005 37.8613 15.082L37.9209 15.0488L37.9756 15.0078C38.1069 14.9093 38.3532 14.8585 38.6377 14.9473L38.7617 14.9941C44.3506 17.5846 47.96 23.2414 47.96 29.4404C47.9598 34.8593 45.1889 39.922 40.6689 42.875L40.2158 43.1709V60.0244L41.54 59.5703C52.9419 55.6592 61.1602 44.7899 61.1602 32C61.1602 15.9612 48.1058 2.83984 32 2.83984Z"></path>
</mask>
<path d="M32 1C49.1104 1 63 14.951 63 32C63 46.4052 53.0053 58.5967 39.6631 61.9795C39.6132 61.9831 39.5713 61.9887 39.541 61.9941C39.4932 62.0027 39.4519 62.0136 39.4229 62.0215C39.3978 62.0283 39.3734 62.0364 39.3525 62.043L39.2451 62.0703C38.7007 62.2064 38.3363 62.3093 37.9092 62.3643C37.8468 62.3688 37.7929 62.3757 37.7539 62.3818C37.6921 62.3916 37.6315 62.404 37.5957 62.4111C37.5613 62.418 37.5419 62.4214 37.5283 62.4238H37.4971L37.4268 62.4336C37.2028 62.4656 36.9788 62.4983 36.7549 62.5303C36.5444 62.5603 36.3335 62.59 36.123 62.6201C35.9626 62.6289 35.8343 62.6544 35.7715 62.667C35.6874 62.6838 35.6969 62.6797 35.7119 62.6797H35.6406L35.5703 62.6904C35.3871 62.7166 35.1983 62.7297 34.9688 62.7461C34.7504 62.7617 34.4913 62.7805 34.2266 62.8184L34.1377 62.8311L34.0518 62.8594C34.0359 62.8647 34.0275 62.8665 34.0244 62.8672C34.0217 62.8678 34.0186 62.8685 34.0127 62.8691C34.0055 62.8699 33.9915 62.8705 33.9658 62.8711C33.9381 62.8717 33.9066 62.8721 33.8564 62.8721H33.8057L33.7568 62.877C33.1738 62.9353 32.6456 62.9355 32 62.9355C31.3794 62.9355 30.8237 62.9325 30.332 62.8838C30.0653 62.8118 29.8524 62.8078 29.6836 62.8076C29.4504 62.7778 29.2249 62.7599 29.0312 62.7461C28.8017 62.7297 28.6129 62.7166 28.4297 62.6904L28.3594 62.6797H28.2881C28.3031 62.6797 28.3126 62.6838 28.2285 62.667C28.1656 62.6544 28.0369 62.6289 27.876 62.6201C27.6658 62.5901 27.4553 62.5603 27.2451 62.5303C27.0212 62.4983 26.7972 62.4656 26.5732 62.4336L26.5029 62.4238H26.4717C26.4581 62.4214 26.4387 62.418 26.4043 62.4111C26.3685 62.404 26.3079 62.3916 26.2461 62.3818C26.2069 62.3756 26.1527 62.3688 26.0898 62.3643C25.6631 62.3093 25.2989 62.2063 24.7549 62.0703L24.6465 62.043C24.6258 62.0364 24.6019 62.0282 24.5771 62.0215C24.5481 62.0136 24.5068 62.0027 24.459 61.9941C24.4283 61.9886 24.3857 61.9831 24.335 61.9795C10.9326 58.5968 1 46.4071 1 32C1 14.9523 14.9523 1 32 1ZM39.1279 26.9443C39.1279 27.1976 39.0391 27.4195 38.8369 27.5928L32.5186 33.0176C32.1829 33.2922 31.6882 33.2922 31.3525 33.0176L25.0352 27.5938L25.0303 27.5889L25.0244 27.584L24.9678 27.5312C24.8402 27.3973 24.7442 27.1904 24.7441 26.9443V17.1328L23.123 18.416C19.8118 21.0375 17.8164 25.1026 17.8164 29.4404C17.8166 34.6051 20.6384 39.3554 25.1152 41.835L25.1523 41.8545C25.3948 41.9757 25.4967 42.1786 25.4482 42.4453L25.4316 42.5342V60.6484H26.4316C26.4146 60.6484 26.4078 60.644 26.4629 60.6562C26.4814 60.6604 26.5464 60.675 26.6045 60.6855C26.6399 60.692 26.6842 60.698 26.7354 60.7031C26.9088 60.7391 27.0777 60.7575 27.1855 60.7695C27.3455 60.7873 27.4193 60.7979 27.4697 60.8105L27.5889 60.8398H27.7119C27.6947 60.8398 27.6877 60.8363 27.7432 60.8486C27.7618 60.8528 27.8259 60.8674 27.8838 60.8779C27.9229 60.885 27.9732 60.8913 28.0312 60.8965C28.3265 60.9555 28.7155 61.0322 29.1201 61.0322H29.4033C31.0288 61.1599 32.7153 61.1599 34.3408 61.0322H34.7227L34.8203 61.0127C34.9244 60.9919 35.0358 60.9796 35.2031 60.9629C35.3323 60.95 35.5016 60.9314 35.6816 60.9004C35.8449 60.8918 35.9746 60.8651 36.0488 60.8486C36.073 60.8433 36.0795 60.8406 36.0918 60.8379C36.4784 60.8307 36.8121 60.7559 37.0625 60.7041C37.1187 60.6988 37.168 60.6921 37.208 60.6846C37.2741 60.6722 37.3353 60.6572 37.3623 60.6504C37.365 60.6497 37.3678 60.649 37.3701 60.6484H38.3115V42.624C38.3115 42.2779 38.503 41.9751 38.7559 41.834L38.7568 41.835C43.2336 39.3554 46.0555 34.6051 46.0557 29.4404C46.0557 25.1617 44.0569 21.1036 40.7588 18.4238L39.1279 17.0986V26.9443ZM32 2.83984C15.8957 2.83984 2.83984 15.8957 2.83984 32C2.83984 44.7909 11.0584 55.6563 22.4551 59.6318L23.7842 60.0957V43.1709L23.3311 42.875C18.8111 39.922 16.0402 34.8593 16.04 29.4404C16.04 23.3032 19.6514 17.5838 25.2383 14.9941C25.4732 14.8898 25.7675 14.8898 26.0996 15.0625C26.3979 15.2732 26.5194 15.5383 26.5195 15.8076V26.5723L26.8691 26.8711L31.3496 30.7109L32 31.2695L32.6504 30.7109L37.1309 26.8711L37.4805 26.5723V15.8076C37.4806 15.4761 37.6482 15.2005 37.8613 15.082L37.9209 15.0488L37.9756 15.0078C38.1069 14.9093 38.3532 14.8585 38.6377 14.9473L38.7617 14.9941C44.3506 17.5846 47.96 23.2414 47.96 29.4404C47.9598 34.8593 45.1889 39.922 40.6689 42.875L40.2158 43.1709V60.0244L41.54 59.5703C52.9419 55.6592 61.1602 44.7899 61.1602 32C61.1602 15.9612 48.1058 2.83984 32 2.83984Z" stroke="#08526D" stroke-width="17.4" mask="url(#path-2-inside-1_3649_5170)" class="id_anim_stroke-property2" data-duration="2.7777777777777777" data-offset="0" style="stroke-dashoffset: 0px; stroke-dasharray: 0px, 653.38px; animation: 2.77778s linear 0s 1 normal forwards running id_anim_stroke-property2;"></path>
</g>
</g>
</g>
</g>
<defs>
<linearGradient id="paint0_linear_3649_5170" x1="35.7164" y1="82.0252" x2="36.9091" y2="25.8986" gradientUnits="userSpaceOnUse">
<stop stop-color="#32B9E9"></stop>
<stop offset="0.961538" stop-color="#32B9E9" stop-opacity="0"></stop>
</linearGradient>
</defs>
<style>
        @keyframes id_anim_stroke-property2{
        
            0%{
                stroke-dashoffset: 0px; 
        stroke-dasharray: 0px, 653.3804931640625px;
            }
        
            50%{
                stroke-dashoffset: -326.69024658203125px; 
        stroke-dasharray: 326.69024658203125px, 326.69024658203125px;
            }
        
            100%{
                stroke-dashoffset: -653.3804931640625px; 
        stroke-dasharray: 653.3804931640625px, 0px;
            }
        
        }
        </style></svg>
