<svg width="64" height="64" viewBox="0 0 64 64" fill="none" xmlns="http://www.w3.org/2000/svg">
<g id="icon/integration 1">
<path id="Vector" d="M61.5 32.5L52 22L31.5 2.5L13.5 21L2 32L13 43.5L8.5 46L7 51L12 56.5L18 56L20.5 51L32.5 62L43 51L37.5 46L39 39L45.5 37.5L49.5 40L51 43.5L61.5 32.5Z" fill="url(#paint0_linear_3659_4638)"></path>
<g id="Group">
<g id="Group_2">
<g id="Group_3">
<g id="Vector_2">
<mask id="path-2-inside-1_3659_4638" fill="white">
<path d="M32.0005 1.20068C32.1604 1.2008 32.3357 1.26559 32.4946 1.42432L42.7231 11.6519L43.1021 12.0298L43.8696 10.6226C44.1915 10.0325 44.5666 9.54672 45.0728 9.04053C47.804 6.30961 52.2916 6.30965 55.0229 9.04053C57.7542 11.7719 57.7543 16.2604 55.0229 18.9917C54.5801 19.4345 54.1537 19.7775 53.6587 20.0718L53.4419 20.1948L52.0327 20.9624L62.6392 31.5679C62.813 31.7417 62.8637 31.8908 62.8638 32.064C62.8637 32.2357 62.8143 32.3833 62.644 32.5552L50.9321 44.1392L50.9302 44.1401L50.9272 44.1431C50.7318 44.3384 50.4502 44.4024 50.2017 44.312C50.0108 44.2424 49.8472 44.0767 49.7896 43.8013L49.771 43.6763C49.684 42.3152 49.1203 41.0228 48.145 40.0474C47.0763 38.9787 45.613 38.4155 44.1597 38.4155C42.7064 38.4156 41.2439 38.9789 40.1753 40.0474C39.1067 41.1161 38.5435 42.5794 38.5435 44.0327C38.5436 45.4857 39.107 46.9477 40.1753 48.0161C41.1514 48.9921 42.445 49.5567 43.8071 49.6431C44.1565 49.6731 44.3606 49.8565 44.4399 50.0747C44.5301 50.3232 44.4664 50.6039 44.271 50.7993L32.5396 62.5288C32.2628 62.7521 32.0953 62.8003 31.9995 62.8003C31.8702 62.8002 31.7545 62.7717 31.6313 62.6841L31.5054 62.5757L20.9653 51.9644L20.1948 53.3774C19.8728 53.9676 19.4967 54.4535 18.9907 54.9595C16.2593 57.6904 11.7718 57.6906 9.04053 54.9595C6.30936 52.2282 6.30942 47.7397 9.04053 45.0083C9.54652 44.5024 10.0323 44.1271 10.6226 43.8052L12.0347 43.0347L1.42139 32.4927C1.2642 32.3341 1.20048 32.159 1.20068 31.9995C1.20091 31.8394 1.26622 31.6635 1.42529 31.5044L13.0728 19.856C13.2682 19.6607 13.5499 19.5976 13.7983 19.688L13.8784 19.7231C14.0337 19.8064 14.1602 19.9621 14.2095 20.1987L14.228 20.3237C14.3148 21.6853 14.88 22.9763 15.855 23.9517C18.0516 26.1483 21.6925 26.1483 23.8892 23.9517C26.085 21.7551 26.0853 18.1159 23.8892 15.9194C22.9125 14.9428 21.6177 14.3773 20.2544 14.2915C19.9057 14.2611 19.7027 14.0794 19.6235 13.8618C19.5333 13.6135 19.5971 13.3318 19.7925 13.1362L31.5054 1.42432C31.6645 1.2654 31.8405 1.20068 32.0005 1.20068ZM22.2651 12.5767L21.8833 12.9546L23.2974 13.7251L23.5142 13.8491C24.0094 14.1434 24.4367 14.4856 24.8794 14.9282C27.6106 17.6596 27.6106 22.1481 24.8794 24.8794C22.1481 27.6105 17.6606 27.6104 14.9292 24.8794C14.4232 24.3734 14.0481 23.8876 13.7261 23.2974L13.2114 22.354L12.9536 21.8833L3.19482 31.7202L2.91455 32.0034L14.063 43.1519C14.2585 43.3473 14.3223 43.6298 14.2319 43.8784C14.1528 44.0954 13.9493 44.277 13.5991 44.3071C12.2368 44.3935 10.9432 44.9593 9.96729 45.9351C7.77095 48.1316 7.7711 51.7716 9.96729 53.9683C12.1639 56.1647 15.8039 56.1646 18.0005 53.9683C18.9754 52.9931 19.5403 51.7013 19.6274 50.3403C19.6521 50.0439 19.7875 49.8542 19.9565 49.7544C20.0379 49.7469 20.1103 49.7404 20.1694 49.7319C20.2911 49.7146 20.3219 49.7114 20.3521 49.7114C20.5251 49.7114 20.6734 49.7624 20.8472 49.936L31.9995 61.0894L42.1108 50.978L40.7026 50.2104C40.1124 49.8885 39.6266 49.5133 39.1206 49.0073C37.8046 47.6912 37.0407 45.8826 37.0405 44.0327C37.0405 42.1612 37.7546 40.3684 39.103 39.0737C40.5016 37.7312 42.2595 36.9761 44.0962 36.9761C45.9609 36.9761 47.7471 37.6851 49.0405 39.0239L49.0522 39.0376L49.0708 39.0562C49.5769 39.5622 49.9519 40.0488 50.2739 40.6392L50.7856 41.5776L51.0425 42.0474L51.4204 41.6685L61.0884 32.0005L60.8062 31.7173L49.937 20.8472C49.7415 20.6517 49.6779 20.371 49.7681 20.1226C49.8474 19.9043 50.0521 19.7212 50.4038 19.6919L51.2632 19.6206L51.2202 19.5776C52.2751 19.3562 53.2549 18.8417 54.0327 18.064C56.229 15.8674 56.229 12.2283 54.0327 10.0317C51.8361 7.83511 48.1961 7.83512 45.9995 10.0317C45.0242 11.0071 44.4595 12.2992 44.3726 13.6606C44.3432 14.0122 44.1601 14.217 43.9419 14.2964C43.6938 14.3866 43.4129 14.3228 43.2173 14.1274L32.2856 3.1958L32.0034 2.91455L22.2651 12.5767Z"></path>
</mask>
<path d="M32.0005 1.20068C32.1604 1.2008 32.3357 1.26559 32.4946 1.42432L42.7231 11.6519L43.1021 12.0298L43.8696 10.6226C44.1915 10.0325 44.5666 9.54672 45.0728 9.04053C47.804 6.30961 52.2916 6.30965 55.0229 9.04053C57.7542 11.7719 57.7543 16.2604 55.0229 18.9917C54.5801 19.4345 54.1537 19.7775 53.6587 20.0718L53.4419 20.1948L52.0327 20.9624L62.6392 31.5679C62.813 31.7417 62.8637 31.8908 62.8638 32.064C62.8637 32.2357 62.8143 32.3833 62.644 32.5552L50.9321 44.1392L50.9302 44.1401L50.9272 44.1431C50.7318 44.3384 50.4502 44.4024 50.2017 44.312C50.0108 44.2424 49.8472 44.0767 49.7896 43.8013L49.771 43.6763C49.684 42.3152 49.1203 41.0228 48.145 40.0474C47.0763 38.9787 45.613 38.4155 44.1597 38.4155C42.7064 38.4156 41.2439 38.9789 40.1753 40.0474C39.1067 41.1161 38.5435 42.5794 38.5435 44.0327C38.5436 45.4857 39.107 46.9477 40.1753 48.0161C41.1514 48.9921 42.445 49.5567 43.8071 49.6431C44.1565 49.6731 44.3606 49.8565 44.4399 50.0747C44.5301 50.3232 44.4664 50.6039 44.271 50.7993L32.5396 62.5288C32.2628 62.7521 32.0953 62.8003 31.9995 62.8003C31.8702 62.8002 31.7545 62.7717 31.6313 62.6841L31.5054 62.5757L20.9653 51.9644L20.1948 53.3774C19.8728 53.9676 19.4967 54.4535 18.9907 54.9595C16.2593 57.6904 11.7718 57.6906 9.04053 54.9595C6.30936 52.2282 6.30942 47.7397 9.04053 45.0083C9.54652 44.5024 10.0323 44.1271 10.6226 43.8052L12.0347 43.0347L1.42139 32.4927C1.2642 32.3341 1.20048 32.159 1.20068 31.9995C1.20091 31.8394 1.26622 31.6635 1.42529 31.5044L13.0728 19.856C13.2682 19.6607 13.5499 19.5976 13.7983 19.688L13.8784 19.7231C14.0337 19.8064 14.1602 19.9621 14.2095 20.1987L14.228 20.3237C14.3148 21.6853 14.88 22.9763 15.855 23.9517C18.0516 26.1483 21.6925 26.1483 23.8892 23.9517C26.085 21.7551 26.0853 18.1159 23.8892 15.9194C22.9125 14.9428 21.6177 14.3773 20.2544 14.2915C19.9057 14.2611 19.7027 14.0794 19.6235 13.8618C19.5333 13.6135 19.5971 13.3318 19.7925 13.1362L31.5054 1.42432C31.6645 1.2654 31.8405 1.20068 32.0005 1.20068ZM22.2651 12.5767L21.8833 12.9546L23.2974 13.7251L23.5142 13.8491C24.0094 14.1434 24.4367 14.4856 24.8794 14.9282C27.6106 17.6596 27.6106 22.1481 24.8794 24.8794C22.1481 27.6105 17.6606 27.6104 14.9292 24.8794C14.4232 24.3734 14.0481 23.8876 13.7261 23.2974L13.2114 22.354L12.9536 21.8833L3.19482 31.7202L2.91455 32.0034L14.063 43.1519C14.2585 43.3473 14.3223 43.6298 14.2319 43.8784C14.1528 44.0954 13.9493 44.277 13.5991 44.3071C12.2368 44.3935 10.9432 44.9593 9.96729 45.9351C7.77095 48.1316 7.7711 51.7716 9.96729 53.9683C12.1639 56.1647 15.8039 56.1646 18.0005 53.9683C18.9754 52.9931 19.5403 51.7013 19.6274 50.3403C19.6521 50.0439 19.7875 49.8542 19.9565 49.7544C20.0379 49.7469 20.1103 49.7404 20.1694 49.7319C20.2911 49.7146 20.3219 49.7114 20.3521 49.7114C20.5251 49.7114 20.6734 49.7624 20.8472 49.936L31.9995 61.0894L42.1108 50.978L40.7026 50.2104C40.1124 49.8885 39.6266 49.5133 39.1206 49.0073C37.8046 47.6912 37.0407 45.8826 37.0405 44.0327C37.0405 42.1612 37.7546 40.3684 39.103 39.0737C40.5016 37.7312 42.2595 36.9761 44.0962 36.9761C45.9609 36.9761 47.7471 37.6851 49.0405 39.0239L49.0522 39.0376L49.0708 39.0562C49.5769 39.5622 49.9519 40.0488 50.2739 40.6392L50.7856 41.5776L51.0425 42.0474L51.4204 41.6685L61.0884 32.0005L60.8062 31.7173L49.937 20.8472C49.7415 20.6517 49.6779 20.371 49.7681 20.1226C49.8474 19.9043 50.0521 19.7212 50.4038 19.6919L51.2632 19.6206L51.2202 19.5776C52.2751 19.3562 53.2549 18.8417 54.0327 18.064C56.229 15.8674 56.229 12.2283 54.0327 10.0317C51.8361 7.83511 48.1961 7.83512 45.9995 10.0317C45.0242 11.0071 44.4595 12.2992 44.3726 13.6606C44.3432 14.0122 44.1601 14.217 43.9419 14.2964C43.6938 14.3866 43.4129 14.3228 43.2173 14.1274L32.2856 3.1958L32.0034 2.91455L22.2651 12.5767Z" stroke="#08526D" stroke-width="3" mask="url(#path-2-inside-1_3659_4638)" class="id_anim_stroke-property2" data-duration="2.7777777777777777" data-offset="0" style="stroke-dashoffset: 0px; stroke-dasharray: 0px, 484.545px; animation: 2.77778s linear 0s 1 normal forwards running id_anim_stroke-property2;"></path>
</g>
</g>
</g>
</g>
</g>
<defs>
<linearGradient id="paint0_linear_3659_4638" x1="34" y1="85" x2="35.2374" y2="27.5913" gradientUnits="userSpaceOnUse">
<stop stop-color="#32B9E9"></stop>
<stop offset="0.961538" stop-color="#32B9E9" stop-opacity="0"></stop>
</linearGradient>
</defs>
<style>
        @keyframes id_anim_stroke-property2{
        
            0%{
                stroke-dashoffset: 0px; 
        stroke-dasharray: 0px, 484.5454406738281px;
            }
        
            50%{
                stroke-dashoffset: -242.27272033691406px; 
        stroke-dasharray: 242.27272033691406px, 242.27272033691406px;
            }
        
            100%{
                stroke-dashoffset: -484.5454406738281px; 
        stroke-dasharray: 484.5454406738281px, 0px;
            }
        
        }
        </style></svg>
