<svg width="64" height="64" viewBox="0 0 64 64" fill="none" xmlns="http://www.w3.org/2000/svg">
<g id="icon/prototype 1">
<g id="Group">
<g id="Group_2">
<path id="Vector" d="M49 15H6C3.79086 15 2 16.7909 2 19V48C2 50.2091 3.79086 52 6 52H49C51.2091 52 53 50.2091 53 48V19C53 16.7909 51.2091 15 49 15Z" fill="url(#paint0_linear_3606_5767)"></path>
<path id="Rectangle 119" d="M23 36C23 34.3431 24.3431 33 26 33H62V39H26C24.3431 39 23 37.6569 23 36V36Z" fill="white"></path>
<path id="Vector_2" d="M10.1211 11.7065C10.133 11.7082 10.1479 11.7142 10.1621 11.73C10.1778 11.7476 10.1826 11.7653 10.1826 11.7759V13.7603C10.183 14.7809 11.01 15.6099 12.0322 15.6099H51.9678C51.9835 15.6099 51.9989 15.6154 52.0146 15.6313C52.0324 15.6494 52.0381 15.6687 52.0381 15.6802V30.6558C52.0381 31.6141 52.7662 32.4016 53.6982 32.4966L53.8877 32.5054H60.1367L60.3701 32.5171C61.3652 32.6225 62.1121 33.4651 62.0869 34.4321C62.0868 34.4342 62.087 34.4365 62.0869 34.439L62.0859 34.4956V37.8237C62.0859 38.0075 62.0592 38.1862 62.0098 38.356V34.4321C62.0098 33.4102 61.1814 32.5827 60.1602 32.5825H27.0723C26.8292 32.5825 26.5836 32.6296 26.3525 32.7271L26.3271 32.7378L26.3027 32.7495L26.2871 32.7573L26.2803 32.7612L26.1904 32.8071L26.1729 32.8159L26.1553 32.8257L26.1416 32.8335L26.1309 32.8403L23.3145 34.5044C22.7531 34.8367 22.4062 35.441 22.4062 36.0962C22.4064 36.7096 22.7104 37.2797 23.2119 37.6226L23.3145 37.688L26.1309 39.3521C26.4141 39.5194 26.7391 39.6099 27.0723 39.6099H60.8809C60.7193 39.6757 60.5465 39.7186 60.3662 39.7378L60.1357 39.7505H53.8877L53.6982 39.7593C52.7662 39.8543 52.0381 40.6418 52.0381 41.6001V52.1987L52.0361 52.2329C52.0345 52.2449 52.0294 52.2597 52.0137 52.2739C51.9961 52.2896 51.9784 52.2944 51.9678 52.2944H8.32031C4.73404 52.2944 1.84961 49.41 1.84961 45.8237V19.9683C1.84961 15.4278 5.55646 11.7151 10.0947 11.7056L10.1211 11.7065ZM12.0322 15.686C11.01 15.686 10.183 16.515 10.1826 17.5356V39.3599C10.1826 39.3749 10.1777 39.3891 10.1641 39.4038C10.1492 39.4199 10.1315 39.4263 10.1191 39.4282L10.0859 39.4302H8.32031C4.80261 39.4302 1.92691 42.3062 1.92676 45.8237L1.93457 46.1519C2.10674 49.5186 4.91261 52.2173 8.32031 52.2173H50.1328L50.1523 52.2163L50.2549 52.2114L50.2783 52.2104L50.3008 52.2085C51.2339 52.1132 51.9619 51.3259 51.9619 50.3677V41.5356L51.9531 41.3462C51.8581 40.4138 51.0696 39.6864 50.1123 39.686H26.624C26.6147 39.686 26.6073 39.6843 26.6016 39.6841H26.6006L20.5947 36.106L20.5771 36.0952L20.5957 36.0854L26.5918 32.5132L26.6025 32.5063C26.6077 32.5061 26.6148 32.5054 26.624 32.5054H50.1328L50.1523 32.5044L50.2549 32.4995L50.2783 32.4985L50.3008 32.4966C51.2339 32.4013 51.9619 31.614 51.9619 30.6558V17.5356L51.9531 17.3462C51.8581 16.4138 51.0696 15.6864 50.1123 15.686H12.0322ZM9.36133 12.4683C8.89064 12.1181 8.28185 12.0128 7.72363 12.1802C4.37861 13.1842 1.99023 16.3389 1.99023 19.9683V38.8481C1.99039 39.4845 2.31722 40.0723 2.84863 40.4097L2.95801 40.4741C3.55281 40.7967 4.27884 40.7701 4.84863 40.3999C5.85966 39.7428 7.04939 39.354 8.25586 39.354C9.21409 39.354 10.0011 38.6265 10.0967 37.6938L10.0986 37.6704L10.0996 37.647L10.1045 37.5444L10.1055 37.5249V13.9517L10.0928 13.7349C10.0421 13.3058 9.84288 12.9069 9.52832 12.6089L9.36133 12.4683Z" stroke="#08526D" stroke-width="1.7" class="id_anim_stroke-property2" data-duration="2.7777777777777777" data-offset="0" style="stroke-dashoffset: 0px; stroke-dasharray: 0px, 563.469px; animation: 2.77778s linear 0s 1 normal forwards running id_anim_stroke-property2;"></path>
</g>
</g>
</g>
<defs>
<linearGradient id="paint0_linear_3606_5767" x1="33.0644" y1="74.7481" x2="30.0087" y2="26.4526" gradientUnits="userSpaceOnUse">
<stop stop-color="#32B9E9"></stop>
<stop offset="0.961538" stop-color="#32B9E9" stop-opacity="0"></stop>
</linearGradient>
</defs>
<style>
        @keyframes id_anim_stroke-property2{
        
            0%{
                stroke-dashoffset: 0px; 
        stroke-dasharray: 0px, 563.46923828125px;
            }
        
            50%{
                stroke-dashoffset: -281.734619140625px; 
        stroke-dasharray: 281.734619140625px, 281.734619140625px;
            }
        
            100%{
                stroke-dashoffset: -563.46923828125px; 
        stroke-dasharray: 563.46923828125px, 0px;
            }
        
        }
        </style></svg>
