<svg width="64" height="64" viewBox="0 0 64 64" fill="none" xmlns="http://www.w3.org/2000/svg">
<g id="icon/consulting 1">
<g id="Group">
<path id="Vector" d="M25.6 27.7759C24.448 27.7759 23.488 28.7359 23.488 29.8879C23.488 31.0399 24.448 31.9999 25.6 31.9999C26.752 31.9999 27.712 31.0399 27.712 29.8879C27.712 28.7359 26.752 27.7759 25.6 27.7759Z" fill="#08526D"></path>
<path id="Vector_2" d="M16.768 27.7759C15.616 27.7759 14.656 28.7359 14.656 29.8879C14.656 31.0399 15.616 31.9999 16.768 31.9999C17.92 31.9999 18.88 31.0399 18.88 29.8879C18.88 28.7359 17.92 27.7759 16.768 27.7759Z" fill="#08526D"></path>
<path id="Vector_3" d="M34.496 31.9359C35.648 31.9359 36.608 30.9759 36.608 29.8239C36.608 28.6719 35.648 27.7119 34.496 27.7119C33.344 27.7119 32.384 28.6719 32.384 29.8239C32.384 30.9759 33.28 31.9359 34.496 31.9359Z" fill="#08526D"></path>
<path id="Vector_4" d="M51.3123 11H19.2248C9.7118 11 2 18.7118 2 28.2248C2 30.0866 2.30185 31.9361 2.8938 33.7013L3.14446 34.4488C3.71046 36.1366 4.56722 37.7124 5.67603 39.1051L6.76291 40.4703C8.21135 42.2896 9 44.5463 9 46.8718V47.6822C9 47.8934 8.97688 48.104 8.93105 48.3103L8.59094 49.8408C8.30834 51.1125 9.40202 52.2663 10.687 52.0522C10.8941 52.0176 11.0938 51.9479 11.2774 51.8459L14.6404 49.9776C15.2011 49.6661 15.6579 49.1967 15.9542 48.6278C16.5835 47.4194 17.8954 46.727 19.2481 46.8894L26.4932 47.7591C27.824 47.9188 29.1709 47.8842 30.4918 47.6563L33.8868 47.0704C35.6209 46.7712 37.3876 46.7093 39.1384 46.8865L40.9219 47.067C41.6367 47.1393 42.3583 47.1058 43.0634 46.9676L45.1101 46.5665C46.8504 46.2253 48.6209 46.9934 49.5608 48.4973C50.1622 49.4595 51.1211 50.1433 52.2267 50.3985L54.882 51.0112C55.7879 51.2203 56.5614 50.3359 56.2337 49.466C56.0792 49.0558 56 48.6212 56 48.1829V46.9572C56 44.5784 56.8179 42.272 58.3164 40.4246L59.0444 39.5272C60.6493 37.5487 61.6675 35.16 61.9835 32.6321L62.5 28.5L63 22.6876C63 16.2327 57.7673 11 51.3123 11Z" fill="url(#paint0_linear_3606_5786)"></path>
</g>
<path id="Ellipse 17" d="M25.5 10.75C38.7855 10.75 49.25 19.2953 49.25 29.5C49.25 39.7047 38.7855 48.25 25.5 48.25C12.2145 48.25 1.75 39.7047 1.75 29.5C1.75 19.2953 12.2145 10.75 25.5 10.75Z" stroke="#08526D" stroke-width="1.5" class="id_anim_stroke-property4" data-duration="2.7777777777777777" data-offset="0" style="stroke-dashoffset: 0px; stroke-dasharray: 0px, 133.979px; animation: 2.77778s linear 0s 1 normal forwards running id_anim_stroke-property4;"></path>
<path id="Ellipse 18" d="M34.5 47C48.0275 47.306 62.7609 41.4676 62.9795 31.8051C63.1981 22.1426 52.4091 14.0615 38.8816 13.7554" stroke="#08526D" stroke-width="1.5" stroke-linecap="round" class="id_anim_stroke-property5" data-duration="2.7777777777777777" data-offset="0" style="stroke-dashoffset: 0px; stroke-dasharray: 0px, 68.412px; animation: 2.77778s linear 0s 1 normal forwards running id_anim_stroke-property5;"></path>
<path id="Vector 11" d="M8.82968 43.7529C9.12716 45.8011 9.4544 50.2487 8.38345 51.6532C8.27219 51.7991 8.17282 51.9273 8.08422 52.0396C7.62043 52.6275 7.9618 52.5387 8.70632 52.4585C11.4263 52.1656 15.4748 50.9161 16.4155 47.463" stroke="#08526D" stroke-width="1.5" stroke-linecap="round" class="id_anim_stroke-property6" data-duration="2.7777777777777777" data-offset="0" style="stroke-dashoffset: 0px; stroke-dasharray: 0px, 19.5996px; animation: 2.77778s linear 0s 1 normal forwards running id_anim_stroke-property6;"></path>
<path id="Vector 12" d="M56.155 42.0073C55.8452 44.0858 55.5152 48.5973 56.6734 50.0159C56.8155 50.1899 56.9396 50.339 57.0478 50.4661C57.522 51.0234 57.1814 50.9103 56.4524 50.8455C53.5276 50.5858 49.0607 49.3543 48.0181 45.8088" stroke="#08526D" stroke-width="1.5" stroke-linecap="round" class="id_anim_stroke-property7" data-duration="2.7777777777777777" data-offset="0" style="stroke-dashoffset: 0px; stroke-dasharray: 0px, 20.4394px; animation: 2.77778s linear 0s 1 normal forwards running id_anim_stroke-property7;"></path>
</g>
<defs>
<linearGradient id="paint0_linear_3606_5786" x1="39.1554" y1="79.3036" x2="35.8155" y2="24.0735" gradientUnits="userSpaceOnUse">
<stop stop-color="#32B9E9"></stop>
<stop offset="0.961538" stop-color="#32B9E9" stop-opacity="0"></stop>
</linearGradient>
</defs>
<style>
        @keyframes id_anim_stroke-property4{
        
            0%{
                stroke-dashoffset: 0px; 
        stroke-dasharray: 0px, 133.97854614257812px;
            }
        
            50%{
                stroke-dashoffset: -66.98927307128906px; 
        stroke-dasharray: 66.98927307128906px, 66.98927307128906px;
            }
        
            100%{
                stroke-dashoffset: -133.97854614257812px; 
        stroke-dasharray: 133.97854614257812px, 0px;
            }
        
        }
         
        @keyframes id_anim_stroke-property5{
        
            0%{
                stroke-dashoffset: 0px; 
        stroke-dasharray: 0px, 68.41199493408203px;
            }
        
            50%{
                stroke-dashoffset: -34.205997467041016px; 
        stroke-dasharray: 34.205997467041016px, 34.205997467041016px;
            }
        
            100%{
                stroke-dashoffset: -68.41199493408203px; 
        stroke-dasharray: 68.41199493408203px, 0px;
            }
        
        }
         
        @keyframes id_anim_stroke-property6{
        
            0%{
                stroke-dashoffset: 0px; 
        stroke-dasharray: 0px, 19.599632263183594px;
            }
        
            50%{
                stroke-dashoffset: -9.799816131591797px; 
        stroke-dasharray: 9.799816131591797px, 9.799816131591797px;
            }
        
            100%{
                stroke-dashoffset: -19.599632263183594px; 
        stroke-dasharray: 19.599632263183594px, 0px;
            }
        
        }
         
        @keyframes id_anim_stroke-property7{
        
            0%{
                stroke-dashoffset: 0px; 
        stroke-dasharray: 0px, 20.439441680908203px;
            }
        
            50%{
                stroke-dashoffset: -10.219720840454102px; 
        stroke-dasharray: 10.219720840454102px, 10.219720840454102px;
            }
        
            100%{
                stroke-dashoffset: -20.439441680908203px; 
        stroke-dasharray: 20.439441680908203px, 0px;
            }
        
        }
        </style></svg>
