<svg width="80" height="80" viewBox="0 0 80 80" fill="none" xmlns="http://www.w3.org/2000/svg">
<g id="icons/integr">
<g id="handshake 1">
<path id="Vector 7" d="M23 46.3538L16 35.8923V27H61.5L63 40.6L61 44.5L60.5 50.5385H55.5L55 53.6769L52.5 55L50 54.5L47.5 57.5L42 56.5L41.5 60L38 61L23 46.3538Z" fill="url(#paint0_linear_3779_8500)"></path>
<path id="Vector 10" d="M40.5 23.5L40.2947 23.0893C40.1005 22.7011 39.8245 22.3596 39.4855 22.0884L38.3217 21.1574C37.7898 20.7318 37.1289 20.5 36.4477 20.5H31.7517C31.2598 20.5 30.7772 20.3663 30.3554 20.1133C29.2699 19.4619 27.8782 19.6477 27.0015 20.5609L16.5 31.5C16.2115 31.7885 16.1738 32.2434 16.411 32.5754L18.009 34.8126C18.3301 35.2621 18.5208 35.7916 18.5602 36.3426L18.9203 41.3837C18.9717 42.1037 19.281 42.781 19.7913 43.2913L35.6558 59.1558C35.8838 59.3838 36.147 59.5735 36.4354 59.7177L37.584 60.292C37.8597 60.4298 38.1543 60.5267 38.4617 60.5488C39.1438 60.5979 40.4042 60.5958 41 60C42 59 41.5 56 41.5 56M40.5 23.5L33.0227 30.9773C31.8904 32.1096 31.847 33.9317 32.9242 35.1166L33.9468 36.2415C35.075 37.4825 37.0014 37.5575 38.2227 36.408L42.4459 32.4333C43.6002 31.3469 45.4006 31.346 46.556 32.4314L61 46M40.5 23.5H46.3842C46.7905 23.5 47.1926 23.4175 47.566 23.2574L50.1851 22.1349C50.3931 22.0458 50.5822 21.9178 50.7422 21.7578C51.4369 21.0631 52.5631 21.0631 53.2578 21.7578L62.809 31.309C63.5202 32.0202 63.6966 33.1069 63.2467 34.0066C63.0845 34.3311 63 34.6889 63 35.0517V39.5917C63 40.1839 62.8247 40.763 62.4962 41.2558L61.5038 42.7442C61.1753 43.237 61 43.8161 61 44.4083V46M61 46L61.152 47.8241C61.3227 49.8727 59.4291 51.4823 57.4348 50.9837L55.5 50.5M55.5 50.5L44.5 39.5M55.5 50.5L55.084 52.3718C54.7518 53.867 53.3465 54.8718 51.8242 54.7027L50.241 54.5268M50.241 54.5268L39 43.5M50.241 54.5268C50.241 54.5268 48.741 57.0268 47.241 57.5268C45.741 58.0268 41.5 56 41.5 56M41.5 56L35 49" stroke="#08526D" stroke-width="1.5" class="id_anim_stroke-property1" data-duration="2.7777777777777777" data-offset="0" style="stroke-dashoffset: 0px; stroke-dasharray: 0px, 238px; animation: 2.77778s linear 0s 1 normal forwards running id_anim_stroke-property1;"></path>
</g>
</g>
<defs>
<linearGradient id="paint0_linear_3779_8500" x1="40.4786" y1="62.0462" x2="40.4786" y2="26.9945" gradientUnits="userSpaceOnUse">
<stop offset="0.01" stop-color="#ADE3F6"></stop>
<stop offset="0.48291" stop-color="#ADE3F6" stop-opacity="0"></stop>
</linearGradient>
</defs>
<style>
        @keyframes id_anim_stroke-property1{
        
            0%{
                stroke-dashoffset: 0px; 
        stroke-dasharray: 0px, 237.99989318847656px;
            }
        
            50%{
                stroke-dashoffset: -118.99994659423828px; 
        stroke-dasharray: 118.99994659423828px, 118.99994659423828px;
            }
        
            100%{
                stroke-dashoffset: -237.99989318847656px; 
        stroke-dasharray: 237.99989318847656px, 0px;
            }
        
        }
        </style></svg>
