<svg width="80" height="80" viewBox="0 0 80 80" fill="none" xmlns="http://www.w3.org/2000/svg">
<g id="icons/team_augmentation">
<g id="team_augmentation_pink 1">
<g id="Group">
<g id="Group_2">
<path id="Vector" d="M31.875 63.5625C32.2 59.7438 33.0125 54.8688 33.5 53.5688C33.7437 52.7563 34.3938 52.025 35.2063 51.7L44.1437 48.125L47.0688 52.675C47.3125 53.0812 47.7188 53.2437 48.125 53.2437C48.5312 53.2437 49.0187 53 49.1812 52.675L52.1063 48.125L61.0438 51.7C61.8563 52.025 62.5063 52.7563 62.75 53.5688C63.1562 54.95 63.9688 59.825 64.2938 63.5625H31.875Z" fill="url(#paint0_linear_3764_6949)"></path>
<path id="Vector_2" d="M33.9062 26.9187V18.0625C33.9062 15.7875 32.1187 14 29.8438 14H18.0625C15.7875 14 14 15.7875 14 18.0625V26.9187C14 29.1937 15.7875 30.9812 18.0625 30.9812H29.8438C32.0375 30.9812 33.9062 29.1937 33.9062 26.9187Z" fill="#ADE3F6"></path>
<path id="Vector_3" d="M23.9126 18.5625C24.0427 18.5625 24.1122 18.6039 24.1479 18.6396C24.1837 18.6754 24.2251 18.7449 24.2251 18.875V22.2188H27.5688C27.699 22.2188 27.7684 22.2601 27.8042 22.2959C27.84 22.3317 27.8813 22.4011 27.8813 22.5312C27.8813 22.6614 27.84 22.7308 27.8042 22.7666C27.7684 22.8024 27.699 22.8438 27.5688 22.8438H24.2251V26.1875C24.2251 26.3176 24.1837 26.3871 24.1479 26.4229C24.1122 26.4586 24.0427 26.5 23.9126 26.5C23.7825 26.5 23.713 26.4586 23.6772 26.4229C23.6414 26.3871 23.6001 26.3176 23.6001 26.1875V22.8438H20.2563C20.1262 22.8438 20.0568 22.8024 20.021 22.7666C19.9852 22.7308 19.9438 22.6614 19.9438 22.5312C19.9438 22.4011 19.9852 22.3317 20.021 22.2959C20.0568 22.2601 20.1262 22.2188 20.2563 22.2188H23.6001V18.875C23.6001 18.7449 23.6414 18.6754 23.6772 18.6396C23.713 18.6039 23.7825 18.5625 23.9126 18.5625Z" stroke="#08526D" class="id_anim_stroke-property2" data-duration="2.7777777777777777" data-offset="0" style="stroke-dashoffset: 0px; stroke-dasharray: 0px, 30.8147px; animation: 2.77778s linear 0s 1 normal forwards running id_anim_stroke-property2;"></path>
<path id="Vector_4" d="M30.1687 30.0186C32.6631 30.0186 34.3572 30.7936 35.3728 32.1719L35.3748 32.1748C36.0187 33.0334 36.3308 34.2135 36.3308 35.6934V35.7744C36.3308 35.8795 36.3123 36.1319 36.2908 36.5518C36.2763 36.8332 36.2649 37.1721 36.2576 37.5498H35.6287C35.6296 37.2756 35.6284 36.9904 35.6345 36.7207C35.6448 36.2702 35.6651 35.8979 35.699 35.6943L35.7058 35.6533V35.6123C35.7058 34.4091 35.4493 33.3282 34.8914 32.4912L34.8816 32.4775C33.9378 31.1565 32.365 30.5625 30.1687 30.5625C29.729 30.5625 29.4352 30.6061 29.2048 30.6738C29.0909 30.7073 29.0018 30.7447 28.9324 30.7744C28.8567 30.8068 28.8272 30.8202 28.7917 30.832L28.7283 30.8525L28.6726 30.8896C28.504 31.0021 28.2744 31.1309 27.7312 31.1309C27.0997 31.1309 26.5743 31.3156 26.1541 31.6396C25.7407 31.9585 25.457 32.3906 25.2615 32.8447C24.8752 33.7423 24.7937 34.8207 24.7937 35.6123C24.7937 35.8296 24.8148 36.2926 24.8347 36.751C24.8459 37.0087 24.8564 37.2674 24.864 37.4932L24.2371 37.5244C24.2292 37.3019 24.2193 37.0567 24.2087 36.8193C24.1881 36.3552 24.1687 35.9229 24.1687 35.6934C24.1687 34.0119 24.5413 32.7258 25.1599 31.874C25.7655 31.0403 26.63 30.5869 27.7312 30.5869C27.7903 30.5869 27.9018 30.5909 28.0154 30.5625C28.1219 30.5358 28.2201 30.4831 28.28 30.4531L28.2966 30.4443L28.3132 30.4346C28.4982 30.3236 28.6787 30.2267 28.9431 30.1523C29.213 30.0764 29.5919 30.0186 30.1687 30.0186Z" stroke="#08526D" class="id_anim_stroke-property3" data-duration="2.7777777777777777" data-offset="0" style="stroke-dashoffset: 0px; stroke-dasharray: 0px, 45.0325px; animation: 2.77778s linear 0s 1 normal forwards running id_anim_stroke-property3;"></path>
<g id="Vector_5">
<mask id="path-5-inside-1_3764_6949" fill="white">
<path d="M30.2499 44.5504C29.5186 44.5504 28.9499 44.4691 28.5436 44.1441C28.3811 43.9816 28.1374 43.8191 27.8936 43.5754C27.3249 43.0066 26.8374 42.3566 26.5124 41.8691L26.1874 40.8129C26.1061 40.5691 25.9436 40.3254 25.7811 40.1629C25.5374 39.9191 25.2124 39.4316 25.1311 39.0254C25.0499 38.7816 25.1311 38.7004 25.1311 38.6191C25.3749 38.4566 25.6186 38.2129 25.6186 37.8879C25.6186 37.2379 25.7811 36.7504 25.9436 36.3441C26.1874 35.9379 26.5124 35.6941 26.9999 35.4504C28.0561 34.9629 29.7624 34.8004 32.3624 35.0441C32.5249 35.0441 32.6874 35.0441 32.8499 34.9629C33.4186 34.6379 33.7436 34.6379 33.9061 34.7191C34.0686 34.8004 34.3124 34.9629 34.4749 35.3691C34.8811 36.1816 34.9624 37.4004 34.9624 37.9691C34.9624 38.2941 35.1249 38.5379 35.4499 38.7004C35.4499 38.7816 35.4499 38.9441 35.4499 39.1066C35.3686 39.5129 35.1249 40.0004 34.7999 40.2441C34.6374 40.4066 34.4749 40.6504 34.3936 40.8941L33.9874 42.0316C33.7436 42.5191 33.1749 43.1691 32.6061 43.7379C32.4436 43.9004 32.1999 44.1441 31.9561 44.3066C31.5499 44.4691 30.9811 44.5504 30.2499 44.5504ZM27.5686 45.5254C28.3811 46.1754 29.5186 46.2566 30.2499 46.2566C30.9811 46.2566 32.1186 46.1754 32.9311 45.5254C33.1749 45.3629 33.4186 45.1191 33.6624 44.8754C34.3124 44.2254 34.9624 43.4129 35.3686 42.6816C35.3686 42.6816 35.3686 42.6004 35.4499 42.6004L35.8561 41.3816C36.4249 40.8941 36.8311 40.0816 36.9936 39.3504C37.0749 38.7816 37.1561 37.9691 36.5874 37.4004C36.5874 36.6691 36.4249 35.5316 35.9374 34.5566C35.6936 33.9879 35.2061 33.3379 34.4749 33.0941C33.8249 32.8504 33.0124 32.9316 32.2811 33.3379C29.6811 33.0941 27.6499 33.2566 26.2686 33.9066C25.5374 34.2316 24.8874 34.8004 24.5624 35.4504C24.2374 36.0191 24.0749 36.6691 23.9936 37.4004C23.4249 37.9691 23.4249 38.7816 23.5874 39.3504C23.7499 40.0816 24.1561 40.8129 24.7249 41.3816L25.1311 42.6004C25.1311 42.6004 25.1311 42.6816 25.2124 42.6816C25.6186 43.4129 26.2686 44.2254 26.9186 44.8754M27.5686 45.5254C27.3249 45.3629 27.0811 45.1191 26.8374 44.8754L27.5686 45.5254Z"></path>
</mask>
<path d="M28.5436 44.1441L27.8365 44.8512L27.8757 44.8904L27.9189 44.925L28.5436 44.1441ZM26.5124 41.8691L25.5566 42.1632L25.5995 42.3026L25.6803 42.4238L26.5124 41.8691ZM26.1874 40.8129L27.1432 40.5188L27.1397 40.5077L27.1361 40.4967L26.1874 40.8129ZM25.1311 39.0254L26.1117 38.8293L26.0995 38.7682L26.0798 38.7092L25.1311 39.0254ZM25.1311 38.6191L24.5764 37.7871L24.1311 38.084V38.6191H25.1311ZM25.9436 36.3441L25.0861 35.8296L25.0449 35.8984L25.0152 35.9728L25.9436 36.3441ZM26.9999 35.4504L26.5808 34.5424L26.5666 34.549L26.5527 34.556L26.9999 35.4504ZM32.3624 35.0441L32.269 36.0398L32.3156 36.0441H32.3624V35.0441ZM32.8499 34.9629L33.2971 35.8573L33.3219 35.8449L33.346 35.8311L32.8499 34.9629ZM34.4749 35.3691L33.5464 35.7405L33.5619 35.7792L33.5805 35.8164L34.4749 35.3691ZM35.4499 38.7004H36.4499V38.0824L35.8971 37.806L35.4499 38.7004ZM35.4499 39.1066L36.4305 39.3028L36.4499 39.2057V39.1066H35.4499ZM34.7999 40.2441L34.1999 39.4441L34.143 39.4868L34.0928 39.537L34.7999 40.2441ZM34.3936 40.8941L35.3354 41.2305L35.339 41.2205L35.3423 41.2104L34.3936 40.8941ZM33.9874 42.0316L34.8818 42.4789L34.9088 42.4248L34.9291 42.368L33.9874 42.0316ZM31.9561 44.3066L32.3275 45.2351L32.4242 45.1964L32.5108 45.1387L31.9561 44.3066ZM32.9311 45.5254L32.3764 44.6933L32.3403 44.7174L32.3064 44.7445L32.9311 45.5254ZM35.3686 42.6816L36.2428 43.1673L36.3686 42.9408L36.3686 42.6816L35.3686 42.6816ZM35.4499 42.6004V43.6004H36.1706L36.3986 42.9166L35.4499 42.6004ZM35.8561 41.3816L35.2053 40.6224L34.995 40.8026L34.9075 41.0654L35.8561 41.3816ZM36.9936 39.3504L37.9698 39.5673L37.9782 39.5298L37.9836 39.4918L36.9936 39.3504ZM36.5874 37.4004H35.5874V37.8146L35.8803 38.1075L36.5874 37.4004ZM35.9374 34.5566L35.0182 34.9506L35.0298 34.9776L35.043 35.0039L35.9374 34.5566ZM34.4749 33.0941L34.1238 34.0305L34.1411 34.037L34.1587 34.0428L34.4749 33.0941ZM32.2811 33.3379L32.1878 34.3335L32.4961 34.3624L32.7668 34.212L32.2811 33.3379ZM26.2686 33.9066L26.6748 34.8205L26.6847 34.8161L26.6944 34.8115L26.2686 33.9066ZM24.5624 35.4504L25.4306 35.9465L25.4444 35.9224L25.4568 35.8976L24.5624 35.4504ZM23.9936 37.4004L24.7007 38.1075L24.9488 37.8595L24.9875 37.5108L23.9936 37.4004ZM23.5874 39.3504L24.5636 39.1335L24.5571 39.1043L24.5489 39.0757L23.5874 39.3504ZM24.7249 41.3816L25.6736 41.0654L25.5989 40.8415L25.432 40.6745L24.7249 41.3816ZM25.1311 42.6004L26.1311 42.6004L26.1311 42.4381L26.0798 42.2842L25.1311 42.6004ZM25.2124 42.6816L26.0865 42.196L25.8008 41.6816H25.2124V42.6816ZM26.2115 45.5825C26.6021 45.973 27.2352 45.973 27.6257 45.5825C28.0163 45.192 28.0163 44.5588 27.6257 44.1683L26.9186 44.8754L26.2115 45.5825ZM26.8374 44.8754L27.5018 44.128L26.1303 45.5825L26.8374 44.8754ZM30.2499 44.5504V43.5504C29.5357 43.5504 29.2834 43.4553 29.1683 43.3633L28.5436 44.1441L27.9189 44.925C28.6164 45.483 29.5016 45.5504 30.2499 45.5504V44.5504ZM28.5436 44.1441L29.2507 43.437C29.1251 43.3113 28.9739 43.1912 28.8823 43.1163C28.774 43.0277 28.6851 42.9526 28.6007 42.8683L27.8936 43.5754L27.1865 44.2825C27.346 44.4419 27.5007 44.57 27.6159 44.6642C27.7478 44.7721 27.7997 44.8144 27.8365 44.8512L28.5436 44.1441ZM27.8936 43.5754L28.6007 42.8683C28.0926 42.3602 27.6459 41.7667 27.3444 41.3144L26.5124 41.8691L25.6803 42.4238C26.0289 42.9466 26.5571 43.6531 27.1865 44.2825L27.8936 43.5754ZM26.5124 41.8691L27.4682 41.5751L27.1432 40.5188L26.1874 40.8129L25.2316 41.107L25.5566 42.1632L26.5124 41.8691ZM26.1874 40.8129L27.1361 40.4967C27.0002 40.089 26.7474 39.715 26.4882 39.4558L25.7811 40.1629L25.074 40.87C25.0995 40.8955 25.1359 40.939 25.1711 40.9943C25.2064 41.0499 25.2283 41.098 25.2387 41.1291L26.1874 40.8129ZM25.7811 40.1629L26.4882 39.4558C26.4334 39.4009 26.3397 39.2857 26.2527 39.1406C26.1621 38.9897 26.1213 38.8772 26.1117 38.8293L25.1311 39.0254L24.1506 39.2215C24.2222 39.5798 24.3845 39.9142 24.5377 40.1696C24.6944 40.4307 24.8852 40.6811 25.074 40.87L25.7811 40.1629ZM25.1311 39.0254L26.0798 38.7092C26.0807 38.7118 26.089 38.7379 26.093 38.7826C26.0949 38.8048 26.0956 38.8291 26.0945 38.855C26.0933 38.8809 26.0906 38.9048 26.0871 38.9257C26.0836 38.9463 26.08 38.9613 26.0785 38.9672C26.0778 38.9698 26.0775 38.9707 26.0783 38.9679C26.0787 38.9664 26.0792 38.9647 26.08 38.9616C26.0808 38.959 26.082 38.9547 26.0832 38.9503C26.0857 38.9415 26.0896 38.9271 26.0939 38.9101C26.0982 38.8929 26.1037 38.87 26.109 38.8432C26.1195 38.7898 26.1311 38.7124 26.1311 38.6191H25.1311H24.1311C24.1311 38.4868 24.1642 38.3863 24.1562 38.415C24.1557 38.4168 24.1301 38.5019 24.1143 38.5969C24.0752 38.8316 24.0945 39.0779 24.1825 39.3416L25.1311 39.0254ZM25.1311 38.6191L25.6858 39.4512C25.99 39.2484 26.6186 38.7438 26.6186 37.8879H25.6186H24.6186C24.6186 37.8413 24.6279 37.7988 24.6404 37.7653C24.6522 37.7337 24.6644 37.717 24.6663 37.7145C24.6679 37.7123 24.6626 37.7196 24.6458 37.7346C24.6292 37.7494 24.6062 37.7673 24.5764 37.7871L25.1311 38.6191ZM25.6186 37.8879H26.6186C26.6186 37.4194 26.7313 37.0675 26.8721 36.7155L25.9436 36.3441L25.0152 35.9728C24.8309 36.4333 24.6186 37.0564 24.6186 37.8879H25.6186ZM25.9436 36.3441L26.8011 36.8586C26.9097 36.6777 27.0504 36.5432 27.4471 36.3448L26.9999 35.4504L26.5527 34.556C25.9744 34.8451 25.4651 35.1981 25.0861 35.8296L25.9436 36.3441ZM26.9999 35.4504L27.4189 36.3584C28.222 35.9877 29.7019 35.7991 32.269 36.0398L32.3624 35.0441L32.4557 34.0485C29.8229 33.8017 27.8903 33.9381 26.5808 34.5424L26.9999 35.4504ZM32.3624 35.0441V36.0441C32.4997 36.0441 32.8943 36.0587 33.2971 35.8573L32.8499 34.9629L32.4027 34.0685C32.4225 34.0586 32.4414 34.0517 32.4573 34.0472C32.4726 34.0429 32.482 34.0417 32.4821 34.0417C32.4821 34.0417 32.4816 34.0418 32.4804 34.0419C32.4792 34.042 32.4775 34.0421 32.4751 34.0423C32.4701 34.0427 32.4631 34.043 32.453 34.0434C32.4429 34.0437 32.4308 34.0439 32.4155 34.044C32.3998 34.0441 32.3834 34.0441 32.3624 34.0441V35.0441ZM32.8499 34.9629L33.346 35.8311C33.5657 35.7056 33.6789 35.6779 33.7041 35.6735C33.7285 35.6692 33.6199 35.694 33.4589 35.6136L33.9061 34.7191L34.3534 33.8247C33.721 33.5085 32.9941 33.7287 32.3537 34.0946L32.8499 34.9629ZM33.9061 34.7191L33.4589 35.6136C33.4758 35.622 33.4795 35.6254 33.4834 35.6294C33.4864 35.6324 33.514 35.6594 33.5464 35.7405L34.4749 35.3691L35.4034 34.9977C35.1291 34.3121 34.679 33.9875 34.3534 33.8247L33.9061 34.7191ZM34.4749 35.3691L33.5805 35.8164C33.7155 36.0865 33.8175 36.4756 33.8819 36.9079C33.9445 37.3282 33.9624 37.7249 33.9624 37.9691H34.9624H35.9624C35.9624 37.6446 35.9397 37.1476 35.8601 36.6132C35.7823 36.0908 35.6405 35.4643 35.3693 34.9219L34.4749 35.3691ZM34.9624 37.9691H33.9624C33.9624 38.3066 34.0496 38.6465 34.2522 38.9504C34.4506 39.248 34.7215 39.4543 35.0027 39.5948L35.4499 38.7004L35.8971 37.806C35.8532 37.784 35.8804 37.7871 35.9163 37.841C35.9336 37.867 35.9466 37.8955 35.9544 37.9229C35.962 37.9495 35.9624 37.9666 35.9624 37.9691H34.9624ZM35.4499 38.7004H34.4499C34.4499 38.7005 34.4499 38.7007 34.4499 38.7009C34.4499 38.701 34.4499 38.7012 34.4499 38.7013C34.4499 38.7015 34.4499 38.7017 34.4499 38.7018C34.4499 38.702 34.4499 38.7021 34.4499 38.7023C34.4499 38.7025 34.4499 38.7026 34.4499 38.7028C34.4499 38.703 34.4499 38.7031 34.4499 38.7033C34.4499 38.7034 34.4499 38.7036 34.4499 38.7038C34.4499 38.7039 34.4499 38.7041 34.4499 38.7043C34.4499 38.7044 34.4499 38.7046 34.4499 38.7048C34.4499 38.7049 34.4499 38.7051 34.4499 38.7052C34.4499 38.7054 34.4499 38.7056 34.4499 38.7057C34.4499 38.7059 34.4499 38.7061 34.4499 38.7062C34.4499 38.7064 34.4499 38.7066 34.4499 38.7067C34.4499 38.7069 34.4499 38.7071 34.4499 38.7072C34.4499 38.7074 34.4499 38.7076 34.4499 38.7077C34.4499 38.7079 34.4499 38.7081 34.4499 38.7082C34.4499 38.7084 34.4499 38.7086 34.4499 38.7087C34.4499 38.7089 34.4499 38.7091 34.4499 38.7093C34.4499 38.7094 34.4499 38.7096 34.4499 38.7098C34.4499 38.7099 34.4499 38.7101 34.4499 38.7103C34.4499 38.7105 34.4499 38.7106 34.4499 38.7108C34.4499 38.711 34.4499 38.7111 34.4499 38.7113C34.4499 38.7115 34.4499 38.7117 34.4499 38.7118C34.4499 38.712 34.4499 38.7122 34.4499 38.7123C34.4499 38.7125 34.4499 38.7127 34.4499 38.7129C34.4499 38.713 34.4499 38.7132 34.4499 38.7134C34.4499 38.7136 34.4499 38.7137 34.4499 38.7139C34.4499 38.7141 34.4499 38.7143 34.4499 38.7144C34.4499 38.7146 34.4499 38.7148 34.4499 38.715C34.4499 38.7151 34.4499 38.7153 34.4499 38.7155C34.4499 38.7157 34.4499 38.7158 34.4499 38.716C34.4499 38.7162 34.4499 38.7164 34.4499 38.7166C34.4499 38.7167 34.4499 38.7169 34.4499 38.7171C34.4499 38.7173 34.4499 38.7174 34.4499 38.7176C34.4499 38.7178 34.4499 38.718 34.4499 38.7182C34.4499 38.7183 34.4499 38.7185 34.4499 38.7187C34.4499 38.7189 34.4499 38.7191 34.4499 38.7192C34.4499 38.7194 34.4499 38.7196 34.4499 38.7198C34.4499 38.72 34.4499 38.7202 34.4499 38.7203C34.4499 38.7205 34.4499 38.7207 34.4499 38.7209C34.4499 38.7211 34.4499 38.7212 34.4499 38.7214C34.4499 38.7216 34.4499 38.7218 34.4499 38.722C34.4499 38.7222 34.4499 38.7223 34.4499 38.7225C34.4499 38.7227 34.4499 38.7229 34.4499 38.7231C34.4499 38.7233 34.4499 38.7235 34.4499 38.7236C34.4499 38.7238 34.4499 38.724 34.4499 38.7242C34.4499 38.7244 34.4499 38.7246 34.4499 38.7248C34.4499 38.7249 34.4499 38.7251 34.4499 38.7253C34.4499 38.7255 34.4499 38.7257 34.4499 38.7259C34.4499 38.7261 34.4499 38.7263 34.4499 38.7264C34.4499 38.7266 34.4499 38.7268 34.4499 38.727C34.4499 38.7272 34.4499 38.7274 34.4499 38.7276C34.4499 38.7278 34.4499 38.728 34.4499 38.7281C34.4499 38.7283 34.4499 38.7285 34.4499 38.7287C34.4499 38.7289 34.4499 38.7291 34.4499 38.7293C34.4499 38.7295 34.4499 38.7297 34.4499 38.7299C34.4499 38.7301 34.4499 38.7302 34.4499 38.7304C34.4499 38.7306 34.4499 38.7308 34.4499 38.731C34.4499 38.7312 34.4499 38.7314 34.4499 38.7316C34.4499 38.7318 34.4499 38.732 34.4499 38.7322C34.4499 38.7324 34.4499 38.7326 34.4499 38.7328C34.4499 38.7329 34.4499 38.7331 34.4499 38.7333C34.4499 38.7335 34.4499 38.7337 34.4499 38.7339C34.4499 38.7341 34.4499 38.7343 34.4499 38.7345C34.4499 38.7347 34.4499 38.7349 34.4499 38.7351C34.4499 38.7353 34.4499 38.7355 34.4499 38.7357C34.4499 38.7359 34.4499 38.7361 34.4499 38.7363C34.4499 38.7365 34.4499 38.7367 34.4499 38.7369C34.4499 38.7371 34.4499 38.7373 34.4499 38.7375C34.4499 38.7377 34.4499 38.7379 34.4499 38.7381C34.4499 38.7383 34.4499 38.7385 34.4499 38.7387C34.4499 38.7389 34.4499 38.7391 34.4499 38.7393C34.4499 38.7395 34.4499 38.7397 34.4499 38.7399C34.4499 38.7401 34.4499 38.7403 34.4499 38.7405C34.4499 38.7407 34.4499 38.7409 34.4499 38.7411C34.4499 38.7413 34.4499 38.7415 34.4499 38.7417C34.4499 38.7419 34.4499 38.7421 34.4499 38.7423C34.4499 38.7425 34.4499 38.7427 34.4499 38.7429C34.4499 38.7431 34.4499 38.7433 34.4499 38.7435C34.4499 38.7437 34.4499 38.7439 34.4499 38.7441C34.4499 38.7443 34.4499 38.7445 34.4499 38.7447C34.4499 38.7449 34.4499 38.7451 34.4499 38.7453C34.4499 38.7456 34.4499 38.7458 34.4499 38.746C34.4499 38.7462 34.4499 38.7464 34.4499 38.7466C34.4499 38.7468 34.4499 38.747 34.4499 38.7472C34.4499 38.7474 34.4499 38.7476 34.4499 38.7478C34.4499 38.748 34.4499 38.7482 34.4499 38.7484C34.4499 38.7487 34.4499 38.7489 34.4499 38.7491C34.4499 38.7493 34.4499 38.7495 34.4499 38.7497C34.4499 38.7499 34.4499 38.7501 34.4499 38.7503C34.4499 38.7505 34.4499 38.7507 34.4499 38.751C34.4499 38.7512 34.4499 38.7514 34.4499 38.7516C34.4499 38.7518 34.4499 38.752 34.4499 38.7522C34.4499 38.7524 34.4499 38.7526 34.4499 38.7529C34.4499 38.7531 34.4499 38.7533 34.4499 38.7535C34.4499 38.7537 34.4499 38.7539 34.4499 38.7541C34.4499 38.7543 34.4499 38.7546 34.4499 38.7548C34.4499 38.755 34.4499 38.7552 34.4499 38.7554C34.4499 38.7556 34.4499 38.7558 34.4499 38.756C34.4499 38.7563 34.4499 38.7565 34.4499 38.7567C34.4499 38.7569 34.4499 38.7571 34.4499 38.7573C34.4499 38.7576 34.4499 38.7578 34.4499 38.758C34.4499 38.7582 34.4499 38.7584 34.4499 38.7586C34.4499 38.7588 34.4499 38.7591 34.4499 38.7593C34.4499 38.7595 34.4499 38.7597 34.4499 38.7599C34.4499 38.7601 34.4499 38.7604 34.4499 38.7606C34.4499 38.7608 34.4499 38.761 34.4499 38.7612C34.4499 38.7615 34.4499 38.7617 34.4499 38.7619C34.4499 38.7621 34.4499 38.7623 34.4499 38.7625C34.4499 38.7628 34.4499 38.763 34.4499 38.7632C34.4499 38.7634 34.4499 38.7636 34.4499 38.7639C34.4499 38.7641 34.4499 38.7643 34.4499 38.7645C34.4499 38.7647 34.4499 38.765 34.4499 38.7652C34.4499 38.7654 34.4499 38.7656 34.4499 38.7659C34.4499 38.7661 34.4499 38.7663 34.4499 38.7665C34.4499 38.7667 34.4499 38.767 34.4499 38.7672C34.4499 38.7674 34.4499 38.7676 34.4499 38.7678C34.4499 38.7681 34.4499 38.7683 34.4499 38.7685C34.4499 38.7687 34.4499 38.769 34.4499 38.7692C34.4499 38.7694 34.4499 38.7696 34.4499 38.7699C34.4499 38.7701 34.4499 38.7703 34.4499 38.7705C34.4499 38.7708 34.4499 38.771 34.4499 38.7712C34.4499 38.7714 34.4499 38.7717 34.4499 38.7719C34.4499 38.7721 34.4499 38.7723 34.4499 38.7726C34.4499 38.7728 34.4499 38.773 34.4499 38.7732C34.4499 38.7735 34.4499 38.7737 34.4499 38.7739C34.4499 38.7742 34.4499 38.7744 34.4499 38.7746C34.4499 38.7748 34.4499 38.7751 34.4499 38.7753C34.4499 38.7755 34.4499 38.7757 34.4499 38.776C34.4499 38.7762 34.4499 38.7764 34.4499 38.7767C34.4499 38.7769 34.4499 38.7771 34.4499 38.7774C34.4499 38.7776 34.4499 38.7778 34.4499 38.778C34.4499 38.7783 34.4499 38.7785 34.4499 38.7787C34.4499 38.779 34.4499 38.7792 34.4499 38.7794C34.4499 38.7797 34.4499 38.7799 34.4499 38.7801C34.4499 38.7803 34.4499 38.7806 34.4499 38.7808C34.4499 38.781 34.4499 38.7813 34.4499 38.7815C34.4499 38.7817 34.4499 38.782 34.4499 38.7822C34.4499 38.7824 34.4499 38.7827 34.4499 38.7829C34.4499 38.7831 34.4499 38.7834 34.4499 38.7836C34.4499 38.7838 34.4499 38.7841 34.4499 38.7843C34.4499 38.7845 34.4499 38.7848 34.4499 38.785C34.4499 38.7852 34.4499 38.7855 34.4499 38.7857C34.4499 38.7859 34.4499 38.7862 34.4499 38.7864C34.4499 38.7867 34.4499 38.7869 34.4499 38.7871C34.4499 38.7874 34.4499 38.7876 34.4499 38.7878C34.4499 38.7881 34.4499 38.7883 34.4499 38.7885C34.4499 38.7888 34.4499 38.789 34.4499 38.7893C34.4499 38.7895 34.4499 38.7897 34.4499 38.79C34.4499 38.7902 34.4499 38.7904 34.4499 38.7907C34.4499 38.7909 34.4499 38.7912 34.4499 38.7914C34.4499 38.7916 34.4499 38.7919 34.4499 38.7921C34.4499 38.7923 34.4499 38.7926 34.4499 38.7928C34.4499 38.7931 34.4499 38.7933 34.4499 38.7935C34.4499 38.7938 34.4499 38.794 34.4499 38.7943C34.4499 38.7945 34.4499 38.7947 34.4499 38.795C34.4499 38.7952 34.4499 38.7955 34.4499 38.7957C34.4499 38.796 34.4499 38.7962 34.4499 38.7964C34.4499 38.7967 34.4499 38.7969 34.4499 38.7972C34.4499 38.7974 34.4499 38.7976 34.4499 38.7979C34.4499 38.7981 34.4499 38.7984 34.4499 38.7986C34.4499 38.7989 34.4499 38.7991 34.4499 38.7993C34.4499 38.7996 34.4499 38.7998 34.4499 38.8001C34.4499 38.8003 34.4499 38.8006 34.4499 38.8008C34.4499 38.801 34.4499 38.8013 34.4499 38.8015C34.4499 38.8018 34.4499 38.802 34.4499 38.8023C34.4499 38.8025 34.4499 38.8028 34.4499 38.803C34.4499 38.8033 34.4499 38.8035 34.4499 38.8037C34.4499 38.804 34.4499 38.8042 34.4499 38.8045C34.4499 38.8047 34.4499 38.805 34.4499 38.8052C34.4499 38.8055 34.4499 38.8057 34.4499 38.806C34.4499 38.8062 34.4499 38.8065 34.4499 38.8067C34.4499 38.807 34.4499 38.8072 34.4499 38.8074C34.4499 38.8077 34.4499 38.8079 34.4499 38.8082C34.4499 38.8084 34.4499 38.8087 34.4499 38.8089C34.4499 38.8092 34.4499 38.8094 34.4499 38.8097C34.4499 38.8099 34.4499 38.8102 34.4499 38.8104C34.4499 38.8107 34.4499 38.8109 34.4499 38.8112C34.4499 38.8114 34.4499 38.8117 34.4499 38.8119C34.4499 38.8122 34.4499 38.8124 34.4499 38.8127C34.4499 38.8129 34.4499 38.8132 34.4499 38.8134C34.4499 38.8137 34.4499 38.8139 34.4499 38.8142C34.4499 38.8144 34.4499 38.8147 34.4499 38.8149C34.4499 38.8152 34.4499 38.8154 34.4499 38.8157C34.4499 38.8159 34.4499 38.8162 34.4499 38.8165C34.4499 38.8167 34.4499 38.817 34.4499 38.8172C34.4499 38.8175 34.4499 38.8177 34.4499 38.818C34.4499 38.8182 34.4499 38.8185 34.4499 38.8187C34.4499 38.819 34.4499 38.8192 34.4499 38.8195C34.4499 38.8198 34.4499 38.82 34.4499 38.8203C34.4499 38.8205 34.4499 38.8208 34.4499 38.821C34.4499 38.8213 34.4499 38.8215 34.4499 38.8218C34.4499 38.822 34.4499 38.8223 34.4499 38.8226C34.4499 38.8228 34.4499 38.8231 34.4499 38.8233C34.4499 38.8236 34.4499 38.8238 34.4499 38.8241C34.4499 38.8243 34.4499 38.8246 34.4499 38.8249C34.4499 38.8251 34.4499 38.8254 34.4499 38.8256C34.4499 38.8259 34.4499 38.8261 34.4499 38.8264C34.4499 38.8267 34.4499 38.8269 34.4499 38.8272C34.4499 38.8274 34.4499 38.8277 34.4499 38.828C34.4499 38.8282 34.4499 38.8285 34.4499 38.8287C34.4499 38.829 34.4499 38.8292 34.4499 38.8295C34.4499 38.8298 34.4499 38.83 34.4499 38.8303C34.4499 38.8305 34.4499 38.8308 34.4499 38.8311C34.4499 38.8313 34.4499 38.8316 34.4499 38.8318C34.4499 38.8321 34.4499 38.8324 34.4499 38.8326C34.4499 38.8329 34.4499 38.8331 34.4499 38.8334C34.4499 38.8337 34.4499 38.8339 34.4499 38.8342C34.4499 38.8345 34.4499 38.8347 34.4499 38.835C34.4499 38.8352 34.4499 38.8355 34.4499 38.8358C34.4499 38.836 34.4499 38.8363 34.4499 38.8366C34.4499 38.8368 34.4499 38.8371 34.4499 38.8373C34.4499 38.8376 34.4499 38.8379 34.4499 38.8381C34.4499 38.8384 34.4499 38.8387 34.4499 38.8389C34.4499 38.8392 34.4499 38.8394 34.4499 38.8397C34.4499 38.84 34.4499 38.8402 34.4499 38.8405C34.4499 38.8408 34.4499 38.841 34.4499 38.8413C34.4499 38.8416 34.4499 38.8418 34.4499 38.8421C34.4499 38.8424 34.4499 38.8426 34.4499 38.8429C34.4499 38.8432 34.4499 38.8434 34.4499 38.8437C34.4499 38.844 34.4499 38.8442 34.4499 38.8445C34.4499 38.8447 34.4499 38.845 34.4499 38.8453C34.4499 38.8455 34.4499 38.8458 34.4499 38.8461C34.4499 38.8463 34.4499 38.8466 34.4499 38.8469C34.4499 38.8471 34.4499 38.8474 34.4499 38.8477C34.4499 38.848 34.4499 38.8482 34.4499 38.8485C34.4499 38.8488 34.4499 38.849 34.4499 38.8493C34.4499 38.8496 34.4499 38.8498 34.4499 38.8501C34.4499 38.8504 34.4499 38.8506 34.4499 38.8509C34.4499 38.8512 34.4499 38.8514 34.4499 38.8517C34.4499 38.852 34.4499 38.8522 34.4499 38.8525C34.4499 38.8528 34.4499 38.8531 34.4499 38.8533C34.4499 38.8536 34.4499 38.8539 34.4499 38.8541C34.4499 38.8544 34.4499 38.8547 34.4499 38.8549C34.4499 38.8552 34.4499 38.8555 34.4499 38.8558C34.4499 38.856 34.4499 38.8563 34.4499 38.8566C34.4499 38.8568 34.4499 38.8571 34.4499 38.8574C34.4499 38.8577 34.4499 38.8579 34.4499 38.8582C34.4499 38.8585 34.4499 38.8587 34.4499 38.859C34.4499 38.8593 34.4499 38.8596 34.4499 38.8598C34.4499 38.8601 34.4499 38.8604 34.4499 38.8607C34.4499 38.8609 34.4499 38.8612 34.4499 38.8615C34.4499 38.8617 34.4499 38.862 34.4499 38.8623C34.4499 38.8626 34.4499 38.8628 34.4499 38.8631C34.4499 38.8634 34.4499 38.8637 34.4499 38.8639C34.4499 38.8642 34.4499 38.8645 34.4499 38.8648C34.4499 38.865 34.4499 38.8653 34.4499 38.8656C34.4499 38.8659 34.4499 38.8661 34.4499 38.8664C34.4499 38.8667 34.4499 38.867 34.4499 38.8672C34.4499 38.8675 34.4499 38.8678 34.4499 38.8681C34.4499 38.8683 34.4499 38.8686 34.4499 38.8689C34.4499 38.8692 34.4499 38.8694 34.4499 38.8697C34.4499 38.87 34.4499 38.8703 34.4499 38.8706C34.4499 38.8708 34.4499 38.8711 34.4499 38.8714C34.4499 38.8717 34.4499 38.8719 34.4499 38.8722C34.4499 38.8725 34.4499 38.8728 34.4499 38.873C34.4499 38.8733 34.4499 38.8736 34.4499 38.8739C34.4499 38.8742 34.4499 38.8744 34.4499 38.8747C34.4499 38.875 34.4499 38.8753 34.4499 38.8756C34.4499 38.8758 34.4499 38.8761 34.4499 38.8764C34.4499 38.8767 34.4499 38.8769 34.4499 38.8772C34.4499 38.8775 34.4499 38.8778 34.4499 38.8781C34.4499 38.8783 34.4499 38.8786 34.4499 38.8789C34.4499 38.8792 34.4499 38.8795 34.4499 38.8797C34.4499 38.88 34.4499 38.8803 34.4499 38.8806C34.4499 38.8809 34.4499 38.8811 34.4499 38.8814C34.4499 38.8817 34.4499 38.882 34.4499 38.8823C34.4499 38.8825 34.4499 38.8828 34.4499 38.8831C34.4499 38.8834 34.4499 38.8837 34.4499 38.884C34.4499 38.8842 34.4499 38.8845 34.4499 38.8848C34.4499 38.8851 34.4499 38.8854 34.4499 38.8856C34.4499 38.8859 34.4499 38.8862 34.4499 38.8865C34.4499 38.8868 34.4499 38.8871 34.4499 38.8873C34.4499 38.8876 34.4499 38.8879 34.4499 38.8882C34.4499 38.8885 34.4499 38.8888 34.4499 38.889C34.4499 38.8893 34.4499 38.8896 34.4499 38.8899C34.4499 38.8902 34.4499 38.8905 34.4499 38.8907C34.4499 38.891 34.4499 38.8913 34.4499 38.8916C34.4499 38.8919 34.4499 38.8922 34.4499 38.8924C34.4499 38.8927 34.4499 38.893 34.4499 38.8933C34.4499 38.8936 34.4499 38.8939 34.4499 38.8942C34.4499 38.8944 34.4499 38.8947 34.4499 38.895C34.4499 38.8953 34.4499 38.8956 34.4499 38.8959C34.4499 38.8962 34.4499 38.8964 34.4499 38.8967C34.4499 38.897 34.4499 38.8973 34.4499 38.8976C34.4499 38.8979 34.4499 38.8982 34.4499 38.8984C34.4499 38.8987 34.4499 38.899 34.4499 38.8993C34.4499 38.8996 34.4499 38.8999 34.4499 38.9002C34.4499 38.9005 34.4499 38.9007 34.4499 38.901C34.4499 38.9013 34.4499 38.9016 34.4499 38.9019C34.4499 38.9022 34.4499 38.9025 34.4499 38.9028C34.4499 38.903 34.4499 38.9033 34.4499 38.9036C34.4499 38.9039 34.4499 38.9042 34.4499 38.9045C34.4499 38.9048 34.4499 38.9051 34.4499 38.9053C34.4499 38.9056 34.4499 38.9059 34.4499 38.9062C34.4499 38.9065 34.4499 38.9068 34.4499 38.9071C34.4499 38.9074 34.4499 38.9077 34.4499 38.9079C34.4499 38.9082 34.4499 38.9085 34.4499 38.9088C34.4499 38.9091 34.4499 38.9094 34.4499 38.9097C34.4499 38.91 34.4499 38.9103 34.4499 38.9106C34.4499 38.9108 34.4499 38.9111 34.4499 38.9114C34.4499 38.9117 34.4499 38.912 34.4499 38.9123C34.4499 38.9126 34.4499 38.9129 34.4499 38.9132C34.4499 38.9135 34.4499 38.9138 34.4499 38.914C34.4499 38.9143 34.4499 38.9146 34.4499 38.9149C34.4499 38.9152 34.4499 38.9155 34.4499 38.9158C34.4499 38.9161 34.4499 38.9164 34.4499 38.9167C34.4499 38.917 34.4499 38.9172 34.4499 38.9175C34.4499 38.9178 34.4499 38.9181 34.4499 38.9184C34.4499 38.9187 34.4499 38.919 34.4499 38.9193C34.4499 38.9196 34.4499 38.9199 34.4499 38.9202C34.4499 38.9205 34.4499 38.9208 34.4499 38.9211C34.4499 38.9213 34.4499 38.9216 34.4499 38.9219C34.4499 38.9222 34.4499 38.9225 34.4499 38.9228C34.4499 38.9231 34.4499 38.9234 34.4499 38.9237C34.4499 38.924 34.4499 38.9243 34.4499 38.9246C34.4499 38.9249 34.4499 38.9252 34.4499 38.9255C34.4499 38.9258 34.4499 38.926 34.4499 38.9263C34.4499 38.9266 34.4499 38.9269 34.4499 38.9272C34.4499 38.9275 34.4499 38.9278 34.4499 38.9281C34.4499 38.9284 34.4499 38.9287 34.4499 38.929C34.4499 38.9293 34.4499 38.9296 34.4499 38.9299C34.4499 38.9302 34.4499 38.9305 34.4499 38.9308C34.4499 38.9311 34.4499 38.9314 34.4499 38.9317C34.4499 38.932 34.4499 38.9323 34.4499 38.9325C34.4499 38.9328 34.4499 38.9331 34.4499 38.9334C34.4499 38.9337 34.4499 38.934 34.4499 38.9343C34.4499 38.9346 34.4499 38.9349 34.4499 38.9352C34.4499 38.9355 34.4499 38.9358 34.4499 38.9361C34.4499 38.9364 34.4499 38.9367 34.4499 38.937C34.4499 38.9373 34.4499 38.9376 34.4499 38.9379C34.4499 38.9382 34.4499 38.9385 34.4499 38.9388C34.4499 38.9391 34.4499 38.9394 34.4499 38.9397C34.4499 38.94 34.4499 38.9403 34.4499 38.9406C34.4499 38.9409 34.4499 38.9412 34.4499 38.9415C34.4499 38.9418 34.4499 38.9421 34.4499 38.9424C34.4499 38.9427 34.4499 38.943 34.4499 38.9433C34.4499 38.9436 34.4499 38.9439 34.4499 38.9442C34.4499 38.9445 34.4499 38.9448 34.4499 38.9451C34.4499 38.9454 34.4499 38.9457 34.4499 38.946C34.4499 38.9463 34.4499 38.9466 34.4499 38.9469C34.4499 38.9471 34.4499 38.9474 34.4499 38.9477C34.4499 38.948 34.4499 38.9483 34.4499 38.9486C34.4499 38.9489 34.4499 38.9492 34.4499 38.9496C34.4499 38.9499 34.4499 38.9502 34.4499 38.9505C34.4499 38.9508 34.4499 38.9511 34.4499 38.9514C34.4499 38.9517 34.4499 38.952 34.4499 38.9523C34.4499 38.9526 34.4499 38.9529 34.4499 38.9532C34.4499 38.9535 34.4499 38.9538 34.4499 38.9541C34.4499 38.9544 34.4499 38.9547 34.4499 38.955C34.4499 38.9553 34.4499 38.9556 34.4499 38.9559C34.4499 38.9562 34.4499 38.9565 34.4499 38.9568C34.4499 38.9571 34.4499 38.9574 34.4499 38.9577C34.4499 38.958 34.4499 38.9583 34.4499 38.9586C34.4499 38.9589 34.4499 38.9592 34.4499 38.9595C34.4499 38.9598 34.4499 38.9601 34.4499 38.9604C34.4499 38.9607 34.4499 38.961 34.4499 38.9613C34.4499 38.9616 34.4499 38.9619 34.4499 38.9622C34.4499 38.9625 34.4499 38.9628 34.4499 38.9631C34.4499 38.9634 34.4499 38.9637 34.4499 38.964C34.4499 38.9643 34.4499 38.9646 34.4499 38.965C34.4499 38.9653 34.4499 38.9656 34.4499 38.9659C34.4499 38.9662 34.4499 38.9665 34.4499 38.9668C34.4499 38.9671 34.4499 38.9674 34.4499 38.9677C34.4499 38.968 34.4499 38.9683 34.4499 38.9686C34.4499 38.9689 34.4499 38.9692 34.4499 38.9695C34.4499 38.9698 34.4499 38.9701 34.4499 38.9704C34.4499 38.9707 34.4499 38.971 34.4499 38.9713C34.4499 38.9716 34.4499 38.9719 34.4499 38.9723C34.4499 38.9726 34.4499 38.9729 34.4499 38.9732C34.4499 38.9735 34.4499 38.9738 34.4499 38.9741C34.4499 38.9744 34.4499 38.9747 34.4499 38.975C34.4499 38.9753 34.4499 38.9756 34.4499 38.9759C34.4499 38.9762 34.4499 38.9765 34.4499 38.9768C34.4499 38.9771 34.4499 38.9774 34.4499 38.9778C34.4499 38.9781 34.4499 38.9784 34.4499 38.9787C34.4499 38.979 34.4499 38.9793 34.4499 38.9796C34.4499 38.9799 34.4499 38.9802 34.4499 38.9805C34.4499 38.9808 34.4499 38.9811 34.4499 38.9814C34.4499 38.9817 34.4499 38.982 34.4499 38.9823C34.4499 38.9827 34.4499 38.983 34.4499 38.9833C34.4499 38.9836 34.4499 38.9839 34.4499 38.9842C34.4499 38.9845 34.4499 38.9848 34.4499 38.9851C34.4499 38.9854 34.4499 38.9857 34.4499 38.986C34.4499 38.9863 34.4499 38.9866 34.4499 38.987C34.4499 38.9873 34.4499 38.9876 34.4499 38.9879C34.4499 38.9882 34.4499 38.9885 34.4499 38.9888C34.4499 38.9891 34.4499 38.9894 34.4499 38.9897C34.4499 38.99 34.4499 38.9903 34.4499 38.9907C34.4499 38.991 34.4499 38.9913 34.4499 38.9916C34.4499 38.9919 34.4499 38.9922 34.4499 38.9925C34.4499 38.9928 34.4499 38.9931 34.4499 38.9934C34.4499 38.9937 34.4499 38.994 34.4499 38.9944C34.4499 38.9947 34.4499 38.995 34.4499 38.9953C34.4499 38.9956 34.4499 38.9959 34.4499 38.9962C34.4499 38.9965 34.4499 38.9968 34.4499 38.9971C34.4499 38.9974 34.4499 38.9978 34.4499 38.9981C34.4499 38.9984 34.4499 38.9987 34.4499 38.999C34.4499 38.9993 34.4499 38.9996 34.4499 38.9999C34.4499 39.0002 34.4499 39.0005 34.4499 39.0009C34.4499 39.0012 34.4499 39.0015 34.4499 39.0018C34.4499 39.0021 34.4499 39.0024 34.4499 39.0027C34.4499 39.003 34.4499 39.0033 34.4499 39.0036C34.4499 39.004 34.4499 39.0043 34.4499 39.0046C34.4499 39.0049 34.4499 39.0052 34.4499 39.0055C34.4499 39.0058 34.4499 39.0061 34.4499 39.0064C34.4499 39.0067 34.4499 39.0071 34.4499 39.0074C34.4499 39.0077 34.4499 39.008 34.4499 39.0083C34.4499 39.0086 34.4499 39.0089 34.4499 39.0092C34.4499 39.0095 34.4499 39.0099 34.4499 39.0102C34.4499 39.0105 34.4499 39.0108 34.4499 39.0111C34.4499 39.0114 34.4499 39.0117 34.4499 39.012C34.4499 39.0123 34.4499 39.0127 34.4499 39.013C34.4499 39.0133 34.4499 39.0136 34.4499 39.0139C34.4499 39.0142 34.4499 39.0145 34.4499 39.0148C34.4499 39.0151 34.4499 39.0155 34.4499 39.0158C34.4499 39.0161 34.4499 39.0164 34.4499 39.0167C34.4499 39.017 34.4499 39.0173 34.4499 39.0176C34.4499 39.018 34.4499 39.0183 34.4499 39.0186C34.4499 39.0189 34.4499 39.0192 34.4499 39.0195C34.4499 39.0198 34.4499 39.0201 34.4499 39.0205C34.4499 39.0208 34.4499 39.0211 34.4499 39.0214C34.4499 39.0217 34.4499 39.022 34.4499 39.0223C34.4499 39.0226 34.4499 39.023 34.4499 39.0233C34.4499 39.0236 34.4499 39.0239 34.4499 39.0242C34.4499 39.0245 34.4499 39.0248 34.4499 39.0251C34.4499 39.0255 34.4499 39.0258 34.4499 39.0261C34.4499 39.0264 34.4499 39.0267 34.4499 39.027C34.4499 39.0273 34.4499 39.0276 34.4499 39.028C34.4499 39.0283 34.4499 39.0286 34.4499 39.0289C34.4499 39.0292 34.4499 39.0295 34.4499 39.0298C34.4499 39.0302 34.4499 39.0305 34.4499 39.0308C34.4499 39.0311 34.4499 39.0314 34.4499 39.0317C34.4499 39.032 34.4499 39.0323 34.4499 39.0327C34.4499 39.033 34.4499 39.0333 34.4499 39.0336C34.4499 39.0339 34.4499 39.0342 34.4499 39.0345C34.4499 39.0349 34.4499 39.0352 34.4499 39.0355C34.4499 39.0358 34.4499 39.0361 34.4499 39.0364C34.4499 39.0367 34.4499 39.0371 34.4499 39.0374C34.4499 39.0377 34.4499 39.038 34.4499 39.0383C34.4499 39.0386 34.4499 39.0389 34.4499 39.0393C34.4499 39.0396 34.4499 39.0399 34.4499 39.0402C34.4499 39.0405 34.4499 39.0408 34.4499 39.0411C34.4499 39.0415 34.4499 39.0418 34.4499 39.0421C34.4499 39.0424 34.4499 39.0427 34.4499 39.043C34.4499 39.0433 34.4499 39.0437 34.4499 39.044C34.4499 39.0443 34.4499 39.0446 34.4499 39.0449C34.4499 39.0452 34.4499 39.0455 34.4499 39.0459C34.4499 39.0462 34.4499 39.0465 34.4499 39.0468C34.4499 39.0471 34.4499 39.0474 34.4499 39.0478C34.4499 39.0481 34.4499 39.0484 34.4499 39.0487C34.4499 39.049 34.4499 39.0493 34.4499 39.0496C34.4499 39.05 34.4499 39.0503 34.4499 39.0506C34.4499 39.0509 34.4499 39.0512 34.4499 39.0515C34.4499 39.0518 34.4499 39.0522 34.4499 39.0525C34.4499 39.0528 34.4499 39.0531 34.4499 39.0534C34.4499 39.0537 34.4499 39.0541 34.4499 39.0544C34.4499 39.0547 34.4499 39.055 34.4499 39.0553C34.4499 39.0556 34.4499 39.056 34.4499 39.0563C34.4499 39.0566 34.4499 39.0569 34.4499 39.0572C34.4499 39.0575 34.4499 39.0578 34.4499 39.0582C34.4499 39.0585 34.4499 39.0588 34.4499 39.0591C34.4499 39.0594 34.4499 39.0597 34.4499 39.0601C34.4499 39.0604 34.4499 39.0607 34.4499 39.061C34.4499 39.0613 34.4499 39.0616 34.4499 39.062C34.4499 39.0623 34.4499 39.0626 34.4499 39.0629C34.4499 39.0632 34.4499 39.0635 34.4499 39.0638C34.4499 39.0642 34.4499 39.0645 34.4499 39.0648C34.4499 39.0651 34.4499 39.0654 34.4499 39.0657C34.4499 39.0661 34.4499 39.0664 34.4499 39.0667C34.4499 39.067 34.4499 39.0673 34.4499 39.0676C34.4499 39.068 34.4499 39.0683 34.4499 39.0686C34.4499 39.0689 34.4499 39.0692 34.4499 39.0695C34.4499 39.0699 34.4499 39.0702 34.4499 39.0705C34.4499 39.0708 34.4499 39.0711 34.4499 39.0714C34.4499 39.0718 34.4499 39.0721 34.4499 39.0724C34.4499 39.0727 34.4499 39.073 34.4499 39.0733C34.4499 39.0737 34.4499 39.074 34.4499 39.0743C34.4499 39.0746 34.4499 39.0749 34.4499 39.0752C34.4499 39.0756 34.4499 39.0759 34.4499 39.0762C34.4499 39.0765 34.4499 39.0768 34.4499 39.0771C34.4499 39.0775 34.4499 39.0778 34.4499 39.0781C34.4499 39.0784 34.4499 39.0787 34.4499 39.079C34.4499 39.0794 34.4499 39.0797 34.4499 39.08C34.4499 39.0803 34.4499 39.0806 34.4499 39.0809C34.4499 39.0813 34.4499 39.0816 34.4499 39.0819C34.4499 39.0822 34.4499 39.0825 34.4499 39.0828C34.4499 39.0832 34.4499 39.0835 34.4499 39.0838C34.4499 39.0841 34.4499 39.0844 34.4499 39.0847C34.4499 39.0851 34.4499 39.0854 34.4499 39.0857C34.4499 39.086 34.4499 39.0863 34.4499 39.0867C34.4499 39.087 34.4499 39.0873 34.4499 39.0876C34.4499 39.0879 34.4499 39.0882 34.4499 39.0886C34.4499 39.0889 34.4499 39.0892 34.4499 39.0895C34.4499 39.0898 34.4499 39.0901 34.4499 39.0905C34.4499 39.0908 34.4499 39.0911 34.4499 39.0914C34.4499 39.0917 34.4499 39.092 34.4499 39.0924C34.4499 39.0927 34.4499 39.093 34.4499 39.0933C34.4499 39.0936 34.4499 39.0939 34.4499 39.0943C34.4499 39.0946 34.4499 39.0949 34.4499 39.0952C34.4499 39.0955 34.4499 39.0959 34.4499 39.0962C34.4499 39.0965 34.4499 39.0968 34.4499 39.0971C34.4499 39.0974 34.4499 39.0978 34.4499 39.0981C34.4499 39.0984 34.4499 39.0987 34.4499 39.099C34.4499 39.0993 34.4499 39.0997 34.4499 39.1C34.4499 39.1003 34.4499 39.1006 34.4499 39.1009C34.4499 39.1012 34.4499 39.1016 34.4499 39.1019C34.4499 39.1022 34.4499 39.1025 34.4499 39.1028C34.4499 39.1031 34.4499 39.1035 34.4499 39.1038C34.4499 39.1041 34.4499 39.1044 34.4499 39.1047C34.4499 39.1051 34.4499 39.1054 34.4499 39.1057C34.4499 39.106 34.4499 39.1063 34.4499 39.1066H35.4499H36.4499C36.4499 39.1063 36.4499 39.106 36.4499 39.1057C36.4499 39.1054 36.4499 39.1051 36.4499 39.1047C36.4499 39.1044 36.4499 39.1041 36.4499 39.1038C36.4499 39.1035 36.4499 39.1031 36.4499 39.1028C36.4499 39.1025 36.4499 39.1022 36.4499 39.1019C36.4499 39.1016 36.4499 39.1012 36.4499 39.1009C36.4499 39.1006 36.4499 39.1003 36.4499 39.1C36.4499 39.0997 36.4499 39.0993 36.4499 39.099C36.4499 39.0987 36.4499 39.0984 36.4499 39.0981C36.4499 39.0978 36.4499 39.0974 36.4499 39.0971C36.4499 39.0968 36.4499 39.0965 36.4499 39.0962C36.4499 39.0959 36.4499 39.0955 36.4499 39.0952C36.4499 39.0949 36.4499 39.0946 36.4499 39.0943C36.4499 39.0939 36.4499 39.0936 36.4499 39.0933C36.4499 39.093 36.4499 39.0927 36.4499 39.0924C36.4499 39.092 36.4499 39.0917 36.4499 39.0914C36.4499 39.0911 36.4499 39.0908 36.4499 39.0905C36.4499 39.0901 36.4499 39.0898 36.4499 39.0895C36.4499 39.0892 36.4499 39.0889 36.4499 39.0886C36.4499 39.0882 36.4499 39.0879 36.4499 39.0876C36.4499 39.0873 36.4499 39.087 36.4499 39.0867C36.4499 39.0863 36.4499 39.086 36.4499 39.0857C36.4499 39.0854 36.4499 39.0851 36.4499 39.0847C36.4499 39.0844 36.4499 39.0841 36.4499 39.0838C36.4499 39.0835 36.4499 39.0832 36.4499 39.0828C36.4499 39.0825 36.4499 39.0822 36.4499 39.0819C36.4499 39.0816 36.4499 39.0813 36.4499 39.0809C36.4499 39.0806 36.4499 39.0803 36.4499 39.08C36.4499 39.0797 36.4499 39.0794 36.4499 39.079C36.4499 39.0787 36.4499 39.0784 36.4499 39.0781C36.4499 39.0778 36.4499 39.0775 36.4499 39.0771C36.4499 39.0768 36.4499 39.0765 36.4499 39.0762C36.4499 39.0759 36.4499 39.0756 36.4499 39.0752C36.4499 39.0749 36.4499 39.0746 36.4499 39.0743C36.4499 39.074 36.4499 39.0737 36.4499 39.0733C36.4499 39.073 36.4499 39.0727 36.4499 39.0724C36.4499 39.0721 36.4499 39.0718 36.4499 39.0714C36.4499 39.0711 36.4499 39.0708 36.4499 39.0705C36.4499 39.0702 36.4499 39.0699 36.4499 39.0695C36.4499 39.0692 36.4499 39.0689 36.4499 39.0686C36.4499 39.0683 36.4499 39.068 36.4499 39.0676C36.4499 39.0673 36.4499 39.067 36.4499 39.0667C36.4499 39.0664 36.4499 39.0661 36.4499 39.0657C36.4499 39.0654 36.4499 39.0651 36.4499 39.0648C36.4499 39.0645 36.4499 39.0642 36.4499 39.0638C36.4499 39.0635 36.4499 39.0632 36.4499 39.0629C36.4499 39.0626 36.4499 39.0623 36.4499 39.062C36.4499 39.0616 36.4499 39.0613 36.4499 39.061C36.4499 39.0607 36.4499 39.0604 36.4499 39.0601C36.4499 39.0597 36.4499 39.0594 36.4499 39.0591C36.4499 39.0588 36.4499 39.0585 36.4499 39.0582C36.4499 39.0578 36.4499 39.0575 36.4499 39.0572C36.4499 39.0569 36.4499 39.0566 36.4499 39.0563C36.4499 39.056 36.4499 39.0556 36.4499 39.0553C36.4499 39.055 36.4499 39.0547 36.4499 39.0544C36.4499 39.0541 36.4499 39.0537 36.4499 39.0534C36.4499 39.0531 36.4499 39.0528 36.4499 39.0525C36.4499 39.0522 36.4499 39.0518 36.4499 39.0515C36.4499 39.0512 36.4499 39.0509 36.4499 39.0506C36.4499 39.0503 36.4499 39.05 36.4499 39.0496C36.4499 39.0493 36.4499 39.049 36.4499 39.0487C36.4499 39.0484 36.4499 39.0481 36.4499 39.0478C36.4499 39.0474 36.4499 39.0471 36.4499 39.0468C36.4499 39.0465 36.4499 39.0462 36.4499 39.0459C36.4499 39.0455 36.4499 39.0452 36.4499 39.0449C36.4499 39.0446 36.4499 39.0443 36.4499 39.044C36.4499 39.0437 36.4499 39.0433 36.4499 39.043C36.4499 39.0427 36.4499 39.0424 36.4499 39.0421C36.4499 39.0418 36.4499 39.0415 36.4499 39.0411C36.4499 39.0408 36.4499 39.0405 36.4499 39.0402C36.4499 39.0399 36.4499 39.0396 36.4499 39.0393C36.4499 39.0389 36.4499 39.0386 36.4499 39.0383C36.4499 39.038 36.4499 39.0377 36.4499 39.0374C36.4499 39.0371 36.4499 39.0367 36.4499 39.0364C36.4499 39.0361 36.4499 39.0358 36.4499 39.0355C36.4499 39.0352 36.4499 39.0349 36.4499 39.0345C36.4499 39.0342 36.4499 39.0339 36.4499 39.0336C36.4499 39.0333 36.4499 39.033 36.4499 39.0327C36.4499 39.0323 36.4499 39.032 36.4499 39.0317C36.4499 39.0314 36.4499 39.0311 36.4499 39.0308C36.4499 39.0305 36.4499 39.0302 36.4499 39.0298C36.4499 39.0295 36.4499 39.0292 36.4499 39.0289C36.4499 39.0286 36.4499 39.0283 36.4499 39.028C36.4499 39.0276 36.4499 39.0273 36.4499 39.027C36.4499 39.0267 36.4499 39.0264 36.4499 39.0261C36.4499 39.0258 36.4499 39.0255 36.4499 39.0251C36.4499 39.0248 36.4499 39.0245 36.4499 39.0242C36.4499 39.0239 36.4499 39.0236 36.4499 39.0233C36.4499 39.023 36.4499 39.0226 36.4499 39.0223C36.4499 39.022 36.4499 39.0217 36.4499 39.0214C36.4499 39.0211 36.4499 39.0208 36.4499 39.0205C36.4499 39.0201 36.4499 39.0198 36.4499 39.0195C36.4499 39.0192 36.4499 39.0189 36.4499 39.0186C36.4499 39.0183 36.4499 39.018 36.4499 39.0176C36.4499 39.0173 36.4499 39.017 36.4499 39.0167C36.4499 39.0164 36.4499 39.0161 36.4499 39.0158C36.4499 39.0155 36.4499 39.0151 36.4499 39.0148C36.4499 39.0145 36.4499 39.0142 36.4499 39.0139C36.4499 39.0136 36.4499 39.0133 36.4499 39.013C36.4499 39.0127 36.4499 39.0123 36.4499 39.012C36.4499 39.0117 36.4499 39.0114 36.4499 39.0111C36.4499 39.0108 36.4499 39.0105 36.4499 39.0102C36.4499 39.0099 36.4499 39.0095 36.4499 39.0092C36.4499 39.0089 36.4499 39.0086 36.4499 39.0083C36.4499 39.008 36.4499 39.0077 36.4499 39.0074C36.4499 39.0071 36.4499 39.0067 36.4499 39.0064C36.4499 39.0061 36.4499 39.0058 36.4499 39.0055C36.4499 39.0052 36.4499 39.0049 36.4499 39.0046C36.4499 39.0043 36.4499 39.004 36.4499 39.0036C36.4499 39.0033 36.4499 39.003 36.4499 39.0027C36.4499 39.0024 36.4499 39.0021 36.4499 39.0018C36.4499 39.0015 36.4499 39.0012 36.4499 39.0009C36.4499 39.0005 36.4499 39.0002 36.4499 38.9999C36.4499 38.9996 36.4499 38.9993 36.4499 38.999C36.4499 38.9987 36.4499 38.9984 36.4499 38.9981C36.4499 38.9978 36.4499 38.9974 36.4499 38.9971C36.4499 38.9968 36.4499 38.9965 36.4499 38.9962C36.4499 38.9959 36.4499 38.9956 36.4499 38.9953C36.4499 38.995 36.4499 38.9947 36.4499 38.9944C36.4499 38.994 36.4499 38.9937 36.4499 38.9934C36.4499 38.9931 36.4499 38.9928 36.4499 38.9925C36.4499 38.9922 36.4499 38.9919 36.4499 38.9916C36.4499 38.9913 36.4499 38.991 36.4499 38.9907C36.4499 38.9903 36.4499 38.99 36.4499 38.9897C36.4499 38.9894 36.4499 38.9891 36.4499 38.9888C36.4499 38.9885 36.4499 38.9882 36.4499 38.9879C36.4499 38.9876 36.4499 38.9873 36.4499 38.987C36.4499 38.9866 36.4499 38.9863 36.4499 38.986C36.4499 38.9857 36.4499 38.9854 36.4499 38.9851C36.4499 38.9848 36.4499 38.9845 36.4499 38.9842C36.4499 38.9839 36.4499 38.9836 36.4499 38.9833C36.4499 38.983 36.4499 38.9827 36.4499 38.9823C36.4499 38.982 36.4499 38.9817 36.4499 38.9814C36.4499 38.9811 36.4499 38.9808 36.4499 38.9805C36.4499 38.9802 36.4499 38.9799 36.4499 38.9796C36.4499 38.9793 36.4499 38.979 36.4499 38.9787C36.4499 38.9784 36.4499 38.9781 36.4499 38.9778C36.4499 38.9774 36.4499 38.9771 36.4499 38.9768C36.4499 38.9765 36.4499 38.9762 36.4499 38.9759C36.4499 38.9756 36.4499 38.9753 36.4499 38.975C36.4499 38.9747 36.4499 38.9744 36.4499 38.9741C36.4499 38.9738 36.4499 38.9735 36.4499 38.9732C36.4499 38.9729 36.4499 38.9726 36.4499 38.9723C36.4499 38.9719 36.4499 38.9716 36.4499 38.9713C36.4499 38.971 36.4499 38.9707 36.4499 38.9704C36.4499 38.9701 36.4499 38.9698 36.4499 38.9695C36.4499 38.9692 36.4499 38.9689 36.4499 38.9686C36.4499 38.9683 36.4499 38.968 36.4499 38.9677C36.4499 38.9674 36.4499 38.9671 36.4499 38.9668C36.4499 38.9665 36.4499 38.9662 36.4499 38.9659C36.4499 38.9656 36.4499 38.9653 36.4499 38.965C36.4499 38.9646 36.4499 38.9643 36.4499 38.964C36.4499 38.9637 36.4499 38.9634 36.4499 38.9631C36.4499 38.9628 36.4499 38.9625 36.4499 38.9622C36.4499 38.9619 36.4499 38.9616 36.4499 38.9613C36.4499 38.961 36.4499 38.9607 36.4499 38.9604C36.4499 38.9601 36.4499 38.9598 36.4499 38.9595C36.4499 38.9592 36.4499 38.9589 36.4499 38.9586C36.4499 38.9583 36.4499 38.958 36.4499 38.9577C36.4499 38.9574 36.4499 38.9571 36.4499 38.9568C36.4499 38.9565 36.4499 38.9562 36.4499 38.9559C36.4499 38.9556 36.4499 38.9553 36.4499 38.955C36.4499 38.9547 36.4499 38.9544 36.4499 38.9541C36.4499 38.9538 36.4499 38.9535 36.4499 38.9532C36.4499 38.9529 36.4499 38.9526 36.4499 38.9523C36.4499 38.952 36.4499 38.9517 36.4499 38.9514C36.4499 38.9511 36.4499 38.9508 36.4499 38.9505C36.4499 38.9502 36.4499 38.9499 36.4499 38.9496C36.4499 38.9492 36.4499 38.9489 36.4499 38.9486C36.4499 38.9483 36.4499 38.948 36.4499 38.9477C36.4499 38.9474 36.4499 38.9471 36.4499 38.9469C36.4499 38.9466 36.4499 38.9463 36.4499 38.946C36.4499 38.9457 36.4499 38.9454 36.4499 38.9451C36.4499 38.9448 36.4499 38.9445 36.4499 38.9442C36.4499 38.9439 36.4499 38.9436 36.4499 38.9433C36.4499 38.943 36.4499 38.9427 36.4499 38.9424C36.4499 38.9421 36.4499 38.9418 36.4499 38.9415C36.4499 38.9412 36.4499 38.9409 36.4499 38.9406C36.4499 38.9403 36.4499 38.94 36.4499 38.9397C36.4499 38.9394 36.4499 38.9391 36.4499 38.9388C36.4499 38.9385 36.4499 38.9382 36.4499 38.9379C36.4499 38.9376 36.4499 38.9373 36.4499 38.937C36.4499 38.9367 36.4499 38.9364 36.4499 38.9361C36.4499 38.9358 36.4499 38.9355 36.4499 38.9352C36.4499 38.9349 36.4499 38.9346 36.4499 38.9343C36.4499 38.934 36.4499 38.9337 36.4499 38.9334C36.4499 38.9331 36.4499 38.9328 36.4499 38.9325C36.4499 38.9323 36.4499 38.932 36.4499 38.9317C36.4499 38.9314 36.4499 38.9311 36.4499 38.9308C36.4499 38.9305 36.4499 38.9302 36.4499 38.9299C36.4499 38.9296 36.4499 38.9293 36.4499 38.929C36.4499 38.9287 36.4499 38.9284 36.4499 38.9281C36.4499 38.9278 36.4499 38.9275 36.4499 38.9272C36.4499 38.9269 36.4499 38.9266 36.4499 38.9263C36.4499 38.926 36.4499 38.9258 36.4499 38.9255C36.4499 38.9252 36.4499 38.9249 36.4499 38.9246C36.4499 38.9243 36.4499 38.924 36.4499 38.9237C36.4499 38.9234 36.4499 38.9231 36.4499 38.9228C36.4499 38.9225 36.4499 38.9222 36.4499 38.9219C36.4499 38.9216 36.4499 38.9213 36.4499 38.9211C36.4499 38.9208 36.4499 38.9205 36.4499 38.9202C36.4499 38.9199 36.4499 38.9196 36.4499 38.9193C36.4499 38.919 36.4499 38.9187 36.4499 38.9184C36.4499 38.9181 36.4499 38.9178 36.4499 38.9175C36.4499 38.9172 36.4499 38.917 36.4499 38.9167C36.4499 38.9164 36.4499 38.9161 36.4499 38.9158C36.4499 38.9155 36.4499 38.9152 36.4499 38.9149C36.4499 38.9146 36.4499 38.9143 36.4499 38.914C36.4499 38.9138 36.4499 38.9135 36.4499 38.9132C36.4499 38.9129 36.4499 38.9126 36.4499 38.9123C36.4499 38.912 36.4499 38.9117 36.4499 38.9114C36.4499 38.9111 36.4499 38.9108 36.4499 38.9106C36.4499 38.9103 36.4499 38.91 36.4499 38.9097C36.4499 38.9094 36.4499 38.9091 36.4499 38.9088C36.4499 38.9085 36.4499 38.9082 36.4499 38.9079C36.4499 38.9077 36.4499 38.9074 36.4499 38.9071C36.4499 38.9068 36.4499 38.9065 36.4499 38.9062C36.4499 38.9059 36.4499 38.9056 36.4499 38.9053C36.4499 38.9051 36.4499 38.9048 36.4499 38.9045C36.4499 38.9042 36.4499 38.9039 36.4499 38.9036C36.4499 38.9033 36.4499 38.903 36.4499 38.9028C36.4499 38.9025 36.4499 38.9022 36.4499 38.9019C36.4499 38.9016 36.4499 38.9013 36.4499 38.901C36.4499 38.9007 36.4499 38.9005 36.4499 38.9002C36.4499 38.8999 36.4499 38.8996 36.4499 38.8993C36.4499 38.899 36.4499 38.8987 36.4499 38.8984C36.4499 38.8982 36.4499 38.8979 36.4499 38.8976C36.4499 38.8973 36.4499 38.897 36.4499 38.8967C36.4499 38.8964 36.4499 38.8962 36.4499 38.8959C36.4499 38.8956 36.4499 38.8953 36.4499 38.895C36.4499 38.8947 36.4499 38.8944 36.4499 38.8942C36.4499 38.8939 36.4499 38.8936 36.4499 38.8933C36.4499 38.893 36.4499 38.8927 36.4499 38.8924C36.4499 38.8922 36.4499 38.8919 36.4499 38.8916C36.4499 38.8913 36.4499 38.891 36.4499 38.8907C36.4499 38.8905 36.4499 38.8902 36.4499 38.8899C36.4499 38.8896 36.4499 38.8893 36.4499 38.889C36.4499 38.8888 36.4499 38.8885 36.4499 38.8882C36.4499 38.8879 36.4499 38.8876 36.4499 38.8873C36.4499 38.8871 36.4499 38.8868 36.4499 38.8865C36.4499 38.8862 36.4499 38.8859 36.4499 38.8856C36.4499 38.8854 36.4499 38.8851 36.4499 38.8848C36.4499 38.8845 36.4499 38.8842 36.4499 38.884C36.4499 38.8837 36.4499 38.8834 36.4499 38.8831C36.4499 38.8828 36.4499 38.8825 36.4499 38.8823C36.4499 38.882 36.4499 38.8817 36.4499 38.8814C36.4499 38.8811 36.4499 38.8809 36.4499 38.8806C36.4499 38.8803 36.4499 38.88 36.4499 38.8797C36.4499 38.8795 36.4499 38.8792 36.4499 38.8789C36.4499 38.8786 36.4499 38.8783 36.4499 38.8781C36.4499 38.8778 36.4499 38.8775 36.4499 38.8772C36.4499 38.8769 36.4499 38.8767 36.4499 38.8764C36.4499 38.8761 36.4499 38.8758 36.4499 38.8756C36.4499 38.8753 36.4499 38.875 36.4499 38.8747C36.4499 38.8744 36.4499 38.8742 36.4499 38.8739C36.4499 38.8736 36.4499 38.8733 36.4499 38.873C36.4499 38.8728 36.4499 38.8725 36.4499 38.8722C36.4499 38.8719 36.4499 38.8717 36.4499 38.8714C36.4499 38.8711 36.4499 38.8708 36.4499 38.8706C36.4499 38.8703 36.4499 38.87 36.4499 38.8697C36.4499 38.8694 36.4499 38.8692 36.4499 38.8689C36.4499 38.8686 36.4499 38.8683 36.4499 38.8681C36.4499 38.8678 36.4499 38.8675 36.4499 38.8672C36.4499 38.867 36.4499 38.8667 36.4499 38.8664C36.4499 38.8661 36.4499 38.8659 36.4499 38.8656C36.4499 38.8653 36.4499 38.865 36.4499 38.8648C36.4499 38.8645 36.4499 38.8642 36.4499 38.8639C36.4499 38.8637 36.4499 38.8634 36.4499 38.8631C36.4499 38.8628 36.4499 38.8626 36.4499 38.8623C36.4499 38.862 36.4499 38.8617 36.4499 38.8615C36.4499 38.8612 36.4499 38.8609 36.4499 38.8607C36.4499 38.8604 36.4499 38.8601 36.4499 38.8598C36.4499 38.8596 36.4499 38.8593 36.4499 38.859C36.4499 38.8587 36.4499 38.8585 36.4499 38.8582C36.4499 38.8579 36.4499 38.8577 36.4499 38.8574C36.4499 38.8571 36.4499 38.8568 36.4499 38.8566C36.4499 38.8563 36.4499 38.856 36.4499 38.8558C36.4499 38.8555 36.4499 38.8552 36.4499 38.8549C36.4499 38.8547 36.4499 38.8544 36.4499 38.8541C36.4499 38.8539 36.4499 38.8536 36.4499 38.8533C36.4499 38.8531 36.4499 38.8528 36.4499 38.8525C36.4499 38.8522 36.4499 38.852 36.4499 38.8517C36.4499 38.8514 36.4499 38.8512 36.4499 38.8509C36.4499 38.8506 36.4499 38.8504 36.4499 38.8501C36.4499 38.8498 36.4499 38.8496 36.4499 38.8493C36.4499 38.849 36.4499 38.8488 36.4499 38.8485C36.4499 38.8482 36.4499 38.848 36.4499 38.8477C36.4499 38.8474 36.4499 38.8471 36.4499 38.8469C36.4499 38.8466 36.4499 38.8463 36.4499 38.8461C36.4499 38.8458 36.4499 38.8455 36.4499 38.8453C36.4499 38.845 36.4499 38.8447 36.4499 38.8445C36.4499 38.8442 36.4499 38.844 36.4499 38.8437C36.4499 38.8434 36.4499 38.8432 36.4499 38.8429C36.4499 38.8426 36.4499 38.8424 36.4499 38.8421C36.4499 38.8418 36.4499 38.8416 36.4499 38.8413C36.4499 38.841 36.4499 38.8408 36.4499 38.8405C36.4499 38.8402 36.4499 38.84 36.4499 38.8397C36.4499 38.8394 36.4499 38.8392 36.4499 38.8389C36.4499 38.8387 36.4499 38.8384 36.4499 38.8381C36.4499 38.8379 36.4499 38.8376 36.4499 38.8373C36.4499 38.8371 36.4499 38.8368 36.4499 38.8366C36.4499 38.8363 36.4499 38.836 36.4499 38.8358C36.4499 38.8355 36.4499 38.8352 36.4499 38.835C36.4499 38.8347 36.4499 38.8345 36.4499 38.8342C36.4499 38.8339 36.4499 38.8337 36.4499 38.8334C36.4499 38.8331 36.4499 38.8329 36.4499 38.8326C36.4499 38.8324 36.4499 38.8321 36.4499 38.8318C36.4499 38.8316 36.4499 38.8313 36.4499 38.8311C36.4499 38.8308 36.4499 38.8305 36.4499 38.8303C36.4499 38.83 36.4499 38.8298 36.4499 38.8295C36.4499 38.8292 36.4499 38.829 36.4499 38.8287C36.4499 38.8285 36.4499 38.8282 36.4499 38.828C36.4499 38.8277 36.4499 38.8274 36.4499 38.8272C36.4499 38.8269 36.4499 38.8267 36.4499 38.8264C36.4499 38.8261 36.4499 38.8259 36.4499 38.8256C36.4499 38.8254 36.4499 38.8251 36.4499 38.8249C36.4499 38.8246 36.4499 38.8243 36.4499 38.8241C36.4499 38.8238 36.4499 38.8236 36.4499 38.8233C36.4499 38.8231 36.4499 38.8228 36.4499 38.8226C36.4499 38.8223 36.4499 38.822 36.4499 38.8218C36.4499 38.8215 36.4499 38.8213 36.4499 38.821C36.4499 38.8208 36.4499 38.8205 36.4499 38.8203C36.4499 38.82 36.4499 38.8198 36.4499 38.8195C36.4499 38.8192 36.4499 38.819 36.4499 38.8187C36.4499 38.8185 36.4499 38.8182 36.4499 38.818C36.4499 38.8177 36.4499 38.8175 36.4499 38.8172C36.4499 38.817 36.4499 38.8167 36.4499 38.8165C36.4499 38.8162 36.4499 38.8159 36.4499 38.8157C36.4499 38.8154 36.4499 38.8152 36.4499 38.8149C36.4499 38.8147 36.4499 38.8144 36.4499 38.8142C36.4499 38.8139 36.4499 38.8137 36.4499 38.8134C36.4499 38.8132 36.4499 38.8129 36.4499 38.8127C36.4499 38.8124 36.4499 38.8122 36.4499 38.8119C36.4499 38.8117 36.4499 38.8114 36.4499 38.8112C36.4499 38.8109 36.4499 38.8107 36.4499 38.8104C36.4499 38.8102 36.4499 38.8099 36.4499 38.8097C36.4499 38.8094 36.4499 38.8092 36.4499 38.8089C36.4499 38.8087 36.4499 38.8084 36.4499 38.8082C36.4499 38.8079 36.4499 38.8077 36.4499 38.8074C36.4499 38.8072 36.4499 38.807 36.4499 38.8067C36.4499 38.8065 36.4499 38.8062 36.4499 38.806C36.4499 38.8057 36.4499 38.8055 36.4499 38.8052C36.4499 38.805 36.4499 38.8047 36.4499 38.8045C36.4499 38.8042 36.4499 38.804 36.4499 38.8037C36.4499 38.8035 36.4499 38.8033 36.4499 38.803C36.4499 38.8028 36.4499 38.8025 36.4499 38.8023C36.4499 38.802 36.4499 38.8018 36.4499 38.8015C36.4499 38.8013 36.4499 38.801 36.4499 38.8008C36.4499 38.8006 36.4499 38.8003 36.4499 38.8001C36.4499 38.7998 36.4499 38.7996 36.4499 38.7993C36.4499 38.7991 36.4499 38.7989 36.4499 38.7986C36.4499 38.7984 36.4499 38.7981 36.4499 38.7979C36.4499 38.7976 36.4499 38.7974 36.4499 38.7972C36.4499 38.7969 36.4499 38.7967 36.4499 38.7964C36.4499 38.7962 36.4499 38.796 36.4499 38.7957C36.4499 38.7955 36.4499 38.7952 36.4499 38.795C36.4499 38.7947 36.4499 38.7945 36.4499 38.7943C36.4499 38.794 36.4499 38.7938 36.4499 38.7935C36.4499 38.7933 36.4499 38.7931 36.4499 38.7928C36.4499 38.7926 36.4499 38.7923 36.4499 38.7921C36.4499 38.7919 36.4499 38.7916 36.4499 38.7914C36.4499 38.7912 36.4499 38.7909 36.4499 38.7907C36.4499 38.7904 36.4499 38.7902 36.4499 38.79C36.4499 38.7897 36.4499 38.7895 36.4499 38.7893C36.4499 38.789 36.4499 38.7888 36.4499 38.7885C36.4499 38.7883 36.4499 38.7881 36.4499 38.7878C36.4499 38.7876 36.4499 38.7874 36.4499 38.7871C36.4499 38.7869 36.4499 38.7867 36.4499 38.7864C36.4499 38.7862 36.4499 38.7859 36.4499 38.7857C36.4499 38.7855 36.4499 38.7852 36.4499 38.785C36.4499 38.7848 36.4499 38.7845 36.4499 38.7843C36.4499 38.7841 36.4499 38.7838 36.4499 38.7836C36.4499 38.7834 36.4499 38.7831 36.4499 38.7829C36.4499 38.7827 36.4499 38.7824 36.4499 38.7822C36.4499 38.782 36.4499 38.7817 36.4499 38.7815C36.4499 38.7813 36.4499 38.781 36.4499 38.7808C36.4499 38.7806 36.4499 38.7803 36.4499 38.7801C36.4499 38.7799 36.4499 38.7797 36.4499 38.7794C36.4499 38.7792 36.4499 38.779 36.4499 38.7787C36.4499 38.7785 36.4499 38.7783 36.4499 38.778C36.4499 38.7778 36.4499 38.7776 36.4499 38.7774C36.4499 38.7771 36.4499 38.7769 36.4499 38.7767C36.4499 38.7764 36.4499 38.7762 36.4499 38.776C36.4499 38.7757 36.4499 38.7755 36.4499 38.7753C36.4499 38.7751 36.4499 38.7748 36.4499 38.7746C36.4499 38.7744 36.4499 38.7742 36.4499 38.7739C36.4499 38.7737 36.4499 38.7735 36.4499 38.7732C36.4499 38.773 36.4499 38.7728 36.4499 38.7726C36.4499 38.7723 36.4499 38.7721 36.4499 38.7719C36.4499 38.7717 36.4499 38.7714 36.4499 38.7712C36.4499 38.771 36.4499 38.7708 36.4499 38.7705C36.4499 38.7703 36.4499 38.7701 36.4499 38.7699C36.4499 38.7696 36.4499 38.7694 36.4499 38.7692C36.4499 38.769 36.4499 38.7687 36.4499 38.7685C36.4499 38.7683 36.4499 38.7681 36.4499 38.7678C36.4499 38.7676 36.4499 38.7674 36.4499 38.7672C36.4499 38.767 36.4499 38.7667 36.4499 38.7665C36.4499 38.7663 36.4499 38.7661 36.4499 38.7659C36.4499 38.7656 36.4499 38.7654 36.4499 38.7652C36.4499 38.765 36.4499 38.7647 36.4499 38.7645C36.4499 38.7643 36.4499 38.7641 36.4499 38.7639C36.4499 38.7636 36.4499 38.7634 36.4499 38.7632C36.4499 38.763 36.4499 38.7628 36.4499 38.7625C36.4499 38.7623 36.4499 38.7621 36.4499 38.7619C36.4499 38.7617 36.4499 38.7615 36.4499 38.7612C36.4499 38.761 36.4499 38.7608 36.4499 38.7606C36.4499 38.7604 36.4499 38.7601 36.4499 38.7599C36.4499 38.7597 36.4499 38.7595 36.4499 38.7593C36.4499 38.7591 36.4499 38.7588 36.4499 38.7586C36.4499 38.7584 36.4499 38.7582 36.4499 38.758C36.4499 38.7578 36.4499 38.7576 36.4499 38.7573C36.4499 38.7571 36.4499 38.7569 36.4499 38.7567C36.4499 38.7565 36.4499 38.7563 36.4499 38.756C36.4499 38.7558 36.4499 38.7556 36.4499 38.7554C36.4499 38.7552 36.4499 38.755 36.4499 38.7548C36.4499 38.7546 36.4499 38.7543 36.4499 38.7541C36.4499 38.7539 36.4499 38.7537 36.4499 38.7535C36.4499 38.7533 36.4499 38.7531 36.4499 38.7529C36.4499 38.7526 36.4499 38.7524 36.4499 38.7522C36.4499 38.752 36.4499 38.7518 36.4499 38.7516C36.4499 38.7514 36.4499 38.7512 36.4499 38.751C36.4499 38.7507 36.4499 38.7505 36.4499 38.7503C36.4499 38.7501 36.4499 38.7499 36.4499 38.7497C36.4499 38.7495 36.4499 38.7493 36.4499 38.7491C36.4499 38.7489 36.4499 38.7487 36.4499 38.7484C36.4499 38.7482 36.4499 38.748 36.4499 38.7478C36.4499 38.7476 36.4499 38.7474 36.4499 38.7472C36.4499 38.747 36.4499 38.7468 36.4499 38.7466C36.4499 38.7464 36.4499 38.7462 36.4499 38.746C36.4499 38.7458 36.4499 38.7456 36.4499 38.7453C36.4499 38.7451 36.4499 38.7449 36.4499 38.7447C36.4499 38.7445 36.4499 38.7443 36.4499 38.7441C36.4499 38.7439 36.4499 38.7437 36.4499 38.7435C36.4499 38.7433 36.4499 38.7431 36.4499 38.7429C36.4499 38.7427 36.4499 38.7425 36.4499 38.7423C36.4499 38.7421 36.4499 38.7419 36.4499 38.7417C36.4499 38.7415 36.4499 38.7413 36.4499 38.7411C36.4499 38.7409 36.4499 38.7407 36.4499 38.7405C36.4499 38.7403 36.4499 38.7401 36.4499 38.7399C36.4499 38.7397 36.4499 38.7395 36.4499 38.7393C36.4499 38.7391 36.4499 38.7389 36.4499 38.7387C36.4499 38.7385 36.4499 38.7383 36.4499 38.7381C36.4499 38.7379 36.4499 38.7377 36.4499 38.7375C36.4499 38.7373 36.4499 38.7371 36.4499 38.7369C36.4499 38.7367 36.4499 38.7365 36.4499 38.7363C36.4499 38.7361 36.4499 38.7359 36.4499 38.7357C36.4499 38.7355 36.4499 38.7353 36.4499 38.7351C36.4499 38.7349 36.4499 38.7347 36.4499 38.7345C36.4499 38.7343 36.4499 38.7341 36.4499 38.7339C36.4499 38.7337 36.4499 38.7335 36.4499 38.7333C36.4499 38.7331 36.4499 38.7329 36.4499 38.7328C36.4499 38.7326 36.4499 38.7324 36.4499 38.7322C36.4499 38.732 36.4499 38.7318 36.4499 38.7316C36.4499 38.7314 36.4499 38.7312 36.4499 38.731C36.4499 38.7308 36.4499 38.7306 36.4499 38.7304C36.4499 38.7302 36.4499 38.7301 36.4499 38.7299C36.4499 38.7297 36.4499 38.7295 36.4499 38.7293C36.4499 38.7291 36.4499 38.7289 36.4499 38.7287C36.4499 38.7285 36.4499 38.7283 36.4499 38.7281C36.4499 38.728 36.4499 38.7278 36.4499 38.7276C36.4499 38.7274 36.4499 38.7272 36.4499 38.727C36.4499 38.7268 36.4499 38.7266 36.4499 38.7264C36.4499 38.7263 36.4499 38.7261 36.4499 38.7259C36.4499 38.7257 36.4499 38.7255 36.4499 38.7253C36.4499 38.7251 36.4499 38.7249 36.4499 38.7248C36.4499 38.7246 36.4499 38.7244 36.4499 38.7242C36.4499 38.724 36.4499 38.7238 36.4499 38.7236C36.4499 38.7235 36.4499 38.7233 36.4499 38.7231C36.4499 38.7229 36.4499 38.7227 36.4499 38.7225C36.4499 38.7223 36.4499 38.7222 36.4499 38.722C36.4499 38.7218 36.4499 38.7216 36.4499 38.7214C36.4499 38.7212 36.4499 38.7211 36.4499 38.7209C36.4499 38.7207 36.4499 38.7205 36.4499 38.7203C36.4499 38.7202 36.4499 38.72 36.4499 38.7198C36.4499 38.7196 36.4499 38.7194 36.4499 38.7192C36.4499 38.7191 36.4499 38.7189 36.4499 38.7187C36.4499 38.7185 36.4499 38.7183 36.4499 38.7182C36.4499 38.718 36.4499 38.7178 36.4499 38.7176C36.4499 38.7174 36.4499 38.7173 36.4499 38.7171C36.4499 38.7169 36.4499 38.7167 36.4499 38.7166C36.4499 38.7164 36.4499 38.7162 36.4499 38.716C36.4499 38.7158 36.4499 38.7157 36.4499 38.7155C36.4499 38.7153 36.4499 38.7151 36.4499 38.715C36.4499 38.7148 36.4499 38.7146 36.4499 38.7144C36.4499 38.7143 36.4499 38.7141 36.4499 38.7139C36.4499 38.7137 36.4499 38.7136 36.4499 38.7134C36.4499 38.7132 36.4499 38.713 36.4499 38.7129C36.4499 38.7127 36.4499 38.7125 36.4499 38.7123C36.4499 38.7122 36.4499 38.712 36.4499 38.7118C36.4499 38.7117 36.4499 38.7115 36.4499 38.7113C36.4499 38.7111 36.4499 38.711 36.4499 38.7108C36.4499 38.7106 36.4499 38.7105 36.4499 38.7103C36.4499 38.7101 36.4499 38.7099 36.4499 38.7098C36.4499 38.7096 36.4499 38.7094 36.4499 38.7093C36.4499 38.7091 36.4499 38.7089 36.4499 38.7087C36.4499 38.7086 36.4499 38.7084 36.4499 38.7082C36.4499 38.7081 36.4499 38.7079 36.4499 38.7077C36.4499 38.7076 36.4499 38.7074 36.4499 38.7072C36.4499 38.7071 36.4499 38.7069 36.4499 38.7067C36.4499 38.7066 36.4499 38.7064 36.4499 38.7062C36.4499 38.7061 36.4499 38.7059 36.4499 38.7057C36.4499 38.7056 36.4499 38.7054 36.4499 38.7052C36.4499 38.7051 36.4499 38.7049 36.4499 38.7048C36.4499 38.7046 36.4499 38.7044 36.4499 38.7043C36.4499 38.7041 36.4499 38.7039 36.4499 38.7038C36.4499 38.7036 36.4499 38.7034 36.4499 38.7033C36.4499 38.7031 36.4499 38.703 36.4499 38.7028C36.4499 38.7026 36.4499 38.7025 36.4499 38.7023C36.4499 38.7021 36.4499 38.702 36.4499 38.7018C36.4499 38.7017 36.4499 38.7015 36.4499 38.7013C36.4499 38.7012 36.4499 38.701 36.4499 38.7009C36.4499 38.7007 36.4499 38.7005 36.4499 38.7004H35.4499ZM35.4499 39.1066L34.4693 38.9105C34.4184 39.1652 34.2654 39.395 34.1999 39.4441L34.7999 40.2441L35.3999 41.0441C35.9843 40.6058 36.3189 39.8606 36.4305 39.3028L35.4499 39.1066ZM34.7999 40.2441L34.0928 39.537C33.8336 39.7962 33.5808 40.1703 33.445 40.5779L34.3936 40.8941L35.3423 41.2104C35.3527 41.1793 35.3746 41.1311 35.41 41.0755C35.4452 41.0202 35.4815 40.9768 35.507 40.9512L34.7999 40.2441ZM34.3936 40.8941L33.4519 40.5578L33.0456 41.6953L33.9874 42.0316L34.9291 42.368L35.3354 41.2305L34.3936 40.8941ZM33.9874 42.0316L33.093 41.5844C32.9293 41.9117 32.4687 42.4611 31.899 43.0308L32.6061 43.7379L33.3132 44.445C33.8811 43.8771 34.558 43.1265 34.8818 42.4789L33.9874 42.0316ZM32.6061 43.7379L31.899 43.0308C31.8165 43.1133 31.7307 43.1989 31.6389 43.2823C31.5455 43.3673 31.465 43.4322 31.4014 43.4746L31.9561 44.3066L32.5108 45.1387C32.8516 44.9115 33.1651 44.5932 33.3132 44.445L32.6061 43.7379ZM31.9561 44.3066L31.5847 43.3782C31.3499 43.4721 30.9278 43.5504 30.2499 43.5504V44.5504V45.5504C31.0345 45.5504 31.7499 45.4662 32.3275 45.2351L31.9561 44.3066ZM27.5686 45.5254L26.9439 46.3063C28.0487 47.19 29.5044 47.2566 30.2499 47.2566V46.2566V45.2566C29.5329 45.2566 28.7136 45.1607 28.1933 44.7445L27.5686 45.5254ZM30.2499 46.2566V47.2566C30.9954 47.2566 32.4511 47.19 33.5558 46.3063L32.9311 45.5254L32.3064 44.7445C31.7862 45.1607 30.9669 45.2566 30.2499 45.2566V46.2566ZM32.9311 45.5254L33.4858 46.3574C33.8288 46.1288 34.1461 45.8059 34.3695 45.5825L33.6624 44.8754L32.9553 44.1683C32.6912 44.4324 32.521 44.597 32.3764 44.6933L32.9311 45.5254ZM33.6624 44.8754L34.3695 45.5825C35.0664 44.8856 35.7801 44.0001 36.2428 43.1673L35.3686 42.6816L34.4945 42.196C34.1447 42.8257 33.5584 43.5652 32.9553 44.1683L33.6624 44.8754ZM35.3686 42.6816C36.3686 42.6816 36.3686 42.6821 36.3686 42.6826C36.3686 42.6828 36.3686 42.6833 36.3686 42.6836C36.3686 42.6843 36.3686 42.6849 36.3686 42.6856C36.3686 42.6869 36.3686 42.6882 36.3686 42.6895C36.3686 42.6922 36.3686 42.6948 36.3685 42.6975C36.3684 42.7029 36.3683 42.7084 36.3681 42.714C36.3677 42.7252 36.3671 42.737 36.3663 42.7494C36.3645 42.7738 36.3615 42.802 36.3563 42.8334C36.3467 42.8912 36.3255 42.9837 36.2732 43.0882C36.219 43.1967 36.1219 43.3356 35.9576 43.4451C35.787 43.5589 35.6046 43.6004 35.4499 43.6004V42.6004V41.6004C35.2546 41.6004 35.0416 41.6521 34.8482 41.781C34.6611 41.9058 34.5488 42.065 34.4844 42.1938C34.4219 42.3187 34.3957 42.4314 34.3835 42.5045C34.377 42.5435 34.3734 42.5781 34.3713 42.6069C34.3703 42.6215 34.3696 42.635 34.3692 42.6474C34.369 42.6536 34.3689 42.6596 34.3688 42.6653C34.3687 42.6681 34.3687 42.6709 34.3687 42.6736C34.3687 42.675 34.3686 42.6764 34.3686 42.6777C34.3686 42.6784 34.3686 42.679 34.3686 42.6797C34.3686 42.68 34.3686 42.6805 34.3686 42.6807C34.3686 42.6811 34.3686 42.6816 35.3686 42.6816ZM35.4499 42.6004L36.3986 42.9166L36.8048 41.6979L35.8561 41.3816L34.9075 41.0654L34.5012 42.2842L35.4499 42.6004ZM35.8561 41.3816L36.5069 42.1409C37.2829 41.4757 37.7744 40.4469 37.9698 39.5673L36.9936 39.3504L36.0174 39.1335C35.8879 39.7164 35.5668 40.3125 35.2053 40.6224L35.8561 41.3816ZM36.9936 39.3504L37.9836 39.4918C38.0577 38.9729 38.256 37.6548 37.2945 36.6933L36.5874 37.4004L35.8803 38.1075C35.9641 38.1913 36.019 38.3039 36.0411 38.4922C36.0654 38.6985 36.0432 38.9326 36.0037 39.209L36.9936 39.3504ZM36.5874 37.4004H37.5874C37.5874 36.5584 37.4062 35.2582 36.8318 34.1094L35.9374 34.5566L35.043 35.0039C35.4436 35.805 35.5874 36.7799 35.5874 37.4004H36.5874ZM35.9374 34.5566L36.8565 34.1627C36.5514 33.4508 35.896 32.5138 34.7911 32.1455L34.4749 33.0941L34.1587 34.0428C34.5162 34.162 34.8358 34.525 35.0182 34.9506L35.9374 34.5566ZM34.4749 33.0941L34.826 32.1578C33.857 31.7944 32.7385 31.9399 31.7955 32.4637L32.2811 33.3379L32.7668 34.212C33.2863 33.9234 33.7927 33.9063 34.1238 34.0305L34.4749 33.0941ZM32.2811 33.3379L32.3745 32.3423C29.727 32.0941 27.4734 32.2345 25.8428 33.0018L26.2686 33.9066L26.6944 34.8115C27.8264 34.2788 29.6353 34.0942 32.1878 34.3335L32.2811 33.3379ZM26.2686 33.9066L25.8625 32.9928C24.9623 33.3929 24.1159 34.1072 23.668 35.0032L24.5624 35.4504L25.4568 35.8976C25.6589 35.4935 26.1125 35.0703 26.6748 34.8205L26.2686 33.9066ZM24.5624 35.4504L23.6941 34.9543C23.2765 35.685 23.0894 36.4834 22.9998 37.29L23.9936 37.4004L24.9875 37.5108C25.0604 36.8548 25.1982 36.3532 25.4306 35.9465L24.5624 35.4504ZM23.9936 37.4004L23.2865 36.6933C22.3543 37.6255 22.4134 38.8814 22.6259 39.6251L23.5874 39.3504L24.5489 39.0757C24.4364 38.6819 24.4955 38.3128 24.7007 38.1075L23.9936 37.4004ZM23.5874 39.3504L22.6112 39.5673C22.8172 40.4943 23.3221 41.393 24.0178 42.0887L24.7249 41.3816L25.432 40.6745C24.9902 40.2327 24.6826 39.6689 24.5636 39.1335L23.5874 39.3504ZM24.7249 41.3816L23.7762 41.6979L24.1825 42.9166L25.1311 42.6004L26.0798 42.2842L25.6736 41.0654L24.7249 41.3816ZM25.1311 42.6004C24.1311 42.6004 24.1311 42.6009 24.1311 42.6014C24.1311 42.6015 24.1311 42.602 24.1311 42.6024C24.1311 42.603 24.1311 42.6037 24.1311 42.6043C24.1312 42.6057 24.1312 42.607 24.1312 42.6084C24.1312 42.6111 24.1312 42.6139 24.1313 42.6168C24.1314 42.6225 24.1315 42.6284 24.1317 42.6346C24.1321 42.647 24.1328 42.6606 24.1338 42.6751C24.1359 42.7039 24.1395 42.7386 24.146 42.7775C24.1582 42.8506 24.1844 42.9634 24.2469 43.0882C24.3113 43.217 24.4236 43.3762 24.6107 43.501C24.8041 43.6299 25.0171 43.6816 25.2124 43.6816V42.6816V41.6816C25.3671 41.6816 25.5495 41.7232 25.7201 41.8369C25.8844 41.9464 25.9815 42.0853 26.0357 42.1938C26.088 42.2984 26.1092 42.3908 26.1188 42.4487C26.124 42.48 26.127 42.5083 26.1288 42.5326C26.1296 42.545 26.1302 42.5568 26.1306 42.568C26.1308 42.5736 26.1309 42.5791 26.131 42.5845C26.1311 42.5872 26.1311 42.5899 26.1311 42.5925C26.1311 42.5938 26.1311 42.5952 26.1311 42.5965C26.1311 42.5971 26.1311 42.5978 26.1311 42.5984C26.1311 42.5988 26.1311 42.5992 26.1311 42.5994C26.1311 42.5999 26.1311 42.6004 25.1311 42.6004ZM25.2124 42.6816L24.3382 43.1673C24.8009 44.0001 25.5146 44.8856 26.2115 45.5825L26.9186 44.8754L27.6257 44.1683C27.0226 43.5652 26.4364 42.8257 26.0865 42.196L25.2124 42.6816ZM27.5686 45.5254L28.1233 44.6933C27.9788 44.597 27.8086 44.4324 27.5445 44.1683L26.8374 44.8754L26.1303 45.5825C26.3537 45.8059 26.671 46.1288 27.0139 46.3574L27.5686 45.5254ZM26.8374 44.8754L26.173 45.6228L26.9043 46.2728L27.5686 45.5254L28.233 44.778L27.5018 44.128L26.8374 44.8754Z" fill="#08526D" mask="url(#path-5-inside-1_3764_6949)"></path>
</g>
<path id="Vector_6" d="M31.875 63.5625C32.2 59.7438 33.0125 54.8688 33.5 53.5688C33.7438 52.7563 34.3938 52.025 35.2063 51.7L44.1437 48.125L47.0688 52.675C47.3125 53.0812 47.7188 53.2437 48.125 53.2437C48.5312 53.2437 49.0187 53 49.1812 52.675L52.1063 48.125L61.0438 51.7C61.8563 52.025 62.5062 52.7563 62.75 53.5688C63.1562 54.95 63.9688 59.825 64.2938 63.5625H31.875Z" stroke="#08526D" stroke-width="1.5" stroke-miterlimit="10" stroke-linejoin="round" class="id_anim_stroke-property6" data-duration="2.7777777777777777" data-offset="0" style="stroke-dashoffset: 0px; stroke-dasharray: 0px, 90.4866px; animation: 2.77778s linear 0s 1 normal forwards running id_anim_stroke-property6;"></path>
<path id="Vector_7" d="M41.4626 38.4563C41.4626 37.8063 41.3813 36.2625 41.3813 35.6938C41.3813 33.9063 41.8688 30.1687 45.2001 30.1687C46.2563 30.1687 46.0126 29.4375 48.0438 29.4375C54.3813 29.4375 54.8688 33.6625 54.8688 35.6938C54.7876 36.1813 54.7876 37.725 54.7876 38.4563" stroke="#08526D" stroke-width="1.5" stroke-miterlimit="10" stroke-linejoin="round" class="id_anim_stroke-property7" data-duration="2.7777777777777777" data-offset="0" style="stroke-dashoffset: 0px; stroke-dasharray: 0px, 26.6635px; animation: 2.77778s linear 0s 1 normal forwards running id_anim_stroke-property7;"></path>
<path id="Vector_8" d="M48.1249 47.0688C48.4499 47.0688 48.6936 47.0687 48.9374 46.9875C49.0186 46.9875 49.0999 46.9875 49.0999 46.9875C49.6686 46.9062 50.2374 46.825 50.7249 46.4188C50.9686 46.175 51.2936 46.0125 51.5374 45.7687C52.2686 45.0375 52.9999 44.225 53.3249 43.4937L53.8124 42.1125C53.8936 41.95 53.9749 41.8688 54.0561 41.7875C55.0311 40.8938 55.6811 38.8625 54.5436 38.375C54.5436 38.375 54.1374 38.6188 53.7311 38.1313C53.5686 37.8875 53.3249 37.4813 53.2436 36.9125C53.2436 36.8313 53.0811 36.75 52.9999 36.75C48.9374 37.4 45.7686 35.2875 44.7936 34.475C44.7124 34.3125 44.6311 34.3125 44.4686 34.3125C44.3874 34.3125 44.2249 34.3938 44.2249 34.475C44.1436 34.9625 43.9811 35.45 43.8999 35.8562C43.5749 36.9125 43.0874 37.6437 42.4374 38.2937C42.1124 38.7 41.6249 38.2937 41.6249 38.2937C40.5686 38.7812 41.2186 40.8125 42.1124 41.7062C42.1936 41.7875 42.2749 41.95 42.3561 42.0312L42.8436 43.4125C43.2499 44.1438 43.8999 44.9563 44.6311 45.6875C44.8749 45.9313 45.1999 46.175 45.4436 46.3375C45.9311 46.7437 46.4186 46.825 47.0686 46.9062C47.0686 46.9062 47.1499 46.9062 47.2311 46.9062C47.5561 47.0688 47.7999 47.0688 48.1249 47.0688Z" stroke="#08526D" stroke-width="1.5" stroke-miterlimit="10" stroke-linejoin="round" class="id_anim_stroke-property8" data-duration="2.7777777777777777" data-offset="0" style="stroke-dashoffset: 0px; stroke-dasharray: 0px, 42.2785px; animation: 2.77778s linear 0s 1 normal forwards running id_anim_stroke-property8;"></path>
<path id="Vector_9" d="M35.3958 46.6758C35.4331 46.6683 35.4824 46.6698 35.551 46.7041L35.5686 46.7119L36.9036 47.3184L36.6624 47.8623L35.9055 47.5098L35.6311 47.3818L35.3899 47.5654C34.7418 48.061 33.8287 48.5686 32.8772 48.9512C31.9192 49.3363 30.9714 49.5752 30.2502 49.5752C29.4916 49.5752 28.5258 49.3174 27.5667 48.9219C26.6144 48.5292 25.7181 48.021 25.1067 47.5625L24.8801 47.3926L24.6184 47.499L19.4192 49.6113C18.731 49.8552 18.3373 50.5122 18.1565 51.0547C17.979 51.5872 17.7508 52.7453 17.5286 54.1191C17.3037 55.5091 17.0788 57.1636 16.9153 58.7168L16.8567 59.2686H28.2073L28.1135 59.8936H16.4377C16.3078 59.8936 16.2065 59.793 16.2063 59.6631V58.7881C16.3273 57.3059 16.5484 55.6021 16.7893 54.1162C17.0029 52.7989 17.2271 51.6827 17.4065 51.0449L17.4807 50.8018C17.7688 50.0188 18.3307 49.3328 19.0696 48.9922L24.7073 46.7363C24.8274 46.7082 24.9109 46.704 24.9592 46.7109C24.9635 46.7115 24.967 46.7123 24.97 46.7129L24.9983 46.7549L25.052 46.8008C25.6302 47.29 26.551 47.8206 27.4797 48.2275C28.3974 48.6297 29.4112 48.9502 30.1692 48.9502C30.9315 48.9501 31.9679 48.6062 32.8821 48.1953C33.8054 47.7803 34.7143 47.247 35.218 46.7891L35.2268 46.7812L35.2346 46.7725C35.2978 46.7093 35.3546 46.684 35.3958 46.6758Z" stroke="#08526D" class="id_anim_stroke-property9" data-duration="2.7777777777777777" data-offset="0" style="stroke-dashoffset: 0px; stroke-dasharray: 0px, 84.6909px; animation: 2.77778s linear 0s 1 normal forwards running id_anim_stroke-property9;"></path>
</g>
</g>
</g>
</g>
<defs>
<linearGradient id="paint0_linear_3764_6949" x1="48.125" y1="63.5625" x2="48.125" y2="53.2012" gradientUnits="userSpaceOnUse">
<stop stop-color="#ADE3F6"></stop>
<stop offset="0.01" stop-color="#ADE3F6" stop-opacity="0.98"></stop>
<stop offset="0.56" stop-color="#ADE3F6" stop-opacity="0.28"></stop>
<stop offset="0.79" stop-color="#ADE3F6" stop-opacity="0"></stop>
</linearGradient>
</defs>
<style>
        @keyframes id_anim_stroke-property2{
        
            0%{
                stroke-dashoffset: 0px; 
        stroke-dasharray: 0px, 30.81465721130371px;
            }
        
            50%{
                stroke-dashoffset: -15.407328605651855px; 
        stroke-dasharray: 15.407328605651855px, 15.407328605651855px;
            }
        
            100%{
                stroke-dashoffset: -30.81465721130371px; 
        stroke-dasharray: 30.81465721130371px, 0px;
            }
        
        }
         
        @keyframes id_anim_stroke-property3{
        
            0%{
                stroke-dashoffset: 0px; 
        stroke-dasharray: 0px, 45.03251266479492px;
            }
        
            50%{
                stroke-dashoffset: -22.51625633239746px; 
        stroke-dasharray: 22.51625633239746px, 22.51625633239746px;
            }
        
            100%{
                stroke-dashoffset: -45.03251266479492px; 
        stroke-dasharray: 45.03251266479492px, 0px;
            }
        
        }
         
        @keyframes id_anim_stroke-property6{
        
            0%{
                stroke-dashoffset: 0px; 
        stroke-dasharray: 0px, 90.48661804199219px;
            }
        
            50%{
                stroke-dashoffset: -45.243309020996094px; 
        stroke-dasharray: 45.243309020996094px, 45.243309020996094px;
            }
        
            100%{
                stroke-dashoffset: -90.48661804199219px; 
        stroke-dasharray: 90.48661804199219px, 0px;
            }
        
        }
         
        @keyframes id_anim_stroke-property7{
        
            0%{
                stroke-dashoffset: 0px; 
        stroke-dasharray: 0px, 26.663528442382812px;
            }
        
            50%{
                stroke-dashoffset: -13.331764221191406px; 
        stroke-dasharray: 13.331764221191406px, 13.331764221191406px;
            }
        
            100%{
                stroke-dashoffset: -26.663528442382812px; 
        stroke-dasharray: 26.663528442382812px, 0px;
            }
        
        }
         
        @keyframes id_anim_stroke-property8{
        
            0%{
                stroke-dashoffset: 0px; 
        stroke-dasharray: 0px, 42.2784538269043px;
            }
        
            50%{
                stroke-dashoffset: -21.13922691345215px; 
        stroke-dasharray: 21.13922691345215px, 21.13922691345215px;
            }
        
            100%{
                stroke-dashoffset: -42.2784538269043px; 
        stroke-dasharray: 42.2784538269043px, 0px;
            }
        
        }
         
        @keyframes id_anim_stroke-property9{
        
            0%{
                stroke-dashoffset: 0px; 
        stroke-dasharray: 0px, 84.69094848632812px;
            }
        
            50%{
                stroke-dashoffset: -42.34547424316406px; 
        stroke-dasharray: 42.34547424316406px, 42.34547424316406px;
            }
        
            100%{
                stroke-dashoffset: -84.69094848632812px; 
        stroke-dasharray: 84.69094848632812px, 0px;
            }
        
        }
        </style></svg>
