<svg width="80" height="80" viewBox="0 0 80 80" fill="none" xmlns="http://www.w3.org/2000/svg">
<g id="full-outsourcing 1">
<g id="full-outsourcing 1_2" clip-path="url(#clip0_3764_7131)">
<g id="Clip path group">
<mask id="mask0_3764_7131" style="mask-type:luminance" maskUnits="userSpaceOnUse" x="14" y="14" width="52" height="52">
<g id="clip0_3099_126750">
<path id="Vector" d="M66 14H14V66H66V14Z" fill="white"></path>
</g>
</mask>
<g mask="url(#mask0_3764_7131)">
<g id="Group">
<path id="Vector_2" d="M65.5938 28.2188V17.6562C65.5938 15.637 63.9568 14 61.9375 14H44.875C42.8557 14 41.2188 15.637 41.2188 17.6562V28.2188C41.2188 30.2381 42.8557 31.875 44.875 31.875H61.9375C63.9568 31.875 65.5938 30.2381 65.5938 28.2188Z" fill="#ADE3F6"></path>
<path id="Vector_3" d="M46.9602 20.7822H59.4143C59.4488 20.7822 59.4768 20.8102 59.4768 20.8447C59.4768 20.8792 59.4488 20.9072 59.4143 20.9072H46.9602C46.9257 20.9072 46.8977 20.8792 46.8977 20.8447C46.8977 20.8102 46.9257 20.7822 46.9602 20.7822Z" stroke="#08526D" stroke-width="1.5" class="id_anim_stroke-property2" data-duration="2.7777777777777777" data-offset="0" style="stroke-dashoffset: 0px; stroke-dasharray: 0px, 25.3009px; animation: 2.77778s linear 0s 1 normal forwards running id_anim_stroke-property2;"></path>
<path id="Vector_4" d="M46.9602 25.6914H56.2483C56.2828 25.6914 56.3108 25.7194 56.3108 25.7539C56.3108 25.7884 56.2828 25.8164 56.2483 25.8164H46.9602C46.9257 25.8164 46.8977 25.7884 46.8977 25.7539C46.8977 25.7194 46.9257 25.6914 46.9602 25.6914Z" stroke="#08526D" stroke-width="1.5" class="id_anim_stroke-property3" data-duration="2.7777777777777777" data-offset="0" style="stroke-dashoffset: 0px; stroke-dasharray: 0px, 18.9689px; animation: 2.77778s linear 0s 1 normal forwards running id_anim_stroke-property3;"></path>
<path id="Vector_5" d="M29.7996 23.9912C32.6219 23.9912 34.9265 26.206 34.9265 28.957C34.9263 31.7093 32.6218 33.9219 29.7996 33.9219C26.9782 33.9219 24.6737 31.7092 24.6736 28.957C24.6736 26.2064 26.978 23.9912 29.7996 23.9912ZM29.7996 24.6162C27.3029 24.6162 25.2986 26.5716 25.2986 28.957C25.2987 31.3439 27.3028 33.2969 29.7996 33.2969C32.2971 33.2969 34.3013 31.3438 34.3015 28.957C34.3015 26.5713 32.2971 24.6162 29.7996 24.6162Z" stroke="#08526D" class="id_anim_stroke-property4" data-duration="2.7777777777777777" data-offset="0" style="stroke-dashoffset: 0px; stroke-dasharray: 0px, 59.4942px; animation: 2.77778s linear 0s 1 normal forwards running id_anim_stroke-property4;"></path>
<path id="Vector_6" d="M14.8125 40.2002H28.9492C29.0877 40.2003 29.2099 40.2918 29.249 40.4248L32.3721 51.0508C32.3998 51.1452 32.3812 51.2474 32.3223 51.3262C32.2633 51.405 32.1707 51.4511 32.0723 51.4512H17.9355C17.7971 51.4512 17.675 51.3604 17.6357 51.2275V51.2266L14.5127 40.6006C14.485 40.5062 14.5035 40.404 14.5625 40.3252C14.6215 40.2465 14.7141 40.2002 14.8125 40.2002ZM15.418 41.4658L18.0635 50.4678L18.1689 50.8262H31.6543L31.4658 50.1855L28.8203 41.1846L28.7148 40.8252H15.2305L15.418 41.4658Z" stroke="#08526D" class="id_anim_stroke-property5" data-duration="2.7777777777777777" data-offset="0" style="stroke-dashoffset: 0px; stroke-dasharray: 0px, 100.205px; animation: 2.77778s linear 0s 1 normal forwards running id_anim_stroke-property5;"></path>
<path id="Vector_7" d="M34.1987 41.1211C34.3713 41.1211 34.5112 41.261 34.5112 41.4336V43.3652C34.5112 43.8359 34.1203 44.2051 33.6538 44.2051H29.9673C29.7948 44.2051 29.655 44.065 29.6548 43.8926C29.6548 43.72 29.7947 43.5801 29.9673 43.5801H33.8862V41.4336C33.8862 41.261 34.0262 41.1212 34.1987 41.1211Z" stroke="#08526D" class="id_anim_stroke-property6" data-duration="2.7777777777777777" data-offset="0" style="stroke-dashoffset: 0px; stroke-dasharray: 0px, 14.9804px; animation: 2.77778s linear 0s 1 normal forwards running id_anim_stroke-property6;"></path>
<path id="Vector_8" d="M26.292 35.9414H33.3066C36.2936 35.9414 38.7324 38.2848 38.7324 41.1963C38.7324 41.3687 38.5923 41.5085 38.4199 41.5088C38.2473 41.5088 38.1074 41.3689 38.1074 41.1963C38.1074 38.65 35.9689 36.5664 33.3066 36.5664H26.292C25.0209 36.5664 23.8675 37.0425 23.0098 37.8184C22.8818 37.9341 22.6842 37.9238 22.5684 37.7959C22.4526 37.6679 22.462 37.4703 22.5898 37.3545C23.4993 36.5318 24.701 36.0093 26.0254 35.9473L26.292 35.9414Z" stroke="#08526D" class="id_anim_stroke-property7" data-duration="2.7777777777777777" data-offset="0" style="stroke-dashoffset: 0px; stroke-dasharray: 0px, 39.4388px; animation: 2.77778s linear 0s 1 normal forwards running id_anim_stroke-property7;"></path>
<path id="Vector_9" d="M45.5986 31.5273H60.9642C61.413 31.5273 61.7767 31.8911 61.7767 32.3398V63.5633C61.7767 64.0121 61.413 64.3758 60.9642 64.3758H45.5986C45.1499 64.3758 44.7861 64.0121 44.7861 63.5633V32.3398C44.7861 31.8911 45.1499 31.5273 45.5986 31.5273Z" fill="url(#paint0_linear_3764_7131)"></path>
<path id="Vector_10" d="M46.0842 29.5C49.6356 29.5001 52.5323 32.2871 52.5325 35.7432C52.5325 39.2016 49.6356 41.9872 46.0842 41.9873C42.5318 41.9873 39.635 39.2017 39.635 35.7432C39.6352 32.2865 42.5318 29.5 46.0842 29.5ZM46.0842 30.125C42.8566 30.125 40.2602 32.6516 40.26 35.7432C40.26 38.8363 42.8565 41.3623 46.0842 41.3623C49.3108 41.3622 51.9075 38.8363 51.9075 35.7432C51.9073 32.6522 49.3106 30.1251 46.0842 30.125Z" stroke="#08526D" class="id_anim_stroke-property9" data-duration="2.7777777777777777" data-offset="0" style="stroke-dashoffset: 0px; stroke-dasharray: 0px, 75.837px; animation: 2.77778s linear 0s 1 normal forwards running id_anim_stroke-property9;"></path>
<path id="Vector_11" d="M47.1687 50.4873H65.1873C65.2857 50.4873 65.3783 50.5337 65.4373 50.6123C65.4963 50.6912 65.5148 50.7934 65.4871 50.8877L61.5066 64.4326C61.4675 64.5656 61.3454 64.6572 61.2068 64.6572H43.1873C43.089 64.6572 42.9963 64.6109 42.9373 64.5322C42.8784 64.4535 42.8598 64.3514 42.8875 64.2568L46.8689 50.7119C46.908 50.5789 47.0301 50.4873 47.1687 50.4873ZM47.2966 51.4717L43.7937 63.3916L43.6052 64.0322H60.9724L61.0789 63.6729L64.5818 51.7529L64.7703 51.1123H47.4021L47.2966 51.4717Z" stroke="#08526D" class="id_anim_stroke-property10" data-duration="2.7777777777777777" data-offset="0" style="stroke-dashoffset: 0px; stroke-dasharray: 0px, 127.905px; animation: 2.77778s linear 0s 1 normal forwards running id_anim_stroke-property10;"></path>
<path id="Vector_12" d="M40.4763 51.6611C40.6489 51.6611 40.7888 51.8011 40.7888 51.9736V54.7949H45.8699C46.0424 54.7949 46.1823 54.9349 46.1824 55.1074C46.1824 55.28 46.0425 55.4199 45.8699 55.4199H41.1707C40.6219 55.4197 40.1638 54.9863 40.1638 54.4355V51.9736C40.1638 51.8011 40.3037 51.6611 40.4763 51.6611Z" stroke="#08526D" class="id_anim_stroke-property11" data-duration="2.7777777777777777" data-offset="0" style="stroke-dashoffset: 0px; stroke-dasharray: 0px, 18.5914px; animation: 2.77778s linear 0s 1 normal forwards running id_anim_stroke-property11;"></path>
<path id="Vector_13" d="M41.613 45.0596H50.5544C52.3547 45.0596 53.9945 45.7343 55.2156 46.8389C55.3436 46.9547 55.3538 47.1523 55.238 47.2803C55.1223 47.4082 54.9247 47.4176 54.7966 47.3018C53.688 46.299 52.1965 45.6846 50.5544 45.6846H41.613C38.1756 45.6848 35.4089 48.3758 35.4089 51.6719V56.667C35.409 58.4774 36.9301 59.9656 38.8318 59.9658H44.3826C44.5551 59.9659 44.695 60.1058 44.6951 60.2783C44.6951 60.4509 44.5551 60.5908 44.3826 60.5908H38.8318C36.6054 60.5906 34.784 58.8428 34.7839 56.667V51.6719C34.7839 48.0106 37.8508 45.0598 41.613 45.0596Z" stroke="#08526D" class="id_anim_stroke-property12" data-duration="2.7777777777777777" data-offset="0" style="stroke-dashoffset: 0px; stroke-dasharray: 0px, 82.3647px; animation: 2.77778s linear 0s 1 normal forwards running id_anim_stroke-property12;"></path>
<path id="Vector_14" d="M37.2656 64.0303H43.1865C43.3591 64.0303 43.499 64.1702 43.499 64.3428C43.499 64.5153 43.3591 64.6553 43.1865 64.6553H37.2656C37.0931 64.6553 36.9531 64.5153 36.9531 64.3428C36.9531 64.1702 37.093 64.0303 37.2656 64.0303Z" stroke="#08526D" class="id_anim_stroke-property13" data-duration="2.7777777777777777" data-offset="0" style="stroke-dashoffset: 0px; stroke-dasharray: 0px, 13.8056px; animation: 2.77778s linear 0s 1 normal forwards running id_anim_stroke-property13;"></path>
</g>
</g>
</g>
</g>
</g>
<defs>
<linearGradient id="paint0_linear_3764_7131" x1="52.6956" y1="65.1579" x2="52.6956" y2="56.5547" gradientUnits="userSpaceOnUse">
<stop stop-color="#ADE3F6"></stop>
<stop offset="1" stop-color="#ADE3F6" stop-opacity="0"></stop>
</linearGradient>
<clipPath id="clip0_3764_7131">
<rect width="52" height="52" fill="white" transform="translate(14 14)"></rect>
</clipPath>
</defs>
<style>
        @keyframes id_anim_stroke-property2{
        
            0%{
                stroke-dashoffset: 0px; 
        stroke-dasharray: 0px, 25.30092430114746px;
            }
        
            50%{
                stroke-dashoffset: -12.65046215057373px; 
        stroke-dasharray: 12.65046215057373px, 12.65046215057373px;
            }
        
            100%{
                stroke-dashoffset: -25.30092430114746px; 
        stroke-dasharray: 25.30092430114746px, 0px;
            }
        
        }
         
        @keyframes id_anim_stroke-property3{
        
            0%{
                stroke-dashoffset: 0px; 
        stroke-dasharray: 0px, 18.96892738342285px;
            }
        
            50%{
                stroke-dashoffset: -9.484463691711426px; 
        stroke-dasharray: 9.484463691711426px, 9.484463691711426px;
            }
        
            100%{
                stroke-dashoffset: -18.96892738342285px; 
        stroke-dasharray: 18.96892738342285px, 0px;
            }
        
        }
         
        @keyframes id_anim_stroke-property4{
        
            0%{
                stroke-dashoffset: 0px; 
        stroke-dasharray: 0px, 59.49416732788086px;
            }
        
            50%{
                stroke-dashoffset: -29.74708366394043px; 
        stroke-dasharray: 29.74708366394043px, 29.74708366394043px;
            }
        
            100%{
                stroke-dashoffset: -59.49416732788086px; 
        stroke-dasharray: 59.49416732788086px, 0px;
            }
        
        }
         
        @keyframes id_anim_stroke-property5{
        
            0%{
                stroke-dashoffset: 0px; 
        stroke-dasharray: 0px, 100.20530700683594px;
            }
        
            50%{
                stroke-dashoffset: -50.10265350341797px; 
        stroke-dasharray: 50.10265350341797px, 50.10265350341797px;
            }
        
            100%{
                stroke-dashoffset: -100.20530700683594px; 
        stroke-dasharray: 100.20530700683594px, 0px;
            }
        
        }
         
        @keyframes id_anim_stroke-property6{
        
            0%{
                stroke-dashoffset: 0px; 
        stroke-dasharray: 0px, 14.980415344238281px;
            }
        
            50%{
                stroke-dashoffset: -7.490207672119141px; 
        stroke-dasharray: 7.490207672119141px, 7.490207672119141px;
            }
        
            100%{
                stroke-dashoffset: -14.980415344238281px; 
        stroke-dasharray: 14.980415344238281px, 0px;
            }
        
        }
         
        @keyframes id_anim_stroke-property7{
        
            0%{
                stroke-dashoffset: 0px; 
        stroke-dasharray: 0px, 39.4388313293457px;
            }
        
            50%{
                stroke-dashoffset: -19.71941566467285px; 
        stroke-dasharray: 19.71941566467285px, 19.71941566467285px;
            }
        
            100%{
                stroke-dashoffset: -39.4388313293457px; 
        stroke-dasharray: 39.4388313293457px, 0px;
            }
        
        }
         
        @keyframes id_anim_stroke-property9{
        
            0%{
                stroke-dashoffset: 0px; 
        stroke-dasharray: 0px, 75.83695220947266px;
            }
        
            50%{
                stroke-dashoffset: -37.91847610473633px; 
        stroke-dasharray: 37.91847610473633px, 37.91847610473633px;
            }
        
            100%{
                stroke-dashoffset: -75.83695220947266px; 
        stroke-dasharray: 75.83695220947266px, 0px;
            }
        
        }
         
        @keyframes id_anim_stroke-property10{
        
            0%{
                stroke-dashoffset: 0px; 
        stroke-dasharray: 0px, 127.90510559082031px;
            }
        
            50%{
                stroke-dashoffset: -63.952552795410156px; 
        stroke-dasharray: 63.952552795410156px, 63.952552795410156px;
            }
        
            100%{
                stroke-dashoffset: -127.90510559082031px; 
        stroke-dasharray: 127.90510559082031px, 0px;
            }
        
        }
         
        @keyframes id_anim_stroke-property11{
        
            0%{
                stroke-dashoffset: 0px; 
        stroke-dasharray: 0px, 18.59138298034668px;
            }
        
            50%{
                stroke-dashoffset: -9.29569149017334px; 
        stroke-dasharray: 9.29569149017334px, 9.29569149017334px;
            }
        
            100%{
                stroke-dashoffset: -18.59138298034668px; 
        stroke-dasharray: 18.59138298034668px, 0px;
            }
        
        }
         
        @keyframes id_anim_stroke-property12{
        
            0%{
                stroke-dashoffset: 0px; 
        stroke-dasharray: 0px, 82.36474609375px;
            }
        
            50%{
                stroke-dashoffset: -41.182373046875px; 
        stroke-dasharray: 41.182373046875px, 41.182373046875px;
            }
        
            100%{
                stroke-dashoffset: -82.36474609375px; 
        stroke-dasharray: 82.36474609375px, 0px;
            }
        
        }
         
        @keyframes id_anim_stroke-property13{
        
            0%{
                stroke-dashoffset: 0px; 
        stroke-dasharray: 0px, 13.805558204650879px;
            }
        
            50%{
                stroke-dashoffset: -6.9027791023254395px; 
        stroke-dasharray: 6.9027791023254395px, 6.9027791023254395px;
            }
        
            100%{
                stroke-dashoffset: -13.805558204650879px; 
        stroke-dasharray: 13.805558204650879px, 0px;
            }
        
        }
        </style></svg>
