<svg width="80" height="80" viewBox="0 0 80 80" fill="none" xmlns="http://www.w3.org/2000/svg">
<g id="managed 1">
<g id="managed 1_2" clip-path="url(#clip0_3764_7145)">
<path id="Vector" d="M24.8875 49.0996L35.45 59.7434L38.7 56.4934L50.3187 56.4121L54.7062 52.7559L64.6187 42.7621L65.1875 39.5934L63.075 38.1309L60.9625 38.6184L57.3062 41.9496L50.5625 47.7996L51.7 45.1996L50.8062 42.3559L47.7999 40.8934L34.3937 41.2996L31.3875 42.5996L28.4625 45.5246L24.8875 49.0996Z" fill="url(#paint0_linear_3764_7145)"></path>
<path id="Vector_2" d="M36 32.2591V19.7409C36 16.5515 34.0072 14 31.5362 14H18.4638C15.9928 14 14 16.6312 14 19.7409V32.2591C14 35.4485 15.9928 38 18.4638 38H31.5362C34.0072 38 36 35.4485 36 32.2591Z" fill="#B3DEFF"></path>
<path id="Vector_3" d="M35.7333 60.0179C36.1171 60.4067 36.1178 61.0315 35.7349 61.4212L32.5868 64.6256C32.1955 65.0239 31.5539 65.0246 31.1617 64.6273L20.1357 53.4571C19.7519 53.0683 19.7511 52.4435 20.134 52.0538L23.2822 48.8494C23.6735 48.4511 24.315 48.4504 24.7072 48.8477L35.7333 60.0179Z" stroke="#08526D" stroke-width="1.5" stroke-miterlimit="10" stroke-linecap="round" stroke-linejoin="round" class="id_anim_stroke-property2" data-duration="2.7777777777777777" data-offset="0" style="stroke-dashoffset: 0px; stroke-dasharray: 0px, 46.6593px; animation: 2.77778s linear 0s 1 normal forwards running id_anim_stroke-property2;"></path>
<path id="Vector_4" d="M24.8875 49.1L30.8187 43.0875C32.0375 41.8687 33.6625 41.2188 35.3687 41.2188H48.2062C50.1562 41.2188 51.7 42.7625 51.7 44.7125C51.7 46.6625 50.1562 48.2062 48.2062 48.2062H40.4062" stroke="#08526D" stroke-width="1.5" stroke-miterlimit="10" stroke-linecap="round" stroke-linejoin="round" class="id_anim_stroke-property3" data-duration="2.7777777777777777" data-offset="0" style="stroke-dashoffset: 0px; stroke-dasharray: 0px, 45.1273px; animation: 2.77778s linear 0s 1 normal forwards running id_anim_stroke-property3;"></path>
<path id="Vector_5" d="M48.2062 48.2877C49.9937 48.2877 51.7 47.5564 52.9187 46.3377L60.2312 38.9439C61.3687 37.8064 63.1562 37.8064 64.2937 38.9439C65.4312 40.0814 65.4312 41.8689 64.2937 43.0064L51.7812 55.6002C51.2125 56.1689 50.5625 56.4127 49.75 56.4127H38.7L35.45 59.6627" stroke="#08526D" stroke-width="1.5" stroke-miterlimit="10" stroke-linecap="round" stroke-linejoin="round" class="id_anim_stroke-property4" data-duration="2.7777777777777777" data-offset="0" style="stroke-dashoffset: 0px; stroke-dasharray: 0px, 60.3266px; animation: 2.77778s linear 0s 1 normal forwards running id_anim_stroke-property4;"></path>
<g id="Group">
<path id="Vector_6" d="M55.3561 36.9129L53.0811 35.2879C53.1624 34.8004 53.1624 34.3129 53.1624 33.8254C53.1624 33.3379 53.0811 32.8504 53.0811 32.3629L55.3561 30.7379C55.8436 30.4129 56.0061 29.6816 55.6811 29.1129L53.8124 25.7816C53.4874 25.2129 52.8374 24.9691 52.2686 25.2129L49.6686 26.2691C48.7749 25.5379 47.7999 24.9691 46.7436 24.5629L46.4999 21.8004C46.4186 21.1504 45.9311 20.7441 45.2811 20.7441H41.4624C40.8124 20.7441 40.3249 21.2316 40.2436 21.8004L39.9186 24.5629C38.8624 24.9691 37.8874 25.5379 36.9936 26.2691L34.3936 25.2129C33.8249 24.9691 33.1749 25.2129 32.8499 25.7816L31.0624 29.1129C30.7374 29.6816 30.8999 30.3316 31.3874 30.7379L33.6624 32.3629C33.5811 32.8504 33.5811 33.3379 33.5811 33.8254C33.5811 34.3129 33.6624 34.8004 33.6624 35.2879L31.3874 36.9129M39.9186 36.7504C39.2686 35.9379 38.8624 34.9629 38.8624 33.8254C38.8624 31.3066 40.8936 29.2754 43.3311 29.2754C45.7686 29.2754 47.7999 31.3066 47.7999 33.8254C47.7999 34.9629 47.3936 35.9379 46.7436 36.7504" stroke="#08526D" stroke-width="1.5" stroke-miterlimit="10" stroke-linecap="round" stroke-linejoin="round" class="id_anim_stroke-property5" data-duration="2.7777777777777777" data-offset="0" style="stroke-dashoffset: 0px; stroke-dasharray: 0px, 77.7025px; animation: 2.77778s linear 0s 1 normal forwards running id_anim_stroke-property5;"></path>
</g>
<path id="Vector_7" d="M21 26.1125L23.7625 28.875L28.6375 24" stroke="#08526D" stroke-width="1.5" stroke-miterlimit="10" stroke-linecap="round" stroke-linejoin="round" class="id_anim_stroke-property6" data-duration="2.7777777777777777" data-offset="0" style="stroke-dashoffset: 0px; stroke-dasharray: 0px, 10.8011px; animation: 2.77778s linear 0s 1 normal forwards running id_anim_stroke-property6;"></path>
</g>
</g>
<defs>
<linearGradient id="paint0_linear_3764_7145" x1="45.0498" y1="59.4996" x2="45.0498" y2="43.3173" gradientUnits="userSpaceOnUse">
<stop stop-color="#ADE3F6"></stop>
<stop offset="0.59" stop-color="#ADE3F6" stop-opacity="0"></stop>
</linearGradient>
<clipPath id="clip0_3764_7145">
<rect width="52" height="52" fill="white" transform="translate(14 14)"></rect>
</clipPath>
</defs>
<style>
        @keyframes id_anim_stroke-property2{
        
            0%{
                stroke-dashoffset: 0px; 
        stroke-dasharray: 0px, 46.659305572509766px;
            }
        
            50%{
                stroke-dashoffset: -23.329652786254883px; 
        stroke-dasharray: 23.329652786254883px, 23.329652786254883px;
            }
        
            100%{
                stroke-dashoffset: -46.659305572509766px; 
        stroke-dasharray: 46.659305572509766px, 0px;
            }
        
        }
         
        @keyframes id_anim_stroke-property3{
        
            0%{
                stroke-dashoffset: 0px; 
        stroke-dasharray: 0px, 45.12729263305664px;
            }
        
            50%{
                stroke-dashoffset: -22.56364631652832px; 
        stroke-dasharray: 22.56364631652832px, 22.56364631652832px;
            }
        
            100%{
                stroke-dashoffset: -45.12729263305664px; 
        stroke-dasharray: 45.12729263305664px, 0px;
            }
        
        }
         
        @keyframes id_anim_stroke-property4{
        
            0%{
                stroke-dashoffset: 0px; 
        stroke-dasharray: 0px, 60.32661819458008px;
            }
        
            50%{
                stroke-dashoffset: -30.16330909729004px; 
        stroke-dasharray: 30.16330909729004px, 30.16330909729004px;
            }
        
            100%{
                stroke-dashoffset: -60.32661819458008px; 
        stroke-dasharray: 60.32661819458008px, 0px;
            }
        
        }
         
        @keyframes id_anim_stroke-property5{
        
            0%{
                stroke-dashoffset: 0px; 
        stroke-dasharray: 0px, 77.70254516601562px;
            }
        
            50%{
                stroke-dashoffset: -38.85127258300781px; 
        stroke-dasharray: 38.85127258300781px, 38.85127258300781px;
            }
        
            100%{
                stroke-dashoffset: -77.70254516601562px; 
        stroke-dasharray: 77.70254516601562px, 0px;
            }
        
        }
         
        @keyframes id_anim_stroke-property6{
        
            0%{
                stroke-dashoffset: 0px; 
        stroke-dasharray: 0px, 10.801056861877441px;
            }
        
            50%{
                stroke-dashoffset: -5.400528430938721px; 
        stroke-dasharray: 5.400528430938721px, 5.400528430938721px;
            }
        
            100%{
                stroke-dashoffset: -10.801056861877441px; 
        stroke-dasharray: 10.801056861877441px, 0px;
            }
        
        }
        </style></svg>
