<svg width="80" height="80" viewBox="0 0 80 80" fill="none" xmlns="http://www.w3.org/2000/svg">
<g id="icons/1_3">
<path id="Vector_3_3" d="M40 65C54.3594 65 66 53.3594 66 39C66 24.6406 54.3594 13 40 13C25.6406 13 14 24.6406 14 39C14 53.3594 25.6406 65 40 65Z" fill="url(#paint0_linear_4055_1472)"></path>
<path id="Ellipse 16" d="M40 14.5C54.0833 14.5 65.5 25.9167 65.5 40C65.5 54.0833 54.0833 65.5 40 65.5C25.9167 65.5 14.5 54.0833 14.5 40C14.5 25.9167 25.9167 14.5 40 14.5Z" stroke="#08526D" class="id_anim_stroke-property1" data-duration="2.7777777777777777" data-offset="0" style="stroke-dashoffset: 0px; stroke-dasharray: 0px, 160.244px; animation: 2.77778s linear 0s 1 normal forwards running id_anim_stroke-property1;"></path>
<path id="1_3" d="M45.3417 34.784C45.3417 35.456 45.1977 36.072 44.9097 36.632C44.6217 37.176 44.2137 37.656 43.6857 38.072C44.3577 38.536 44.8777 39.104 45.2457 39.776C45.6137 40.448 45.7977 41.192 45.7977 42.008C45.7977 42.776 45.6377 43.48 45.3177 44.12C44.9977 44.76 44.5497 45.312 43.9737 45.776C43.4137 46.24 42.7497 46.608 41.9817 46.88C41.2297 47.136 40.4137 47.264 39.5337 47.264C38.7017 47.264 37.9177 47.144 37.1817 46.904C36.4617 46.664 35.8217 46.336 35.2617 45.92C34.7177 45.488 34.2777 44.976 33.9417 44.384C33.6057 43.792 33.4217 43.152 33.3897 42.464L36.6297 42.224C36.7737 42.864 37.1097 43.384 37.6377 43.784C38.1817 44.168 38.8137 44.36 39.5337 44.36C40.4457 44.36 41.1977 44.128 41.7897 43.664C42.3817 43.184 42.6777 42.584 42.6777 41.864C42.6777 41.144 42.3817 40.552 41.7897 40.088C41.1977 39.624 40.4457 39.392 39.5337 39.392H38.6457L38.6697 36.872H39.5337C40.3497 36.872 41.0137 36.68 41.5257 36.296C42.0377 35.896 42.2937 35.392 42.2937 34.784C42.2937 34.176 42.0297 33.672 41.5017 33.272C40.9737 32.856 40.3017 32.648 39.4857 32.648C38.9257 32.648 38.3977 32.784 37.9017 33.056C37.4057 33.312 37.0457 33.68 36.8217 34.16L33.7257 33.968C33.8217 33.376 34.0297 32.832 34.3497 32.336C34.6857 31.84 35.1097 31.416 35.6217 31.064C36.1337 30.696 36.7177 30.408 37.3737 30.2C38.0297 29.992 38.7337 29.888 39.4857 29.888C40.3337 29.888 41.1177 30.016 41.8377 30.272C42.5577 30.512 43.1737 30.848 43.6857 31.28C44.2137 31.712 44.6217 32.232 44.9097 32.84C45.1977 33.432 45.3417 34.08 45.3417 34.784Z" fill="#08526D"></path>
</g>
<defs>
<linearGradient id="paint0_linear_4055_1472" x1="40.0587" y1="62.8567" x2="40.0587" y2="35.5737" gradientUnits="userSpaceOnUse">
<stop stop-color="#ADE3F6"></stop>
<stop offset="0.01" stop-color="#ADE3F6" stop-opacity="0.98"></stop>
<stop offset="0.635" stop-color="#ADE3F6" stop-opacity="0.28"></stop>
<stop offset="0.9925" stop-color="#ADE3F6" stop-opacity="0"></stop>
</linearGradient>
</defs>
<style>
        @keyframes id_anim_stroke-property1{
        
            0%{
                stroke-dashoffset: 0px; 
        stroke-dasharray: 0px, 160.24391174316406px;
            }
        
            50%{
                stroke-dashoffset: -80.12195587158203px; 
        stroke-dasharray: 80.12195587158203px, 80.12195587158203px;
            }
        
            100%{
                stroke-dashoffset: -160.24391174316406px; 
        stroke-dasharray: 160.24391174316406px, 0px;
            }
        
        }
        </style></svg>
