<svg width="80" height="80" viewBox="0 0 80 80" fill="none" xmlns="http://www.w3.org/2000/svg">
<g id="icons/1_2">
<path id="Vector_3_2_2" d="M40 65C54.3594 65 66 53.3594 66 39C66 24.6406 54.3594 13 40 13C25.6406 13 14 24.6406 14 39C14 53.3594 25.6406 65 40 65Z" fill="url(#paint0_linear_4055_5663)"></path>
<path id="Ellipse 16" d="M40 14.5C54.0833 14.5 65.5 25.9167 65.5 40C65.5 54.0833 54.0833 65.5 40 65.5C25.9167 65.5 14.5 54.0833 14.5 40C14.5 25.9167 25.9167 14.5 40 14.5Z" stroke="#08526D" class="id_anim_stroke-property1" data-duration="2.7777777777777777" data-offset="0" style="stroke-dashoffset: 0px; stroke-dasharray: 0px, 160.244px; animation: 2.77778s linear 0s 1 normal forwards running id_anim_stroke-property1;"></path>
<path id="1_2" d="M33.4617 46.256C33.5097 45.616 33.6297 44.92 33.8217 44.168C34.0137 43.4 34.3097 42.656 34.7097 41.936C35.1097 41.2 35.6217 40.52 36.2457 39.896C36.8857 39.272 37.6697 38.776 38.5977 38.408C39.1257 38.184 39.6377 37.968 40.1337 37.76C40.6297 37.552 41.0777 37.328 41.4777 37.088C41.8777 36.848 42.1977 36.576 42.4377 36.272C42.6777 35.968 42.7977 35.616 42.7977 35.216C42.7977 34.8 42.7017 34.432 42.5097 34.112C42.3337 33.792 42.1017 33.528 41.8137 33.32C41.5257 33.112 41.2137 32.96 40.8777 32.864C40.5417 32.752 40.2137 32.696 39.8937 32.696C39.4457 32.696 39.0057 32.744 38.5737 32.84C38.1577 32.92 37.7817 33.056 37.4457 33.248C37.1097 33.44 36.8297 33.688 36.6057 33.992C36.3817 34.296 36.2297 34.664 36.1497 35.096L33.1977 34.784C33.3097 33.984 33.5657 33.28 33.9657 32.672C34.3817 32.064 34.8857 31.56 35.4777 31.16C36.0857 30.744 36.7657 30.432 37.5177 30.224C38.2857 30 39.0777 29.888 39.8937 29.888C40.6297 29.888 41.3497 30.008 42.0537 30.248C42.7577 30.472 43.3817 30.808 43.9257 31.256C44.4857 31.688 44.9337 32.232 45.2697 32.888C45.6217 33.528 45.7977 34.256 45.7977 35.072C45.7977 35.904 45.6377 36.616 45.3177 37.208C45.0137 37.8 44.5897 38.32 44.0457 38.768C43.5177 39.2 42.8857 39.584 42.1497 39.92C41.4137 40.256 40.6217 40.592 39.7737 40.928C39.1017 41.2 38.5497 41.616 38.1177 42.176C37.7017 42.72 37.3737 43.336 37.1337 44.024H45.9657V46.976H33.4617V46.256Z" fill="#08526D"></path>
</g>
<defs>
<linearGradient id="paint0_linear_4055_5663" x1="40.0587" y1="62.8567" x2="40.0587" y2="35.5737" gradientUnits="userSpaceOnUse">
<stop stop-color="#ADE3F6"></stop>
<stop offset="0.01" stop-color="#ADE3F6" stop-opacity="0.98"></stop>
<stop offset="0.635" stop-color="#ADE3F6" stop-opacity="0.28"></stop>
<stop offset="0.9925" stop-color="#ADE3F6" stop-opacity="0"></stop>
</linearGradient>
</defs>
<style>
        @keyframes id_anim_stroke-property1{
        
            0%{
                stroke-dashoffset: 0px; 
        stroke-dasharray: 0px, 160.24391174316406px;
            }
        
            50%{
                stroke-dashoffset: -80.12195587158203px; 
        stroke-dasharray: 80.12195587158203px, 80.12195587158203px;
            }
        
            100%{
                stroke-dashoffset: -160.24391174316406px; 
        stroke-dasharray: 160.24391174316406px, 0px;
            }
        
        }
        </style></svg>
