<svg width="80" height="80" viewBox="0 0 80 80" fill="none" xmlns="http://www.w3.org/2000/svg">
<g id="icons/1_5">
<path id="Vector_3_5" d="M40 65C54.3594 65 66 53.3594 66 39C66 24.6406 54.3594 13 40 13C25.6406 13 14 24.6406 14 39C14 53.3594 25.6406 65 40 65Z" fill="url(#paint0_linear_4055_5679)"></path>
<path id="Ellipse 16" d="M40 14.5C54.0833 14.5 65.5 25.9167 65.5 40C65.5 54.0833 54.0833 65.5 40 65.5C25.9167 65.5 14.5 54.0833 14.5 40C14.5 25.9167 25.9167 14.5 40 14.5Z" stroke="#08526D" class="id_anim_stroke-property1" data-duration="1.6666666666666667" data-offset="0" style="stroke-dashoffset: 0px; stroke-dasharray: 0px, 160.244px; animation: 1.66667s linear 0s 1 normal forwards running id_anim_stroke-property1;"></path>
<path id="1_5" d="M45.8217 41.552C45.8217 43.376 45.2857 44.784 44.2137 45.776C43.1577 46.768 41.6697 47.264 39.7497 47.264C37.8297 47.264 36.3177 46.856 35.2137 46.04C34.1097 45.224 33.5097 44.072 33.4137 42.584L36.3657 42.224C36.5257 42.944 36.8937 43.48 37.4697 43.832C38.0617 44.184 38.8217 44.36 39.7497 44.36C40.7577 44.36 41.5337 44.12 42.0777 43.64C42.6217 43.16 42.8937 42.464 42.8937 41.552C42.8937 40.8 42.6217 40.224 42.0777 39.824C41.5337 39.424 40.7577 39.224 39.7497 39.224H36.4377V39.2L34.1577 39.224L35.2857 30.2H45.2217V33.176H37.9017L37.4697 36.584H39.7497C41.6697 36.584 43.1577 37.016 44.2137 37.88C45.2857 38.744 45.8217 39.968 45.8217 41.552Z" fill="#08526D"></path>
</g>
<defs>
<linearGradient id="paint0_linear_4055_5679" x1="40.0587" y1="62.8567" x2="40.0587" y2="35.5737" gradientUnits="userSpaceOnUse">
<stop stop-color="#ADE3F6"></stop>
<stop offset="0.01" stop-color="#ADE3F6" stop-opacity="0.98"></stop>
<stop offset="0.635" stop-color="#ADE3F6" stop-opacity="0.28"></stop>
<stop offset="0.9925" stop-color="#ADE3F6" stop-opacity="0"></stop>
</linearGradient>
</defs>
<style>
        @keyframes id_anim_stroke-property1{
        
            0%{
                stroke-dashoffset: 0px; 
        stroke-dasharray: 0px, 160.24391174316406px;
            }
        
            50%{
                stroke-dashoffset: -80.12195587158203px; 
        stroke-dasharray: 80.12195587158203px, 80.12195587158203px;
            }
        
            100%{
                stroke-dashoffset: -160.24391174316406px; 
        stroke-dasharray: 160.24391174316406px, 0px;
            }
        
        }
        </style></svg>
