<svg width="80" height="80" viewBox="0 0 80 80" fill="none" xmlns="http://www.w3.org/2000/svg">
<g id="icons/1_6">
<path id="Vector_3_6" d="M40 65C54.3594 65 66 53.3594 66 39C66 24.6406 54.3594 13 40 13C25.6406 13 14 24.6406 14 39C14 53.3594 25.6406 65 40 65Z" fill="url(#paint0_linear_4055_5687)"></path>
<path id="Ellipse 16" d="M40 14.5C54.0833 14.5 65.5 25.9167 65.5 40C65.5 54.0833 54.0833 65.5 40 65.5C25.9167 65.5 14.5 54.0833 14.5 40C14.5 25.9167 25.9167 14.5 40 14.5Z" stroke="#08526D" class="id_anim_stroke-property1" data-duration="2.7777777777777777" data-offset="0" style="stroke-dashoffset: 0px; stroke-dasharray: 0px, 160.244px; animation: 2.77778s linear 0s 1 normal forwards running id_anim_stroke-property1;"></path>
<path id="1_6" d="M39.4857 35.36C40.3657 35.344 41.1977 35.48 41.9817 35.768C42.7657 36.04 43.4457 36.44 44.0217 36.968C44.6137 37.48 45.0777 38.112 45.4137 38.864C45.7657 39.6 45.9417 40.424 45.9417 41.336C45.9417 42.2 45.7817 43 45.4617 43.736C45.1417 44.456 44.7017 45.088 44.1417 45.632C43.5817 46.16 42.9097 46.576 42.1257 46.88C41.3417 47.168 40.4937 47.312 39.5817 47.312C38.6697 47.312 37.8217 47.168 37.0377 46.88C36.2697 46.576 35.5977 46.16 35.0217 45.632C34.4617 45.088 34.0217 44.456 33.7017 43.736C33.3977 43 33.2457 42.2 33.2457 41.336C33.2457 40.696 33.3257 40.096 33.4857 39.536C33.6617 38.976 33.9097 38.456 34.2297 37.976L39.1017 30.2H42.7257L39.4857 35.36ZM39.5817 38.408C39.1497 38.408 38.7417 38.488 38.3577 38.648C37.9897 38.792 37.6617 39 37.3737 39.272C37.0857 39.528 36.8617 39.832 36.7017 40.184C36.5417 40.536 36.4617 40.92 36.4617 41.336C36.4617 41.768 36.5417 42.16 36.7017 42.512C36.8777 42.864 37.1017 43.176 37.3737 43.448C37.6617 43.704 37.9897 43.904 38.3577 44.048C38.7417 44.192 39.1497 44.264 39.5817 44.264C40.0297 44.264 40.4457 44.192 40.8297 44.048C41.2137 43.888 41.5417 43.68 41.8137 43.424C42.1017 43.152 42.3257 42.84 42.4857 42.488C42.6457 42.12 42.7257 41.736 42.7257 41.336C42.7257 40.92 42.6457 40.536 42.4857 40.184C42.3257 39.832 42.1017 39.528 41.8137 39.272C41.5257 39 41.1897 38.792 40.8057 38.648C40.4217 38.488 40.0137 38.408 39.5817 38.408Z" fill="#08526D"></path>
</g>
<defs>
<linearGradient id="paint0_linear_4055_5687" x1="40.0587" y1="62.8567" x2="40.0587" y2="35.5737" gradientUnits="userSpaceOnUse">
<stop stop-color="#ADE3F6"></stop>
<stop offset="0.01" stop-color="#ADE3F6" stop-opacity="0.98"></stop>
<stop offset="0.635" stop-color="#ADE3F6" stop-opacity="0.28"></stop>
<stop offset="0.9925" stop-color="#ADE3F6" stop-opacity="0"></stop>
</linearGradient>
</defs>
<style>
        @keyframes id_anim_stroke-property1{
        
            0%{
                stroke-dashoffset: 0px; 
        stroke-dasharray: 0px, 160.24391174316406px;
            }
        
            50%{
                stroke-dashoffset: -80.12195587158203px; 
        stroke-dasharray: 80.12195587158203px, 80.12195587158203px;
            }
        
            100%{
                stroke-dashoffset: -160.24391174316406px; 
        stroke-dasharray: 160.24391174316406px, 0px;
            }
        
        }
        </style></svg>
