<svg width="80" height="80" viewBox="0 0 80 80" fill="none" xmlns="http://www.w3.org/2000/svg">
<g id="icon/Scalable solutions">
<g id="Frame 348">
<path id="Vector_2_7" d="M66 14L63.4772 41.0821L62.4961 43.6861L59.0621 44.7277L56.1187 52.0191L58.081 56.1855L53.6659 59.8312L49.2508 57.748C46.798 59.3104 43.8546 60.8728 42.8735 65.0393L36.9867 64.5185L36.0055 60.8728L29.1376 57.748L25.7036 60.352C21.2885 54.6231 22.7602 56.0638 22.7602 51.4983L21.2885 44.7277L17.364 43.6861L16.8735 41.0821L14 14H66Z" fill="url(#paint0_linear_4055_5780)"></path>
<path id="Vector_135" d="M39.9298 26.7597C43.1809 26.7597 45.8166 24.1231 45.8166 20.8706C45.8166 17.6181 43.1809 14.9814 39.9298 14.9814C36.6786 14.9814 34.043 17.6181 34.043 20.8706C34.043 24.1231 36.6786 26.7597 39.9298 26.7597Z" fill="#ADE3F6"></path>
<path id="Vector_136" d="M28.8369 42.8193C29.0699 45.4081 30.2007 47.8463 32.0527 49.6992C34.1419 51.7892 36.976 52.9639 39.9307 52.9639C42.8852 52.9638 45.7186 51.7891 47.8076 49.6992C49.6588 47.8472 50.7886 45.4106 51.0225 42.8232L63.0156 42.8789V44.0303C63.0209 44.2938 62.934 44.551 62.7695 44.7568C62.6254 44.9371 62.4295 45.0677 62.21 45.1328L62.1172 45.1562L59.4814 45.6885L58.8535 45.8145L58.7061 46.4375C58.2295 48.4469 57.4246 50.364 56.3242 52.1113L55.9785 52.6611L56.3398 53.2002L57.8408 55.4443C57.9737 55.6556 58.033 55.9047 58.0088 56.1533C57.9843 56.4047 57.8766 56.6408 57.7021 56.8232L54.8086 59.7168C54.624 59.8995 54.3824 60.0134 54.124 60.0381C53.8664 60.0626 53.6079 59.9972 53.3926 59.8535L51.1182 58.3223L50.5674 57.9512L50.0117 58.3145C48.2779 59.4486 46.3681 60.2877 44.3604 60.7979L43.7285 60.959L43.6211 61.6016L43.1982 64.1104C43.1437 64.3639 43.0042 64.5909 42.8018 64.7529C42.5961 64.9175 42.3394 65.0053 42.0762 65L42.0664 64.999H37.7949L37.7842 65C37.521 65.0053 37.2642 64.9175 37.0586 64.7529C36.8561 64.5908 36.7157 64.3639 36.6611 64.1104L36.2402 61.6016L36.1318 60.959L35.5 60.7979L35.125 60.6992C33.2543 60.1825 31.4742 59.3778 29.8486 58.3145L29.2949 57.9521L28.7451 58.3213L26.4912 59.8311C26.2755 59.9756 26.0162 60.0412 25.7578 60.0166C25.4995 59.9919 25.2578 59.878 25.0732 59.6953L25.0713 59.6943L22.1436 56.8076C21.9628 56.6234 21.8507 56.3822 21.8262 56.125C21.8016 55.8662 21.8672 55.6065 22.0117 55.3906L23.5215 53.1367L23.8828 52.5967L23.5361 52.0479C22.4358 50.3005 21.6309 48.3834 21.1543 46.374L21.0068 45.751L20.3799 45.624L17.7451 45.0928H17.7461C17.4882 45.0402 17.2564 44.899 17.0918 44.6934C16.9273 44.4876 16.8395 44.2303 16.8447 43.9668V42.8193H28.8369ZM39.9316 30.8691C42.0787 30.9864 44.1472 31.7196 45.8896 32.9814C47.2397 33.9591 48.3485 35.2225 49.1436 36.6738L30.6133 36.6924C31.4172 35.2273 32.5396 33.9535 33.9062 32.9707C35.6699 31.7026 37.7629 30.973 39.9316 30.8691ZM53.7002 33.5254C55.7619 32.9514 57.958 33.0937 59.9287 33.9297C61.3575 34.5359 62.6052 35.4819 63.5732 36.6729H53.7148C53.3033 35.7845 52.8409 34.9208 52.3301 34.0859C52.7713 33.8644 53.2293 33.6769 53.7002 33.5254ZM19.9307 33.8994C21.8974 33.0707 24.0862 32.9317 26.1416 33.5049C26.5853 33.6487 27.0172 33.8251 27.4346 34.0312C26.8946 34.8595 26.4064 35.7205 25.9707 36.6084H16.2998C17.2678 35.4316 18.5106 34.4978 19.9307 33.8994ZM24.0293 19.1504C25.0719 19.1504 26.0722 19.5642 26.8096 20.3018C27.547 21.0395 27.9609 22.0405 27.9609 23.084C27.9609 24.1273 27.5468 25.1276 26.8096 25.8652C26.0722 26.6029 25.072 27.0176 24.0293 27.0176C22.9867 27.0175 21.9864 26.6029 21.249 25.8652C20.5119 25.1276 20.0977 24.1272 20.0977 23.084C20.0977 22.0405 20.5116 21.0395 21.249 20.3018C21.9864 19.5641 22.9867 19.1504 24.0293 19.1504ZM55.8525 19.1504C56.8951 19.1504 57.8954 19.5641 58.6328 20.3018C59.3702 21.0395 59.7842 22.0405 59.7842 23.084C59.7842 24.1272 59.37 25.1276 58.6328 25.8652C57.8954 26.6029 56.8952 27.0176 55.8525 27.0176C54.8099 27.0176 53.8097 26.6029 53.0723 25.8652C52.3351 25.1276 51.9209 24.1273 51.9209 23.084C51.9209 22.0405 52.3349 21.0395 53.0723 20.3018C53.8096 19.5642 54.81 19.1504 55.8525 19.1504ZM39.7178 15.9814C41.0931 15.9815 42.4122 16.528 43.3848 17.501C44.3574 18.474 44.9033 19.7937 44.9033 21.1699C44.9033 22.5461 44.3573 23.8659 43.3848 24.8389C42.4122 25.8119 41.0931 26.3584 39.7178 26.3584C38.3425 26.3584 37.0234 25.8119 36.0508 24.8389C35.0782 23.8659 34.5312 22.5461 34.5312 21.1699C34.5313 19.7937 35.0782 18.474 36.0508 17.501C37.0234 16.528 38.3425 15.9814 39.7178 15.9814Z" stroke="#08526D" stroke-width="2" class="id_anim_stroke-property2" data-duration="2.7777777777777777" data-offset="0" style="stroke-dashoffset: 0px; stroke-dasharray: 0px, 314.231px; animation: 2.77778s linear 0s 1 normal forwards running id_anim_stroke-property2;"></path>
</g>
</g>
<defs>
<linearGradient id="paint0_linear_4055_5780" x1="39.9773" y1="66.0809" x2="39.9773" y2="13.9919" gradientUnits="userSpaceOnUse">
<stop offset="0.01" stop-color="#ADE3F6"></stop>
<stop offset="0.4" stop-color="#ADE3F6" stop-opacity="0"></stop>
</linearGradient>
</defs>
<style>
        @keyframes id_anim_stroke-property2{
        
            0%{
                stroke-dashoffset: 0px; 
        stroke-dasharray: 0px, 314.2313232421875px;
            }
        
            50%{
                stroke-dashoffset: -157.11566162109375px; 
        stroke-dasharray: 157.11566162109375px, 157.11566162109375px;
            }
        
            100%{
                stroke-dashoffset: -314.2313232421875px; 
        stroke-dasharray: 314.2313232421875px, 0px;
            }
        
        }
        </style></svg>
