<svg width="80" height="80" viewBox="0 0 80 80" fill="none" xmlns="http://www.w3.org/2000/svg">
<g id="managed 1">
<g id="managed 1_2" clip-path="url(#clip0_4055_5390)">
<path id="Vector_132" d="M24.8877 49.0996L35.4502 59.7434L38.7002 56.4934L50.3189 56.4121L54.7064 52.7559L64.6189 42.7621L65.1877 39.5934L63.0752 38.1309L60.9627 38.6184L57.3064 41.9496L50.5627 47.7996L51.7002 45.1996L50.8064 42.3559L47.8002 40.8934L34.3939 41.2996L31.3877 42.5996L28.4627 45.5246L24.8877 49.0996Z" fill="url(#paint0_linear_4055_5390)"></path>
<path id="Vector_2_4" d="M36 32.2591V19.7409C36 16.5515 34.0072 14 31.5362 14H18.4638C15.9928 14 14 16.6312 14 19.7409V32.2591C14 35.4485 15.9928 38 18.4638 38H31.5362C34.0072 38 36 35.4485 36 32.2591Z" fill="#B3DEFF"></path>
<path id="Vector_3_9" d="M35.7328 60.0179C36.1166 60.4067 36.1173 61.0315 35.7345 61.4212L32.5863 64.6256C32.195 65.0239 31.5534 65.0246 31.1612 64.6273L20.1352 53.4571C19.7514 53.0683 19.7506 52.4435 20.1335 52.0538L23.2817 48.8494C23.673 48.4511 24.3145 48.4504 24.7067 48.8477L35.7328 60.0179Z" stroke="#08526D" stroke-width="1.5" stroke-miterlimit="10" stroke-linecap="round" stroke-linejoin="round" class="id_anim_stroke-property2" data-duration="2.7777777777777777" data-offset="0" style="stroke-dashoffset: 0px; stroke-dasharray: 0px, 46.6593px; animation: 2.77778s linear 0s 1 normal forwards running id_anim_stroke-property2;"></path>
<path id="Vector_4_3" d="M24.8877 49.1L30.8189 43.0875C32.0377 41.8687 33.6627 41.2188 35.3689 41.2188H48.2064C50.1564 41.2188 51.7002 42.7625 51.7002 44.7125C51.7002 46.6625 50.1564 48.2062 48.2064 48.2062H40.4064" stroke="#08526D" stroke-width="1.5" stroke-miterlimit="10" stroke-linecap="round" stroke-linejoin="round" class="id_anim_stroke-property3" data-duration="2.7777777777777777" data-offset="0" style="stroke-dashoffset: 0px; stroke-dasharray: 0px, 45.1273px; animation: 2.77778s linear 0s 1 normal forwards running id_anim_stroke-property3;"></path>
<path id="Vector_5_3" d="M48.2064 48.2877C49.9939 48.2877 51.7002 47.5564 52.9189 46.3377L60.2314 38.9439C61.3689 37.8064 63.1564 37.8064 64.2939 38.9439C65.4314 40.0814 65.4314 41.8689 64.2939 43.0064L51.7814 55.6002C51.2127 56.1689 50.5627 56.4127 49.7502 56.4127H38.7002L35.4502 59.6627" stroke="#08526D" stroke-width="1.5" stroke-miterlimit="10" stroke-linecap="round" stroke-linejoin="round" class="id_anim_stroke-property4" data-duration="2.7777777777777777" data-offset="0" style="stroke-dashoffset: 0px; stroke-dasharray: 0px, 60.3266px; animation: 2.77778s linear 0s 1 normal forwards running id_anim_stroke-property4;"></path>
<g id="Group_47">
<path id="Vector_6_3" d="M55.3564 36.9129L53.0814 35.2879C53.1626 34.8004 53.1626 34.3129 53.1626 33.8254C53.1626 33.3379 53.0814 32.8504 53.0814 32.3629L55.3564 30.7379C55.8439 30.4129 56.0064 29.6816 55.6814 29.1129L53.8126 25.7816C53.4876 25.2129 52.8376 24.9691 52.2689 25.2129L49.6689 26.2691C48.7751 25.5379 47.8001 24.9691 46.7439 24.5629L46.5001 21.8004C46.4189 21.1504 45.9314 20.7441 45.2814 20.7441H41.4626C40.8126 20.7441 40.3251 21.2316 40.2439 21.8004L39.9189 24.5629C38.8626 24.9691 37.8876 25.5379 36.9939 26.2691L34.3939 25.2129C33.8251 24.9691 33.1751 25.2129 32.8501 25.7816L31.0626 29.1129C30.7376 29.6816 30.9001 30.3316 31.3876 30.7379L33.6626 32.3629C33.5814 32.8504 33.5814 33.3379 33.5814 33.8254C33.5814 34.3129 33.6626 34.8004 33.6626 35.2879L31.3876 36.9129M39.9189 36.7504C39.2689 35.9379 38.8626 34.9629 38.8626 33.8254C38.8626 31.3066 40.8939 29.2754 43.3314 29.2754C45.7689 29.2754 47.8001 31.3066 47.8001 33.8254C47.8001 34.9629 47.3939 35.9379 46.7439 36.7504" stroke="#08526D" stroke-width="1.5" stroke-miterlimit="10" stroke-linecap="round" stroke-linejoin="round" class="id_anim_stroke-property5" data-duration="2.7777777777777777" data-offset="0" style="stroke-dashoffset: 0px; stroke-dasharray: 0px, 77.7026px; animation: 2.77778s linear 0s 1 normal forwards running id_anim_stroke-property5;"></path>
</g>
<path id="Vector_7_3" d="M21 26.1125L23.7625 28.875L28.6375 24" stroke="#08526D" stroke-width="1.5" stroke-miterlimit="10" stroke-linecap="round" stroke-linejoin="round" class="id_anim_stroke-property6" data-duration="2.7777777777777777" data-offset="0" style="stroke-dashoffset: 0px; stroke-dasharray: 0px, 10.8011px; animation: 2.77778s linear 0s 1 normal forwards running id_anim_stroke-property6;"></path>
</g>
</g>
<defs>
<linearGradient id="paint0_linear_4055_5390" x1="45.05" y1="59.4996" x2="45.05" y2="43.3173" gradientUnits="userSpaceOnUse">
<stop stop-color="#ADE3F6"></stop>
<stop offset="0.59" stop-color="#ADE3F6" stop-opacity="0"></stop>
</linearGradient>
<clipPath id="clip0_4055_5390">
<rect width="52" height="52" fill="white" transform="translate(14 14)"></rect>
</clipPath>
</defs>
<style>
        @keyframes id_anim_stroke-property2{
        
            0%{
                stroke-dashoffset: 0px; 
        stroke-dasharray: 0px, 46.659332275390625px;
            }
        
            50%{
                stroke-dashoffset: -23.329666137695312px; 
        stroke-dasharray: 23.329666137695312px, 23.329666137695312px;
            }
        
            100%{
                stroke-dashoffset: -46.659332275390625px; 
        stroke-dasharray: 46.659332275390625px, 0px;
            }
        
        }
         
        @keyframes id_anim_stroke-property3{
        
            0%{
                stroke-dashoffset: 0px; 
        stroke-dasharray: 0px, 45.127288818359375px;
            }
        
            50%{
                stroke-dashoffset: -22.563644409179688px; 
        stroke-dasharray: 22.563644409179688px, 22.563644409179688px;
            }
        
            100%{
                stroke-dashoffset: -45.127288818359375px; 
        stroke-dasharray: 45.127288818359375px, 0px;
            }
        
        }
         
        @keyframes id_anim_stroke-property4{
        
            0%{
                stroke-dashoffset: 0px; 
        stroke-dasharray: 0px, 60.32661437988281px;
            }
        
            50%{
                stroke-dashoffset: -30.163307189941406px; 
        stroke-dasharray: 30.163307189941406px, 30.163307189941406px;
            }
        
            100%{
                stroke-dashoffset: -60.32661437988281px; 
        stroke-dasharray: 60.32661437988281px, 0px;
            }
        
        }
         
        @keyframes id_anim_stroke-property5{
        
            0%{
                stroke-dashoffset: 0px; 
        stroke-dasharray: 0px, 77.70257568359375px;
            }
        
            50%{
                stroke-dashoffset: -38.851287841796875px; 
        stroke-dasharray: 38.851287841796875px, 38.851287841796875px;
            }
        
            100%{
                stroke-dashoffset: -77.70257568359375px; 
        stroke-dasharray: 77.70257568359375px, 0px;
            }
        
        }
         
        @keyframes id_anim_stroke-property6{
        
            0%{
                stroke-dashoffset: 0px; 
        stroke-dasharray: 0px, 10.801056861877441px;
            }
        
            50%{
                stroke-dashoffset: -5.400528430938721px; 
        stroke-dasharray: 5.400528430938721px, 5.400528430938721px;
            }
        
            100%{
                stroke-dashoffset: -10.801056861877441px; 
        stroke-dasharray: 10.801056861877441px, 0px;
            }
        
        }
        </style></svg>
