<svg width="80" height="80" viewBox="0 0 80 80" fill="none" xmlns="http://www.w3.org/2000/svg">
<g id="icons/backend">
<g id="business analygts 1">
<g id="Group">
<g id="Group_2">
<path id="Vector" d="M51.9573 41.3286C58.6754 41.3286 64.1215 35.8824 64.1215 29.1643C64.1215 22.4461 58.6754 17 51.9573 17C45.2391 17 39.793 22.4461 39.793 29.1643C39.793 35.8824 45.2391 41.3286 51.9573 41.3286Z" fill="#ADE3F6"></path>
<path id="Vector_2" d="M56.7857 24.8931V61.8502C56.7857 62.4074 56.3214 62.9645 55.6714 62.9645H16.1143C15.5571 62.9645 15 62.5002 15 61.8502V24.8931C15 24.336 15.4643 23.7788 16.1143 23.7788H55.7643C56.3214 23.8717 56.7857 24.336 56.7857 24.8931Z" fill="url(#paint0_linear_3502_4383)"></path>
<path id="Vector_3" d="M36.4501 27.4926C36.4501 28.4212 35.7073 29.0712 34.8715 29.0712C33.943 29.0712 33.293 28.3283 33.293 27.4926C33.293 26.5641 34.0358 25.9141 34.8715 25.9141C35.7073 25.9141 36.4501 26.6569 36.4501 27.4926Z" fill="#08526D"></path>
<path id="Vector_4" d="M23.5429 27.4926C23.5429 28.4212 22.8 29.0712 21.9643 29.0712C21.0357 29.0712 20.3857 28.3283 20.3857 27.4926C20.3857 26.5641 21.1286 25.9141 21.9643 25.9141C22.8929 25.9141 23.5429 26.6569 23.5429 27.4926Z" fill="#08526D"></path>
<path id="Vector_5" d="M30.0429 27.4926C30.0429 28.4212 29.3 29.0712 28.4643 29.0712C27.5357 29.0712 26.8857 28.3283 26.8857 27.4926C26.8857 26.5641 27.6286 25.9141 28.4643 25.9141C29.3 25.9141 30.0429 26.6569 30.0429 27.4926Z" fill="#08526D"></path>
<path id="Vector_6" d="M56.7857 31.3931V27.0288C56.7857 25.2645 55.3929 23.7788 53.5357 23.7788H18.25C16.4857 23.7788 15 25.1717 15 27.0288V31.3002M56.7857 31.3931L15 31.3002M56.7857 31.3931V60.1788C56.7857 61.9431 55.3929 63.4288 53.5357 63.4288H18.25C16.4857 63.4288 15 62.036 15 60.1788V31.3002" stroke="#08526D" stroke-width="2" stroke-linecap="round" stroke-linejoin="round" class="id_anim_stroke-property5" data-duration="2.7777777777777777" data-offset="0" style="stroke-dashoffset: 0px; stroke-dasharray: 0px, 199.108px; animation: 2.77778s linear 0s 1 normal forwards running id_anim_stroke-property5;"></path>
<g id="Group_3">
<g id="Clip path group">
<mask id="mask0_3502_4383" style="mask-type:luminance" maskUnits="userSpaceOnUse" x="17" y="40" width="26" height="22">
<g id="SVGID_2_">
<path id="Vector_7" d="M42.4857 40.957H17.1357V61.2927H42.4857V40.957Z" fill="white"></path>
</g>
</mask>
<g mask="url(#mask0_3502_4383)">
<g id="Group_4">
<path id="Vector_8" d="M13.8857 55.1642C13.6072 55.9999 12.7714 56.5571 11.8429 56.5571L9.89287 56.4642C9.33572 56.4642 8.87144 56.8356 8.77858 57.3928L8.68572 58.6928C8.68572 59.2499 9.05715 59.7142 9.61429 59.8071L11.5643 59.8999C12.4929 59.9928 13.2357 60.5499 13.4214 61.4785C13.7 62.2213 13.9786 63.0571 14.35 63.7999C14.7214 64.6356 14.5357 65.5642 13.8857 66.2142L12.4929 67.5142C12.0286 67.8856 12.0286 68.5356 12.4 68.9071L13.2357 69.9285C13.6072 70.3928 14.2572 70.3928 14.6286 70.0213L16.0214 68.7213C16.6714 68.1642 17.6929 68.0714 18.4357 68.5356C19.1786 68.9999 19.9214 69.3713 20.6643 69.6499C21.5 69.9285 22.0572 70.7642 22.0572 71.6928L21.9643 73.6428C21.9643 74.1999 22.3357 74.6642 22.8929 74.7571L24.1929 74.8499C24.75 74.8499 25.2143 74.4785 25.3072 73.9213L25.4 71.9713C25.4929 71.0428 26.05 70.2999 26.9786 70.1142C27.8143 69.9285 28.5571 69.6499 29.3 69.2785C30.1357 68.9071 31.0643 69.0928 31.7143 69.7428L33.0143 71.1356C33.3857 71.5999 34.0357 71.5999 34.4072 71.2285L35.4286 70.3928C35.8929 70.0214 35.8929 69.3714 35.5214 68.9999L34.2214 67.6071C33.9429 67.3285 33.7572 66.9571 33.7572 66.5856H35.3357V62.4999C35.7072 61.8499 36.45 61.4785 37.1929 61.5714L39.1429 61.6642C39.7 61.6642 40.1643 61.2928 40.2571 60.7356L40.35 59.4356C40.35 58.8785 39.9786 58.4142 39.4214 58.3214L37.4714 58.2285C36.5429 58.1356 35.8 57.5785 35.6143 56.6499C35.4286 55.8142 35.15 55.0714 34.7786 54.3285C34.4072 53.4928 34.5929 52.5642 35.2429 51.9142L36.6357 50.6142C37.1 50.2428 37.1 49.5928 36.7286 49.2214L35.8929 48.1999C35.5214 47.7356 34.8714 47.7356 34.5 48.1071L33.1072 49.4071C32.4572 49.9642 31.4357 50.0571 30.6929 49.5928C29.95 49.1285 29.2072 48.7571 28.4643 48.4785C27.6286 48.1999 27.0714 47.3642 27.0714 46.4356L27.1643 44.4856C27.1643 43.9285 26.7929 43.4642 26.2357 43.3714L24.9357 43.2785C24.3786 43.2785 23.9143 43.6499 23.8214 44.2071L23.7286 46.1571C23.6357 47.0856 23.0786 47.8285 22.15 48.0142C21.3143 48.1999 20.5714 48.4785 19.8286 48.8499C18.9929 49.2214 18.0643 49.0356 17.4143 48.3856L17.3214 48.1999V45.2285C17.4143 45.3214 17.6 45.4142 17.6929 45.5999L18.9929 46.9928C19.9214 46.5285 20.85 46.2499 21.7786 46.0642L21.8714 44.1142C21.9643 42.4428 23.45 41.1428 25.1214 41.2356L26.4214 41.3285C28.0929 41.4214 29.3929 42.9071 29.3 44.5785L29.0214 46.3428C29.95 46.7142 30.8786 47.0856 31.7143 47.6428L33.1072 46.3428C34.4072 45.2285 36.2643 45.3214 37.3786 46.6214L38.2143 47.6428C39.3286 48.9428 39.2357 50.7999 37.9357 51.9142L36.5429 53.2142C37.0072 54.1428 37.2857 55.0714 37.4714 55.9999L39.4214 56.0928C41.0929 56.1856 42.3929 57.6714 42.3 59.3428L42.2072 60.6428C42.1143 62.3142 40.6286 63.6142 38.9572 63.5214L37.0072 63.4285C36.6357 64.3571 36.2643 65.2856 35.7072 66.1213L37.0072 67.5142C38.1214 68.8142 38.0286 70.6714 36.7286 71.7856L35.7072 72.6214C34.4072 73.7356 32.55 73.6428 31.4357 72.3428L30.1357 70.9499C29.2072 71.4142 28.2786 71.6928 27.35 71.8785L27.2572 73.8285C27.1643 75.4999 25.6786 76.7999 24.0072 76.7071L22.7071 76.6142C21.0357 76.5214 19.7357 75.0356 19.8286 73.3642L19.9214 71.4142C18.9929 71.0428 18.0643 70.6713 17.2286 70.1142L15.8357 71.4142C14.5357 72.5285 12.6786 72.4356 11.5643 71.1356L10.7286 70.1142C9.61429 68.8142 9.70715 66.9571 11.0072 65.8428L12.4 64.5428C11.9357 63.6142 11.6572 62.6856 11.4714 61.7571L9.52144 61.6642C7.85001 61.5714 6.55001 60.0856 6.64286 58.4142L6.73572 57.1142C6.82858 55.4428 8.31429 54.1428 9.98572 54.2356L11.9357 54.3285C12.3072 53.3999 12.6786 52.4714 13.2357 51.6356L11.9357 50.2428C10.9143 49.1285 11.0072 47.2714 12.2143 46.1571L13.2357 45.3214C13.7929 44.8571 14.4429 44.5785 15.0929 44.5785V46.6214C14.9072 46.6214 14.7214 46.7142 14.5357 46.8999L13.5143 47.7356C13.05 48.1071 13.05 48.7571 13.4214 49.1285L14.7214 50.5214C14.9072 50.6142 15 50.7999 15.0929 50.9856V52.6571C15.0929 52.7499 15 52.8428 15 52.9356C14.5357 53.6785 14.1643 54.4214 13.8857 55.1642ZM21.5 62.3142C21.4072 62.2214 21.3143 62.1285 21.1286 61.9428C19.4572 60.0856 19.6429 57.2071 21.5 55.5356C23.3572 53.8642 26.2357 54.0499 27.9072 55.9071C29.5786 57.7642 29.3929 60.5499 27.5357 62.2213H30.1357C31.5286 59.8071 31.3429 56.7428 29.3929 54.5142C26.9786 51.8214 22.8929 51.5428 20.2 53.9571C17.7857 56.0928 17.3214 59.5285 18.9 62.2213H21.5V62.3142Z" fill="#08526D"></path>
</g>
</g>
</g>
</g>
</g>
</g>
</g>
</g>
<defs>
<linearGradient id="paint0_linear_3502_4383" x1="35.9065" y1="61.7004" x2="35.9065" y2="44.5077" gradientUnits="userSpaceOnUse">
<stop stop-color="#ADE3F6"></stop>
<stop offset="0.01" stop-color="#ADE3F6" stop-opacity="0.98"></stop>
<stop offset="0.635" stop-color="#ADE3F6" stop-opacity="0.28"></stop>
<stop offset="0.9925" stop-color="#ADE3F6" stop-opacity="0"></stop>
</linearGradient>
</defs>
<style>
        @keyframes id_anim_stroke-property5{
        
            0%{
                stroke-dashoffset: 0px; 
        stroke-dasharray: 0px, 199.10841369628906px;
            }
        
            50%{
                stroke-dashoffset: -99.55420684814453px; 
        stroke-dasharray: 99.55420684814453px, 99.55420684814453px;
            }
        
            100%{
                stroke-dashoffset: -199.10841369628906px; 
        stroke-dasharray: 199.10841369628906px, 0px;
            }
        
        }
        </style></svg>
