<svg width="80" height="80" viewBox="0 0 80 80" fill="none" xmlns="http://www.w3.org/2000/svg">
<g id="icons/support">
<g id="support (1) 1">
<g id="Group">
<g id="Group_2">
<path id="Vector" d="M31.3642 38.5141C38.0824 38.5141 43.5285 33.068 43.5285 26.3498C43.5285 19.6317 38.0824 14.1855 31.3642 14.1855C24.6461 14.1855 19.2 19.6317 19.2 26.3498C19.2 33.068 24.6461 38.5141 31.3642 38.5141Z" fill="#ADE3F6"></path>
<path id="Vector_2" d="M32.5715 53.4642L53.4644 32.5713C56.1572 33.2213 59.1286 32.4785 61.2644 30.4356C63.5858 28.1142 64.2358 24.6785 63.2144 21.7999L57.9215 26.9999L54.8572 25.1428L53.0001 22.1713L58.2929 16.7856C55.4144 15.6713 51.9786 16.3213 49.6572 18.7356C47.5215 20.8713 46.7786 23.8428 47.5215 26.5356L26.5358 47.4285C23.8429 46.7785 20.8715 47.5213 18.7358 49.5642C16.4144 51.8856 15.7644 55.3213 16.7858 58.1999L22.0786 52.9999L25.0501 54.8571L26.9072 57.8285L21.7072 63.2142C24.5858 64.3285 28.0215 63.6785 30.3429 61.2642C32.4786 59.1285 33.2215 56.1571 32.5715 53.4642Z" stroke="#08526D" stroke-width="2" class="id_anim_stroke-property1" data-duration="2.7777777777777777" data-offset="0" style="stroke-dashoffset: 0px; stroke-dasharray: 0px, 174.383px; animation: 2.77778s linear 0s 1 normal forwards running id_anim_stroke-property1;"></path>
<g id="Group_3">
<path id="Vector_3" d="M62.0071 56.714L45.5713 40.3711L40.3713 45.5711L56.7142 62.0068C57.6428 62.9354 59.2213 62.9354 60.2428 62.0068L62.0071 60.2425C62.9356 59.3139 62.9356 57.7354 62.0071 56.714Z" fill="url(#paint0_linear_3502_4517)"></path>
<path id="Vector_4" d="M62.0071 56.714L45.5713 40.3711L40.3713 45.5711L56.7142 62.0068C57.6428 62.9354 59.2213 62.9354 60.2428 62.0068L62.0071 60.2425C62.9356 59.314 62.9356 57.7354 62.0071 56.714Z" stroke="#08526D" stroke-width="2" class="id_anim_stroke-property3" data-duration="2.7777777777777777" data-offset="0" style="stroke-dashoffset: 0px; stroke-dasharray: 0px, 63.9792px; animation: 2.77778s linear 0s 1 normal forwards running id_anim_stroke-property3;"></path>
<path id="Vector_5" d="M31.9214 28.2069L27.9286 24.214L26.5357 20.6855L20.6857 16.9712L18.8286 18.8283L16.9714 20.6855L20.6857 26.5355L24.2143 27.9283L28.2071 31.9212L35.1714 38.8855L38.8857 35.1712L31.9214 28.2069Z" stroke="#08526D" stroke-width="2" class="id_anim_stroke-property4" data-duration="2.7777777777777777" data-offset="0" style="stroke-dashoffset: 0px; stroke-dasharray: 0px, 62.9432px; animation: 2.77778s linear 0s 1 normal forwards running id_anim_stroke-property4;"></path>
</g>
</g>
</g>
</g>
</g>
<defs>
<linearGradient id="paint0_linear_3502_4517" x1="60.932" y1="60.9318" x2="42.3752" y2="42.375" gradientUnits="userSpaceOnUse">
<stop stop-color="#ADE3F6"></stop>
<stop offset="0.01" stop-color="#ADE3F6" stop-opacity="0.98"></stop>
<stop offset="0.644" stop-color="#ADE3F6" stop-opacity="0.28"></stop>
<stop offset="0.79" stop-color="#FFEADE" stop-opacity="0.247059"></stop>
</linearGradient>
</defs>
<style>
        @keyframes id_anim_stroke-property1{
        
            0%{
                stroke-dashoffset: 0px; 
        stroke-dasharray: 0px, 174.3827362060547px;
            }
        
            50%{
                stroke-dashoffset: -87.19136810302734px; 
        stroke-dasharray: 87.19136810302734px, 87.19136810302734px;
            }
        
            100%{
                stroke-dashoffset: -174.3827362060547px; 
        stroke-dasharray: 174.3827362060547px, 0px;
            }
        
        }
         
        @keyframes id_anim_stroke-property3{
        
            0%{
                stroke-dashoffset: 0px; 
        stroke-dasharray: 0px, 63.97919845581055px;
            }
        
            50%{
                stroke-dashoffset: -31.989599227905273px; 
        stroke-dasharray: 31.989599227905273px, 31.989599227905273px;
            }
        
            100%{
                stroke-dashoffset: -63.97919845581055px; 
        stroke-dasharray: 63.97919845581055px, 0px;
            }
        
        }
         
        @keyframes id_anim_stroke-property4{
        
            0%{
                stroke-dashoffset: 0px; 
        stroke-dasharray: 0px, 62.94322204589844px;
            }
        
            50%{
                stroke-dashoffset: -31.47161102294922px; 
        stroke-dasharray: 31.47161102294922px, 31.47161102294922px;
            }
        
            100%{
                stroke-dashoffset: -62.94322204589844px; 
        stroke-dasharray: 62.94322204589844px, 0px;
            }
        
        }
        </style></svg>
