<svg width="60" height="60" viewBox="0 0 60 60" fill="none" xmlns="http://www.w3.org/2000/svg">
<path opacity="0.9" d="M13.1457 21.5546V15.2508C13.1457 14.1116 14.0629 13.2762 15.133 13.2762H21.477C22.4706 13.2762 23.3114 12.4407 23.3114 11.4534C23.3114 10.466 22.5327 10.5706 21.6126 10.5706H14.3221C12.1987 10.5706 10.4999 12.2693 10.4999 14.3928V21.754C10.4999 22.6741 10.3177 23.4534 11.3114 23.4534C12.305 23.3774 13.1457 22.542 13.1457 21.5546Z" fill="url(#paint0_linear_3679_4368)"/>
<path opacity="0.9" d="M38.3818 13.1462H44.7257C45.8722 13.1462 46.713 14.0634 46.713 15.1335V21.4774C46.713 22.471 47.5537 23.3118 48.5474 23.3118C49.541 23.3118 49.3587 22.5332 49.3587 21.6131V14.3226C49.3587 12.1992 47.66 10.5004 45.5365 10.5004H38.2461C37.326 10.5004 36.5474 10.3182 36.5474 11.3118C36.5474 12.3054 37.3881 13.1462 38.3818 13.1462Z" fill="url(#paint1_linear_3679_4368)"/>
<path opacity="0.9" d="M21.5545 46.7194H15.2507C14.1115 46.7194 13.276 45.808 13.276 44.7447V38.441C13.276 37.4536 12.4406 36.6182 11.4533 36.6182C10.4659 36.6182 10.5711 37.3968 10.5711 38.3169V45.6781C10.5711 47.8016 12.2699 49.5003 14.3933 49.5003H21.7545C22.6747 49.5003 23.4533 49.6055 23.4533 48.6182C23.3773 47.5549 22.5419 46.7194 21.5545 46.7194Z" fill="url(#paint2_linear_3679_4368)"/>
<path opacity="0.9" d="M46.7189 38.3813V44.7252C46.7189 45.8717 45.8075 46.7125 44.7443 46.7125H38.4405C37.4531 46.7125 36.6177 47.5532 36.6177 48.5469C36.6177 49.5405 37.3963 49.3582 38.3164 49.3582H45.6776C47.8011 49.3582 49.4998 47.6595 49.4998 45.5361V38.2456C49.4998 37.3255 49.605 36.5469 48.6177 36.5469C47.5544 36.5469 46.7189 37.3876 46.7189 38.3813Z" fill="url(#paint3_linear_3679_4368)"/>
<path opacity="0.9" d="M21.9668 26.3548V22.7449C21.9668 22.3203 22.3208 21.9664 22.7454 21.9664H37.1848C37.6094 21.9664 37.9634 22.3203 37.9634 22.7449V26.3548C37.9634 27.2749 38.6712 27.9827 39.5913 27.9827C40.5115 27.9827 41.2193 27.2749 41.2193 26.3548V20.9046C41.2193 19.6306 40.2283 18.6396 38.9543 18.6396H20.9051C19.6311 18.6396 18.6401 19.6306 18.6401 20.9046V26.3548C18.6401 27.2749 19.3479 27.9827 20.2681 27.9827C21.259 28.0535 21.9668 27.2749 21.9668 26.3548Z" stroke="url(#paint4_linear_3679_4368)"/>
<path opacity="0.9" d="M42.5638 31.2383H41.219H18.6398H17.295C16.4456 31.2383 15.8086 31.8753 15.8086 32.7247C15.8086 33.5741 16.4456 34.2111 17.295 34.2111H18.6398V38.9534C18.6398 40.2275 19.6308 41.2184 20.9048 41.2184H39.0248C40.2988 41.2184 41.2898 40.2275 41.2898 38.9534V34.2111H42.6346C43.484 34.2111 44.121 33.5741 44.121 32.7247C44.121 31.8753 43.4132 31.2383 42.5638 31.2383Z" stroke="url(#paint5_linear_3679_4368)"/>
<defs>
<linearGradient id="paint0_linear_3679_4368" x1="16.8963" y1="11.8086" x2="18.5689" y2="22.0075" gradientUnits="userSpaceOnUse">
<stop stop-color="#00A5E3"/>
<stop offset="0.5" stop-color="#373188"/>
<stop offset="1" stop-color="#FD0026"/>
</linearGradient>
<linearGradient id="paint1_linear_3679_4368" x1="42.9436" y1="11.7305" x2="44.5984" y2="21.8763" gradientUnits="userSpaceOnUse">
<stop stop-color="#00A5E3"/>
<stop offset="0.5" stop-color="#373188"/>
<stop offset="1" stop-color="#FD0026"/>
</linearGradient>
<linearGradient id="paint2_linear_3679_4368" x1="17.0024" y1="37.8555" x2="18.6663" y2="48.0573" gradientUnits="userSpaceOnUse">
<stop stop-color="#00A5E3"/>
<stop offset="0.5" stop-color="#373188"/>
<stop offset="1" stop-color="#FD0026"/>
</linearGradient>
<linearGradient id="paint3_linear_3679_4368" x1="43.0493" y1="37.7774" x2="44.6954" y2="47.9261" gradientUnits="userSpaceOnUse">
<stop stop-color="#00A5E3"/>
<stop offset="0.5" stop-color="#373188"/>
<stop offset="1" stop-color="#FD0026"/>
</linearGradient>
<linearGradient id="paint4_linear_3679_4368" x1="29.9131" y1="19.5375" x2="30.4239" y2="27.1026" gradientUnits="userSpaceOnUse">
<stop stop-color="#00A5E3"/>
<stop offset="0.5" stop-color="#373188"/>
<stop offset="1" stop-color="#FD0026"/>
</linearGradient>
<linearGradient id="paint5_linear_3679_4368" x1="29.944" y1="32.1969" x2="30.4089" y2="40.284" gradientUnits="userSpaceOnUse">
<stop stop-color="#00A5E3"/>
<stop offset="0.5" stop-color="#373188"/>
<stop offset="1" stop-color="#FD0026"/>
</linearGradient>
</defs>
</svg>
