<svg width="80" height="80" viewBox="0 0 80 80" fill="none" xmlns="http://www.w3.org/2000/svg">
<path d="M49.3786 16.6931L47.4286 17.1573L44.55 18.6431L41.8572 20.3145C41.8572 20.3145 40 22.3573 40 22.4502C39.9072 22.5431 37.3072 25.1431 37.3072 25.1431L36.1929 28.4859L36.3786 31.8288L40.5572 32.0145C40.5572 32.0145 41.3929 28.4859 41.7643 28.5788C42.1357 28.6716 45.9429 25.6073 46.1286 25.5145C46.2214 25.4216 50.3072 25.7002 50.3072 25.7002L51.7 26.7216L50.8643 28.6716L47.4286 31.4573L42.9714 34.0573L41.8572 36.3788L42.5072 38.3288C42.5072 38.3288 44.2714 38.7002 44.6429 38.7002C44.9214 38.7931 48.2643 37.6788 48.2643 37.6788L53.65 35.1716L57.55 32.7573L60.9857 29.6931L62.2857 27.2788L61.1714 15.9502L49.3786 16.6931Z" fill="url(#paint0_linear_3679_4284)"/>
<path d="M33.964 49.5641C31.1783 50.0284 29.0426 54.3927 33.2212 58.4784C36.9354 62.0998 38.514 62.9355 38.514 62.9355V51.9784C37.7711 50.307 36.564 49.0998 33.964 49.5641Z" fill="#ADE3F6"/>
<path d="M40.521 50.4629C41.1221 50.0848 41.9259 49.8871 43.0835 50.0586L43.0913 50.0596C44.2384 50.2128 45.3273 51.2301 45.6509 52.7334C45.9486 54.1164 45.5896 55.932 43.9048 57.7559L43.5503 58.1201C41.7046 59.9197 40.3961 61.0212 39.5552 61.6689C39.3877 61.7979 39.2377 61.9071 39.1069 62.002V52.1064C39.4927 51.4016 39.9365 50.8306 40.521 50.4629Z" fill="#ADE3F6" stroke="#08526D"/>
<path d="M60.4499 46.6855H16.7642C16.2119 46.6855 15.7642 47.1333 15.7642 47.6855V63.7927C15.7642 64.345 16.2119 64.7927 16.7642 64.7927H60.4499C61.0022 64.7927 61.4499 64.345 61.4499 63.7927V47.6855C61.4499 47.1333 61.0022 46.6855 60.4499 46.6855Z" stroke="#08526D" stroke-width="2" stroke-linecap="round" stroke-linejoin="round"/>
<path d="M29.1357 41.9502H48.0786" stroke="#08526D" stroke-width="2" stroke-linecap="round" stroke-linejoin="round"/>
<path d="M15.7642 46.6863L25.1427 37.2148H29.1356" stroke="#08526D" stroke-width="2" stroke-linecap="round" stroke-linejoin="round"/>
<path d="M62.1925 27.7429L57.1782 32.7572C56.3425 33.5929 55.4139 34.2429 54.2997 34.7072L45.2925 38.6072C44.1782 39.0715 42.7854 38.7001 42.1354 37.5858C41.4854 36.4715 41.7639 34.9858 42.8782 34.2429L50.3068 29.2286L51.3282 27.1858C51.6068 26.6286 51.3282 25.8858 50.6782 25.7001L48.0782 24.8643C47.4282 24.6786 46.7782 24.7715 46.3139 25.1429L41.6711 28.4858L40.9282 31.7358" stroke="#08526D" stroke-width="2" stroke-linecap="round" stroke-linejoin="round"/>
<path d="M36.1929 31.7359L36.8429 27.0931C36.9357 26.5359 37.1214 25.9788 37.4929 25.5145L39.9072 22.0788C40.1857 21.6145 40.65 21.2431 41.0214 20.9645L46.2214 17.2502C47.4286 16.4145 48.8214 15.9502 50.2143 15.9502H61.45" stroke="#08526D" stroke-width="2" stroke-linecap="round" stroke-linejoin="round"/>
<path d="M61.45 46.6858L53.5571 38.793" stroke="#08526D" stroke-width="2" stroke-linecap="round" stroke-linejoin="round"/>
<path d="M43.4358 33.964C42.3215 32.5711 40.5573 31.6426 38.6073 31.6426C35.0787 31.6426 32.293 34.4283 32.293 37.9569C32.293 39.4426 32.8501 40.8354 33.6858 41.8569" stroke="#08526D" stroke-width="2" stroke-linecap="round" stroke-linejoin="round"/>
<path d="M44.8283 38.8857C44.6426 40.0929 44.1783 41.1143 43.5283 41.95" stroke="#08526D" stroke-width="2" stroke-linecap="round" stroke-linejoin="round"/>
<defs>
<linearGradient id="paint0_linear_3679_4284" x1="40.7327" y1="33.425" x2="61.3607" y2="17.5839" gradientUnits="userSpaceOnUse">
<stop stop-color="#ADE3F6"/>
<stop offset="0.3549" stop-color="#ADE3F6" stop-opacity="0"/>
</linearGradient>
</defs>
</svg>
