<svg width="80" height="80" viewBox="0 0 80 80" fill="none" xmlns="http://www.w3.org/2000/svg">
<g clip-path="url(#clip0_3679_4262)">
<path d="M53.65 44.4572V43.5287L48.1714 45.6644L48.3571 46.5001L41.4857 49.1929C39.0714 50.1215 36.2857 49.1929 34.8 47.0572L33.8714 45.5715L56.3428 35.9144C56.6214 35.7287 56.9928 35.6358 57.2714 35.5429C54.0214 28.5787 46.9643 23.6572 38.7928 23.6572C27.5571 23.6572 18.3643 32.7572 18.3643 44.0858C18.3643 55.3215 27.4643 64.5144 38.7928 64.5144C50.0285 64.5144 59.2214 55.4144 59.2214 44.0858C59.2214 43.5287 59.2214 42.9715 59.1285 42.3215L53.65 44.4572Z" fill="url(#paint0_linear_3679_4262)"/>
<path d="M53.9284 40.0004C60.6466 40.0004 66.0927 34.5543 66.0927 27.8362C66.0927 21.118 60.6466 15.6719 53.9284 15.6719C47.2103 15.6719 41.7642 21.118 41.7642 27.8362C41.7642 34.5543 47.2103 40.0004 53.9284 40.0004Z" fill="#ADE3F6"/>
<path d="M36.9666 44.1967C37.6639 43.8959 37.7847 42.9584 37.1865 42.4907L33.8547 39.8859C33.5773 39.669 33.2062 39.614 32.8778 39.7411L31.6862 40.2024C31.0912 40.4327 30.8612 41.1537 31.2127 41.686L33.3173 44.873C33.5843 45.2773 34.1029 45.4321 34.5478 45.2401L36.9666 44.1967Z" stroke="#08526D" stroke-width="2" stroke-linecap="round" stroke-linejoin="round"/>
<path d="M19.293 37.8645C20.2215 37.4931 21.1501 37.4002 21.7073 37.8645C23.6573 39.4431 26.2573 38.7931 26.7215 34.9859C27.2787 31.2717 30.4358 32.5717 31.9215 30.8074C32.8501 29.7859 32.6644 26.8145 32.3858 24.5859C26.1644 26.7217 21.243 31.6431 19.293 37.8645Z" stroke="#08526D" stroke-width="2" stroke-linecap="round" stroke-linejoin="round"/>
<path d="M48.7711 39.1468C49.3933 38.8801 49.5763 38.0852 49.1333 37.5733L46.3125 34.3137C46.0353 33.9934 45.5864 33.8825 45.1919 34.0368L42.6833 35.0185C42.106 35.2443 41.8712 35.9356 42.1915 36.4664L44.3788 40.091C44.6366 40.5183 45.1701 40.6901 45.6289 40.4935L48.7711 39.1468Z" stroke="#08526D" stroke-width="2" stroke-linecap="round" stroke-linejoin="round"/>
<path d="M49.2488 51.7499C49.3654 52.3563 49.9983 52.7131 50.5775 52.4991L53.0811 51.5738C53.4779 51.4271 53.7395 51.0467 53.7344 50.6237L53.6671 45.0355C53.6588 44.3456 52.9707 43.8712 52.3229 44.1087L48.8769 45.3722C48.4167 45.541 48.1466 46.0185 48.2392 46.4999L49.2488 51.7499Z" stroke="#08526D" stroke-width="2" stroke-linecap="round" stroke-linejoin="round"/>
<path d="M63.3074 38.7935L62.8431 37.5863C61.9145 35.0792 58.6645 34.8006 56.2502 35.9149L33.7788 45.572L34.7074 47.0577C36.1931 49.2863 38.9788 50.122 41.3931 49.1935L48.2645 46.5006L48.0788 45.6649L53.5574 43.5292V44.4577L62.1931 41.1149C63.2145 40.8363 63.6788 39.722 63.3074 38.7935Z" stroke="#08526D" stroke-width="2" stroke-linecap="round" stroke-linejoin="round"/>
<path d="M19.0143 49.5645C19.0143 49.5645 14.0929 52.7216 15.95 55.5073C17.7143 58.3859 28.0215 55.693 33.7786 52.5359" stroke="#08526D" stroke-width="2" stroke-linecap="round" stroke-linejoin="round"/>
<path d="M53.65 44.4572V43.5287L48.1714 45.6644L48.3571 46.5001L41.4857 49.1929C39.0714 50.1215 36.2857 49.1929 34.8 47.0572L33.8714 45.5715L56.3428 35.9144C56.6214 35.7287 56.9928 35.6358 57.2714 35.5429C54.0214 28.5787 46.9643 23.6572 38.7928 23.6572C27.5571 23.6572 18.3643 32.7572 18.3643 44.0858C18.3643 55.3215 27.4643 64.5144 38.7928 64.5144C50.0285 64.5144 59.2214 55.4144 59.2214 44.0858C59.2214 43.5287 59.2214 42.9715 59.1285 42.3215L53.65 44.4572Z" stroke="#08526D" stroke-width="2" stroke-linecap="round" stroke-linejoin="round"/>
<path d="M53.6499 44.458V43.5294L48.1713 45.6651L48.3571 46.5008L41.4856 49.1937C40.8356 49.4723 40.1856 49.5651 39.5356 49.5651C39.5356 49.9366 39.6285 50.2151 39.6285 50.5866C40.6499 58.758 38.3285 57.5508 34.2428 58.5723C31.9213 59.1294 31.9213 61.5437 32.2928 63.4937C34.3356 64.1437 36.5642 64.5151 38.7928 64.5151C50.0285 64.5151 59.2213 55.4151 59.2213 44.0866C59.2213 43.5294 59.2213 42.9723 59.1285 42.3223L53.6499 44.458Z" stroke="#08526D" stroke-width="2" stroke-linecap="round" stroke-linejoin="round"/>
</g>
<defs>
<linearGradient id="paint0_linear_3679_4262" x1="38.6895" y1="65.2263" x2="38.6895" y2="48.2024" gradientUnits="userSpaceOnUse">
<stop stop-color="#ADE3F6"/>
<stop offset="1" stop-color="#ADE3F6" stop-opacity="0"/>
</linearGradient>
<clipPath id="clip0_3679_4262">
<rect width="52" height="52" fill="white" transform="translate(14 14)"/>
</clipPath>
</defs>
</svg>
