<svg width="80" height="80" viewBox="0 0 80 80" fill="none" xmlns="http://www.w3.org/2000/svg">
<g clip-path="url(#clip0_3679_707)">
<path d="M48.4499 37.0286H22.2641C21.9105 37.0286 21.5603 36.9589 21.2336 36.8236C20.9069 36.6883 20.6101 36.4899 20.36 36.2399C20.11 35.9898 19.9116 35.6929 19.7763 35.3662C19.6409 35.0395 19.5713 34.6893 19.5713 34.3357V16.6929C19.5713 15.9787 19.855 15.2937 20.36 14.7887C20.865 14.2837 21.55 14 22.2641 14H48.4499C49.1641 14 49.849 14.2837 50.354 14.7887C50.859 15.2937 51.1427 15.9787 51.1427 16.6929V34.3357C51.1427 34.6893 51.0731 35.0395 50.9377 35.3662C50.8024 35.6929 50.604 35.9898 50.354 36.2399C50.1039 36.4899 49.8071 36.6883 49.4804 36.8236C49.1537 36.9589 48.8035 37.0286 48.4499 37.0286Z" fill="#ADE3F6"/>
<path d="M18.6431 20.2216H21.0574L23.3788 26.0716L27.1859 14.9287L30.7145 22.7287L32.4788 20.2216H36.3788" stroke="#08526D" stroke-width="2" stroke-linecap="round" stroke-linejoin="round"/>
<mask id="path-3-inside-1_3679_707" fill="white">
<path d="M53.1918 46.5C55.298 46.5107 57.3254 47.3024 58.8814 48.722C60.4374 50.1416 61.4114 52.088 61.6148 54.1844C61.8181 56.2808 61.2364 58.3781 59.9822 60.0703C58.7281 61.7625 56.8907 62.9291 54.8257 63.3444C52.7608 63.7596 50.6152 63.394 48.8044 62.3182C46.9936 61.2424 45.6464 59.533 45.0235 57.5209C44.4006 55.5089 44.5465 53.3373 45.4327 51.4265C46.319 49.5158 47.8827 48.0019 49.8211 47.1779"/>
</mask>
<path d="M53.1918 46.5C55.298 46.5107 57.3254 47.3024 58.8814 48.722C60.4374 50.1416 61.4114 52.088 61.6148 54.1844C61.8181 56.2808 61.2364 58.3781 59.9822 60.0703C58.7281 61.7625 56.8907 62.9291 54.8257 63.3444C52.7608 63.7596 50.6152 63.394 48.8044 62.3182C46.9936 61.2424 45.6464 59.533 45.0235 57.5209C44.4006 55.5089 44.5465 53.3373 45.4327 51.4265C46.319 49.5158 47.8827 48.0019 49.8211 47.1779" fill="url(#paint0_linear_3679_707)"/>
<path d="M53.1918 46.5L53.1868 47.5C55.0454 47.5094 56.8344 48.2081 58.2075 49.4607L58.8814 48.722L59.5554 47.9832C57.8165 46.3968 55.5507 45.5119 53.1969 45.5L53.1918 46.5ZM58.8814 48.722L58.2075 49.4607C59.5805 50.7134 60.44 52.431 60.6194 54.2809L61.6148 54.1844L62.6101 54.0878C62.3828 51.745 61.2944 49.5697 59.5554 47.9832L58.8814 48.722ZM61.6148 54.1844L60.6194 54.2809C60.7989 56.1309 60.2856 57.9816 59.1788 59.4749L59.9822 60.0703L60.7856 60.6658C62.1873 58.7746 62.8374 56.4307 62.6101 54.0878L61.6148 54.1844ZM59.9822 60.0703L59.1788 59.4749C58.0721 60.9681 56.4507 61.9976 54.6286 62.364L54.8257 63.3444L55.0229 64.3247C57.3306 63.8607 59.384 62.5569 60.7856 60.6658L59.9822 60.0703ZM54.8257 63.3444L54.6286 62.364C52.8064 62.7304 50.9131 62.4078 49.3152 61.4585L48.8044 62.3182L48.2937 63.1779C50.3174 64.3802 52.7152 64.7888 55.0229 64.3247L54.8257 63.3444ZM48.8044 62.3182L49.3152 61.4585C47.7173 60.5091 46.5284 59.0007 45.9788 57.2252L45.0235 57.5209L44.0682 57.8167C44.7643 60.0653 46.27 61.9756 48.2937 63.1779L48.8044 62.3182ZM45.0235 57.5209L45.9788 57.2252C45.4291 55.4497 45.5578 53.5334 46.3399 51.8473L45.4327 51.4265L44.5256 51.0058C43.5351 53.1411 43.3721 55.568 44.0682 57.8167L45.0235 57.5209ZM45.4327 51.4265L46.3399 51.8473C47.122 50.1612 48.5018 48.8253 50.2123 48.0981L49.8211 47.1779L49.4299 46.2576C47.2636 47.1785 45.5161 48.8704 44.5256 51.0058L45.4327 51.4265Z" fill="#08526D" mask="url(#path-3-inside-1_3679_707)"/>
<path d="M23.9545 63.6229C28.6828 63.6229 32.5159 59.7898 32.5159 55.0614C32.5159 50.3331 28.6828 46.5 23.9545 46.5C19.2261 46.5 15.3931 50.3331 15.3931 55.0614C15.3931 59.7898 19.2261 63.6229 23.9545 63.6229Z" stroke="#08526D" stroke-width="2" stroke-linecap="round" stroke-linejoin="round"/>
<path d="M53.1918 46.5C55.298 46.5107 57.3254 47.3024 58.8814 48.722C60.4374 50.1416 61.4114 52.088 61.6148 54.1844C61.8181 56.2808 61.2364 58.3781 59.9822 60.0703C58.7281 61.7625 56.8907 62.9291 54.8257 63.3444C52.7608 63.7596 50.6152 63.394 48.8044 62.3182C46.9936 61.2424 45.6464 59.533 45.0235 57.5209C44.4006 55.5089 44.5465 53.3373 45.4327 51.4265C46.319 49.5158 47.8827 48.0019 49.8211 47.1779" stroke="#08526D" stroke-width="2" stroke-linecap="round" stroke-linejoin="round"/>
<path d="M48.7841 27.6308C50.5586 27.6308 51.997 26.1923 51.997 24.4179C51.997 22.6435 50.5586 21.2051 48.7841 21.2051C47.0097 21.2051 45.5713 22.6435 45.5713 24.4179C45.5713 26.1923 47.0097 27.6308 48.7841 27.6308Z" stroke="#08526D" stroke-width="2" stroke-linecap="round" stroke-linejoin="round"/>
<path d="M56.3896 33.6956H48.9054L42.8696 26.3692C42.5777 25.9959 42.2064 25.6922 41.7826 25.4802C41.3588 25.2681 40.8931 25.153 40.4193 25.1433C39.9454 25.1335 39.4754 25.2292 39.0432 25.4236C38.611 25.618 38.2274 25.9061 37.9204 26.2671L31.5039 33.7606C31.0133 34.3156 30.734 35.0258 30.7154 35.7663C30.6967 36.5068 30.9397 37.2302 31.4018 37.8092L37.1404 45.1356V52.9542C37.1404 53.5206 37.3654 54.0639 37.7659 54.4644C38.1664 54.8649 38.7097 55.0899 39.2761 55.0899C39.8425 55.0899 40.3857 54.8649 40.7863 54.4644C41.1868 54.0639 41.4118 53.5206 41.4118 52.9542V44.4392C41.4124 44.1174 41.3394 43.7998 41.1982 43.5106L37.7346 36.3792L42.4889 30.5385" stroke="#08526D" stroke-width="2" stroke-linecap="round" stroke-linejoin="round"/>
<path d="M55.5595 55.9066L52.1888 48.0323L50.3874 43.8166C50.2511 43.5053 50.1939 43.1651 50.2209 42.8263C50.2478 42.4876 50.3581 42.1607 50.5419 41.8749C50.7258 41.5891 50.9774 41.3531 51.2744 41.188C51.5715 41.0229 51.9047 40.9339 52.2445 40.9287H56.5809" stroke="#08526D" stroke-width="2" stroke-linecap="round" stroke-linejoin="round"/>
<path d="M24.2144 57.6427C25.7529 57.6427 27.0001 56.3955 27.0001 54.857C27.0001 53.3185 25.7529 52.0713 24.2144 52.0713C22.6759 52.0713 21.4287 53.3185 21.4287 54.857C21.4287 56.3955 22.6759 57.6427 24.2144 57.6427Z" fill="#B3DEFF"/>
</g>
<defs>
<linearGradient id="paint0_linear_3679_707" x1="53.1918" y1="63.6136" x2="53.1918" y2="46.5" gradientUnits="userSpaceOnUse">
<stop stop-color="#ADE3F6"/>
<stop offset="0.494476" stop-color="#ADE3F6" stop-opacity="0.5"/>
<stop offset="1" stop-color="#ADE3F6" stop-opacity="0"/>
</linearGradient>
<clipPath id="clip0_3679_707">
<rect width="52" height="52" fill="white" transform="translate(14 14)"/>
</clipPath>
</defs>
</svg>
