<svg width="60" height="60" viewBox="0 0 60 60" fill="none" xmlns="http://www.w3.org/2000/svg">
<path opacity="0.9" d="M22.9067 40.6914C25.2311 42.1243 27.6022 42.871 30.0083 42.8711C32.4055 42.8711 34.7632 42.1292 37.0698 40.7061L41.1284 44.7646C37.9174 47.1901 34.0002 48.5011 29.9722 48.4912H29.9712C25.953 48.4851 22.0493 47.166 18.8511 44.7393L22.9067 40.6914Z" stroke="url(#paint0_linear_3679_3731)" stroke-width="2"/>
<path opacity="0.34" d="M49.5003 29.9458C49.5056 34.2263 48.1023 38.3896 45.5068 41.7935C45.1012 42.3316 44.7269 42.355 44.2433 41.8637L40.0003 37.6285C39.5869 37.2151 39.5791 36.9967 39.8833 36.4975C42.5508 32.1245 42.5326 27.7593 39.8287 23.4019C39.5011 22.8793 39.5089 22.6843 39.9457 22.2398C41.3418 20.8358 42.7458 19.4397 44.1497 18.0357C44.6645 17.521 45.0077 17.5522 45.4444 18.1215C48.062 21.5085 49.4878 25.6652 49.5003 29.9458Z" stroke="url(#paint1_linear_3679_3731)" stroke-width="2"/>
<path opacity="0.9" d="M15.249 18.8594C16.6058 20.1972 17.9508 21.5481 19.2988 22.9033C17.9272 24.9659 17.1826 27.3823 17.1572 29.8604C17.1317 32.3625 17.8408 34.8172 19.1953 36.9209V36.9219C19.2074 36.941 19.2179 36.9595 19.2285 36.9766C19.2125 36.9931 19.1962 37.0115 19.1777 37.0303L15.1699 41.0371C12.7668 37.8235 11.4775 33.9122 11.5 29.8975C11.5224 25.9078 12.839 22.0347 15.249 18.8594Z" stroke="url(#paint2_linear_3679_3731)" stroke-width="2"/>
<path opacity="0.9" d="M29.9541 11.5H29.9551C33.9088 11.4944 37.7578 12.7556 40.9385 15.0938C40.9772 15.1222 41.0166 15.1472 41.0518 15.1709C41.0182 15.2015 40.9803 15.2345 40.9434 15.2715C39.6192 16.5964 38.3047 17.9158 36.9834 19.2305C34.9321 17.8915 32.5388 17.1682 30.0879 17.1504C27.6041 17.1325 25.1692 17.8391 23.0801 19.1826H23.0791C23.0549 19.1982 23.0317 19.2113 23.0107 19.2246L22.9209 19.1416L18.958 15.1709C22.129 12.791 25.987 11.502 29.9541 11.5Z" stroke="url(#paint3_linear_3679_3731)" stroke-width="2"/>
<path opacity="0.9" d="M26.9902 29.204C26.9902 27.7767 26.9902 26.3416 26.9902 24.9142C26.9879 24.7015 27.0563 24.494 27.1848 24.3244C27.3132 24.1549 27.4944 24.0328 27.6998 23.9774C27.9052 23.922 28.1232 23.9365 28.3195 24.0186C28.5158 24.1006 28.6792 24.2456 28.7841 24.4306C28.871 24.6024 28.9164 24.792 28.9167 24.9844C28.9167 27.8131 28.9167 30.6444 28.9167 33.4782C28.9288 33.612 28.9128 33.7468 28.8699 33.8741C28.827 34.0014 28.758 34.1183 28.6674 34.2175C28.5768 34.3166 28.4665 34.3958 28.3436 34.45C28.2207 34.5042 28.0878 34.5322 27.9535 34.5322C27.8192 34.5322 27.6863 34.5042 27.5634 34.45C27.4405 34.3958 27.3302 34.3166 27.2396 34.2175C27.149 34.1183 27.08 34.0014 27.0371 33.8741C26.9941 33.7468 26.9782 33.612 26.9902 33.4782C26.9824 32.0587 26.9902 30.6314 26.9902 29.204Z" fill="url(#paint4_linear_3679_3731)"/>
<path opacity="0.9" d="M31.0771 30.4526C31.0771 29.4543 31.0771 28.4559 31.0771 27.4576C31.0554 27.3185 31.064 27.1764 31.1024 27.0409C31.1408 26.9055 31.2081 26.78 31.2997 26.6731C31.3912 26.5661 31.5048 26.4802 31.6327 26.4214C31.7605 26.3625 31.8996 26.332 32.0404 26.332C32.1812 26.332 32.3203 26.3625 32.4481 26.4214C32.576 26.4802 32.6896 26.5661 32.7811 26.6731C32.8726 26.78 32.9399 26.9055 32.9783 27.0409C33.0168 27.1764 33.0254 27.3185 33.0036 27.4576V33.4477C33.0216 33.5834 33.0101 33.7213 32.9699 33.8522C32.9297 33.983 32.8617 34.1036 32.7707 34.2058C32.6796 34.3079 32.5676 34.3893 32.4422 34.4442C32.3169 34.4991 32.1811 34.5264 32.0443 34.5241C31.4515 34.5241 31.0771 34.1107 31.0771 33.4243C31.0693 32.4259 31.0771 31.4354 31.0771 30.4526Z" fill="url(#paint5_linear_3679_3731)"/>
<path opacity="0.9" d="M24.8381 31.6222C24.8381 32.2462 24.8381 32.8701 24.8381 33.4941C24.8502 33.6279 24.8342 33.7627 24.7913 33.89C24.7484 34.0173 24.6794 34.1342 24.5888 34.2334C24.4982 34.3325 24.3879 34.4117 24.265 34.4659C24.142 34.5201 24.0092 34.548 23.8749 34.548C23.7405 34.548 23.6077 34.5201 23.4848 34.4659C23.3619 34.4117 23.2516 34.3325 23.161 34.2334C23.0704 34.1342 23.0014 34.0173 22.9584 33.89C22.9155 33.7627 22.8996 33.6279 22.9116 33.4941C22.9116 32.2384 22.9116 30.9904 22.9116 29.7425C22.9053 29.6139 22.925 29.4854 22.9694 29.3646C23.0138 29.2438 23.082 29.1331 23.1701 29.0393C23.2582 28.9454 23.3642 28.8702 23.4819 28.8181C23.5997 28.7661 23.7267 28.7383 23.8554 28.7363C23.9878 28.7372 24.1187 28.7649 24.2402 28.8176C24.3616 28.8704 24.4712 28.9472 24.5623 29.0433C24.6533 29.1395 24.724 29.2531 24.7701 29.3772C24.8161 29.5014 24.8366 29.6336 24.8303 29.7659C24.8381 30.3977 24.8381 31.0138 24.8381 31.6222Z" fill="url(#paint6_linear_3679_3731)"/>
<path opacity="0.9" d="M37.0906 32.4879C37.0906 32.8544 37.0906 33.2132 37.0906 33.572C37.0906 33.8264 36.9895 34.0705 36.8096 34.2504C36.6297 34.4303 36.3857 34.5314 36.1312 34.5314C35.8768 34.5314 35.6328 34.4303 35.4529 34.2504C35.273 34.0705 35.1719 33.8264 35.1719 33.572C35.1719 32.8544 35.1719 32.1291 35.1719 31.4115C35.1719 31.2855 35.1967 31.1608 35.2449 31.0444C35.2931 30.928 35.3638 30.8222 35.4529 30.7331C35.5419 30.6441 35.6477 30.5734 35.7641 30.5252C35.8805 30.477 36.0052 30.4521 36.1312 30.4521C36.2572 30.4521 36.382 30.477 36.4984 30.5252C36.6148 30.5734 36.7205 30.6441 36.8096 30.7331C36.8987 30.8222 36.9693 30.928 37.0176 31.0444C37.0658 31.1608 37.0906 31.2855 37.0906 31.4115C37.0984 31.7703 37.0906 32.1291 37.0906 32.4879Z" fill="url(#paint7_linear_3679_3731)"/>
<defs>
<linearGradient id="paint0_linear_3679_3731" x1="29.972" y1="40.5409" x2="30.4973" y2="48.5563" gradientUnits="userSpaceOnUse">
<stop stop-color="#00A5E3"/>
<stop offset="0.5" stop-color="#373188"/>
<stop offset="1" stop-color="#FD0026"/>
</linearGradient>
<linearGradient id="paint1_linear_3679_3731" x1="44.5422" y1="20.0284" x2="51.4763" y2="37.1797" gradientUnits="userSpaceOnUse">
<stop stop-color="#00A5E3"/>
<stop offset="0.5" stop-color="#373188"/>
<stop offset="1" stop-color="#FD0026"/>
</linearGradient>
<linearGradient id="paint2_linear_3679_3731" x1="15.444" y1="19.956" x2="22.4167" y2="37.1481" gradientUnits="userSpaceOnUse">
<stop stop-color="#00A5E3"/>
<stop offset="0.5" stop-color="#373188"/>
<stop offset="1" stop-color="#FD0026"/>
</linearGradient>
<linearGradient id="paint3_linear_3679_3731" x1="29.9825" y1="11.4443" x2="30.5045" y2="19.4032" gradientUnits="userSpaceOnUse">
<stop stop-color="#00A5E3"/>
<stop offset="0.5" stop-color="#373188"/>
<stop offset="1" stop-color="#FD0026"/>
</linearGradient>
<linearGradient id="paint4_linear_3679_3731" x1="27.9521" y1="24.9613" x2="32.2285" y2="29.7515" gradientUnits="userSpaceOnUse">
<stop stop-color="#00A5E3"/>
<stop offset="0.5" stop-color="#373188"/>
<stop offset="1" stop-color="#FD0026"/>
</linearGradient>
<linearGradient id="paint5_linear_3679_3731" x1="32.039" y1="27.1189" x2="35.1445" y2="31.6511" gradientUnits="userSpaceOnUse">
<stop stop-color="#00A5E3"/>
<stop offset="0.5" stop-color="#373188"/>
<stop offset="1" stop-color="#FD0026"/>
</linearGradient>
<linearGradient id="paint6_linear_3679_3731" x1="23.8735" y1="29.2945" x2="25.7405" y2="33.1046" gradientUnits="userSpaceOnUse">
<stop stop-color="#00A5E3"/>
<stop offset="0.5" stop-color="#373188"/>
<stop offset="1" stop-color="#FD0026"/>
</linearGradient>
<linearGradient id="paint7_linear_3679_3731" x1="36.1316" y1="30.844" x2="37.1566" y2="33.8056" gradientUnits="userSpaceOnUse">
<stop stop-color="#00A5E3"/>
<stop offset="0.5" stop-color="#373188"/>
<stop offset="1" stop-color="#FD0026"/>
</linearGradient>
</defs>
</svg>
