<svg width="80" height="80" viewBox="0 0 80 80" fill="none" xmlns="http://www.w3.org/2000/svg">
<g clip-path="url(#clip0_3679_3546)">
<path d="M50.2146 44.643C58.4199 44.643 65.0717 37.9912 65.0717 29.7859C65.0717 21.5805 58.4199 14.9287 50.2146 14.9287C42.0092 14.9287 35.3574 21.5805 35.3574 29.7859C35.3574 37.9912 42.0092 44.643 50.2146 44.643Z" fill="#ADE3F6"/>
<path d="M51.4785 47.6504C51.4785 47.7221 51.4785 47.8012 51.4785 47.8867C51.4787 48.3556 51.4797 49.0267 51.4805 49.834C51.4819 51.4489 51.4844 53.6108 51.4902 55.7988C51.496 57.987 51.5045 60.2023 51.5176 61.9229C51.5241 62.783 51.5321 63.521 51.541 64.0703C51.544 64.2567 51.5482 64.4256 51.5518 64.5723H35.0215V51.8857C35.0214 51.3101 34.8919 50.7825 34.5156 50.4062C34.1393 50.03 33.6118 49.9004 33.0361 49.9004H24.3076C23.3306 49.9004 22.3215 50.6412 22.3213 51.8857V64.5723H18.5889C18.594 63.1334 18.6128 59.2994 18.6328 55.5918C18.6444 53.4388 18.6554 51.3291 18.6641 49.7578C18.6684 48.9722 18.6723 48.3209 18.6748 47.8662C18.6752 47.7885 18.6754 47.7163 18.6758 47.6504H51.4785ZM40.2012 50.0859C39.2741 49.9837 38.5158 50.6607 38.3906 51.5371L38.3857 51.5723V51.7744C38.295 52.7231 38.3857 53.7304 38.3857 54.6719V57.627C38.2829 58.5545 38.9602 59.3132 39.8369 59.4385L39.8721 59.4434H46.0361C46.926 59.4433 47.7018 58.8043 47.8311 57.8994L47.8359 57.8643V51.8857C47.8358 50.9959 47.1968 50.2201 46.292 50.0908L46.2568 50.0859H40.2012Z" fill="url(#paint0_linear_3679_3546)" stroke="#08526D"/>
<path d="M15.0216 43.3432C15.2073 43.0647 15.393 42.7861 15.5787 42.5075C17.8073 40.0004 20.0359 37.5861 22.2644 34.9861C22.6359 34.5218 23.193 34.2432 23.843 34.2432C31.4573 34.2432 38.9787 34.2432 46.593 34.1504C47.1501 34.1504 47.6144 34.3361 47.9859 34.7075L54.7644 42.4147C54.9501 42.6004 55.1359 42.879 55.2287 43.1575C55.4144 43.7147 55.043 44.3647 54.4859 44.5504C54.393 44.5504 54.3001 44.5504 54.3001 44.6432H16.4144C15.7644 44.7361 15.2073 44.3647 14.9287 43.8075L15.0216 43.3432Z" stroke="#08526D" stroke-width="2" stroke-miterlimit="10" stroke-linecap="round" stroke-linejoin="round"/>
<path d="M51.9797 49.1456C51.9789 48.0411 51.0834 47.1504 49.9788 47.1504H20.1676C19.0674 47.1504 18.1738 48.0363 18.1677 49.1364C18.1487 52.5685 18.1101 59.5771 18.0937 63.078C18.0885 64.1826 18.9814 65.0718 20.0859 65.0718H20.8217C21.9262 65.0718 22.8217 64.1764 22.8217 63.0718V51.8861C22.8217 50.9575 23.5645 50.4004 24.3074 50.4004H33.0359C34.0574 50.4004 34.5217 50.8647 34.5217 51.8861V63.0718C34.5217 64.1764 35.4171 65.0718 36.5217 65.0718H49.8371C51.0291 65.0718 52.0376 64.0369 52.0259 62.8449C51.9914 59.3067 51.9821 52.5141 51.9797 49.1456ZM47.3359 57.6868C47.3359 57.7815 47.3317 57.8767 47.3083 57.9684C47.1612 58.5443 46.6384 58.9432 46.0359 58.9432H40.0495C39.9549 58.9432 39.8596 58.939 39.7679 58.9156C39.2381 58.7801 38.8633 58.3263 38.8743 57.7849C38.8763 57.6903 38.8859 57.5957 38.8859 57.5011V54.6718C38.8859 53.6504 38.7931 52.7218 38.8859 51.7932V51.7497C38.8859 51.655 38.8902 51.5598 38.9136 51.4681C39.0491 50.9383 39.5029 50.5635 40.0443 50.5745C40.1389 50.5764 40.2334 50.5861 40.3281 50.5861H46.0795C46.1742 50.5861 46.2694 50.5903 46.3611 50.6138C46.937 50.7609 47.3359 51.2836 47.3359 51.8861V57.6868Z" stroke="#08526D" stroke-width="2" stroke-miterlimit="10" stroke-linecap="round" stroke-linejoin="round"/>
</g>
<defs>
<linearGradient id="paint0_linear_3679_3546" x1="35.0061" y1="65.0718" x2="35.0061" y2="47.1808" gradientUnits="userSpaceOnUse">
<stop stop-color="#ADE3F6"/>
<stop offset="0.4" stop-color="#ADE3F6" stop-opacity="0"/>
</linearGradient>
<clipPath id="clip0_3679_3546">
<rect width="52" height="52" fill="white" transform="translate(14 14)"/>
</clipPath>
</defs>
</svg>
