<svg width="60" height="60" viewBox="0 0 60 60" fill="none" xmlns="http://www.w3.org/2000/svg">
<path opacity="0.9" d="M30.0767 10.75C30.8005 10.7502 31.3285 11.3102 31.3286 11.9248V14.334L32.1499 14.4834C37.0617 15.3768 40.7289 19.5599 40.729 24.5244V31.5059L40.9829 31.79L45.7993 37.1904L45.9409 37.3604C46.2405 37.7531 46.3999 38.2081 46.3999 38.6992C46.3999 39.989 45.3271 41.0742 43.9038 41.0742H16.2485C14.8252 41.0742 13.7524 39.989 13.7524 38.6992C13.7525 38.2009 13.9689 37.6148 14.3481 37.1963L14.353 37.1904L19.1694 31.79L19.4233 31.5059V24.5244C19.4235 19.5599 23.0906 15.3768 28.0024 14.4834L28.8237 14.334V11.9248C28.8238 11.3101 29.3526 10.75 30.0767 10.75Z" stroke="url(#paint0_linear_3679_4382)" stroke-width="2"/>
<path opacity="0.9" d="M13.6851 25.8753V24.5253C13.6851 20.3254 15.3942 16.3505 18.5016 13.3505C19.123 12.7505 19.123 11.7756 18.5016 11.1756C17.8801 10.5756 16.8702 10.5756 16.2487 11.1756C12.5198 14.7755 10.5 19.5004 10.5 24.5253V25.8753C10.5 26.7003 11.1992 27.3752 12.0537 27.3752C12.9082 27.3752 13.6851 26.7003 13.6851 25.8753Z" fill="url(#paint1_linear_3679_4382)"/>
<path opacity="0.9" d="M43.8269 11.1756C43.2054 10.5756 42.1955 10.5756 41.574 11.1756C40.9525 11.7756 40.9525 12.7505 41.574 13.3505C44.6814 16.3505 46.3905 20.3254 46.3905 24.5253V25.8753C46.3905 26.7003 47.0897 27.3752 47.9442 27.3752C48.7987 27.3752 49.4979 26.7003 49.4979 25.8753V24.5253C49.5756 19.5004 47.5558 14.7755 43.8269 11.1756Z" fill="url(#paint2_linear_3679_4382)"/>
<path opacity="0.9" d="M30.0771 48.7503C32.8737 48.7503 35.2043 47.1003 36.2142 44.7754H23.9399C24.9498 47.1003 27.2804 48.7503 30.0771 48.7503Z" fill="url(#paint3_linear_3679_4382)"/>
<defs>
<linearGradient id="paint0_linear_3679_4382" x1="30.0508" y1="12.8548" x2="33.959" y2="38.5398" gradientUnits="userSpaceOnUse">
<stop stop-color="#00A5E3"/>
<stop offset="0.5" stop-color="#373188"/>
<stop offset="1" stop-color="#FD0026"/>
</linearGradient>
<linearGradient id="paint1_linear_3679_4382" x1="14.7276" y1="12.3248" x2="18.6638" y2="24.5987" gradientUnits="userSpaceOnUse">
<stop stop-color="#00A5E3"/>
<stop offset="0.5" stop-color="#373188"/>
<stop offset="1" stop-color="#FD0026"/>
</linearGradient>
<linearGradient id="paint2_linear_3679_4382" x1="45.2978" y1="12.3248" x2="49.2627" y2="24.578" gradientUnits="userSpaceOnUse">
<stop stop-color="#00A5E3"/>
<stop offset="0.5" stop-color="#373188"/>
<stop offset="1" stop-color="#FD0026"/>
</linearGradient>
<linearGradient id="paint3_linear_3679_4382" x1="30.068" y1="45.1572" x2="30.2383" y2="48.3798" gradientUnits="userSpaceOnUse">
<stop stop-color="#00A5E3"/>
<stop offset="0.5" stop-color="#373188"/>
<stop offset="1" stop-color="#FD0026"/>
</linearGradient>
</defs>
</svg>
