<svg width="64" height="64" viewBox="0 0 64 64" fill="none" xmlns="http://www.w3.org/2000/svg">
<path d="M48.6303 21H16C13.7909 21 12 22.7909 12 25V45.5405C12 47.7497 13.7909 49.5405 16 49.5405H16.5H28.5H32.8243C34.3021 49.5405 35.5 50.7385 35.5 52.2162V53.6419C35.5 54.3322 34.9404 54.8919 34.25 54.8919C33.5596 54.8919 33 55.4515 33 56.1419V58.3992C33 60.3724 34.6271 61.9572 36.5996 61.9053L49.8451 61.5567C51.0443 61.5252 52 60.544 52 59.3444C52 59.1162 51.9647 58.8893 51.8953 58.6719L50.7183 54.9818C50.5739 54.5291 50.5114 54.0543 50.5335 53.5796L51 43.5946L52.6147 25.3527C52.8218 23.0135 50.9786 21 48.6303 21Z" fill="url(#paint0_linear_3661_3780)"/>
<path d="M37.248 0.913574C39.1545 0.913574 40.7507 2.46119 40.751 4.41553V24.5942L40.79 24.6372L40.8164 24.6665L40.8184 24.6685L40.8457 24.6978L40.8486 24.7017L50.3203 34.5581C51.6723 36.0185 52.4068 37.9251 52.3076 39.8911L52.2744 40.3003L52.2734 40.312L50.9189 54.1245L50.9033 54.2896H51.8984L52.0059 54.2935C52.442 54.3382 52.8232 54.6725 52.9404 55.1304L52.9609 55.231L52.9746 55.3442V62.0796C52.9746 62.6341 52.5223 63.0864 51.9678 63.0864H33.1523C32.5978 63.0864 32.1455 62.6341 32.1455 62.0796V55.2964C32.1455 54.7418 32.5978 54.2896 33.1523 54.2896H34.4502V50.7983H14.5918C12.8588 50.7981 11.3826 49.5188 11.1289 47.8179L11.1084 47.6528L11.0957 47.4819L11.0898 47.2886V4.41553C11.0901 2.50107 12.6458 0.913574 14.5283 0.913574H37.248ZM34.0947 56.3022V61.0737H50.8975V56.3022H34.0947ZM40.751 40.1284L40.7471 40.2017C40.7197 40.5248 40.5155 40.8313 40.2314 40.9917L40.0928 41.0542C39.9444 41.1034 39.8757 41.1226 39.833 41.1294L39.7998 41.1323C39.559 41.1306 39.3197 41.0609 39.1367 40.9312L39.0615 40.8716L38.9746 40.7827L31.627 32.4136C31.3116 32.0179 30.8819 31.8639 30.582 31.813L30.5762 31.812L30.4639 31.7974L30.4541 31.7954H30.4404L30.3486 31.7915L30.3359 31.7905C30.0653 31.7906 29.4777 31.8951 29.0674 32.3882C28.6164 32.8616 28.4632 33.5732 28.7588 34.2046L28.8242 34.3306L36.2764 48.2192C36.3684 48.455 36.3984 48.5957 36.3984 48.7681V54.354H48.9619L48.9756 54.2183L48.9932 54.0386L50.3828 40.0835C50.5257 38.6517 50.065 37.215 49.1172 36.1509L49.1113 36.144L49.1055 36.1382L48.9277 35.9507L48.9268 35.9487L41.0098 27.728L40.751 27.4604V40.1284ZM14.5918 2.92627C13.8627 2.92657 13.1029 3.50479 13.1025 4.41553V47.2964C13.1027 47.6874 13.2376 48.0596 13.5068 48.3481C13.7693 48.6292 14.112 48.7816 14.4521 48.8384L14.499 48.8462L14.5068 48.8472L14.5156 48.8481L14.5234 48.8491H34.3135L34.1934 48.6274L34.1143 48.481L27.1309 35.3364L27.124 35.3218L27.123 35.3198L26.9883 35.0454C26.4218 33.7516 26.6579 32.2214 27.583 31.1479L27.584 31.1489C28.3256 30.3023 29.3119 29.8424 30.3965 29.8413L30.6123 29.8462C31.6377 29.8962 32.5373 30.3116 33.2158 31.0864L38.3633 36.9585L38.5381 37.1587L38.8018 37.4595V4.41553C38.8015 3.68648 38.2234 2.92646 37.3125 2.92627H33.8389V5.37549C33.8389 7.00892 32.4998 8.30225 30.9121 8.30225H20.9922C19.3588 8.30222 18.0654 6.9632 18.0654 5.37549V2.92627H14.5918ZM20.0146 2.92627V5.37549C20.0146 5.53898 20.0577 5.72002 20.167 5.88428C20.2718 6.04118 20.4057 6.13785 20.5156 6.19287C20.6221 6.24605 20.719 6.26693 20.7783 6.27686C20.8076 6.28172 20.8378 6.28563 20.8652 6.2876C20.8747 6.28826 20.8843 6.28843 20.8906 6.28857C20.894 6.28865 20.8974 6.28952 20.8994 6.28955H30.8486C31.0123 6.28944 31.1927 6.24611 31.3564 6.13721C31.5133 6.03245 31.61 5.89849 31.665 5.78857C31.7183 5.68203 31.7391 5.5852 31.749 5.52588C31.7539 5.49666 31.7578 5.46641 31.7598 5.43896C31.7604 5.42953 31.7606 5.41992 31.7607 5.41357C31.7608 5.41022 31.7617 5.40684 31.7617 5.40479V2.92627H20.0146Z" fill="#08526D"/>
<path d="M25.92 45.1198C26.9804 45.1198 27.84 44.2602 27.84 43.1998C27.84 42.1394 26.9804 41.2798 25.92 41.2798C24.8596 41.2798 24 42.1394 24 43.1998C24 44.2602 24.8596 45.1198 25.92 45.1198Z" fill="#08526D"/>
<defs>
<linearGradient id="paint0_linear_3661_3780" x1="36.9733" y1="92.0518" x2="31.6235" y2="34.8901" gradientUnits="userSpaceOnUse">
<stop stop-color="#32B9E9"/>
<stop offset="0.961538" stop-color="#32B9E9" stop-opacity="0"/>
</linearGradient>
</defs>
</svg>
