<svg width="80" height="80" viewBox="0 0 80 80" fill="none" xmlns="http://www.w3.org/2000/svg">
<g clip-path="url(#clip0_3679_3369)">
<path d="M58.3261 33.5001H37.4592C36.2913 33.5001 35.3569 32.3746 35.3569 30.9677V17.4612C35.3569 16.0543 36.2913 14.9287 37.4592 14.9287H58.3261C59.494 14.9287 60.4284 16.0543 60.4284 17.4612V30.9677C60.4284 32.3746 59.494 33.5001 58.3261 33.5001Z" fill="#ADE3F6"/>
<path d="M17.6216 47.2425H25.4216L29.4144 37.864C29.6002 37.3997 30.0644 37.1211 30.6216 37.1211C31.0859 37.1211 31.5502 37.4925 31.7359 37.9568L35.3573 51.1425L38.0502 45.1068C38.2359 44.7354 38.6073 44.4568 39.0716 44.364C39.5359 44.364 39.9073 44.5497 40.1859 44.8282L41.8573 47.2425H51.4216" stroke="#08526D" stroke-width="2" stroke-linecap="round" stroke-linejoin="round"/>
<path d="M42.9717 29.6357C48.9537 29.6358 53.4287 35.2024 53.4287 40.9287C53.4287 42.3483 53.1627 43.5878 52.7188 44.7422C52.284 45.8723 51.4953 47.0155 50.5283 47.8945L50.5195 47.9023L50.5107 47.9111C47.8701 50.5518 40.3257 58.1868 34.4287 64.3496C28.5317 58.1868 20.9873 50.5518 18.3467 47.9111C17.3755 46.94 16.6697 45.8838 16.1377 44.6475C15.6923 43.4891 15.4287 42.3433 15.4287 40.9287C15.4287 35.2927 19.906 29.6358 25.8857 29.6357C28.9015 29.6357 30.9472 30.4449 32.2285 31.2334C32.871 31.6288 33.3257 32.0214 33.6162 32.3105C33.7614 32.455 33.8656 32.5735 33.9316 32.6533C33.9647 32.6932 33.9877 32.7243 34.002 32.7432C34.0091 32.7526 34.014 32.7591 34.0166 32.7627L34.0176 32.7637L34.4287 33.3555L34.8398 32.7637L34.8408 32.7627C34.8434 32.7591 34.8484 32.7526 34.8555 32.7432C34.8698 32.7243 34.8928 32.6932 34.9258 32.6533C34.9918 32.5735 35.0961 32.455 35.2412 32.3105C35.5317 32.0214 35.9865 31.6288 36.6289 31.2334C37.9102 30.4449 39.9559 29.6357 42.9717 29.6357Z" fill="url(#paint0_linear_3679_3369)" stroke="#08526D"/>
<path d="M50.8644 48.2643C48.1716 50.9572 40.3716 58.85 34.4287 65.0715C28.4859 58.85 20.6859 50.9572 17.993 48.2643C16.9716 47.2429 16.2287 46.1286 15.6716 44.8286C15.2073 43.6215 14.9287 42.4143 14.9287 40.9286C14.9287 35.0786 19.5716 29.1357 25.8859 29.1357C32.1073 29.1357 34.4287 32.4786 34.4287 32.4786C34.4287 32.4786 36.7501 29.1357 42.9716 29.1357C49.2859 29.1357 53.9287 34.9857 53.9287 40.9286C53.9287 42.4143 53.6501 43.7143 53.1859 44.9215C52.7216 46.1286 51.8859 47.3357 50.8644 48.2643Z" stroke="#08526D" stroke-width="2" stroke-linecap="round" stroke-linejoin="round"/>
</g>
<defs>
<linearGradient id="paint0_linear_3679_3369" x1="34.4287" y1="65.0715" x2="34.4287" y2="29.1317" gradientUnits="userSpaceOnUse">
<stop offset="0.01" stop-color="#ADE3F6"/>
<stop offset="0.4" stop-color="#ADE3F6" stop-opacity="0"/>
</linearGradient>
<clipPath id="clip0_3679_3369">
<rect width="52" height="52" fill="white" transform="translate(14 14)"/>
</clipPath>
</defs>
</svg>
