<svg width="80" height="80" viewBox="0 0 80 80" fill="none" xmlns="http://www.w3.org/2000/svg">
<g clip-path="url(#clip0_3679_2471)">
<path d="M52.7218 55.6931C52.5361 55.6003 52.2575 55.5074 52.0718 55.4146H51.979C51.7932 55.3217 51.5147 55.2289 51.3289 55.2289C51.3289 55.2289 51.2361 55.2289 51.1432 55.2289C50.5861 55.0431 50.0289 54.9503 49.3789 54.8574H49.2861C49.1004 54.8574 49.0075 54.9503 48.9147 55.0431C48.3575 55.6003 47.6147 55.9717 46.6861 55.9717C45.7575 55.9717 45.0147 55.6003 44.4575 55.0431C44.3647 54.9503 44.1789 54.8574 44.0861 54.8574H43.9932C43.3432 54.9503 42.7861 55.136 42.2289 55.3217C42.0432 55.4146 41.4861 55.6003 40.8361 55.8788C40.3718 56.1574 40.0004 56.5289 39.7218 56.9003C39.6289 56.9003 39.4432 56.8074 39.3504 56.8074C39.3504 56.8074 39.2575 56.8074 39.1647 56.7146C38.6075 56.5289 38.0504 56.436 37.4004 56.2503H37.3075C37.1218 56.2503 37.0289 56.3431 36.9361 56.436C36.3789 56.9931 35.6361 57.3646 34.7075 57.3646C33.7789 57.3646 33.0361 56.9931 32.4789 56.436C32.3861 56.3431 32.2004 56.2503 32.1075 56.2503H32.0147C31.3647 56.3431 30.8075 56.5289 30.2504 56.7146C30.1575 56.7146 29.9718 56.8074 29.7861 56.9003C29.5075 56.5289 29.2289 56.1574 28.7647 55.8788C28.5789 55.786 28.3004 55.6931 28.1147 55.6003H28.0218C27.8361 55.5074 27.5575 55.4146 27.3718 55.4146C27.3718 55.4146 27.2789 55.4146 27.1861 55.4146C26.6289 55.2288 26.0718 55.136 25.4218 55.0431H25.3289C25.1432 55.0431 25.0504 55.136 24.9575 55.2289C24.4004 55.786 23.6575 56.1574 22.7289 56.1574C21.8004 56.1574 21.0575 55.786 20.5004 55.2289C20.4075 55.136 20.2218 55.0431 20.1289 55.0431H20.0361C19.3861 55.136 18.8289 55.3217 18.2718 55.5074C18.0861 55.6003 17.5289 55.786 16.8789 56.0646C15.9504 56.5288 15.3004 57.4574 15.2075 58.4789C15.2075 58.7574 15.2075 58.9431 15.2075 59.2217V60.5217C15.2075 61.3574 15.6718 62.1931 16.4147 62.5646C19.9432 64.3288 23.9361 64.6074 27.6504 63.2146C27.8361 63.586 28.1147 63.8646 28.4861 64.0503C32.4789 66.0931 37.1218 66.0931 41.1147 64.0503C41.4861 63.8646 41.7647 63.586 41.9504 63.2146C45.5718 64.6074 49.6575 64.3288 53.1861 62.5646C53.9289 62.1931 54.3932 61.3574 54.3932 60.5217V58.5717C54.2075 57.086 53.6504 56.2503 52.7218 55.6931Z" fill="url(#paint0_linear_3679_2471)"/>
<path d="M34.5213 54.2067C36.5642 54.2067 38.1428 52.6282 38.1428 50.5853C38.1428 48.5424 36.5642 46.9639 34.5213 46.9639C32.4785 46.9639 30.8999 48.5424 30.8999 50.5853C30.8999 52.6282 32.5713 54.2067 34.5213 54.2067Z" stroke="#08526D" stroke-width="2" stroke-miterlimit="10" stroke-linecap="round" stroke-linejoin="round"/>
<path d="M42.1356 59.4994V61.4494C42.1356 61.9136 42.0428 62.3779 41.7642 62.6565C41.5785 63.0279 41.2999 63.3065 40.9285 63.4922C36.9356 65.5351 32.1999 65.5351 28.2999 63.4922C27.9285 63.3065 27.6499 63.0279 27.4642 62.6565C27.2785 62.2851 27.0928 61.8208 27.0928 61.4494V60.1494C27.0928 59.9636 27.0928 59.6851 27.0928 59.4065C27.0928 58.3851 27.7428 57.4565 28.7642 56.9922C29.1356 56.8065 29.5071 56.6208 29.6928 56.5279C29.8785 56.4351 30.0642 56.4351 30.1571 56.3422C30.7142 56.1565 31.2713 56.0636 31.9213 55.8779H32.0142C32.1999 55.8779 32.2928 55.8779 32.3856 56.0636C32.9428 56.6208 33.6856 56.9922 34.6142 56.9922C35.5428 56.9922 36.2856 56.6208 36.8428 56.0636C36.9356 55.9708 37.1213 55.8779 37.2142 55.8779H37.3071C37.9571 55.9708 38.5142 56.1565 39.0713 56.3422C39.0713 56.3422 39.1642 56.3422 39.2571 56.4351C39.3499 56.4351 39.4428 56.5279 39.6285 56.5279C39.7213 56.5279 39.8142 56.6208 39.9999 56.6208H40.0928C40.3713 56.7136 40.5571 56.8065 40.7428 56.8994C41.5785 57.6422 42.1356 58.4779 42.1356 59.4994Z" stroke="#08526D" stroke-width="2" stroke-miterlimit="10" stroke-linecap="round" stroke-linejoin="round"/>
<path d="M22.45 52.8141C24.4929 52.8141 26.0715 51.2356 26.0715 49.1927C26.0715 47.1499 24.4929 45.5713 22.45 45.5713C20.4072 45.5713 18.8286 47.1499 18.8286 49.1927C18.8286 51.2356 20.5 52.8141 22.45 52.8141Z" stroke="#08526D" stroke-width="2" stroke-miterlimit="10" stroke-linecap="round" stroke-linejoin="round"/>
<path d="M29.6001 56.621C29.3216 56.7138 29.043 56.8067 28.6716 57.0853C27.743 57.5496 27.093 58.4781 27.0001 59.4996C27.0001 59.7781 27.0001 59.9638 27.0001 60.2424V61.5424C27.0001 62.0067 27.093 62.471 27.3716 62.7496C23.7501 64.1424 19.6644 63.8638 16.1359 62.0996C15.393 61.7281 14.9287 60.8924 14.9287 60.0567V58.7567C14.9287 58.4781 14.9287 58.2924 14.9287 58.0138C14.9287 56.9924 15.5787 56.0638 16.6001 55.5996C17.2501 55.2281 17.8073 55.0424 17.993 55.0424C18.5501 54.8567 19.1073 54.7638 19.7573 54.5781H19.8501C20.0359 54.5781 20.1287 54.671 20.2216 54.7638C20.7787 55.321 21.5216 55.6924 22.4501 55.6924C23.3787 55.6924 24.1216 55.321 24.6787 54.7638C24.7716 54.671 24.9573 54.5781 25.0501 54.5781H25.143C25.793 54.671 26.3501 54.8567 26.9073 54.9496C26.9073 54.9496 27.0001 54.9496 27.093 54.9496C27.2787 55.0424 27.5573 55.1353 27.743 55.1353H27.8359C28.1144 55.2281 28.3001 55.321 28.4859 55.4138C29.043 55.8781 29.3216 56.2496 29.6001 56.621Z" stroke="#08526D" stroke-width="2" stroke-miterlimit="10" stroke-linecap="round" stroke-linejoin="round"/>
<path d="M46.5931 52.8141C48.636 52.8141 50.2145 51.2356 50.2145 49.1927C50.2145 47.1499 48.636 45.5713 46.5931 45.5713C44.5502 45.5713 42.9717 47.1499 42.9717 49.1927C42.9717 51.2356 44.6431 52.8141 46.5931 52.8141Z" stroke="#08526D" stroke-width="2" stroke-miterlimit="10" stroke-linecap="round" stroke-linejoin="round"/>
<path d="M54.2075 58.1066V60.0566C54.2075 60.8923 53.7432 61.728 53.0003 62.0995C49.4718 63.8638 45.386 64.1423 41.7646 62.7495C41.9503 62.378 42.136 61.9138 42.136 61.5423V59.4995C42.136 58.478 41.5789 57.6423 40.7432 57.0852C40.5575 56.9923 40.2789 56.8066 40.0932 56.8066H40.0003C39.9075 56.8066 39.8146 56.7138 39.6289 56.7138C39.9075 56.3423 40.2789 55.9709 40.7432 55.6923C41.3932 55.3209 41.9503 55.1352 42.136 55.1352C42.6932 54.9495 43.2503 54.8566 43.9003 54.6709H43.9932C44.1789 54.6709 44.2718 54.7638 44.3646 54.8566C44.9218 55.4138 45.6646 55.7852 46.5932 55.7852C47.5218 55.7852 48.2646 55.4138 48.8218 54.8566C48.9146 54.7638 49.1003 54.6709 49.1932 54.6709H49.286C49.936 54.7638 50.4932 54.9495 51.0503 55.0423C51.0503 55.0423 51.1432 55.0423 51.236 55.0423C51.4218 55.1352 51.7003 55.228 51.886 55.228H51.9789C52.2575 55.3209 52.4432 55.4138 52.6289 55.5066C53.6503 56.2495 54.2075 57.0852 54.2075 58.1066Z" stroke="#08526D" stroke-width="2" stroke-miterlimit="10" stroke-linecap="round" stroke-linejoin="round"/>
<path d="M37.6782 15.4287H62.564C63.6806 15.4287 64.5716 16.319 64.5718 17.4355V30.8076C64.5716 31.9242 63.6806 32.8145 62.564 32.8145H37.6782C36.5618 32.8143 35.6716 31.9241 35.6714 30.8076V17.4355C35.6715 16.3191 36.5618 15.4289 37.6782 15.4287Z" fill="#ADE3F6" stroke="#08526D"/>
<path d="M47.8931 43.714H47.8003C47.4288 43.6211 47.1503 43.2497 47.2431 42.8783C47.336 42.1354 47.4288 41.3926 47.4288 40.5568C47.4288 37.3068 46.2217 34.2426 43.9931 31.8283C41.5788 29.2283 38.1431 27.6497 34.5217 27.6497C30.9003 27.6497 27.6503 29.0426 25.1431 31.7354C22.9145 34.1497 21.6145 37.3068 21.6145 40.5568C21.6145 41.2997 21.7074 42.1354 21.8003 42.8783C21.8931 43.2497 21.6145 43.6211 21.2431 43.714C20.8717 43.8068 20.5003 43.5283 20.4074 43.1568C20.2217 42.3211 20.2217 41.4854 20.2217 40.5568C20.2217 36.8426 21.6145 33.4068 24.1217 30.714C26.8145 27.8354 30.5288 26.2568 34.5217 26.2568C38.5145 26.2568 42.3217 27.9283 45.1074 30.8997C47.5217 33.5926 48.9145 37.0283 48.9145 40.5568C48.9145 41.3926 48.8217 42.3211 48.7288 43.1568C48.5431 43.5283 48.2645 43.714 47.8931 43.714Z" fill="#08526D"/>
<path d="M34.7073 35.0782C34.6144 35.0782 34.6144 35.0782 34.5216 35.0782C32.5716 35.0782 30.6216 34.7996 28.8573 34.1496C27.1859 33.5924 25.6073 32.8496 24.2144 31.8282C23.843 31.5496 23.843 31.1782 24.0287 30.8067C24.3073 30.4353 24.6787 30.4353 25.0502 30.621C26.3502 31.5496 27.743 32.1996 29.3216 32.7567C30.993 33.3139 32.7573 33.5924 34.6144 33.5924C34.7073 33.5924 34.7073 33.5924 34.8002 33.5924C36.5644 33.5924 38.3287 33.3139 39.9073 32.8496C41.4859 32.3853 42.8787 31.6424 44.1787 30.8067C44.5502 30.621 45.0144 30.621 45.2002 30.9924C45.3859 31.3639 45.3859 31.8282 45.0144 32.0139C43.6216 33.0353 42.043 33.7782 40.2787 34.3353C38.5144 34.7996 36.5644 35.0782 34.7073 35.0782Z" fill="#08526D"/>
<path d="M40.4644 46.4997C40.3716 46.4997 40.3716 46.4997 40.2787 46.4997C39.9073 46.4068 39.6287 46.0354 39.7216 45.664C40.0002 44.0854 40.1859 42.3211 40.1859 40.6497C40.1859 38.2354 39.9073 35.914 39.2573 33.8711C38.2359 30.1568 36.3787 27.8354 34.4287 27.8354C32.5716 27.8354 30.7144 30.1568 29.693 33.7783L29.6002 33.964C29.043 36.0068 28.7644 38.3283 28.7644 40.6497C28.7644 42.414 28.9502 44.0854 29.2287 45.664C29.3216 46.0354 29.043 46.4068 28.6716 46.4997C28.3002 46.5926 27.9287 46.314 27.8359 45.9426C27.4644 44.2711 27.3716 42.414 27.3716 40.6497C27.3716 38.0497 27.743 35.5426 28.3002 33.314L28.4859 32.7568C29.7859 28.6711 32.0144 26.2568 34.5216 26.2568C37.1216 26.2568 39.443 28.9497 40.743 33.4068C41.393 35.5426 41.6716 38.0497 41.6716 40.6497C41.6716 42.5068 41.4859 44.2711 41.2073 45.9426C41.1144 46.2211 40.8359 46.4997 40.4644 46.4997Z" fill="#08526D"/>
<path d="M48.1717 41.3002H20.9645C20.5931 41.3002 20.2217 40.9287 20.2217 40.5573C20.2217 40.1859 20.5931 39.8145 20.9645 39.8145H48.1717C48.5431 39.8145 48.9145 40.1859 48.9145 40.5573C48.9145 41.0216 48.5431 41.3002 48.1717 41.3002Z" fill="#08526D"/>
<path d="M34.5217 44.364C34.1502 44.364 33.7788 43.9926 33.7788 43.6211V26.9997C33.7788 26.6283 34.1502 26.2568 34.5217 26.2568C34.8931 26.2568 35.2645 26.6283 35.2645 26.9997V43.714C35.2645 44.0854 34.986 44.364 34.5217 44.364Z" fill="#08526D"/>
</g>
<defs>
<linearGradient id="paint0_linear_3679_2471" x1="34.5498" y1="65.0717" x2="34.5498" y2="54.609" gradientUnits="userSpaceOnUse">
<stop stop-color="#ADE3F6"/>
<stop offset="0.5947" stop-color="#ADE3F6" stop-opacity="0"/>
</linearGradient>
<clipPath id="clip0_3679_2471">
<rect width="52" height="52" fill="white" transform="translate(14 14)"/>
</clipPath>
</defs>
</svg>
