<svg width="64" height="64" viewBox="0 0 64 64" fill="none" xmlns="http://www.w3.org/2000/svg">
<path d="M13 44H7C4.79086 44 3 45.7909 3 48V59C3 61.2091 4.79086 63 7 63H13C15.2091 63 17 61.2091 17 59V48C17 45.7909 15.2091 44 13 44Z" fill="url(#paint0_linear_3661_2309)"/>
<path d="M35 25H29C26.7909 25 25 26.7909 25 29V58C25 60.2091 26.7909 62 29 62H35C37.2091 62 39 60.2091 39 58V29C39 26.7909 37.2091 25 35 25Z" fill="url(#paint1_linear_3661_2309)"/>
<path d="M57 25H51C48.7909 25 47 26.7909 47 29V58C47 60.2091 48.7909 62 51 62H57C59.2091 62 61 60.2091 61 58V29C61 26.7909 59.2091 25 57 25Z" fill="url(#paint2_linear_3661_2309)"/>
<path d="M15.3042 44.0078C16.4088 44.0078 17.3042 44.9032 17.3042 46.0078V61C17.3042 62.1046 16.4088 63 15.3042 63H4.27979C3.17522 63 2.27979 62.1046 2.27979 61V46.0078C2.27979 44.9032 3.17522 44.0078 4.27979 44.0078H15.3042ZM6.05615 45.7842C4.95158 45.7842 4.05615 46.6796 4.05615 47.7842V59.1602C4.05615 60.2647 4.95158 61.1602 6.05615 61.1602H13.5278C14.6324 61.1602 15.5278 60.2647 15.5278 59.1602V47.7842C15.5278 46.6796 14.6324 45.7842 13.5278 45.7842H6.05615Z" fill="#08526D"/>
<path d="M37.5122 29.6079C38.6168 29.6079 39.5122 30.5033 39.5122 31.6079V60.9995C39.5122 62.1041 38.6168 62.9995 37.5122 62.9995H26.4878C25.3832 62.9995 24.4878 62.1041 24.4878 60.9995V31.6079C24.4878 30.5033 25.3832 29.6079 26.4878 29.6079H37.5122ZM28.2642 31.3843C27.1596 31.3843 26.2642 32.2797 26.2642 33.3843V59.1597C26.2642 60.2642 27.1596 61.1597 28.2642 61.1597H35.7358C36.8404 61.1597 37.7358 60.2642 37.7358 59.1597V33.3843C37.7358 32.2797 36.8404 31.3843 35.7358 31.3843H28.2642Z" fill="#08526D"/>
<path d="M59.7202 10.6641C60.8248 10.6641 61.7202 11.5595 61.7202 12.6641V61C61.7202 62.1046 60.8248 63 59.7202 63H48.6958C47.5912 63 46.6958 62.1046 46.6958 61V12.6641C46.6958 11.5595 47.5912 10.6641 48.6958 10.6641H59.7202ZM50.4722 12.4404C49.3676 12.4404 48.4722 13.3359 48.4722 14.4404V59.1602C48.4722 60.2647 49.3676 61.1602 50.4722 61.1602H57.9438C59.0484 61.1602 59.9438 60.2647 59.9438 59.1602V14.4404C59.9438 13.3359 59.0484 12.4404 57.9438 12.4404H50.4722Z" fill="#08526D"/>
<path d="M37.9756 1V8.66406H36.2002V4.0498L11.1348 29.1133L9.92578 27.9043L34.9902 2.83984H30.376V1H37.9756Z" fill="#08526D"/>
<defs>
<linearGradient id="paint0_linear_3661_2309" x1="11.5275" y1="74.6814" x2="8.62117" y2="50.1258" gradientUnits="userSpaceOnUse">
<stop stop-color="#32B9E9"/>
<stop offset="0.961538" stop-color="#32B9E9" stop-opacity="0"/>
</linearGradient>
<linearGradient id="paint1_linear_3661_2309" x1="33.5275" y1="84.7481" x2="22.9154" y2="38.7051" gradientUnits="userSpaceOnUse">
<stop stop-color="#32B9E9"/>
<stop offset="0.961538" stop-color="#32B9E9" stop-opacity="0"/>
</linearGradient>
<linearGradient id="paint2_linear_3661_2309" x1="55.5275" y1="84.7481" x2="44.9154" y2="38.7051" gradientUnits="userSpaceOnUse">
<stop stop-color="#32B9E9"/>
<stop offset="0.961538" stop-color="#32B9E9" stop-opacity="0"/>
</linearGradient>
</defs>
</svg>
