<svg width="64" height="64" viewBox="0 0 64 64" fill="none" xmlns="http://www.w3.org/2000/svg">
<path d="M2 24L7 36.5L18 43H28L37.5 38L43.5 44.5L40.5 48L53 60.5L55 62.5L59.5 58.5L62.5 55L48.5 41.5L45.5 44L42.5 41L38.5 37L44 27.5L43.5 16.5L36 6L23 2L14.5 3.5L9 8L4 14L2 24Z" fill="url(#paint0_linear_3661_3543)"/>
<path d="M7.4094 7.40972C15.8248 -1.00572 29.487 -1.00572 37.9025 7.40972C41.9919 11.4993 44.2445 16.9255 44.2445 22.6563C44.2444 27.7738 42.4183 32.651 39.1212 36.559L39.0809 36.6068C38.7463 37.004 38.7713 37.5911 39.1385 37.9583L44.0295 42.8493C44.4197 43.2395 45.0522 43.2398 45.4429 42.8501L45.491 42.8021L47.4736 40.8177C47.7611 40.5303 48.3667 40.5303 48.6542 40.8177L62.6698 54.8333C62.9401 55.1036 62.9842 55.668 62.6368 56.0469L56.0136 62.6701C55.8163 62.8673 55.6338 62.9323 55.4233 62.9323C55.2132 62.9322 55.0317 62.8669 54.8347 62.6701L40.8174 48.6528C40.4668 48.3015 40.4666 47.8251 40.8174 47.474L42.866 45.4254L42.9124 45.3791C43.3037 44.9887 43.304 44.3548 42.9131 43.964L38.0656 39.1181L38.0232 39.0755C37.6528 38.7042 37.0586 38.6821 36.6617 39.0248L36.616 39.0642C32.6598 42.4726 27.6621 44.1805 22.7202 44.1806C17.2264 44.1806 11.6781 42.1055 7.47363 37.901C3.38451 33.8117 1.13001 28.3867 1.12988 22.6563C1.12988 16.9177 3.32546 11.4938 7.4094 7.40972ZM47.3104 43.342L43.3417 47.309L43.2937 47.3571C42.9039 47.7478 42.9043 48.3803 43.2945 48.7705L54.6698 60.1458L54.7162 60.1923C55.1066 60.5836 55.7404 60.584 56.1312 60.1931L60.1928 56.1315C60.5836 55.7407 60.5833 55.1069 60.192 54.7165L60.1455 54.6701L48.8174 43.342L48.7718 43.2964C48.3811 42.9048 47.7467 42.9048 47.356 43.2964L47.3104 43.342ZM22.6559 2.77257C17.594 2.77257 12.4478 4.66304 8.58301 8.59549C4.79573 12.3222 2.77398 17.331 2.77398 22.6563C2.7741 27.984 4.79908 32.9933 8.58995 36.7205C16.3644 44.4947 29.0094 44.5014 36.7245 36.7196C36.725 36.7191 36.725 36.7184 36.7245 36.7179C36.724 36.7174 36.724 36.7166 36.7245 36.7161C40.4426 32.9959 42.5377 27.928 42.5379 22.6563C42.5379 17.3853 40.5084 12.3769 36.7219 8.59028C32.8653 4.73367 27.7265 2.77257 22.6559 2.77257Z" fill="#08526D"/>
<path d="M21.6558 8.64014C28.8474 8.64014 34.6712 14.4642 34.6714 21.6558C34.6714 22.2387 34.2465 22.6401 33.8159 22.6401C33.3018 22.6401 32.896 22.2137 32.896 21.7202C32.896 15.5359 27.84 10.48 21.6558 10.48C21.1201 10.4799 20.7358 10.0957 20.7358 9.56006C20.7359 9.04596 21.1623 8.64018 21.6558 8.64014Z" fill="#08526D"/>
<defs>
<linearGradient id="paint0_linear_3661_3543" x1="63" y1="95.5" x2="33.8269" y2="10.6527" gradientUnits="userSpaceOnUse">
<stop stop-color="#32B9E9"/>
<stop offset="0.961538" stop-color="#32B9E9" stop-opacity="0"/>
</linearGradient>
</defs>
</svg>
