<svg width="60" height="60" viewBox="0 0 60 60" fill="none" xmlns="http://www.w3.org/2000/svg">
<path opacity="0.9" d="M47.7441 43.2119L47.752 43.2207L47.7607 43.2285C48.7379 44.1591 48.7377 45.6939 47.8096 46.6221L47.3477 47.085C46.4165 48.0161 44.9341 48.0161 44.0029 47.085V47.084L36.7715 39.8574C36.9713 39.7076 37.1752 39.5556 37.3496 39.4248C37.6424 39.2052 38.0176 38.9245 38.3193 38.6982L38.6982 38.4141C38.7456 38.3786 38.7835 38.3497 38.8096 38.3301C38.8225 38.3204 38.833 38.3127 38.8398 38.3076L38.8477 38.3018L38.8496 38.3008V38.2998L38.9775 38.2041L39.0693 38.0732L40.5244 35.9922L47.7441 43.2119Z" stroke="url(#paint0_linear_3679_4354)" stroke-width="2"/>
<path opacity="0.9" d="M26.4934 11.5C34.7735 11.5002 41.4856 18.2131 41.4856 26.4932C41.4854 34.7731 34.7733 41.4851 26.4934 41.4854C18.2133 41.4854 11.5005 34.7732 11.5002 26.4932C11.5002 18.2129 18.2132 11.5 26.4934 11.5Z" stroke="url(#paint1_linear_3679_4354)" stroke-width="2"/>
<path opacity="0.9" d="M29.9028 23.8574L29.9155 23.8584H29.9292C30.6163 23.8584 31.3328 24.2598 32.2798 24.9824C32.9702 25.5093 33.8241 26.2488 34.7368 26.7705C34.5913 31.184 30.9963 34.7451 26.4927 34.7451C22.759 34.7451 19.6204 32.2688 18.5952 28.8545C19.3874 29.2945 20.2936 29.6074 21.272 29.6074C22.2939 29.6074 23.2421 29.0842 24.0317 28.5078C24.8417 27.9166 25.6511 27.1422 26.3931 26.4287C27.1601 25.6911 27.8549 25.0188 28.5083 24.5273C29.1913 24.0136 29.6362 23.8504 29.9028 23.8574Z" stroke="url(#paint2_linear_3679_4354)" stroke-width="2"/>
<path opacity="0.9" d="M22.1973 23.2555C23.4383 23.2555 24.4443 22.2496 24.4443 21.0086C24.4443 19.7677 23.4383 18.7617 22.1973 18.7617C20.9564 18.7617 19.9504 19.7677 19.9504 21.0086C19.9504 22.2496 20.9564 23.2555 22.1973 23.2555Z" fill="url(#paint3_linear_3679_4354)"/>
<defs>
<linearGradient id="paint0_linear_3679_4354" x1="42.3233" y1="35.8198" x2="44.1766" y2="47.1763" gradientUnits="userSpaceOnUse">
<stop stop-color="#00A5E3"/>
<stop offset="0.5" stop-color="#373188"/>
<stop offset="1" stop-color="#FD0026"/>
</linearGradient>
<linearGradient id="paint1_linear_3679_4354" x1="26.4695" y1="13.5722" x2="30.6008" y2="38.9026" gradientUnits="userSpaceOnUse">
<stop stop-color="#00A5E3"/>
<stop offset="0.5" stop-color="#373188"/>
<stop offset="1" stop-color="#FD0026"/>
</linearGradient>
<linearGradient id="paint2_linear_3679_4354" x1="26.4791" y1="24.0952" x2="27.6541" y2="34.4391" gradientUnits="userSpaceOnUse">
<stop stop-color="#00A5E3"/>
<stop offset="0.5" stop-color="#373188"/>
<stop offset="1" stop-color="#FD0026"/>
</linearGradient>
<linearGradient id="paint3_linear_3679_4354" x1="22.1941" y1="19.1933" x2="22.7745" y2="22.7522" gradientUnits="userSpaceOnUse">
<stop stop-color="#00A5E3"/>
<stop offset="0.5" stop-color="#373188"/>
<stop offset="1" stop-color="#FD0026"/>
</linearGradient>
</defs>
</svg>
