<svg width="60" height="60" viewBox="0 0 60 60" fill="none" xmlns="http://www.w3.org/2000/svg">
<path opacity="0.9" d="M41.1523 12.9023C42.5547 12.9023 43.6922 14.0391 43.6924 15.4414C43.6924 16.8439 42.5548 17.9814 41.1523 17.9814C39.75 17.9813 38.6133 16.8438 38.6133 15.4414C38.6134 14.0392 39.7501 12.9025 41.1523 12.9023Z" stroke="url(#paint0_linear_3679_227)" stroke-width="2"/>
<g opacity="0.9">
<path d="M13.792 38.1909C14.1946 37.8813 14.3283 37.3397 14.1198 36.8766C13.1623 34.7508 12.637 32.4207 12.637 29.9331C12.637 20.3835 20.3836 12.637 29.9332 12.637C31.4819 12.637 32.939 12.8202 34.3424 13.1867C34.822 13.312 35.3275 13.0404 35.5558 12.6004C35.8343 12.0636 35.6178 11.3709 35.0347 11.2104C33.3976 10.7601 31.7088 10.5 29.9332 10.5C19.1815 10.5 10.5 19.1815 10.5 29.9331C10.5 32.7345 11.0873 35.438 12.1782 37.876C12.4516 38.487 13.2613 38.5989 13.792 38.1909Z" fill="url(#paint1_linear_3679_227)"/>
<path d="M46.8229 20.2359C46.5132 19.7063 45.7705 19.6969 45.3174 20.1104C44.9527 20.4433 44.8438 20.9837 45.0906 21.4114C46.5391 23.9216 47.363 26.8455 47.363 29.9343C47.363 39.4839 39.6165 47.2304 30.0668 47.2304C27.9524 47.2304 25.8897 46.8172 24.015 46.127C23.5837 45.9683 23.0949 46.1662 22.8451 46.5518C22.501 47.0829 22.6376 47.8602 23.2302 48.0822C25.3641 48.8815 27.6689 49.3006 30.0668 49.3006C40.8185 49.3006 49.5 40.6192 49.5 29.8675C49.4407 26.3683 48.486 23.0798 46.8229 20.2359Z" fill="url(#paint2_linear_3679_227)"/>
</g>
<path opacity="0.9" d="M17.5781 40.6162C18.9805 40.6162 20.118 41.753 20.1182 43.1553C20.1182 44.5577 18.9806 45.6953 17.5781 45.6953C16.1758 45.6951 15.0391 44.5576 15.0391 43.1553C15.0392 41.7531 16.1759 40.6164 17.5781 40.6162Z" stroke="url(#paint3_linear_3679_227)" stroke-width="2"/>
<path opacity="0.9" d="M27.7021 27.5967H27.5273C26.423 27.5969 25.5274 28.4923 25.5273 29.5967V37.6143H23.1865V29.5967C23.1864 28.4922 22.291 27.5967 21.1865 27.5967H20.9453L24.3242 22.9512L27.7021 27.5967Z" stroke="url(#paint4_linear_3679_227)" stroke-width="2"/>
<path opacity="0.9" d="M36.8135 22.251V30.2676C36.8135 31.3721 37.7089 32.2676 38.8135 32.2676H39.0547L35.6768 36.9141L32.2979 32.2676H32.4727C33.5772 32.2676 34.4727 31.3721 34.4727 30.2676V22.251H36.8135Z" stroke="url(#paint5_linear_3679_227)" stroke-width="2"/>
<defs>
<linearGradient id="paint0_linear_3679_227" x1="41.1475" y1="12.5823" x2="42.0618" y2="18.1882" gradientUnits="userSpaceOnUse">
<stop stop-color="#00A5E3"/>
<stop offset="0.5" stop-color="#373188"/>
<stop offset="1" stop-color="#FD0026"/>
</linearGradient>
<linearGradient id="paint1_linear_3679_227" x1="23.3364" y1="13.2453" x2="27.4155" y2="35.7429" gradientUnits="userSpaceOnUse">
<stop stop-color="#00A5E3"/>
<stop offset="0.5" stop-color="#373188"/>
<stop offset="1" stop-color="#FD0026"/>
</linearGradient>
<linearGradient id="paint2_linear_3679_227" x1="35.723" y1="22.0754" x2="39.9595" y2="45.805" gradientUnits="userSpaceOnUse">
<stop stop-color="#00A5E3"/>
<stop offset="0.5" stop-color="#373188"/>
<stop offset="1" stop-color="#FD0026"/>
</linearGradient>
<linearGradient id="paint3_linear_3679_227" x1="17.5732" y1="40.2961" x2="18.4875" y2="45.902" gradientUnits="userSpaceOnUse">
<stop stop-color="#00A5E3"/>
<stop offset="0.5" stop-color="#373188"/>
<stop offset="1" stop-color="#FD0026"/>
</linearGradient>
<linearGradient id="paint4_linear_3679_227" x1="24.3161" y1="22.9187" x2="27.8117" y2="36.1083" gradientUnits="userSpaceOnUse">
<stop stop-color="#00A5E3"/>
<stop offset="0.5" stop-color="#373188"/>
<stop offset="1" stop-color="#FD0026"/>
</linearGradient>
<linearGradient id="paint5_linear_3679_227" x1="35.6686" y1="22.9187" x2="39.1643" y2="36.1083" gradientUnits="userSpaceOnUse">
<stop stop-color="#00A5E3"/>
<stop offset="0.5" stop-color="#373188"/>
<stop offset="1" stop-color="#FD0026"/>
</linearGradient>
</defs>
</svg>
