<svg width="64" height="64" viewBox="0 0 64 64" fill="none" xmlns="http://www.w3.org/2000/svg">
<path d="M25.6 27.7759C24.448 27.7759 23.488 28.7359 23.488 29.8879C23.488 31.0399 24.448 31.9999 25.6 31.9999C26.752 31.9999 27.712 31.0399 27.712 29.8879C27.712 28.7359 26.752 27.7759 25.6 27.7759Z" fill="#08526D"/>
<path d="M16.768 27.7759C15.616 27.7759 14.656 28.7359 14.656 29.8879C14.656 31.0399 15.616 31.9999 16.768 31.9999C17.92 31.9999 18.88 31.0399 18.88 29.8879C18.88 28.7359 17.92 27.7759 16.768 27.7759Z" fill="#08526D"/>
<path d="M34.496 31.9359C35.648 31.9359 36.608 30.9759 36.608 29.8239C36.608 28.6719 35.648 27.7119 34.496 27.7119C33.344 27.7119 32.384 28.6719 32.384 29.8239C32.384 30.9759 33.28 31.9359 34.496 31.9359Z" fill="#08526D"/>
<path d="M52.5 15H15.9605C8.25034 15 2 21.2503 2 28.9605C2 31.5994 2.74792 34.1842 4.15705 36.4153L6.59707 40.2787C7.51712 41.7354 8.05016 43.4029 8.14573 45.1232L8.40353 49.7635C8.46247 50.8244 9.12588 51.7571 10.1088 52.1607C10.9759 52.5169 11.9647 52.408 12.7335 51.8716L16.2583 49.4127C18.043 48.1676 20.1668 47.5 22.343 47.5H39L46.4208 47.0635C47.1268 47.0219 47.8308 47.1741 48.4566 47.5035L54.2016 50.5272C55.2154 51.0607 56.3623 50.0868 56 49C55.0807 45.9357 55.9716 42.6149 58.3013 40.4223L59.5026 39.2916C61.7345 37.1911 63 34.2621 63 31.1972V25.5C63 19.701 58.299 15 52.5 15Z" fill="url(#paint0_linear_3661_2377)"/>
<path d="M25.5996 10.6001C30.8726 10.6001 35.7622 11.9007 39.835 14.1206L39.8867 14.1499L39.9434 14.1831L40.0586 14.2485H41.2754L41.8486 14.2534C53.7948 14.493 63 22.2107 63 31.2964L62.9941 31.7036C62.8685 35.888 60.8078 39.887 57.1377 43.0845L57.0732 43.1401L56.8779 43.3091L56.8447 43.478L56.8115 43.645C56.6365 44.5207 56.5145 45.7324 56.6104 46.9878C56.7035 48.2067 57.0099 49.5534 57.752 50.6685C57.9386 51.0089 57.9476 51.3783 57.8379 51.6255C57.7321 51.8636 57.5044 52.0473 57.2773 52.1069L57.1807 52.1255L57.1514 52.1284L57.1299 52.1313C56.9507 52.1566 56.7811 52.1694 56.6016 52.1763L55.9971 52.1831C52.8822 52.1821 50.3742 50.5014 48.5908 48.7876L48.2441 48.4448L47.8936 48.0796L47.707 47.8804L47.5156 47.6743L47.2402 47.7319L47.1055 47.7593L47.0146 47.7778H47.0127L46.9619 47.7886C43.1283 48.5923 39.0512 48.5908 35.2959 47.729L35.291 47.728L35.2246 47.7134L35.1631 47.6997L35.0332 47.6694L34.9053 47.7095L34.7803 47.7476L34.2422 47.9058C31.539 48.6756 28.6236 49.1118 25.5996 49.1118C23.3711 49.1118 21.1969 48.8643 19.0117 48.4272L19.0088 48.4263L18.8721 48.3999L18.7383 48.3745L18.4678 48.3208L18.1865 48.6196L18.0986 48.7124L18.0928 48.7173L18.0879 48.7231C16.2164 50.7115 13.2765 53.087 9.62402 53.3716L9.26855 53.3921L8.89258 53.3989C8.53046 53.3986 8.1655 53.3488 7.63867 53.2827L7.63379 53.2817L7.61621 53.2798L7.60449 53.2778L7.48438 53.2573C7.29241 53.2054 7.1018 53.066 6.98438 52.8813L6.91992 52.7573L6.91016 52.7378L6.88184 52.6753C6.75842 52.382 6.80754 52.1159 6.93652 51.937L6.9541 51.9165L6.96875 51.894L6.96973 51.8931C7.94997 50.4601 8.2746 48.7276 8.34277 47.2466C8.39432 46.1251 8.30068 45.0873 8.19336 44.3247L8.08691 43.6606L8.07324 43.5806L8.02637 43.3013L7.80664 43.1226L7.80566 43.1216L7.73438 43.064L7.32422 42.7192C3.18636 39.1562 1 34.5803 1 29.8237C1.00025 19.4467 11.8402 10.6003 25.5996 10.6001ZM25.5996 12.3765C19.5788 12.3765 14.0822 14.1746 9.99512 17.1294L9.99023 17.1323L9.60742 17.4155L9.60352 17.4194C5.48 20.5458 2.83998 24.9294 2.83984 29.8237C2.83984 34.4715 5.20262 38.8427 9.37207 42.0708L9.37793 42.0757L9.38184 42.0786L9.3877 42.0845L9.42871 42.1118C9.59345 42.2217 9.6756 42.3627 9.69727 42.5054L9.69824 42.52L9.70703 42.564C9.8383 43.2202 10.614 46.7171 9.7207 50.1128L9.28711 51.7583L10.9355 51.3364C14.0058 50.5509 16.2897 48.232 17.4912 46.6968L17.4922 46.6948C17.6903 46.4403 18.0387 46.3223 18.3496 46.4019L18.3701 46.4077L18.3779 46.4097C20.685 47.0026 23.1493 47.3361 25.8232 47.1411C29.0217 47.1378 32.0299 46.6209 34.7842 45.7134H34.791L34.8682 45.688L34.8945 45.6792C36.7032 45.0374 38.3714 44.2802 39.8965 43.3687L39.9336 43.4224L40.5547 43.0083C41.3545 42.4751 42.0819 41.8789 42.7676 41.3179L42.7812 41.3101L42.8115 41.2847L42.8232 41.2749L42.8301 41.269C45.3265 39.11 47.1039 36.458 47.9961 33.5757L48.0186 33.5034V33.5005L48.04 33.4282V33.311C48.0643 33.1832 48.0967 33.0463 48.1377 32.8823C48.1829 32.7015 48.2433 32.4673 48.2832 32.228V32.2261L48.3447 31.8462L48.334 31.8354C48.3407 31.7795 48.3504 31.725 48.3555 31.6714C48.3717 31.5007 48.3857 31.3571 48.4111 31.2046L48.418 31.1636V31.1548L48.4238 31.1196V30.8472C48.4871 30.4166 48.4883 30.0493 48.4883 29.6958C48.4883 29.4716 48.4642 29.2722 48.4492 29.1372C48.4419 29.0714 48.435 29.0174 48.4307 28.9673L48.4238 28.7798V28.564L48.3584 28.4331C48.3538 28.2585 48.3267 28.1014 48.3145 28.0278C48.3058 27.976 48.3007 27.9447 48.2979 27.9224C48.2952 27.9014 48.2959 27.8986 48.2959 27.9038C48.2958 27.6981 48.246 27.5167 48.2344 27.4702C48.2334 27.4664 48.2322 27.4627 48.2314 27.4595C48.2308 27.3917 48.2287 27.2968 48.2188 27.1968L48.2178 27.1812L48.2148 27.1655L48.1846 26.9819L48.1816 26.9644L48.1777 26.9478L48.1328 26.7925C48.1224 26.7627 48.1079 26.7334 48.0947 26.7026V26.7007C48.0923 26.6892 48.0892 26.6739 48.085 26.6528C48.0754 26.605 48.0406 26.4162 47.9551 26.2261V26.2241C47.9531 26.2168 47.9502 26.2056 47.9463 26.1899C47.9331 26.1373 47.9128 26.0699 47.8857 25.9937C47.8475 25.7169 47.7579 25.485 47.7334 25.4116L47.7217 25.3784L47.7197 25.3755L47.709 25.3433L47.6934 25.311L47.6543 25.2124C47.646 25.188 47.6362 25.1582 47.623 25.1245L47.5508 24.9614L47.502 24.8394L47.4248 24.6167C47.4238 24.6119 47.4231 24.6065 47.4219 24.6011C47.4176 24.5826 47.4098 24.5578 47.4004 24.5288V24.4829L47.3525 24.3813L47.3301 24.3345L47.3076 24.2837L47.3047 24.2778L47.1289 23.9106L47.126 23.9058C46.8057 23.2544 46.456 22.6301 46.0762 22.0337L45.6865 21.4468L45.6123 21.3394L45.6104 21.3364L45.5352 21.229L45.3867 21.0161H45.332L45.3252 21.0073L45.1826 20.8179C45.1327 20.7319 45.0819 20.6559 45.0293 20.5903L45.0195 20.5786L45.0088 20.5659L44.8828 20.4282L44.8672 20.4126C44.8497 20.395 44.8209 20.3608 44.749 20.271C44.7197 20.2344 44.6809 20.1856 44.6377 20.1343L44.6309 20.1274L44.625 20.1206L44.5 19.9829L44.4922 19.9741L44.0488 19.5308L44.0039 19.5083C43.9792 19.4793 43.9488 19.4427 43.916 19.4067C43.7977 19.2456 43.6709 19.1228 43.5762 19.0366C43.4467 18.9189 43.406 18.8879 43.3311 18.813L43.2842 18.7661L43.2598 18.7427L43.207 18.689L43.1797 18.6616L43.1709 18.6538L42.7725 18.2925L42.7451 18.2671L42.7344 18.2603L42.3906 17.9653L42.3857 17.9614L42.0449 17.6831C41.2374 17.04 40.3517 16.4391 39.4082 15.8999L39.3564 15.8696L39.3496 15.8667L39.291 15.8335L39.1768 15.7681H39.1006C35.2813 13.6499 30.6563 12.3765 25.5996 12.3765ZM45.2188 18.2163C45.8764 18.9245 46.4742 19.6156 46.9941 20.3247L46.9502 20.3599L47.3916 20.9517C47.5983 21.2273 47.73 21.4079 47.8096 21.5669L47.8193 21.5864L47.8398 21.6304L47.8682 21.6694L47.8789 21.6841C47.9176 21.7433 47.9609 21.8198 48.0273 21.936C48.079 22.0265 48.1439 22.1342 48.2109 22.2397L48.2568 22.3325L48.2578 22.3345C48.3356 22.49 48.4121 22.6248 48.4756 22.7358C48.5407 22.8498 48.5919 22.9392 48.6416 23.0386L48.7803 23.3159L48.9189 23.5923H48.9248C49.2982 24.447 49.6083 25.3342 49.8525 26.2554L49.9727 26.7329L50.0156 26.9155L50.1504 27.4966H50.1699C50.1802 27.5532 50.1898 27.6007 50.1982 27.6343C50.1998 27.6405 50.201 27.6462 50.2021 27.6509C50.2087 27.827 50.2385 27.9687 50.252 28.0356C50.2597 28.0741 50.2625 28.0915 50.2637 28.1001V28.2593L50.2891 28.3325V28.3354L50.3145 28.4126C50.3199 28.429 50.3225 28.4366 50.3232 28.4399C50.3238 28.4424 50.3245 28.4457 50.3252 28.4526C50.3274 28.4744 50.3281 28.5096 50.3281 28.6079V29.9517C50.3281 30.0911 50.3164 30.2236 50.2998 30.4058C50.2873 30.5435 50.2742 30.7027 50.2686 30.8774C50.201 31.121 50.2002 31.3307 50.2002 31.4243L50.1943 31.5103C50.1908 31.5428 50.1864 31.5812 50.1787 31.6353C50.1651 31.7303 50.1404 31.8925 50.1367 32.0825C50.1342 32.097 50.1304 32.12 50.123 32.1567C50.1118 32.2131 50.0998 32.2919 50.0898 32.3784C50.0548 32.5073 50.0342 32.6232 50.0215 32.6997C50.0035 32.8076 49.9982 32.8262 49.9951 32.8354C49.9345 33.0172 49.9079 33.1898 49.8936 33.2759C49.8853 33.3252 49.8807 33.3499 49.877 33.3687L49.8623 33.4233C49.8075 33.571 49.7812 33.7075 49.7715 33.7563C49.7696 33.7656 49.7671 33.7736 49.7656 33.7808L49.7607 33.7925L49.7471 33.8335L49.7393 33.8579L49.7344 33.8735L49.7305 33.8892C49.694 34.0013 49.6592 34.122 49.6309 34.2212C49.6021 34.3218 49.5748 34.4108 49.5508 34.4839C49.5249 34.5448 49.5056 34.596 49.4922 34.6353L49.4619 34.7114L49.4492 34.7378L49.4268 34.7827L49.4141 34.8315L49.4072 34.8569L49.4053 34.8618L49.3984 34.8882L49.3945 34.8989C49.3788 34.9601 49.3546 35.0328 49.3037 35.1685C49.2705 35.2571 49.2282 35.3727 49.1895 35.4985C49.1553 35.5584 49.1302 35.6187 49.1104 35.6763C47.7483 39.0115 45.3201 42.0013 41.9414 44.3315L41.2529 44.7896L38.1865 46.7534L41.8262 46.6323C43.7915 46.5668 45.6967 46.3052 47.54 45.8491H47.5469L47.6084 45.8335L47.6309 45.8276L47.6582 45.8208L47.7188 45.8052L47.7256 45.8013C47.7446 45.8009 47.7704 45.8003 47.8076 45.8003C48.0316 45.8003 48.2452 45.8813 48.4365 46.0649L48.5176 46.1499C49.5124 47.3423 51.3859 49.245 53.7637 50.0376L55.4463 50.5952L55.0566 48.8735L54.9922 48.5679C54.7042 47.1097 54.7217 45.6788 54.8281 44.5581C54.8849 43.9603 54.966 43.4609 55.0352 43.105C55.0698 42.9267 55.1006 42.7852 55.124 42.687L55.1553 42.562L55.1582 42.5532L55.1602 42.5464L55.1865 42.4673L55.1973 42.3813C55.2126 42.276 55.2668 42.1622 55.4707 41.9985L55.9062 41.6499L55.9043 41.6479C59.1719 38.9386 61.0363 35.437 61.1543 31.6763V31.6685L61.1602 31.3042V31.2964C61.1602 23.9749 54.5284 18.0734 46.1299 16.5522L43.1758 16.0171L45.2188 18.2163ZM47.6875 45.8013L47.6836 45.8022L47.6826 45.8013H47.6875ZM48.2314 27.52C48.2314 27.5277 48.2319 27.5496 48.2285 27.5767C48.2269 27.5894 48.2221 27.6202 48.2109 27.6577C48.2052 27.6768 48.1947 27.7097 48.1748 27.7476C48.157 27.7814 48.1144 27.8528 48.0322 27.9146C47.971 27.9605 47.8926 27.9924 47.8047 28.0054C47.7987 27.9632 47.7959 27.9321 47.7959 27.9038C47.7958 27.7686 47.7626 27.6455 47.749 27.5913C47.7404 27.5569 47.7359 27.537 47.7334 27.5239C47.7311 27.5117 47.7324 27.5127 47.7324 27.52H48.2314ZM50.5977 27.1021C50.6097 27.1628 50.6248 27.2307 50.6455 27.3013C50.6548 27.3899 50.6719 27.4664 50.6836 27.5132C50.6922 27.5476 50.6968 27.5675 50.6992 27.5806C50.7015 27.5928 50.7002 27.5918 50.7002 27.5845H50.2002C50.2003 27.5768 50.2007 27.5549 50.2041 27.5278C50.2049 27.5214 50.2082 27.5107 50.2109 27.4966H50.5781V27.3208L50.6455 27.3013L50.5781 27.3081V27.105C50.5845 27.1034 50.5912 27.1034 50.5977 27.1021ZM47.666 26.3579C47.8424 26.3748 47.9479 26.4793 47.9619 26.4927C47.9944 26.5235 48.0161 26.5525 48.0244 26.564C48.0425 26.5891 48.0544 26.6108 48.0576 26.6167C48.0593 26.6197 48.0602 26.6229 48.0615 26.6255L47.9561 26.6782L47.6143 26.8472C47.6143 26.8472 47.6148 26.8434 47.6143 26.8413C47.6095 26.8226 47.6036 26.795 47.5947 26.7505C47.5819 26.6865 47.5548 26.536 47.4873 26.4009C47.486 26.3983 47.4855 26.395 47.4834 26.3892C47.5507 26.3703 47.6203 26.3575 47.666 26.3579ZM47.9404 26.1909L47.9414 26.1919C47.9445 26.1987 47.9478 26.2053 47.9502 26.2114C47.9517 26.2153 47.9521 26.2192 47.9531 26.2222C47.9485 26.212 47.9454 26.2011 47.9404 26.1909Z" fill="#08526D"/>
<defs>
<linearGradient id="paint0_linear_3661_2377" x1="39.1554" y1="76.3629" x2="36.4579" y2="26.7101" gradientUnits="userSpaceOnUse">
<stop stop-color="#32B9E9"/>
<stop offset="0.961538" stop-color="#32B9E9" stop-opacity="0"/>
</linearGradient>
</defs>
</svg>
