<svg width="60" height="60" viewBox="0 0 60 60" fill="none" xmlns="http://www.w3.org/2000/svg">
<g opacity="0.9">
<mask id="mask0_3679_1909" style="mask-type:luminance" maskUnits="userSpaceOnUse" x="21" y="16" width="30" height="29">
<path d="M50.8731 16.415H21.5337V44.3975H50.8731V16.415Z" fill="white"/>
</mask>
<g mask="url(#mask0_3679_1909)">
<g opacity="0.9">
<path d="M45.417 18C46.2964 18.0001 47.1071 18.2835 47.6768 18.7422C48.2406 19.1961 48.4998 19.7592 48.5 20.2871V21.6875H13.9375V20.2871C13.9376 19.7624 14.1934 19.2027 14.75 18.75C15.2421 18.3498 15.9177 18.0813 16.6641 18.0156L16.9883 18H45.417Z" stroke="url(#paint0_linear_3679_1909)" stroke-width="2"/>
<path d="M48.5 27.75V39.7363C48.5 40.5519 48.1758 41.3342 47.5986 41.9111C47.0213 42.4881 46.2377 42.8125 45.4209 42.8125H16.9854C16.174 42.8043 15.3988 42.4764 14.8281 41.9004C14.2575 41.3243 13.9375 40.5466 13.9375 39.7363V27.75H48.5ZM38.7725 34.1309C38.0186 34.1309 37.295 34.43 36.7617 34.9629C36.2286 35.4958 35.9288 36.2188 35.9287 36.9727C35.9287 37.7267 36.2284 38.4504 36.7617 38.9834C37.295 39.5163 38.0186 39.8154 38.7725 39.8154H42.1904C42.9443 39.8154 43.6679 39.5162 44.2012 38.9834C44.7345 38.4504 45.0342 37.7267 45.0342 36.9727C45.0341 36.2187 44.7345 35.4958 44.2012 34.9629C43.6678 34.4299 42.9444 34.1309 42.1904 34.1309H38.7725Z" stroke="url(#paint1_linear_3679_1909)" stroke-width="2"/>
</g>
</g>
</g>
<path opacity="0.9" d="M15.3752 9.0625H21.6477C22.0183 9.06253 22.3855 9.13534 22.7278 9.27734C23.0701 9.41937 23.381 9.62827 23.6428 9.89062C23.9045 10.1529 24.1119 10.4641 24.2532 10.8066C24.3353 11.0059 24.3913 11.2141 24.426 11.4258H16.5442V49.3867H24.4094C24.3747 49.5984 24.3197 49.8066 24.2375 50.0059C24.0963 50.3485 23.888 50.6595 23.6262 50.9219C23.3644 51.1843 23.0536 51.3931 22.7112 51.5352C22.3689 51.6771 22.0017 51.75 21.6311 51.75H15.3752C15.0041 51.75 14.6361 51.6772 14.2932 51.5352C13.9502 51.3931 13.6387 51.1844 13.3762 50.9219C13.1137 50.6594 12.905 50.3479 12.7629 50.0049C12.6209 49.662 12.5481 49.294 12.5481 48.9229V11.8896C12.5481 11.1399 12.8461 10.4208 13.3762 9.89062C13.9064 9.36048 14.6255 9.0625 15.3752 9.0625Z" stroke="url(#paint2_linear_3679_1909)" stroke-width="2"/>
<defs>
<linearGradient id="paint0_linear_3679_1909" x1="31.1919" y1="17.5463" x2="30.6391" y2="23.346" gradientUnits="userSpaceOnUse">
<stop stop-color="#00A5E3"/>
<stop offset="1" stop-color="#373188"/>
</linearGradient>
<linearGradient id="paint1_linear_3679_1909" x1="31.1919" y1="28.3889" x2="32.2533" y2="44.3489" gradientUnits="userSpaceOnUse">
<stop offset="0.0655905" stop-color="#373188"/>
<stop offset="0.463263" stop-color="#9A1957"/>
<stop offset="1" stop-color="#FD0026"/>
</linearGradient>
<linearGradient id="paint2_linear_3679_1909" x1="18.4969" y1="12.3547" x2="33.4278" y2="40.867" gradientUnits="userSpaceOnUse">
<stop stop-color="#00A5E3"/>
<stop offset="0.5" stop-color="#373188"/>
<stop offset="1" stop-color="#FD0026"/>
</linearGradient>
</defs>
</svg>
