<svg width="60" height="60" viewBox="0 0 60 60" fill="none" xmlns="http://www.w3.org/2000/svg">
<g opacity="0.9">
<path d="M30.3872 45.0995C29.89 45.0995 29.4639 44.6734 29.4639 44.1762V34.4458C29.4639 33.9486 29.89 33.5225 30.3872 33.5225C30.8844 33.5225 31.3105 33.9486 31.3105 34.4458V44.1762C31.3105 44.6734 30.8844 45.0995 30.3872 45.0995Z" fill="url(#paint0_linear_3679_25)"/>
</g>
<g opacity="0.9">
<path d="M44.166 45.0995C43.6689 45.0995 43.2427 44.6734 43.2427 44.1762V42.6847L41.112 40.9801C40.8989 40.838 40.7568 40.5539 40.7568 40.2698V34.4458C40.7568 33.9486 41.183 33.5225 41.6802 33.5225C42.1773 33.5225 42.6035 33.9486 42.6035 34.4458V39.8437L44.6632 41.4772C44.8763 41.6193 45.0183 41.9034 45.0183 42.1875V44.1762C45.0893 44.6734 44.6632 45.0995 44.166 45.0995Z" fill="url(#paint1_linear_3679_25)"/>
</g>
<g opacity="0.9">
<path d="M38.4847 45.0998C37.9875 45.0998 37.5613 44.6736 37.5613 44.1764V42.6849L35.5016 41.0514C35.2885 40.9093 35.1465 40.6252 35.1465 40.3411V34.5171C35.1465 34.0199 35.5726 33.5938 36.0698 33.5938C36.567 33.5938 36.9931 34.0199 36.9931 34.5171V39.8439L39.0528 41.4775C39.2659 41.6196 39.408 41.9037 39.408 42.1878V44.1764C39.408 44.6736 38.9818 45.0998 38.4847 45.0998Z" fill="url(#paint2_linear_3679_25)"/>
</g>
<g opacity="0.9">
<path d="M22.2905 45.0998C21.7933 45.0998 21.3672 44.6736 21.3672 44.1764V42.1878C21.3672 41.9037 21.5092 41.6196 21.7223 41.4775L23.782 39.8439V34.5171C23.782 34.0199 24.2082 33.5938 24.7054 33.5938C25.2025 33.5938 25.6287 34.0199 25.6287 34.5171V40.3411C25.6287 40.6252 25.4866 40.9093 25.2736 41.0514L23.2138 42.6849V44.2475C23.2138 44.6736 22.8587 45.0998 22.2905 45.0998Z" fill="url(#paint3_linear_3679_25)"/>
</g>
<g opacity="0.9">
<path d="M16.6802 45.256C16.183 45.256 15.7568 44.8299 15.7568 44.3327V42.344C15.7568 42.0599 15.8989 41.7758 16.112 41.6338L18.1717 40.0002V34.6733C18.1717 34.1762 18.5978 33.75 19.095 33.75C19.5922 33.75 20.0183 34.1762 20.0183 34.6733V40.4974C20.0183 40.7815 19.8763 41.0656 19.6632 41.2076L17.6035 42.8412V44.4037C17.6035 44.8299 17.1773 45.256 16.6802 45.256Z" fill="url(#paint4_linear_3679_25)"/>
</g>
<path opacity="0.9" d="M44.947 18.9957C44.947 18.8017 44.947 18.6724 44.947 18.4784C44.947 14.6638 41.5378 11.625 37.4184 11.625C35.8558 11.625 34.3643 12.0776 33.1569 12.7888C31.3103 10.9138 28.6113 9.75 25.6283 9.75C20.0173 9.75 15.5428 13.8233 15.4717 18.931C12.5597 19.9009 10.5 22.4224 10.5 25.3966C10.5 29.2112 13.9092 32.25 18.0286 32.25H41.964C46.1544 32.25 49.4926 29.1466 49.4926 25.3966C49.6347 22.4871 47.717 20.0302 44.947 18.9957Z" stroke="url(#paint5_linear_3679_25)" stroke-width="2"/>
<path opacity="0.9" d="M30.3871 50.4266C31.054 50.4266 31.5945 49.886 31.5945 49.2191C31.5945 48.5523 31.054 48.0117 30.3871 48.0117C29.7203 48.0117 29.1797 48.5523 29.1797 49.2191C29.1797 49.886 29.7203 50.4266 30.3871 50.4266Z" fill="url(#paint6_linear_3679_25)"/>
<path opacity="0.9" d="M30.5478 27.5086C31.2146 27.5086 31.7552 26.968 31.7552 26.3012C31.7552 25.6343 31.2146 25.0938 30.5478 25.0938C29.8809 25.0938 29.3403 25.6343 29.3403 26.3012C29.3403 26.968 29.8809 27.5086 30.5478 27.5086Z" fill="url(#paint7_linear_3679_25)"/>
<path opacity="0.9" d="M16.6801 50.4266C17.3469 50.4266 17.8875 49.886 17.8875 49.2191C17.8875 48.5523 17.3469 48.0117 16.6801 48.0117C16.0132 48.0117 15.4727 48.5523 15.4727 49.2191C15.4727 49.886 16.0132 50.4266 16.6801 50.4266Z" fill="url(#paint8_linear_3679_25)"/>
<path opacity="0.9" d="M22.2904 50.4266C22.9573 50.4266 23.4978 49.886 23.4978 49.2191C23.4978 48.5523 22.9573 48.0117 22.2904 48.0117C21.6236 48.0117 21.083 48.5523 21.083 49.2191C21.083 49.886 21.6236 50.4266 22.2904 50.4266Z" fill="url(#paint9_linear_3679_25)"/>
<path opacity="0.9" d="M38.4843 50.4266C39.1511 50.4266 39.6917 49.886 39.6917 49.2191C39.6917 48.5523 39.1511 48.0117 38.4843 48.0117C37.8174 48.0117 37.2769 48.5523 37.2769 49.2191C37.2769 49.886 37.8174 50.4266 38.4843 50.4266Z" fill="url(#paint10_linear_3679_25)"/>
<path opacity="0.9" d="M44.1664 50.4266C44.8332 50.4266 45.3738 49.886 45.3738 49.2191C45.3738 48.5523 44.8332 48.0117 44.1664 48.0117C43.4996 48.0117 42.959 48.5523 42.959 49.2191C42.959 49.886 43.4996 50.4266 44.1664 50.4266Z" fill="url(#paint11_linear_3679_25)"/>
<g opacity="0.9">
<path d="M36.94 21.0456C36.727 21.0456 36.4429 20.9746 36.3008 20.7615C34.8093 19.1989 32.7496 18.2756 30.5478 18.2756C28.346 18.2756 26.3573 19.1279 24.7948 20.7615C24.4397 21.1166 23.8715 21.1166 23.5163 20.7615C23.1612 20.4064 23.1612 19.8382 23.5163 19.483C25.363 17.5654 27.9199 16.5 30.5478 16.5C33.2467 16.5 35.7326 17.5654 37.5792 19.483C37.9344 19.8382 37.9344 20.4064 37.5792 20.7615C37.4372 20.9035 37.2241 21.0456 36.94 21.0456Z" fill="url(#paint12_linear_3679_25)"/>
</g>
<g opacity="0.9">
<path d="M33.7436 24.1707C33.5306 24.1707 33.2465 24.0997 33.1044 23.8866C32.4652 23.1764 31.5419 22.8213 30.6185 22.8213C29.6952 22.8213 28.7719 23.1764 28.1327 23.8866C27.7776 24.2417 27.2094 24.2417 26.8542 23.8866C26.4991 23.5315 26.4991 22.9633 26.8542 22.6082C27.8486 21.5428 29.1981 20.9746 30.6896 20.9746C32.1101 20.9746 33.4595 21.5428 34.5249 22.6082C34.88 22.9633 34.88 23.5315 34.5249 23.8866C34.1698 24.0997 33.9567 24.1707 33.7436 24.1707Z" fill="url(#paint13_linear_3679_25)"/>
</g>
<defs>
<linearGradient id="paint0_linear_3679_25" x1="30.3858" y1="34.6344" x2="35.0907" y2="39.2358" gradientUnits="userSpaceOnUse">
<stop stop-color="#00A5E3"/>
<stop offset="0.5" stop-color="#373188"/>
<stop offset="1" stop-color="#FD0026"/>
</linearGradient>
<linearGradient id="paint1_linear_3679_25" x1="42.8883" y1="34.6344" x2="46.37" y2="42.5067" gradientUnits="userSpaceOnUse">
<stop stop-color="#00A5E3"/>
<stop offset="0.5" stop-color="#373188"/>
<stop offset="1" stop-color="#FD0026"/>
</linearGradient>
<linearGradient id="paint2_linear_3679_25" x1="37.2741" y1="34.6989" x2="40.7244" y2="42.5339" gradientUnits="userSpaceOnUse">
<stop stop-color="#00A5E3"/>
<stop offset="0.5" stop-color="#373188"/>
<stop offset="1" stop-color="#FD0026"/>
</linearGradient>
<linearGradient id="paint3_linear_3679_25" x1="23.4948" y1="34.6989" x2="26.9451" y2="42.5339" gradientUnits="userSpaceOnUse">
<stop stop-color="#00A5E3"/>
<stop offset="0.5" stop-color="#373188"/>
<stop offset="1" stop-color="#FD0026"/>
</linearGradient>
<linearGradient id="paint4_linear_3679_25" x1="17.8845" y1="34.8552" x2="21.3347" y2="42.6902" gradientUnits="userSpaceOnUse">
<stop stop-color="#00A5E3"/>
<stop offset="0.5" stop-color="#373188"/>
<stop offset="1" stop-color="#FD0026"/>
</linearGradient>
<linearGradient id="paint5_linear_3679_25" x1="29.9714" y1="11.9111" x2="31.6775" y2="30.0431" gradientUnits="userSpaceOnUse">
<stop stop-color="#00A5E3"/>
<stop offset="0.5" stop-color="#373188"/>
<stop offset="1" stop-color="#FD0026"/>
</linearGradient>
<linearGradient id="paint6_linear_3679_25" x1="30.3853" y1="48.2437" x2="30.6972" y2="50.1561" gradientUnits="userSpaceOnUse">
<stop stop-color="#00A5E3"/>
<stop offset="0.5" stop-color="#373188"/>
<stop offset="1" stop-color="#FD0026"/>
</linearGradient>
<linearGradient id="paint7_linear_3679_25" x1="30.546" y1="25.3257" x2="30.8579" y2="27.2381" gradientUnits="userSpaceOnUse">
<stop stop-color="#00A5E3"/>
<stop offset="0.5" stop-color="#373188"/>
<stop offset="1" stop-color="#FD0026"/>
</linearGradient>
<linearGradient id="paint8_linear_3679_25" x1="16.6783" y1="48.2437" x2="16.9902" y2="50.1561" gradientUnits="userSpaceOnUse">
<stop stop-color="#00A5E3"/>
<stop offset="0.5" stop-color="#373188"/>
<stop offset="1" stop-color="#FD0026"/>
</linearGradient>
<linearGradient id="paint9_linear_3679_25" x1="22.2887" y1="48.2437" x2="22.6006" y2="50.1561" gradientUnits="userSpaceOnUse">
<stop stop-color="#00A5E3"/>
<stop offset="0.5" stop-color="#373188"/>
<stop offset="1" stop-color="#FD0026"/>
</linearGradient>
<linearGradient id="paint10_linear_3679_25" x1="38.4825" y1="48.2437" x2="38.7944" y2="50.1561" gradientUnits="userSpaceOnUse">
<stop stop-color="#00A5E3"/>
<stop offset="0.5" stop-color="#373188"/>
<stop offset="1" stop-color="#FD0026"/>
</linearGradient>
<linearGradient id="paint11_linear_3679_25" x1="44.1646" y1="48.2437" x2="44.4765" y2="50.1561" gradientUnits="userSpaceOnUse">
<stop stop-color="#00A5E3"/>
<stop offset="0.5" stop-color="#373188"/>
<stop offset="1" stop-color="#FD0026"/>
</linearGradient>
<linearGradient id="paint12_linear_3679_25" x1="30.5371" y1="16.9366" x2="30.7243" y2="20.6227" gradientUnits="userSpaceOnUse">
<stop stop-color="#00A5E3"/>
<stop offset="0.5" stop-color="#373188"/>
<stop offset="1" stop-color="#FD0026"/>
</linearGradient>
<linearGradient id="paint13_linear_3679_25" x1="30.6835" y1="21.2816" x2="30.848" y2="23.8696" gradientUnits="userSpaceOnUse">
<stop stop-color="#00A5E3"/>
<stop offset="0.5" stop-color="#373188"/>
<stop offset="1" stop-color="#FD0026"/>
</linearGradient>
</defs>
</svg>
