<svg width="64" height="64" viewBox="0 0 64 64" fill="none" xmlns="http://www.w3.org/2000/svg">
<path d="M36.5 25.5L27 25L21 39L25.5 46V52.5V56.5V60.5H38V46L42.5 38.5L36.5 25.5Z" fill="url(#paint0_linear_3661_194)"/>
<path d="M32.0005 15.7119C32.4072 15.7121 32.766 15.9304 32.9477 16.293L43.8921 38.2451C44.0774 38.6159 44.0462 39.0143 43.8149 39.3623L38.5767 46.8369L38.4321 47.0439V60.5117H36.3198V47.7764H27.6157V60.5762H25.5044V47.1074L25.3589 46.9014L20.1196 39.4268C19.8886 39.0789 19.8581 38.6802 20.0434 38.3096L31.0513 16.2939C31.2329 15.9306 31.5932 15.7119 32.0005 15.7119ZM22.4517 38.2354L22.2397 38.6631L26.9302 45.3242L27.1684 45.6641H36.8286L41.7622 38.7295L33.0561 21.2373V33.7598H30.9438V21.1738L22.4517 38.2354Z" fill="#08526D"/>
<path d="M36.2476 3.68799V7.27197H56.4644L56.7319 6.87842L56.7573 6.84033L56.7583 6.84131C57.1434 6.28513 57.7929 5.92822 58.5601 5.92822L58.7886 5.93896C59.9155 6.04889 60.7593 6.96576 60.7593 8.12842L60.7485 8.35693C60.6459 9.40904 59.8405 10.2143 58.7886 10.3169L58.5601 10.3276C57.7929 10.3276 57.1424 9.97073 56.7573 9.41455L56.7319 9.37744L56.4644 8.98389H42.8413L45.9507 10.8423L46.5649 11.2202C52.8629 15.2086 57.432 21.5911 58.9878 29.1294L58.9888 29.1304L59.1538 29.9282H62.936V38.4233H54.3765V29.9282H57.394L57.1011 28.6968C54.8358 19.0413 47.1785 11.5209 37.4614 9.39111L37.4604 9.39014L36.2476 9.12646V12.1841H27.7524V9.13623L26.5464 9.38916L26.5425 9.39014C16.8833 11.4554 9.16364 19.0435 6.89893 28.6968L6.60596 29.9282H9.62354V38.4233H1.06396V29.9282H4.84619L5.01123 29.1304L5.01221 29.1294C6.61808 21.3483 11.433 14.8027 18.103 10.9116L21.3042 9.04736H7.60889L7.31006 9.47217L7.30518 9.47803C6.9442 9.99944 6.35149 10.3458 5.64697 10.3872L5.50439 10.3911C4.26431 10.3911 3.3042 9.43124 3.3042 8.19189C3.30425 6.95256 4.26437 5.99268 5.50439 5.99268L5.64697 5.99658C6.35146 6.03798 6.94419 6.38436 7.30518 6.90576L7.31006 6.91162L7.60889 7.33643H27.7524V3.68799H36.2476ZM2.77588 31.6392V36.7769H7.84814V31.6392H2.77588ZM56.0874 31.6392V36.7769H61.1245V36.6763H61.1606V31.6392H56.0874ZM29.4634 5.3999V10.4722H34.5366V5.3999H29.4634Z" fill="#08526D"/>
<defs>
<linearGradient id="paint0_linear_3661_194" x1="34.1185" y1="83.7481" x2="27.7151" y2="36.1202" gradientUnits="userSpaceOnUse">
<stop stop-color="#32B9E9"/>
<stop offset="0.961538" stop-color="#32B9E9" stop-opacity="0"/>
</linearGradient>
</defs>
</svg>
