<svg width="80" height="80" viewBox="0 0 80 80" fill="none" xmlns="http://www.w3.org/2000/svg">
<g clip-path="url(#clip0_3679_4223)">
<path d="M26.9071 39.8143C34.0356 39.8143 39.8143 34.0356 39.8143 26.9071C39.8143 19.7787 34.0356 14 26.9071 14C19.7787 14 14 19.7787 14 26.9071C14 34.0356 19.7787 39.8143 26.9071 39.8143Z" fill="#ADE3F6"/>
<path d="M58.9426 29.8494C58.9426 29.1002 58.1491 28.6171 57.4836 28.9611L45.6478 35.0775C45.3156 35.2492 45.1069 35.5919 45.1069 35.9659V50.1503C45.1069 50.8995 45.9004 51.3827 46.566 51.0387L58.4017 44.9223C58.734 44.7506 58.9426 44.4079 58.9426 44.0339V29.8494Z" fill="url(#paint0_linear_3679_4223)"/>
<path d="M31.1782 29.8444C31.1782 29.0964 31.9694 28.6132 32.6349 28.9548L44.5635 35.0781C44.897 35.2494 45.1068 35.5928 45.1068 35.9678V50.1554C45.1068 50.9034 44.3156 51.3866 43.6501 51.045L31.7215 44.9217C31.388 44.7504 31.1782 44.407 31.1782 44.032V29.8444Z" stroke="#08526D" stroke-width="2" stroke-linecap="round" stroke-linejoin="round"/>
<path d="M58.9426 29.8494C58.9426 29.1002 58.1491 28.6171 57.4836 28.9611L45.6478 35.0775C45.3156 35.2492 45.1069 35.5919 45.1069 35.9659V50.1503C45.1069 50.8996 45.9004 51.3827 46.566 51.0387L58.4017 44.9223C58.734 44.7506 58.9426 44.4079 58.9426 44.0339V29.8494Z" stroke="#08526D" stroke-width="2" stroke-linecap="round" stroke-linejoin="round"/>
<path d="M45.569 21.2058C45.2794 21.0542 44.9339 21.0538 44.6439 21.2046L32.8954 27.3138C32.1751 27.6883 32.1778 28.7199 32.9001 29.0906L44.6486 35.1215C44.9361 35.2691 45.2772 35.2686 45.5644 35.1203L57.2345 29.0894C57.9536 28.7178 57.9563 27.6904 57.2392 27.3151L45.569 21.2058Z" stroke="#08526D" stroke-width="2" stroke-linecap="round" stroke-linejoin="round"/>
<path d="M51.2356 24.2139L37.9361 31.176C37.6065 31.3486 37.3999 31.6899 37.3999 32.062V36.471" stroke="#08526D" stroke-width="2" stroke-linecap="round" stroke-linejoin="round"/>
<path d="M45.107 65.0715C46.9532 65.0715 48.4499 63.5748 48.4499 61.7286C48.4499 59.8824 46.9532 58.3857 45.107 58.3857C43.2608 58.3857 41.7642 59.8824 41.7642 61.7286C41.7642 63.5748 43.2608 65.0715 45.107 65.0715Z" stroke="#08526D" stroke-width="2" stroke-linecap="round" stroke-linejoin="round"/>
<path d="M28.2999 65.0715C30.1461 65.0715 31.6427 63.5748 31.6427 61.7286C31.6427 59.8824 30.1461 58.3857 28.2999 58.3857C26.4537 58.3857 24.957 59.8824 24.957 61.7286C24.957 63.5748 26.4537 65.0715 28.2999 65.0715Z" stroke="#08526D" stroke-width="2" stroke-linecap="round" stroke-linejoin="round"/>
<path d="M61.8214 65.0715C63.6676 65.0715 65.1642 63.5748 65.1642 61.7286C65.1642 59.8824 63.6676 58.3857 61.8214 58.3857C59.9752 58.3857 58.4785 59.8824 58.4785 61.7286C58.4785 63.5748 59.9752 65.0715 61.8214 65.0715Z" stroke="#08526D" stroke-width="2" stroke-linecap="round" stroke-linejoin="round"/>
<path d="M31.6426 61.7285H41.764" stroke="#08526D" stroke-width="2" stroke-linecap="round" stroke-linejoin="round"/>
<path d="M48.3569 61.7285H58.4784" stroke="#08526D" stroke-width="2" stroke-linecap="round" stroke-linejoin="round"/>
</g>
<defs>
<linearGradient id="paint0_linear_3679_4223" x1="51.9993" y1="48.011" x2="51.9993" y2="36.4843" gradientUnits="userSpaceOnUse">
<stop stop-color="#ADE3F6"/>
<stop offset="1" stop-color="#ADE3F6" stop-opacity="0"/>
</linearGradient>
<clipPath id="clip0_3679_4223">
<rect width="52" height="52" fill="white" transform="translate(14 14)"/>
</clipPath>
</defs>
</svg>
