<svg width="64" height="64" viewBox="0 0 64 64" fill="none" xmlns="http://www.w3.org/2000/svg">
<path d="M49 15H6C3.79086 15 2 16.7909 2 19V48C2 50.2091 3.79086 52 6 52H49C51.2091 52 53 50.2091 53 48V19C53 16.7909 51.2091 15 49 15Z" fill="url(#paint0_linear_3661_3602)"/>
<path d="M23 36C23 34.3431 24.3431 33 26 33H62V39H26C24.3431 39 23 37.6569 23 36Z" fill="white"/>
<path d="M10.207 10.8608C10.6762 10.9095 11.0322 11.3142 11.0322 11.7759V13.7603C11.0324 14.3122 11.4799 14.7603 12.0322 14.7603H51.9678C52.483 14.7603 52.8877 15.1877 52.8877 15.6802V30.6558C52.8877 31.208 53.3357 31.6555 53.8877 31.6558H60.1602L60.4502 31.6704C61.8778 31.8168 62.9798 33.0307 62.9365 34.4653V34.4702C62.9363 34.4746 62.9356 34.4844 62.9355 34.4956V37.8237C62.9355 39.2363 61.8573 40.4405 60.4463 40.5854L60.1602 40.6001H53.8877C53.3357 40.6003 52.8877 41.0478 52.8877 41.6001V52.2241L52.8828 52.3188C52.8342 52.7881 52.4295 53.144 51.9678 53.144H8.32031C4.2646 53.144 1 49.8794 1 45.8237V19.9683C1 14.9525 5.09659 10.856 10.1123 10.856L10.207 10.8608ZM12.0322 16.5356C11.4799 16.5356 11.0325 16.9837 11.0322 17.5356V39.3599C11.0322 39.8426 10.6567 40.2283 10.2041 40.2749L10.1123 40.2798H8.32031C5.27209 40.2798 2.7765 42.7756 2.77637 45.8237C2.77637 48.872 5.27203 51.3677 8.32031 51.3677H50.1123L50.2148 51.3628C50.7188 51.3113 51.1123 50.8854 51.1123 50.3677V41.5356C51.1121 40.9837 50.6643 40.5359 50.1123 40.5356H26.624C26.4922 40.5356 26.3835 40.5183 26.2803 40.4751L26.1787 40.4224L26.1758 40.4204L20.1602 36.8364L20.1523 36.8325L20.1455 36.8286L20.0352 36.7573C19.8461 36.6121 19.7223 36.389 19.6943 36.1831L19.6885 36.0962C19.6885 35.8324 19.864 35.5207 20.1338 35.3706C20.1418 35.3662 20.1494 35.3613 20.1533 35.3589C20.1583 35.3559 20.1602 35.355 20.1602 35.355L26.167 31.7759L26.1699 31.7749L26.1787 31.77C26.315 31.6882 26.4492 31.6558 26.624 31.6558H50.1123L50.2148 31.6509C50.7188 31.5994 51.1123 31.1735 51.1123 30.6558V17.5356C51.1121 16.9837 50.6643 16.5359 50.1123 16.5356H12.0322ZM8.85352 13.1499C8.59953 12.9609 8.2701 12.9039 7.96777 12.9946C4.98363 13.8903 2.83984 16.7127 2.83984 19.9683V38.8481C2.83993 39.2149 3.04116 39.5522 3.36328 39.7271C3.68541 39.9017 4.07824 39.8869 4.38574 39.687C5.52024 38.9497 6.86858 38.5044 8.25586 38.5044C8.77356 38.5044 9.19945 38.1108 9.25098 37.6069L9.25586 37.5044V13.9517C9.25574 13.6363 9.10701 13.3387 8.85352 13.1499ZM27.0723 33.4321C26.9391 33.4321 26.806 33.4582 26.6826 33.5103L26.667 33.5181L26.5771 33.564L26.5635 33.5718L23.7471 35.2358C23.4431 35.4158 23.2559 35.7427 23.2559 36.0962C23.256 36.4495 23.4429 36.7766 23.7471 36.9565L26.5635 38.6206C26.7174 38.7116 26.8932 38.7603 27.0723 38.7603C27.0723 38.7603 47.3909 38.7603 60.4102 38.7603C60.703 38.7603 61.1602 38.7603 61.1602 38.7603V38.0581V34.4321C61.1602 33.8798 60.7123 33.4322 60.1602 33.4321H43.6162H27.0723Z" fill="#08526D"/>
<defs>
<linearGradient id="paint0_linear_3661_3602" x1="33.0644" y1="74.7481" x2="30.0087" y2="26.4526" gradientUnits="userSpaceOnUse">
<stop stop-color="#32B9E9"/>
<stop offset="0.961538" stop-color="#32B9E9" stop-opacity="0"/>
</linearGradient>
</defs>
</svg>
