<svg width="60" height="60" viewBox="0 0 60 60" fill="none" xmlns="http://www.w3.org/2000/svg">
<path opacity="0.9" d="M13.25 31.7725V37.2441C12.9334 37.2307 12.6253 37.175 12.3535 37.0791C11.8294 36.8941 11.609 36.6392 11.5547 36.499L11.5361 36.4492L11.5264 36.4316C11.5252 36.4185 11.5243 36.3983 11.5234 36.3672C11.5223 36.3254 11.5215 36.278 11.5215 36.21C11.5215 35.2341 11.6231 33.9624 11.5176 32.8047L11.5137 32.7539L11.5039 32.7051L11.502 32.6543C11.5088 32.5822 11.5571 32.4465 11.7861 32.2646C12.071 32.0384 12.552 31.8302 13.1855 31.7607C13.2082 31.7648 13.2296 31.7694 13.25 31.7725Z" stroke="url(#paint0_linear_3679_3453)" stroke-width="2"/>
<path opacity="0.9" d="M46.75 31.7549C47.0251 31.7701 47.2913 31.8179 47.5332 31.8926C48.023 32.0438 48.3267 32.2781 48.4648 32.4854L48.4854 32.5156L48.5 32.5332V36.4688C48.3087 36.7042 47.89 36.9941 47.209 37.1309C47.07 37.1476 46.9183 37.1591 46.75 37.1699V31.7549Z" stroke="url(#paint1_linear_3679_3453)" stroke-width="2"/>
<path opacity="0.9" d="M15.2578 26.6729L15.2559 26.6445C15.1418 24.5697 16.5607 22.9638 18.0439 22.834H18.4863L29.9756 22.7529H41.6855L41.708 22.752C42.9609 22.6978 44.2825 23.7608 44.6279 25.5146L44.6299 25.5225L44.6309 25.5303C44.6973 25.8416 44.748 26.162 44.748 26.376V43.1924C44.8056 45.0812 43.597 46.575 42.2607 46.7988L42.2021 46.8086L42.1445 46.8252C42.0321 46.8581 41.8402 46.8662 41.5264 46.8662H27.3379C26.6694 46.8663 26.0575 47.1224 25.5869 47.4531L25.5654 47.4678L25.5459 47.4834C23.5946 49.0077 21.7387 50.5026 19.8252 51.9385V48.7578C19.8252 48.3676 19.7716 47.855 19.4541 47.4297C19.0955 46.9494 18.5721 46.7937 18.1006 46.7861L18.1016 46.7852C16.6311 46.7293 15.1999 45.2104 15.2578 43.1084V26.6729Z" stroke="url(#paint2_linear_3679_3453)" stroke-width="2"/>
<path opacity="0.9" d="M30.6929 21.1124H29.3755V20.6964C29.3755 19.8644 29.3755 19.0324 29.3755 18.131C29.4449 17.923 29.2369 17.715 29.0289 17.6457C27.7809 17.299 26.8795 16.1897 26.8102 14.8724C26.6022 13.0697 27.9195 11.475 29.7222 11.267C30.4155 11.1977 31.1782 11.3364 31.8022 11.7524C32.9115 12.3764 33.4662 13.555 33.3275 14.803C33.2582 16.1204 32.3569 17.2297 31.1089 17.6457C30.8315 17.715 30.6929 17.923 30.6929 18.2004C30.6929 19.0324 30.6929 19.8644 30.6929 20.627V21.1124Z" fill="url(#paint3_linear_3679_3453)"/>
<path opacity="0.9" d="M37.1533 28.25C38.6798 28.25 39.9121 29.4823 39.9121 31.0088C39.912 32.5353 38.6798 33.7676 37.1533 33.7676C35.6087 33.7675 34.3373 32.5221 34.3945 31.0283V31.0088C34.3945 29.4823 35.6269 28.2501 37.1533 28.25Z" stroke="url(#paint4_linear_3679_3453)"/>
<path opacity="0.9" d="M22.9155 28.1992H22.9351C24.3724 28.1417 25.6742 29.3579 25.6743 30.958C25.6743 32.4845 24.442 33.7167 22.9155 33.7168C21.389 33.7168 20.1567 32.4845 20.1567 30.958C20.1569 29.4316 21.3891 28.1992 22.9155 28.1992Z" stroke="url(#paint5_linear_3679_3453)"/>
<path opacity="0.9" d="M24.3026 30.958C24.3026 31.7206 23.6786 32.3446 22.916 32.3446C22.1533 32.3446 21.5293 31.7206 21.5293 30.958C21.5293 30.1953 22.1533 29.5713 22.916 29.5713C23.6786 29.5713 24.3026 30.1953 24.3026 30.958Z" fill="url(#paint6_linear_3679_3453)"/>
<path opacity="0.9" d="M38.5404 30.958C38.5404 31.7206 37.9164 32.3446 37.1538 32.3446C36.3911 32.3446 35.7671 31.7206 35.7671 30.958C35.7671 30.1953 36.3911 29.5713 37.1538 29.5713C37.9164 29.5713 38.5404 30.1953 38.5404 30.958Z" fill="url(#paint7_linear_3679_3453)"/>
<path opacity="0.9" d="M30.0002 41.0554C28.8909 41.1247 27.8509 40.8474 26.9495 40.2234C26.6722 40.0154 26.3949 39.8074 26.1869 39.5301C25.9789 39.2527 26.0482 38.8367 26.3255 38.6287C26.6029 38.4207 26.9495 38.4207 27.1575 38.6981C28.0589 39.9461 30.6935 40.0154 31.9415 39.3914C32.2189 39.1834 32.4962 38.9754 32.7735 38.7674C32.9815 38.4901 33.3975 38.4207 33.7442 38.6287C34.0215 38.9061 34.0215 39.3221 33.7442 39.5994C32.9815 40.4314 31.8722 40.9861 30.6935 41.0554C30.4162 41.0554 30.2082 41.0554 30.0002 41.0554Z" fill="url(#paint8_linear_3679_3453)"/>
<defs>
<linearGradient id="paint0_linear_3679_3453" x1="12.3722" y1="31.4704" x2="14.1699" y2="36.9815" gradientUnits="userSpaceOnUse">
<stop stop-color="#00A5E3"/>
<stop offset="0.5" stop-color="#373188"/>
<stop offset="1" stop-color="#FD0026"/>
</linearGradient>
<linearGradient id="paint1_linear_3679_3453" x1="47.6222" y1="31.4704" x2="49.4199" y2="36.9815" gradientUnits="userSpaceOnUse">
<stop stop-color="#00A5E3"/>
<stop offset="0.5" stop-color="#373188"/>
<stop offset="1" stop-color="#FD0026"/>
</linearGradient>
<linearGradient id="paint2_linear_3679_3453" x1="29.9769" y1="24.7756" x2="34.0455" y2="49.7215" gradientUnits="userSpaceOnUse">
<stop stop-color="#00A5E3"/>
<stop offset="0.5" stop-color="#373188"/>
<stop offset="1" stop-color="#FD0026"/>
</linearGradient>
<linearGradient id="paint3_linear_3679_3453" x1="30.0637" y1="12.1973" x2="31.9183" y2="19.7606" gradientUnits="userSpaceOnUse">
<stop stop-color="#00A5E3"/>
<stop offset="0.5" stop-color="#373188"/>
<stop offset="1" stop-color="#FD0026"/>
</linearGradient>
<linearGradient id="paint4_linear_3679_3453" x1="37.1226" y1="28.376" x2="37.9581" y2="33.5394" gradientUnits="userSpaceOnUse">
<stop stop-color="#00A5E3"/>
<stop offset="0.5" stop-color="#373188"/>
<stop offset="1" stop-color="#FD0026"/>
</linearGradient>
<linearGradient id="paint5_linear_3679_3453" x1="22.9106" y1="28.3235" x2="23.753" y2="33.4866" gradientUnits="userSpaceOnUse">
<stop stop-color="#00A5E3"/>
<stop offset="0.5" stop-color="#373188"/>
<stop offset="1" stop-color="#FD0026"/>
</linearGradient>
<linearGradient id="paint6_linear_3679_3453" x1="22.9139" y1="29.8377" x2="23.2721" y2="32.034" gradientUnits="userSpaceOnUse">
<stop stop-color="#00A5E3"/>
<stop offset="0.5" stop-color="#373188"/>
<stop offset="1" stop-color="#FD0026"/>
</linearGradient>
<linearGradient id="paint7_linear_3679_3453" x1="37.1517" y1="29.8377" x2="37.5099" y2="32.034" gradientUnits="userSpaceOnUse">
<stop stop-color="#00A5E3"/>
<stop offset="0.5" stop-color="#373188"/>
<stop offset="1" stop-color="#FD0026"/>
</linearGradient>
<linearGradient id="paint8_linear_3679_3453" x1="30.0033" y1="38.7288" x2="30.1153" y2="40.8247" gradientUnits="userSpaceOnUse">
<stop stop-color="#00A5E3"/>
<stop offset="0.5" stop-color="#373188"/>
<stop offset="1" stop-color="#FD0026"/>
</linearGradient>
</defs>
</svg>
