<svg width="80" height="80" viewBox="0 0 80 80" fill="none" xmlns="http://www.w3.org/2000/svg">
<path d="M40.4635 32.5941C46.1504 32.5941 50.7606 27.9839 50.7606 22.297C50.7606 16.6101 46.1504 12 40.4635 12C34.7766 12 30.1665 16.6101 30.1665 22.297C30.1665 27.9839 34.7766 32.5941 40.4635 32.5941Z" fill="#ADE3F6"/>
<path d="M46.8475 57.9247H25.0178C23.7822 57.9247 22.8555 56.998 22.8555 55.7623V44.0237C22.8555 42.7881 23.7822 41.8613 25.0178 41.8613H46.7446C47.9802 41.8613 48.907 42.7881 48.907 44.0237V55.7623C49.0099 56.998 48.0832 57.9247 46.8475 57.9247Z" fill="#ADE3F6"/>
<path d="M26.3564 23.6211C32.7089 23.6211 37.9367 28.687 38.2012 34.9775H14.5117C14.7762 28.687 20.004 23.6211 26.3564 23.6211Z" fill="url(#paint0_linear_3694_4184)" stroke="#08526D"/>
<path d="M14 35.4775C14 28.6815 19.5604 23.1211 26.3564 23.1211C33.1525 23.1211 38.7129 28.6815 38.7129 35.4775H14Z" stroke="#08526D" stroke-width="2" stroke-miterlimit="10" stroke-linecap="round" stroke-linejoin="round"/>
<path d="M21.3113 29.2842C21.888 29.2844 22.3552 29.7523 22.3552 30.3291C22.355 30.9057 21.8879 31.3728 21.3113 31.373C20.7345 31.373 20.2666 30.9058 20.2664 30.3291C20.2664 29.7522 20.7344 29.2842 21.3113 29.2842Z" fill="#08526D" stroke="#08526D"/>
<path d="M31.4023 29.2842C31.9791 29.2844 32.4463 29.7523 32.4463 30.3291C32.4461 30.9057 31.9789 31.3728 31.4023 31.373C30.8256 31.373 30.3576 30.9058 30.3574 30.3291C30.3574 29.7522 30.8255 29.2842 31.4023 29.2842Z" fill="#08526D" stroke="#08526D"/>
<path d="M30.99 23.8414L33.9761 18.7959" stroke="#08526D" stroke-width="2" stroke-miterlimit="10" stroke-linecap="round" stroke-linejoin="round"/>
<path d="M18.8396 18.7959L21.8257 23.8414" stroke="#08526D" stroke-width="2" stroke-miterlimit="10" stroke-linecap="round" stroke-linejoin="round"/>
<path d="M54.2614 42.6846L53.2317 42.7876L53.1287 41.7579C52.9227 38.6688 55.2911 35.9915 58.3802 35.7856L59.4099 35.6826L59.5128 36.7123C59.7188 39.8014 57.3505 42.4787 54.2614 42.6846Z" stroke="#08526D" stroke-width="2" stroke-miterlimit="10" stroke-linecap="round" stroke-linejoin="round"/>
<path d="M61.2631 52.7762C61.2631 50.7168 62.2928 48.8633 63.9403 47.7306C63.2195 46.8039 62.3957 45.9801 61.469 45.2593C60.4393 44.5385 59.1007 44.2296 57.968 44.6415C56.7324 45.0534 55.1878 45.2593 53.6433 45.2593C52.2017 45.2593 50.8631 45.0534 49.7304 44.7445C48.4948 44.4356 47.1561 44.6415 46.1264 45.4653C43.4492 47.5247 41.5957 50.7168 41.2868 54.2178C40.772 59.7781 43.9641 64.6178 48.5977 66.7801C49.4215 67.192 50.4512 67.089 51.275 66.6772C52.0987 66.2653 52.9225 66.0593 53.8492 66.0593C54.7759 66.0593 55.7027 66.2653 56.4235 66.6772C57.2472 67.089 58.174 67.192 59.1007 66.7801C62.3957 65.2356 64.97 62.2494 65.9997 58.6455C63.3225 58.0276 61.2631 55.6593 61.2631 52.7762Z" fill="url(#paint1_linear_3694_4184)"/>
<path d="M61.2631 52.7762C61.2631 50.7168 62.2928 48.8633 63.9403 47.7306C63.2195 46.8039 62.3957 45.9801 61.469 45.2593C60.4393 44.5385 59.1007 44.2296 57.968 44.6415C56.7324 45.0534 55.1878 45.2593 53.6433 45.2593C52.2017 45.2593 50.8631 45.0534 49.7304 44.7445C48.4948 44.4356 47.1561 44.6415 46.1264 45.4653C43.4492 47.5247 41.5957 50.7168 41.2868 54.2178C40.772 59.7781 43.9641 64.6178 48.5977 66.7801C49.4215 67.192 50.4512 67.089 51.275 66.6772C52.0987 66.2653 52.9225 66.0593 53.8492 66.0593C54.7759 66.0593 55.7027 66.2653 56.4235 66.6772C57.2472 67.089 58.174 67.192 59.1007 66.7801C62.3957 65.2356 64.97 62.2494 65.9997 58.6455C63.3225 58.0277 61.2631 55.6593 61.2631 52.7762Z" stroke="#08526D" stroke-width="2" stroke-miterlimit="10" stroke-linecap="round" stroke-linejoin="round"/>
<path d="M46.6414 35.0654L32.2256 49.4813" stroke="#08526D" stroke-width="2" stroke-miterlimit="10" stroke-linecap="round" stroke-linejoin="round"/>
<defs>
<linearGradient id="paint0_linear_3694_4184" x1="26.3932" y1="35.5223" x2="26.3932" y2="23.1659" gradientUnits="userSpaceOnUse">
<stop stop-color="#ADE3F6"/>
<stop offset="0.4" stop-color="#ADE3F6" stop-opacity="0"/>
</linearGradient>
<linearGradient id="paint1_linear_3694_4184" x1="53.7095" y1="67.0044" x2="53.7095" y2="44.4712" gradientUnits="userSpaceOnUse">
<stop stop-color="#ADE3F6"/>
<stop offset="0.4" stop-color="#ADE3F6" stop-opacity="0"/>
</linearGradient>
</defs>
</svg>
