<svg width="80" height="80" viewBox="0 0 80 80" fill="none" xmlns="http://www.w3.org/2000/svg">
<path d="M28 54.7922V23.2078C28 21.3571 29.5158 20 31.2842 20H48.7158C50.6105 20 52 21.4805 52 23.2078V54.7922C52 56.6429 50.4842 58 48.7158 58H31.2842C29.5158 57.8766 28 56.5195 28 54.7922Z" fill="#ADE3F6"/>
<path d="M40.4546 30.2434C40.4546 23.2184 46.2023 17.4707 53.2273 17.4707C60.2522 17.4707 65.9999 23.2184 65.9999 30.2434H40.4546Z" fill="url(#paint0_linear_3694_4204)"/>
<path d="M40.4546 30.2434C40.4546 23.2184 46.2023 17.4707 53.2273 17.4707C60.2522 17.4707 65.9999 23.2184 65.9999 30.2434H40.4546Z" stroke="#08526D" stroke-width="2" stroke-miterlimit="10" stroke-linecap="round" stroke-linejoin="round"/>
<path d="M48.0121 26.5174C48.8939 26.5174 49.6087 25.8026 49.6087 24.9208C49.6087 24.039 48.8939 23.3242 48.0121 23.3242C47.1303 23.3242 46.4155 24.039 46.4155 24.9208C46.4155 25.8026 47.1303 26.5174 48.0121 26.5174Z" fill="#08526D"/>
<path d="M58.4428 26.5174C59.3245 26.5174 60.0394 25.8026 60.0394 24.9208C60.0394 24.039 59.3245 23.3242 58.4428 23.3242C57.561 23.3242 56.8462 24.039 56.8462 24.9208C56.8462 25.8026 57.561 26.5174 58.4428 26.5174Z" fill="#08526D"/>
<path d="M58.0171 18.2155L61.1038 13" stroke="#08526D" stroke-width="2" stroke-miterlimit="10" stroke-linecap="round" stroke-linejoin="round"/>
<path d="M45.3511 13L48.4378 18.2155" stroke="#08526D" stroke-width="2" stroke-miterlimit="10" stroke-linecap="round" stroke-linejoin="round"/>
<path d="M26.2982 42.5904C25.9788 38.865 28.8527 35.5654 32.6845 35.3525C32.7909 39.1843 30.0235 42.3775 26.2982 42.5904Z" stroke="#08526D" stroke-width="2" stroke-miterlimit="10" stroke-linecap="round" stroke-linejoin="round"/>
<path d="M34.4941 52.7026C34.4941 50.4674 35.5585 48.5515 37.3679 47.4871C36.6229 46.5291 35.7714 45.6776 34.8134 44.9326C33.8555 44.0811 32.4717 43.8682 31.1945 44.2939C29.9172 44.6132 28.3206 44.9326 26.724 44.9326C25.2339 44.9326 23.8502 44.7197 22.5729 44.4004C21.2957 44.0811 19.912 44.1875 18.954 45.039C16.1866 47.2742 14.2707 50.4674 14.0578 54.1927C13.5256 59.9404 16.7188 64.9431 21.5085 67.1783C22.4665 67.4976 23.4244 67.4976 24.276 67.0719C25.1275 66.7525 25.979 66.4332 26.9369 66.4332C27.8949 66.4332 28.8528 66.6461 29.7043 67.0719C30.5558 67.4976 31.5138 67.4976 32.4718 67.1783C35.9842 65.5817 38.5388 62.495 39.6032 58.7696C36.5164 58.2374 34.4941 55.6829 34.4941 52.7026Z" fill="url(#paint1_linear_3694_4204)"/>
<path d="M34.4941 52.7026C34.4941 50.4674 35.5585 48.5515 37.3679 47.4871C36.6229 46.5291 35.7714 45.6776 34.8134 44.9326C33.8555 44.0811 32.4717 43.8682 31.1945 44.2939C29.9172 44.6132 28.3206 44.9326 26.724 44.9326C25.2339 44.9326 23.8502 44.7197 22.5729 44.4004C21.2957 44.0811 19.912 44.1875 18.954 45.039C16.1866 47.2742 14.2707 50.4674 14.0578 54.1927C13.5256 59.9404 16.7188 64.9431 21.5085 67.1783C22.4665 67.4976 23.4244 67.4976 24.276 67.0719C25.1275 66.7525 25.979 66.4332 26.9369 66.4332C27.8949 66.4332 28.8528 66.6461 29.7043 67.0719C30.5558 67.4976 31.5138 67.4976 32.4717 67.1783C35.9842 65.5817 38.5388 62.495 39.6032 58.7696C36.5164 58.2374 34.4941 55.6829 34.4941 52.7026Z" stroke="#08526D" stroke-width="2" stroke-miterlimit="10" stroke-linecap="round" stroke-linejoin="round"/>
<defs>
<linearGradient id="paint0_linear_3694_4204" x1="53.2273" y1="17.4991" x2="53.2273" y2="30.2718" gradientUnits="userSpaceOnUse">
<stop stop-color="#ADE3F6"/>
<stop offset="0.4" stop-color="#ADE3F6" stop-opacity="0"/>
</linearGradient>
<linearGradient id="paint1_linear_3694_4204" x1="26.6988" y1="67.3912" x2="26.6988" y2="44.1392" gradientUnits="userSpaceOnUse">
<stop stop-color="#ADE3F6"/>
<stop offset="0.4" stop-color="#ADE3F6" stop-opacity="0"/>
</linearGradient>
</defs>
</svg>
