<svg width="80" height="80" viewBox="0 0 80 80" fill="none" xmlns="http://www.w3.org/2000/svg">
<path d="M52.9282 42C62.0409 42 69.4282 34.6127 69.4282 25.5C69.4282 16.3873 62.0409 9 52.9282 9C43.8155 9 36.4282 16.3873 36.4282 25.5C36.4282 34.6127 43.8155 42 52.9282 42Z" fill="#ADE3F6"/>
<path d="M46.4957 37.1774V51.0817H39.8261C38.4696 51.0817 37.3391 52.2121 37.3391 53.4556V58.2034H11V37.1774C11 36.0469 11.9043 35.1426 13.0348 35.1426H44.4609C45.5913 35.1426 46.4957 36.0469 46.4957 37.1774Z" fill="url(#paint0_linear_3694_3888)"/>
<path d="M61.0781 41.8594C61.9526 41.8594 62.4999 42.4466 62.5 43.168V68.2637C62.5 69.0244 61.9134 69.6855 61.0781 69.6855H48.5967C49.0744 69.1549 49.3701 68.4576 49.3701 67.6982V53.4551C49.3701 51.9686 48.2622 50.8449 46.8828 50.623V41.8594H61.0781Z" fill="url(#paint1_linear_3694_3888)" stroke="#08526D"/>
<path d="M46.7217 41.3594H60.513C61.8695 41.3594 62.8869 42.4898 62.8869 43.7333V67.6985C62.8869 69.055 61.7565 70.0724 60.513 70.0724H46.9478" stroke="#08526D" stroke-width="2" stroke-miterlimit="10" stroke-linecap="round" stroke-linejoin="round"/>
<path d="M36.887 64.3078H13.3739C12.0174 64.3078 11 63.1774 11 61.9339V37.5165C11 36.273 12.1304 35.1426 13.3739 35.1426H44.0087C45.0261 35.1426 46.0435 35.8208 46.2696 36.8382C46.3826 37.0643 46.3826 37.2904 46.3826 37.6295V50.8556" stroke="#08526D" stroke-width="2" stroke-miterlimit="10" stroke-linecap="round" stroke-linejoin="round"/>
<path d="M34.5129 70.1855H22.0781" stroke="#08526D" stroke-width="2" stroke-miterlimit="10" stroke-linecap="round" stroke-linejoin="round"/>
<path d="M30.7823 64.3076H25.5823L24.3389 70.1859H31.9128L30.7823 64.3076Z" stroke="#08526D" stroke-width="2" stroke-miterlimit="10" stroke-linecap="round" stroke-linejoin="round"/>
<path d="M36.8866 58.2031H12.4692" stroke="#08526D" stroke-width="2" stroke-miterlimit="10" stroke-linecap="round" stroke-linejoin="round"/>
<path d="M28.1829 62.612C28.8697 62.612 29.4264 62.0552 29.4264 61.3685C29.4264 60.6817 28.8697 60.125 28.1829 60.125C27.4962 60.125 26.9395 60.6817 26.9395 61.3685C26.9395 62.0552 27.4962 62.612 28.1829 62.612Z" fill="#08526D"/>
<path d="M52.826 68.4909C53.5128 68.4909 54.0695 67.9341 54.0695 67.2474C54.0695 66.5606 53.5128 66.0039 52.826 66.0039C52.1392 66.0039 51.5825 66.5606 51.5825 67.2474C51.5825 67.9341 52.1392 68.4909 52.826 68.4909Z" fill="#08526D"/>
<path d="M48.8695 53.4559V67.6994C48.8695 69.0559 47.7391 70.0733 46.4956 70.0733H39.8261C38.4695 70.0733 37.4521 68.9429 37.4521 67.6994V53.4559C37.4521 52.0994 38.5826 51.082 39.8261 51.082H46.4956C47.7391 51.082 48.8695 52.0994 48.8695 53.4559Z" fill="url(#paint2_linear_3694_3888)"/>
<path d="M48.8696 53.4559V67.6994C48.8696 69.0559 47.7391 70.1864 46.3826 70.1864H39.713C38.3565 70.1864 37.2261 69.0559 37.2261 67.6994V53.4559C37.2261 52.0994 38.3565 51.082 39.713 51.082H46.3826C47.7391 51.082 48.8696 52.0994 48.8696 53.4559Z" stroke="#08526D" stroke-width="2" stroke-miterlimit="10" stroke-linecap="round" stroke-linejoin="round"/>
<path d="M43.1043 68.4909C43.7911 68.4909 44.3478 67.9341 44.3478 67.2474C44.3478 66.5606 43.7911 66.0039 43.1043 66.0039C42.4176 66.0039 41.8608 66.5606 41.8608 67.2474C41.8608 67.9341 42.4176 68.4909 43.1043 68.4909Z" fill="#08526D"/>
<path d="M52.4999 32.3555C52.1495 32.0051 51.5654 31.7715 50.9814 31.7715C50.3974 31.7715 49.9301 32.0051 49.4629 32.3555" stroke="#08526D" stroke-width="2" stroke-linecap="round" stroke-linejoin="round"/>
<path d="M56.1211 28.6176C54.8362 27.4495 53.0841 26.6318 51.0984 26.6318C49.1127 26.6318 47.3606 27.3327 46.0757 28.6176" stroke="#08526D" stroke-width="2" stroke-linecap="round" stroke-linejoin="round"/>
<path d="M59.6252 24.8806C57.4058 22.778 54.3688 21.4932 51.0982 21.4932C47.8276 21.4932 44.7906 22.778 42.5713 24.8806" stroke="#08526D" stroke-width="2" stroke-linecap="round" stroke-linejoin="round"/>
<path d="M59.6253 31.0709C58.8077 31.0709 58.1068 30.8373 57.5228 30.3701C56.9387 30.8373 56.1211 31.0709 55.4202 31.0709C54.4858 31.0709 53.5513 30.7205 52.9673 30.0197C52.3832 29.3188 51.916 28.5012 51.916 27.5667C51.916 26.7491 52.1496 26.0482 52.6169 25.4642C52.1496 24.8801 51.916 24.1793 51.916 23.3616C51.916 22.4272 52.2664 21.4927 52.9673 20.9087C53.6681 20.3247 54.4858 19.8574 55.4202 19.8574C56.2379 19.8574 56.9387 20.091 57.5228 20.5583C58.1068 20.091 58.8077 19.8574 59.6253 19.8574C60.5598 19.8574 61.4942 20.2078 62.0783 20.9087C62.6623 21.6095 63.1295 22.4272 63.1295 23.3616C63.1295 24.1793 62.8959 24.8801 62.4287 25.4642C62.8959 26.0482 63.1295 26.7491 63.1295 27.5667C63.1295 28.5012 62.7791 29.4356 62.0783 30.0197C61.3774 30.6037 60.5598 31.0709 59.6253 31.0709Z" fill="#ADE3F6"/>
<path d="M59.1579 25.464L60.4427 24.1791C60.91 23.7119 60.91 23.011 60.4427 22.5438C59.9755 22.0766 59.2747 22.0766 58.8074 22.5438L57.5226 23.8287L56.2377 22.5438C55.7705 22.0766 55.0696 22.0766 54.6024 22.5438C54.1351 23.011 54.1351 23.7119 54.6024 24.1791L55.8873 25.464L54.6024 26.7488C54.1351 27.2161 54.1351 27.9169 54.6024 28.3842C54.836 28.6178 55.1864 28.7346 55.42 28.7346C55.6536 28.7346 56.0041 28.6178 56.2377 28.3842L57.5226 27.0993L58.8074 28.3842C59.0411 28.6178 59.3915 28.7346 59.6251 28.7346C59.8587 28.7346 60.2091 28.6178 60.4427 28.3842C60.91 27.9169 60.91 27.2161 60.4427 26.7488L59.1579 25.464Z" fill="#08526D"/>
<defs>
<linearGradient id="paint0_linear_3694_3888" x1="28.7478" y1="58.26" x2="28.7478" y2="35.1426" gradientUnits="userSpaceOnUse">
<stop stop-color="#ADE3F6"/>
<stop offset="0.4313" stop-color="#ADE3F6" stop-opacity="0.964706"/>
</linearGradient>
<linearGradient id="paint1_linear_3694_3888" x1="54.6915" y1="70.1855" x2="54.6915" y2="41.3255" gradientUnits="userSpaceOnUse">
<stop stop-color="#ADE3F6"/>
<stop offset="0.4313" stop-color="#ADE3F6" stop-opacity="0"/>
</linearGradient>
<linearGradient id="paint2_linear_3694_3888" x1="43.1608" y1="70.1864" x2="43.1608" y2="51.0496" gradientUnits="userSpaceOnUse">
<stop stop-color="#ADE3F6"/>
<stop offset="0.4313" stop-color="#ADE3F6" stop-opacity="0"/>
</linearGradient>
</defs>
</svg>
