<svg width="80" height="80" viewBox="0 0 80 80" fill="none" xmlns="http://www.w3.org/2000/svg">
<path d="M58.2144 45C67.3271 45 74.7144 37.6127 74.7144 28.5C74.7144 19.3873 67.3271 12 58.2144 12C49.1017 12 41.7144 19.3873 41.7144 28.5C41.7144 37.6127 49.1017 45 58.2144 45Z" fill="#ADE3F6"/>
<path d="M41.4954 34.2843V48.1888H34.8256C33.469 48.1888 32.3384 49.3194 32.3384 50.563V55.3105H6V34.2843C6 33.1537 6.90471 32.25 8.03432 32.25H39.46C40.5907 32.25 41.4954 33.1547 41.4954 34.2843Z" fill="url(#paint0_linear_3694_974)"/>
<path d="M56.0786 38.9668C56.9527 38.9669 57.4995 39.5552 57.4995 40.2764V65.3721C57.4995 66.1328 56.9131 66.7929 56.0786 66.793H43.5972C44.0747 66.2624 44.3705 65.5658 44.3706 64.8066V50.5625C44.3704 49.0762 43.2626 47.9523 41.8833 47.7305V38.9668H56.0786Z" fill="url(#paint1_linear_3694_974)" stroke="#08526D"/>
<path d="M41.7214 38.4668H55.5129C56.8695 38.4668 57.8872 39.5974 57.8872 40.841V64.8062C57.8872 66.1627 56.7565 67.1804 55.5129 67.1804H41.9474" stroke="#08526D" stroke-width="2" stroke-linecap="round" stroke-linejoin="round"/>
<path d="M31.8865 61.4155H8.37423C7.01767 61.4155 6 60.2848 6 59.0412V34.6242C6 33.3806 7.13064 32.25 8.37423 32.25H39.0092C40.0269 32.25 41.0435 32.9278 41.2705 33.9454C41.3835 34.1714 41.3835 34.3973 41.3835 34.7372V47.9629" stroke="#08526D" stroke-width="2" stroke-linecap="round" stroke-linejoin="round"/>
<path d="M29.5136 67.2939H17.0786" stroke="#08526D" stroke-width="2" stroke-linecap="round" stroke-linejoin="round"/>
<path d="M25.7825 61.415H20.5822L19.3396 67.2931H26.9131L25.7825 61.415Z" stroke="#08526D" stroke-width="2" stroke-linecap="round" stroke-linejoin="round"/>
<path d="M31.8867 55.3105H7.46973" stroke="#08526D" stroke-width="2" stroke-linecap="round" stroke-linejoin="round"/>
<path d="M23.1823 59.7206C23.8691 59.7206 24.4259 59.1638 24.4259 58.477C24.4259 57.7902 23.8691 57.2334 23.1823 57.2334C22.4955 57.2334 21.9387 57.7902 21.9387 58.477C21.9387 59.1638 22.4955 59.7206 23.1823 59.7206Z" fill="#08526D"/>
<path d="M47.8261 65.5985C48.5129 65.5985 49.0697 65.0417 49.0697 64.3549C49.0697 63.6681 48.5129 63.1113 47.8261 63.1113C47.1393 63.1113 46.5825 63.6681 46.5825 64.3549C46.5825 65.0417 47.1393 65.5985 47.8261 65.5985Z" fill="#08526D"/>
<path d="M43.8695 50.5627V64.806C43.8695 66.1626 42.7388 67.1803 41.4952 67.1803H34.8254C33.4688 67.1803 32.4512 66.0496 32.4512 64.806V50.5627C32.4512 49.2062 33.5818 48.1885 34.8254 48.1885H41.4952C42.7388 48.1885 43.8695 49.2062 43.8695 50.5627Z" fill="url(#paint2_linear_3694_974)"/>
<path d="M43.8696 50.5627V64.806C43.8696 66.1626 42.7389 67.2932 41.3824 67.2932H34.7125C33.356 67.2932 32.2253 66.1626 32.2253 64.806V50.5627C32.2253 49.2062 33.356 48.1885 34.7125 48.1885H41.3824C42.7389 48.1885 43.8696 49.2062 43.8696 50.5627Z" stroke="#08526D" stroke-width="2" stroke-linecap="round" stroke-linejoin="round"/>
<path d="M38.1044 65.5975C38.7913 65.5975 39.348 65.0408 39.348 64.354C39.348 63.6671 38.7913 63.1104 38.1044 63.1104C37.4176 63.1104 36.8608 63.6671 36.8608 64.354C36.8608 65.0408 37.4176 65.5975 38.1044 65.5975Z" fill="#08526D"/>
<path d="M61.5106 33.2153V22.1895M61.5106 22.1895L59.2778 24.0495M61.5106 22.1895L63.7433 24.0495" stroke="#08526D" stroke-width="2" stroke-linecap="round" stroke-linejoin="round"/>
<path d="M54.8951 22.1895V33.2153M54.8951 33.2153L57.1278 31.3552M54.8951 33.2153L52.6624 31.3552" stroke="#08526D" stroke-width="2" stroke-linecap="round" stroke-linejoin="round"/>
<defs>
<linearGradient id="paint0_linear_3694_974" x1="23.7482" y1="55.3669" x2="23.7482" y2="32.25" gradientUnits="userSpaceOnUse">
<stop stop-color="#ADE3F6"/>
<stop offset="0.4" stop-color="#ADE3F6" stop-opacity="0"/>
</linearGradient>
<linearGradient id="paint1_linear_3694_974" x1="49.6911" y1="67.2934" x2="49.6911" y2="38.4329" gradientUnits="userSpaceOnUse">
<stop stop-color="#ADE3F6"/>
<stop offset="0.4" stop-color="#ADE3F6" stop-opacity="0"/>
</linearGradient>
<linearGradient id="paint2_linear_3694_974" x1="38.1608" y1="67.2932" x2="38.1608" y2="48.1566" gradientUnits="userSpaceOnUse">
<stop stop-color="#ADE3F6"/>
<stop offset="0.4" stop-color="#ADE3F6" stop-opacity="0"/>
</linearGradient>
</defs>
</svg>
