<svg width="36" height="29" viewBox="0 0 36 29" fill="none" xmlns="http://www.w3.org/2000/svg">
<path d="M1.42326 29V26.8293C4.29767 25.7295 6.55814 24.0075 8.20465 21.6632C9.85116 19.2899 10.6744 16.8298 10.6744 14.2829C10.6744 13.733 10.5907 13.3278 10.4233 13.0674C10.3395 12.8937 10.2279 12.8069 10.0884 12.8069C9.94884 12.8069 9.72558 12.9227 9.4186 13.1542C8.52558 13.8199 7.4093 14.1527 6.06977 14.1527C4.45116 14.1527 3.02791 13.487 1.8 12.1557C0.6 10.7954 0 9.18912 0 7.33683C0 5.36876 0.697674 3.66118 2.09302 2.21407C3.48837 0.738024 5.20465 0 7.24186 0C9.55814 0 11.5674 0.998503 13.2698 2.99551C15 4.96357 15.8651 7.62625 15.8651 10.9835C15.8651 14.8907 14.707 18.3927 12.3907 21.4895C10.0744 24.5863 6.4186 27.0898 1.42326 29ZM21.5581 29V26.8293C24.4326 25.7295 26.693 24.0075 28.3395 21.6632C29.986 19.2899 30.8093 16.8298 30.8093 14.2829C30.8093 13.733 30.7256 13.3278 30.5581 13.0674C30.4744 12.8937 30.3628 12.8069 30.2233 12.8069C30.0837 12.8069 29.8605 12.9227 29.5535 13.1542C28.6605 13.8199 27.5442 14.1527 26.2047 14.1527C24.586 14.1527 23.1628 13.487 21.9349 12.1557C20.7349 10.7954 20.1349 9.18912 20.1349 7.33683C20.1349 5.36876 20.8326 3.66118 22.2279 2.21407C23.6233 0.738024 25.3395 0 27.3767 0C29.693 0 31.7023 0.998503 33.4047 2.99551C35.1349 4.96357 36 7.62625 36 10.9835C36 14.8907 34.8419 18.3927 32.5256 21.4895C30.2093 24.5863 26.5535 27.0898 21.5581 29Z" fill="#E5E5E5"/>
</svg>
