<svg width="1185" height="438" viewBox="0 0 1185 438" fill="none" xmlns="http://www.w3.org/2000/svg">
<path opacity="0.5" d="M6 278.265V164.337C6 84.5316 70.6949 19.8368 150.5 19.8368H1016.76C1104.7 19.8368 1176 91.1331 1176 179.082V179.082C1176 267.03 1104.7 338.327 1016.76 338.327H247.404" stroke="#007FFF" stroke-width="2" stroke-dasharray="4 4"/>
<path d="M6 336.299C3.05448 336.299 0.666664 338.687 0.666664 341.633C0.666664 344.578 3.05448 346.966 6 346.966C8.94552 346.966 11.3333 344.578 11.3333 341.633C11.3333 338.687 8.94552 336.299 6 336.299ZM6 275.51L5 275.51L5 277.577L6 277.577L7 277.577L7 275.51L6 275.51ZM6 281.709L5 281.709L5 285.842L6 285.842L7 285.842L7 281.709L6 281.709ZM6 289.975L5 289.975L5 294.107L6 294.107L7 294.107L7 289.975L6 289.975ZM6 298.24L5 298.24L5 302.372L6 302.372L7 302.372L7 298.24L6 298.24ZM6 306.505L5 306.505L5 310.638L6 310.638L7 310.638L7 306.505L6 306.505ZM6 314.77L5 314.77L5 318.903L6 318.903L7 318.903L7 314.77L6 314.77ZM6 323.036L5 323.036L5 327.168L6 327.168L7 327.168L7 323.036L6 323.036ZM6 331.301L5 331.301L5 335.434L6 335.434L7 335.434L7 331.301L6 331.301ZM6 339.566L5 339.566L5 341.633L6 341.633L7 341.633L7 339.566L6 339.566Z" fill="#007FFF"/>
<path d="M267.738 426.667C264.793 426.667 262.405 429.054 262.405 432C262.405 434.945 264.793 437.333 267.738 437.333C270.684 437.333 273.071 434.945 273.071 432C273.071 429.054 270.684 426.667 267.738 426.667ZM267.738 365.877L266.738 365.877L266.738 367.944L267.738 367.944L268.738 367.944L268.738 365.877L267.738 365.877ZM267.738 372.076L266.738 372.076L266.738 376.209L267.738 376.209L268.738 376.209L268.738 372.076L267.738 372.076ZM267.738 380.342L266.738 380.342L266.738 384.474L267.738 384.474L268.738 384.474L268.738 380.342L267.738 380.342ZM267.738 388.607L266.738 388.607L266.738 392.74L267.738 392.74L268.738 392.74L268.738 388.607L267.738 388.607ZM267.738 396.872L266.738 396.872L266.738 401.005L267.738 401.005L268.738 401.005L268.738 396.872L267.738 396.872ZM267.738 405.138L266.738 405.138L266.738 409.27L267.738 409.27L268.738 409.27L268.738 405.138L267.738 405.138ZM267.738 413.403L266.738 413.403L266.738 417.536L267.738 417.536L268.738 417.536L268.738 413.403L267.738 413.403ZM267.738 421.668L266.738 421.668L266.738 425.801L267.738 425.801L268.738 425.801L268.738 421.668L267.738 421.668ZM267.738 429.934L266.738 429.934L266.738 432L267.738 432L268.738 432L268.738 429.934L267.738 429.934Z" fill="#007FFF"/>
<path d="M573.273 425.565C570.327 425.565 567.939 427.952 567.939 430.898C567.939 433.843 570.327 436.231 573.273 436.231C576.218 436.231 578.606 433.843 578.606 430.898C578.606 427.952 576.218 425.565 573.273 425.565ZM573.273 364.775L572.273 364.775L572.273 366.842L573.273 366.842L574.273 366.842L574.273 364.775L573.273 364.775ZM573.273 370.974L572.273 370.974L572.273 375.107L573.273 375.107L574.273 375.107L574.273 370.974L573.273 370.974ZM573.273 379.24L572.273 379.24L572.273 383.372L573.273 383.372L574.273 383.372L574.273 379.24L573.273 379.24ZM573.273 387.505L572.273 387.505L572.273 391.638L573.273 391.638L574.273 391.638L574.273 387.505L573.273 387.505ZM573.273 395.77L572.273 395.77L572.273 399.903L573.273 399.903L574.273 399.903L574.273 395.77L573.273 395.77ZM573.273 404.036L572.273 404.036L572.273 408.168L573.273 408.168L574.273 408.168L574.273 404.036L573.273 404.036ZM573.273 412.301L572.273 412.301L572.273 416.434L573.273 416.434L574.273 416.434L574.273 412.301L573.273 412.301ZM573.273 420.566L572.273 420.566L572.273 424.699L573.273 424.699L574.273 424.699L574.273 420.566L573.273 420.566ZM573.273 428.832L572.273 428.832L572.273 430.898L573.273 430.898L574.273 430.898L574.273 428.832L573.273 428.832Z" fill="#007FFF"/>
<path d="M879.85 425.565C876.905 425.565 874.517 427.952 874.517 430.898C874.517 433.843 876.905 436.231 879.85 436.231C882.796 436.231 885.184 433.843 885.184 430.898C885.184 427.952 882.796 425.565 879.85 425.565ZM879.85 364.775L878.85 364.775L878.85 366.842L879.85 366.842L880.85 366.842L880.85 364.775L879.85 364.775ZM879.85 370.974L878.85 370.974L878.85 375.107L879.85 375.107L880.85 375.107L880.85 370.974L879.85 370.974ZM879.85 379.24L878.85 379.24L878.85 383.372L879.85 383.372L880.85 383.372L880.85 379.24L879.85 379.24ZM879.85 387.505L878.85 387.505L878.85 391.638L879.85 391.638L880.85 391.638L880.85 387.505L879.85 387.505ZM879.85 395.77L878.85 395.77L878.85 399.903L879.85 399.903L880.85 399.903L880.85 395.77L879.85 395.77ZM879.85 404.036L878.85 404.036L878.85 408.168L879.85 408.168L880.85 408.168L880.85 404.036L879.85 404.036ZM879.85 412.301L878.85 412.301L878.85 416.434L879.85 416.434L880.85 416.434L880.85 412.301L879.85 412.301ZM879.85 420.566L878.85 420.566L878.85 424.699L879.85 424.699L880.85 424.699L880.85 420.566L879.85 420.566ZM879.85 428.832L878.85 428.832L878.85 430.898L879.85 430.898L880.85 430.898L880.85 428.832L879.85 428.832Z" fill="#007FFF"/>
<path d="M878.808 109.279C875.862 109.279 873.474 111.667 873.474 114.612C873.474 117.558 875.862 119.946 878.808 119.946C881.753 119.946 884.141 117.558 884.141 114.612C884.141 111.667 881.753 109.279 878.808 109.279ZM878.808 48.4897L877.808 48.4897L877.808 50.5561L878.808 50.5561L879.808 50.5561L879.808 48.4897L878.808 48.4897ZM878.808 54.6887L877.808 54.6887L877.808 58.8214L878.808 58.8214L879.808 58.8214L879.808 54.6887L878.808 54.6887ZM878.808 62.954L877.808 62.954L877.808 67.0867L878.808 67.0867L879.808 67.0867L879.808 62.954L878.808 62.954ZM878.808 71.2193L877.808 71.2193L877.808 75.352L878.808 75.352L879.808 75.352L879.808 71.2193L878.808 71.2193ZM878.808 79.4846L877.808 79.4846L877.808 83.6173L878.808 83.6173L879.808 83.6173L879.808 79.4846L878.808 79.4846ZM878.808 87.75L877.808 87.75L877.808 91.8826L878.808 91.8826L879.808 91.8826L879.808 87.75L878.808 87.75ZM878.808 96.0153L877.808 96.0153L877.808 100.148L878.808 100.148L879.808 100.148L879.808 96.0153L878.808 96.0153ZM878.808 104.281L877.808 104.281L877.808 108.413L878.808 108.413L879.808 108.413L879.808 104.281L878.808 104.281ZM878.808 112.546L877.808 112.546L877.808 114.612L878.808 114.612L879.808 114.612L879.808 112.546L878.808 112.546Z" fill="#007FFF"/>
<path d="M572.23 109.279C569.284 109.279 566.897 111.667 566.897 114.612C566.897 117.558 569.284 119.946 572.23 119.946C575.175 119.946 577.563 117.558 577.563 114.612C577.563 111.667 575.175 109.279 572.23 109.279ZM572.23 48.4897L571.23 48.4897L571.23 50.5561L572.23 50.5561L573.23 50.5561L573.23 48.4897L572.23 48.4897ZM572.23 54.6887L571.23 54.6887L571.23 58.8214L572.23 58.8214L573.23 58.8214L573.23 54.6887L572.23 54.6887ZM572.23 62.954L571.23 62.954L571.23 67.0867L572.23 67.0867L573.23 67.0867L573.23 62.954L572.23 62.954ZM572.23 71.2193L571.23 71.2193L571.23 75.352L572.23 75.352L573.23 75.352L573.23 71.2193L572.23 71.2193ZM572.23 79.4846L571.23 79.4846L571.23 83.6173L572.23 83.6173L573.23 83.6173L573.23 79.4846L572.23 79.4846ZM572.23 87.75L571.23 87.75L571.23 91.8826L572.23 91.8826L573.23 91.8826L573.23 87.75L572.23 87.75ZM572.23 96.0153L571.23 96.0153L571.23 100.148L572.23 100.148L573.23 100.148L573.23 96.0153L572.23 96.0153ZM572.23 104.281L571.23 104.281L571.23 108.413L572.23 108.413L573.23 108.413L573.23 104.281L572.23 104.281ZM572.23 112.546L571.23 112.546L571.23 114.612L572.23 114.612L573.23 114.612L573.23 112.546L572.23 112.546Z" fill="#007FFF"/>
<path d="M267.738 104.871C264.793 104.871 262.405 107.259 262.405 110.204C262.405 113.15 264.793 115.537 267.738 115.537C270.684 115.537 273.071 113.15 273.071 110.204C273.071 107.259 270.684 104.871 267.738 104.871ZM267.738 44.0817L266.738 44.0817L266.738 46.148L267.738 46.148L268.738 46.148L268.738 44.0817L267.738 44.0817ZM267.738 50.2806L266.738 50.2806L266.738 54.4133L267.738 54.4133L268.738 54.4133L268.738 50.2806L267.738 50.2806ZM267.738 58.546L266.738 58.546L266.738 62.6786L267.738 62.6786L268.738 62.6786L268.738 58.546L267.738 58.546ZM267.738 66.8113L266.738 66.8113L266.738 70.9439L267.738 70.9439L268.738 70.9439L268.738 66.8113L267.738 66.8113ZM267.738 75.0766L266.738 75.0766L266.738 79.2092L267.738 79.2092L268.738 79.2092L268.738 75.0766L267.738 75.0766ZM267.738 83.3419L266.738 83.3419L266.738 87.4745L267.738 87.4745L268.738 87.4745L268.738 83.3419L267.738 83.3419ZM267.738 91.6072L266.738 91.6072L266.738 95.7398L267.738 95.7398L268.738 95.7398L268.738 91.6072L267.738 91.6072ZM267.738 99.8725L266.738 99.8725L266.738 104.005L267.738 104.005L268.738 104.005L268.738 99.8725L267.738 99.8725ZM267.738 108.138L266.738 108.138L266.738 110.204L267.738 110.204L268.738 110.204L268.738 108.138L267.738 108.138Z" fill="#007FFF"/>
<circle cx="268.797" cy="24" r="24" fill="#007FFF"/>
<circle cx="268.797" cy="340" r="24" fill="#007FFF"/>
<circle cx="574.332" cy="24" r="24" fill="#007FFF"/>
<ellipse cx="574.332" cy="340.5" rx="24" ry="24.5" fill="#007FFF"/>
<circle cx="879.866" cy="24" r="24" fill="#007FFF"/>
<circle cx="880.909" cy="341" r="24" fill="#007FFF"/>
<path d="M263.656 30.192C262.76 30.192 261.992 29.952 261.352 29.472C260.723 28.992 260.243 28.32 259.912 27.456C259.592 26.5813 259.432 25.5627 259.432 24.4C259.432 23.2373 259.592 22.224 259.912 21.36C260.243 20.4853 260.723 19.808 261.352 19.328C261.992 18.848 262.76 18.608 263.656 18.608C264.552 18.608 265.32 18.848 265.96 19.328C266.6 19.808 267.08 20.4853 267.4 21.36C267.731 22.224 267.896 23.2373 267.896 24.4C267.896 25.5627 267.731 26.5813 267.4 27.456C267.08 28.32 266.6 28.992 265.96 29.472C265.32 29.952 264.552 30.192 263.656 30.192ZM263.656 29.04C264.637 29.04 265.395 28.64 265.928 27.84C266.472 27.04 266.744 25.8933 266.744 24.4C266.744 22.9067 266.472 21.76 265.928 20.96C265.395 20.16 264.637 19.76 263.656 19.76C262.685 19.76 261.928 20.16 261.384 20.96C260.84 21.76 260.568 22.9067 260.568 24.4C260.568 25.8933 260.84 27.04 261.384 27.84C261.928 28.64 262.685 29.04 263.656 29.04ZM273.72 18.8V28.912H277.064V30H268.904V28.912H272.584V19.984L270.248 20.976L269.72 20.064L272.584 18.8H273.72Z" fill="white"/>
<path d="M568.656 30.192C567.76 30.192 566.992 29.952 566.352 29.472C565.723 28.992 565.243 28.32 564.912 27.456C564.592 26.5813 564.432 25.5627 564.432 24.4C564.432 23.2373 564.592 22.224 564.912 21.36C565.243 20.4853 565.723 19.808 566.352 19.328C566.992 18.848 567.76 18.608 568.656 18.608C569.552 18.608 570.32 18.848 570.96 19.328C571.6 19.808 572.08 20.4853 572.4 21.36C572.731 22.224 572.896 23.2373 572.896 24.4C572.896 25.5627 572.731 26.5813 572.4 27.456C572.08 28.32 571.6 28.992 570.96 29.472C570.32 29.952 569.552 30.192 568.656 30.192ZM568.656 29.04C569.637 29.04 570.395 28.64 570.928 27.84C571.472 27.04 571.744 25.8933 571.744 24.4C571.744 22.9067 571.472 21.76 570.928 20.96C570.395 20.16 569.637 19.76 568.656 19.76C567.685 19.76 566.928 20.16 566.384 20.96C565.84 21.76 565.568 22.9067 565.568 24.4C565.568 25.8933 565.84 27.04 566.384 27.84C566.928 28.64 567.685 29.04 568.656 29.04ZM581.952 28.912V30H574.128V29.584C574.224 28.5813 574.555 27.6213 575.12 26.704C575.696 25.7867 576.464 25.1147 577.424 24.688C577.552 24.624 577.744 24.5387 578 24.432C578.587 24.1653 579.04 23.936 579.36 23.744C579.691 23.552 579.963 23.3067 580.176 23.008C580.4 22.7093 580.512 22.3413 580.512 21.904C580.512 21.4347 580.384 21.0347 580.128 20.704C579.883 20.3627 579.568 20.1067 579.184 19.936C578.8 19.7653 578.416 19.68 578.032 19.68C577.285 19.68 576.635 19.8453 576.08 20.176C575.525 20.496 575.195 20.9707 575.088 21.6L574 21.472C574.085 20.864 574.32 20.3467 574.704 19.92C575.099 19.4933 575.584 19.1733 576.16 18.96C576.747 18.736 577.371 18.624 578.032 18.624C578.629 18.624 579.2 18.752 579.744 19.008C580.299 19.2533 580.747 19.6213 581.088 20.112C581.44 20.6027 581.616 21.184 581.616 21.856C581.616 22.5493 581.451 23.1253 581.12 23.584C580.8 24.032 580.405 24.3893 579.936 24.656C579.467 24.912 578.773 25.2427 577.856 25.648C577.248 25.9253 576.731 26.3573 576.304 26.944C575.888 27.5307 575.589 28.1867 575.408 28.912H581.952Z" fill="white"/>
<path d="M875.656 30.192C874.76 30.192 873.992 29.952 873.352 29.472C872.723 28.992 872.243 28.32 871.912 27.456C871.592 26.5813 871.432 25.5627 871.432 24.4C871.432 23.2373 871.592 22.224 871.912 21.36C872.243 20.4853 872.723 19.808 873.352 19.328C873.992 18.848 874.76 18.608 875.656 18.608C876.552 18.608 877.32 18.848 877.96 19.328C878.6 19.808 879.08 20.4853 879.4 21.36C879.731 22.224 879.896 23.2373 879.896 24.4C879.896 25.5627 879.731 26.5813 879.4 27.456C879.08 28.32 878.6 28.992 877.96 29.472C877.32 29.952 876.552 30.192 875.656 30.192ZM875.656 29.04C876.637 29.04 877.395 28.64 877.928 27.84C878.472 27.04 878.744 25.8933 878.744 24.4C878.744 22.9067 878.472 21.76 877.928 20.96C877.395 20.16 876.637 19.76 875.656 19.76C874.685 19.76 873.928 20.16 873.384 20.96C872.84 21.76 872.568 22.9067 872.568 24.4C872.568 25.8933 872.84 27.04 873.384 27.84C873.928 28.64 874.685 29.04 875.656 29.04ZM886.92 24C887.475 24.288 887.907 24.6773 888.216 25.168C888.536 25.6587 888.696 26.2133 888.696 26.832C888.696 27.472 888.525 28.048 888.184 28.56C887.853 29.0613 887.395 29.456 886.808 29.744C886.232 30.032 885.587 30.176 884.872 30.176C884.275 30.176 883.709 30.064 883.176 29.84C882.643 29.6053 882.195 29.2907 881.832 28.896C881.48 28.4907 881.251 28.0373 881.144 27.536L882.36 27.424C882.52 27.904 882.835 28.2987 883.304 28.608C883.784 28.9173 884.307 29.072 884.872 29.072C885.384 29.072 885.843 28.976 886.248 28.784C886.664 28.5813 886.984 28.3093 887.208 27.968C887.443 27.616 887.56 27.2267 887.56 26.8C887.56 26.3733 887.443 25.9893 887.208 25.648C886.984 25.296 886.664 25.024 886.248 24.832C885.843 24.6293 885.384 24.528 884.872 24.528H884.328V23.52L884.872 23.536C885.555 23.536 886.12 23.3547 886.568 22.992C887.016 22.6293 887.24 22.1653 887.24 21.6C887.24 21.0453 887.011 20.5867 886.552 20.224C886.104 19.8613 885.539 19.68 884.856 19.68C884.387 19.68 883.939 19.8027 883.512 20.048C883.085 20.2933 882.781 20.608 882.6 20.992L881.448 20.88C881.619 20.2293 882.019 19.6907 882.648 19.264C883.288 18.8373 884.024 18.624 884.856 18.624C885.528 18.624 886.131 18.752 886.664 19.008C887.197 19.264 887.613 19.6213 887.912 20.08C888.211 20.528 888.36 21.0347 888.36 21.6C888.36 22.112 888.232 22.576 887.976 22.992C887.731 23.408 887.379 23.744 886.92 24Z" fill="white"/>
<path d="M263.656 344.192C262.76 344.192 261.992 343.952 261.352 343.472C260.723 342.992 260.243 342.32 259.912 341.456C259.592 340.581 259.432 339.563 259.432 338.4C259.432 337.237 259.592 336.224 259.912 335.36C260.243 334.485 260.723 333.808 261.352 333.328C261.992 332.848 262.76 332.608 263.656 332.608C264.552 332.608 265.32 332.848 265.96 333.328C266.6 333.808 267.08 334.485 267.4 335.36C267.731 336.224 267.896 337.237 267.896 338.4C267.896 339.563 267.731 340.581 267.4 341.456C267.08 342.32 266.6 342.992 265.96 343.472C265.32 343.952 264.552 344.192 263.656 344.192ZM263.656 343.04C264.637 343.04 265.395 342.64 265.928 341.84C266.472 341.04 266.744 339.893 266.744 338.4C266.744 336.907 266.472 335.76 265.928 334.96C265.395 334.16 264.637 333.76 263.656 333.76C262.685 333.76 261.928 334.16 261.384 334.96C260.84 335.76 260.568 336.907 260.568 338.4C260.568 339.893 260.84 341.04 261.384 341.84C261.928 342.64 262.685 343.04 263.656 343.04ZM272.92 336.432C273.709 336.443 274.413 336.619 275.032 336.96C275.651 337.291 276.136 337.749 276.488 338.336C276.84 338.923 277.016 339.584 277.016 340.32C277.016 341.056 276.84 341.717 276.488 342.304C276.136 342.891 275.651 343.349 275.032 343.68C274.413 344.011 273.709 344.176 272.92 344.176C272.131 344.176 271.421 344.011 270.792 343.68C270.173 343.349 269.688 342.891 269.336 342.304C268.984 341.717 268.808 341.056 268.808 340.32C268.808 339.456 269.048 338.699 269.528 338.048L272.84 332.8H274.168L271.784 336.56C272.179 336.475 272.557 336.432 272.92 336.432ZM272.92 343.024C273.475 343.024 273.971 342.907 274.408 342.672C274.856 342.437 275.203 342.117 275.448 341.712C275.704 341.296 275.832 340.832 275.832 340.32C275.832 339.808 275.704 339.344 275.448 338.928C275.203 338.512 274.856 338.187 274.408 337.952C273.971 337.707 273.475 337.584 272.92 337.584C272.365 337.584 271.864 337.701 271.416 337.936C270.979 338.171 270.632 338.496 270.376 338.912C270.131 339.328 270.008 339.797 270.008 340.32C270.008 340.832 270.131 341.296 270.376 341.712C270.632 342.117 270.984 342.437 271.432 342.672C271.88 342.907 272.376 343.024 272.92 343.024Z" fill="white"/>
<path d="M568.656 344.192C567.76 344.192 566.992 343.952 566.352 343.472C565.723 342.992 565.243 342.32 564.912 341.456C564.592 340.581 564.432 339.563 564.432 338.4C564.432 337.237 564.592 336.224 564.912 335.36C565.243 334.485 565.723 333.808 566.352 333.328C566.992 332.848 567.76 332.608 568.656 332.608C569.552 332.608 570.32 332.848 570.96 333.328C571.6 333.808 572.08 334.485 572.4 335.36C572.731 336.224 572.896 337.237 572.896 338.4C572.896 339.563 572.731 340.581 572.4 341.456C572.08 342.32 571.6 342.992 570.96 343.472C570.32 343.952 569.552 344.192 568.656 344.192ZM568.656 343.04C569.637 343.04 570.395 342.64 570.928 341.84C571.472 341.04 571.744 339.893 571.744 338.4C571.744 336.907 571.472 335.76 570.928 334.96C570.395 334.16 569.637 333.76 568.656 333.76C567.685 333.76 566.928 334.16 566.384 334.96C565.84 335.76 565.568 336.907 565.568 338.4C565.568 339.893 565.84 341.04 566.384 341.84C566.928 342.64 567.685 343.04 568.656 343.04ZM577.936 337.296C579.109 337.296 580.032 337.579 580.704 338.144C581.376 338.699 581.712 339.461 581.712 340.432C581.712 341.584 581.371 342.496 580.688 343.168C580.016 343.84 579.099 344.176 577.936 344.176C576.933 344.176 576.096 343.947 575.424 343.488C574.763 343.019 574.347 342.379 574.176 341.568L575.312 341.424C575.493 341.925 575.819 342.325 576.288 342.624C576.757 342.923 577.307 343.072 577.936 343.072C578.779 343.072 579.435 342.837 579.904 342.368C580.384 341.899 580.624 341.253 580.624 340.432C580.624 339.771 580.384 339.253 579.904 338.88C579.435 338.496 578.779 338.304 577.936 338.304H575.296L575.312 338.272L574.688 338.304L575.392 332.8H581.392V333.872H576.336L575.904 337.296H577.936Z" fill="white"/>
<path d="M875.656 344.192C874.76 344.192 873.992 343.952 873.352 343.472C872.723 342.992 872.243 342.32 871.912 341.456C871.592 340.581 871.432 339.563 871.432 338.4C871.432 337.237 871.592 336.224 871.912 335.36C872.243 334.485 872.723 333.808 873.352 333.328C873.992 332.848 874.76 332.608 875.656 332.608C876.552 332.608 877.32 332.848 877.96 333.328C878.6 333.808 879.08 334.485 879.4 335.36C879.731 336.224 879.896 337.237 879.896 338.4C879.896 339.563 879.731 340.581 879.4 341.456C879.08 342.32 878.6 342.992 877.96 343.472C877.32 343.952 876.552 344.192 875.656 344.192ZM875.656 343.04C876.637 343.04 877.395 342.64 877.928 341.84C878.472 341.04 878.744 339.893 878.744 338.4C878.744 336.907 878.472 335.76 877.928 334.96C877.395 334.16 876.637 333.76 875.656 333.76C874.685 333.76 873.928 334.16 873.384 334.96C872.84 335.76 872.568 336.907 872.568 338.4C872.568 339.893 872.84 341.04 873.384 341.84C873.928 342.64 874.685 343.04 875.656 343.04ZM887.72 340.336H889.16V341.408H887.72V344H886.568V341.408H880.68V340.336L884.616 332.8H885.896L881.96 340.336H886.568V337.248H887.72V340.336Z" fill="white"/>
<path d="M235.32 126C236.107 126 236.833 126.193 237.5 126.58C238.167 126.967 238.693 127.493 239.08 128.16C239.467 128.813 239.66 129.533 239.66 130.32C239.66 131.107 239.467 131.833 239.08 132.5C238.693 133.167 238.167 133.693 237.5 134.08C236.833 134.467 236.107 134.66 235.32 134.66H232.08V140H230.66V126H235.32ZM235.32 133.28C235.853 133.28 236.347 133.147 236.8 132.88C237.253 132.613 237.613 132.253 237.88 131.8C238.147 131.347 238.28 130.853 238.28 130.32C238.28 129.787 238.147 129.3 237.88 128.86C237.613 128.407 237.253 128.047 236.8 127.78C236.347 127.513 235.853 127.38 235.32 127.38H232.08V133.28H235.32ZM242.875 138.22C242.875 138.447 242.921 138.607 243.015 138.7C243.121 138.78 243.281 138.82 243.495 138.82C243.681 138.82 243.895 138.8 244.135 138.76V140C243.775 140.067 243.455 140.1 243.175 140.1C242.668 140.1 242.268 139.967 241.975 139.7C241.681 139.433 241.535 138.96 241.535 138.28V126H242.875V138.22ZM254.272 130H255.612V140H254.272V138.14C253.818 138.793 253.238 139.307 252.532 139.68C251.838 140.053 251.085 140.24 250.272 140.24C249.312 140.24 248.445 140.013 247.672 139.56C246.898 139.093 246.292 138.46 245.852 137.66C245.425 136.86 245.212 135.98 245.212 135.02C245.212 134.047 245.425 133.16 245.852 132.36C246.292 131.56 246.898 130.933 247.672 130.48C248.445 130.013 249.312 129.78 250.272 129.78C251.085 129.78 251.838 129.973 252.532 130.36C253.225 130.733 253.805 131.247 254.272 131.9V130ZM250.412 138.94C251.118 138.94 251.765 138.767 252.352 138.42C252.938 138.073 253.398 137.6 253.732 137C254.078 136.4 254.252 135.733 254.252 135C254.252 134.267 254.078 133.607 253.732 133.02C253.398 132.42 252.938 131.953 252.352 131.62C251.765 131.273 251.118 131.1 250.412 131.1C249.705 131.1 249.058 131.273 248.472 131.62C247.885 131.967 247.418 132.44 247.072 133.04C246.738 133.627 246.572 134.287 246.572 135.02C246.572 135.753 246.738 136.42 247.072 137.02C247.418 137.607 247.885 138.073 248.472 138.42C249.058 138.767 249.705 138.94 250.412 138.94ZM263.046 129.78C263.633 129.78 264.233 129.9 264.846 130.14C265.473 130.38 266.006 130.82 266.446 131.46C266.899 132.087 267.126 132.94 267.126 134.02V140H265.786V134.02C265.786 132.927 265.486 132.153 264.886 131.7C264.286 131.233 263.599 131 262.826 131C262.066 131 261.386 131.267 260.786 131.8C260.199 132.32 259.906 133.193 259.906 134.42V140H258.566V130H259.906V131.4C260.239 130.933 260.679 130.547 261.226 130.24C261.786 129.933 262.393 129.78 263.046 129.78ZM273.925 129.78C274.512 129.78 275.112 129.9 275.725 130.14C276.352 130.38 276.885 130.82 277.325 131.46C277.778 132.087 278.005 132.94 278.005 134.02V140H276.665V134.02C276.665 132.927 276.365 132.153 275.765 131.7C275.165 131.233 274.478 131 273.705 131C272.945 131 272.265 131.267 271.665 131.8C271.078 132.32 270.785 133.193 270.785 134.42V140H269.445V130H270.785V131.4C271.118 130.933 271.558 130.547 272.105 130.24C272.665 129.933 273.272 129.78 273.925 129.78ZM280.964 127.42C280.697 127.42 280.477 127.34 280.304 127.18C280.144 127.02 280.064 126.807 280.064 126.54C280.064 126.273 280.144 126.06 280.304 125.9C280.477 125.74 280.697 125.66 280.964 125.66C281.244 125.66 281.464 125.74 281.624 125.9C281.784 126.06 281.864 126.273 281.864 126.54C281.864 126.807 281.784 127.02 281.624 127.18C281.464 127.34 281.244 127.42 280.964 127.42ZM280.284 140V130H281.624V140H280.284ZM288.964 129.78C289.551 129.78 290.151 129.9 290.764 130.14C291.391 130.38 291.924 130.82 292.364 131.46C292.817 132.087 293.044 132.94 293.044 134.02V140H291.704V134.02C291.704 132.927 291.404 132.153 290.804 131.7C290.204 131.233 289.517 131 288.744 131C287.984 131 287.304 131.267 286.704 131.8C286.117 132.32 285.824 133.193 285.824 134.42V140H284.484V130H285.824V131.4C286.157 130.933 286.597 130.547 287.144 130.24C287.704 129.933 288.311 129.78 288.964 129.78ZM303.863 130H305.223V139.52C305.223 140.48 304.996 141.313 304.543 142.02C304.089 142.74 303.463 143.287 302.663 143.66C301.876 144.047 300.996 144.24 300.023 144.24C298.863 144.24 297.849 144.02 296.983 143.58C296.116 143.153 295.503 142.573 295.143 141.84L296.303 141.16C296.556 141.68 296.996 142.113 297.623 142.46C298.263 142.807 299.069 142.98 300.043 142.98C300.763 142.98 301.409 142.833 301.983 142.54C302.569 142.26 303.029 141.853 303.363 141.32C303.696 140.8 303.863 140.2 303.863 139.52V138.16C303.409 138.8 302.829 139.307 302.123 139.68C301.429 140.053 300.683 140.24 299.883 140.24C298.923 140.24 298.056 140.013 297.283 139.56C296.509 139.093 295.903 138.46 295.463 137.66C295.036 136.86 294.823 135.98 294.823 135.02C294.823 134.047 295.036 133.16 295.463 132.36C295.903 131.56 296.509 130.933 297.283 130.48C298.056 130.013 298.923 129.78 299.883 129.78C300.683 129.78 301.429 129.967 302.123 130.34C302.829 130.713 303.409 131.227 303.863 131.88V130ZM300.003 138.94C300.709 138.94 301.356 138.767 301.943 138.42C302.543 138.073 303.009 137.6 303.343 137C303.689 136.4 303.863 135.733 303.863 135C303.863 134.267 303.689 133.607 303.343 133.02C303.009 132.42 302.543 131.953 301.943 131.62C301.356 131.273 300.709 131.1 300.003 131.1C299.296 131.1 298.649 131.273 298.063 131.62C297.476 131.967 297.016 132.44 296.683 133.04C296.349 133.627 296.183 134.287 296.183 135.02C296.183 135.753 296.349 136.42 296.683 137.02C297.016 137.607 297.476 138.073 298.063 138.42C298.649 138.767 299.296 138.94 300.003 138.94Z" fill="black"/>
<path d="M541.58 126C542.887 126 544.087 126.307 545.18 126.92C546.273 127.533 547.14 128.38 547.78 129.46C548.42 130.527 548.74 131.713 548.74 133.02C548.74 134.327 548.42 135.513 547.78 136.58C547.14 137.633 546.273 138.467 545.18 139.08C544.087 139.693 542.887 140 541.58 140H536.66V126H541.58ZM541.58 138.64C542.633 138.64 543.6 138.393 544.48 137.9C545.36 137.407 546.053 136.733 546.56 135.88C547.067 135.027 547.32 134.073 547.32 133.02C547.32 131.967 547.067 131.007 546.56 130.14C546.053 129.273 545.36 128.593 544.48 128.1C543.6 127.593 542.633 127.34 541.58 127.34H538.08V138.64H541.58ZM555.298 129.76C556.271 129.76 557.138 130 557.898 130.48C558.658 130.96 559.244 131.607 559.658 132.42C560.071 133.22 560.278 134.087 560.278 135.02C560.278 135.087 560.264 135.267 560.238 135.56H551.458C551.524 136.213 551.724 136.8 552.058 137.32C552.404 137.84 552.864 138.253 553.438 138.56C554.024 138.867 554.691 139.02 555.438 139.02C556.118 139.02 556.758 138.867 557.358 138.56C557.971 138.24 558.418 137.847 558.698 137.38L559.778 138.02C559.338 138.713 558.738 139.26 557.978 139.66C557.231 140.047 556.378 140.24 555.418 140.24C554.378 140.24 553.451 140.013 552.638 139.56C551.838 139.107 551.211 138.48 550.758 137.68C550.304 136.88 550.078 135.987 550.078 135C550.078 134.027 550.298 133.14 550.738 132.34C551.178 131.54 551.791 130.913 552.578 130.46C553.378 129.993 554.284 129.76 555.298 129.76ZM558.978 134.42C558.844 133.353 558.458 132.513 557.818 131.9C557.178 131.287 556.338 130.98 555.298 130.98C554.564 130.98 553.904 131.14 553.318 131.46C552.731 131.78 552.271 132.207 551.938 132.74C551.618 133.273 551.451 133.833 551.438 134.42H558.978ZM563.105 132.7C563.105 133.127 563.305 133.44 563.705 133.64C564.105 133.84 564.738 134.047 565.605 134.26C566.405 134.46 567.045 134.653 567.525 134.84C568.005 135.013 568.418 135.3 568.765 135.7C569.125 136.087 569.305 136.607 569.305 137.26C569.305 137.847 569.132 138.367 568.785 138.82C568.452 139.273 567.992 139.627 567.405 139.88C566.818 140.12 566.158 140.24 565.425 140.24C564.425 140.24 563.578 140.04 562.885 139.64C562.192 139.227 561.698 138.673 561.405 137.98L562.545 137.38C562.758 137.953 563.118 138.38 563.625 138.66C564.132 138.94 564.732 139.08 565.425 139.08C566.118 139.08 566.718 138.92 567.225 138.6C567.732 138.267 567.985 137.82 567.985 137.26C567.985 136.9 567.865 136.613 567.625 136.4C567.385 136.173 567.085 136 566.725 135.88C566.378 135.76 565.892 135.627 565.265 135.48C564.492 135.293 563.872 135.113 563.405 134.94C562.952 134.753 562.558 134.487 562.225 134.14C561.905 133.78 561.745 133.307 561.745 132.72C561.745 132.16 561.898 131.653 562.205 131.2C562.525 130.747 562.958 130.393 563.505 130.14C564.065 129.887 564.692 129.76 565.385 129.76C566.212 129.76 566.938 129.94 567.565 130.3C568.205 130.66 568.685 131.16 569.005 131.8L567.885 132.36C567.685 131.907 567.372 131.553 566.945 131.3C566.518 131.047 565.998 130.92 565.385 130.92C564.678 130.92 564.118 131.08 563.705 131.4C563.305 131.72 563.105 132.153 563.105 132.7ZM571.827 127.42C571.56 127.42 571.34 127.34 571.167 127.18C571.007 127.02 570.927 126.807 570.927 126.54C570.927 126.273 571.007 126.06 571.167 125.9C571.34 125.74 571.56 125.66 571.827 125.66C572.107 125.66 572.327 125.74 572.487 125.9C572.647 126.06 572.727 126.273 572.727 126.54C572.727 126.807 572.647 127.02 572.487 127.18C572.327 127.34 572.107 127.42 571.827 127.42ZM571.147 140V130H572.487V140H571.147ZM583.75 130H585.11V139.52C585.11 140.48 584.883 141.313 584.43 142.02C583.976 142.74 583.35 143.287 582.55 143.66C581.763 144.047 580.883 144.24 579.91 144.24C578.75 144.24 577.736 144.02 576.87 143.58C576.003 143.153 575.39 142.573 575.03 141.84L576.19 141.16C576.443 141.68 576.883 142.113 577.51 142.46C578.15 142.807 578.956 142.98 579.93 142.98C580.65 142.98 581.296 142.833 581.87 142.54C582.456 142.26 582.916 141.853 583.25 141.32C583.583 140.8 583.75 140.2 583.75 139.52V138.16C583.296 138.8 582.716 139.307 582.01 139.68C581.316 140.053 580.57 140.24 579.77 140.24C578.81 140.24 577.943 140.013 577.17 139.56C576.396 139.093 575.79 138.46 575.35 137.66C574.923 136.86 574.71 135.98 574.71 135.02C574.71 134.047 574.923 133.16 575.35 132.36C575.79 131.56 576.396 130.933 577.17 130.48C577.943 130.013 578.81 129.78 579.77 129.78C580.57 129.78 581.316 129.967 582.01 130.34C582.716 130.713 583.296 131.227 583.75 131.88V130ZM579.89 138.94C580.596 138.94 581.243 138.767 581.83 138.42C582.43 138.073 582.896 137.6 583.23 137C583.576 136.4 583.75 135.733 583.75 135C583.75 134.267 583.576 133.607 583.23 133.02C582.896 132.42 582.43 131.953 581.83 131.62C581.243 131.273 580.596 131.1 579.89 131.1C579.183 131.1 578.536 131.273 577.95 131.62C577.363 131.967 576.903 132.44 576.57 133.04C576.236 133.627 576.07 134.287 576.07 135.02C576.07 135.753 576.236 136.42 576.57 137.02C576.903 137.607 577.363 138.073 577.95 138.42C578.536 138.767 579.183 138.94 579.89 138.94ZM592.523 129.78C593.109 129.78 593.709 129.9 594.323 130.14C594.949 130.38 595.483 130.82 595.923 131.46C596.376 132.087 596.603 132.94 596.603 134.02V140H595.263V134.02C595.263 132.927 594.963 132.153 594.363 131.7C593.763 131.233 593.076 131 592.303 131C591.543 131 590.863 131.267 590.263 131.8C589.676 132.32 589.383 133.193 589.383 134.42V140H588.043V130H589.383V131.4C589.716 130.933 590.156 130.547 590.703 130.24C591.263 129.933 591.869 129.78 592.523 129.78Z" fill="black"/>
<path d="M823.58 126C824.887 126 826.087 126.307 827.18 126.92C828.273 127.533 829.14 128.38 829.78 129.46C830.42 130.527 830.74 131.713 830.74 133.02C830.74 134.327 830.42 135.513 829.78 136.58C829.14 137.633 828.273 138.467 827.18 139.08C826.087 139.693 824.887 140 823.58 140H818.66V126H823.58ZM823.58 138.64C824.633 138.64 825.6 138.393 826.48 137.9C827.36 137.407 828.053 136.733 828.56 135.88C829.067 135.027 829.32 134.073 829.32 133.02C829.32 131.967 829.067 131.007 828.56 130.14C828.053 129.273 827.36 128.593 826.48 128.1C825.6 127.593 824.633 127.34 823.58 127.34H820.08V138.64H823.58ZM837.298 129.76C838.271 129.76 839.138 130 839.898 130.48C840.658 130.96 841.244 131.607 841.658 132.42C842.071 133.22 842.278 134.087 842.278 135.02C842.278 135.087 842.264 135.267 842.238 135.56H833.458C833.524 136.213 833.724 136.8 834.058 137.32C834.404 137.84 834.864 138.253 835.438 138.56C836.024 138.867 836.691 139.02 837.438 139.02C838.118 139.02 838.758 138.867 839.358 138.56C839.971 138.24 840.418 137.847 840.698 137.38L841.778 138.02C841.338 138.713 840.738 139.26 839.978 139.66C839.231 140.047 838.378 140.24 837.418 140.24C836.378 140.24 835.451 140.013 834.638 139.56C833.838 139.107 833.211 138.48 832.758 137.68C832.304 136.88 832.078 135.987 832.078 135C832.078 134.027 832.298 133.14 832.738 132.34C833.178 131.54 833.791 130.913 834.578 130.46C835.378 129.993 836.284 129.76 837.298 129.76ZM840.978 134.42C840.844 133.353 840.458 132.513 839.818 131.9C839.178 131.287 838.338 130.98 837.298 130.98C836.564 130.98 835.904 131.14 835.318 131.46C834.731 131.78 834.271 132.207 833.938 132.74C833.618 133.273 833.451 133.833 833.438 134.42H840.978ZM847.452 138.5L850.872 130H852.312L848.292 140H846.612L842.572 130H844.032L847.452 138.5ZM857.981 129.76C858.955 129.76 859.821 130 860.581 130.48C861.341 130.96 861.928 131.607 862.341 132.42C862.755 133.22 862.961 134.087 862.961 135.02C862.961 135.087 862.948 135.267 862.921 135.56H854.141C854.208 136.213 854.408 136.8 854.741 137.32C855.088 137.84 855.548 138.253 856.121 138.56C856.708 138.867 857.375 139.02 858.121 139.02C858.801 139.02 859.441 138.867 860.041 138.56C860.655 138.24 861.101 137.847 861.381 137.38L862.461 138.02C862.021 138.713 861.421 139.26 860.661 139.66C859.915 140.047 859.061 140.24 858.101 140.24C857.061 140.24 856.135 140.013 855.321 139.56C854.521 139.107 853.895 138.48 853.441 137.68C852.988 136.88 852.761 135.987 852.761 135C852.761 134.027 852.981 133.14 853.421 132.34C853.861 131.54 854.475 130.913 855.261 130.46C856.061 129.993 856.968 129.76 857.981 129.76ZM861.661 134.42C861.528 133.353 861.141 132.513 860.501 131.9C859.861 131.287 859.021 130.98 857.981 130.98C857.248 130.98 856.588 131.14 856.001 131.46C855.415 131.78 854.955 132.207 854.621 132.74C854.301 133.273 854.135 133.833 854.121 134.42H861.661ZM866.129 138.22C866.129 138.447 866.175 138.607 866.269 138.7C866.375 138.78 866.535 138.82 866.749 138.82C866.935 138.82 867.149 138.8 867.389 138.76V140C867.029 140.067 866.709 140.1 866.429 140.1C865.922 140.1 865.522 139.967 865.229 139.7C864.935 139.433 864.789 138.96 864.789 138.28V126H866.129V138.22ZM873.294 140.24C872.348 140.24 871.468 140.007 870.654 139.54C869.854 139.073 869.221 138.44 868.754 137.64C868.288 136.827 868.054 135.947 868.054 135C868.054 134.053 868.288 133.187 868.754 132.4C869.221 131.6 869.854 130.967 870.654 130.5C871.468 130.033 872.348 129.8 873.294 129.8C874.228 129.8 875.094 130.033 875.894 130.5C876.694 130.967 877.328 131.6 877.794 132.4C878.261 133.187 878.494 134.053 878.494 135C878.494 135.947 878.261 136.827 877.794 137.64C877.328 138.44 876.694 139.073 875.894 139.54C875.094 140.007 874.228 140.24 873.294 140.24ZM873.274 138.88C873.981 138.88 874.628 138.707 875.214 138.36C875.814 138.013 876.288 137.547 876.634 136.96C876.981 136.36 877.154 135.707 877.154 135C877.154 134.293 876.981 133.647 876.634 133.06C876.288 132.46 875.814 131.987 875.214 131.64C874.628 131.293 873.981 131.12 873.274 131.12C872.568 131.12 871.914 131.293 871.314 131.64C870.728 131.987 870.261 132.46 869.914 133.06C869.568 133.647 869.394 134.293 869.394 135C869.394 135.707 869.568 136.36 869.914 136.96C870.261 137.547 870.728 138.013 871.314 138.36C871.914 138.707 872.568 138.88 873.274 138.88ZM885.714 129.78C886.674 129.78 887.541 130.013 888.314 130.48C889.087 130.933 889.687 131.56 890.114 132.36C890.554 133.16 890.774 134.04 890.774 135C890.774 135.96 890.554 136.84 890.114 137.64C889.687 138.44 889.087 139.073 888.314 139.54C887.541 140.007 886.674 140.24 885.714 140.24C884.914 140.24 884.161 140.053 883.454 139.68C882.761 139.307 882.187 138.793 881.734 138.14V144H880.394V130H881.734V131.86C882.187 131.22 882.761 130.713 883.454 130.34C884.161 129.967 884.914 129.78 885.714 129.78ZM885.594 138.9C886.301 138.9 886.947 138.733 887.534 138.4C888.121 138.053 888.581 137.587 888.914 137C889.261 136.4 889.434 135.733 889.434 135C889.434 134.267 889.261 133.6 888.914 133C888.581 132.4 888.121 131.933 887.534 131.6C886.947 131.253 886.301 131.08 885.594 131.08C884.887 131.08 884.234 131.253 883.634 131.6C883.047 131.947 882.581 132.42 882.234 133.02C881.901 133.607 881.734 134.267 881.734 135C881.734 135.733 881.901 136.4 882.234 137C882.581 137.587 883.047 138.053 883.634 138.4C884.234 138.733 884.887 138.9 885.594 138.9ZM904.568 129.78C905.155 129.78 905.755 129.9 906.368 130.14C906.995 130.38 907.528 130.82 907.968 131.46C908.422 132.087 908.648 132.94 908.648 134.02V140H907.288V134.02C907.288 132.927 906.988 132.153 906.388 131.7C905.802 131.233 905.115 131 904.328 131C903.702 131 903.122 131.18 902.588 131.54C902.055 131.9 901.702 132.5 901.528 133.34C901.555 133.633 901.568 133.86 901.568 134.02V140H900.208V134.02C900.208 132.927 899.908 132.153 899.308 131.7C898.708 131.233 898.022 131 897.248 131C896.635 131 896.062 131.18 895.528 131.54C895.008 131.887 894.655 132.46 894.468 133.26V140H893.128V130H894.468V131.22C894.828 130.793 895.268 130.447 895.788 130.18C896.308 129.913 896.875 129.78 897.488 129.78C898.168 129.78 898.848 129.94 899.528 130.26C900.222 130.567 900.755 131.1 901.128 131.86C901.408 131.287 901.855 130.8 902.468 130.4C903.095 129.987 903.795 129.78 904.568 129.78ZM915.501 129.76C916.474 129.76 917.341 130 918.101 130.48C918.861 130.96 919.448 131.607 919.861 132.42C920.274 133.22 920.481 134.087 920.481 135.02C920.481 135.087 920.468 135.267 920.441 135.56H911.661C911.728 136.213 911.928 136.8 912.261 137.32C912.608 137.84 913.068 138.253 913.641 138.56C914.228 138.867 914.894 139.02 915.641 139.02C916.321 139.02 916.961 138.867 917.561 138.56C918.174 138.24 918.621 137.847 918.901 137.38L919.981 138.02C919.541 138.713 918.941 139.26 918.181 139.66C917.434 140.047 916.581 140.24 915.621 140.24C914.581 140.24 913.654 140.013 912.841 139.56C912.041 139.107 911.414 138.48 910.961 137.68C910.508 136.88 910.281 135.987 910.281 135C910.281 134.027 910.501 133.14 910.941 132.34C911.381 131.54 911.994 130.913 912.781 130.46C913.581 129.993 914.488 129.76 915.501 129.76ZM919.181 134.42C919.048 133.353 918.661 132.513 918.021 131.9C917.381 131.287 916.541 130.98 915.501 130.98C914.768 130.98 914.108 131.14 913.521 131.46C912.934 131.78 912.474 132.207 912.141 132.74C911.821 133.273 911.654 133.833 911.641 134.42H919.181ZM926.788 129.78C927.375 129.78 927.975 129.9 928.588 130.14C929.215 130.38 929.748 130.82 930.188 131.46C930.641 132.087 930.868 132.94 930.868 134.02V140H929.528V134.02C929.528 132.927 929.228 132.153 928.628 131.7C928.028 131.233 927.341 131 926.568 131C925.808 131 925.128 131.267 924.528 131.8C923.941 132.32 923.648 133.193 923.648 134.42V140H922.308V130H923.648V131.4C923.981 130.933 924.421 130.547 924.968 130.24C925.528 129.933 926.135 129.78 926.788 129.78ZM935.555 137.02C935.555 137.713 935.675 138.193 935.915 138.46C936.155 138.713 936.555 138.84 937.115 138.84C937.288 138.84 937.641 138.813 938.175 138.76V140C937.615 140.067 937.168 140.1 936.835 140.1C935.941 140.1 935.281 139.88 934.855 139.44C934.428 138.987 934.215 138.2 934.215 137.08V131.24H931.855V130H934.215V127.14L935.555 126.64V130H938.135V131.24H935.555V137.02Z" fill="black"/>
<path d="M433 19.5L415 28.5933V10.4067L433 19.5Z" fill="#A0CFFF"/>
<path d="M731 19.5L713 28.5933V10.4067L731 19.5Z" fill="#A0CFFF"/>
<path d="M708 337.5L726 328.407V346.593L708 337.5Z" fill="#A0CFFF"/>
<path d="M409 337.5L427 328.407V346.593L409 337.5Z" fill="#A0CFFF"/>
<path d="M1175.78 185.119L1166.48 167.225L1184.66 167.016L1175.78 185.119Z" fill="#A0CFFF"/>
</svg>
