<svg width="40" height="40" viewBox="0 0 40 40" fill="none" xmlns="http://www.w3.org/2000/svg">
<path opacity="0.2" d="M33.7512 11.25H6.25122C5.56086 11.25 5.00122 11.8096 5.00122 12.5V32.5C5.00122 33.1904 5.56086 33.75 6.25122 33.75H33.7512C34.4416 33.75 35.0012 33.1904 35.0012 32.5V12.5C35.0012 11.8096 34.4416 11.25 33.7512 11.25Z" fill="black"/>
<path d="M20 18.125V26.875" stroke="black" stroke-width="1.5" stroke-linecap="round" stroke-linejoin="round"/>
<path d="M24.375 22.5H15.625" stroke="black" stroke-width="1.5" stroke-linecap="round" stroke-linejoin="round"/>
<path d="M33.7512 11.25H6.25122C5.56086 11.25 5.00122 11.8096 5.00122 12.5V32.5C5.00122 33.1904 5.56086 33.75 6.25122 33.75H33.7512C34.4416 33.75 35.0012 33.1904 35.0012 32.5V12.5C35.0012 11.8096 34.4416 11.25 33.7512 11.25Z" stroke="black" stroke-width="1.5" stroke-linecap="round" stroke-linejoin="round"/>
<path d="M26.25 11.25V8.75C26.25 8.08696 25.9866 7.45107 25.5178 6.98223C25.0489 6.51339 24.413 6.25 23.75 6.25H16.25C15.587 6.25 14.9511 6.51339 14.4822 6.98223C14.0134 7.45107 13.75 8.08696 13.75 8.75V11.25" stroke="black" stroke-width="1.5" stroke-linecap="round" stroke-linejoin="round"/>
</svg>
