<svg width="28" height="28" viewBox="0 0 28 28" fill="none" xmlns="http://www.w3.org/2000/svg">
<mask id="mask0_2216_17878" style="mask-type:alpha" maskUnits="userSpaceOnUse" x="0" y="0" width="28" height="28">
<rect width="28" height="28" fill="#D9D9D9"/>
</mask>
<g mask="url(#mask0_2216_17878)">
<path d="M7.00033 18.6667C6.35866 18.6667 5.80935 18.4382 5.35241 17.9813C4.89546 17.5243 4.66699 16.975 4.66699 16.3334C4.66699 15.6917 4.89546 15.1424 5.35241 14.6855C5.80935 14.2285 6.35866 14 7.00033 14C7.64199 14 8.1913 14.2285 8.64824 14.6855C9.10519 15.1424 9.33366 15.6917 9.33366 16.3334C9.33366 16.975 9.10519 17.5243 8.64824 17.9813C8.1913 18.4382 7.64199 18.6667 7.00033 18.6667ZM21.0003 18.6667C20.3587 18.6667 19.8094 18.4382 19.3524 17.9813C18.8955 17.5243 18.667 16.975 18.667 16.3334C18.667 15.6917 18.8955 15.1424 19.3524 14.6855C19.8094 14.2285 20.3587 14 21.0003 14C21.642 14 22.1913 14.2285 22.6482 14.6855C23.1052 15.1424 23.3337 15.6917 23.3337 16.3334C23.3337 16.975 23.1052 17.5243 22.6482 17.9813C22.1913 18.4382 21.642 18.6667 21.0003 18.6667ZM14.0003 17.5C13.1837 17.5 12.4934 17.2181 11.9295 16.6542C11.3656 16.0903 11.0837 15.4 11.0837 14.5834C11.0837 13.7667 11.3656 13.0764 11.9295 12.5125C12.4934 11.9487 13.1837 11.6667 14.0003 11.6667C14.817 11.6667 15.5073 11.9487 16.0712 12.5125C16.635 13.0764 16.917 13.7667 16.917 14.5834C16.917 15.4 16.635 16.0903 16.0712 16.6542C15.5073 17.2181 14.817 17.5 14.0003 17.5ZM8.28366 24.5C8.55588 23.1584 9.22185 22.0452 10.2816 21.1605C11.3413 20.2757 12.5809 19.8334 14.0003 19.8334C15.4198 19.8334 16.6594 20.2757 17.7191 21.1605C18.7788 22.0452 19.4448 23.1584 19.717 24.5H8.28366ZM2.33366 24.5C2.33366 23.2167 2.7906 22.1181 3.70449 21.2042C4.61838 20.2903 5.71699 19.8334 7.00033 19.8334C7.33088 19.8334 7.64199 19.8625 7.93366 19.9209C8.22533 19.9792 8.50727 20.0667 8.77949 20.1834C8.19616 20.7473 7.71005 21.3938 7.32116 22.123C6.93227 22.8521 6.66977 23.6445 6.53366 24.5H2.33366ZM21.467 24.5C21.3309 23.6445 21.0684 22.8521 20.6795 22.123C20.2906 21.3938 19.8045 20.7473 19.2212 20.1834C19.4934 20.0667 19.7753 19.9792 20.067 19.9209C20.3587 19.8625 20.6698 19.8334 21.0003 19.8334C22.2837 19.8334 23.3823 20.2903 24.2962 21.2042C25.2101 22.1181 25.667 23.2167 25.667 24.5H21.467ZM2.56699 14L1.16699 12.1334L14.0003 2.33337L18.667 5.89171V3.50004H22.167V8.57504L26.8337 12.1334L25.4337 14L14.0003 5.27921L2.56699 14Z" fill="black"/>
</g>
</svg>
