<svg width="64" height="64" viewBox="0 0 64 64" fill="none" xmlns="http://www.w3.org/2000/svg">
<rect width="64" height="64" rx="32" fill="#F2F2F2"/>
<path opacity="0.2" d="M27.5595 31.602C28.5968 33.7227 30.3158 35.4339 32.4412 36.4615C32.5967 36.5352 32.7687 36.5671 32.9403 36.5541C33.1119 36.5412 33.2771 36.4837 33.4198 36.3875L36.5492 34.3007C36.6877 34.2084 36.8469 34.1521 37.0126 34.1369C37.1782 34.1217 37.3451 34.148 37.498 34.2135L43.3526 36.7227C43.5515 36.8071 43.7175 36.954 43.8257 37.141C43.9339 37.3281 43.9783 37.5452 43.9524 37.7597C43.7673 39.2078 43.0608 40.5387 41.9652 41.5033C40.8695 42.4679 39.4598 43 38 43.0001C33.4913 43.0001 29.1673 41.2091 25.9792 38.0209C22.7911 34.8328 21 30.5088 21 26.0001C21.0001 24.5403 21.5322 23.1306 22.4969 22.035C23.4615 20.9393 24.7924 20.2328 26.2404 20.0477C26.4549 20.0218 26.672 20.0662 26.8591 20.1744C27.0461 20.2826 27.193 20.4486 27.2775 20.6475L29.7888 26.5073C29.8537 26.6588 29.8802 26.8241 29.8658 26.9884C29.8514 27.1526 29.7967 27.3108 29.7064 27.4488L27.6268 30.6263C27.5322 30.7692 27.4762 30.9342 27.4644 31.1053C27.4526 31.2763 27.4854 31.4475 27.5595 31.602Z" fill="black"/>
<path d="M27.5595 31.602C28.5968 33.7227 30.3158 35.4339 32.4412 36.4615C32.5967 36.5352 32.7687 36.5671 32.9403 36.5541C33.1119 36.5412 33.2771 36.4837 33.4198 36.3875L36.5492 34.3007C36.6877 34.2084 36.8469 34.1521 37.0126 34.1369C37.1782 34.1217 37.3451 34.148 37.498 34.2135L43.3526 36.7227C43.5515 36.8071 43.7175 36.954 43.8257 37.141C43.9339 37.3281 43.9783 37.5452 43.9524 37.7597C43.7673 39.2078 43.0608 40.5387 41.9652 41.5033C40.8695 42.4679 39.4598 43 38 43.0001C33.4913 43.0001 29.1673 41.2091 25.9792 38.0209C22.7911 34.8328 21 30.5088 21 26.0001C21.0001 24.5403 21.5322 23.1306 22.4969 22.035C23.4615 20.9393 24.7924 20.2328 26.2404 20.0477C26.4549 20.0218 26.672 20.0662 26.8591 20.1744C27.0461 20.2826 27.193 20.4486 27.2775 20.6475L29.7888 26.5073C29.8537 26.6588 29.8802 26.8241 29.8658 26.9884C29.8514 27.1526 29.7967 27.3108 29.7064 27.4488L27.6268 30.6263C27.5322 30.7692 27.4762 30.9342 27.4644 31.1053C27.4526 31.2763 27.4854 31.4475 27.5595 31.602V31.602Z" stroke="black" stroke-width="2" stroke-linecap="round" stroke-linejoin="round"/>
<path d="M35.9272 21C37.6225 21.4559 39.1682 22.3493 40.4095 23.5906C41.6508 24.8319 42.5441 26.3776 43.0001 28.0728" stroke="black" stroke-width="2" stroke-linecap="round" stroke-linejoin="round"/>
<path d="M34.8916 24.8647C35.9087 25.1383 36.8362 25.6743 37.5809 26.4191C38.3257 27.1639 38.8617 28.0913 39.1353 29.1084" stroke="black" stroke-width="2" stroke-linecap="round" stroke-linejoin="round"/>
</svg>
