<svg width="59" height="60" viewBox="0 0 59 60" fill="none" xmlns="http://www.w3.org/2000/svg">
<rect x="0.0332031" y="0.227783" width="58.9338" height="58.9338" rx="10" fill="#EAF8FD"/>
<path opacity="0.2" d="M29.5002 40.1632C35.2818 40.1632 39.9687 35.4763 39.9687 29.6947C39.9687 23.9131 35.2818 19.2262 29.5002 19.2262C23.7186 19.2262 19.0317 23.9131 19.0317 29.6947C19.0317 35.4763 23.7186 40.1632 29.5002 40.1632Z" fill="#32B9E9"/>
<path d="M29.5002 40.1632C35.2818 40.1632 39.9687 35.4763 39.9687 29.6947C39.9687 23.9131 35.2818 19.2262 29.5002 19.2262C23.7186 19.2262 19.0317 23.9131 19.0317 29.6947C19.0317 35.4763 23.7186 40.1632 29.5002 40.1632Z" stroke="#32B9E9" stroke-width="1.93861" stroke-linecap="round" stroke-linejoin="round"/>
<path d="M28.6279 28.8223H29.5003V34.929H30.3727" stroke="#32B9E9" stroke-width="1.93861" stroke-linecap="round" stroke-linejoin="round"/>
<path d="M29.5002 24.5578C29.6876 24.5578 29.8391 24.7093 29.8391 24.8967C29.8391 25.084 29.6876 25.2355 29.5002 25.2355C29.3129 25.2355 29.1614 25.084 29.1614 24.8967C29.1614 24.7093 29.3129 24.5578 29.5002 24.5578Z" fill="#32B9E9" stroke="#32B9E9" stroke-width="1.93861"/>
</svg>
