<svg width="60" height="60" viewBox="0 0 60 60" fill="none" xmlns="http://www.w3.org/2000/svg">
<path d="M0.533203 20.2278C0.533203 10.7997 0.533203 6.08565 3.46214 3.15672C6.39107 0.227783 11.1051 0.227783 20.5332 0.227783H39.467C48.8951 0.227783 53.6091 0.227783 56.538 3.15672C59.467 6.08565 59.467 10.7997 59.467 20.2278V39.1615C59.467 48.5896 59.467 53.3037 56.538 56.2326C53.6091 59.1615 48.8951 59.1615 39.467 59.1615H20.5332C11.1051 59.1615 6.39107 59.1615 3.46214 56.2326C0.533203 53.3037 0.533203 48.5896 0.533203 39.1616V20.2278Z" fill="#EAF8FD"/>
<path opacity="0.2" d="M24.6245 33.9488C23.5872 33.1386 22.747 32.1038 22.1671 30.9222C21.5872 29.7406 21.2827 28.443 21.2765 27.1268C21.2504 22.3983 25.0625 18.4676 29.7898 18.3563C31.6216 18.3122 33.4208 18.846 34.9322 19.882C36.4436 20.918 37.5904 22.4035 38.21 24.128C38.8296 25.8524 38.8905 27.7282 38.384 29.4892C37.8775 31.2502 36.8294 32.807 35.3884 33.9388C35.071 34.1847 34.8137 34.4996 34.6359 34.8596C34.458 35.2195 34.3644 35.6153 34.362 36.0168L34.362 36.6737C34.362 36.9051 34.2701 37.1269 34.1065 37.2905C33.9429 37.4541 33.721 37.5461 33.4896 37.5461H26.5106C26.2792 37.5461 26.0573 37.4541 25.8937 37.2905C25.7301 37.1269 25.6382 36.9051 25.6382 36.6737L25.6382 36.016C25.6372 35.6171 25.5454 35.2236 25.3698 34.8655C25.1942 34.5073 24.9393 34.1938 24.6245 33.9488V33.9488Z" fill="#32B9E9"/>
<path d="M25.6384 41.0356H34.3622" stroke="#32B9E9" stroke-width="1.93861" stroke-linecap="round" stroke-linejoin="round"/>
<path d="M30.0002 37.5461V31.4395" stroke="#32B9E9" stroke-width="1.93861" stroke-linecap="round" stroke-linejoin="round"/>
<path d="M26.5107 27.95L30.0002 31.4395L33.4897 27.95" stroke="#32B9E9" stroke-width="1.93861" stroke-linecap="round" stroke-linejoin="round"/>
<path d="M24.6245 33.9488C23.5872 33.1386 22.747 32.1038 22.1671 30.9222C21.5872 29.7406 21.2827 28.443 21.2765 27.1268C21.2504 22.3983 25.0625 18.4676 29.7898 18.3563C31.6216 18.3122 33.4208 18.846 34.9322 19.882C36.4436 20.918 37.5904 22.4035 38.21 24.128C38.8296 25.8524 38.8905 27.7282 38.384 29.4892C37.8775 31.2502 36.8294 32.807 35.3884 33.9388C35.071 34.1847 34.8137 34.4996 34.6359 34.8596C34.458 35.2195 34.3644 35.6153 34.362 36.0168L34.362 36.6737C34.362 36.9051 34.2701 37.1269 34.1065 37.2905C33.9429 37.4541 33.721 37.5461 33.4896 37.5461H26.5106C26.2792 37.5461 26.0573 37.4541 25.8937 37.2905C25.7301 37.1269 25.6382 36.9051 25.6382 36.6737L25.6382 36.016C25.6372 35.6171 25.5454 35.2236 25.3698 34.8655C25.1942 34.5073 24.9393 34.1938 24.6245 33.9488V33.9488Z" stroke="#32B9E9" stroke-width="1.93861" stroke-linecap="round" stroke-linejoin="round"/>
</svg>
