<svg width="20" height="20" viewBox="0 0 20 20" fill="none" xmlns="http://www.w3.org/2000/svg">
<path d="M5.33317 10L9.33317 13.3334L14.6665 6.66669M9.99984 19.3334C8.77417 19.3334 7.5605 19.0919 6.42813 18.6229C5.29575 18.1539 4.26685 17.4664 3.40017 16.5997C2.53349 15.733 1.84601 14.7041 1.37696 13.5717C0.907918 12.4394 0.666504 11.2257 0.666504 10C0.666504 8.77435 0.907918 7.56068 1.37696 6.42831C1.84601 5.29594 2.53349 4.26704 3.40017 3.40036C4.26685 2.53368 5.29575 1.84619 6.42813 1.37714C7.5605 0.908101 8.77417 0.666687 9.99984 0.666687C12.4752 0.666687 14.8492 1.65002 16.5995 3.40036C18.3498 5.1507 19.3332 7.52467 19.3332 10C19.3332 12.4754 18.3498 14.8493 16.5995 16.5997C14.8492 18.35 12.4752 19.3334 9.99984 19.3334Z" stroke="black"/>
</svg>
