<svg width="32" height="45" viewBox="0 0 32 45" fill="none" xmlns="http://www.w3.org/2000/svg">
<path d="M24.136 9.102L24.248 9.166C22.732 9.966 18.4 12.546 18.4 15.83C18.4 16.938 19.034 18.006 19.628 19.01C20.152 19.894 20.646 20.726 20.646 21.486C20.646 23.4 18.78 24.886 17.726 25.57L17.526 25.454C17.924 24.968 18.414 24.154 18.414 23.286C18.414 22.09 17.8 21.134 17.178 20.164C16.534 19.162 15.882 18.144 15.882 16.824C15.882 12.24 22.112 9.78 24.136 9.102ZM15.946 11.526C18.452 9.286 21.19 6.838 21.19 3.156C21.19 1.49 20.508 0.426 20.17 0L20.06 0.062C20.14 0.394 20.26 1.006 20.26 1.806C20.26 5.158 17.416 7.506 14.664 9.782C12.082 11.918 9.58003 13.986 9.58003 16.754C9.58003 20.724 13.496 23.166 15.15 24.198L15.276 24.278L15.376 24.218C15.2867 24.1193 15.192 24.018 15.092 23.914C13.82 22.56 11.888 20.506 11.888 17.364C11.888 15.158 13.834 13.416 15.946 11.526ZM15.044 31.342C18.572 31.342 21.04 30.836 22.136 30.526L23.8 31.486C22.214 32.292 18.698 32.906 15.036 32.906C10.73 32.906 6.02203 31.982 6.00803 30.75C5.99803 30.07 7.53803 29.618 9.19803 29.326L9.29803 29.384C9.29803 29.384 8.73603 29.586 8.74203 30.05C8.75003 30.75 11.582 31.342 15.042 31.342M7.98403 35.684C7.98403 34.87 9.66203 34.484 10.43 34.33L10.53 34.39C10.398 34.488 10.326 34.622 10.326 34.736C10.326 35.27 12.186 35.758 15.038 35.758C17.594 35.758 19.014 35.444 19.858 35.242L21.838 36.388C21.748 36.452 19.798 37.678 15.034 37.678C11.572 37.678 7.98403 36.814 7.98403 35.684ZM25.042 32.228C27.402 30.882 29.764 29.29 29.898 26.734C29.986 25.056 28.444 23.826 26.758 24.154L26.848 23.93V23.926C27.272 23.798 27.796 23.694 28.382 23.694C30.268 23.694 31.714 24.824 31.898 26.406C32.27 29.578 27.774 31.642 25.256 32.352L25.042 32.228ZM28.992 38.204C29.012 40.384 21.596 41.68 14.968 41.738C9.24603 41.788 0.0200269 40.708 2.68584e-05 38.528C-0.0119731 37.022 4.00003 35.98 6.18003 35.68L6.41003 35.81C6.41003 35.81 3.16003 36.564 3.17003 37.934C3.18203 39.3 10.02 40.482 14.958 40.44C22.608 40.372 27.786 39.126 28.398 37.436L28.506 37.374C28.73 37.538 28.986 37.808 28.992 38.204ZM5.72003 42.644C8.54991 43.0961 11.4123 43.3135 14.278 43.294C26.694 43.186 30.198 40.134 30.738 39.47L30.832 39.526C30.704 41.942 24.138 43.95 16.04 44.02C11.918 44.056 8.16603 43.58 5.47003 42.79L5.72003 42.644ZM10.924 24.078C8.76603 24.244 4.13203 24.93 4.13203 26.15C4.13203 27.074 8.38003 28.376 15.036 28.376C21.024 28.376 24.804 27.246 25.686 26.816L24.4 26.066C23.48 26.316 20.062 27.078 15.036 27.078C12.076 27.078 6.97603 26.532 6.97603 25.698C6.97603 24.95 10.158 24.374 11.072 24.208L11.13 24.198L10.924 24.078Z" fill="white"/>
</svg>
